G04 #@! TF.GenerationSoftware,KiCad,Pcbnew,6.0.0-rc1-unknown*
G04 #@! TF.CreationDate,2019-01-01T14:04:30+03:00
G04 #@! TF.ProjectId,socket,736f636b-6574-42e6-9b69-6361645f7063,rev?*
G04 #@! TF.SameCoordinates,Original*
G04 #@! TF.FileFunction,Copper,L2,Bot*
G04 #@! TF.FilePolarity,Positive*
%FSLAX46Y46*%
G04 Gerber Fmt 4.6, Leading zero omitted, Abs format (unit mm)*
G04 Created by KiCad (PCBNEW 6.0.0-rc1-unknown) date Вт 01 янв 2019 14:04:30*
%MOMM*%
%LPD*%
G04 APERTURE LIST*
%ADD10C,0.150000*%
%ADD11R,1.000000X0.845000*%
%ADD12R,0.845000X1.000000*%
%ADD13R,1.300000X0.800000*%
%ADD14R,0.400000X1.500000*%
%ADD15C,1.676868*%
%ADD16C,0.100000*%
%ADD17R,1.800000X1.800000*%
%ADD18O,1.800000X1.800000*%
%ADD19C,1.520000*%
%ADD20C,2.700000*%
%ADD21R,1.700000X1.700000*%
%ADD22O,1.700000X1.700000*%
%ADD23R,1.846667X3.480000*%
%ADD24R,3.960000X1.980000*%
%ADD25O,3.960000X1.980000*%
%ADD26C,2.500000*%
%ADD27C,3.000000*%
%ADD28R,1.900000X0.800000*%
%ADD29R,1.600000X1.600000*%
%ADD30O,1.600000X1.600000*%
%ADD31R,0.600000X1.550000*%
%ADD32C,1.500000*%
%ADD33C,1.600000*%
%ADD34C,4.000000*%
%ADD35R,1.000000X1.000000*%
%ADD36C,6.000000*%
%ADD37R,1.500000X1.145000*%
%ADD38R,1.800000X2.500000*%
%ADD39C,2.400000*%
%ADD40O,2.400000X2.400000*%
%ADD41R,1.700000X2.000000*%
%ADD42R,2.000000X1.700000*%
%ADD43C,0.250000*%
%ADD44C,0.500000*%
%ADD45C,1.000000*%
%ADD46C,2.000000*%
G04 APERTURE END LIST*
D10*
X125500000Y-93000000D02*
X38500000Y-93000000D01*
X38500000Y-22000000D02*
X125500000Y-22000000D01*
X125500000Y-22000000D02*
X125500000Y-93000000D01*
X38500000Y-22000000D02*
X38500000Y-93000000D01*
D11*
X111500000Y-52462500D03*
X111500000Y-50537500D03*
D12*
X51488500Y-45720000D03*
X53413500Y-45720000D03*
D13*
X53356000Y-43306000D03*
X53356000Y-42026000D03*
X53356000Y-40766000D03*
X53356000Y-39496000D03*
X53356000Y-38216000D03*
X53356000Y-36946000D03*
X53356000Y-35686000D03*
X53356000Y-34406000D03*
X59656000Y-34406000D03*
X59656000Y-35686000D03*
X59656000Y-36946000D03*
X59656000Y-38216000D03*
X59656000Y-39496000D03*
X59656000Y-40766000D03*
X59656000Y-42026000D03*
X59656000Y-43306000D03*
D12*
X57477500Y-32258000D03*
X55552500Y-32258000D03*
D11*
X65659000Y-72209500D03*
X65659000Y-70284500D03*
X49911000Y-39951500D03*
X49911000Y-38026500D03*
X65659000Y-58854500D03*
X65659000Y-60779500D03*
X49911000Y-43761500D03*
X49911000Y-41836500D03*
X103632000Y-50472500D03*
X103632000Y-52397500D03*
D14*
X56246000Y-62297000D03*
X56896000Y-62297000D03*
X57546000Y-62297000D03*
X57546000Y-64957000D03*
X56246000Y-64957000D03*
D15*
X62717000Y-76581000D03*
D16*
G36*
X64517000Y-75431000D02*
G01*
X64517000Y-77731000D01*
X60917000Y-77131000D01*
X60917000Y-76031000D01*
X64517000Y-75431000D01*
X64517000Y-75431000D01*
G37*
D15*
X56917000Y-76581000D03*
D16*
G36*
X55117000Y-77731000D02*
G01*
X55117000Y-75431000D01*
X58717000Y-76031000D01*
X58717000Y-77131000D01*
X55117000Y-77731000D01*
X55117000Y-77731000D01*
G37*
D17*
X99441000Y-43053000D03*
D18*
X99441000Y-40513000D03*
X99441000Y-37973000D03*
D17*
X107500000Y-70500000D03*
D18*
X107500000Y-67960000D03*
X107500000Y-65420000D03*
D19*
X46500000Y-71460000D03*
X46500000Y-74000000D03*
X44500000Y-74000000D03*
X44500000Y-71460000D03*
D20*
X41800000Y-66730000D03*
X41800000Y-78730000D03*
D21*
X54610000Y-84709000D03*
D22*
X52070000Y-84709000D03*
D21*
X52197000Y-25781000D03*
D22*
X54737000Y-25781000D03*
X57277000Y-25781000D03*
D23*
X80190000Y-91000000D03*
X82960000Y-91000000D03*
X85730000Y-91000000D03*
X88500000Y-91000000D03*
X91270000Y-91000000D03*
X94040000Y-91000000D03*
X96810000Y-91000000D03*
D24*
X117500000Y-34500000D03*
D25*
X117500000Y-39500000D03*
X117500000Y-44500000D03*
D24*
X117500000Y-70500000D03*
D25*
X117500000Y-75500000D03*
X117500000Y-80500000D03*
D26*
X76425000Y-34145000D03*
D27*
X76425000Y-46345000D03*
X88475000Y-46395000D03*
D26*
X88425000Y-34145000D03*
D27*
X82475000Y-32195000D03*
D26*
X85136000Y-57068000D03*
D27*
X85136000Y-69268000D03*
X97186000Y-69318000D03*
D26*
X97136000Y-57068000D03*
D27*
X91186000Y-55118000D03*
D28*
X97004000Y-85029000D03*
X97004000Y-86929000D03*
X94004000Y-85979000D03*
X85495000Y-25842000D03*
X85495000Y-23942000D03*
X88495000Y-24892000D03*
X97179000Y-52258000D03*
X97179000Y-50358000D03*
X100179000Y-51308000D03*
D12*
X57604500Y-69596000D03*
X55679500Y-69596000D03*
X57604500Y-71501000D03*
X55679500Y-71501000D03*
D11*
X88519000Y-87195500D03*
X88519000Y-85270500D03*
D12*
X80210500Y-87376000D03*
X78285500Y-87376000D03*
X96974500Y-82804000D03*
X95049500Y-82804000D03*
D11*
X106553000Y-25707500D03*
X106553000Y-27632500D03*
D12*
X72844500Y-25654000D03*
X70919500Y-25654000D03*
X80464500Y-54102000D03*
X78539500Y-54102000D03*
D11*
X61087000Y-49095500D03*
X61087000Y-47170500D03*
D29*
X81407000Y-84455000D03*
D30*
X78867000Y-76835000D03*
X78867000Y-84455000D03*
X81407000Y-76835000D03*
D29*
X66040000Y-82931000D03*
D30*
X73660000Y-80391000D03*
X66040000Y-80391000D03*
X73660000Y-82931000D03*
D29*
X66040000Y-89535000D03*
D30*
X73660000Y-86995000D03*
X66040000Y-86995000D03*
X73660000Y-89535000D03*
D29*
X103378000Y-25781000D03*
D30*
X98298000Y-33401000D03*
X100838000Y-25781000D03*
X100838000Y-33401000D03*
X98298000Y-25781000D03*
X103378000Y-33401000D03*
D29*
X120000000Y-54000000D03*
D30*
X114920000Y-61620000D03*
X117460000Y-54000000D03*
X117460000Y-61620000D03*
X114920000Y-54000000D03*
X120000000Y-61620000D03*
D31*
X105029000Y-43020000D03*
X106299000Y-43020000D03*
X107569000Y-43020000D03*
X108839000Y-43020000D03*
X108839000Y-48420000D03*
X107569000Y-48420000D03*
X106299000Y-48420000D03*
X105029000Y-48420000D03*
D32*
X65659000Y-63119000D03*
X65659000Y-67999000D03*
D29*
X46000000Y-53000000D03*
D33*
X46000000Y-50230000D03*
X46000000Y-47460000D03*
X46000000Y-44690000D03*
X46000000Y-41920000D03*
X43160000Y-51615000D03*
X43160000Y-48845000D03*
X43160000Y-46075000D03*
X43160000Y-43305000D03*
D34*
X45700000Y-34960000D03*
X45700000Y-59960000D03*
D35*
X88499000Y-81661000D03*
X85999000Y-81661000D03*
D11*
X107569000Y-50472500D03*
X107569000Y-52397500D03*
D36*
X44000000Y-27000000D03*
X44000000Y-88500000D03*
X119000000Y-88500000D03*
X119000000Y-27000000D03*
D28*
X111530000Y-57973000D03*
X111530000Y-56073000D03*
X114530000Y-57023000D03*
D37*
X72707500Y-54573000D03*
X72707500Y-52488000D03*
X82423000Y-25807500D03*
X82423000Y-23722500D03*
X108839000Y-56107500D03*
X108839000Y-58192500D03*
X94869000Y-52477500D03*
X94869000Y-50392500D03*
D38*
X62357000Y-40037000D03*
X62357000Y-44037000D03*
D12*
X70558500Y-38608000D03*
X68633500Y-38608000D03*
D33*
X108500000Y-80500000D03*
X108500000Y-85500000D03*
X121856500Y-49530000D03*
X116856500Y-49530000D03*
D39*
X114109500Y-49530000D03*
D40*
X114109500Y-24130000D03*
D39*
X112903000Y-90551000D03*
D40*
X112903000Y-65151000D03*
D41*
X103378000Y-39465000D03*
X103378000Y-35465000D03*
D42*
X117126000Y-65532000D03*
X121126000Y-65532000D03*
D32*
X62357000Y-31750000D03*
X62357000Y-28829000D03*
X65659000Y-46355000D03*
X93091000Y-49149000D03*
X68580000Y-73660000D03*
X57150000Y-88011000D03*
X50165000Y-58293000D03*
X61849000Y-62611000D03*
X61849000Y-60452000D03*
X54737000Y-29591000D03*
X86614000Y-28575000D03*
X90297000Y-28702000D03*
X63627000Y-82042000D03*
X64770000Y-50927000D03*
X60071000Y-71501000D03*
X60071000Y-69596000D03*
X57277000Y-29591000D03*
X105664000Y-50800000D03*
X67183000Y-40767000D03*
X62230000Y-25273000D03*
X64389000Y-33020000D03*
X62865000Y-34671000D03*
X75946000Y-54102000D03*
X62738000Y-51181000D03*
X55880000Y-46101000D03*
X67183000Y-38862000D03*
X66421000Y-43815000D03*
X100838000Y-23495000D03*
X106172000Y-54864000D03*
D43*
X85495000Y-23942000D02*
X82642500Y-23942000D01*
X82642500Y-23942000D02*
X82423000Y-23722500D01*
D44*
X62357000Y-31750000D02*
X62357000Y-28829000D01*
X77660500Y-82105500D02*
X82079452Y-82105500D01*
X82079452Y-82105500D02*
X82142952Y-82169000D01*
X67818000Y-59182000D02*
X67818000Y-46736000D01*
X67818000Y-46736000D02*
X67437000Y-46355000D01*
X102235000Y-52397500D02*
X102235000Y-49784000D01*
X101600000Y-49149000D02*
X99949000Y-49149000D01*
X102235000Y-49784000D02*
X101600000Y-49149000D01*
X93091000Y-49149000D02*
X99949000Y-49149000D01*
X102235000Y-52397500D02*
X103632000Y-52397500D01*
X93091000Y-49149000D02*
X93625500Y-49149000D01*
X93625500Y-49149000D02*
X94869000Y-50392500D01*
X63870000Y-42026000D02*
X64146000Y-42026000D01*
X64135000Y-38481000D02*
X63373000Y-37719000D01*
X64135000Y-42015000D02*
X64135000Y-38481000D01*
X64146000Y-42026000D02*
X64135000Y-42015000D01*
X65659000Y-46355000D02*
X67437000Y-46355000D01*
D43*
X62230000Y-42026000D02*
X63870000Y-42026000D01*
D44*
X61468000Y-35814000D02*
X63373000Y-37719000D01*
X61468000Y-32893000D02*
X60833000Y-32258000D01*
X60833000Y-32258000D02*
X57477500Y-32258000D01*
X61468000Y-32893000D02*
X61468000Y-35814000D01*
X94869000Y-50392500D02*
X97144500Y-50392500D01*
X97144500Y-50392500D02*
X97179000Y-50358000D01*
X108839000Y-56107500D02*
X108839000Y-52832000D01*
X108839000Y-52832000D02*
X109273500Y-52397500D01*
X108839000Y-56107500D02*
X111495500Y-56107500D01*
X111495500Y-56107500D02*
X111530000Y-56073000D01*
X103632000Y-52397500D02*
X107569000Y-52397500D01*
X85495000Y-23942000D02*
X76520000Y-23942000D01*
X76520000Y-23942000D02*
X76327000Y-23749000D01*
X44500000Y-74000000D02*
X44500000Y-77139000D01*
X44500000Y-77139000D02*
X52070000Y-84709000D01*
X48300000Y-66675000D02*
X41855000Y-66675000D01*
X41855000Y-66675000D02*
X41800000Y-66730000D01*
X41800000Y-66730000D02*
X41800000Y-78730000D01*
X78867000Y-76835000D02*
X78867000Y-78867000D01*
X73914000Y-76835000D02*
X75946000Y-78867000D01*
X66294000Y-73533000D02*
X69596000Y-76835000D01*
X69596000Y-76835000D02*
X73914000Y-76835000D01*
X46000000Y-38862000D02*
X43561000Y-38862000D01*
X44450000Y-64897000D02*
X48300000Y-64897000D01*
X40259000Y-60706000D02*
X44450000Y-64897000D01*
X40259000Y-42164000D02*
X40259000Y-60706000D01*
X43561000Y-38862000D02*
X40259000Y-42164000D01*
X52197000Y-25781000D02*
X52197000Y-25019000D01*
X52197000Y-25019000D02*
X53467000Y-23749000D01*
X53467000Y-23749000D02*
X76327000Y-23749000D01*
X107569000Y-52397500D02*
X109273500Y-52397500D01*
X109855000Y-50927000D02*
X109855000Y-49436000D01*
X109855000Y-49436000D02*
X108839000Y-48420000D01*
X109273500Y-52397500D02*
X109855000Y-51816000D01*
X109855000Y-51816000D02*
X109855000Y-50927000D01*
X52197000Y-28956000D02*
X52197000Y-30353000D01*
X52778500Y-30934500D02*
X57477500Y-30934500D01*
X52197000Y-30353000D02*
X52778500Y-30934500D01*
X65659000Y-72209500D02*
X67109500Y-72209500D01*
X67109500Y-72209500D02*
X67818000Y-71501000D01*
X67818000Y-71501000D02*
X67818000Y-59182000D01*
X67818000Y-59182000D02*
X67490500Y-58854500D01*
X67490500Y-58854500D02*
X66802000Y-58854500D01*
X66802000Y-58854500D02*
X65659000Y-58854500D01*
D43*
X59656000Y-42026000D02*
X62230000Y-42026000D01*
D44*
X57477500Y-32258000D02*
X57477500Y-30934500D01*
X50673000Y-34163000D02*
X50673000Y-30480000D01*
X52197000Y-28956000D02*
X52197000Y-25781000D01*
X50673000Y-30480000D02*
X52197000Y-28956000D01*
X46000000Y-41920000D02*
X46000000Y-38862000D01*
X46000000Y-38862000D02*
X46000000Y-38836000D01*
X46000000Y-38836000D02*
X50673000Y-34163000D01*
X46000000Y-41920000D02*
X46238000Y-41920000D01*
X46238000Y-41920000D02*
X47752000Y-43434000D01*
X47752000Y-43434000D02*
X47752000Y-44831000D01*
X47752000Y-44831000D02*
X48641000Y-45720000D01*
X48641000Y-45720000D02*
X51488500Y-45720000D01*
X66294000Y-73533000D02*
X68453000Y-73533000D01*
X68453000Y-73533000D02*
X68580000Y-73660000D01*
X57150000Y-88011000D02*
X60960000Y-88011000D01*
X60960000Y-88011000D02*
X64008000Y-84963000D01*
X52070000Y-84709000D02*
X52070000Y-87122000D01*
X52959000Y-88011000D02*
X57150000Y-88011000D01*
X52070000Y-87122000D02*
X52959000Y-88011000D01*
X85730000Y-84206000D02*
X85730000Y-81930000D01*
X85730000Y-81930000D02*
X85999000Y-81661000D01*
D43*
X56896000Y-62297000D02*
X56896000Y-63627000D01*
X49149000Y-63627000D02*
X49149000Y-63754000D01*
X56896000Y-63627000D02*
X49149000Y-63627000D01*
D44*
X48300000Y-66730000D02*
X48300000Y-66675000D01*
X48300000Y-66675000D02*
X48300000Y-64897000D01*
X48300000Y-64897000D02*
X48300000Y-64603000D01*
X48300000Y-64603000D02*
X49149000Y-63754000D01*
X50165000Y-62738000D02*
X50165000Y-58293000D01*
X49149000Y-63754000D02*
X50165000Y-62738000D01*
X65659000Y-72209500D02*
X65659000Y-72898000D01*
X65659000Y-72898000D02*
X66294000Y-73533000D01*
X83693000Y-82169000D02*
X85730000Y-84206000D01*
X85730000Y-84206000D02*
X85730000Y-91000000D01*
X64008000Y-84963000D02*
X74803000Y-84963000D01*
X74803000Y-84963000D02*
X77660500Y-82105500D01*
X75946000Y-78867000D02*
X78867000Y-78867000D01*
X78867000Y-78867000D02*
X81026000Y-78867000D01*
X81407000Y-81433048D02*
X82142952Y-82169000D01*
X81407000Y-79248000D02*
X81407000Y-81433048D01*
X81026000Y-78867000D02*
X81407000Y-79248000D01*
X82142952Y-82169000D02*
X83693000Y-82169000D01*
X53413500Y-45720000D02*
X54429500Y-45720000D01*
X54472000Y-42026000D02*
X54810500Y-42364500D01*
X54810500Y-42364500D02*
X54810500Y-45339000D01*
X54472000Y-42026000D02*
X53356000Y-42026000D01*
X54429500Y-45720000D02*
X54810500Y-45339000D01*
X55552500Y-32258000D02*
X55552500Y-36141500D01*
X54748000Y-36946000D02*
X53356000Y-36946000D01*
X55552500Y-36141500D02*
X54748000Y-36946000D01*
X65659000Y-67999000D02*
X65659000Y-66421000D01*
X65659000Y-66421000D02*
X61849000Y-62611000D01*
X65659000Y-70284500D02*
X65659000Y-67999000D01*
X53356000Y-39496000D02*
X52071000Y-39496000D01*
X51615500Y-39951500D02*
X49911000Y-39951500D01*
X52071000Y-39496000D02*
X51615500Y-39951500D01*
X53356000Y-38216000D02*
X51551000Y-38216000D01*
X51361500Y-38026500D02*
X49911000Y-38026500D01*
X51551000Y-38216000D02*
X51361500Y-38026500D01*
X65659000Y-60779500D02*
X62176500Y-60779500D01*
X62176500Y-60779500D02*
X61849000Y-60452000D01*
X65659000Y-63119000D02*
X65659000Y-60779500D01*
X49911000Y-43761500D02*
X52900500Y-43761500D01*
X52900500Y-43761500D02*
X53356000Y-43306000D01*
X49911000Y-41836500D02*
X50746500Y-41836500D01*
X51817000Y-40766000D02*
X53356000Y-40766000D01*
X50746500Y-41836500D02*
X51817000Y-40766000D01*
X54737000Y-29591000D02*
X54737000Y-25781000D01*
X105029000Y-48420000D02*
X105029000Y-46736000D01*
X111500000Y-49143000D02*
X111500000Y-50537500D01*
X110617000Y-48260000D02*
X111500000Y-49143000D01*
X110617000Y-47498000D02*
X110617000Y-48260000D01*
X109537500Y-46418500D02*
X110617000Y-47498000D01*
X105346500Y-46418500D02*
X109537500Y-46418500D01*
X105029000Y-46736000D02*
X105346500Y-46418500D01*
X81306500Y-57658000D02*
X76136500Y-57658000D01*
X84546000Y-57658000D02*
X81306500Y-57658000D01*
X74422000Y-55943500D02*
X74422000Y-51054000D01*
X76136500Y-57658000D02*
X74422000Y-55943500D01*
X72707500Y-52488000D02*
X72707500Y-51054000D01*
X72707500Y-51054000D02*
X72707500Y-50990500D01*
X72707500Y-50990500D02*
X72707500Y-51054000D01*
X84546000Y-57658000D02*
X85136000Y-57068000D01*
X73406000Y-51054000D02*
X72707500Y-51054000D01*
X74422000Y-51054000D02*
X73406000Y-51054000D01*
X72707500Y-51054000D02*
X71628000Y-51054000D01*
X86106000Y-51054000D02*
X74422000Y-51054000D01*
X97536000Y-47815500D02*
X103632000Y-47815500D01*
X86106000Y-51054000D02*
X86614000Y-51054000D01*
X87757000Y-49911000D02*
X90551000Y-49911000D01*
X86614000Y-51054000D02*
X87757000Y-49911000D01*
X90551000Y-49911000D02*
X92646500Y-47815500D01*
X97536000Y-47815500D02*
X92646500Y-47815500D01*
X71628000Y-51054000D02*
X71628000Y-38163500D01*
X70558500Y-38608000D02*
X71183500Y-38608000D01*
X71183500Y-38608000D02*
X71628000Y-38163500D01*
X71628000Y-38163500D02*
X71628000Y-37020500D01*
X103632000Y-50472500D02*
X103632000Y-47815500D01*
X103632000Y-47815500D02*
X103632000Y-47752000D01*
X103632000Y-47752000D02*
X103632000Y-47815500D01*
X103632000Y-47815500D02*
X104424500Y-47815500D01*
X104424500Y-47815500D02*
X105029000Y-48420000D01*
X90233500Y-27622500D02*
X90233500Y-28638500D01*
X86741000Y-28575000D02*
X86741000Y-28448000D01*
X86614000Y-28575000D02*
X86741000Y-28575000D01*
X90233500Y-28638500D02*
X90297000Y-28702000D01*
X61087000Y-49095500D02*
X59656000Y-49095500D01*
X64389000Y-45212000D02*
X64389000Y-44450000D01*
X64389000Y-47498000D02*
X64389000Y-45212000D01*
X64770000Y-47879000D02*
X64389000Y-47498000D01*
X64770000Y-50927000D02*
X64770000Y-47879000D01*
X70739000Y-37020500D02*
X71628000Y-37020500D01*
X66865500Y-37020500D02*
X70739000Y-37020500D01*
X64389000Y-44450000D02*
X65024000Y-43815000D01*
X65024000Y-43815000D02*
X65024000Y-38862000D01*
X65024000Y-38862000D02*
X66865500Y-37020500D01*
X76425000Y-34145000D02*
X76425000Y-28731000D01*
X105864500Y-28321000D02*
X106553000Y-27632500D01*
X97282000Y-28321000D02*
X105864500Y-28321000D01*
X95504000Y-26543000D02*
X97282000Y-28321000D01*
X91313000Y-26543000D02*
X95504000Y-26543000D01*
X90233500Y-27622500D02*
X91313000Y-26543000D01*
X85471000Y-27178000D02*
X86741000Y-28448000D01*
X77978000Y-27178000D02*
X85471000Y-27178000D01*
X76425000Y-28731000D02*
X77978000Y-27178000D01*
X71628000Y-37020500D02*
X73406000Y-37020500D01*
X73406000Y-37020500D02*
X75882500Y-37020500D01*
X76425000Y-36478000D02*
X76425000Y-34145000D01*
X75882500Y-37020500D02*
X76425000Y-36478000D01*
X59656000Y-43306000D02*
X59656000Y-49095500D01*
X59656000Y-49095500D02*
X59656000Y-59470000D01*
X62717000Y-73808000D02*
X63754000Y-72771000D01*
X63754000Y-72771000D02*
X63754000Y-67310000D01*
X63754000Y-67310000D02*
X59656000Y-63212000D01*
X62717000Y-76581000D02*
X62717000Y-73808000D01*
X62717000Y-81132000D02*
X62717000Y-80793000D01*
X63627000Y-82042000D02*
X62717000Y-81132000D01*
D45*
X54610000Y-84709000D02*
X58801000Y-84709000D01*
X58801000Y-84709000D02*
X62717000Y-80793000D01*
X62717000Y-80793000D02*
X62717000Y-76581000D01*
D44*
X64770000Y-50927000D02*
X64770000Y-54356000D01*
X64770000Y-54356000D02*
X59656000Y-59470000D01*
X59656000Y-59470000D02*
X59656000Y-63212000D01*
X107569000Y-48420000D02*
X107569000Y-50472500D01*
X41402000Y-53467000D02*
X41402000Y-47498000D01*
X46000000Y-47460000D02*
X57188000Y-47460000D01*
X57404000Y-47244000D02*
X57404000Y-40894000D01*
X57188000Y-47460000D02*
X57404000Y-47244000D01*
X59656000Y-39496000D02*
X58802000Y-39496000D01*
X58802000Y-39496000D02*
X57404000Y-40894000D01*
D43*
X45962000Y-47498000D02*
X41402000Y-47498000D01*
D44*
X51689000Y-55626000D02*
X43561000Y-55626000D01*
X43561000Y-55626000D02*
X41402000Y-53467000D01*
D43*
X54991000Y-58928000D02*
X56246000Y-60183000D01*
X56246000Y-60183000D02*
X56246000Y-62297000D01*
D44*
X54991000Y-58928000D02*
X51689000Y-55626000D01*
D43*
X45962000Y-47498000D02*
X46000000Y-47460000D01*
D44*
X52389000Y-50230000D02*
X56450000Y-50230000D01*
X58166000Y-48514000D02*
X58166000Y-41275000D01*
X56450000Y-50230000D02*
X58166000Y-48514000D01*
X59656000Y-40766000D02*
X58675000Y-40766000D01*
X58675000Y-40766000D02*
X58166000Y-41275000D01*
X57546000Y-59705000D02*
X57546000Y-55387000D01*
X52389000Y-50230000D02*
X46000000Y-50230000D01*
X57546000Y-55387000D02*
X52389000Y-50230000D01*
D43*
X57546000Y-62297000D02*
X57546000Y-59705000D01*
D44*
X60071000Y-71501000D02*
X61849000Y-71501000D01*
X57604500Y-71501000D02*
X60071000Y-71501000D01*
X59391000Y-66802000D02*
X57546000Y-64957000D01*
X60706000Y-66802000D02*
X59391000Y-66802000D01*
X62230000Y-68326000D02*
X60706000Y-66802000D01*
X62230000Y-71120000D02*
X62230000Y-68326000D01*
X61849000Y-71501000D02*
X62230000Y-71120000D01*
X57604500Y-69596000D02*
X60071000Y-69596000D01*
X56246000Y-64957000D02*
X56246000Y-66914000D01*
X57604500Y-68272500D02*
X57604500Y-69596000D01*
X56246000Y-66914000D02*
X57604500Y-68272500D01*
X56917000Y-76581000D02*
X49081000Y-76581000D01*
X49081000Y-76581000D02*
X46500000Y-74000000D01*
D45*
X76425000Y-46345000D02*
X77734000Y-46345000D01*
X77734000Y-46345000D02*
X81884000Y-42195000D01*
X81884000Y-42195000D02*
X93475000Y-42195000D01*
X93475000Y-42195000D02*
X94011000Y-42195000D01*
X94011000Y-42195000D02*
X94869000Y-43053000D01*
X94869000Y-43053000D02*
X99441000Y-43053000D01*
X99441000Y-43053000D02*
X104996000Y-43053000D01*
X104996000Y-43053000D02*
X105029000Y-43020000D01*
D44*
X106299000Y-43020000D02*
X104808000Y-43020000D01*
X104808000Y-43020000D02*
X105029000Y-43020000D01*
D46*
X114109500Y-24130000D02*
X114109500Y-31109500D01*
X114109500Y-31109500D02*
X117500000Y-34500000D01*
D45*
X91694000Y-38862000D02*
X95631000Y-38862000D01*
X95758000Y-38989000D02*
X95758000Y-39116000D01*
X95631000Y-38862000D02*
X95758000Y-38989000D01*
X82475000Y-32195000D02*
X82475000Y-36628000D01*
X91059000Y-39497000D02*
X91694000Y-38862000D01*
X85344000Y-39497000D02*
X91059000Y-39497000D01*
X82475000Y-36628000D02*
X85344000Y-39497000D01*
X117500000Y-34500000D02*
X111677000Y-34500000D01*
X107119500Y-39057500D02*
X103378000Y-39057500D01*
X111677000Y-34500000D02*
X107119500Y-39057500D01*
X99441000Y-40513000D02*
X97155000Y-40513000D01*
X97155000Y-40513000D02*
X95758000Y-39116000D01*
X99441000Y-40513000D02*
X101922500Y-40513000D01*
X101922500Y-40513000D02*
X103378000Y-39057500D01*
D44*
X98298000Y-33401000D02*
X98298000Y-36830000D01*
X98298000Y-36830000D02*
X99441000Y-37973000D01*
D46*
X117500000Y-70500000D02*
X113172000Y-70500000D01*
X113172000Y-70500000D02*
X112903000Y-70231000D01*
X112903000Y-70231000D02*
X112903000Y-65151000D01*
D45*
X107500000Y-67960000D02*
X106568000Y-67960000D01*
X91186000Y-58166000D02*
X91186000Y-55118000D01*
X93853000Y-60833000D02*
X91186000Y-58166000D01*
X99441000Y-60833000D02*
X93853000Y-60833000D01*
X106568000Y-67960000D02*
X99441000Y-60833000D01*
X107500000Y-67960000D02*
X110632000Y-67960000D01*
X110632000Y-67960000D02*
X113172000Y-70500000D01*
D44*
X117500000Y-70500000D02*
X117500000Y-65565500D01*
X117500000Y-65565500D02*
X117533500Y-65532000D01*
X107500000Y-65420000D02*
X108824000Y-65420000D01*
X112624000Y-61620000D02*
X114920000Y-61620000D01*
X108824000Y-65420000D02*
X112624000Y-61620000D01*
X46500000Y-71460000D02*
X55638500Y-71460000D01*
X55638500Y-71460000D02*
X55679500Y-71501000D01*
X44500000Y-71460000D02*
X44500000Y-69927000D01*
X44831000Y-69596000D02*
X55679500Y-69596000D01*
X44500000Y-69927000D02*
X44831000Y-69596000D01*
X57277000Y-29591000D02*
X57277000Y-25781000D01*
X80190000Y-91000000D02*
X80190000Y-87396500D01*
X80190000Y-87396500D02*
X80210500Y-87376000D01*
X82960000Y-91000000D02*
X82960000Y-86008000D01*
X82960000Y-86008000D02*
X81407000Y-84455000D01*
X88519000Y-87195500D02*
X88519000Y-90981000D01*
X88519000Y-90981000D02*
X88500000Y-91000000D01*
X94004000Y-90964000D02*
X94040000Y-91000000D01*
X94004000Y-85979000D02*
X94004000Y-90964000D01*
X97004000Y-86929000D02*
X97004000Y-90806000D01*
X97004000Y-90806000D02*
X96810000Y-91000000D01*
X96974500Y-82804000D02*
X96974500Y-84999500D01*
X96974500Y-84999500D02*
X97004000Y-85029000D01*
X76581000Y-25654000D02*
X82269500Y-25654000D01*
X82269500Y-25654000D02*
X82423000Y-25807500D01*
X82423000Y-25807500D02*
X85460500Y-25807500D01*
X85460500Y-25807500D02*
X85495000Y-25842000D01*
X72844500Y-25654000D02*
X76581000Y-25654000D01*
X85307000Y-25654000D02*
X85495000Y-25842000D01*
X80464500Y-54102000D02*
X85344000Y-54102000D01*
X85344000Y-54102000D02*
X86868000Y-52578000D01*
X92583000Y-51054000D02*
X94006500Y-52477500D01*
X88392000Y-51054000D02*
X92583000Y-51054000D01*
X86868000Y-52578000D02*
X88392000Y-51054000D01*
X94869000Y-52477500D02*
X94006500Y-52477500D01*
X94869000Y-52477500D02*
X96959500Y-52477500D01*
X96959500Y-52477500D02*
X97179000Y-52258000D01*
X105664000Y-50800000D02*
X106299000Y-50165000D01*
X106299000Y-50165000D02*
X106299000Y-48420000D01*
X78285500Y-85036500D02*
X78867000Y-84455000D01*
X78285500Y-87376000D02*
X78285500Y-85036500D01*
X72707500Y-54573000D02*
X72707500Y-55943500D01*
X72707500Y-55943500D02*
X72390000Y-56261000D01*
X67183000Y-40767000D02*
X70739000Y-44323000D01*
X70739000Y-54610000D02*
X72390000Y-56261000D01*
X72390000Y-56261000D02*
X75129000Y-59000000D01*
X70739000Y-44323000D02*
X70739000Y-54610000D01*
X80000000Y-59000000D02*
X79248000Y-59000000D01*
X79248000Y-59000000D02*
X75129000Y-59000000D01*
X82000000Y-72136000D02*
X82000000Y-61000000D01*
X90424000Y-78359000D02*
X88265000Y-78359000D01*
X88265000Y-78359000D02*
X82042000Y-72136000D01*
X82042000Y-72136000D02*
X82000000Y-72136000D01*
X94869000Y-82804000D02*
X90424000Y-78359000D01*
X82000000Y-61000000D02*
X80000000Y-59000000D01*
X95049500Y-82804000D02*
X94869000Y-82804000D01*
X106553000Y-25707500D02*
X103451500Y-25707500D01*
X103451500Y-25707500D02*
X103378000Y-25781000D01*
X62230000Y-26035000D02*
X62230000Y-25273000D01*
X64389000Y-28194000D02*
X62230000Y-26035000D01*
X64389000Y-33020000D02*
X64389000Y-28194000D01*
X66421000Y-31877000D02*
X66421000Y-29083000D01*
X69850000Y-25654000D02*
X70919500Y-25654000D01*
X66421000Y-29083000D02*
X69850000Y-25654000D01*
X66421000Y-31877000D02*
X66421000Y-33020000D01*
X66421000Y-33020000D02*
X64770000Y-34671000D01*
X64770000Y-34671000D02*
X62865000Y-34671000D01*
X120000000Y-54000000D02*
X120000000Y-52817000D01*
X113145500Y-52462500D02*
X111500000Y-52462500D01*
X113665000Y-51943000D02*
X113145500Y-52462500D01*
X119126000Y-51943000D02*
X113665000Y-51943000D01*
X120000000Y-52817000D02*
X119126000Y-51943000D01*
X119834500Y-53834500D02*
X120000000Y-54000000D01*
X75946000Y-54102000D02*
X78539500Y-54102000D01*
X103378000Y-35872500D02*
X103378000Y-33401000D01*
X120718500Y-65532000D02*
X120718500Y-62338500D01*
X120718500Y-62338500D02*
X120000000Y-61620000D01*
X61087000Y-47170500D02*
X62357000Y-47170500D01*
X62357000Y-47170500D02*
X62357000Y-47117000D01*
X62738000Y-51181000D02*
X62611000Y-51181000D01*
X62357000Y-51181000D02*
X62357000Y-47117000D01*
X62357000Y-47117000D02*
X62357000Y-44037000D01*
X62611000Y-51181000D02*
X62357000Y-51181000D01*
X58558000Y-36946000D02*
X55880000Y-39624000D01*
X55880000Y-39624000D02*
X55880000Y-46101000D01*
X58558000Y-36946000D02*
X59656000Y-36946000D01*
X67183000Y-38862000D02*
X68379500Y-38862000D01*
X68379500Y-38862000D02*
X68633500Y-38608000D01*
X69723000Y-53594000D02*
X69723000Y-54864000D01*
X69723000Y-54864000D02*
X74676000Y-59817000D01*
X69723000Y-44577000D02*
X67437000Y-42291000D01*
X69723000Y-53594000D02*
X69723000Y-44577000D01*
X67183000Y-42291000D02*
X67437000Y-42291000D01*
X66294000Y-42291000D02*
X67183000Y-42291000D01*
X65849500Y-41846500D02*
X66294000Y-42291000D01*
X66421000Y-38862000D02*
X65849500Y-39433500D01*
X65849500Y-39433500D02*
X65849500Y-41846500D01*
X67183000Y-38862000D02*
X66421000Y-38862000D01*
X81153000Y-61468000D02*
X81153000Y-72517000D01*
X79502000Y-59817000D02*
X81153000Y-61468000D01*
X74676000Y-59817000D02*
X79502000Y-59817000D01*
X88499000Y-81661000D02*
X88499000Y-79863000D01*
X88499000Y-79863000D02*
X81153000Y-72517000D01*
X88499000Y-81661000D02*
X88499000Y-85250500D01*
X88499000Y-85250500D02*
X88519000Y-85270500D01*
X68834000Y-54610000D02*
X68834000Y-55372000D01*
X68834000Y-55372000D02*
X74168000Y-60706000D01*
X68834000Y-44831000D02*
X67818000Y-43815000D01*
X68834000Y-54610000D02*
X68834000Y-44831000D01*
X66421000Y-43815000D02*
X67818000Y-43815000D01*
X81407000Y-76835000D02*
X81407000Y-75311000D01*
X79248000Y-60706000D02*
X74168000Y-60706000D01*
X80264000Y-61722000D02*
X79248000Y-60706000D01*
X80264000Y-74168000D02*
X80264000Y-61722000D01*
X81407000Y-75311000D02*
X80264000Y-74168000D01*
X88495000Y-24892000D02*
X88495000Y-34075000D01*
X88495000Y-34075000D02*
X88425000Y-34145000D01*
X97136000Y-57068000D02*
X97136000Y-56153000D01*
X97136000Y-56153000D02*
X100179000Y-53110000D01*
X100179000Y-53110000D02*
X100179000Y-51308000D01*
X100184000Y-51313000D02*
X100179000Y-51308000D01*
X100838000Y-23495000D02*
X100838000Y-25781000D01*
X107468500Y-58192500D02*
X108839000Y-58192500D01*
X106680000Y-57404000D02*
X107468500Y-58192500D01*
X106680000Y-55372000D02*
X106680000Y-57404000D01*
X106172000Y-54864000D02*
X106680000Y-55372000D01*
X108839000Y-58192500D02*
X111310500Y-58192500D01*
X111310500Y-58192500D02*
X111530000Y-57973000D01*
X114530000Y-57023000D02*
X116586000Y-57023000D01*
X117460000Y-56149000D02*
X117460000Y-54000000D01*
X116586000Y-57023000D02*
X117460000Y-56149000D01*
X59656000Y-38216000D02*
X62219000Y-38216000D01*
X62357000Y-38354000D02*
X62357000Y-40037000D01*
X62219000Y-38216000D02*
X62357000Y-38354000D01*
D46*
X108500000Y-80500000D02*
X117500000Y-80500000D01*
D45*
X117500000Y-80500000D02*
X112123000Y-80500000D01*
X107500000Y-75877000D02*
X107500000Y-70500000D01*
X112123000Y-80500000D02*
X107500000Y-75877000D01*
X102000000Y-70500000D02*
X107500000Y-70500000D01*
X85136000Y-69268000D02*
X85418000Y-69268000D01*
X85418000Y-69268000D02*
X88900000Y-65786000D01*
X88900000Y-65786000D02*
X99822000Y-65786000D01*
X99822000Y-65786000D02*
X102000000Y-67964000D01*
X102000000Y-67964000D02*
X102000000Y-70500000D01*
D46*
X112903000Y-90551000D02*
X112903000Y-89903000D01*
X112903000Y-89903000D02*
X108500000Y-85500000D01*
X121856500Y-49530000D02*
X121856500Y-48856500D01*
X121856500Y-48856500D02*
X117500000Y-44500000D01*
D44*
X117500000Y-44500000D02*
X117500000Y-45173500D01*
D45*
X117500000Y-44500000D02*
X113842000Y-44500000D01*
X112362000Y-43020000D02*
X108839000Y-43020000D01*
X113842000Y-44500000D02*
X112362000Y-43020000D01*
D44*
X107569000Y-43020000D02*
X108839000Y-43020000D01*
D46*
X114109500Y-49530000D02*
X116856500Y-49530000D01*
D43*
G36*
X73408000Y-24544802D02*
G01*
X73267000Y-24516756D01*
X72422000Y-24516756D01*
X72178137Y-24565263D01*
X71971400Y-24703400D01*
X71882000Y-24837197D01*
X71792600Y-24703400D01*
X71585863Y-24565263D01*
X71342000Y-24516756D01*
X70497000Y-24516756D01*
X70253137Y-24565263D01*
X70046400Y-24703400D01*
X69995886Y-24779000D01*
X69936177Y-24779000D01*
X69849999Y-24761858D01*
X69763821Y-24779000D01*
X69508592Y-24829768D01*
X69219160Y-25023160D01*
X69170341Y-25096223D01*
X65863221Y-28403343D01*
X65790161Y-28452160D01*
X65608070Y-28724679D01*
X65596769Y-28741592D01*
X65528858Y-29083000D01*
X65546001Y-29169182D01*
X65546000Y-31790821D01*
X65546000Y-32232456D01*
X65264000Y-31950456D01*
X65264000Y-28280177D01*
X65281142Y-28193999D01*
X65263756Y-28106593D01*
X65213232Y-27852592D01*
X65019840Y-27563160D01*
X64946780Y-27514343D01*
X63421632Y-25989195D01*
X63605000Y-25546505D01*
X63605000Y-24999495D01*
X63395669Y-24494125D01*
X63008875Y-24107331D01*
X62503505Y-23898000D01*
X61956495Y-23898000D01*
X61451125Y-24107331D01*
X61064331Y-24494125D01*
X60855000Y-24999495D01*
X60855000Y-25546505D01*
X61064331Y-26051875D01*
X61439809Y-26427353D01*
X61599160Y-26665840D01*
X61672223Y-26714659D01*
X63514001Y-28556438D01*
X63514000Y-31950456D01*
X63223331Y-32241125D01*
X63014000Y-32746495D01*
X63014000Y-33293505D01*
X63015033Y-33296000D01*
X62591495Y-33296000D01*
X62086125Y-33505331D01*
X61699331Y-33892125D01*
X61490000Y-34397495D01*
X61490000Y-34944505D01*
X61699331Y-35449875D01*
X62086125Y-35836669D01*
X62591495Y-36046000D01*
X63138505Y-36046000D01*
X63643875Y-35836669D01*
X63934544Y-35546000D01*
X64683822Y-35546000D01*
X64770000Y-35563142D01*
X64856178Y-35546000D01*
X64856179Y-35546000D01*
X65111408Y-35495232D01*
X65400840Y-35301840D01*
X65449659Y-35228777D01*
X66978780Y-33699657D01*
X67051840Y-33650840D01*
X67245232Y-33361408D01*
X67296000Y-33106179D01*
X67296000Y-33106178D01*
X67313142Y-33020000D01*
X67296000Y-32933821D01*
X67296000Y-29445436D01*
X70100612Y-26640824D01*
X70253137Y-26742737D01*
X70497000Y-26791244D01*
X71342000Y-26791244D01*
X71585863Y-26742737D01*
X71792600Y-26604600D01*
X71882000Y-26470803D01*
X71971400Y-26604600D01*
X72178137Y-26742737D01*
X72422000Y-26791244D01*
X73267000Y-26791244D01*
X73408000Y-26763198D01*
X73408000Y-36131500D01*
X73408003Y-36132362D01*
X73408094Y-36145500D01*
X71714179Y-36145500D01*
X71628000Y-36128358D01*
X71541821Y-36145500D01*
X66951677Y-36145500D01*
X66865499Y-36128358D01*
X66779321Y-36145500D01*
X66524092Y-36196268D01*
X66234660Y-36389660D01*
X66185841Y-36462723D01*
X64466221Y-38182343D01*
X64393161Y-38231160D01*
X64344344Y-38304220D01*
X64199769Y-38520592D01*
X64131858Y-38862000D01*
X64149001Y-38948183D01*
X64149000Y-43452563D01*
X63894244Y-43707320D01*
X63894244Y-42787000D01*
X63845737Y-42543137D01*
X63707600Y-42336400D01*
X63500863Y-42198263D01*
X63257000Y-42149756D01*
X61457000Y-42149756D01*
X61213137Y-42198263D01*
X61006400Y-42336400D01*
X60931000Y-42449244D01*
X60931000Y-42307250D01*
X60774750Y-42151000D01*
X59781000Y-42151000D01*
X59781000Y-42171000D01*
X59531000Y-42171000D01*
X59531000Y-42151000D01*
X59511000Y-42151000D01*
X59511000Y-41901000D01*
X59531000Y-41901000D01*
X59531000Y-41881000D01*
X59781000Y-41881000D01*
X59781000Y-41901000D01*
X60774750Y-41901000D01*
X60931000Y-41744750D01*
X60931000Y-41624756D01*
X61006400Y-41737600D01*
X61213137Y-41875737D01*
X61457000Y-41924244D01*
X63257000Y-41924244D01*
X63500863Y-41875737D01*
X63707600Y-41737600D01*
X63845737Y-41530863D01*
X63894244Y-41287000D01*
X63894244Y-38787000D01*
X63845737Y-38543137D01*
X63707600Y-38336400D01*
X63500863Y-38198263D01*
X63257000Y-38149756D01*
X63208516Y-38149756D01*
X63181232Y-38012592D01*
X62987840Y-37723160D01*
X62914777Y-37674341D01*
X62898659Y-37658223D01*
X62849840Y-37585160D01*
X62560408Y-37391768D01*
X62305179Y-37341000D01*
X62305178Y-37341000D01*
X62219000Y-37323858D01*
X62132822Y-37341000D01*
X60943244Y-37341000D01*
X60943244Y-36546000D01*
X60897495Y-36316000D01*
X60943244Y-36086000D01*
X60943244Y-35286000D01*
X60895505Y-35046000D01*
X60943244Y-34806000D01*
X60943244Y-34006000D01*
X60894737Y-33762137D01*
X60756600Y-33555400D01*
X60549863Y-33417263D01*
X60306000Y-33368756D01*
X59006000Y-33368756D01*
X58762137Y-33417263D01*
X58555400Y-33555400D01*
X58417263Y-33762137D01*
X58368756Y-34006000D01*
X58368756Y-34806000D01*
X58416495Y-35046000D01*
X58368756Y-35286000D01*
X58368756Y-36086000D01*
X58369809Y-36091291D01*
X58216591Y-36121768D01*
X58105095Y-36196268D01*
X57927160Y-36315160D01*
X57878343Y-36388220D01*
X55322223Y-38944341D01*
X55249160Y-38993160D01*
X55055768Y-39282593D01*
X55013319Y-39496000D01*
X54987858Y-39624000D01*
X55005000Y-39710178D01*
X55005000Y-41329786D01*
X54813408Y-41201768D01*
X54642877Y-41167847D01*
X54643244Y-41166000D01*
X54643244Y-40366000D01*
X54596500Y-40131000D01*
X54643244Y-39896000D01*
X54643244Y-39096000D01*
X54595505Y-38856000D01*
X54643244Y-38616000D01*
X54643244Y-37821000D01*
X54661822Y-37821000D01*
X54748000Y-37838142D01*
X54834178Y-37821000D01*
X54834179Y-37821000D01*
X55089408Y-37770232D01*
X55378840Y-37576840D01*
X55427659Y-37503777D01*
X56110279Y-36821157D01*
X56183340Y-36772340D01*
X56376732Y-36482908D01*
X56427500Y-36227679D01*
X56444642Y-36141500D01*
X56427500Y-36055321D01*
X56427500Y-33205756D01*
X56511746Y-33079673D01*
X56525151Y-33112034D01*
X56700966Y-33287850D01*
X56930680Y-33383000D01*
X57196250Y-33383000D01*
X57352500Y-33226750D01*
X57352500Y-32383000D01*
X57602500Y-32383000D01*
X57602500Y-33226750D01*
X57758750Y-33383000D01*
X58024320Y-33383000D01*
X58254034Y-33287850D01*
X58429849Y-33112034D01*
X58525000Y-32882320D01*
X58525000Y-32539250D01*
X58368750Y-32383000D01*
X57602500Y-32383000D01*
X57352500Y-32383000D01*
X57332500Y-32383000D01*
X57332500Y-32133000D01*
X57352500Y-32133000D01*
X57352500Y-31289250D01*
X57602500Y-31289250D01*
X57602500Y-32133000D01*
X58368750Y-32133000D01*
X58525000Y-31976750D01*
X58525000Y-31633680D01*
X58429849Y-31403966D01*
X58254034Y-31228150D01*
X58024320Y-31133000D01*
X57758750Y-31133000D01*
X57602500Y-31289250D01*
X57352500Y-31289250D01*
X57196250Y-31133000D01*
X56930680Y-31133000D01*
X56700966Y-31228150D01*
X56525151Y-31403966D01*
X56511746Y-31436327D01*
X56425600Y-31307400D01*
X56218863Y-31169263D01*
X55975000Y-31120756D01*
X55130000Y-31120756D01*
X54886137Y-31169263D01*
X54679400Y-31307400D01*
X54541263Y-31514137D01*
X54492756Y-31758000D01*
X54492756Y-32758000D01*
X54541263Y-33001863D01*
X54677500Y-33205757D01*
X54677501Y-35779062D01*
X54643244Y-35813319D01*
X54643244Y-35286000D01*
X54595505Y-35046000D01*
X54643244Y-34806000D01*
X54643244Y-34006000D01*
X54594737Y-33762137D01*
X54456600Y-33555400D01*
X54249863Y-33417263D01*
X54006000Y-33368756D01*
X52706000Y-33368756D01*
X52462137Y-33417263D01*
X52255400Y-33555400D01*
X52117263Y-33762137D01*
X52068756Y-34006000D01*
X52068756Y-34806000D01*
X52116495Y-35046000D01*
X52068756Y-35286000D01*
X52068756Y-36086000D01*
X52114505Y-36316000D01*
X52068756Y-36546000D01*
X52068756Y-37341000D01*
X51910535Y-37341000D01*
X51702908Y-37202268D01*
X51447679Y-37151500D01*
X51447678Y-37151500D01*
X51361500Y-37134358D01*
X51275322Y-37151500D01*
X50858756Y-37151500D01*
X50654863Y-37015263D01*
X50411000Y-36966756D01*
X49411000Y-36966756D01*
X49167137Y-37015263D01*
X48960400Y-37153400D01*
X48822263Y-37360137D01*
X48773756Y-37604000D01*
X48773756Y-38449000D01*
X48822263Y-38692863D01*
X48960400Y-38899600D01*
X49094197Y-38989000D01*
X48960400Y-39078400D01*
X48822263Y-39285137D01*
X48773756Y-39529000D01*
X48773756Y-40374000D01*
X48822263Y-40617863D01*
X48960400Y-40824600D01*
X49064265Y-40894000D01*
X48960400Y-40963400D01*
X48822263Y-41170137D01*
X48773756Y-41414000D01*
X48773756Y-42259000D01*
X48822263Y-42502863D01*
X48960400Y-42709600D01*
X49094197Y-42799000D01*
X48960400Y-42888400D01*
X48822263Y-43095137D01*
X48773756Y-43339000D01*
X48773756Y-44184000D01*
X48822263Y-44427863D01*
X48960400Y-44634600D01*
X49167137Y-44772737D01*
X49411000Y-44821244D01*
X50411000Y-44821244D01*
X50623052Y-44779065D01*
X50536151Y-44865966D01*
X50441000Y-45095680D01*
X50441000Y-45438750D01*
X50597250Y-45595000D01*
X51363500Y-45595000D01*
X51363500Y-45575000D01*
X51613500Y-45575000D01*
X51613500Y-45595000D01*
X51633500Y-45595000D01*
X51633500Y-45845000D01*
X51613500Y-45845000D01*
X51613500Y-45865000D01*
X51363500Y-45865000D01*
X51363500Y-45845000D01*
X50597250Y-45845000D01*
X50441000Y-46001250D01*
X50441000Y-46344320D01*
X50536151Y-46574034D01*
X50547117Y-46585000D01*
X47140253Y-46585000D01*
X46807197Y-46251944D01*
X46380018Y-46075000D01*
X46807197Y-45898056D01*
X47208056Y-45497197D01*
X47425000Y-44973450D01*
X47425000Y-44406550D01*
X47208056Y-43882803D01*
X46807197Y-43481944D01*
X46395326Y-43311341D01*
X46749709Y-43164550D01*
X46824223Y-42921000D01*
X46000000Y-42096777D01*
X45175777Y-42921000D01*
X45250291Y-43164550D01*
X45629338Y-43301124D01*
X45192803Y-43481944D01*
X44791944Y-43882803D01*
X44575000Y-44406550D01*
X44575000Y-44973450D01*
X44791944Y-45497197D01*
X45192803Y-45898056D01*
X45619982Y-46075000D01*
X45192803Y-46251944D01*
X44791944Y-46652803D01*
X44752512Y-46748000D01*
X44423642Y-46748000D01*
X44585000Y-46358450D01*
X44585000Y-45791550D01*
X44368056Y-45267803D01*
X43967197Y-44866944D01*
X43540018Y-44690000D01*
X43967197Y-44513056D01*
X44368056Y-44112197D01*
X44585000Y-43588450D01*
X44585000Y-43021550D01*
X44368056Y-42497803D01*
X43967197Y-42096944D01*
X43443450Y-41880000D01*
X42876550Y-41880000D01*
X42352803Y-42096944D01*
X41951944Y-42497803D01*
X41735000Y-43021550D01*
X41735000Y-43588450D01*
X41951944Y-44112197D01*
X42352803Y-44513056D01*
X42779982Y-44690000D01*
X42352803Y-44866944D01*
X41951944Y-45267803D01*
X41735000Y-45791550D01*
X41735000Y-46358450D01*
X41896358Y-46748000D01*
X41854504Y-46748000D01*
X41743408Y-46673768D01*
X41402000Y-46605858D01*
X41060593Y-46673768D01*
X40771161Y-46867160D01*
X40577769Y-47156592D01*
X40527001Y-47411821D01*
X40527000Y-53380822D01*
X40509858Y-53467000D01*
X40527000Y-53553178D01*
X40577768Y-53808407D01*
X40771160Y-54097840D01*
X40844223Y-54146659D01*
X42881343Y-56183780D01*
X42930160Y-56256840D01*
X43219592Y-56450232D01*
X43474821Y-56501000D01*
X43560999Y-56518142D01*
X43647177Y-56501000D01*
X51326564Y-56501000D01*
X54433219Y-59607656D01*
X54649591Y-59752231D01*
X54780639Y-59778298D01*
X55496000Y-60493660D01*
X55496001Y-61245162D01*
X55457263Y-61303137D01*
X55408756Y-61547000D01*
X55408756Y-63047000D01*
X55457263Y-63290863D01*
X55595400Y-63497600D01*
X55789061Y-63627000D01*
X55595400Y-63756400D01*
X55457263Y-63963137D01*
X55408756Y-64207000D01*
X55408756Y-64681009D01*
X55371000Y-64870822D01*
X55371001Y-66827818D01*
X55353858Y-66914000D01*
X55421769Y-67255408D01*
X55615161Y-67544840D01*
X55688221Y-67593657D01*
X56729500Y-68634937D01*
X56729500Y-68648243D01*
X56642000Y-68779197D01*
X56552600Y-68645400D01*
X56345863Y-68507263D01*
X56102000Y-68458756D01*
X55257000Y-68458756D01*
X55013137Y-68507263D01*
X54806400Y-68645400D01*
X54755886Y-68721000D01*
X44917179Y-68721000D01*
X44831000Y-68703858D01*
X44744821Y-68721000D01*
X44489592Y-68771768D01*
X44200160Y-68965160D01*
X44151341Y-69038223D01*
X43942221Y-69247343D01*
X43869161Y-69296160D01*
X43820344Y-69369220D01*
X43675769Y-69585592D01*
X43607858Y-69927000D01*
X43625001Y-70013182D01*
X43625001Y-70376312D01*
X43325853Y-70675460D01*
X43115000Y-71184506D01*
X43115000Y-71735494D01*
X43325853Y-72244540D01*
X43715460Y-72634147D01*
X43931313Y-72723556D01*
X43774354Y-72788571D01*
X43704754Y-73027977D01*
X44500000Y-73823223D01*
X45295246Y-73027977D01*
X45225646Y-72788571D01*
X45057150Y-72728335D01*
X45284540Y-72634147D01*
X45500000Y-72418687D01*
X45715460Y-72634147D01*
X45946870Y-72730000D01*
X45715460Y-72825853D01*
X45325853Y-73215460D01*
X45230066Y-73446711D01*
X44676777Y-74000000D01*
X45230066Y-74553289D01*
X45325853Y-74784540D01*
X45715460Y-75174147D01*
X46224506Y-75385000D01*
X46647564Y-75385000D01*
X48401343Y-77138780D01*
X48450160Y-77211840D01*
X48739592Y-77405232D01*
X48994821Y-77456000D01*
X49080999Y-77473142D01*
X49167177Y-77456000D01*
X54479756Y-77456000D01*
X54479756Y-77731000D01*
X54576364Y-78068332D01*
X54746609Y-78249547D01*
X54973243Y-78351817D01*
X55221762Y-78359574D01*
X58821762Y-77759574D01*
X58960863Y-77719737D01*
X59167600Y-77581600D01*
X59305737Y-77374863D01*
X59354244Y-77131000D01*
X59354244Y-76031000D01*
X59337817Y-75887243D01*
X59235547Y-75660609D01*
X59054332Y-75490364D01*
X58821762Y-75402426D01*
X55221762Y-74802426D01*
X54873137Y-74842263D01*
X54666400Y-74980400D01*
X54528263Y-75187137D01*
X54479756Y-75431000D01*
X54479756Y-75706000D01*
X49443437Y-75706000D01*
X47885000Y-74147564D01*
X47885000Y-73724506D01*
X47674147Y-73215460D01*
X47284540Y-72825853D01*
X47053130Y-72730000D01*
X47284540Y-72634147D01*
X47583687Y-72335000D01*
X54728491Y-72335000D01*
X54806400Y-72451600D01*
X55013137Y-72589737D01*
X55257000Y-72638244D01*
X56102000Y-72638244D01*
X56345863Y-72589737D01*
X56552600Y-72451600D01*
X56642000Y-72317803D01*
X56731400Y-72451600D01*
X56938137Y-72589737D01*
X57182000Y-72638244D01*
X58027000Y-72638244D01*
X58270863Y-72589737D01*
X58477600Y-72451600D01*
X58528114Y-72376000D01*
X59001456Y-72376000D01*
X59292125Y-72666669D01*
X59797495Y-72876000D01*
X60344505Y-72876000D01*
X60849875Y-72666669D01*
X61140544Y-72376000D01*
X61762822Y-72376000D01*
X61849000Y-72393142D01*
X61935178Y-72376000D01*
X61935179Y-72376000D01*
X62190408Y-72325232D01*
X62479840Y-72131840D01*
X62528660Y-72058776D01*
X62787775Y-71799660D01*
X62860840Y-71750840D01*
X62879000Y-71723661D01*
X62879000Y-72408563D01*
X62159221Y-73128343D01*
X62086161Y-73177160D01*
X62037344Y-73250220D01*
X61892769Y-73466592D01*
X61824858Y-73808000D01*
X61842001Y-73894182D01*
X61842000Y-75230799D01*
X60812238Y-75402426D01*
X60673137Y-75442263D01*
X60466400Y-75580400D01*
X60328263Y-75787137D01*
X60279756Y-76031000D01*
X60279756Y-77131000D01*
X60296183Y-77274757D01*
X60398453Y-77501391D01*
X60579668Y-77671636D01*
X60812238Y-77759574D01*
X61592001Y-77889534D01*
X61592000Y-80327010D01*
X58335011Y-83584000D01*
X56027932Y-83584000D01*
X55910600Y-83408400D01*
X55703863Y-83270263D01*
X55460000Y-83221756D01*
X53760000Y-83221756D01*
X53516137Y-83270263D01*
X53309400Y-83408400D01*
X53171263Y-83615137D01*
X53147633Y-83733933D01*
X52832742Y-83446513D01*
X52423372Y-83276955D01*
X52195000Y-83396188D01*
X52195000Y-84584000D01*
X52215000Y-84584000D01*
X52215000Y-84834000D01*
X52195000Y-84834000D01*
X52195000Y-86021812D01*
X52423372Y-86141045D01*
X52832742Y-85971487D01*
X53147633Y-85684067D01*
X53171263Y-85802863D01*
X53309400Y-86009600D01*
X53516137Y-86147737D01*
X53760000Y-86196244D01*
X55460000Y-86196244D01*
X55703863Y-86147737D01*
X55910600Y-86009600D01*
X56027932Y-85834000D01*
X58690198Y-85834000D01*
X58801000Y-85856040D01*
X58911802Y-85834000D01*
X58911803Y-85834000D01*
X59239953Y-85768727D01*
X59612080Y-85520080D01*
X59674848Y-85426141D01*
X62408254Y-82692736D01*
X62461331Y-82820875D01*
X62848125Y-83207669D01*
X63353495Y-83417000D01*
X63900505Y-83417000D01*
X64405875Y-83207669D01*
X64602756Y-83010788D01*
X64602756Y-83731000D01*
X64651263Y-83974863D01*
X64789400Y-84181600D01*
X64996137Y-84319737D01*
X65240000Y-84368244D01*
X66840000Y-84368244D01*
X67083863Y-84319737D01*
X67290600Y-84181600D01*
X67428737Y-83974863D01*
X67477244Y-83731000D01*
X67477244Y-82131000D01*
X67428737Y-81887137D01*
X67290600Y-81680400D01*
X67083863Y-81542263D01*
X66928264Y-81511313D01*
X67067367Y-81418367D01*
X67382320Y-80947007D01*
X67492917Y-80391000D01*
X72207083Y-80391000D01*
X72317680Y-80947007D01*
X72632633Y-81418367D01*
X72995759Y-81661000D01*
X72632633Y-81903633D01*
X72317680Y-82374993D01*
X72207083Y-82931000D01*
X72317680Y-83487007D01*
X72632633Y-83958367D01*
X73103993Y-84273320D01*
X73519652Y-84356000D01*
X73800348Y-84356000D01*
X74216007Y-84273320D01*
X74687367Y-83958367D01*
X75002320Y-83487007D01*
X75112917Y-82931000D01*
X75002320Y-82374993D01*
X74713171Y-81942250D01*
X84874000Y-81942250D01*
X84874000Y-82285320D01*
X84969151Y-82515034D01*
X85144966Y-82690850D01*
X85374680Y-82786000D01*
X85717750Y-82786000D01*
X85874000Y-82629750D01*
X85874000Y-81786000D01*
X86124000Y-81786000D01*
X86124000Y-82629750D01*
X86280250Y-82786000D01*
X86623320Y-82786000D01*
X86853034Y-82690850D01*
X87028849Y-82515034D01*
X87124000Y-82285320D01*
X87124000Y-81942250D01*
X86967750Y-81786000D01*
X86124000Y-81786000D01*
X85874000Y-81786000D01*
X85030250Y-81786000D01*
X84874000Y-81942250D01*
X74713171Y-81942250D01*
X74687367Y-81903633D01*
X74324241Y-81661000D01*
X74687367Y-81418367D01*
X74942402Y-81036680D01*
X84874000Y-81036680D01*
X84874000Y-81379750D01*
X85030250Y-81536000D01*
X85874000Y-81536000D01*
X85874000Y-80692250D01*
X86124000Y-80692250D01*
X86124000Y-81536000D01*
X86967750Y-81536000D01*
X87124000Y-81379750D01*
X87124000Y-81036680D01*
X87028849Y-80806966D01*
X86853034Y-80631150D01*
X86623320Y-80536000D01*
X86280250Y-80536000D01*
X86124000Y-80692250D01*
X85874000Y-80692250D01*
X85717750Y-80536000D01*
X85374680Y-80536000D01*
X85144966Y-80631150D01*
X84969151Y-80806966D01*
X84874000Y-81036680D01*
X74942402Y-81036680D01*
X75002320Y-80947007D01*
X75112917Y-80391000D01*
X75002320Y-79834993D01*
X74687367Y-79363633D01*
X74216007Y-79048680D01*
X73800348Y-78966000D01*
X73519652Y-78966000D01*
X73103993Y-79048680D01*
X72632633Y-79363633D01*
X72317680Y-79834993D01*
X72207083Y-80391000D01*
X67492917Y-80391000D01*
X67382320Y-79834993D01*
X67067367Y-79363633D01*
X66596007Y-79048680D01*
X66180348Y-78966000D01*
X65899652Y-78966000D01*
X65483993Y-79048680D01*
X65012633Y-79363633D01*
X64697680Y-79834993D01*
X64587083Y-80391000D01*
X64697680Y-80947007D01*
X65012633Y-81418367D01*
X65151736Y-81511313D01*
X64996137Y-81542263D01*
X64927334Y-81588236D01*
X64792669Y-81263125D01*
X64405875Y-80876331D01*
X63900505Y-80667000D01*
X63842000Y-80667000D01*
X63842000Y-78264534D01*
X64412238Y-78359574D01*
X64760863Y-78319737D01*
X64967600Y-78181600D01*
X65105737Y-77974863D01*
X65154244Y-77731000D01*
X65154244Y-77180522D01*
X77484514Y-77180522D01*
X77721975Y-77683275D01*
X78133756Y-78056886D01*
X78521479Y-78217476D01*
X78742000Y-78097577D01*
X78742000Y-76960000D01*
X77603733Y-76960000D01*
X77484514Y-77180522D01*
X65154244Y-77180522D01*
X65154244Y-76489478D01*
X77484514Y-76489478D01*
X77603733Y-76710000D01*
X78742000Y-76710000D01*
X78742000Y-75572423D01*
X78521479Y-75452524D01*
X78133756Y-75613114D01*
X77721975Y-75986725D01*
X77484514Y-76489478D01*
X65154244Y-76489478D01*
X65154244Y-75431000D01*
X65057636Y-75093668D01*
X64887391Y-74912453D01*
X64660757Y-74810183D01*
X64412238Y-74802426D01*
X63592000Y-74939132D01*
X63592000Y-74170436D01*
X64311780Y-73450657D01*
X64384840Y-73401840D01*
X64578232Y-73112408D01*
X64611733Y-72943986D01*
X64629150Y-72986034D01*
X64804966Y-73161849D01*
X65034680Y-73257000D01*
X65377750Y-73257000D01*
X65534000Y-73100750D01*
X65534000Y-72334500D01*
X65784000Y-72334500D01*
X65784000Y-73100750D01*
X65940250Y-73257000D01*
X66283320Y-73257000D01*
X66513034Y-73161849D01*
X66688850Y-72986034D01*
X66784000Y-72756320D01*
X66784000Y-72490750D01*
X66627750Y-72334500D01*
X65784000Y-72334500D01*
X65534000Y-72334500D01*
X65514000Y-72334500D01*
X65514000Y-72084500D01*
X65534000Y-72084500D01*
X65534000Y-72064500D01*
X65784000Y-72064500D01*
X65784000Y-72084500D01*
X66627750Y-72084500D01*
X66784000Y-71928250D01*
X66784000Y-71662680D01*
X66688850Y-71432966D01*
X66513034Y-71257151D01*
X66480673Y-71243746D01*
X66609600Y-71157600D01*
X66747737Y-70950863D01*
X66796244Y-70707000D01*
X66796244Y-69862000D01*
X66747737Y-69618137D01*
X66609600Y-69411400D01*
X66534000Y-69360886D01*
X66534000Y-69068544D01*
X66824669Y-68777875D01*
X67034000Y-68272505D01*
X67034000Y-67725495D01*
X66824669Y-67220125D01*
X66534000Y-66929456D01*
X66534000Y-66507179D01*
X66551142Y-66421000D01*
X66483232Y-66079592D01*
X66381273Y-65927000D01*
X66289840Y-65790160D01*
X66216780Y-65741343D01*
X63224000Y-62748564D01*
X63224000Y-62337495D01*
X63014669Y-61832125D01*
X62837044Y-61654500D01*
X64711244Y-61654500D01*
X64784001Y-61703115D01*
X64784000Y-62049456D01*
X64493331Y-62340125D01*
X64284000Y-62845495D01*
X64284000Y-63392505D01*
X64493331Y-63897875D01*
X64880125Y-64284669D01*
X65385495Y-64494000D01*
X65932505Y-64494000D01*
X66437875Y-64284669D01*
X66824669Y-63897875D01*
X67034000Y-63392505D01*
X67034000Y-62845495D01*
X66824669Y-62340125D01*
X66534000Y-62049456D01*
X66534000Y-61703114D01*
X66609600Y-61652600D01*
X66747737Y-61445863D01*
X66796244Y-61202000D01*
X66796244Y-60357000D01*
X66747737Y-60113137D01*
X66609600Y-59906400D01*
X66480673Y-59820254D01*
X66513034Y-59806849D01*
X66688850Y-59631034D01*
X66784000Y-59401320D01*
X66784000Y-59135750D01*
X66627750Y-58979500D01*
X65784000Y-58979500D01*
X65784000Y-58999500D01*
X65534000Y-58999500D01*
X65534000Y-58979500D01*
X64690250Y-58979500D01*
X64534000Y-59135750D01*
X64534000Y-59401320D01*
X64629150Y-59631034D01*
X64804966Y-59806849D01*
X64837327Y-59820254D01*
X64711244Y-59904500D01*
X63110508Y-59904500D01*
X63014669Y-59673125D01*
X62627875Y-59286331D01*
X62122505Y-59077000D01*
X61575495Y-59077000D01*
X61082041Y-59281395D01*
X62055756Y-58307680D01*
X64534000Y-58307680D01*
X64534000Y-58573250D01*
X64690250Y-58729500D01*
X65534000Y-58729500D01*
X65534000Y-57963250D01*
X65784000Y-57963250D01*
X65784000Y-58729500D01*
X66627750Y-58729500D01*
X66784000Y-58573250D01*
X66784000Y-58307680D01*
X66688850Y-58077966D01*
X66513034Y-57902151D01*
X66283320Y-57807000D01*
X65940250Y-57807000D01*
X65784000Y-57963250D01*
X65534000Y-57963250D01*
X65377750Y-57807000D01*
X65034680Y-57807000D01*
X64804966Y-57902151D01*
X64629150Y-58077966D01*
X64534000Y-58307680D01*
X62055756Y-58307680D01*
X65327780Y-55035657D01*
X65400840Y-54986840D01*
X65594232Y-54697408D01*
X65645000Y-54442179D01*
X65662142Y-54356001D01*
X65645000Y-54269823D01*
X65645000Y-51996544D01*
X65935669Y-51705875D01*
X66145000Y-51200505D01*
X66145000Y-50653495D01*
X65935669Y-50148125D01*
X65645000Y-49857456D01*
X65645000Y-47965177D01*
X65662142Y-47878999D01*
X65644565Y-47790635D01*
X65594232Y-47537592D01*
X65400840Y-47248160D01*
X65327775Y-47199339D01*
X65264000Y-47135565D01*
X65264000Y-44812436D01*
X65368946Y-44707490D01*
X65642125Y-44980669D01*
X66147495Y-45190000D01*
X66694505Y-45190000D01*
X67199875Y-44980669D01*
X67473054Y-44707490D01*
X67959001Y-45193438D01*
X67959000Y-54523821D01*
X67959000Y-55285822D01*
X67941858Y-55372000D01*
X67959000Y-55458178D01*
X67959000Y-55458179D01*
X68009769Y-55713408D01*
X68203161Y-56002840D01*
X68276221Y-56051657D01*
X73488343Y-61263780D01*
X73537160Y-61336840D01*
X73826592Y-61530232D01*
X74081821Y-61581000D01*
X74167999Y-61598142D01*
X74254177Y-61581000D01*
X78885564Y-61581000D01*
X79389001Y-62084438D01*
X79389000Y-74081822D01*
X79371858Y-74168000D01*
X79389000Y-74254178D01*
X79439768Y-74509407D01*
X79633160Y-74798840D01*
X79706223Y-74847659D01*
X80532001Y-75673437D01*
X80532001Y-75705824D01*
X80379633Y-75807633D01*
X80114707Y-76204123D01*
X80012025Y-75986725D01*
X79600244Y-75613114D01*
X79212521Y-75452524D01*
X78992000Y-75572423D01*
X78992000Y-76710000D01*
X79012000Y-76710000D01*
X79012000Y-76960000D01*
X78992000Y-76960000D01*
X78992000Y-78097577D01*
X79212521Y-78217476D01*
X79600244Y-78056886D01*
X80012025Y-77683275D01*
X80114707Y-77465877D01*
X80379633Y-77862367D01*
X80850993Y-78177320D01*
X81266652Y-78260000D01*
X81547348Y-78260000D01*
X81963007Y-78177320D01*
X82434367Y-77862367D01*
X82749320Y-77391007D01*
X82859917Y-76835000D01*
X82749320Y-76278993D01*
X82434367Y-75807633D01*
X82282000Y-75705825D01*
X82282000Y-75397177D01*
X82299142Y-75310999D01*
X82235735Y-74992232D01*
X82231232Y-74969592D01*
X82037840Y-74680160D01*
X81964780Y-74631343D01*
X81139000Y-73805564D01*
X81139000Y-73740436D01*
X87624001Y-80225438D01*
X87624001Y-80659885D01*
X87548400Y-80710400D01*
X87410263Y-80917137D01*
X87361756Y-81161000D01*
X87361756Y-82161000D01*
X87410263Y-82404863D01*
X87548400Y-82611600D01*
X87624000Y-82662114D01*
X87624001Y-84360249D01*
X87568400Y-84397400D01*
X87430263Y-84604137D01*
X87381756Y-84848000D01*
X87381756Y-85693000D01*
X87430263Y-85936863D01*
X87568400Y-86143600D01*
X87702197Y-86233000D01*
X87568400Y-86322400D01*
X87430263Y-86529137D01*
X87381756Y-86773000D01*
X87381756Y-87468443D01*
X83835000Y-87439323D01*
X83835000Y-86094179D01*
X83852142Y-86008000D01*
X83784232Y-85666592D01*
X83774936Y-85652680D01*
X83590840Y-85377160D01*
X83517780Y-85328343D01*
X82844244Y-84654807D01*
X82844244Y-83655000D01*
X82795737Y-83411137D01*
X82657600Y-83204400D01*
X82450863Y-83066263D01*
X82207000Y-83017756D01*
X80607000Y-83017756D01*
X80363137Y-83066263D01*
X80156400Y-83204400D01*
X80018263Y-83411137D01*
X79987313Y-83566736D01*
X79894367Y-83427633D01*
X79423007Y-83112680D01*
X79007348Y-83030000D01*
X78726652Y-83030000D01*
X78310993Y-83112680D01*
X77839633Y-83427633D01*
X77524680Y-83898993D01*
X77414083Y-84455000D01*
X77461709Y-84694433D01*
X77461269Y-84695092D01*
X77393358Y-85036500D01*
X77410501Y-85122682D01*
X77410500Y-86428243D01*
X77274263Y-86632137D01*
X77225756Y-86876000D01*
X77225756Y-87385059D01*
X76001026Y-87375004D01*
X75953114Y-87384126D01*
X75912340Y-87410889D01*
X75884912Y-87451218D01*
X75875000Y-87500000D01*
X75875000Y-91875000D01*
X45324611Y-91875000D01*
X46053398Y-91573127D01*
X47073127Y-90553398D01*
X47625000Y-89221057D01*
X47625000Y-87778943D01*
X47300281Y-86995000D01*
X64587083Y-86995000D01*
X64697680Y-87551007D01*
X65012633Y-88022367D01*
X65151736Y-88115313D01*
X64996137Y-88146263D01*
X64789400Y-88284400D01*
X64651263Y-88491137D01*
X64602756Y-88735000D01*
X64602756Y-90335000D01*
X64651263Y-90578863D01*
X64789400Y-90785600D01*
X64996137Y-90923737D01*
X65240000Y-90972244D01*
X66840000Y-90972244D01*
X67083863Y-90923737D01*
X67290600Y-90785600D01*
X67428737Y-90578863D01*
X67477244Y-90335000D01*
X67477244Y-88735000D01*
X67428737Y-88491137D01*
X67290600Y-88284400D01*
X67083863Y-88146263D01*
X66928264Y-88115313D01*
X67067367Y-88022367D01*
X67382320Y-87551007D01*
X67492917Y-86995000D01*
X72207083Y-86995000D01*
X72317680Y-87551007D01*
X72632633Y-88022367D01*
X72995759Y-88265000D01*
X72632633Y-88507633D01*
X72317680Y-88978993D01*
X72207083Y-89535000D01*
X72317680Y-90091007D01*
X72632633Y-90562367D01*
X73103993Y-90877320D01*
X73519652Y-90960000D01*
X73800348Y-90960000D01*
X74216007Y-90877320D01*
X74687367Y-90562367D01*
X75002320Y-90091007D01*
X75112917Y-89535000D01*
X75002320Y-88978993D01*
X74687367Y-88507633D01*
X74324241Y-88265000D01*
X74687367Y-88022367D01*
X75002320Y-87551007D01*
X75112917Y-86995000D01*
X75002320Y-86438993D01*
X74687367Y-85967633D01*
X74216007Y-85652680D01*
X73800348Y-85570000D01*
X73519652Y-85570000D01*
X73103993Y-85652680D01*
X72632633Y-85967633D01*
X72317680Y-86438993D01*
X72207083Y-86995000D01*
X67492917Y-86995000D01*
X67382320Y-86438993D01*
X67067367Y-85967633D01*
X66596007Y-85652680D01*
X66180348Y-85570000D01*
X65899652Y-85570000D01*
X65483993Y-85652680D01*
X65012633Y-85967633D01*
X64697680Y-86438993D01*
X64587083Y-86995000D01*
X47300281Y-86995000D01*
X47073127Y-86446602D01*
X46053398Y-85426873D01*
X45173417Y-85062373D01*
X50637946Y-85062373D01*
X50882185Y-85583497D01*
X51307258Y-85971487D01*
X51716628Y-86141045D01*
X51945000Y-86021812D01*
X51945000Y-84834000D01*
X50756547Y-84834000D01*
X50637946Y-85062373D01*
X45173417Y-85062373D01*
X44721057Y-84875000D01*
X43278943Y-84875000D01*
X41946602Y-85426873D01*
X40926873Y-86446602D01*
X40375000Y-87778943D01*
X40375000Y-89221057D01*
X40926873Y-90553398D01*
X41946602Y-91573127D01*
X42675389Y-91875000D01*
X39625000Y-91875000D01*
X39625000Y-84355627D01*
X50637946Y-84355627D01*
X50756547Y-84584000D01*
X51945000Y-84584000D01*
X51945000Y-83396188D01*
X51716628Y-83276955D01*
X51307258Y-83446513D01*
X50882185Y-83834503D01*
X50637946Y-84355627D01*
X39625000Y-84355627D01*
X39625000Y-80128821D01*
X40577955Y-80128821D01*
X40719790Y-80429444D01*
X41452365Y-80713460D01*
X42237865Y-80695512D01*
X42880210Y-80429444D01*
X43022045Y-80128821D01*
X41800000Y-78906777D01*
X40577955Y-80128821D01*
X39625000Y-80128821D01*
X39625000Y-78382365D01*
X39816540Y-78382365D01*
X39834488Y-79167865D01*
X40100556Y-79810210D01*
X40401179Y-79952045D01*
X41623223Y-78730000D01*
X41976777Y-78730000D01*
X43198821Y-79952045D01*
X43499444Y-79810210D01*
X43783460Y-79077635D01*
X43765512Y-78292135D01*
X43499444Y-77649790D01*
X43198821Y-77507955D01*
X41976777Y-78730000D01*
X41623223Y-78730000D01*
X40401179Y-77507955D01*
X40100556Y-77649790D01*
X39816540Y-78382365D01*
X39625000Y-78382365D01*
X39625000Y-77331179D01*
X40577955Y-77331179D01*
X41800000Y-78553223D01*
X43022045Y-77331179D01*
X42880210Y-77030556D01*
X42147635Y-76746540D01*
X41362135Y-76764488D01*
X40719790Y-77030556D01*
X40577955Y-77331179D01*
X39625000Y-77331179D01*
X39625000Y-74972023D01*
X43704754Y-74972023D01*
X43774354Y-75211429D01*
X44293183Y-75396907D01*
X44843500Y-75369720D01*
X45225646Y-75211429D01*
X45295246Y-74972023D01*
X44500000Y-74176777D01*
X43704754Y-74972023D01*
X39625000Y-74972023D01*
X39625000Y-73793183D01*
X43103093Y-73793183D01*
X43130280Y-74343500D01*
X43288571Y-74725646D01*
X43527977Y-74795246D01*
X44323223Y-74000000D01*
X43527977Y-73204754D01*
X43288571Y-73274354D01*
X43103093Y-73793183D01*
X39625000Y-73793183D01*
X39625000Y-68128821D01*
X40577955Y-68128821D01*
X40719790Y-68429444D01*
X41452365Y-68713460D01*
X42237865Y-68695512D01*
X42880210Y-68429444D01*
X43022045Y-68128821D01*
X41800000Y-66906777D01*
X40577955Y-68128821D01*
X39625000Y-68128821D01*
X39625000Y-66382365D01*
X39816540Y-66382365D01*
X39834488Y-67167865D01*
X40100556Y-67810210D01*
X40401179Y-67952045D01*
X41623223Y-66730000D01*
X41976777Y-66730000D01*
X43198821Y-67952045D01*
X43499444Y-67810210D01*
X43783460Y-67077635D01*
X43765512Y-66292135D01*
X43499444Y-65649790D01*
X43198821Y-65507955D01*
X41976777Y-66730000D01*
X41623223Y-66730000D01*
X40401179Y-65507955D01*
X40100556Y-65649790D01*
X39816540Y-66382365D01*
X39625000Y-66382365D01*
X39625000Y-65331179D01*
X40577955Y-65331179D01*
X41800000Y-66553223D01*
X43022045Y-65331179D01*
X42880210Y-65030556D01*
X42147635Y-64746540D01*
X41362135Y-64764488D01*
X40719790Y-65030556D01*
X40577955Y-65331179D01*
X39625000Y-65331179D01*
X39625000Y-59437855D01*
X43075000Y-59437855D01*
X43075000Y-60482145D01*
X43474632Y-61446943D01*
X44213057Y-62185368D01*
X45177855Y-62585000D01*
X46222145Y-62585000D01*
X47186943Y-62185368D01*
X47925368Y-61446943D01*
X48325000Y-60482145D01*
X48325000Y-59437855D01*
X47925368Y-58473057D01*
X47186943Y-57734632D01*
X46222145Y-57335000D01*
X45177855Y-57335000D01*
X44213057Y-57734632D01*
X43474632Y-58473057D01*
X43075000Y-59437855D01*
X39625000Y-59437855D01*
X39625000Y-41703627D01*
X44563284Y-41703627D01*
X44589845Y-42269905D01*
X44755450Y-42669709D01*
X44999000Y-42744223D01*
X45823223Y-41920000D01*
X46176777Y-41920000D01*
X47001000Y-42744223D01*
X47244550Y-42669709D01*
X47436716Y-42136373D01*
X47410155Y-41570095D01*
X47244550Y-41170291D01*
X47001000Y-41095777D01*
X46176777Y-41920000D01*
X45823223Y-41920000D01*
X44999000Y-41095777D01*
X44755450Y-41170291D01*
X44563284Y-41703627D01*
X39625000Y-41703627D01*
X39625000Y-40919000D01*
X45175777Y-40919000D01*
X46000000Y-41743223D01*
X46824223Y-40919000D01*
X46749709Y-40675450D01*
X46216373Y-40483284D01*
X45650095Y-40509845D01*
X45250291Y-40675450D01*
X45175777Y-40919000D01*
X39625000Y-40919000D01*
X39625000Y-34437855D01*
X43075000Y-34437855D01*
X43075000Y-35482145D01*
X43474632Y-36446943D01*
X44213057Y-37185368D01*
X45177855Y-37585000D01*
X46222145Y-37585000D01*
X47186943Y-37185368D01*
X47925368Y-36446943D01*
X48325000Y-35482145D01*
X48325000Y-34437855D01*
X47925368Y-33473057D01*
X47186943Y-32734632D01*
X46222145Y-32335000D01*
X45177855Y-32335000D01*
X44213057Y-32734632D01*
X43474632Y-33473057D01*
X43075000Y-34437855D01*
X39625000Y-34437855D01*
X39625000Y-26278943D01*
X40375000Y-26278943D01*
X40375000Y-27721057D01*
X40926873Y-29053398D01*
X41946602Y-30073127D01*
X43278943Y-30625000D01*
X44721057Y-30625000D01*
X46053398Y-30073127D01*
X47073127Y-29053398D01*
X47625000Y-27721057D01*
X47625000Y-26278943D01*
X47535243Y-26062250D01*
X50722000Y-26062250D01*
X50722000Y-26755320D01*
X50817150Y-26985034D01*
X50992966Y-27160849D01*
X51222680Y-27256000D01*
X51915750Y-27256000D01*
X52072000Y-27099750D01*
X52072000Y-25906000D01*
X50878250Y-25906000D01*
X50722000Y-26062250D01*
X47535243Y-26062250D01*
X47073127Y-24946602D01*
X46933205Y-24806680D01*
X50722000Y-24806680D01*
X50722000Y-25499750D01*
X50878250Y-25656000D01*
X52072000Y-25656000D01*
X52072000Y-24462250D01*
X52322000Y-24462250D01*
X52322000Y-25656000D01*
X52342000Y-25656000D01*
X52342000Y-25906000D01*
X52322000Y-25906000D01*
X52322000Y-27099750D01*
X52478250Y-27256000D01*
X53171320Y-27256000D01*
X53401034Y-27160849D01*
X53576850Y-26985034D01*
X53649825Y-26808856D01*
X53673585Y-26844415D01*
X53862001Y-26970310D01*
X53862000Y-28521456D01*
X53571331Y-28812125D01*
X53362000Y-29317495D01*
X53362000Y-29864505D01*
X53571331Y-30369875D01*
X53958125Y-30756669D01*
X54463495Y-30966000D01*
X55010505Y-30966000D01*
X55515875Y-30756669D01*
X55902669Y-30369875D01*
X56007000Y-30117998D01*
X56111331Y-30369875D01*
X56498125Y-30756669D01*
X57003495Y-30966000D01*
X57550505Y-30966000D01*
X58055875Y-30756669D01*
X58442669Y-30369875D01*
X58652000Y-29864505D01*
X58652000Y-29317495D01*
X58442669Y-28812125D01*
X58152000Y-28521456D01*
X58152000Y-26970310D01*
X58340415Y-26844415D01*
X58666419Y-26356516D01*
X58780896Y-25781000D01*
X58666419Y-25205484D01*
X58340415Y-24717585D01*
X57852516Y-24391581D01*
X57422270Y-24306000D01*
X57131730Y-24306000D01*
X56701484Y-24391581D01*
X56213585Y-24717585D01*
X56007000Y-25026761D01*
X55800415Y-24717585D01*
X55312516Y-24391581D01*
X54882270Y-24306000D01*
X54591730Y-24306000D01*
X54161484Y-24391581D01*
X53673585Y-24717585D01*
X53649825Y-24753144D01*
X53576850Y-24576966D01*
X53401034Y-24401151D01*
X53171320Y-24306000D01*
X52478250Y-24306000D01*
X52322000Y-24462250D01*
X52072000Y-24462250D01*
X51915750Y-24306000D01*
X51222680Y-24306000D01*
X50992966Y-24401151D01*
X50817150Y-24576966D01*
X50722000Y-24806680D01*
X46933205Y-24806680D01*
X46053398Y-23926873D01*
X44721057Y-23375000D01*
X43278943Y-23375000D01*
X41946602Y-23926873D01*
X40926873Y-24946602D01*
X40375000Y-26278943D01*
X39625000Y-26278943D01*
X39625000Y-23124952D01*
X73408000Y-23112048D01*
X73408000Y-24544802D01*
X73408000Y-24544802D01*
G37*
X73408000Y-24544802D02*
X73267000Y-24516756D01*
X72422000Y-24516756D01*
X72178137Y-24565263D01*
X71971400Y-24703400D01*
X71882000Y-24837197D01*
X71792600Y-24703400D01*
X71585863Y-24565263D01*
X71342000Y-24516756D01*
X70497000Y-24516756D01*
X70253137Y-24565263D01*
X70046400Y-24703400D01*
X69995886Y-24779000D01*
X69936177Y-24779000D01*
X69849999Y-24761858D01*
X69763821Y-24779000D01*
X69508592Y-24829768D01*
X69219160Y-25023160D01*
X69170341Y-25096223D01*
X65863221Y-28403343D01*
X65790161Y-28452160D01*
X65608070Y-28724679D01*
X65596769Y-28741592D01*
X65528858Y-29083000D01*
X65546001Y-29169182D01*
X65546000Y-31790821D01*
X65546000Y-32232456D01*
X65264000Y-31950456D01*
X65264000Y-28280177D01*
X65281142Y-28193999D01*
X65263756Y-28106593D01*
X65213232Y-27852592D01*
X65019840Y-27563160D01*
X64946780Y-27514343D01*
X63421632Y-25989195D01*
X63605000Y-25546505D01*
X63605000Y-24999495D01*
X63395669Y-24494125D01*
X63008875Y-24107331D01*
X62503505Y-23898000D01*
X61956495Y-23898000D01*
X61451125Y-24107331D01*
X61064331Y-24494125D01*
X60855000Y-24999495D01*
X60855000Y-25546505D01*
X61064331Y-26051875D01*
X61439809Y-26427353D01*
X61599160Y-26665840D01*
X61672223Y-26714659D01*
X63514001Y-28556438D01*
X63514000Y-31950456D01*
X63223331Y-32241125D01*
X63014000Y-32746495D01*
X63014000Y-33293505D01*
X63015033Y-33296000D01*
X62591495Y-33296000D01*
X62086125Y-33505331D01*
X61699331Y-33892125D01*
X61490000Y-34397495D01*
X61490000Y-34944505D01*
X61699331Y-35449875D01*
X62086125Y-35836669D01*
X62591495Y-36046000D01*
X63138505Y-36046000D01*
X63643875Y-35836669D01*
X63934544Y-35546000D01*
X64683822Y-35546000D01*
X64770000Y-35563142D01*
X64856178Y-35546000D01*
X64856179Y-35546000D01*
X65111408Y-35495232D01*
X65400840Y-35301840D01*
X65449659Y-35228777D01*
X66978780Y-33699657D01*
X67051840Y-33650840D01*
X67245232Y-33361408D01*
X67296000Y-33106179D01*
X67296000Y-33106178D01*
X67313142Y-33020000D01*
X67296000Y-32933821D01*
X67296000Y-29445436D01*
X70100612Y-26640824D01*
X70253137Y-26742737D01*
X70497000Y-26791244D01*
X71342000Y-26791244D01*
X71585863Y-26742737D01*
X71792600Y-26604600D01*
X71882000Y-26470803D01*
X71971400Y-26604600D01*
X72178137Y-26742737D01*
X72422000Y-26791244D01*
X73267000Y-26791244D01*
X73408000Y-26763198D01*
X73408000Y-36131500D01*
X73408003Y-36132362D01*
X73408094Y-36145500D01*
X71714179Y-36145500D01*
X71628000Y-36128358D01*
X71541821Y-36145500D01*
X66951677Y-36145500D01*
X66865499Y-36128358D01*
X66779321Y-36145500D01*
X66524092Y-36196268D01*
X66234660Y-36389660D01*
X66185841Y-36462723D01*
X64466221Y-38182343D01*
X64393161Y-38231160D01*
X64344344Y-38304220D01*
X64199769Y-38520592D01*
X64131858Y-38862000D01*
X64149001Y-38948183D01*
X64149000Y-43452563D01*
X63894244Y-43707320D01*
X63894244Y-42787000D01*
X63845737Y-42543137D01*
X63707600Y-42336400D01*
X63500863Y-42198263D01*
X63257000Y-42149756D01*
X61457000Y-42149756D01*
X61213137Y-42198263D01*
X61006400Y-42336400D01*
X60931000Y-42449244D01*
X60931000Y-42307250D01*
X60774750Y-42151000D01*
X59781000Y-42151000D01*
X59781000Y-42171000D01*
X59531000Y-42171000D01*
X59531000Y-42151000D01*
X59511000Y-42151000D01*
X59511000Y-41901000D01*
X59531000Y-41901000D01*
X59531000Y-41881000D01*
X59781000Y-41881000D01*
X59781000Y-41901000D01*
X60774750Y-41901000D01*
X60931000Y-41744750D01*
X60931000Y-41624756D01*
X61006400Y-41737600D01*
X61213137Y-41875737D01*
X61457000Y-41924244D01*
X63257000Y-41924244D01*
X63500863Y-41875737D01*
X63707600Y-41737600D01*
X63845737Y-41530863D01*
X63894244Y-41287000D01*
X63894244Y-38787000D01*
X63845737Y-38543137D01*
X63707600Y-38336400D01*
X63500863Y-38198263D01*
X63257000Y-38149756D01*
X63208516Y-38149756D01*
X63181232Y-38012592D01*
X62987840Y-37723160D01*
X62914777Y-37674341D01*
X62898659Y-37658223D01*
X62849840Y-37585160D01*
X62560408Y-37391768D01*
X62305179Y-37341000D01*
X62305178Y-37341000D01*
X62219000Y-37323858D01*
X62132822Y-37341000D01*
X60943244Y-37341000D01*
X60943244Y-36546000D01*
X60897495Y-36316000D01*
X60943244Y-36086000D01*
X60943244Y-35286000D01*
X60895505Y-35046000D01*
X60943244Y-34806000D01*
X60943244Y-34006000D01*
X60894737Y-33762137D01*
X60756600Y-33555400D01*
X60549863Y-33417263D01*
X60306000Y-33368756D01*
X59006000Y-33368756D01*
X58762137Y-33417263D01*
X58555400Y-33555400D01*
X58417263Y-33762137D01*
X58368756Y-34006000D01*
X58368756Y-34806000D01*
X58416495Y-35046000D01*
X58368756Y-35286000D01*
X58368756Y-36086000D01*
X58369809Y-36091291D01*
X58216591Y-36121768D01*
X58105095Y-36196268D01*
X57927160Y-36315160D01*
X57878343Y-36388220D01*
X55322223Y-38944341D01*
X55249160Y-38993160D01*
X55055768Y-39282593D01*
X55013319Y-39496000D01*
X54987858Y-39624000D01*
X55005000Y-39710178D01*
X55005000Y-41329786D01*
X54813408Y-41201768D01*
X54642877Y-41167847D01*
X54643244Y-41166000D01*
X54643244Y-40366000D01*
X54596500Y-40131000D01*
X54643244Y-39896000D01*
X54643244Y-39096000D01*
X54595505Y-38856000D01*
X54643244Y-38616000D01*
X54643244Y-37821000D01*
X54661822Y-37821000D01*
X54748000Y-37838142D01*
X54834178Y-37821000D01*
X54834179Y-37821000D01*
X55089408Y-37770232D01*
X55378840Y-37576840D01*
X55427659Y-37503777D01*
X56110279Y-36821157D01*
X56183340Y-36772340D01*
X56376732Y-36482908D01*
X56427500Y-36227679D01*
X56444642Y-36141500D01*
X56427500Y-36055321D01*
X56427500Y-33205756D01*
X56511746Y-33079673D01*
X56525151Y-33112034D01*
X56700966Y-33287850D01*
X56930680Y-33383000D01*
X57196250Y-33383000D01*
X57352500Y-33226750D01*
X57352500Y-32383000D01*
X57602500Y-32383000D01*
X57602500Y-33226750D01*
X57758750Y-33383000D01*
X58024320Y-33383000D01*
X58254034Y-33287850D01*
X58429849Y-33112034D01*
X58525000Y-32882320D01*
X58525000Y-32539250D01*
X58368750Y-32383000D01*
X57602500Y-32383000D01*
X57352500Y-32383000D01*
X57332500Y-32383000D01*
X57332500Y-32133000D01*
X57352500Y-32133000D01*
X57352500Y-31289250D01*
X57602500Y-31289250D01*
X57602500Y-32133000D01*
X58368750Y-32133000D01*
X58525000Y-31976750D01*
X58525000Y-31633680D01*
X58429849Y-31403966D01*
X58254034Y-31228150D01*
X58024320Y-31133000D01*
X57758750Y-31133000D01*
X57602500Y-31289250D01*
X57352500Y-31289250D01*
X57196250Y-31133000D01*
X56930680Y-31133000D01*
X56700966Y-31228150D01*
X56525151Y-31403966D01*
X56511746Y-31436327D01*
X56425600Y-31307400D01*
X56218863Y-31169263D01*
X55975000Y-31120756D01*
X55130000Y-31120756D01*
X54886137Y-31169263D01*
X54679400Y-31307400D01*
X54541263Y-31514137D01*
X54492756Y-31758000D01*
X54492756Y-32758000D01*
X54541263Y-33001863D01*
X54677500Y-33205757D01*
X54677501Y-35779062D01*
X54643244Y-35813319D01*
X54643244Y-35286000D01*
X54595505Y-35046000D01*
X54643244Y-34806000D01*
X54643244Y-34006000D01*
X54594737Y-33762137D01*
X54456600Y-33555400D01*
X54249863Y-33417263D01*
X54006000Y-33368756D01*
X52706000Y-33368756D01*
X52462137Y-33417263D01*
X52255400Y-33555400D01*
X52117263Y-33762137D01*
X52068756Y-34006000D01*
X52068756Y-34806000D01*
X52116495Y-35046000D01*
X52068756Y-35286000D01*
X52068756Y-36086000D01*
X52114505Y-36316000D01*
X52068756Y-36546000D01*
X52068756Y-37341000D01*
X51910535Y-37341000D01*
X51702908Y-37202268D01*
X51447679Y-37151500D01*
X51447678Y-37151500D01*
X51361500Y-37134358D01*
X51275322Y-37151500D01*
X50858756Y-37151500D01*
X50654863Y-37015263D01*
X50411000Y-36966756D01*
X49411000Y-36966756D01*
X49167137Y-37015263D01*
X48960400Y-37153400D01*
X48822263Y-37360137D01*
X48773756Y-37604000D01*
X48773756Y-38449000D01*
X48822263Y-38692863D01*
X48960400Y-38899600D01*
X49094197Y-38989000D01*
X48960400Y-39078400D01*
X48822263Y-39285137D01*
X48773756Y-39529000D01*
X48773756Y-40374000D01*
X48822263Y-40617863D01*
X48960400Y-40824600D01*
X49064265Y-40894000D01*
X48960400Y-40963400D01*
X48822263Y-41170137D01*
X48773756Y-41414000D01*
X48773756Y-42259000D01*
X48822263Y-42502863D01*
X48960400Y-42709600D01*
X49094197Y-42799000D01*
X48960400Y-42888400D01*
X48822263Y-43095137D01*
X48773756Y-43339000D01*
X48773756Y-44184000D01*
X48822263Y-44427863D01*
X48960400Y-44634600D01*
X49167137Y-44772737D01*
X49411000Y-44821244D01*
X50411000Y-44821244D01*
X50623052Y-44779065D01*
X50536151Y-44865966D01*
X50441000Y-45095680D01*
X50441000Y-45438750D01*
X50597250Y-45595000D01*
X51363500Y-45595000D01*
X51363500Y-45575000D01*
X51613500Y-45575000D01*
X51613500Y-45595000D01*
X51633500Y-45595000D01*
X51633500Y-45845000D01*
X51613500Y-45845000D01*
X51613500Y-45865000D01*
X51363500Y-45865000D01*
X51363500Y-45845000D01*
X50597250Y-45845000D01*
X50441000Y-46001250D01*
X50441000Y-46344320D01*
X50536151Y-46574034D01*
X50547117Y-46585000D01*
X47140253Y-46585000D01*
X46807197Y-46251944D01*
X46380018Y-46075000D01*
X46807197Y-45898056D01*
X47208056Y-45497197D01*
X47425000Y-44973450D01*
X47425000Y-44406550D01*
X47208056Y-43882803D01*
X46807197Y-43481944D01*
X46395326Y-43311341D01*
X46749709Y-43164550D01*
X46824223Y-42921000D01*
X46000000Y-42096777D01*
X45175777Y-42921000D01*
X45250291Y-43164550D01*
X45629338Y-43301124D01*
X45192803Y-43481944D01*
X44791944Y-43882803D01*
X44575000Y-44406550D01*
X44575000Y-44973450D01*
X44791944Y-45497197D01*
X45192803Y-45898056D01*
X45619982Y-46075000D01*
X45192803Y-46251944D01*
X44791944Y-46652803D01*
X44752512Y-46748000D01*
X44423642Y-46748000D01*
X44585000Y-46358450D01*
X44585000Y-45791550D01*
X44368056Y-45267803D01*
X43967197Y-44866944D01*
X43540018Y-44690000D01*
X43967197Y-44513056D01*
X44368056Y-44112197D01*
X44585000Y-43588450D01*
X44585000Y-43021550D01*
X44368056Y-42497803D01*
X43967197Y-42096944D01*
X43443450Y-41880000D01*
X42876550Y-41880000D01*
X42352803Y-42096944D01*
X41951944Y-42497803D01*
X41735000Y-43021550D01*
X41735000Y-43588450D01*
X41951944Y-44112197D01*
X42352803Y-44513056D01*
X42779982Y-44690000D01*
X42352803Y-44866944D01*
X41951944Y-45267803D01*
X41735000Y-45791550D01*
X41735000Y-46358450D01*
X41896358Y-46748000D01*
X41854504Y-46748000D01*
X41743408Y-46673768D01*
X41402000Y-46605858D01*
X41060593Y-46673768D01*
X40771161Y-46867160D01*
X40577769Y-47156592D01*
X40527001Y-47411821D01*
X40527000Y-53380822D01*
X40509858Y-53467000D01*
X40527000Y-53553178D01*
X40577768Y-53808407D01*
X40771160Y-54097840D01*
X40844223Y-54146659D01*
X42881343Y-56183780D01*
X42930160Y-56256840D01*
X43219592Y-56450232D01*
X43474821Y-56501000D01*
X43560999Y-56518142D01*
X43647177Y-56501000D01*
X51326564Y-56501000D01*
X54433219Y-59607656D01*
X54649591Y-59752231D01*
X54780639Y-59778298D01*
X55496000Y-60493660D01*
X55496001Y-61245162D01*
X55457263Y-61303137D01*
X55408756Y-61547000D01*
X55408756Y-63047000D01*
X55457263Y-63290863D01*
X55595400Y-63497600D01*
X55789061Y-63627000D01*
X55595400Y-63756400D01*
X55457263Y-63963137D01*
X55408756Y-64207000D01*
X55408756Y-64681009D01*
X55371000Y-64870822D01*
X55371001Y-66827818D01*
X55353858Y-66914000D01*
X55421769Y-67255408D01*
X55615161Y-67544840D01*
X55688221Y-67593657D01*
X56729500Y-68634937D01*
X56729500Y-68648243D01*
X56642000Y-68779197D01*
X56552600Y-68645400D01*
X56345863Y-68507263D01*
X56102000Y-68458756D01*
X55257000Y-68458756D01*
X55013137Y-68507263D01*
X54806400Y-68645400D01*
X54755886Y-68721000D01*
X44917179Y-68721000D01*
X44831000Y-68703858D01*
X44744821Y-68721000D01*
X44489592Y-68771768D01*
X44200160Y-68965160D01*
X44151341Y-69038223D01*
X43942221Y-69247343D01*
X43869161Y-69296160D01*
X43820344Y-69369220D01*
X43675769Y-69585592D01*
X43607858Y-69927000D01*
X43625001Y-70013182D01*
X43625001Y-70376312D01*
X43325853Y-70675460D01*
X43115000Y-71184506D01*
X43115000Y-71735494D01*
X43325853Y-72244540D01*
X43715460Y-72634147D01*
X43931313Y-72723556D01*
X43774354Y-72788571D01*
X43704754Y-73027977D01*
X44500000Y-73823223D01*
X45295246Y-73027977D01*
X45225646Y-72788571D01*
X45057150Y-72728335D01*
X45284540Y-72634147D01*
X45500000Y-72418687D01*
X45715460Y-72634147D01*
X45946870Y-72730000D01*
X45715460Y-72825853D01*
X45325853Y-73215460D01*
X45230066Y-73446711D01*
X44676777Y-74000000D01*
X45230066Y-74553289D01*
X45325853Y-74784540D01*
X45715460Y-75174147D01*
X46224506Y-75385000D01*
X46647564Y-75385000D01*
X48401343Y-77138780D01*
X48450160Y-77211840D01*
X48739592Y-77405232D01*
X48994821Y-77456000D01*
X49080999Y-77473142D01*
X49167177Y-77456000D01*
X54479756Y-77456000D01*
X54479756Y-77731000D01*
X54576364Y-78068332D01*
X54746609Y-78249547D01*
X54973243Y-78351817D01*
X55221762Y-78359574D01*
X58821762Y-77759574D01*
X58960863Y-77719737D01*
X59167600Y-77581600D01*
X59305737Y-77374863D01*
X59354244Y-77131000D01*
X59354244Y-76031000D01*
X59337817Y-75887243D01*
X59235547Y-75660609D01*
X59054332Y-75490364D01*
X58821762Y-75402426D01*
X55221762Y-74802426D01*
X54873137Y-74842263D01*
X54666400Y-74980400D01*
X54528263Y-75187137D01*
X54479756Y-75431000D01*
X54479756Y-75706000D01*
X49443437Y-75706000D01*
X47885000Y-74147564D01*
X47885000Y-73724506D01*
X47674147Y-73215460D01*
X47284540Y-72825853D01*
X47053130Y-72730000D01*
X47284540Y-72634147D01*
X47583687Y-72335000D01*
X54728491Y-72335000D01*
X54806400Y-72451600D01*
X55013137Y-72589737D01*
X55257000Y-72638244D01*
X56102000Y-72638244D01*
X56345863Y-72589737D01*
X56552600Y-72451600D01*
X56642000Y-72317803D01*
X56731400Y-72451600D01*
X56938137Y-72589737D01*
X57182000Y-72638244D01*
X58027000Y-72638244D01*
X58270863Y-72589737D01*
X58477600Y-72451600D01*
X58528114Y-72376000D01*
X59001456Y-72376000D01*
X59292125Y-72666669D01*
X59797495Y-72876000D01*
X60344505Y-72876000D01*
X60849875Y-72666669D01*
X61140544Y-72376000D01*
X61762822Y-72376000D01*
X61849000Y-72393142D01*
X61935178Y-72376000D01*
X61935179Y-72376000D01*
X62190408Y-72325232D01*
X62479840Y-72131840D01*
X62528660Y-72058776D01*
X62787775Y-71799660D01*
X62860840Y-71750840D01*
X62879000Y-71723661D01*
X62879000Y-72408563D01*
X62159221Y-73128343D01*
X62086161Y-73177160D01*
X62037344Y-73250220D01*
X61892769Y-73466592D01*
X61824858Y-73808000D01*
X61842001Y-73894182D01*
X61842000Y-75230799D01*
X60812238Y-75402426D01*
X60673137Y-75442263D01*
X60466400Y-75580400D01*
X60328263Y-75787137D01*
X60279756Y-76031000D01*
X60279756Y-77131000D01*
X60296183Y-77274757D01*
X60398453Y-77501391D01*
X60579668Y-77671636D01*
X60812238Y-77759574D01*
X61592001Y-77889534D01*
X61592000Y-80327010D01*
X58335011Y-83584000D01*
X56027932Y-83584000D01*
X55910600Y-83408400D01*
X55703863Y-83270263D01*
X55460000Y-83221756D01*
X53760000Y-83221756D01*
X53516137Y-83270263D01*
X53309400Y-83408400D01*
X53171263Y-83615137D01*
X53147633Y-83733933D01*
X52832742Y-83446513D01*
X52423372Y-83276955D01*
X52195000Y-83396188D01*
X52195000Y-84584000D01*
X52215000Y-84584000D01*
X52215000Y-84834000D01*
X52195000Y-84834000D01*
X52195000Y-86021812D01*
X52423372Y-86141045D01*
X52832742Y-85971487D01*
X53147633Y-85684067D01*
X53171263Y-85802863D01*
X53309400Y-86009600D01*
X53516137Y-86147737D01*
X53760000Y-86196244D01*
X55460000Y-86196244D01*
X55703863Y-86147737D01*
X55910600Y-86009600D01*
X56027932Y-85834000D01*
X58690198Y-85834000D01*
X58801000Y-85856040D01*
X58911802Y-85834000D01*
X58911803Y-85834000D01*
X59239953Y-85768727D01*
X59612080Y-85520080D01*
X59674848Y-85426141D01*
X62408254Y-82692736D01*
X62461331Y-82820875D01*
X62848125Y-83207669D01*
X63353495Y-83417000D01*
X63900505Y-83417000D01*
X64405875Y-83207669D01*
X64602756Y-83010788D01*
X64602756Y-83731000D01*
X64651263Y-83974863D01*
X64789400Y-84181600D01*
X64996137Y-84319737D01*
X65240000Y-84368244D01*
X66840000Y-84368244D01*
X67083863Y-84319737D01*
X67290600Y-84181600D01*
X67428737Y-83974863D01*
X67477244Y-83731000D01*
X67477244Y-82131000D01*
X67428737Y-81887137D01*
X67290600Y-81680400D01*
X67083863Y-81542263D01*
X66928264Y-81511313D01*
X67067367Y-81418367D01*
X67382320Y-80947007D01*
X67492917Y-80391000D01*
X72207083Y-80391000D01*
X72317680Y-80947007D01*
X72632633Y-81418367D01*
X72995759Y-81661000D01*
X72632633Y-81903633D01*
X72317680Y-82374993D01*
X72207083Y-82931000D01*
X72317680Y-83487007D01*
X72632633Y-83958367D01*
X73103993Y-84273320D01*
X73519652Y-84356000D01*
X73800348Y-84356000D01*
X74216007Y-84273320D01*
X74687367Y-83958367D01*
X75002320Y-83487007D01*
X75112917Y-82931000D01*
X75002320Y-82374993D01*
X74713171Y-81942250D01*
X84874000Y-81942250D01*
X84874000Y-82285320D01*
X84969151Y-82515034D01*
X85144966Y-82690850D01*
X85374680Y-82786000D01*
X85717750Y-82786000D01*
X85874000Y-82629750D01*
X85874000Y-81786000D01*
X86124000Y-81786000D01*
X86124000Y-82629750D01*
X86280250Y-82786000D01*
X86623320Y-82786000D01*
X86853034Y-82690850D01*
X87028849Y-82515034D01*
X87124000Y-82285320D01*
X87124000Y-81942250D01*
X86967750Y-81786000D01*
X86124000Y-81786000D01*
X85874000Y-81786000D01*
X85030250Y-81786000D01*
X84874000Y-81942250D01*
X74713171Y-81942250D01*
X74687367Y-81903633D01*
X74324241Y-81661000D01*
X74687367Y-81418367D01*
X74942402Y-81036680D01*
X84874000Y-81036680D01*
X84874000Y-81379750D01*
X85030250Y-81536000D01*
X85874000Y-81536000D01*
X85874000Y-80692250D01*
X86124000Y-80692250D01*
X86124000Y-81536000D01*
X86967750Y-81536000D01*
X87124000Y-81379750D01*
X87124000Y-81036680D01*
X87028849Y-80806966D01*
X86853034Y-80631150D01*
X86623320Y-80536000D01*
X86280250Y-80536000D01*
X86124000Y-80692250D01*
X85874000Y-80692250D01*
X85717750Y-80536000D01*
X85374680Y-80536000D01*
X85144966Y-80631150D01*
X84969151Y-80806966D01*
X84874000Y-81036680D01*
X74942402Y-81036680D01*
X75002320Y-80947007D01*
X75112917Y-80391000D01*
X75002320Y-79834993D01*
X74687367Y-79363633D01*
X74216007Y-79048680D01*
X73800348Y-78966000D01*
X73519652Y-78966000D01*
X73103993Y-79048680D01*
X72632633Y-79363633D01*
X72317680Y-79834993D01*
X72207083Y-80391000D01*
X67492917Y-80391000D01*
X67382320Y-79834993D01*
X67067367Y-79363633D01*
X66596007Y-79048680D01*
X66180348Y-78966000D01*
X65899652Y-78966000D01*
X65483993Y-79048680D01*
X65012633Y-79363633D01*
X64697680Y-79834993D01*
X64587083Y-80391000D01*
X64697680Y-80947007D01*
X65012633Y-81418367D01*
X65151736Y-81511313D01*
X64996137Y-81542263D01*
X64927334Y-81588236D01*
X64792669Y-81263125D01*
X64405875Y-80876331D01*
X63900505Y-80667000D01*
X63842000Y-80667000D01*
X63842000Y-78264534D01*
X64412238Y-78359574D01*
X64760863Y-78319737D01*
X64967600Y-78181600D01*
X65105737Y-77974863D01*
X65154244Y-77731000D01*
X65154244Y-77180522D01*
X77484514Y-77180522D01*
X77721975Y-77683275D01*
X78133756Y-78056886D01*
X78521479Y-78217476D01*
X78742000Y-78097577D01*
X78742000Y-76960000D01*
X77603733Y-76960000D01*
X77484514Y-77180522D01*
X65154244Y-77180522D01*
X65154244Y-76489478D01*
X77484514Y-76489478D01*
X77603733Y-76710000D01*
X78742000Y-76710000D01*
X78742000Y-75572423D01*
X78521479Y-75452524D01*
X78133756Y-75613114D01*
X77721975Y-75986725D01*
X77484514Y-76489478D01*
X65154244Y-76489478D01*
X65154244Y-75431000D01*
X65057636Y-75093668D01*
X64887391Y-74912453D01*
X64660757Y-74810183D01*
X64412238Y-74802426D01*
X63592000Y-74939132D01*
X63592000Y-74170436D01*
X64311780Y-73450657D01*
X64384840Y-73401840D01*
X64578232Y-73112408D01*
X64611733Y-72943986D01*
X64629150Y-72986034D01*
X64804966Y-73161849D01*
X65034680Y-73257000D01*
X65377750Y-73257000D01*
X65534000Y-73100750D01*
X65534000Y-72334500D01*
X65784000Y-72334500D01*
X65784000Y-73100750D01*
X65940250Y-73257000D01*
X66283320Y-73257000D01*
X66513034Y-73161849D01*
X66688850Y-72986034D01*
X66784000Y-72756320D01*
X66784000Y-72490750D01*
X66627750Y-72334500D01*
X65784000Y-72334500D01*
X65534000Y-72334500D01*
X65514000Y-72334500D01*
X65514000Y-72084500D01*
X65534000Y-72084500D01*
X65534000Y-72064500D01*
X65784000Y-72064500D01*
X65784000Y-72084500D01*
X66627750Y-72084500D01*
X66784000Y-71928250D01*
X66784000Y-71662680D01*
X66688850Y-71432966D01*
X66513034Y-71257151D01*
X66480673Y-71243746D01*
X66609600Y-71157600D01*
X66747737Y-70950863D01*
X66796244Y-70707000D01*
X66796244Y-69862000D01*
X66747737Y-69618137D01*
X66609600Y-69411400D01*
X66534000Y-69360886D01*
X66534000Y-69068544D01*
X66824669Y-68777875D01*
X67034000Y-68272505D01*
X67034000Y-67725495D01*
X66824669Y-67220125D01*
X66534000Y-66929456D01*
X66534000Y-66507179D01*
X66551142Y-66421000D01*
X66483232Y-66079592D01*
X66381273Y-65927000D01*
X66289840Y-65790160D01*
X66216780Y-65741343D01*
X63224000Y-62748564D01*
X63224000Y-62337495D01*
X63014669Y-61832125D01*
X62837044Y-61654500D01*
X64711244Y-61654500D01*
X64784001Y-61703115D01*
X64784000Y-62049456D01*
X64493331Y-62340125D01*
X64284000Y-62845495D01*
X64284000Y-63392505D01*
X64493331Y-63897875D01*
X64880125Y-64284669D01*
X65385495Y-64494000D01*
X65932505Y-64494000D01*
X66437875Y-64284669D01*
X66824669Y-63897875D01*
X67034000Y-63392505D01*
X67034000Y-62845495D01*
X66824669Y-62340125D01*
X66534000Y-62049456D01*
X66534000Y-61703114D01*
X66609600Y-61652600D01*
X66747737Y-61445863D01*
X66796244Y-61202000D01*
X66796244Y-60357000D01*
X66747737Y-60113137D01*
X66609600Y-59906400D01*
X66480673Y-59820254D01*
X66513034Y-59806849D01*
X66688850Y-59631034D01*
X66784000Y-59401320D01*
X66784000Y-59135750D01*
X66627750Y-58979500D01*
X65784000Y-58979500D01*
X65784000Y-58999500D01*
X65534000Y-58999500D01*
X65534000Y-58979500D01*
X64690250Y-58979500D01*
X64534000Y-59135750D01*
X64534000Y-59401320D01*
X64629150Y-59631034D01*
X64804966Y-59806849D01*
X64837327Y-59820254D01*
X64711244Y-59904500D01*
X63110508Y-59904500D01*
X63014669Y-59673125D01*
X62627875Y-59286331D01*
X62122505Y-59077000D01*
X61575495Y-59077000D01*
X61082041Y-59281395D01*
X62055756Y-58307680D01*
X64534000Y-58307680D01*
X64534000Y-58573250D01*
X64690250Y-58729500D01*
X65534000Y-58729500D01*
X65534000Y-57963250D01*
X65784000Y-57963250D01*
X65784000Y-58729500D01*
X66627750Y-58729500D01*
X66784000Y-58573250D01*
X66784000Y-58307680D01*
X66688850Y-58077966D01*
X66513034Y-57902151D01*
X66283320Y-57807000D01*
X65940250Y-57807000D01*
X65784000Y-57963250D01*
X65534000Y-57963250D01*
X65377750Y-57807000D01*
X65034680Y-57807000D01*
X64804966Y-57902151D01*
X64629150Y-58077966D01*
X64534000Y-58307680D01*
X62055756Y-58307680D01*
X65327780Y-55035657D01*
X65400840Y-54986840D01*
X65594232Y-54697408D01*
X65645000Y-54442179D01*
X65662142Y-54356001D01*
X65645000Y-54269823D01*
X65645000Y-51996544D01*
X65935669Y-51705875D01*
X66145000Y-51200505D01*
X66145000Y-50653495D01*
X65935669Y-50148125D01*
X65645000Y-49857456D01*
X65645000Y-47965177D01*
X65662142Y-47878999D01*
X65644565Y-47790635D01*
X65594232Y-47537592D01*
X65400840Y-47248160D01*
X65327775Y-47199339D01*
X65264000Y-47135565D01*
X65264000Y-44812436D01*
X65368946Y-44707490D01*
X65642125Y-44980669D01*
X66147495Y-45190000D01*
X66694505Y-45190000D01*
X67199875Y-44980669D01*
X67473054Y-44707490D01*
X67959001Y-45193438D01*
X67959000Y-54523821D01*
X67959000Y-55285822D01*
X67941858Y-55372000D01*
X67959000Y-55458178D01*
X67959000Y-55458179D01*
X68009769Y-55713408D01*
X68203161Y-56002840D01*
X68276221Y-56051657D01*
X73488343Y-61263780D01*
X73537160Y-61336840D01*
X73826592Y-61530232D01*
X74081821Y-61581000D01*
X74167999Y-61598142D01*
X74254177Y-61581000D01*
X78885564Y-61581000D01*
X79389001Y-62084438D01*
X79389000Y-74081822D01*
X79371858Y-74168000D01*
X79389000Y-74254178D01*
X79439768Y-74509407D01*
X79633160Y-74798840D01*
X79706223Y-74847659D01*
X80532001Y-75673437D01*
X80532001Y-75705824D01*
X80379633Y-75807633D01*
X80114707Y-76204123D01*
X80012025Y-75986725D01*
X79600244Y-75613114D01*
X79212521Y-75452524D01*
X78992000Y-75572423D01*
X78992000Y-76710000D01*
X79012000Y-76710000D01*
X79012000Y-76960000D01*
X78992000Y-76960000D01*
X78992000Y-78097577D01*
X79212521Y-78217476D01*
X79600244Y-78056886D01*
X80012025Y-77683275D01*
X80114707Y-77465877D01*
X80379633Y-77862367D01*
X80850993Y-78177320D01*
X81266652Y-78260000D01*
X81547348Y-78260000D01*
X81963007Y-78177320D01*
X82434367Y-77862367D01*
X82749320Y-77391007D01*
X82859917Y-76835000D01*
X82749320Y-76278993D01*
X82434367Y-75807633D01*
X82282000Y-75705825D01*
X82282000Y-75397177D01*
X82299142Y-75310999D01*
X82235735Y-74992232D01*
X82231232Y-74969592D01*
X82037840Y-74680160D01*
X81964780Y-74631343D01*
X81139000Y-73805564D01*
X81139000Y-73740436D01*
X87624001Y-80225438D01*
X87624001Y-80659885D01*
X87548400Y-80710400D01*
X87410263Y-80917137D01*
X87361756Y-81161000D01*
X87361756Y-82161000D01*
X87410263Y-82404863D01*
X87548400Y-82611600D01*
X87624000Y-82662114D01*
X87624001Y-84360249D01*
X87568400Y-84397400D01*
X87430263Y-84604137D01*
X87381756Y-84848000D01*
X87381756Y-85693000D01*
X87430263Y-85936863D01*
X87568400Y-86143600D01*
X87702197Y-86233000D01*
X87568400Y-86322400D01*
X87430263Y-86529137D01*
X87381756Y-86773000D01*
X87381756Y-87468443D01*
X83835000Y-87439323D01*
X83835000Y-86094179D01*
X83852142Y-86008000D01*
X83784232Y-85666592D01*
X83774936Y-85652680D01*
X83590840Y-85377160D01*
X83517780Y-85328343D01*
X82844244Y-84654807D01*
X82844244Y-83655000D01*
X82795737Y-83411137D01*
X82657600Y-83204400D01*
X82450863Y-83066263D01*
X82207000Y-83017756D01*
X80607000Y-83017756D01*
X80363137Y-83066263D01*
X80156400Y-83204400D01*
X80018263Y-83411137D01*
X79987313Y-83566736D01*
X79894367Y-83427633D01*
X79423007Y-83112680D01*
X79007348Y-83030000D01*
X78726652Y-83030000D01*
X78310993Y-83112680D01*
X77839633Y-83427633D01*
X77524680Y-83898993D01*
X77414083Y-84455000D01*
X77461709Y-84694433D01*
X77461269Y-84695092D01*
X77393358Y-85036500D01*
X77410501Y-85122682D01*
X77410500Y-86428243D01*
X77274263Y-86632137D01*
X77225756Y-86876000D01*
X77225756Y-87385059D01*
X76001026Y-87375004D01*
X75953114Y-87384126D01*
X75912340Y-87410889D01*
X75884912Y-87451218D01*
X75875000Y-87500000D01*
X75875000Y-91875000D01*
X45324611Y-91875000D01*
X46053398Y-91573127D01*
X47073127Y-90553398D01*
X47625000Y-89221057D01*
X47625000Y-87778943D01*
X47300281Y-86995000D01*
X64587083Y-86995000D01*
X64697680Y-87551007D01*
X65012633Y-88022367D01*
X65151736Y-88115313D01*
X64996137Y-88146263D01*
X64789400Y-88284400D01*
X64651263Y-88491137D01*
X64602756Y-88735000D01*
X64602756Y-90335000D01*
X64651263Y-90578863D01*
X64789400Y-90785600D01*
X64996137Y-90923737D01*
X65240000Y-90972244D01*
X66840000Y-90972244D01*
X67083863Y-90923737D01*
X67290600Y-90785600D01*
X67428737Y-90578863D01*
X67477244Y-90335000D01*
X67477244Y-88735000D01*
X67428737Y-88491137D01*
X67290600Y-88284400D01*
X67083863Y-88146263D01*
X66928264Y-88115313D01*
X67067367Y-88022367D01*
X67382320Y-87551007D01*
X67492917Y-86995000D01*
X72207083Y-86995000D01*
X72317680Y-87551007D01*
X72632633Y-88022367D01*
X72995759Y-88265000D01*
X72632633Y-88507633D01*
X72317680Y-88978993D01*
X72207083Y-89535000D01*
X72317680Y-90091007D01*
X72632633Y-90562367D01*
X73103993Y-90877320D01*
X73519652Y-90960000D01*
X73800348Y-90960000D01*
X74216007Y-90877320D01*
X74687367Y-90562367D01*
X75002320Y-90091007D01*
X75112917Y-89535000D01*
X75002320Y-88978993D01*
X74687367Y-88507633D01*
X74324241Y-88265000D01*
X74687367Y-88022367D01*
X75002320Y-87551007D01*
X75112917Y-86995000D01*
X75002320Y-86438993D01*
X74687367Y-85967633D01*
X74216007Y-85652680D01*
X73800348Y-85570000D01*
X73519652Y-85570000D01*
X73103993Y-85652680D01*
X72632633Y-85967633D01*
X72317680Y-86438993D01*
X72207083Y-86995000D01*
X67492917Y-86995000D01*
X67382320Y-86438993D01*
X67067367Y-85967633D01*
X66596007Y-85652680D01*
X66180348Y-85570000D01*
X65899652Y-85570000D01*
X65483993Y-85652680D01*
X65012633Y-85967633D01*
X64697680Y-86438993D01*
X64587083Y-86995000D01*
X47300281Y-86995000D01*
X47073127Y-86446602D01*
X46053398Y-85426873D01*
X45173417Y-85062373D01*
X50637946Y-85062373D01*
X50882185Y-85583497D01*
X51307258Y-85971487D01*
X51716628Y-86141045D01*
X51945000Y-86021812D01*
X51945000Y-84834000D01*
X50756547Y-84834000D01*
X50637946Y-85062373D01*
X45173417Y-85062373D01*
X44721057Y-84875000D01*
X43278943Y-84875000D01*
X41946602Y-85426873D01*
X40926873Y-86446602D01*
X40375000Y-87778943D01*
X40375000Y-89221057D01*
X40926873Y-90553398D01*
X41946602Y-91573127D01*
X42675389Y-91875000D01*
X39625000Y-91875000D01*
X39625000Y-84355627D01*
X50637946Y-84355627D01*
X50756547Y-84584000D01*
X51945000Y-84584000D01*
X51945000Y-83396188D01*
X51716628Y-83276955D01*
X51307258Y-83446513D01*
X50882185Y-83834503D01*
X50637946Y-84355627D01*
X39625000Y-84355627D01*
X39625000Y-80128821D01*
X40577955Y-80128821D01*
X40719790Y-80429444D01*
X41452365Y-80713460D01*
X42237865Y-80695512D01*
X42880210Y-80429444D01*
X43022045Y-80128821D01*
X41800000Y-78906777D01*
X40577955Y-80128821D01*
X39625000Y-80128821D01*
X39625000Y-78382365D01*
X39816540Y-78382365D01*
X39834488Y-79167865D01*
X40100556Y-79810210D01*
X40401179Y-79952045D01*
X41623223Y-78730000D01*
X41976777Y-78730000D01*
X43198821Y-79952045D01*
X43499444Y-79810210D01*
X43783460Y-79077635D01*
X43765512Y-78292135D01*
X43499444Y-77649790D01*
X43198821Y-77507955D01*
X41976777Y-78730000D01*
X41623223Y-78730000D01*
X40401179Y-77507955D01*
X40100556Y-77649790D01*
X39816540Y-78382365D01*
X39625000Y-78382365D01*
X39625000Y-77331179D01*
X40577955Y-77331179D01*
X41800000Y-78553223D01*
X43022045Y-77331179D01*
X42880210Y-77030556D01*
X42147635Y-76746540D01*
X41362135Y-76764488D01*
X40719790Y-77030556D01*
X40577955Y-77331179D01*
X39625000Y-77331179D01*
X39625000Y-74972023D01*
X43704754Y-74972023D01*
X43774354Y-75211429D01*
X44293183Y-75396907D01*
X44843500Y-75369720D01*
X45225646Y-75211429D01*
X45295246Y-74972023D01*
X44500000Y-74176777D01*
X43704754Y-74972023D01*
X39625000Y-74972023D01*
X39625000Y-73793183D01*
X43103093Y-73793183D01*
X43130280Y-74343500D01*
X43288571Y-74725646D01*
X43527977Y-74795246D01*
X44323223Y-74000000D01*
X43527977Y-73204754D01*
X43288571Y-73274354D01*
X43103093Y-73793183D01*
X39625000Y-73793183D01*
X39625000Y-68128821D01*
X40577955Y-68128821D01*
X40719790Y-68429444D01*
X41452365Y-68713460D01*
X42237865Y-68695512D01*
X42880210Y-68429444D01*
X43022045Y-68128821D01*
X41800000Y-66906777D01*
X40577955Y-68128821D01*
X39625000Y-68128821D01*
X39625000Y-66382365D01*
X39816540Y-66382365D01*
X39834488Y-67167865D01*
X40100556Y-67810210D01*
X40401179Y-67952045D01*
X41623223Y-66730000D01*
X41976777Y-66730000D01*
X43198821Y-67952045D01*
X43499444Y-67810210D01*
X43783460Y-67077635D01*
X43765512Y-66292135D01*
X43499444Y-65649790D01*
X43198821Y-65507955D01*
X41976777Y-66730000D01*
X41623223Y-66730000D01*
X40401179Y-65507955D01*
X40100556Y-65649790D01*
X39816540Y-66382365D01*
X39625000Y-66382365D01*
X39625000Y-65331179D01*
X40577955Y-65331179D01*
X41800000Y-66553223D01*
X43022045Y-65331179D01*
X42880210Y-65030556D01*
X42147635Y-64746540D01*
X41362135Y-64764488D01*
X40719790Y-65030556D01*
X40577955Y-65331179D01*
X39625000Y-65331179D01*
X39625000Y-59437855D01*
X43075000Y-59437855D01*
X43075000Y-60482145D01*
X43474632Y-61446943D01*
X44213057Y-62185368D01*
X45177855Y-62585000D01*
X46222145Y-62585000D01*
X47186943Y-62185368D01*
X47925368Y-61446943D01*
X48325000Y-60482145D01*
X48325000Y-59437855D01*
X47925368Y-58473057D01*
X47186943Y-57734632D01*
X46222145Y-57335000D01*
X45177855Y-57335000D01*
X44213057Y-57734632D01*
X43474632Y-58473057D01*
X43075000Y-59437855D01*
X39625000Y-59437855D01*
X39625000Y-41703627D01*
X44563284Y-41703627D01*
X44589845Y-42269905D01*
X44755450Y-42669709D01*
X44999000Y-42744223D01*
X45823223Y-41920000D01*
X46176777Y-41920000D01*
X47001000Y-42744223D01*
X47244550Y-42669709D01*
X47436716Y-42136373D01*
X47410155Y-41570095D01*
X47244550Y-41170291D01*
X47001000Y-41095777D01*
X46176777Y-41920000D01*
X45823223Y-41920000D01*
X44999000Y-41095777D01*
X44755450Y-41170291D01*
X44563284Y-41703627D01*
X39625000Y-41703627D01*
X39625000Y-40919000D01*
X45175777Y-40919000D01*
X46000000Y-41743223D01*
X46824223Y-40919000D01*
X46749709Y-40675450D01*
X46216373Y-40483284D01*
X45650095Y-40509845D01*
X45250291Y-40675450D01*
X45175777Y-40919000D01*
X39625000Y-40919000D01*
X39625000Y-34437855D01*
X43075000Y-34437855D01*
X43075000Y-35482145D01*
X43474632Y-36446943D01*
X44213057Y-37185368D01*
X45177855Y-37585000D01*
X46222145Y-37585000D01*
X47186943Y-37185368D01*
X47925368Y-36446943D01*
X48325000Y-35482145D01*
X48325000Y-34437855D01*
X47925368Y-33473057D01*
X47186943Y-32734632D01*
X46222145Y-32335000D01*
X45177855Y-32335000D01*
X44213057Y-32734632D01*
X43474632Y-33473057D01*
X43075000Y-34437855D01*
X39625000Y-34437855D01*
X39625000Y-26278943D01*
X40375000Y-26278943D01*
X40375000Y-27721057D01*
X40926873Y-29053398D01*
X41946602Y-30073127D01*
X43278943Y-30625000D01*
X44721057Y-30625000D01*
X46053398Y-30073127D01*
X47073127Y-29053398D01*
X47625000Y-27721057D01*
X47625000Y-26278943D01*
X47535243Y-26062250D01*
X50722000Y-26062250D01*
X50722000Y-26755320D01*
X50817150Y-26985034D01*
X50992966Y-27160849D01*
X51222680Y-27256000D01*
X51915750Y-27256000D01*
X52072000Y-27099750D01*
X52072000Y-25906000D01*
X50878250Y-25906000D01*
X50722000Y-26062250D01*
X47535243Y-26062250D01*
X47073127Y-24946602D01*
X46933205Y-24806680D01*
X50722000Y-24806680D01*
X50722000Y-25499750D01*
X50878250Y-25656000D01*
X52072000Y-25656000D01*
X52072000Y-24462250D01*
X52322000Y-24462250D01*
X52322000Y-25656000D01*
X52342000Y-25656000D01*
X52342000Y-25906000D01*
X52322000Y-25906000D01*
X52322000Y-27099750D01*
X52478250Y-27256000D01*
X53171320Y-27256000D01*
X53401034Y-27160849D01*
X53576850Y-26985034D01*
X53649825Y-26808856D01*
X53673585Y-26844415D01*
X53862001Y-26970310D01*
X53862000Y-28521456D01*
X53571331Y-28812125D01*
X53362000Y-29317495D01*
X53362000Y-29864505D01*
X53571331Y-30369875D01*
X53958125Y-30756669D01*
X54463495Y-30966000D01*
X55010505Y-30966000D01*
X55515875Y-30756669D01*
X55902669Y-30369875D01*
X56007000Y-30117998D01*
X56111331Y-30369875D01*
X56498125Y-30756669D01*
X57003495Y-30966000D01*
X57550505Y-30966000D01*
X58055875Y-30756669D01*
X58442669Y-30369875D01*
X58652000Y-29864505D01*
X58652000Y-29317495D01*
X58442669Y-28812125D01*
X58152000Y-28521456D01*
X58152000Y-26970310D01*
X58340415Y-26844415D01*
X58666419Y-26356516D01*
X58780896Y-25781000D01*
X58666419Y-25205484D01*
X58340415Y-24717585D01*
X57852516Y-24391581D01*
X57422270Y-24306000D01*
X57131730Y-24306000D01*
X56701484Y-24391581D01*
X56213585Y-24717585D01*
X56007000Y-25026761D01*
X55800415Y-24717585D01*
X55312516Y-24391581D01*
X54882270Y-24306000D01*
X54591730Y-24306000D01*
X54161484Y-24391581D01*
X53673585Y-24717585D01*
X53649825Y-24753144D01*
X53576850Y-24576966D01*
X53401034Y-24401151D01*
X53171320Y-24306000D01*
X52478250Y-24306000D01*
X52322000Y-24462250D01*
X52072000Y-24462250D01*
X51915750Y-24306000D01*
X51222680Y-24306000D01*
X50992966Y-24401151D01*
X50817150Y-24576966D01*
X50722000Y-24806680D01*
X46933205Y-24806680D01*
X46053398Y-23926873D01*
X44721057Y-23375000D01*
X43278943Y-23375000D01*
X41946602Y-23926873D01*
X40926873Y-24946602D01*
X40375000Y-26278943D01*
X39625000Y-26278943D01*
X39625000Y-23124952D01*
X73408000Y-23112048D01*
X73408000Y-24544802D01*
G36*
X57089061Y-63627000D02*
G01*
X56896000Y-63755999D01*
X56702939Y-63627000D01*
X56896000Y-63498001D01*
X57089061Y-63627000D01*
X57089061Y-63627000D01*
G37*
X57089061Y-63627000D02*
X56896000Y-63755999D01*
X56702939Y-63627000D01*
X56896000Y-63498001D01*
X57089061Y-63627000D01*
M02*
