G04 #@! TF.GenerationSoftware,KiCad,Pcbnew,6.0.0-rc1-unknown*
G04 #@! TF.CreationDate,2019-01-01T14:04:30+03:00
G04 #@! TF.ProjectId,socket,736f636b-6574-42e6-9b69-6361645f7063,rev?*
G04 #@! TF.SameCoordinates,Original*
G04 #@! TF.FileFunction,Copper,L1,Top*
G04 #@! TF.FilePolarity,Positive*
%FSLAX46Y46*%
G04 Gerber Fmt 4.6, Leading zero omitted, Abs format (unit mm)*
G04 Created by KiCad (PCBNEW 6.0.0-rc1-unknown) date Вт 01 янв 2019 14:04:30*
%MOMM*%
%LPD*%
G04 APERTURE LIST*
%ADD10C,0.150000*%
%ADD11R,0.845000X1.000000*%
%ADD12R,1.000000X0.845000*%
%ADD13R,1.800000X1.800000*%
%ADD14O,1.800000X1.800000*%
%ADD15C,1.520000*%
%ADD16C,2.700000*%
%ADD17R,1.700000X1.700000*%
%ADD18O,1.700000X1.700000*%
%ADD19R,1.846667X3.480000*%
%ADD20R,3.960000X1.980000*%
%ADD21O,3.960000X1.980000*%
%ADD22C,2.500000*%
%ADD23C,3.000000*%
%ADD24R,1.900000X0.800000*%
%ADD25R,0.600000X1.500000*%
%ADD26R,0.400000X1.000000*%
%ADD27R,1.600000X1.600000*%
%ADD28O,1.600000X1.600000*%
%ADD29C,1.500000*%
%ADD30C,1.600000*%
%ADD31C,4.000000*%
%ADD32C,6.000000*%
%ADD33R,1.500000X1.145000*%
%ADD34R,1.145000X1.500000*%
%ADD35R,1.800000X2.500000*%
%ADD36C,2.400000*%
%ADD37O,2.400000X2.400000*%
%ADD38R,1.700000X2.000000*%
%ADD39C,0.500000*%
%ADD40C,0.250000*%
%ADD41C,2.000000*%
G04 APERTURE END LIST*
D10*
X125500000Y-93000000D02*
X38500000Y-93000000D01*
X38500000Y-22000000D02*
X125500000Y-22000000D01*
X125500000Y-22000000D02*
X125500000Y-93000000D01*
X38500000Y-22000000D02*
X38500000Y-93000000D01*
D11*
X53774500Y-62357000D03*
X55699500Y-62357000D03*
X54302500Y-44577000D03*
X52377500Y-44577000D03*
X61668500Y-48641000D03*
X59743500Y-48641000D03*
D12*
X63246000Y-49603500D03*
X63246000Y-47678500D03*
D13*
X99441000Y-43053000D03*
D14*
X99441000Y-40513000D03*
X99441000Y-37973000D03*
D13*
X107500000Y-70500000D03*
D14*
X107500000Y-67960000D03*
X107500000Y-65420000D03*
D15*
X46500000Y-71460000D03*
X46500000Y-74000000D03*
X44500000Y-74000000D03*
X44500000Y-71460000D03*
D16*
X41800000Y-66730000D03*
X41800000Y-78730000D03*
D17*
X54610000Y-84709000D03*
D18*
X52070000Y-84709000D03*
D17*
X52197000Y-25781000D03*
D18*
X54737000Y-25781000D03*
X57277000Y-25781000D03*
D19*
X78805000Y-91000000D03*
X81575000Y-91000000D03*
X84345000Y-91000000D03*
X87115000Y-91000000D03*
X89885000Y-91000000D03*
X92655000Y-91000000D03*
X95425000Y-91000000D03*
X98195000Y-91000000D03*
D20*
X117500000Y-34500000D03*
D21*
X117500000Y-39500000D03*
X117500000Y-44500000D03*
D20*
X117500000Y-70500000D03*
D21*
X117500000Y-75500000D03*
X117500000Y-80500000D03*
D22*
X76425000Y-34145000D03*
D23*
X76425000Y-46345000D03*
X88475000Y-46395000D03*
D22*
X88425000Y-34145000D03*
D23*
X82475000Y-32195000D03*
D22*
X85136000Y-57068000D03*
D23*
X85136000Y-69268000D03*
X97186000Y-69318000D03*
D22*
X97136000Y-57068000D03*
D23*
X91186000Y-55118000D03*
D24*
X69064000Y-77531000D03*
X69064000Y-75631000D03*
X66064000Y-76581000D03*
X59968000Y-86045000D03*
X59968000Y-87945000D03*
X62968000Y-86995000D03*
X95274000Y-76393000D03*
X95274000Y-78293000D03*
X98274000Y-77343000D03*
X92607000Y-83632000D03*
X92607000Y-85532000D03*
X95607000Y-84582000D03*
D11*
X59997500Y-83820000D03*
X61922500Y-83820000D03*
D12*
X73787000Y-77543500D03*
X73787000Y-75618500D03*
X57277000Y-35613500D03*
X57277000Y-37538500D03*
X68199000Y-82857500D03*
X68199000Y-84782500D03*
X68199000Y-89481500D03*
X68199000Y-87556500D03*
D11*
X90624500Y-76327000D03*
X88699500Y-76327000D03*
D12*
X92583000Y-82115500D03*
X92583000Y-80190500D03*
D25*
X51943000Y-58580000D03*
X53213000Y-58580000D03*
X54483000Y-58580000D03*
X55753000Y-58580000D03*
X57023000Y-58580000D03*
X58293000Y-58580000D03*
X59563000Y-58580000D03*
X60833000Y-58580000D03*
X60833000Y-53180000D03*
X59563000Y-53180000D03*
X58293000Y-53180000D03*
X57023000Y-53180000D03*
X55753000Y-53180000D03*
X54483000Y-53180000D03*
X53213000Y-53180000D03*
X51943000Y-53180000D03*
D26*
X57273000Y-45953000D03*
X57923000Y-45953000D03*
X58573000Y-45953000D03*
X59223000Y-45953000D03*
X59873000Y-45953000D03*
X60523000Y-45953000D03*
X61173000Y-45953000D03*
X61823000Y-45953000D03*
X62473000Y-45953000D03*
X63123000Y-45953000D03*
X63123000Y-40153000D03*
X62473000Y-40153000D03*
X61823000Y-40153000D03*
X61173000Y-40153000D03*
X60523000Y-40153000D03*
X59873000Y-40153000D03*
X59223000Y-40153000D03*
X58573000Y-40153000D03*
X57923000Y-40153000D03*
X57273000Y-40153000D03*
D27*
X81407000Y-84455000D03*
D28*
X78867000Y-76835000D03*
X78867000Y-84455000D03*
X81407000Y-76835000D03*
D27*
X66040000Y-82931000D03*
D28*
X73660000Y-80391000D03*
X66040000Y-80391000D03*
X73660000Y-82931000D03*
D27*
X66040000Y-89535000D03*
D28*
X73660000Y-86995000D03*
X66040000Y-86995000D03*
X73660000Y-89535000D03*
D27*
X103378000Y-25781000D03*
D28*
X98298000Y-33401000D03*
X100838000Y-25781000D03*
X100838000Y-33401000D03*
X98298000Y-25781000D03*
X103378000Y-33401000D03*
D27*
X120000000Y-54000000D03*
D28*
X114920000Y-61620000D03*
X117460000Y-54000000D03*
X117460000Y-61620000D03*
X114920000Y-54000000D03*
X120000000Y-61620000D03*
D29*
X65659000Y-63119000D03*
X65659000Y-67999000D03*
D27*
X46000000Y-53000000D03*
D30*
X46000000Y-50230000D03*
X46000000Y-47460000D03*
X46000000Y-44690000D03*
X46000000Y-41920000D03*
X43160000Y-51615000D03*
X43160000Y-48845000D03*
X43160000Y-46075000D03*
X43160000Y-43305000D03*
D31*
X45700000Y-34960000D03*
X45700000Y-59960000D03*
D12*
X59563000Y-34998500D03*
X59563000Y-33073500D03*
D32*
X44000000Y-27000000D03*
X44000000Y-88500000D03*
X119000000Y-88500000D03*
X119000000Y-27000000D03*
D24*
X74827000Y-25085000D03*
X74827000Y-26985000D03*
X77827000Y-26035000D03*
D33*
X71501000Y-77623500D03*
X71501000Y-75538500D03*
D34*
X57123500Y-81788000D03*
X59208500Y-81788000D03*
D33*
X92710000Y-76173500D03*
X92710000Y-78258500D03*
X90043000Y-83666500D03*
X90043000Y-85751500D03*
D11*
X66240500Y-25146000D03*
X64315500Y-25146000D03*
D33*
X72136000Y-27204500D03*
X72136000Y-25119500D03*
D11*
X69923500Y-34417000D03*
X67998500Y-34417000D03*
D35*
X63500000Y-57753000D03*
X63500000Y-53753000D03*
D30*
X108500000Y-80500000D03*
X108500000Y-85500000D03*
X121856500Y-49530000D03*
X116856500Y-49530000D03*
D36*
X114109500Y-49530000D03*
D37*
X114109500Y-24130000D03*
D36*
X112903000Y-90551000D03*
D37*
X112903000Y-65151000D03*
D38*
X95000000Y-42000000D03*
X95000000Y-38000000D03*
X103000000Y-69000000D03*
X103000000Y-65000000D03*
D29*
X62357000Y-31750000D03*
X62357000Y-28829000D03*
X65659000Y-46355000D03*
X93091000Y-49149000D03*
X68580000Y-73660000D03*
X57150000Y-88011000D03*
X50165000Y-58293000D03*
X61849000Y-62611000D03*
X61849000Y-60452000D03*
X54737000Y-29591000D03*
X86614000Y-28575000D03*
X90297000Y-28702000D03*
X63627000Y-82042000D03*
X64770000Y-50927000D03*
X60071000Y-71501000D03*
X60071000Y-69596000D03*
X57277000Y-29591000D03*
X105664000Y-50800000D03*
X67183000Y-40767000D03*
X62230000Y-25273000D03*
X64389000Y-33020000D03*
X62865000Y-34671000D03*
X75946000Y-54102000D03*
X62738000Y-51181000D03*
X55880000Y-46101000D03*
X67183000Y-38862000D03*
X66421000Y-43815000D03*
X100838000Y-23495000D03*
X106172000Y-54864000D03*
D39*
X59563000Y-33073500D02*
X59563000Y-32766000D01*
X59563000Y-32766000D02*
X60579000Y-31750000D01*
X60579000Y-31750000D02*
X62357000Y-31750000D01*
X62357000Y-28829000D02*
X60579000Y-27051000D01*
X60579000Y-27051000D02*
X60579000Y-26924000D01*
X90297000Y-50165000D02*
X92075000Y-50165000D01*
X92075000Y-50165000D02*
X93091000Y-49149000D01*
X59743500Y-49847500D02*
X63002000Y-49847500D01*
X63002000Y-49847500D02*
X63246000Y-49603500D01*
X72136000Y-47117000D02*
X72136000Y-47244000D01*
X72136000Y-47244000D02*
X75057000Y-50165000D01*
D40*
X61173000Y-45126000D02*
X61849000Y-44450000D01*
X61849000Y-44450000D02*
X62230000Y-44450000D01*
D39*
X63754000Y-44450000D02*
X62230000Y-44450000D01*
X65659000Y-46355000D02*
X63754000Y-44450000D01*
D40*
X61173000Y-45953000D02*
X61173000Y-45126000D01*
D39*
X90043000Y-85751500D02*
X92387500Y-85751500D01*
X92387500Y-85751500D02*
X92607000Y-85532000D01*
X90297000Y-50165000D02*
X75057000Y-50165000D01*
X74827000Y-26985000D02*
X72355500Y-26985000D01*
X72355500Y-26985000D02*
X72136000Y-27204500D01*
X92710000Y-78258500D02*
X95239500Y-78258500D01*
X95239500Y-78258500D02*
X95274000Y-78293000D01*
X69064000Y-75631000D02*
X71408500Y-75631000D01*
X71408500Y-75631000D02*
X71501000Y-75538500D01*
X71755000Y-26924000D02*
X63119000Y-26924000D01*
X72136000Y-27305000D02*
X71755000Y-26924000D01*
X72136000Y-47117000D02*
X72136000Y-27305000D01*
X50863500Y-43497500D02*
X50863500Y-29781500D01*
X50863500Y-29781500D02*
X52578000Y-28067000D01*
X52578000Y-28067000D02*
X58928000Y-28067000D01*
X58928000Y-28067000D02*
X60071000Y-26924000D01*
X60071000Y-26924000D02*
X60579000Y-26924000D01*
X60579000Y-26924000D02*
X63119000Y-26924000D01*
X52377500Y-44577000D02*
X51943000Y-44577000D01*
X43561000Y-40005000D02*
X41402000Y-42164000D01*
X47371000Y-40005000D02*
X43561000Y-40005000D01*
X51943000Y-44577000D02*
X50863500Y-43497500D01*
X50863500Y-43497500D02*
X47371000Y-40005000D01*
X53774500Y-62357000D02*
X48768000Y-62357000D01*
X41402000Y-60198000D02*
X41402000Y-42164000D01*
X44450000Y-63246000D02*
X41402000Y-60198000D01*
X47879000Y-63246000D02*
X44450000Y-63246000D01*
X48768000Y-62357000D02*
X47879000Y-63246000D01*
X53774500Y-62357000D02*
X53774500Y-67744500D01*
X57150000Y-71120000D02*
X57150000Y-88011000D01*
X53774500Y-67744500D02*
X57150000Y-71120000D01*
X69064000Y-74144000D02*
X69064000Y-75631000D01*
X68580000Y-73660000D02*
X69064000Y-74144000D01*
X57216000Y-87945000D02*
X59968000Y-87945000D01*
X57150000Y-88011000D02*
X57216000Y-87945000D01*
X50452000Y-58580000D02*
X51943000Y-58580000D01*
X50165000Y-58293000D02*
X50452000Y-58580000D01*
X59743500Y-48641000D02*
X59743500Y-49847500D01*
D40*
X61173000Y-45953000D02*
X61173000Y-47158000D01*
X59743500Y-47825500D02*
X59743500Y-48641000D01*
X59944000Y-47625000D02*
X59743500Y-47825500D01*
X60706000Y-47625000D02*
X59944000Y-47625000D01*
X61173000Y-47158000D02*
X60706000Y-47625000D01*
X92607000Y-85532000D02*
X93284000Y-85532000D01*
X93284000Y-85532000D02*
X94107000Y-84709000D01*
X95274000Y-79351000D02*
X95274000Y-78293000D01*
X94107000Y-80518000D02*
X95274000Y-79351000D01*
X94107000Y-84709000D02*
X94107000Y-80518000D01*
D39*
X92607000Y-85532000D02*
X92607000Y-90952000D01*
X92607000Y-90952000D02*
X92655000Y-91000000D01*
D40*
X59563000Y-58580000D02*
X59563000Y-60325000D01*
X59563000Y-60325000D02*
X61849000Y-62611000D01*
X60833000Y-58580000D02*
X60833000Y-59436000D01*
X60833000Y-59436000D02*
X61849000Y-60452000D01*
D39*
X55753000Y-58580000D02*
X55753000Y-62303500D01*
X55753000Y-62303500D02*
X55699500Y-62357000D01*
D40*
X54302500Y-44577000D02*
X56769000Y-44577000D01*
D39*
X56007000Y-43815000D02*
X54610000Y-42418000D01*
D40*
X59223000Y-44999000D02*
X58801000Y-44577000D01*
X58801000Y-44577000D02*
X56769000Y-44577000D01*
X56769000Y-44577000D02*
X56007000Y-43815000D01*
X59223000Y-45953000D02*
X59223000Y-44999000D01*
D39*
X54610000Y-29718000D02*
X54737000Y-29591000D01*
X54610000Y-42418000D02*
X54610000Y-29718000D01*
D40*
X61823000Y-45953000D02*
X61823000Y-48486500D01*
X61823000Y-48486500D02*
X61668500Y-48641000D01*
D39*
X90170000Y-28575000D02*
X86614000Y-28575000D01*
X90297000Y-28702000D02*
X90170000Y-28575000D01*
X64770000Y-50927000D02*
X65024000Y-50927000D01*
D40*
X65913000Y-55753000D02*
X62865000Y-55753000D01*
D39*
X66167000Y-55499000D02*
X65913000Y-55753000D01*
X66167000Y-52070000D02*
X66167000Y-55499000D01*
X65024000Y-50927000D02*
X66167000Y-52070000D01*
X63246000Y-47678500D02*
X63807500Y-47678500D01*
X63807500Y-47678500D02*
X64770000Y-48641000D01*
X51943000Y-53180000D02*
X51943000Y-54610000D01*
X53086000Y-55753000D02*
X60960000Y-55753000D01*
X51943000Y-54610000D02*
X53086000Y-55753000D01*
D40*
X62865000Y-55753000D02*
X60960000Y-55753000D01*
D39*
X64770000Y-50927000D02*
X64770000Y-48641000D01*
X68199000Y-84782500D02*
X64462500Y-84782500D01*
X63627000Y-83947000D02*
X63627000Y-82042000D01*
X64462500Y-84782500D02*
X63627000Y-83947000D01*
X68199000Y-87556500D02*
X68199000Y-84782500D01*
D40*
X62473000Y-45953000D02*
X62473000Y-46905500D01*
X62473000Y-46905500D02*
X63246000Y-47678500D01*
D39*
X60071000Y-71501000D02*
X60706000Y-71501000D01*
X58293000Y-61849000D02*
X58293000Y-58580000D01*
X61595000Y-65151000D02*
X58293000Y-61849000D01*
X61595000Y-70612000D02*
X61595000Y-65151000D01*
X60706000Y-71501000D02*
X61595000Y-70612000D01*
X60071000Y-69596000D02*
X60071000Y-65405000D01*
X60071000Y-65405000D02*
X57023000Y-62357000D01*
X57023000Y-62357000D02*
X57023000Y-58580000D01*
X99441000Y-43053000D02*
X96053000Y-43053000D01*
X96053000Y-43053000D02*
X95000000Y-42000000D01*
X95000000Y-38000000D02*
X99414000Y-38000000D01*
X99414000Y-38000000D02*
X99441000Y-37973000D01*
X103000000Y-65000000D02*
X107080000Y-65000000D01*
X107080000Y-65000000D02*
X107500000Y-65420000D01*
X55753000Y-40894000D02*
X55753000Y-32639000D01*
D40*
X58573000Y-41122000D02*
X58166000Y-41529000D01*
X58166000Y-41529000D02*
X56388000Y-41529000D01*
X56388000Y-41529000D02*
X55753000Y-40894000D01*
X58573000Y-40153000D02*
X58573000Y-41122000D01*
D39*
X57277000Y-31115000D02*
X57277000Y-29591000D01*
X55753000Y-32639000D02*
X57277000Y-31115000D01*
X78805000Y-91000000D02*
X75125000Y-91000000D01*
X75125000Y-91000000D02*
X73660000Y-89535000D01*
X73660000Y-86995000D02*
X80518000Y-86995000D01*
X81575000Y-88052000D02*
X81575000Y-91000000D01*
X80518000Y-86995000D02*
X81575000Y-88052000D01*
X73660000Y-82931000D02*
X74295000Y-82931000D01*
X74295000Y-82931000D02*
X75438000Y-81788000D01*
X84328000Y-85979000D02*
X84345000Y-85979000D01*
X84328000Y-83439000D02*
X84328000Y-85979000D01*
X82677000Y-81788000D02*
X84328000Y-83439000D01*
X75438000Y-81788000D02*
X82677000Y-81788000D01*
X84345000Y-85979000D02*
X84345000Y-91000000D01*
X73660000Y-80391000D02*
X85344000Y-80391000D01*
X87115000Y-82162000D02*
X87115000Y-91000000D01*
X85344000Y-80391000D02*
X87115000Y-82162000D01*
X95425000Y-91000000D02*
X95425000Y-84764000D01*
X95425000Y-84764000D02*
X95607000Y-84582000D01*
X98195000Y-91000000D02*
X98195000Y-77422000D01*
X98195000Y-77422000D02*
X98274000Y-77343000D01*
X69064000Y-77531000D02*
X71408500Y-77531000D01*
X71408500Y-77531000D02*
X71501000Y-77623500D01*
X69064000Y-77531000D02*
X73774500Y-77531000D01*
X73774500Y-77531000D02*
X73787000Y-77543500D01*
X66064000Y-76581000D02*
X66064000Y-80367000D01*
X66064000Y-80367000D02*
X66040000Y-80391000D01*
X59208500Y-81788000D02*
X59208500Y-83031000D01*
X59208500Y-83031000D02*
X59997500Y-83820000D01*
X59997500Y-83820000D02*
X59997500Y-86015500D01*
X59997500Y-86015500D02*
X59968000Y-86045000D01*
X62968000Y-86995000D02*
X66040000Y-86995000D01*
X95274000Y-76393000D02*
X92929500Y-76393000D01*
X92929500Y-76393000D02*
X92710000Y-76173500D01*
X90624500Y-76327000D02*
X95208000Y-76327000D01*
X95208000Y-76327000D02*
X95274000Y-76393000D01*
X90043000Y-83666500D02*
X92572500Y-83666500D01*
X92572500Y-83666500D02*
X92607000Y-83632000D01*
X92607000Y-83632000D02*
X92607000Y-82139500D01*
X92607000Y-82139500D02*
X92583000Y-82115500D01*
X70866000Y-61976000D02*
X70866000Y-55372000D01*
X70866000Y-55372000D02*
X66040000Y-50546000D01*
X70866000Y-61976000D02*
X70866000Y-70231000D01*
X63754000Y-72009000D02*
X69088000Y-72009000D01*
X69088000Y-72009000D02*
X70866000Y-70231000D01*
X66040000Y-50546000D02*
X66040000Y-48514000D01*
X63881000Y-46355000D02*
X63881000Y-45953000D01*
X66040000Y-48514000D02*
X63881000Y-46355000D01*
X61922500Y-83820000D02*
X61922500Y-73840500D01*
X61922500Y-73840500D02*
X63754000Y-72009000D01*
X61922500Y-83820000D02*
X61976000Y-83820000D01*
D40*
X63123000Y-45953000D02*
X63881000Y-45953000D01*
D39*
X66929000Y-50165000D02*
X71628000Y-54864000D01*
X71628000Y-54864000D02*
X71628000Y-60960000D01*
X73787000Y-75618500D02*
X73787000Y-74295000D01*
X73787000Y-74295000D02*
X71628000Y-72136000D01*
X71628000Y-72136000D02*
X71628000Y-60960000D01*
X66929000Y-50165000D02*
X66929000Y-45212000D01*
D40*
X60523000Y-44760000D02*
X60833000Y-44450000D01*
X60523000Y-45953000D02*
X60523000Y-44760000D01*
D39*
X65786000Y-45085000D02*
X65151000Y-44450000D01*
X60833000Y-43307000D02*
X61341000Y-42799000D01*
X61341000Y-42799000D02*
X64262000Y-42799000D01*
X64262000Y-42799000D02*
X65151000Y-43688000D01*
X65151000Y-43688000D02*
X65151000Y-44450000D01*
X60833000Y-44450000D02*
X60833000Y-43307000D01*
X66929000Y-45212000D02*
X66802000Y-45085000D01*
X66802000Y-45085000D02*
X65786000Y-45085000D01*
X57277000Y-35613500D02*
X57277000Y-32512000D01*
X59436000Y-30353000D02*
X68686000Y-30353000D01*
X57277000Y-32512000D02*
X59436000Y-30353000D01*
X71247000Y-47625000D02*
X74676000Y-51054000D01*
X98298000Y-51054000D02*
X105410000Y-51054000D01*
X98298000Y-51054000D02*
X74676000Y-51054000D01*
X105410000Y-51054000D02*
X105664000Y-50800000D01*
X71247000Y-32914000D02*
X68686000Y-30353000D01*
X71247000Y-47625000D02*
X71247000Y-32914000D01*
X66040000Y-82931000D02*
X68125500Y-82931000D01*
X68125500Y-82931000D02*
X68199000Y-82857500D01*
X66040000Y-89535000D02*
X68145500Y-89535000D01*
X68145500Y-89535000D02*
X68199000Y-89481500D01*
X62357000Y-38227000D02*
X64008000Y-38227000D01*
D40*
X61823000Y-40153000D02*
X61823000Y-38735000D01*
D39*
X61849000Y-38735000D02*
X62357000Y-38227000D01*
X61823000Y-38735000D02*
X61849000Y-38735000D01*
X68580000Y-49022000D02*
X74041000Y-54483000D01*
X74041000Y-57150000D02*
X74600500Y-57709500D01*
X74041000Y-54483000D02*
X74041000Y-57150000D01*
X65214500Y-37274500D02*
X64960500Y-37274500D01*
X64960500Y-37274500D02*
X64262000Y-37973000D01*
X68580000Y-36830000D02*
X68580000Y-38481000D01*
X68453000Y-36703000D02*
X68580000Y-36830000D01*
X65786000Y-36703000D02*
X68453000Y-36703000D01*
X65214500Y-37274500D02*
X65786000Y-36703000D01*
X68580000Y-40894000D02*
X68580000Y-38481000D01*
X86327000Y-76327000D02*
X88699500Y-76327000D01*
X68580000Y-49022000D02*
X68580000Y-40894000D01*
X79709500Y-57709500D02*
X81500000Y-59500000D01*
X81500000Y-59500000D02*
X81500000Y-71500000D01*
X81500000Y-71500000D02*
X86327000Y-76327000D01*
X74600500Y-57709500D02*
X79709500Y-57709500D01*
X64008000Y-38227000D02*
X64262000Y-37973000D01*
X64262000Y-37973000D02*
X64452500Y-37782500D01*
X64008000Y-38227000D02*
X64452500Y-37782500D01*
X67691000Y-49530000D02*
X72644000Y-54483000D01*
X72644000Y-57150000D02*
X74041000Y-58547000D01*
X72644000Y-54483000D02*
X72644000Y-57150000D01*
X87503000Y-78740000D02*
X88773000Y-80010000D01*
X87503000Y-78740000D02*
X80645000Y-71882000D01*
X80645000Y-71882000D02*
X80645000Y-59817000D01*
X80645000Y-59817000D02*
X79375000Y-58547000D01*
X79375000Y-58547000D02*
X74041000Y-58547000D01*
X88773000Y-80010000D02*
X92402500Y-80010000D01*
X92402500Y-80010000D02*
X92583000Y-80190500D01*
X67691000Y-49530000D02*
X67691000Y-43053000D01*
D40*
X60523000Y-40153000D02*
X60523000Y-41275000D01*
D39*
X67691000Y-43053000D02*
X66675000Y-42037000D01*
X66675000Y-42037000D02*
X66040000Y-42037000D01*
X66040000Y-42037000D02*
X65278000Y-41275000D01*
X65278000Y-41275000D02*
X60523000Y-41275000D01*
D40*
X66315000Y-40153000D02*
X67183000Y-40767000D01*
X63123000Y-40153000D02*
X66315000Y-40153000D01*
D39*
X62230000Y-25273000D02*
X64188500Y-25273000D01*
X64188500Y-25273000D02*
X64315500Y-25146000D01*
X64135000Y-33274000D02*
X64389000Y-33020000D01*
X62103000Y-33274000D02*
X64135000Y-33274000D01*
X61468000Y-33909000D02*
X62103000Y-33274000D01*
D40*
X61468000Y-34925000D02*
X61468000Y-33909000D01*
X57923000Y-38470000D02*
X61468000Y-34925000D01*
X57923000Y-40153000D02*
X57923000Y-38470000D01*
X59223000Y-38059000D02*
X61849000Y-35433000D01*
X59223000Y-40153000D02*
X59223000Y-38059000D01*
X62103000Y-35433000D02*
X62865000Y-34671000D01*
X61849000Y-35433000D02*
X62103000Y-35433000D01*
D39*
X63627000Y-35941000D02*
X64008000Y-35941000D01*
X65532000Y-34417000D02*
X67998500Y-34417000D01*
X64008000Y-35941000D02*
X65532000Y-34417000D01*
X62611000Y-36322000D02*
X62992000Y-35941000D01*
X62230000Y-36322000D02*
X62611000Y-36322000D01*
X62992000Y-35941000D02*
X63627000Y-35941000D01*
D40*
X61722000Y-36322000D02*
X62230000Y-36322000D01*
X59873000Y-38171000D02*
X59873000Y-40153000D01*
X59873000Y-38171000D02*
X61722000Y-36322000D01*
D39*
X72834500Y-51879500D02*
X74803000Y-53848000D01*
X75692000Y-53848000D02*
X75946000Y-54102000D01*
X74803000Y-53848000D02*
X75692000Y-53848000D01*
X69469000Y-48514000D02*
X72834500Y-51879500D01*
X64262000Y-36830000D02*
X64389000Y-36830000D01*
X69469000Y-36449000D02*
X69469000Y-38100000D01*
X68834000Y-35814000D02*
X69469000Y-36449000D01*
X65405000Y-35814000D02*
X68834000Y-35814000D01*
X64389000Y-36830000D02*
X65405000Y-35814000D01*
X69469000Y-38100000D02*
X69469000Y-40894000D01*
X63881000Y-36830000D02*
X64262000Y-36830000D01*
X69469000Y-40894000D02*
X69469000Y-48514000D01*
X63500000Y-37211000D02*
X63881000Y-36830000D01*
D40*
X61173000Y-37887000D02*
X61849000Y-37211000D01*
X61173000Y-40153000D02*
X61173000Y-37887000D01*
X61849000Y-37211000D02*
X62230000Y-37211000D01*
D39*
X62230000Y-37211000D02*
X63500000Y-37211000D01*
X58674000Y-50419000D02*
X58674000Y-50546000D01*
X58674000Y-50419000D02*
X58674000Y-49784000D01*
D40*
X58573000Y-49683000D02*
X58674000Y-49784000D01*
X58573000Y-45953000D02*
X58573000Y-49683000D01*
D39*
X59309000Y-51181000D02*
X62738000Y-51181000D01*
X58674000Y-50546000D02*
X59309000Y-51181000D01*
X63500000Y-53753000D02*
X63500000Y-51943000D01*
X63500000Y-51943000D02*
X62738000Y-51181000D01*
X63246000Y-53499000D02*
X63500000Y-53753000D01*
X49276000Y-60579000D02*
X54483000Y-60579000D01*
X48768000Y-60071000D02*
X49276000Y-60579000D01*
X48768000Y-52324000D02*
X48768000Y-60071000D01*
X49657000Y-51435000D02*
X48768000Y-52324000D01*
D40*
X57923000Y-47879000D02*
X57404000Y-47879000D01*
D39*
X55880000Y-47117000D02*
X56642000Y-47879000D01*
X56642000Y-47879000D02*
X57404000Y-47879000D01*
X55880000Y-46101000D02*
X55880000Y-47117000D01*
X49657000Y-51435000D02*
X56007000Y-51435000D01*
X56007000Y-51435000D02*
X57923000Y-49519000D01*
D40*
X57923000Y-45953000D02*
X57923000Y-47879000D01*
X57923000Y-47879000D02*
X57923000Y-49519000D01*
D39*
X54483000Y-60579000D02*
X54483000Y-58580000D01*
D40*
X62738000Y-38989000D02*
X67183000Y-38862000D01*
X62473000Y-39254000D02*
X62738000Y-38989000D01*
X62473000Y-40153000D02*
X62473000Y-39254000D01*
X62484000Y-40142000D02*
X62473000Y-40153000D01*
D39*
X59873000Y-44394000D02*
X59873000Y-42743000D01*
X64643000Y-42037000D02*
X66421000Y-43815000D01*
X60579000Y-42037000D02*
X64643000Y-42037000D01*
X59873000Y-42743000D02*
X60579000Y-42037000D01*
D40*
X59873000Y-44394000D02*
X59873000Y-45953000D01*
D39*
X57277000Y-37538500D02*
X57838500Y-37538500D01*
X59563000Y-35814000D02*
X59563000Y-34998500D01*
X57838500Y-37538500D02*
X59563000Y-35814000D01*
D40*
X57277000Y-37538500D02*
X57277000Y-40149000D01*
X57277000Y-40149000D02*
X57273000Y-40153000D01*
D39*
X72136000Y-25119500D02*
X74792500Y-25119500D01*
X74792500Y-25119500D02*
X74827000Y-25085000D01*
X66240500Y-25146000D02*
X72109500Y-25146000D01*
X72109500Y-25146000D02*
X72136000Y-25119500D01*
X77827000Y-26035000D02*
X90170000Y-26035000D01*
X92710000Y-23495000D02*
X100838000Y-23495000D01*
X90170000Y-26035000D02*
X92710000Y-23495000D01*
X70231000Y-47625000D02*
X70231000Y-47879000D01*
X70231000Y-47879000D02*
X74295000Y-51943000D01*
X70231000Y-36449000D02*
X70231000Y-34724500D01*
X70231000Y-34724500D02*
X69923500Y-34417000D01*
X70231000Y-36449000D02*
X70231000Y-39624000D01*
X105410000Y-54102000D02*
X106172000Y-54864000D01*
X70231000Y-39624000D02*
X70231000Y-47625000D01*
X74295000Y-51943000D02*
X103251000Y-51943000D01*
X103251000Y-51943000D02*
X105410000Y-54102000D01*
X59055000Y-56715500D02*
X62462500Y-56715500D01*
X62462500Y-56715500D02*
X63500000Y-57753000D01*
X59055000Y-56715500D02*
X53774500Y-56715500D01*
X53774500Y-56715500D02*
X53213000Y-57277000D01*
X53213000Y-57277000D02*
X53213000Y-58580000D01*
X107500000Y-70500000D02*
X104500000Y-70500000D01*
X104500000Y-70500000D02*
X103000000Y-69000000D01*
D41*
X88475000Y-46395000D02*
X104105000Y-46395000D01*
X111000000Y-39500000D02*
X117500000Y-39500000D01*
X104105000Y-46395000D02*
X111000000Y-39500000D01*
X117500000Y-75500000D02*
X103368000Y-75500000D01*
X103368000Y-75500000D02*
X97186000Y-69318000D01*
D40*
G36*
X73408000Y-24203258D02*
G01*
X73336600Y-24096400D01*
X73129863Y-23958263D01*
X72886000Y-23909756D01*
X71386000Y-23909756D01*
X71142137Y-23958263D01*
X70935400Y-24096400D01*
X70818736Y-24271000D01*
X67164114Y-24271000D01*
X67113600Y-24195400D01*
X66906863Y-24057263D01*
X66663000Y-24008756D01*
X65818000Y-24008756D01*
X65574137Y-24057263D01*
X65367400Y-24195400D01*
X65278000Y-24329197D01*
X65188600Y-24195400D01*
X64981863Y-24057263D01*
X64738000Y-24008756D01*
X63893000Y-24008756D01*
X63649137Y-24057263D01*
X63442400Y-24195400D01*
X63307027Y-24398000D01*
X63299544Y-24398000D01*
X63008875Y-24107331D01*
X62503505Y-23898000D01*
X61956495Y-23898000D01*
X61451125Y-24107331D01*
X61064331Y-24494125D01*
X60855000Y-24999495D01*
X60855000Y-25546505D01*
X61064331Y-26051875D01*
X61451125Y-26438669D01*
X61956495Y-26648000D01*
X62503505Y-26648000D01*
X63008875Y-26438669D01*
X63299544Y-26148000D01*
X63519326Y-26148000D01*
X63649137Y-26234737D01*
X63893000Y-26283244D01*
X64738000Y-26283244D01*
X64981863Y-26234737D01*
X65188600Y-26096600D01*
X65278000Y-25962803D01*
X65367400Y-26096600D01*
X65574137Y-26234737D01*
X65818000Y-26283244D01*
X66663000Y-26283244D01*
X66906863Y-26234737D01*
X67113600Y-26096600D01*
X67164114Y-26021000D01*
X70854150Y-26021000D01*
X70935400Y-26142600D01*
X70969039Y-26165077D01*
X70856150Y-26277966D01*
X70761000Y-26507680D01*
X70761000Y-26923250D01*
X70917250Y-27079500D01*
X72011000Y-27079500D01*
X72011000Y-27059500D01*
X72261000Y-27059500D01*
X72261000Y-27079500D01*
X72281000Y-27079500D01*
X72281000Y-27329500D01*
X72261000Y-27329500D01*
X72261000Y-28245750D01*
X72417250Y-28402000D01*
X73010320Y-28402000D01*
X73240034Y-28306849D01*
X73408000Y-28138884D01*
X73408000Y-36131500D01*
X73408003Y-36132362D01*
X73471500Y-45339427D01*
X73471500Y-48612064D01*
X72122000Y-47262564D01*
X72122000Y-33000178D01*
X72139142Y-32914000D01*
X72122000Y-32827821D01*
X72071232Y-32572592D01*
X71877840Y-32283160D01*
X71804780Y-32234343D01*
X69365659Y-29795223D01*
X69316840Y-29722160D01*
X69027408Y-29528768D01*
X68772179Y-29478000D01*
X68772178Y-29478000D01*
X68686000Y-29460858D01*
X68599822Y-29478000D01*
X59522177Y-29478000D01*
X59435999Y-29460858D01*
X59349821Y-29478000D01*
X59094592Y-29528768D01*
X58805160Y-29722160D01*
X58756343Y-29795220D01*
X58627210Y-29924353D01*
X58652000Y-29864505D01*
X58652000Y-29317495D01*
X58442669Y-28812125D01*
X58055875Y-28425331D01*
X57550505Y-28216000D01*
X57003495Y-28216000D01*
X56498125Y-28425331D01*
X56111331Y-28812125D01*
X56007000Y-29064002D01*
X55902669Y-28812125D01*
X55515875Y-28425331D01*
X55010505Y-28216000D01*
X54463495Y-28216000D01*
X53958125Y-28425331D01*
X53571331Y-28812125D01*
X53362000Y-29317495D01*
X53362000Y-29864505D01*
X53571331Y-30369875D01*
X53735001Y-30533545D01*
X53735000Y-42331822D01*
X53717858Y-42418000D01*
X53735000Y-42504178D01*
X53785768Y-42759407D01*
X53979160Y-43048840D01*
X54052223Y-43097659D01*
X54394320Y-43439756D01*
X53880000Y-43439756D01*
X53636137Y-43488263D01*
X53429400Y-43626400D01*
X53343254Y-43755327D01*
X53329849Y-43722966D01*
X53154034Y-43547150D01*
X52924320Y-43452000D01*
X52658750Y-43452000D01*
X52502500Y-43608250D01*
X52502500Y-44452000D01*
X52522500Y-44452000D01*
X52522500Y-44702000D01*
X52502500Y-44702000D01*
X52502500Y-45545750D01*
X52658750Y-45702000D01*
X52924320Y-45702000D01*
X53154034Y-45606850D01*
X53329849Y-45431034D01*
X53343254Y-45398673D01*
X53429400Y-45527600D01*
X53636137Y-45665737D01*
X53880000Y-45714244D01*
X54551910Y-45714244D01*
X54505000Y-45827495D01*
X54505000Y-46374505D01*
X54714331Y-46879875D01*
X54996897Y-47162441D01*
X55031874Y-47338280D01*
X55055769Y-47458408D01*
X55249161Y-47747840D01*
X55322221Y-47796657D01*
X55962343Y-48436779D01*
X56011160Y-48509840D01*
X56222647Y-48651151D01*
X56300592Y-48703232D01*
X56642000Y-48771142D01*
X56728179Y-48754000D01*
X57173001Y-48754000D01*
X57173001Y-49031562D01*
X55644564Y-50560000D01*
X49743179Y-50560000D01*
X49657000Y-50542858D01*
X49315591Y-50610768D01*
X49255380Y-50651000D01*
X49026160Y-50804160D01*
X48977343Y-50877220D01*
X48210223Y-51644341D01*
X48137160Y-51693160D01*
X47943768Y-51982593D01*
X47903281Y-52186137D01*
X47875858Y-52324000D01*
X47893000Y-52410178D01*
X47893001Y-58440690D01*
X47186943Y-57734632D01*
X46222145Y-57335000D01*
X45177855Y-57335000D01*
X44213057Y-57734632D01*
X43474632Y-58473057D01*
X43075000Y-59437855D01*
X43075000Y-60482145D01*
X43474632Y-61446943D01*
X44213057Y-62185368D01*
X45177855Y-62585000D01*
X46222145Y-62585000D01*
X47186943Y-62185368D01*
X47925368Y-61446943D01*
X48212737Y-60753173D01*
X48596341Y-61136777D01*
X48645160Y-61209840D01*
X48934592Y-61403232D01*
X49189821Y-61454000D01*
X49275999Y-61471142D01*
X49362177Y-61454000D01*
X52871117Y-61454000D01*
X52822151Y-61502966D01*
X52727000Y-61732680D01*
X52727000Y-62075750D01*
X52883250Y-62232000D01*
X53649500Y-62232000D01*
X53649500Y-62212000D01*
X53899500Y-62212000D01*
X53899500Y-62232000D01*
X53919500Y-62232000D01*
X53919500Y-62482000D01*
X53899500Y-62482000D01*
X53899500Y-63325750D01*
X54055750Y-63482000D01*
X54321320Y-63482000D01*
X54551034Y-63386850D01*
X54726849Y-63211034D01*
X54740254Y-63178673D01*
X54826400Y-63307600D01*
X55033137Y-63445737D01*
X55277000Y-63494244D01*
X56122000Y-63494244D01*
X56365863Y-63445737D01*
X56572600Y-63307600D01*
X56638114Y-63209551D01*
X59196001Y-65767438D01*
X59196000Y-68526456D01*
X58905331Y-68817125D01*
X58696000Y-69322495D01*
X58696000Y-69869505D01*
X58905331Y-70374875D01*
X59078956Y-70548500D01*
X58905331Y-70722125D01*
X58696000Y-71227495D01*
X58696000Y-71774505D01*
X58905331Y-72279875D01*
X59292125Y-72666669D01*
X59797495Y-72876000D01*
X60344505Y-72876000D01*
X60849875Y-72666669D01*
X61236669Y-72279875D01*
X61283119Y-72167735D01*
X61336840Y-72131840D01*
X61385659Y-72058777D01*
X62152780Y-71291657D01*
X62225840Y-71242840D01*
X62349500Y-71057769D01*
X62419232Y-70953409D01*
X62487142Y-70612000D01*
X62470000Y-70525821D01*
X62470000Y-67725495D01*
X64284000Y-67725495D01*
X64284000Y-68272505D01*
X64493331Y-68777875D01*
X64880125Y-69164669D01*
X65385495Y-69374000D01*
X65932505Y-69374000D01*
X66437875Y-69164669D01*
X66824669Y-68777875D01*
X67034000Y-68272505D01*
X67034000Y-67725495D01*
X66824669Y-67220125D01*
X66437875Y-66833331D01*
X65932505Y-66624000D01*
X65385495Y-66624000D01*
X64880125Y-66833331D01*
X64493331Y-67220125D01*
X64284000Y-67725495D01*
X62470000Y-67725495D01*
X62470000Y-65237177D01*
X62487142Y-65150999D01*
X62470000Y-65064821D01*
X62419232Y-64809592D01*
X62225840Y-64520160D01*
X62152780Y-64471343D01*
X61667437Y-63986000D01*
X62122505Y-63986000D01*
X62627875Y-63776669D01*
X63014669Y-63389875D01*
X63224000Y-62884505D01*
X63224000Y-62845495D01*
X64284000Y-62845495D01*
X64284000Y-63392505D01*
X64493331Y-63897875D01*
X64880125Y-64284669D01*
X65385495Y-64494000D01*
X65932505Y-64494000D01*
X66437875Y-64284669D01*
X66824669Y-63897875D01*
X67034000Y-63392505D01*
X67034000Y-62845495D01*
X66824669Y-62340125D01*
X66437875Y-61953331D01*
X65932505Y-61744000D01*
X65385495Y-61744000D01*
X64880125Y-61953331D01*
X64493331Y-62340125D01*
X64284000Y-62845495D01*
X63224000Y-62845495D01*
X63224000Y-62337495D01*
X63014669Y-61832125D01*
X62714044Y-61531500D01*
X63014669Y-61230875D01*
X63224000Y-60725505D01*
X63224000Y-60178495D01*
X63014669Y-59673125D01*
X62981788Y-59640244D01*
X64400000Y-59640244D01*
X64643863Y-59591737D01*
X64850600Y-59453600D01*
X64988737Y-59246863D01*
X65037244Y-59003000D01*
X65037244Y-56503000D01*
X65460498Y-56503000D01*
X65571592Y-56577231D01*
X65913000Y-56645142D01*
X66254408Y-56577231D01*
X66470780Y-56432656D01*
X66724777Y-56178659D01*
X66797840Y-56129840D01*
X66991232Y-55840408D01*
X67042000Y-55585179D01*
X67042000Y-55585178D01*
X67059142Y-55499001D01*
X67042000Y-55412823D01*
X67042000Y-52785436D01*
X69991001Y-55734438D01*
X69991000Y-61889821D01*
X69991000Y-61889822D01*
X69991001Y-69868562D01*
X68725564Y-71134000D01*
X63840177Y-71134000D01*
X63753999Y-71116858D01*
X63667821Y-71134000D01*
X63412592Y-71184768D01*
X63123160Y-71378160D01*
X63074343Y-71451220D01*
X61364721Y-73160843D01*
X61291661Y-73209660D01*
X61242844Y-73282720D01*
X61098269Y-73499092D01*
X61030358Y-73840500D01*
X61047501Y-73926683D01*
X61047500Y-82872243D01*
X60960000Y-83003197D01*
X60870600Y-82869400D01*
X60663863Y-82731263D01*
X60420000Y-82682756D01*
X60389450Y-82682756D01*
X60418244Y-82538000D01*
X60418244Y-81038000D01*
X60369737Y-80794137D01*
X60231600Y-80587400D01*
X60024863Y-80449263D01*
X59781000Y-80400756D01*
X58636000Y-80400756D01*
X58392137Y-80449263D01*
X58185400Y-80587400D01*
X58162923Y-80621039D01*
X58050034Y-80508150D01*
X57820320Y-80413000D01*
X57404750Y-80413000D01*
X57248500Y-80569250D01*
X57248500Y-81663000D01*
X57268500Y-81663000D01*
X57268500Y-81913000D01*
X57248500Y-81913000D01*
X57248500Y-83006750D01*
X57404750Y-83163000D01*
X57820320Y-83163000D01*
X58050034Y-83067850D01*
X58162923Y-82954961D01*
X58185400Y-82988600D01*
X58326705Y-83083017D01*
X58363951Y-83270263D01*
X58384269Y-83372408D01*
X58577661Y-83661840D01*
X58650721Y-83710657D01*
X58937756Y-83997692D01*
X58937756Y-84320000D01*
X58986263Y-84563863D01*
X59122500Y-84767757D01*
X59122501Y-85007756D01*
X59018000Y-85007756D01*
X58774137Y-85056263D01*
X58567400Y-85194400D01*
X58429263Y-85401137D01*
X58380756Y-85645000D01*
X58380756Y-86445000D01*
X58429263Y-86688863D01*
X58567400Y-86895600D01*
X58714804Y-86994092D01*
X58663966Y-87015150D01*
X58488151Y-87190966D01*
X58393000Y-87420680D01*
X58393000Y-87663750D01*
X58549250Y-87820000D01*
X59843000Y-87820000D01*
X59843000Y-87800000D01*
X60093000Y-87800000D01*
X60093000Y-87820000D01*
X61386750Y-87820000D01*
X61484788Y-87721962D01*
X61567400Y-87845600D01*
X61774137Y-87983737D01*
X62018000Y-88032244D01*
X63918000Y-88032244D01*
X64161863Y-87983737D01*
X64332083Y-87870000D01*
X64910825Y-87870000D01*
X65012633Y-88022367D01*
X65151736Y-88115313D01*
X64996137Y-88146263D01*
X64789400Y-88284400D01*
X64651263Y-88491137D01*
X64602756Y-88735000D01*
X64602756Y-90335000D01*
X64651263Y-90578863D01*
X64789400Y-90785600D01*
X64996137Y-90923737D01*
X65240000Y-90972244D01*
X66840000Y-90972244D01*
X67083863Y-90923737D01*
X67290600Y-90785600D01*
X67428737Y-90578863D01*
X67446956Y-90487270D01*
X67455137Y-90492737D01*
X67699000Y-90541244D01*
X68699000Y-90541244D01*
X68942863Y-90492737D01*
X69149600Y-90354600D01*
X69287737Y-90147863D01*
X69336244Y-89904000D01*
X69336244Y-89059000D01*
X69287737Y-88815137D01*
X69149600Y-88608400D01*
X69015803Y-88519000D01*
X69149600Y-88429600D01*
X69287737Y-88222863D01*
X69336244Y-87979000D01*
X69336244Y-87134000D01*
X69287737Y-86890137D01*
X69149600Y-86683400D01*
X69074000Y-86632886D01*
X69074000Y-85706114D01*
X69149600Y-85655600D01*
X69287737Y-85448863D01*
X69336244Y-85205000D01*
X69336244Y-84455000D01*
X77414083Y-84455000D01*
X77524680Y-85011007D01*
X77839633Y-85482367D01*
X78310993Y-85797320D01*
X78726652Y-85880000D01*
X79007348Y-85880000D01*
X79423007Y-85797320D01*
X79894367Y-85482367D01*
X79987313Y-85343264D01*
X80018263Y-85498863D01*
X80156400Y-85705600D01*
X80363137Y-85843737D01*
X80607000Y-85892244D01*
X82207000Y-85892244D01*
X82450863Y-85843737D01*
X82657600Y-85705600D01*
X82795737Y-85498863D01*
X82844244Y-85255000D01*
X82844244Y-83655000D01*
X82795737Y-83411137D01*
X82657600Y-83204400D01*
X82450863Y-83066263D01*
X82207000Y-83017756D01*
X80607000Y-83017756D01*
X80363137Y-83066263D01*
X80156400Y-83204400D01*
X80018263Y-83411137D01*
X79987313Y-83566736D01*
X79894367Y-83427633D01*
X79423007Y-83112680D01*
X79007348Y-83030000D01*
X78726652Y-83030000D01*
X78310993Y-83112680D01*
X77839633Y-83427633D01*
X77524680Y-83898993D01*
X77414083Y-84455000D01*
X69336244Y-84455000D01*
X69336244Y-84360000D01*
X69287737Y-84116137D01*
X69149600Y-83909400D01*
X69015803Y-83820000D01*
X69149600Y-83730600D01*
X69287737Y-83523863D01*
X69336244Y-83280000D01*
X69336244Y-82435000D01*
X69287737Y-82191137D01*
X69149600Y-81984400D01*
X68942863Y-81846263D01*
X68699000Y-81797756D01*
X67699000Y-81797756D01*
X67455137Y-81846263D01*
X67418004Y-81871074D01*
X67290600Y-81680400D01*
X67083863Y-81542263D01*
X66928264Y-81511313D01*
X67067367Y-81418367D01*
X67382320Y-80947007D01*
X67492917Y-80391000D01*
X67382320Y-79834993D01*
X67067367Y-79363633D01*
X66939000Y-79277861D01*
X66939000Y-77618244D01*
X67014000Y-77618244D01*
X67257863Y-77569737D01*
X67464600Y-77431600D01*
X67476756Y-77413407D01*
X67476756Y-77931000D01*
X67525263Y-78174863D01*
X67663400Y-78381600D01*
X67870137Y-78519737D01*
X68114000Y-78568244D01*
X70014000Y-78568244D01*
X70220587Y-78527152D01*
X70300400Y-78646600D01*
X70507137Y-78784737D01*
X70751000Y-78833244D01*
X72251000Y-78833244D01*
X72494863Y-78784737D01*
X72701600Y-78646600D01*
X72839737Y-78439863D01*
X72843430Y-78421297D01*
X73043137Y-78554737D01*
X73287000Y-78603244D01*
X74287000Y-78603244D01*
X74530863Y-78554737D01*
X74737600Y-78416600D01*
X74875737Y-78209863D01*
X74924244Y-77966000D01*
X74924244Y-77180522D01*
X77484514Y-77180522D01*
X77721975Y-77683275D01*
X78133756Y-78056886D01*
X78521479Y-78217476D01*
X78742000Y-78097577D01*
X78742000Y-76960000D01*
X77603733Y-76960000D01*
X77484514Y-77180522D01*
X74924244Y-77180522D01*
X74924244Y-77121000D01*
X74875737Y-76877137D01*
X74737600Y-76670400D01*
X74603803Y-76581000D01*
X74737600Y-76491600D01*
X74739017Y-76489478D01*
X77484514Y-76489478D01*
X77603733Y-76710000D01*
X78742000Y-76710000D01*
X78742000Y-75572423D01*
X78992000Y-75572423D01*
X78992000Y-76710000D01*
X79012000Y-76710000D01*
X79012000Y-76960000D01*
X78992000Y-76960000D01*
X78992000Y-78097577D01*
X79212521Y-78217476D01*
X79600244Y-78056886D01*
X80012025Y-77683275D01*
X80114707Y-77465877D01*
X80379633Y-77862367D01*
X80850993Y-78177320D01*
X81266652Y-78260000D01*
X81547348Y-78260000D01*
X81963007Y-78177320D01*
X82434367Y-77862367D01*
X82749320Y-77391007D01*
X82859917Y-76835000D01*
X82749320Y-76278993D01*
X82434367Y-75807633D01*
X81963007Y-75492680D01*
X81547348Y-75410000D01*
X81266652Y-75410000D01*
X80850993Y-75492680D01*
X80379633Y-75807633D01*
X80114707Y-76204123D01*
X80012025Y-75986725D01*
X79600244Y-75613114D01*
X79212521Y-75452524D01*
X78992000Y-75572423D01*
X78742000Y-75572423D01*
X78521479Y-75452524D01*
X78133756Y-75613114D01*
X77721975Y-75986725D01*
X77484514Y-76489478D01*
X74739017Y-76489478D01*
X74875737Y-76284863D01*
X74924244Y-76041000D01*
X74924244Y-75196000D01*
X74875737Y-74952137D01*
X74737600Y-74745400D01*
X74662000Y-74694886D01*
X74662000Y-74381177D01*
X74679142Y-74294999D01*
X74655626Y-74176777D01*
X74611232Y-73953592D01*
X74417840Y-73664160D01*
X74344780Y-73615343D01*
X72503000Y-71773564D01*
X72503000Y-58246436D01*
X73361341Y-59104777D01*
X73410160Y-59177840D01*
X73699592Y-59371232D01*
X73954821Y-59422000D01*
X74040999Y-59439142D01*
X74127177Y-59422000D01*
X79012564Y-59422000D01*
X79770001Y-60179438D01*
X79770000Y-71795822D01*
X79752858Y-71882000D01*
X79770000Y-71968178D01*
X79820768Y-72223407D01*
X80014160Y-72512840D01*
X80087223Y-72561659D01*
X86945219Y-79419656D01*
X86945222Y-79419658D01*
X88093343Y-80567780D01*
X88142160Y-80640840D01*
X88431592Y-80834232D01*
X88686821Y-80885000D01*
X88772999Y-80902142D01*
X88859177Y-80885000D01*
X91513064Y-80885000D01*
X91632400Y-81063600D01*
X91766197Y-81153000D01*
X91632400Y-81242400D01*
X91494263Y-81449137D01*
X91445756Y-81693000D01*
X91445756Y-82538000D01*
X91464656Y-82633015D01*
X91413137Y-82643263D01*
X91295866Y-82721621D01*
X91243600Y-82643400D01*
X91036863Y-82505263D01*
X90793000Y-82456756D01*
X89293000Y-82456756D01*
X89049137Y-82505263D01*
X88842400Y-82643400D01*
X88704263Y-82850137D01*
X88655756Y-83094000D01*
X88655756Y-84239000D01*
X88704263Y-84482863D01*
X88842400Y-84689600D01*
X88876039Y-84712077D01*
X88763150Y-84824966D01*
X88668000Y-85054680D01*
X88668000Y-85470250D01*
X88824250Y-85626500D01*
X89918000Y-85626500D01*
X89918000Y-85606500D01*
X90168000Y-85606500D01*
X90168000Y-85626500D01*
X90188000Y-85626500D01*
X90188000Y-85876500D01*
X90168000Y-85876500D01*
X90168000Y-86792750D01*
X90324250Y-86949000D01*
X90917320Y-86949000D01*
X91147034Y-86853849D01*
X91322850Y-86678034D01*
X91396370Y-86500539D01*
X91532680Y-86557000D01*
X92325750Y-86557000D01*
X92482000Y-86400750D01*
X92482000Y-85657000D01*
X92732000Y-85657000D01*
X92732000Y-86400750D01*
X92888250Y-86557000D01*
X93681320Y-86557000D01*
X93911034Y-86461850D01*
X94086849Y-86286034D01*
X94182000Y-86056320D01*
X94182000Y-85813250D01*
X94025750Y-85657000D01*
X92732000Y-85657000D01*
X92482000Y-85657000D01*
X92462000Y-85657000D01*
X92462000Y-85407000D01*
X92482000Y-85407000D01*
X92482000Y-85387000D01*
X92732000Y-85387000D01*
X92732000Y-85407000D01*
X94025750Y-85407000D01*
X94123788Y-85308962D01*
X94206400Y-85432600D01*
X94413137Y-85570737D01*
X94550001Y-85597961D01*
X94550000Y-87527296D01*
X87990000Y-87473437D01*
X87990000Y-86032750D01*
X88668000Y-86032750D01*
X88668000Y-86448320D01*
X88763150Y-86678034D01*
X88938966Y-86853849D01*
X89168680Y-86949000D01*
X89761750Y-86949000D01*
X89918000Y-86792750D01*
X89918000Y-85876500D01*
X88824250Y-85876500D01*
X88668000Y-86032750D01*
X87990000Y-86032750D01*
X87990000Y-82248177D01*
X88007142Y-82161999D01*
X87971815Y-81984400D01*
X87939232Y-81820592D01*
X87745840Y-81531160D01*
X87672780Y-81482343D01*
X86023659Y-79833223D01*
X85974840Y-79760160D01*
X85685408Y-79566768D01*
X85430179Y-79516000D01*
X85430178Y-79516000D01*
X85344000Y-79498858D01*
X85257822Y-79516000D01*
X74789175Y-79516000D01*
X74687367Y-79363633D01*
X74216007Y-79048680D01*
X73800348Y-78966000D01*
X73519652Y-78966000D01*
X73103993Y-79048680D01*
X72632633Y-79363633D01*
X72317680Y-79834993D01*
X72207083Y-80391000D01*
X72317680Y-80947007D01*
X72632633Y-81418367D01*
X72995759Y-81661000D01*
X72632633Y-81903633D01*
X72317680Y-82374993D01*
X72207083Y-82931000D01*
X72317680Y-83487007D01*
X72632633Y-83958367D01*
X73103993Y-84273320D01*
X73519652Y-84356000D01*
X73800348Y-84356000D01*
X74216007Y-84273320D01*
X74687367Y-83958367D01*
X75002320Y-83487007D01*
X75008749Y-83454687D01*
X75800437Y-82663000D01*
X82314564Y-82663000D01*
X83453000Y-83801437D01*
X83453001Y-85892816D01*
X83435858Y-85979000D01*
X83470000Y-86150644D01*
X83470001Y-87436326D01*
X82209056Y-87425974D01*
X82205840Y-87421160D01*
X82132780Y-87372343D01*
X81197659Y-86437223D01*
X81148840Y-86364160D01*
X80859408Y-86170768D01*
X80604179Y-86120000D01*
X80604178Y-86120000D01*
X80518000Y-86102858D01*
X80431822Y-86120000D01*
X74789175Y-86120000D01*
X74687367Y-85967633D01*
X74216007Y-85652680D01*
X73800348Y-85570000D01*
X73519652Y-85570000D01*
X73103993Y-85652680D01*
X72632633Y-85967633D01*
X72317680Y-86438993D01*
X72207083Y-86995000D01*
X72317680Y-87551007D01*
X72632633Y-88022367D01*
X72995759Y-88265000D01*
X72632633Y-88507633D01*
X72317680Y-88978993D01*
X72207083Y-89535000D01*
X72317680Y-90091007D01*
X72632633Y-90562367D01*
X73103993Y-90877320D01*
X73519652Y-90960000D01*
X73800348Y-90960000D01*
X73839730Y-90952166D01*
X74445343Y-91557780D01*
X74494160Y-91630840D01*
X74647293Y-91733160D01*
X74783591Y-91824232D01*
X75038821Y-91875000D01*
X45324611Y-91875000D01*
X46053398Y-91573127D01*
X47073127Y-90553398D01*
X47625000Y-89221057D01*
X47625000Y-88226250D01*
X58393000Y-88226250D01*
X58393000Y-88469320D01*
X58488151Y-88699034D01*
X58663966Y-88874850D01*
X58893680Y-88970000D01*
X59686750Y-88970000D01*
X59843000Y-88813750D01*
X59843000Y-88070000D01*
X60093000Y-88070000D01*
X60093000Y-88813750D01*
X60249250Y-88970000D01*
X61042320Y-88970000D01*
X61272034Y-88874850D01*
X61447849Y-88699034D01*
X61543000Y-88469320D01*
X61543000Y-88226250D01*
X61386750Y-88070000D01*
X60093000Y-88070000D01*
X59843000Y-88070000D01*
X58549250Y-88070000D01*
X58393000Y-88226250D01*
X47625000Y-88226250D01*
X47625000Y-87778943D01*
X47073127Y-86446602D01*
X46053398Y-85426873D01*
X45173417Y-85062373D01*
X50637946Y-85062373D01*
X50882185Y-85583497D01*
X51307258Y-85971487D01*
X51716628Y-86141045D01*
X51945000Y-86021812D01*
X51945000Y-84834000D01*
X50756547Y-84834000D01*
X50637946Y-85062373D01*
X45173417Y-85062373D01*
X44721057Y-84875000D01*
X43278943Y-84875000D01*
X41946602Y-85426873D01*
X40926873Y-86446602D01*
X40375000Y-87778943D01*
X40375000Y-89221057D01*
X40926873Y-90553398D01*
X41946602Y-91573127D01*
X42675389Y-91875000D01*
X39625000Y-91875000D01*
X39625000Y-84355627D01*
X50637946Y-84355627D01*
X50756547Y-84584000D01*
X51945000Y-84584000D01*
X51945000Y-83396188D01*
X52195000Y-83396188D01*
X52195000Y-84584000D01*
X52215000Y-84584000D01*
X52215000Y-84834000D01*
X52195000Y-84834000D01*
X52195000Y-86021812D01*
X52423372Y-86141045D01*
X52832742Y-85971487D01*
X53147633Y-85684067D01*
X53171263Y-85802863D01*
X53309400Y-86009600D01*
X53516137Y-86147737D01*
X53760000Y-86196244D01*
X55460000Y-86196244D01*
X55703863Y-86147737D01*
X55910600Y-86009600D01*
X56048737Y-85802863D01*
X56097244Y-85559000D01*
X56097244Y-83859000D01*
X56048737Y-83615137D01*
X55910600Y-83408400D01*
X55703863Y-83270263D01*
X55460000Y-83221756D01*
X53760000Y-83221756D01*
X53516137Y-83270263D01*
X53309400Y-83408400D01*
X53171263Y-83615137D01*
X53147633Y-83733933D01*
X52832742Y-83446513D01*
X52423372Y-83276955D01*
X52195000Y-83396188D01*
X51945000Y-83396188D01*
X51716628Y-83276955D01*
X51307258Y-83446513D01*
X50882185Y-83834503D01*
X50637946Y-84355627D01*
X39625000Y-84355627D01*
X39625000Y-82069250D01*
X55926000Y-82069250D01*
X55926000Y-82662320D01*
X56021151Y-82892034D01*
X56196966Y-83067850D01*
X56426680Y-83163000D01*
X56842250Y-83163000D01*
X56998500Y-83006750D01*
X56998500Y-81913000D01*
X56082250Y-81913000D01*
X55926000Y-82069250D01*
X39625000Y-82069250D01*
X39625000Y-80913680D01*
X55926000Y-80913680D01*
X55926000Y-81506750D01*
X56082250Y-81663000D01*
X56998500Y-81663000D01*
X56998500Y-80569250D01*
X56842250Y-80413000D01*
X56426680Y-80413000D01*
X56196966Y-80508150D01*
X56021151Y-80683966D01*
X55926000Y-80913680D01*
X39625000Y-80913680D01*
X39625000Y-80128821D01*
X40577955Y-80128821D01*
X40719790Y-80429444D01*
X41452365Y-80713460D01*
X42237865Y-80695512D01*
X42880210Y-80429444D01*
X43022045Y-80128821D01*
X41800000Y-78906777D01*
X40577955Y-80128821D01*
X39625000Y-80128821D01*
X39625000Y-78382365D01*
X39816540Y-78382365D01*
X39834488Y-79167865D01*
X40100556Y-79810210D01*
X40401179Y-79952045D01*
X41623223Y-78730000D01*
X41976777Y-78730000D01*
X43198821Y-79952045D01*
X43499444Y-79810210D01*
X43783460Y-79077635D01*
X43765512Y-78292135D01*
X43499444Y-77649790D01*
X43198821Y-77507955D01*
X41976777Y-78730000D01*
X41623223Y-78730000D01*
X40401179Y-77507955D01*
X40100556Y-77649790D01*
X39816540Y-78382365D01*
X39625000Y-78382365D01*
X39625000Y-77331179D01*
X40577955Y-77331179D01*
X41800000Y-78553223D01*
X43022045Y-77331179D01*
X42880210Y-77030556D01*
X42147635Y-76746540D01*
X41362135Y-76764488D01*
X40719790Y-77030556D01*
X40577955Y-77331179D01*
X39625000Y-77331179D01*
X39625000Y-74972023D01*
X43704754Y-74972023D01*
X43774354Y-75211429D01*
X44293183Y-75396907D01*
X44843500Y-75369720D01*
X45225646Y-75211429D01*
X45295246Y-74972023D01*
X44500000Y-74176777D01*
X43704754Y-74972023D01*
X39625000Y-74972023D01*
X39625000Y-73793183D01*
X43103093Y-73793183D01*
X43130280Y-74343500D01*
X43288571Y-74725646D01*
X43527977Y-74795246D01*
X44323223Y-74000000D01*
X43527977Y-73204754D01*
X43288571Y-73274354D01*
X43103093Y-73793183D01*
X39625000Y-73793183D01*
X39625000Y-71184506D01*
X43115000Y-71184506D01*
X43115000Y-71735494D01*
X43325853Y-72244540D01*
X43715460Y-72634147D01*
X43931313Y-72723556D01*
X43774354Y-72788571D01*
X43704754Y-73027977D01*
X44500000Y-73823223D01*
X45295246Y-73027977D01*
X45225646Y-72788571D01*
X45057150Y-72728335D01*
X45284540Y-72634147D01*
X45500000Y-72418687D01*
X45715460Y-72634147D01*
X45946870Y-72730000D01*
X45715460Y-72825853D01*
X45325853Y-73215460D01*
X45230066Y-73446711D01*
X44676777Y-74000000D01*
X45230066Y-74553289D01*
X45325853Y-74784540D01*
X45715460Y-75174147D01*
X46224506Y-75385000D01*
X46775494Y-75385000D01*
X47284540Y-75174147D01*
X47674147Y-74784540D01*
X47885000Y-74275494D01*
X47885000Y-73724506D01*
X47674147Y-73215460D01*
X47284540Y-72825853D01*
X47053130Y-72730000D01*
X47284540Y-72634147D01*
X47674147Y-72244540D01*
X47885000Y-71735494D01*
X47885000Y-71184506D01*
X47674147Y-70675460D01*
X47284540Y-70285853D01*
X46775494Y-70075000D01*
X46224506Y-70075000D01*
X45715460Y-70285853D01*
X45500000Y-70501313D01*
X45284540Y-70285853D01*
X44775494Y-70075000D01*
X44224506Y-70075000D01*
X43715460Y-70285853D01*
X43325853Y-70675460D01*
X43115000Y-71184506D01*
X39625000Y-71184506D01*
X39625000Y-68128821D01*
X40577955Y-68128821D01*
X40719790Y-68429444D01*
X41452365Y-68713460D01*
X42237865Y-68695512D01*
X42880210Y-68429444D01*
X43022045Y-68128821D01*
X41800000Y-66906777D01*
X40577955Y-68128821D01*
X39625000Y-68128821D01*
X39625000Y-66382365D01*
X39816540Y-66382365D01*
X39834488Y-67167865D01*
X40100556Y-67810210D01*
X40401179Y-67952045D01*
X41623223Y-66730000D01*
X41976777Y-66730000D01*
X43198821Y-67952045D01*
X43499444Y-67810210D01*
X43783460Y-67077635D01*
X43765512Y-66292135D01*
X43499444Y-65649790D01*
X43198821Y-65507955D01*
X41976777Y-66730000D01*
X41623223Y-66730000D01*
X40401179Y-65507955D01*
X40100556Y-65649790D01*
X39816540Y-66382365D01*
X39625000Y-66382365D01*
X39625000Y-65331179D01*
X40577955Y-65331179D01*
X41800000Y-66553223D01*
X43022045Y-65331179D01*
X42880210Y-65030556D01*
X42147635Y-64746540D01*
X41362135Y-64764488D01*
X40719790Y-65030556D01*
X40577955Y-65331179D01*
X39625000Y-65331179D01*
X39625000Y-62638250D01*
X52727000Y-62638250D01*
X52727000Y-62981320D01*
X52822151Y-63211034D01*
X52997966Y-63386850D01*
X53227680Y-63482000D01*
X53493250Y-63482000D01*
X53649500Y-63325750D01*
X53649500Y-62482000D01*
X52883250Y-62482000D01*
X52727000Y-62638250D01*
X39625000Y-62638250D01*
X39625000Y-43021550D01*
X41735000Y-43021550D01*
X41735000Y-43588450D01*
X41951944Y-44112197D01*
X42352803Y-44513056D01*
X42779982Y-44690000D01*
X42352803Y-44866944D01*
X41951944Y-45267803D01*
X41735000Y-45791550D01*
X41735000Y-46358450D01*
X41951944Y-46882197D01*
X42352803Y-47283056D01*
X42779982Y-47460000D01*
X42352803Y-47636944D01*
X41951944Y-48037803D01*
X41735000Y-48561550D01*
X41735000Y-49128450D01*
X41951944Y-49652197D01*
X42352803Y-50053056D01*
X42779982Y-50230000D01*
X42352803Y-50406944D01*
X41951944Y-50807803D01*
X41735000Y-51331550D01*
X41735000Y-51898450D01*
X41951944Y-52422197D01*
X42352803Y-52823056D01*
X42876550Y-53040000D01*
X43443450Y-53040000D01*
X43967197Y-52823056D01*
X44368056Y-52422197D01*
X44460093Y-52200000D01*
X44562756Y-52200000D01*
X44562756Y-53800000D01*
X44611263Y-54043863D01*
X44749400Y-54250600D01*
X44956137Y-54388737D01*
X45200000Y-54437244D01*
X46800000Y-54437244D01*
X47043863Y-54388737D01*
X47250600Y-54250600D01*
X47388737Y-54043863D01*
X47437244Y-53800000D01*
X47437244Y-52200000D01*
X47388737Y-51956137D01*
X47250600Y-51749400D01*
X47043863Y-51611263D01*
X46800000Y-51562756D01*
X46506146Y-51562756D01*
X46807197Y-51438056D01*
X47208056Y-51037197D01*
X47425000Y-50513450D01*
X47425000Y-49946550D01*
X47208056Y-49422803D01*
X46807197Y-49021944D01*
X46380018Y-48845000D01*
X46807197Y-48668056D01*
X47208056Y-48267197D01*
X47425000Y-47743450D01*
X47425000Y-47176550D01*
X47208056Y-46652803D01*
X46807197Y-46251944D01*
X46380018Y-46075000D01*
X46807197Y-45898056D01*
X47208056Y-45497197D01*
X47425000Y-44973450D01*
X47425000Y-44858250D01*
X51330000Y-44858250D01*
X51330000Y-45201320D01*
X51425151Y-45431034D01*
X51600966Y-45606850D01*
X51830680Y-45702000D01*
X52096250Y-45702000D01*
X52252500Y-45545750D01*
X52252500Y-44702000D01*
X51486250Y-44702000D01*
X51330000Y-44858250D01*
X47425000Y-44858250D01*
X47425000Y-44406550D01*
X47237001Y-43952680D01*
X51330000Y-43952680D01*
X51330000Y-44295750D01*
X51486250Y-44452000D01*
X52252500Y-44452000D01*
X52252500Y-43608250D01*
X52096250Y-43452000D01*
X51830680Y-43452000D01*
X51600966Y-43547150D01*
X51425151Y-43722966D01*
X51330000Y-43952680D01*
X47237001Y-43952680D01*
X47208056Y-43882803D01*
X46807197Y-43481944D01*
X46395326Y-43311341D01*
X46749709Y-43164550D01*
X46824223Y-42921000D01*
X46000000Y-42096777D01*
X45175777Y-42921000D01*
X45250291Y-43164550D01*
X45629338Y-43301124D01*
X45192803Y-43481944D01*
X44791944Y-43882803D01*
X44575000Y-44406550D01*
X44575000Y-44973450D01*
X44791944Y-45497197D01*
X45192803Y-45898056D01*
X45619982Y-46075000D01*
X45192803Y-46251944D01*
X44791944Y-46652803D01*
X44575000Y-47176550D01*
X44575000Y-47743450D01*
X44791944Y-48267197D01*
X45192803Y-48668056D01*
X45619982Y-48845000D01*
X45192803Y-49021944D01*
X44791944Y-49422803D01*
X44575000Y-49946550D01*
X44575000Y-50513450D01*
X44791944Y-51037197D01*
X45192803Y-51438056D01*
X45493854Y-51562756D01*
X45200000Y-51562756D01*
X44956137Y-51611263D01*
X44749400Y-51749400D01*
X44611263Y-51956137D01*
X44562756Y-52200000D01*
X44460093Y-52200000D01*
X44585000Y-51898450D01*
X44585000Y-51331550D01*
X44368056Y-50807803D01*
X43967197Y-50406944D01*
X43540018Y-50230000D01*
X43967197Y-50053056D01*
X44368056Y-49652197D01*
X44585000Y-49128450D01*
X44585000Y-48561550D01*
X44368056Y-48037803D01*
X43967197Y-47636944D01*
X43540018Y-47460000D01*
X43967197Y-47283056D01*
X44368056Y-46882197D01*
X44585000Y-46358450D01*
X44585000Y-45791550D01*
X44368056Y-45267803D01*
X43967197Y-44866944D01*
X43540018Y-44690000D01*
X43967197Y-44513056D01*
X44368056Y-44112197D01*
X44585000Y-43588450D01*
X44585000Y-43021550D01*
X44368056Y-42497803D01*
X43967197Y-42096944D01*
X43443450Y-41880000D01*
X42876550Y-41880000D01*
X42352803Y-42096944D01*
X41951944Y-42497803D01*
X41735000Y-43021550D01*
X39625000Y-43021550D01*
X39625000Y-41703627D01*
X44563284Y-41703627D01*
X44589845Y-42269905D01*
X44755450Y-42669709D01*
X44999000Y-42744223D01*
X45823223Y-41920000D01*
X46176777Y-41920000D01*
X47001000Y-42744223D01*
X47244550Y-42669709D01*
X47436716Y-42136373D01*
X47410155Y-41570095D01*
X47244550Y-41170291D01*
X47001000Y-41095777D01*
X46176777Y-41920000D01*
X45823223Y-41920000D01*
X44999000Y-41095777D01*
X44755450Y-41170291D01*
X44563284Y-41703627D01*
X39625000Y-41703627D01*
X39625000Y-40919000D01*
X45175777Y-40919000D01*
X46000000Y-41743223D01*
X46824223Y-40919000D01*
X46749709Y-40675450D01*
X46216373Y-40483284D01*
X45650095Y-40509845D01*
X45250291Y-40675450D01*
X45175777Y-40919000D01*
X39625000Y-40919000D01*
X39625000Y-34437855D01*
X43075000Y-34437855D01*
X43075000Y-35482145D01*
X43474632Y-36446943D01*
X44213057Y-37185368D01*
X45177855Y-37585000D01*
X46222145Y-37585000D01*
X47186943Y-37185368D01*
X47925368Y-36446943D01*
X48325000Y-35482145D01*
X48325000Y-34437855D01*
X47925368Y-33473057D01*
X47186943Y-32734632D01*
X46222145Y-32335000D01*
X45177855Y-32335000D01*
X44213057Y-32734632D01*
X43474632Y-33473057D01*
X43075000Y-34437855D01*
X39625000Y-34437855D01*
X39625000Y-26278943D01*
X40375000Y-26278943D01*
X40375000Y-27721057D01*
X40926873Y-29053398D01*
X41946602Y-30073127D01*
X43278943Y-30625000D01*
X44721057Y-30625000D01*
X46053398Y-30073127D01*
X47073127Y-29053398D01*
X47625000Y-27721057D01*
X47625000Y-27485750D01*
X70761000Y-27485750D01*
X70761000Y-27901320D01*
X70856150Y-28131034D01*
X71031966Y-28306849D01*
X71261680Y-28402000D01*
X71854750Y-28402000D01*
X72011000Y-28245750D01*
X72011000Y-27329500D01*
X70917250Y-27329500D01*
X70761000Y-27485750D01*
X47625000Y-27485750D01*
X47625000Y-26278943D01*
X47535243Y-26062250D01*
X50722000Y-26062250D01*
X50722000Y-26755320D01*
X50817150Y-26985034D01*
X50992966Y-27160849D01*
X51222680Y-27256000D01*
X51915750Y-27256000D01*
X52072000Y-27099750D01*
X52072000Y-25906000D01*
X50878250Y-25906000D01*
X50722000Y-26062250D01*
X47535243Y-26062250D01*
X47073127Y-24946602D01*
X46933205Y-24806680D01*
X50722000Y-24806680D01*
X50722000Y-25499750D01*
X50878250Y-25656000D01*
X52072000Y-25656000D01*
X52072000Y-24462250D01*
X52322000Y-24462250D01*
X52322000Y-25656000D01*
X52342000Y-25656000D01*
X52342000Y-25906000D01*
X52322000Y-25906000D01*
X52322000Y-27099750D01*
X52478250Y-27256000D01*
X53171320Y-27256000D01*
X53401034Y-27160849D01*
X53576850Y-26985034D01*
X53649825Y-26808856D01*
X53673585Y-26844415D01*
X54161484Y-27170419D01*
X54591730Y-27256000D01*
X54882270Y-27256000D01*
X55312516Y-27170419D01*
X55800415Y-26844415D01*
X56007000Y-26535239D01*
X56213585Y-26844415D01*
X56701484Y-27170419D01*
X57131730Y-27256000D01*
X57422270Y-27256000D01*
X57852516Y-27170419D01*
X58340415Y-26844415D01*
X58666419Y-26356516D01*
X58780896Y-25781000D01*
X58666419Y-25205484D01*
X58340415Y-24717585D01*
X57852516Y-24391581D01*
X57422270Y-24306000D01*
X57131730Y-24306000D01*
X56701484Y-24391581D01*
X56213585Y-24717585D01*
X56007000Y-25026761D01*
X55800415Y-24717585D01*
X55312516Y-24391581D01*
X54882270Y-24306000D01*
X54591730Y-24306000D01*
X54161484Y-24391581D01*
X53673585Y-24717585D01*
X53649825Y-24753144D01*
X53576850Y-24576966D01*
X53401034Y-24401151D01*
X53171320Y-24306000D01*
X52478250Y-24306000D01*
X52322000Y-24462250D01*
X52072000Y-24462250D01*
X51915750Y-24306000D01*
X51222680Y-24306000D01*
X50992966Y-24401151D01*
X50817150Y-24576966D01*
X50722000Y-24806680D01*
X46933205Y-24806680D01*
X46053398Y-23926873D01*
X44721057Y-23375000D01*
X43278943Y-23375000D01*
X41946602Y-23926873D01*
X40926873Y-24946602D01*
X40375000Y-26278943D01*
X39625000Y-26278943D01*
X39625000Y-23124952D01*
X73408000Y-23112048D01*
X73408000Y-24203258D01*
X73408000Y-24203258D01*
G37*
X73408000Y-24203258D02*
X73336600Y-24096400D01*
X73129863Y-23958263D01*
X72886000Y-23909756D01*
X71386000Y-23909756D01*
X71142137Y-23958263D01*
X70935400Y-24096400D01*
X70818736Y-24271000D01*
X67164114Y-24271000D01*
X67113600Y-24195400D01*
X66906863Y-24057263D01*
X66663000Y-24008756D01*
X65818000Y-24008756D01*
X65574137Y-24057263D01*
X65367400Y-24195400D01*
X65278000Y-24329197D01*
X65188600Y-24195400D01*
X64981863Y-24057263D01*
X64738000Y-24008756D01*
X63893000Y-24008756D01*
X63649137Y-24057263D01*
X63442400Y-24195400D01*
X63307027Y-24398000D01*
X63299544Y-24398000D01*
X63008875Y-24107331D01*
X62503505Y-23898000D01*
X61956495Y-23898000D01*
X61451125Y-24107331D01*
X61064331Y-24494125D01*
X60855000Y-24999495D01*
X60855000Y-25546505D01*
X61064331Y-26051875D01*
X61451125Y-26438669D01*
X61956495Y-26648000D01*
X62503505Y-26648000D01*
X63008875Y-26438669D01*
X63299544Y-26148000D01*
X63519326Y-26148000D01*
X63649137Y-26234737D01*
X63893000Y-26283244D01*
X64738000Y-26283244D01*
X64981863Y-26234737D01*
X65188600Y-26096600D01*
X65278000Y-25962803D01*
X65367400Y-26096600D01*
X65574137Y-26234737D01*
X65818000Y-26283244D01*
X66663000Y-26283244D01*
X66906863Y-26234737D01*
X67113600Y-26096600D01*
X67164114Y-26021000D01*
X70854150Y-26021000D01*
X70935400Y-26142600D01*
X70969039Y-26165077D01*
X70856150Y-26277966D01*
X70761000Y-26507680D01*
X70761000Y-26923250D01*
X70917250Y-27079500D01*
X72011000Y-27079500D01*
X72011000Y-27059500D01*
X72261000Y-27059500D01*
X72261000Y-27079500D01*
X72281000Y-27079500D01*
X72281000Y-27329500D01*
X72261000Y-27329500D01*
X72261000Y-28245750D01*
X72417250Y-28402000D01*
X73010320Y-28402000D01*
X73240034Y-28306849D01*
X73408000Y-28138884D01*
X73408000Y-36131500D01*
X73408003Y-36132362D01*
X73471500Y-45339427D01*
X73471500Y-48612064D01*
X72122000Y-47262564D01*
X72122000Y-33000178D01*
X72139142Y-32914000D01*
X72122000Y-32827821D01*
X72071232Y-32572592D01*
X71877840Y-32283160D01*
X71804780Y-32234343D01*
X69365659Y-29795223D01*
X69316840Y-29722160D01*
X69027408Y-29528768D01*
X68772179Y-29478000D01*
X68772178Y-29478000D01*
X68686000Y-29460858D01*
X68599822Y-29478000D01*
X59522177Y-29478000D01*
X59435999Y-29460858D01*
X59349821Y-29478000D01*
X59094592Y-29528768D01*
X58805160Y-29722160D01*
X58756343Y-29795220D01*
X58627210Y-29924353D01*
X58652000Y-29864505D01*
X58652000Y-29317495D01*
X58442669Y-28812125D01*
X58055875Y-28425331D01*
X57550505Y-28216000D01*
X57003495Y-28216000D01*
X56498125Y-28425331D01*
X56111331Y-28812125D01*
X56007000Y-29064002D01*
X55902669Y-28812125D01*
X55515875Y-28425331D01*
X55010505Y-28216000D01*
X54463495Y-28216000D01*
X53958125Y-28425331D01*
X53571331Y-28812125D01*
X53362000Y-29317495D01*
X53362000Y-29864505D01*
X53571331Y-30369875D01*
X53735001Y-30533545D01*
X53735000Y-42331822D01*
X53717858Y-42418000D01*
X53735000Y-42504178D01*
X53785768Y-42759407D01*
X53979160Y-43048840D01*
X54052223Y-43097659D01*
X54394320Y-43439756D01*
X53880000Y-43439756D01*
X53636137Y-43488263D01*
X53429400Y-43626400D01*
X53343254Y-43755327D01*
X53329849Y-43722966D01*
X53154034Y-43547150D01*
X52924320Y-43452000D01*
X52658750Y-43452000D01*
X52502500Y-43608250D01*
X52502500Y-44452000D01*
X52522500Y-44452000D01*
X52522500Y-44702000D01*
X52502500Y-44702000D01*
X52502500Y-45545750D01*
X52658750Y-45702000D01*
X52924320Y-45702000D01*
X53154034Y-45606850D01*
X53329849Y-45431034D01*
X53343254Y-45398673D01*
X53429400Y-45527600D01*
X53636137Y-45665737D01*
X53880000Y-45714244D01*
X54551910Y-45714244D01*
X54505000Y-45827495D01*
X54505000Y-46374505D01*
X54714331Y-46879875D01*
X54996897Y-47162441D01*
X55031874Y-47338280D01*
X55055769Y-47458408D01*
X55249161Y-47747840D01*
X55322221Y-47796657D01*
X55962343Y-48436779D01*
X56011160Y-48509840D01*
X56222647Y-48651151D01*
X56300592Y-48703232D01*
X56642000Y-48771142D01*
X56728179Y-48754000D01*
X57173001Y-48754000D01*
X57173001Y-49031562D01*
X55644564Y-50560000D01*
X49743179Y-50560000D01*
X49657000Y-50542858D01*
X49315591Y-50610768D01*
X49255380Y-50651000D01*
X49026160Y-50804160D01*
X48977343Y-50877220D01*
X48210223Y-51644341D01*
X48137160Y-51693160D01*
X47943768Y-51982593D01*
X47903281Y-52186137D01*
X47875858Y-52324000D01*
X47893000Y-52410178D01*
X47893001Y-58440690D01*
X47186943Y-57734632D01*
X46222145Y-57335000D01*
X45177855Y-57335000D01*
X44213057Y-57734632D01*
X43474632Y-58473057D01*
X43075000Y-59437855D01*
X43075000Y-60482145D01*
X43474632Y-61446943D01*
X44213057Y-62185368D01*
X45177855Y-62585000D01*
X46222145Y-62585000D01*
X47186943Y-62185368D01*
X47925368Y-61446943D01*
X48212737Y-60753173D01*
X48596341Y-61136777D01*
X48645160Y-61209840D01*
X48934592Y-61403232D01*
X49189821Y-61454000D01*
X49275999Y-61471142D01*
X49362177Y-61454000D01*
X52871117Y-61454000D01*
X52822151Y-61502966D01*
X52727000Y-61732680D01*
X52727000Y-62075750D01*
X52883250Y-62232000D01*
X53649500Y-62232000D01*
X53649500Y-62212000D01*
X53899500Y-62212000D01*
X53899500Y-62232000D01*
X53919500Y-62232000D01*
X53919500Y-62482000D01*
X53899500Y-62482000D01*
X53899500Y-63325750D01*
X54055750Y-63482000D01*
X54321320Y-63482000D01*
X54551034Y-63386850D01*
X54726849Y-63211034D01*
X54740254Y-63178673D01*
X54826400Y-63307600D01*
X55033137Y-63445737D01*
X55277000Y-63494244D01*
X56122000Y-63494244D01*
X56365863Y-63445737D01*
X56572600Y-63307600D01*
X56638114Y-63209551D01*
X59196001Y-65767438D01*
X59196000Y-68526456D01*
X58905331Y-68817125D01*
X58696000Y-69322495D01*
X58696000Y-69869505D01*
X58905331Y-70374875D01*
X59078956Y-70548500D01*
X58905331Y-70722125D01*
X58696000Y-71227495D01*
X58696000Y-71774505D01*
X58905331Y-72279875D01*
X59292125Y-72666669D01*
X59797495Y-72876000D01*
X60344505Y-72876000D01*
X60849875Y-72666669D01*
X61236669Y-72279875D01*
X61283119Y-72167735D01*
X61336840Y-72131840D01*
X61385659Y-72058777D01*
X62152780Y-71291657D01*
X62225840Y-71242840D01*
X62349500Y-71057769D01*
X62419232Y-70953409D01*
X62487142Y-70612000D01*
X62470000Y-70525821D01*
X62470000Y-67725495D01*
X64284000Y-67725495D01*
X64284000Y-68272505D01*
X64493331Y-68777875D01*
X64880125Y-69164669D01*
X65385495Y-69374000D01*
X65932505Y-69374000D01*
X66437875Y-69164669D01*
X66824669Y-68777875D01*
X67034000Y-68272505D01*
X67034000Y-67725495D01*
X66824669Y-67220125D01*
X66437875Y-66833331D01*
X65932505Y-66624000D01*
X65385495Y-66624000D01*
X64880125Y-66833331D01*
X64493331Y-67220125D01*
X64284000Y-67725495D01*
X62470000Y-67725495D01*
X62470000Y-65237177D01*
X62487142Y-65150999D01*
X62470000Y-65064821D01*
X62419232Y-64809592D01*
X62225840Y-64520160D01*
X62152780Y-64471343D01*
X61667437Y-63986000D01*
X62122505Y-63986000D01*
X62627875Y-63776669D01*
X63014669Y-63389875D01*
X63224000Y-62884505D01*
X63224000Y-62845495D01*
X64284000Y-62845495D01*
X64284000Y-63392505D01*
X64493331Y-63897875D01*
X64880125Y-64284669D01*
X65385495Y-64494000D01*
X65932505Y-64494000D01*
X66437875Y-64284669D01*
X66824669Y-63897875D01*
X67034000Y-63392505D01*
X67034000Y-62845495D01*
X66824669Y-62340125D01*
X66437875Y-61953331D01*
X65932505Y-61744000D01*
X65385495Y-61744000D01*
X64880125Y-61953331D01*
X64493331Y-62340125D01*
X64284000Y-62845495D01*
X63224000Y-62845495D01*
X63224000Y-62337495D01*
X63014669Y-61832125D01*
X62714044Y-61531500D01*
X63014669Y-61230875D01*
X63224000Y-60725505D01*
X63224000Y-60178495D01*
X63014669Y-59673125D01*
X62981788Y-59640244D01*
X64400000Y-59640244D01*
X64643863Y-59591737D01*
X64850600Y-59453600D01*
X64988737Y-59246863D01*
X65037244Y-59003000D01*
X65037244Y-56503000D01*
X65460498Y-56503000D01*
X65571592Y-56577231D01*
X65913000Y-56645142D01*
X66254408Y-56577231D01*
X66470780Y-56432656D01*
X66724777Y-56178659D01*
X66797840Y-56129840D01*
X66991232Y-55840408D01*
X67042000Y-55585179D01*
X67042000Y-55585178D01*
X67059142Y-55499001D01*
X67042000Y-55412823D01*
X67042000Y-52785436D01*
X69991001Y-55734438D01*
X69991000Y-61889821D01*
X69991000Y-61889822D01*
X69991001Y-69868562D01*
X68725564Y-71134000D01*
X63840177Y-71134000D01*
X63753999Y-71116858D01*
X63667821Y-71134000D01*
X63412592Y-71184768D01*
X63123160Y-71378160D01*
X63074343Y-71451220D01*
X61364721Y-73160843D01*
X61291661Y-73209660D01*
X61242844Y-73282720D01*
X61098269Y-73499092D01*
X61030358Y-73840500D01*
X61047501Y-73926683D01*
X61047500Y-82872243D01*
X60960000Y-83003197D01*
X60870600Y-82869400D01*
X60663863Y-82731263D01*
X60420000Y-82682756D01*
X60389450Y-82682756D01*
X60418244Y-82538000D01*
X60418244Y-81038000D01*
X60369737Y-80794137D01*
X60231600Y-80587400D01*
X60024863Y-80449263D01*
X59781000Y-80400756D01*
X58636000Y-80400756D01*
X58392137Y-80449263D01*
X58185400Y-80587400D01*
X58162923Y-80621039D01*
X58050034Y-80508150D01*
X57820320Y-80413000D01*
X57404750Y-80413000D01*
X57248500Y-80569250D01*
X57248500Y-81663000D01*
X57268500Y-81663000D01*
X57268500Y-81913000D01*
X57248500Y-81913000D01*
X57248500Y-83006750D01*
X57404750Y-83163000D01*
X57820320Y-83163000D01*
X58050034Y-83067850D01*
X58162923Y-82954961D01*
X58185400Y-82988600D01*
X58326705Y-83083017D01*
X58363951Y-83270263D01*
X58384269Y-83372408D01*
X58577661Y-83661840D01*
X58650721Y-83710657D01*
X58937756Y-83997692D01*
X58937756Y-84320000D01*
X58986263Y-84563863D01*
X59122500Y-84767757D01*
X59122501Y-85007756D01*
X59018000Y-85007756D01*
X58774137Y-85056263D01*
X58567400Y-85194400D01*
X58429263Y-85401137D01*
X58380756Y-85645000D01*
X58380756Y-86445000D01*
X58429263Y-86688863D01*
X58567400Y-86895600D01*
X58714804Y-86994092D01*
X58663966Y-87015150D01*
X58488151Y-87190966D01*
X58393000Y-87420680D01*
X58393000Y-87663750D01*
X58549250Y-87820000D01*
X59843000Y-87820000D01*
X59843000Y-87800000D01*
X60093000Y-87800000D01*
X60093000Y-87820000D01*
X61386750Y-87820000D01*
X61484788Y-87721962D01*
X61567400Y-87845600D01*
X61774137Y-87983737D01*
X62018000Y-88032244D01*
X63918000Y-88032244D01*
X64161863Y-87983737D01*
X64332083Y-87870000D01*
X64910825Y-87870000D01*
X65012633Y-88022367D01*
X65151736Y-88115313D01*
X64996137Y-88146263D01*
X64789400Y-88284400D01*
X64651263Y-88491137D01*
X64602756Y-88735000D01*
X64602756Y-90335000D01*
X64651263Y-90578863D01*
X64789400Y-90785600D01*
X64996137Y-90923737D01*
X65240000Y-90972244D01*
X66840000Y-90972244D01*
X67083863Y-90923737D01*
X67290600Y-90785600D01*
X67428737Y-90578863D01*
X67446956Y-90487270D01*
X67455137Y-90492737D01*
X67699000Y-90541244D01*
X68699000Y-90541244D01*
X68942863Y-90492737D01*
X69149600Y-90354600D01*
X69287737Y-90147863D01*
X69336244Y-89904000D01*
X69336244Y-89059000D01*
X69287737Y-88815137D01*
X69149600Y-88608400D01*
X69015803Y-88519000D01*
X69149600Y-88429600D01*
X69287737Y-88222863D01*
X69336244Y-87979000D01*
X69336244Y-87134000D01*
X69287737Y-86890137D01*
X69149600Y-86683400D01*
X69074000Y-86632886D01*
X69074000Y-85706114D01*
X69149600Y-85655600D01*
X69287737Y-85448863D01*
X69336244Y-85205000D01*
X69336244Y-84455000D01*
X77414083Y-84455000D01*
X77524680Y-85011007D01*
X77839633Y-85482367D01*
X78310993Y-85797320D01*
X78726652Y-85880000D01*
X79007348Y-85880000D01*
X79423007Y-85797320D01*
X79894367Y-85482367D01*
X79987313Y-85343264D01*
X80018263Y-85498863D01*
X80156400Y-85705600D01*
X80363137Y-85843737D01*
X80607000Y-85892244D01*
X82207000Y-85892244D01*
X82450863Y-85843737D01*
X82657600Y-85705600D01*
X82795737Y-85498863D01*
X82844244Y-85255000D01*
X82844244Y-83655000D01*
X82795737Y-83411137D01*
X82657600Y-83204400D01*
X82450863Y-83066263D01*
X82207000Y-83017756D01*
X80607000Y-83017756D01*
X80363137Y-83066263D01*
X80156400Y-83204400D01*
X80018263Y-83411137D01*
X79987313Y-83566736D01*
X79894367Y-83427633D01*
X79423007Y-83112680D01*
X79007348Y-83030000D01*
X78726652Y-83030000D01*
X78310993Y-83112680D01*
X77839633Y-83427633D01*
X77524680Y-83898993D01*
X77414083Y-84455000D01*
X69336244Y-84455000D01*
X69336244Y-84360000D01*
X69287737Y-84116137D01*
X69149600Y-83909400D01*
X69015803Y-83820000D01*
X69149600Y-83730600D01*
X69287737Y-83523863D01*
X69336244Y-83280000D01*
X69336244Y-82435000D01*
X69287737Y-82191137D01*
X69149600Y-81984400D01*
X68942863Y-81846263D01*
X68699000Y-81797756D01*
X67699000Y-81797756D01*
X67455137Y-81846263D01*
X67418004Y-81871074D01*
X67290600Y-81680400D01*
X67083863Y-81542263D01*
X66928264Y-81511313D01*
X67067367Y-81418367D01*
X67382320Y-80947007D01*
X67492917Y-80391000D01*
X67382320Y-79834993D01*
X67067367Y-79363633D01*
X66939000Y-79277861D01*
X66939000Y-77618244D01*
X67014000Y-77618244D01*
X67257863Y-77569737D01*
X67464600Y-77431600D01*
X67476756Y-77413407D01*
X67476756Y-77931000D01*
X67525263Y-78174863D01*
X67663400Y-78381600D01*
X67870137Y-78519737D01*
X68114000Y-78568244D01*
X70014000Y-78568244D01*
X70220587Y-78527152D01*
X70300400Y-78646600D01*
X70507137Y-78784737D01*
X70751000Y-78833244D01*
X72251000Y-78833244D01*
X72494863Y-78784737D01*
X72701600Y-78646600D01*
X72839737Y-78439863D01*
X72843430Y-78421297D01*
X73043137Y-78554737D01*
X73287000Y-78603244D01*
X74287000Y-78603244D01*
X74530863Y-78554737D01*
X74737600Y-78416600D01*
X74875737Y-78209863D01*
X74924244Y-77966000D01*
X74924244Y-77180522D01*
X77484514Y-77180522D01*
X77721975Y-77683275D01*
X78133756Y-78056886D01*
X78521479Y-78217476D01*
X78742000Y-78097577D01*
X78742000Y-76960000D01*
X77603733Y-76960000D01*
X77484514Y-77180522D01*
X74924244Y-77180522D01*
X74924244Y-77121000D01*
X74875737Y-76877137D01*
X74737600Y-76670400D01*
X74603803Y-76581000D01*
X74737600Y-76491600D01*
X74739017Y-76489478D01*
X77484514Y-76489478D01*
X77603733Y-76710000D01*
X78742000Y-76710000D01*
X78742000Y-75572423D01*
X78992000Y-75572423D01*
X78992000Y-76710000D01*
X79012000Y-76710000D01*
X79012000Y-76960000D01*
X78992000Y-76960000D01*
X78992000Y-78097577D01*
X79212521Y-78217476D01*
X79600244Y-78056886D01*
X80012025Y-77683275D01*
X80114707Y-77465877D01*
X80379633Y-77862367D01*
X80850993Y-78177320D01*
X81266652Y-78260000D01*
X81547348Y-78260000D01*
X81963007Y-78177320D01*
X82434367Y-77862367D01*
X82749320Y-77391007D01*
X82859917Y-76835000D01*
X82749320Y-76278993D01*
X82434367Y-75807633D01*
X81963007Y-75492680D01*
X81547348Y-75410000D01*
X81266652Y-75410000D01*
X80850993Y-75492680D01*
X80379633Y-75807633D01*
X80114707Y-76204123D01*
X80012025Y-75986725D01*
X79600244Y-75613114D01*
X79212521Y-75452524D01*
X78992000Y-75572423D01*
X78742000Y-75572423D01*
X78521479Y-75452524D01*
X78133756Y-75613114D01*
X77721975Y-75986725D01*
X77484514Y-76489478D01*
X74739017Y-76489478D01*
X74875737Y-76284863D01*
X74924244Y-76041000D01*
X74924244Y-75196000D01*
X74875737Y-74952137D01*
X74737600Y-74745400D01*
X74662000Y-74694886D01*
X74662000Y-74381177D01*
X74679142Y-74294999D01*
X74655626Y-74176777D01*
X74611232Y-73953592D01*
X74417840Y-73664160D01*
X74344780Y-73615343D01*
X72503000Y-71773564D01*
X72503000Y-58246436D01*
X73361341Y-59104777D01*
X73410160Y-59177840D01*
X73699592Y-59371232D01*
X73954821Y-59422000D01*
X74040999Y-59439142D01*
X74127177Y-59422000D01*
X79012564Y-59422000D01*
X79770001Y-60179438D01*
X79770000Y-71795822D01*
X79752858Y-71882000D01*
X79770000Y-71968178D01*
X79820768Y-72223407D01*
X80014160Y-72512840D01*
X80087223Y-72561659D01*
X86945219Y-79419656D01*
X86945222Y-79419658D01*
X88093343Y-80567780D01*
X88142160Y-80640840D01*
X88431592Y-80834232D01*
X88686821Y-80885000D01*
X88772999Y-80902142D01*
X88859177Y-80885000D01*
X91513064Y-80885000D01*
X91632400Y-81063600D01*
X91766197Y-81153000D01*
X91632400Y-81242400D01*
X91494263Y-81449137D01*
X91445756Y-81693000D01*
X91445756Y-82538000D01*
X91464656Y-82633015D01*
X91413137Y-82643263D01*
X91295866Y-82721621D01*
X91243600Y-82643400D01*
X91036863Y-82505263D01*
X90793000Y-82456756D01*
X89293000Y-82456756D01*
X89049137Y-82505263D01*
X88842400Y-82643400D01*
X88704263Y-82850137D01*
X88655756Y-83094000D01*
X88655756Y-84239000D01*
X88704263Y-84482863D01*
X88842400Y-84689600D01*
X88876039Y-84712077D01*
X88763150Y-84824966D01*
X88668000Y-85054680D01*
X88668000Y-85470250D01*
X88824250Y-85626500D01*
X89918000Y-85626500D01*
X89918000Y-85606500D01*
X90168000Y-85606500D01*
X90168000Y-85626500D01*
X90188000Y-85626500D01*
X90188000Y-85876500D01*
X90168000Y-85876500D01*
X90168000Y-86792750D01*
X90324250Y-86949000D01*
X90917320Y-86949000D01*
X91147034Y-86853849D01*
X91322850Y-86678034D01*
X91396370Y-86500539D01*
X91532680Y-86557000D01*
X92325750Y-86557000D01*
X92482000Y-86400750D01*
X92482000Y-85657000D01*
X92732000Y-85657000D01*
X92732000Y-86400750D01*
X92888250Y-86557000D01*
X93681320Y-86557000D01*
X93911034Y-86461850D01*
X94086849Y-86286034D01*
X94182000Y-86056320D01*
X94182000Y-85813250D01*
X94025750Y-85657000D01*
X92732000Y-85657000D01*
X92482000Y-85657000D01*
X92462000Y-85657000D01*
X92462000Y-85407000D01*
X92482000Y-85407000D01*
X92482000Y-85387000D01*
X92732000Y-85387000D01*
X92732000Y-85407000D01*
X94025750Y-85407000D01*
X94123788Y-85308962D01*
X94206400Y-85432600D01*
X94413137Y-85570737D01*
X94550001Y-85597961D01*
X94550000Y-87527296D01*
X87990000Y-87473437D01*
X87990000Y-86032750D01*
X88668000Y-86032750D01*
X88668000Y-86448320D01*
X88763150Y-86678034D01*
X88938966Y-86853849D01*
X89168680Y-86949000D01*
X89761750Y-86949000D01*
X89918000Y-86792750D01*
X89918000Y-85876500D01*
X88824250Y-85876500D01*
X88668000Y-86032750D01*
X87990000Y-86032750D01*
X87990000Y-82248177D01*
X88007142Y-82161999D01*
X87971815Y-81984400D01*
X87939232Y-81820592D01*
X87745840Y-81531160D01*
X87672780Y-81482343D01*
X86023659Y-79833223D01*
X85974840Y-79760160D01*
X85685408Y-79566768D01*
X85430179Y-79516000D01*
X85430178Y-79516000D01*
X85344000Y-79498858D01*
X85257822Y-79516000D01*
X74789175Y-79516000D01*
X74687367Y-79363633D01*
X74216007Y-79048680D01*
X73800348Y-78966000D01*
X73519652Y-78966000D01*
X73103993Y-79048680D01*
X72632633Y-79363633D01*
X72317680Y-79834993D01*
X72207083Y-80391000D01*
X72317680Y-80947007D01*
X72632633Y-81418367D01*
X72995759Y-81661000D01*
X72632633Y-81903633D01*
X72317680Y-82374993D01*
X72207083Y-82931000D01*
X72317680Y-83487007D01*
X72632633Y-83958367D01*
X73103993Y-84273320D01*
X73519652Y-84356000D01*
X73800348Y-84356000D01*
X74216007Y-84273320D01*
X74687367Y-83958367D01*
X75002320Y-83487007D01*
X75008749Y-83454687D01*
X75800437Y-82663000D01*
X82314564Y-82663000D01*
X83453000Y-83801437D01*
X83453001Y-85892816D01*
X83435858Y-85979000D01*
X83470000Y-86150644D01*
X83470001Y-87436326D01*
X82209056Y-87425974D01*
X82205840Y-87421160D01*
X82132780Y-87372343D01*
X81197659Y-86437223D01*
X81148840Y-86364160D01*
X80859408Y-86170768D01*
X80604179Y-86120000D01*
X80604178Y-86120000D01*
X80518000Y-86102858D01*
X80431822Y-86120000D01*
X74789175Y-86120000D01*
X74687367Y-85967633D01*
X74216007Y-85652680D01*
X73800348Y-85570000D01*
X73519652Y-85570000D01*
X73103993Y-85652680D01*
X72632633Y-85967633D01*
X72317680Y-86438993D01*
X72207083Y-86995000D01*
X72317680Y-87551007D01*
X72632633Y-88022367D01*
X72995759Y-88265000D01*
X72632633Y-88507633D01*
X72317680Y-88978993D01*
X72207083Y-89535000D01*
X72317680Y-90091007D01*
X72632633Y-90562367D01*
X73103993Y-90877320D01*
X73519652Y-90960000D01*
X73800348Y-90960000D01*
X73839730Y-90952166D01*
X74445343Y-91557780D01*
X74494160Y-91630840D01*
X74647293Y-91733160D01*
X74783591Y-91824232D01*
X75038821Y-91875000D01*
X45324611Y-91875000D01*
X46053398Y-91573127D01*
X47073127Y-90553398D01*
X47625000Y-89221057D01*
X47625000Y-88226250D01*
X58393000Y-88226250D01*
X58393000Y-88469320D01*
X58488151Y-88699034D01*
X58663966Y-88874850D01*
X58893680Y-88970000D01*
X59686750Y-88970000D01*
X59843000Y-88813750D01*
X59843000Y-88070000D01*
X60093000Y-88070000D01*
X60093000Y-88813750D01*
X60249250Y-88970000D01*
X61042320Y-88970000D01*
X61272034Y-88874850D01*
X61447849Y-88699034D01*
X61543000Y-88469320D01*
X61543000Y-88226250D01*
X61386750Y-88070000D01*
X60093000Y-88070000D01*
X59843000Y-88070000D01*
X58549250Y-88070000D01*
X58393000Y-88226250D01*
X47625000Y-88226250D01*
X47625000Y-87778943D01*
X47073127Y-86446602D01*
X46053398Y-85426873D01*
X45173417Y-85062373D01*
X50637946Y-85062373D01*
X50882185Y-85583497D01*
X51307258Y-85971487D01*
X51716628Y-86141045D01*
X51945000Y-86021812D01*
X51945000Y-84834000D01*
X50756547Y-84834000D01*
X50637946Y-85062373D01*
X45173417Y-85062373D01*
X44721057Y-84875000D01*
X43278943Y-84875000D01*
X41946602Y-85426873D01*
X40926873Y-86446602D01*
X40375000Y-87778943D01*
X40375000Y-89221057D01*
X40926873Y-90553398D01*
X41946602Y-91573127D01*
X42675389Y-91875000D01*
X39625000Y-91875000D01*
X39625000Y-84355627D01*
X50637946Y-84355627D01*
X50756547Y-84584000D01*
X51945000Y-84584000D01*
X51945000Y-83396188D01*
X52195000Y-83396188D01*
X52195000Y-84584000D01*
X52215000Y-84584000D01*
X52215000Y-84834000D01*
X52195000Y-84834000D01*
X52195000Y-86021812D01*
X52423372Y-86141045D01*
X52832742Y-85971487D01*
X53147633Y-85684067D01*
X53171263Y-85802863D01*
X53309400Y-86009600D01*
X53516137Y-86147737D01*
X53760000Y-86196244D01*
X55460000Y-86196244D01*
X55703863Y-86147737D01*
X55910600Y-86009600D01*
X56048737Y-85802863D01*
X56097244Y-85559000D01*
X56097244Y-83859000D01*
X56048737Y-83615137D01*
X55910600Y-83408400D01*
X55703863Y-83270263D01*
X55460000Y-83221756D01*
X53760000Y-83221756D01*
X53516137Y-83270263D01*
X53309400Y-83408400D01*
X53171263Y-83615137D01*
X53147633Y-83733933D01*
X52832742Y-83446513D01*
X52423372Y-83276955D01*
X52195000Y-83396188D01*
X51945000Y-83396188D01*
X51716628Y-83276955D01*
X51307258Y-83446513D01*
X50882185Y-83834503D01*
X50637946Y-84355627D01*
X39625000Y-84355627D01*
X39625000Y-82069250D01*
X55926000Y-82069250D01*
X55926000Y-82662320D01*
X56021151Y-82892034D01*
X56196966Y-83067850D01*
X56426680Y-83163000D01*
X56842250Y-83163000D01*
X56998500Y-83006750D01*
X56998500Y-81913000D01*
X56082250Y-81913000D01*
X55926000Y-82069250D01*
X39625000Y-82069250D01*
X39625000Y-80913680D01*
X55926000Y-80913680D01*
X55926000Y-81506750D01*
X56082250Y-81663000D01*
X56998500Y-81663000D01*
X56998500Y-80569250D01*
X56842250Y-80413000D01*
X56426680Y-80413000D01*
X56196966Y-80508150D01*
X56021151Y-80683966D01*
X55926000Y-80913680D01*
X39625000Y-80913680D01*
X39625000Y-80128821D01*
X40577955Y-80128821D01*
X40719790Y-80429444D01*
X41452365Y-80713460D01*
X42237865Y-80695512D01*
X42880210Y-80429444D01*
X43022045Y-80128821D01*
X41800000Y-78906777D01*
X40577955Y-80128821D01*
X39625000Y-80128821D01*
X39625000Y-78382365D01*
X39816540Y-78382365D01*
X39834488Y-79167865D01*
X40100556Y-79810210D01*
X40401179Y-79952045D01*
X41623223Y-78730000D01*
X41976777Y-78730000D01*
X43198821Y-79952045D01*
X43499444Y-79810210D01*
X43783460Y-79077635D01*
X43765512Y-78292135D01*
X43499444Y-77649790D01*
X43198821Y-77507955D01*
X41976777Y-78730000D01*
X41623223Y-78730000D01*
X40401179Y-77507955D01*
X40100556Y-77649790D01*
X39816540Y-78382365D01*
X39625000Y-78382365D01*
X39625000Y-77331179D01*
X40577955Y-77331179D01*
X41800000Y-78553223D01*
X43022045Y-77331179D01*
X42880210Y-77030556D01*
X42147635Y-76746540D01*
X41362135Y-76764488D01*
X40719790Y-77030556D01*
X40577955Y-77331179D01*
X39625000Y-77331179D01*
X39625000Y-74972023D01*
X43704754Y-74972023D01*
X43774354Y-75211429D01*
X44293183Y-75396907D01*
X44843500Y-75369720D01*
X45225646Y-75211429D01*
X45295246Y-74972023D01*
X44500000Y-74176777D01*
X43704754Y-74972023D01*
X39625000Y-74972023D01*
X39625000Y-73793183D01*
X43103093Y-73793183D01*
X43130280Y-74343500D01*
X43288571Y-74725646D01*
X43527977Y-74795246D01*
X44323223Y-74000000D01*
X43527977Y-73204754D01*
X43288571Y-73274354D01*
X43103093Y-73793183D01*
X39625000Y-73793183D01*
X39625000Y-71184506D01*
X43115000Y-71184506D01*
X43115000Y-71735494D01*
X43325853Y-72244540D01*
X43715460Y-72634147D01*
X43931313Y-72723556D01*
X43774354Y-72788571D01*
X43704754Y-73027977D01*
X44500000Y-73823223D01*
X45295246Y-73027977D01*
X45225646Y-72788571D01*
X45057150Y-72728335D01*
X45284540Y-72634147D01*
X45500000Y-72418687D01*
X45715460Y-72634147D01*
X45946870Y-72730000D01*
X45715460Y-72825853D01*
X45325853Y-73215460D01*
X45230066Y-73446711D01*
X44676777Y-74000000D01*
X45230066Y-74553289D01*
X45325853Y-74784540D01*
X45715460Y-75174147D01*
X46224506Y-75385000D01*
X46775494Y-75385000D01*
X47284540Y-75174147D01*
X47674147Y-74784540D01*
X47885000Y-74275494D01*
X47885000Y-73724506D01*
X47674147Y-73215460D01*
X47284540Y-72825853D01*
X47053130Y-72730000D01*
X47284540Y-72634147D01*
X47674147Y-72244540D01*
X47885000Y-71735494D01*
X47885000Y-71184506D01*
X47674147Y-70675460D01*
X47284540Y-70285853D01*
X46775494Y-70075000D01*
X46224506Y-70075000D01*
X45715460Y-70285853D01*
X45500000Y-70501313D01*
X45284540Y-70285853D01*
X44775494Y-70075000D01*
X44224506Y-70075000D01*
X43715460Y-70285853D01*
X43325853Y-70675460D01*
X43115000Y-71184506D01*
X39625000Y-71184506D01*
X39625000Y-68128821D01*
X40577955Y-68128821D01*
X40719790Y-68429444D01*
X41452365Y-68713460D01*
X42237865Y-68695512D01*
X42880210Y-68429444D01*
X43022045Y-68128821D01*
X41800000Y-66906777D01*
X40577955Y-68128821D01*
X39625000Y-68128821D01*
X39625000Y-66382365D01*
X39816540Y-66382365D01*
X39834488Y-67167865D01*
X40100556Y-67810210D01*
X40401179Y-67952045D01*
X41623223Y-66730000D01*
X41976777Y-66730000D01*
X43198821Y-67952045D01*
X43499444Y-67810210D01*
X43783460Y-67077635D01*
X43765512Y-66292135D01*
X43499444Y-65649790D01*
X43198821Y-65507955D01*
X41976777Y-66730000D01*
X41623223Y-66730000D01*
X40401179Y-65507955D01*
X40100556Y-65649790D01*
X39816540Y-66382365D01*
X39625000Y-66382365D01*
X39625000Y-65331179D01*
X40577955Y-65331179D01*
X41800000Y-66553223D01*
X43022045Y-65331179D01*
X42880210Y-65030556D01*
X42147635Y-64746540D01*
X41362135Y-64764488D01*
X40719790Y-65030556D01*
X40577955Y-65331179D01*
X39625000Y-65331179D01*
X39625000Y-62638250D01*
X52727000Y-62638250D01*
X52727000Y-62981320D01*
X52822151Y-63211034D01*
X52997966Y-63386850D01*
X53227680Y-63482000D01*
X53493250Y-63482000D01*
X53649500Y-63325750D01*
X53649500Y-62482000D01*
X52883250Y-62482000D01*
X52727000Y-62638250D01*
X39625000Y-62638250D01*
X39625000Y-43021550D01*
X41735000Y-43021550D01*
X41735000Y-43588450D01*
X41951944Y-44112197D01*
X42352803Y-44513056D01*
X42779982Y-44690000D01*
X42352803Y-44866944D01*
X41951944Y-45267803D01*
X41735000Y-45791550D01*
X41735000Y-46358450D01*
X41951944Y-46882197D01*
X42352803Y-47283056D01*
X42779982Y-47460000D01*
X42352803Y-47636944D01*
X41951944Y-48037803D01*
X41735000Y-48561550D01*
X41735000Y-49128450D01*
X41951944Y-49652197D01*
X42352803Y-50053056D01*
X42779982Y-50230000D01*
X42352803Y-50406944D01*
X41951944Y-50807803D01*
X41735000Y-51331550D01*
X41735000Y-51898450D01*
X41951944Y-52422197D01*
X42352803Y-52823056D01*
X42876550Y-53040000D01*
X43443450Y-53040000D01*
X43967197Y-52823056D01*
X44368056Y-52422197D01*
X44460093Y-52200000D01*
X44562756Y-52200000D01*
X44562756Y-53800000D01*
X44611263Y-54043863D01*
X44749400Y-54250600D01*
X44956137Y-54388737D01*
X45200000Y-54437244D01*
X46800000Y-54437244D01*
X47043863Y-54388737D01*
X47250600Y-54250600D01*
X47388737Y-54043863D01*
X47437244Y-53800000D01*
X47437244Y-52200000D01*
X47388737Y-51956137D01*
X47250600Y-51749400D01*
X47043863Y-51611263D01*
X46800000Y-51562756D01*
X46506146Y-51562756D01*
X46807197Y-51438056D01*
X47208056Y-51037197D01*
X47425000Y-50513450D01*
X47425000Y-49946550D01*
X47208056Y-49422803D01*
X46807197Y-49021944D01*
X46380018Y-48845000D01*
X46807197Y-48668056D01*
X47208056Y-48267197D01*
X47425000Y-47743450D01*
X47425000Y-47176550D01*
X47208056Y-46652803D01*
X46807197Y-46251944D01*
X46380018Y-46075000D01*
X46807197Y-45898056D01*
X47208056Y-45497197D01*
X47425000Y-44973450D01*
X47425000Y-44858250D01*
X51330000Y-44858250D01*
X51330000Y-45201320D01*
X51425151Y-45431034D01*
X51600966Y-45606850D01*
X51830680Y-45702000D01*
X52096250Y-45702000D01*
X52252500Y-45545750D01*
X52252500Y-44702000D01*
X51486250Y-44702000D01*
X51330000Y-44858250D01*
X47425000Y-44858250D01*
X47425000Y-44406550D01*
X47237001Y-43952680D01*
X51330000Y-43952680D01*
X51330000Y-44295750D01*
X51486250Y-44452000D01*
X52252500Y-44452000D01*
X52252500Y-43608250D01*
X52096250Y-43452000D01*
X51830680Y-43452000D01*
X51600966Y-43547150D01*
X51425151Y-43722966D01*
X51330000Y-43952680D01*
X47237001Y-43952680D01*
X47208056Y-43882803D01*
X46807197Y-43481944D01*
X46395326Y-43311341D01*
X46749709Y-43164550D01*
X46824223Y-42921000D01*
X46000000Y-42096777D01*
X45175777Y-42921000D01*
X45250291Y-43164550D01*
X45629338Y-43301124D01*
X45192803Y-43481944D01*
X44791944Y-43882803D01*
X44575000Y-44406550D01*
X44575000Y-44973450D01*
X44791944Y-45497197D01*
X45192803Y-45898056D01*
X45619982Y-46075000D01*
X45192803Y-46251944D01*
X44791944Y-46652803D01*
X44575000Y-47176550D01*
X44575000Y-47743450D01*
X44791944Y-48267197D01*
X45192803Y-48668056D01*
X45619982Y-48845000D01*
X45192803Y-49021944D01*
X44791944Y-49422803D01*
X44575000Y-49946550D01*
X44575000Y-50513450D01*
X44791944Y-51037197D01*
X45192803Y-51438056D01*
X45493854Y-51562756D01*
X45200000Y-51562756D01*
X44956137Y-51611263D01*
X44749400Y-51749400D01*
X44611263Y-51956137D01*
X44562756Y-52200000D01*
X44460093Y-52200000D01*
X44585000Y-51898450D01*
X44585000Y-51331550D01*
X44368056Y-50807803D01*
X43967197Y-50406944D01*
X43540018Y-50230000D01*
X43967197Y-50053056D01*
X44368056Y-49652197D01*
X44585000Y-49128450D01*
X44585000Y-48561550D01*
X44368056Y-48037803D01*
X43967197Y-47636944D01*
X43540018Y-47460000D01*
X43967197Y-47283056D01*
X44368056Y-46882197D01*
X44585000Y-46358450D01*
X44585000Y-45791550D01*
X44368056Y-45267803D01*
X43967197Y-44866944D01*
X43540018Y-44690000D01*
X43967197Y-44513056D01*
X44368056Y-44112197D01*
X44585000Y-43588450D01*
X44585000Y-43021550D01*
X44368056Y-42497803D01*
X43967197Y-42096944D01*
X43443450Y-41880000D01*
X42876550Y-41880000D01*
X42352803Y-42096944D01*
X41951944Y-42497803D01*
X41735000Y-43021550D01*
X39625000Y-43021550D01*
X39625000Y-41703627D01*
X44563284Y-41703627D01*
X44589845Y-42269905D01*
X44755450Y-42669709D01*
X44999000Y-42744223D01*
X45823223Y-41920000D01*
X46176777Y-41920000D01*
X47001000Y-42744223D01*
X47244550Y-42669709D01*
X47436716Y-42136373D01*
X47410155Y-41570095D01*
X47244550Y-41170291D01*
X47001000Y-41095777D01*
X46176777Y-41920000D01*
X45823223Y-41920000D01*
X44999000Y-41095777D01*
X44755450Y-41170291D01*
X44563284Y-41703627D01*
X39625000Y-41703627D01*
X39625000Y-40919000D01*
X45175777Y-40919000D01*
X46000000Y-41743223D01*
X46824223Y-40919000D01*
X46749709Y-40675450D01*
X46216373Y-40483284D01*
X45650095Y-40509845D01*
X45250291Y-40675450D01*
X45175777Y-40919000D01*
X39625000Y-40919000D01*
X39625000Y-34437855D01*
X43075000Y-34437855D01*
X43075000Y-35482145D01*
X43474632Y-36446943D01*
X44213057Y-37185368D01*
X45177855Y-37585000D01*
X46222145Y-37585000D01*
X47186943Y-37185368D01*
X47925368Y-36446943D01*
X48325000Y-35482145D01*
X48325000Y-34437855D01*
X47925368Y-33473057D01*
X47186943Y-32734632D01*
X46222145Y-32335000D01*
X45177855Y-32335000D01*
X44213057Y-32734632D01*
X43474632Y-33473057D01*
X43075000Y-34437855D01*
X39625000Y-34437855D01*
X39625000Y-26278943D01*
X40375000Y-26278943D01*
X40375000Y-27721057D01*
X40926873Y-29053398D01*
X41946602Y-30073127D01*
X43278943Y-30625000D01*
X44721057Y-30625000D01*
X46053398Y-30073127D01*
X47073127Y-29053398D01*
X47625000Y-27721057D01*
X47625000Y-27485750D01*
X70761000Y-27485750D01*
X70761000Y-27901320D01*
X70856150Y-28131034D01*
X71031966Y-28306849D01*
X71261680Y-28402000D01*
X71854750Y-28402000D01*
X72011000Y-28245750D01*
X72011000Y-27329500D01*
X70917250Y-27329500D01*
X70761000Y-27485750D01*
X47625000Y-27485750D01*
X47625000Y-26278943D01*
X47535243Y-26062250D01*
X50722000Y-26062250D01*
X50722000Y-26755320D01*
X50817150Y-26985034D01*
X50992966Y-27160849D01*
X51222680Y-27256000D01*
X51915750Y-27256000D01*
X52072000Y-27099750D01*
X52072000Y-25906000D01*
X50878250Y-25906000D01*
X50722000Y-26062250D01*
X47535243Y-26062250D01*
X47073127Y-24946602D01*
X46933205Y-24806680D01*
X50722000Y-24806680D01*
X50722000Y-25499750D01*
X50878250Y-25656000D01*
X52072000Y-25656000D01*
X52072000Y-24462250D01*
X52322000Y-24462250D01*
X52322000Y-25656000D01*
X52342000Y-25656000D01*
X52342000Y-25906000D01*
X52322000Y-25906000D01*
X52322000Y-27099750D01*
X52478250Y-27256000D01*
X53171320Y-27256000D01*
X53401034Y-27160849D01*
X53576850Y-26985034D01*
X53649825Y-26808856D01*
X53673585Y-26844415D01*
X54161484Y-27170419D01*
X54591730Y-27256000D01*
X54882270Y-27256000D01*
X55312516Y-27170419D01*
X55800415Y-26844415D01*
X56007000Y-26535239D01*
X56213585Y-26844415D01*
X56701484Y-27170419D01*
X57131730Y-27256000D01*
X57422270Y-27256000D01*
X57852516Y-27170419D01*
X58340415Y-26844415D01*
X58666419Y-26356516D01*
X58780896Y-25781000D01*
X58666419Y-25205484D01*
X58340415Y-24717585D01*
X57852516Y-24391581D01*
X57422270Y-24306000D01*
X57131730Y-24306000D01*
X56701484Y-24391581D01*
X56213585Y-24717585D01*
X56007000Y-25026761D01*
X55800415Y-24717585D01*
X55312516Y-24391581D01*
X54882270Y-24306000D01*
X54591730Y-24306000D01*
X54161484Y-24391581D01*
X53673585Y-24717585D01*
X53649825Y-24753144D01*
X53576850Y-24576966D01*
X53401034Y-24401151D01*
X53171320Y-24306000D01*
X52478250Y-24306000D01*
X52322000Y-24462250D01*
X52072000Y-24462250D01*
X51915750Y-24306000D01*
X51222680Y-24306000D01*
X50992966Y-24401151D01*
X50817150Y-24576966D01*
X50722000Y-24806680D01*
X46933205Y-24806680D01*
X46053398Y-23926873D01*
X44721057Y-23375000D01*
X43278943Y-23375000D01*
X41946602Y-23926873D01*
X40926873Y-24946602D01*
X40375000Y-26278943D01*
X39625000Y-26278943D01*
X39625000Y-23124952D01*
X73408000Y-23112048D01*
X73408000Y-24203258D01*
G36*
X89751400Y-77277600D02*
G01*
X89958137Y-77415737D01*
X90202000Y-77464244D01*
X91047000Y-77464244D01*
X91290863Y-77415737D01*
X91458170Y-77303946D01*
X91430150Y-77331966D01*
X91335000Y-77561680D01*
X91335000Y-77977250D01*
X91491250Y-78133500D01*
X92585000Y-78133500D01*
X92585000Y-78113500D01*
X92835000Y-78113500D01*
X92835000Y-78133500D01*
X93820750Y-78133500D01*
X93855250Y-78168000D01*
X95149000Y-78168000D01*
X95149000Y-78148000D01*
X95399000Y-78148000D01*
X95399000Y-78168000D01*
X96692750Y-78168000D01*
X96790788Y-78069962D01*
X96873400Y-78193600D01*
X97080137Y-78331737D01*
X97320001Y-78379449D01*
X97320000Y-87550039D01*
X96300000Y-87541664D01*
X96300000Y-85619244D01*
X96557000Y-85619244D01*
X96800863Y-85570737D01*
X97007600Y-85432600D01*
X97145737Y-85225863D01*
X97194244Y-84982000D01*
X97194244Y-84182000D01*
X97145737Y-83938137D01*
X97007600Y-83731400D01*
X96800863Y-83593263D01*
X96557000Y-83544756D01*
X94657000Y-83544756D01*
X94413137Y-83593263D01*
X94206400Y-83731400D01*
X94194244Y-83749593D01*
X94194244Y-83232000D01*
X94145737Y-82988137D01*
X94007600Y-82781400D01*
X93800863Y-82643263D01*
X93703171Y-82623831D01*
X93720244Y-82538000D01*
X93720244Y-81693000D01*
X93671737Y-81449137D01*
X93533600Y-81242400D01*
X93399803Y-81153000D01*
X93533600Y-81063600D01*
X93671737Y-80856863D01*
X93720244Y-80613000D01*
X93720244Y-79768000D01*
X93671737Y-79524137D01*
X93617129Y-79442410D01*
X93814034Y-79360849D01*
X93961000Y-79213884D01*
X93969966Y-79222850D01*
X94199680Y-79318000D01*
X94992750Y-79318000D01*
X95149000Y-79161750D01*
X95149000Y-78418000D01*
X95399000Y-78418000D01*
X95399000Y-79161750D01*
X95555250Y-79318000D01*
X96348320Y-79318000D01*
X96578034Y-79222850D01*
X96753849Y-79047034D01*
X96849000Y-78817320D01*
X96849000Y-78574250D01*
X96692750Y-78418000D01*
X95399000Y-78418000D01*
X95149000Y-78418000D01*
X93963250Y-78418000D01*
X93928750Y-78383500D01*
X92835000Y-78383500D01*
X92835000Y-78403500D01*
X92585000Y-78403500D01*
X92585000Y-78383500D01*
X91491250Y-78383500D01*
X91335000Y-78539750D01*
X91335000Y-78955320D01*
X91409425Y-79135000D01*
X89135437Y-79135000D01*
X88182658Y-78182222D01*
X88182656Y-78182219D01*
X87202437Y-77202000D01*
X87775886Y-77202000D01*
X87826400Y-77277600D01*
X88033137Y-77415737D01*
X88277000Y-77464244D01*
X89122000Y-77464244D01*
X89365863Y-77415737D01*
X89572600Y-77277600D01*
X89662000Y-77143803D01*
X89751400Y-77277600D01*
X89751400Y-77277600D01*
G37*
X89751400Y-77277600D02*
X89958137Y-77415737D01*
X90202000Y-77464244D01*
X91047000Y-77464244D01*
X91290863Y-77415737D01*
X91458170Y-77303946D01*
X91430150Y-77331966D01*
X91335000Y-77561680D01*
X91335000Y-77977250D01*
X91491250Y-78133500D01*
X92585000Y-78133500D01*
X92585000Y-78113500D01*
X92835000Y-78113500D01*
X92835000Y-78133500D01*
X93820750Y-78133500D01*
X93855250Y-78168000D01*
X95149000Y-78168000D01*
X95149000Y-78148000D01*
X95399000Y-78148000D01*
X95399000Y-78168000D01*
X96692750Y-78168000D01*
X96790788Y-78069962D01*
X96873400Y-78193600D01*
X97080137Y-78331737D01*
X97320001Y-78379449D01*
X97320000Y-87550039D01*
X96300000Y-87541664D01*
X96300000Y-85619244D01*
X96557000Y-85619244D01*
X96800863Y-85570737D01*
X97007600Y-85432600D01*
X97145737Y-85225863D01*
X97194244Y-84982000D01*
X97194244Y-84182000D01*
X97145737Y-83938137D01*
X97007600Y-83731400D01*
X96800863Y-83593263D01*
X96557000Y-83544756D01*
X94657000Y-83544756D01*
X94413137Y-83593263D01*
X94206400Y-83731400D01*
X94194244Y-83749593D01*
X94194244Y-83232000D01*
X94145737Y-82988137D01*
X94007600Y-82781400D01*
X93800863Y-82643263D01*
X93703171Y-82623831D01*
X93720244Y-82538000D01*
X93720244Y-81693000D01*
X93671737Y-81449137D01*
X93533600Y-81242400D01*
X93399803Y-81153000D01*
X93533600Y-81063600D01*
X93671737Y-80856863D01*
X93720244Y-80613000D01*
X93720244Y-79768000D01*
X93671737Y-79524137D01*
X93617129Y-79442410D01*
X93814034Y-79360849D01*
X93961000Y-79213884D01*
X93969966Y-79222850D01*
X94199680Y-79318000D01*
X94992750Y-79318000D01*
X95149000Y-79161750D01*
X95149000Y-78418000D01*
X95399000Y-78418000D01*
X95399000Y-79161750D01*
X95555250Y-79318000D01*
X96348320Y-79318000D01*
X96578034Y-79222850D01*
X96753849Y-79047034D01*
X96849000Y-78817320D01*
X96849000Y-78574250D01*
X96692750Y-78418000D01*
X95399000Y-78418000D01*
X95149000Y-78418000D01*
X93963250Y-78418000D01*
X93928750Y-78383500D01*
X92835000Y-78383500D01*
X92835000Y-78403500D01*
X92585000Y-78403500D01*
X92585000Y-78383500D01*
X91491250Y-78383500D01*
X91335000Y-78539750D01*
X91335000Y-78955320D01*
X91409425Y-79135000D01*
X89135437Y-79135000D01*
X88182658Y-78182222D01*
X88182656Y-78182219D01*
X87202437Y-77202000D01*
X87775886Y-77202000D01*
X87826400Y-77277600D01*
X88033137Y-77415737D01*
X88277000Y-77464244D01*
X89122000Y-77464244D01*
X89365863Y-77415737D01*
X89572600Y-77277600D01*
X89662000Y-77143803D01*
X89751400Y-77277600D01*
G36*
X94019756Y-84710873D02*
G01*
X93911034Y-84602150D01*
X93860196Y-84581092D01*
X94007600Y-84482600D01*
X94019756Y-84464407D01*
X94019756Y-84710873D01*
X94019756Y-84710873D01*
G37*
X94019756Y-84710873D02*
X93911034Y-84602150D01*
X93860196Y-84581092D01*
X94007600Y-84482600D01*
X94019756Y-84464407D01*
X94019756Y-84710873D01*
G36*
X70753000Y-72049822D02*
G01*
X70735858Y-72136000D01*
X70753000Y-72222178D01*
X70803768Y-72477407D01*
X70997160Y-72766840D01*
X71070223Y-72815659D01*
X72912001Y-74657438D01*
X72912001Y-74694885D01*
X72836400Y-74745400D01*
X72836227Y-74745659D01*
X72780850Y-74611966D01*
X72605034Y-74436151D01*
X72375320Y-74341000D01*
X71782250Y-74341000D01*
X71626000Y-74497250D01*
X71626000Y-75413500D01*
X71646000Y-75413500D01*
X71646000Y-75663500D01*
X71626000Y-75663500D01*
X71626000Y-75683500D01*
X71376000Y-75683500D01*
X71376000Y-75663500D01*
X70282250Y-75663500D01*
X70189750Y-75756000D01*
X69189000Y-75756000D01*
X69189000Y-75776000D01*
X68939000Y-75776000D01*
X68939000Y-75756000D01*
X67645250Y-75756000D01*
X67547212Y-75854038D01*
X67464600Y-75730400D01*
X67257863Y-75592263D01*
X67014000Y-75543756D01*
X65114000Y-75543756D01*
X64870137Y-75592263D01*
X64663400Y-75730400D01*
X64525263Y-75937137D01*
X64476756Y-76181000D01*
X64476756Y-76981000D01*
X64525263Y-77224863D01*
X64663400Y-77431600D01*
X64870137Y-77569737D01*
X65114000Y-77618244D01*
X65189000Y-77618244D01*
X65189001Y-79245788D01*
X65012633Y-79363633D01*
X64697680Y-79834993D01*
X64587083Y-80391000D01*
X64697680Y-80947007D01*
X65012633Y-81418367D01*
X65151736Y-81511313D01*
X64996137Y-81542263D01*
X64927334Y-81588236D01*
X64792669Y-81263125D01*
X64405875Y-80876331D01*
X63900505Y-80667000D01*
X63353495Y-80667000D01*
X62848125Y-80876331D01*
X62797500Y-80926956D01*
X62797500Y-75106680D01*
X67489000Y-75106680D01*
X67489000Y-75349750D01*
X67645250Y-75506000D01*
X68939000Y-75506000D01*
X68939000Y-74762250D01*
X69189000Y-74762250D01*
X69189000Y-75506000D01*
X70482750Y-75506000D01*
X70575250Y-75413500D01*
X71376000Y-75413500D01*
X71376000Y-74497250D01*
X71219750Y-74341000D01*
X70626680Y-74341000D01*
X70396966Y-74436151D01*
X70221150Y-74611966D01*
X70211129Y-74636158D01*
X70138320Y-74606000D01*
X69345250Y-74606000D01*
X69189000Y-74762250D01*
X68939000Y-74762250D01*
X68782750Y-74606000D01*
X67989680Y-74606000D01*
X67759966Y-74701150D01*
X67584151Y-74876966D01*
X67489000Y-75106680D01*
X62797500Y-75106680D01*
X62797500Y-74202936D01*
X64116437Y-72884000D01*
X69001822Y-72884000D01*
X69088000Y-72901142D01*
X69174178Y-72884000D01*
X69174179Y-72884000D01*
X69429408Y-72833232D01*
X69718840Y-72639840D01*
X69767659Y-72566777D01*
X70753000Y-71581437D01*
X70753000Y-72049822D01*
X70753000Y-72049822D01*
G37*
X70753000Y-72049822D02*
X70735858Y-72136000D01*
X70753000Y-72222178D01*
X70803768Y-72477407D01*
X70997160Y-72766840D01*
X71070223Y-72815659D01*
X72912001Y-74657438D01*
X72912001Y-74694885D01*
X72836400Y-74745400D01*
X72836227Y-74745659D01*
X72780850Y-74611966D01*
X72605034Y-74436151D01*
X72375320Y-74341000D01*
X71782250Y-74341000D01*
X71626000Y-74497250D01*
X71626000Y-75413500D01*
X71646000Y-75413500D01*
X71646000Y-75663500D01*
X71626000Y-75663500D01*
X71626000Y-75683500D01*
X71376000Y-75683500D01*
X71376000Y-75663500D01*
X70282250Y-75663500D01*
X70189750Y-75756000D01*
X69189000Y-75756000D01*
X69189000Y-75776000D01*
X68939000Y-75776000D01*
X68939000Y-75756000D01*
X67645250Y-75756000D01*
X67547212Y-75854038D01*
X67464600Y-75730400D01*
X67257863Y-75592263D01*
X67014000Y-75543756D01*
X65114000Y-75543756D01*
X64870137Y-75592263D01*
X64663400Y-75730400D01*
X64525263Y-75937137D01*
X64476756Y-76181000D01*
X64476756Y-76981000D01*
X64525263Y-77224863D01*
X64663400Y-77431600D01*
X64870137Y-77569737D01*
X65114000Y-77618244D01*
X65189000Y-77618244D01*
X65189001Y-79245788D01*
X65012633Y-79363633D01*
X64697680Y-79834993D01*
X64587083Y-80391000D01*
X64697680Y-80947007D01*
X65012633Y-81418367D01*
X65151736Y-81511313D01*
X64996137Y-81542263D01*
X64927334Y-81588236D01*
X64792669Y-81263125D01*
X64405875Y-80876331D01*
X63900505Y-80667000D01*
X63353495Y-80667000D01*
X62848125Y-80876331D01*
X62797500Y-80926956D01*
X62797500Y-75106680D01*
X67489000Y-75106680D01*
X67489000Y-75349750D01*
X67645250Y-75506000D01*
X68939000Y-75506000D01*
X68939000Y-74762250D01*
X69189000Y-74762250D01*
X69189000Y-75506000D01*
X70482750Y-75506000D01*
X70575250Y-75413500D01*
X71376000Y-75413500D01*
X71376000Y-74497250D01*
X71219750Y-74341000D01*
X70626680Y-74341000D01*
X70396966Y-74436151D01*
X70221150Y-74611966D01*
X70211129Y-74636158D01*
X70138320Y-74606000D01*
X69345250Y-74606000D01*
X69189000Y-74762250D01*
X68939000Y-74762250D01*
X68782750Y-74606000D01*
X67989680Y-74606000D01*
X67759966Y-74701150D01*
X67584151Y-74876966D01*
X67489000Y-75106680D01*
X62797500Y-75106680D01*
X62797500Y-74202936D01*
X64116437Y-72884000D01*
X69001822Y-72884000D01*
X69088000Y-72901142D01*
X69174178Y-72884000D01*
X69174179Y-72884000D01*
X69429408Y-72833232D01*
X69718840Y-72639840D01*
X69767659Y-72566777D01*
X70753000Y-71581437D01*
X70753000Y-72049822D01*
G36*
X51005756Y-52430000D02*
G01*
X51005756Y-53930000D01*
X51054263Y-54173863D01*
X51068001Y-54194423D01*
X51068001Y-54523818D01*
X51050858Y-54610000D01*
X51102210Y-54868161D01*
X51118769Y-54951408D01*
X51312161Y-55240840D01*
X51385221Y-55289657D01*
X52406343Y-56310780D01*
X52455160Y-56383840D01*
X52703073Y-56549490D01*
X52655223Y-56597341D01*
X52582160Y-56646160D01*
X52388768Y-56935593D01*
X52346120Y-57150000D01*
X52335180Y-57205000D01*
X52224250Y-57205000D01*
X52068000Y-57361250D01*
X52068000Y-58455000D01*
X52088000Y-58455000D01*
X52088000Y-58705000D01*
X52068000Y-58705000D01*
X52068000Y-58725000D01*
X51818000Y-58725000D01*
X51818000Y-58705000D01*
X51174250Y-58705000D01*
X51018000Y-58861250D01*
X51018000Y-59454320D01*
X51113150Y-59684034D01*
X51133116Y-59704000D01*
X49643000Y-59704000D01*
X49643000Y-57705680D01*
X51018000Y-57705680D01*
X51018000Y-58298750D01*
X51174250Y-58455000D01*
X51818000Y-58455000D01*
X51818000Y-57361250D01*
X51661750Y-57205000D01*
X51518680Y-57205000D01*
X51288966Y-57300151D01*
X51113150Y-57475966D01*
X51018000Y-57705680D01*
X49643000Y-57705680D01*
X49643000Y-52686436D01*
X50019437Y-52310000D01*
X51029625Y-52310000D01*
X51005756Y-52430000D01*
X51005756Y-52430000D01*
G37*
X51005756Y-52430000D02*
X51005756Y-53930000D01*
X51054263Y-54173863D01*
X51068001Y-54194423D01*
X51068001Y-54523818D01*
X51050858Y-54610000D01*
X51102210Y-54868161D01*
X51118769Y-54951408D01*
X51312161Y-55240840D01*
X51385221Y-55289657D01*
X52406343Y-56310780D01*
X52455160Y-56383840D01*
X52703073Y-56549490D01*
X52655223Y-56597341D01*
X52582160Y-56646160D01*
X52388768Y-56935593D01*
X52346120Y-57150000D01*
X52335180Y-57205000D01*
X52224250Y-57205000D01*
X52068000Y-57361250D01*
X52068000Y-58455000D01*
X52088000Y-58455000D01*
X52088000Y-58705000D01*
X52068000Y-58705000D01*
X52068000Y-58725000D01*
X51818000Y-58725000D01*
X51818000Y-58705000D01*
X51174250Y-58705000D01*
X51018000Y-58861250D01*
X51018000Y-59454320D01*
X51113150Y-59684034D01*
X51133116Y-59704000D01*
X49643000Y-59704000D01*
X49643000Y-57705680D01*
X51018000Y-57705680D01*
X51018000Y-58298750D01*
X51174250Y-58455000D01*
X51818000Y-58455000D01*
X51818000Y-57361250D01*
X51661750Y-57205000D01*
X51518680Y-57205000D01*
X51288966Y-57300151D01*
X51113150Y-57475966D01*
X51018000Y-57705680D01*
X49643000Y-57705680D01*
X49643000Y-52686436D01*
X50019437Y-52310000D01*
X51029625Y-52310000D01*
X51005756Y-52430000D01*
G36*
X61047998Y-47078000D02*
G01*
X61073000Y-47078000D01*
X61073001Y-47538167D01*
X61002137Y-47552263D01*
X60795400Y-47690400D01*
X60709254Y-47819327D01*
X60695849Y-47786966D01*
X60520034Y-47611150D01*
X60290320Y-47516000D01*
X60024750Y-47516000D01*
X59868500Y-47672250D01*
X59868500Y-48516000D01*
X59888500Y-48516000D01*
X59888500Y-48766000D01*
X59868500Y-48766000D01*
X59868500Y-49609750D01*
X60024750Y-49766000D01*
X60290320Y-49766000D01*
X60520034Y-49670850D01*
X60695849Y-49495034D01*
X60709254Y-49462673D01*
X60795400Y-49591600D01*
X61002137Y-49729737D01*
X61246000Y-49778244D01*
X62091000Y-49778244D01*
X62261401Y-49744349D01*
X62121000Y-49884750D01*
X62121000Y-49948280D01*
X61959125Y-50015331D01*
X61668456Y-50306000D01*
X59671437Y-50306000D01*
X59549000Y-50183564D01*
X59549000Y-49697821D01*
X59545919Y-49682331D01*
X59618500Y-49609750D01*
X59618500Y-48766000D01*
X59598500Y-48766000D01*
X59598500Y-48516000D01*
X59618500Y-48516000D01*
X59618500Y-47672250D01*
X59462250Y-47516000D01*
X59323000Y-47516000D01*
X59323000Y-47090244D01*
X59423000Y-47090244D01*
X59548000Y-47065380D01*
X59673000Y-47090244D01*
X60073000Y-47090244D01*
X60198000Y-47065380D01*
X60323000Y-47090244D01*
X60723000Y-47090244D01*
X60827877Y-47069383D01*
X60848680Y-47078000D01*
X60916750Y-47078000D01*
X60949574Y-47045176D01*
X60966863Y-47041737D01*
X61047998Y-46987524D01*
X61047998Y-47078000D01*
X61047998Y-47078000D01*
G37*
X61047998Y-47078000D02*
X61073000Y-47078000D01*
X61073001Y-47538167D01*
X61002137Y-47552263D01*
X60795400Y-47690400D01*
X60709254Y-47819327D01*
X60695849Y-47786966D01*
X60520034Y-47611150D01*
X60290320Y-47516000D01*
X60024750Y-47516000D01*
X59868500Y-47672250D01*
X59868500Y-48516000D01*
X59888500Y-48516000D01*
X59888500Y-48766000D01*
X59868500Y-48766000D01*
X59868500Y-49609750D01*
X60024750Y-49766000D01*
X60290320Y-49766000D01*
X60520034Y-49670850D01*
X60695849Y-49495034D01*
X60709254Y-49462673D01*
X60795400Y-49591600D01*
X61002137Y-49729737D01*
X61246000Y-49778244D01*
X62091000Y-49778244D01*
X62261401Y-49744349D01*
X62121000Y-49884750D01*
X62121000Y-49948280D01*
X61959125Y-50015331D01*
X61668456Y-50306000D01*
X59671437Y-50306000D01*
X59549000Y-50183564D01*
X59549000Y-49697821D01*
X59545919Y-49682331D01*
X59618500Y-49609750D01*
X59618500Y-48766000D01*
X59598500Y-48766000D01*
X59598500Y-48516000D01*
X59618500Y-48516000D01*
X59618500Y-47672250D01*
X59462250Y-47516000D01*
X59323000Y-47516000D01*
X59323000Y-47090244D01*
X59423000Y-47090244D01*
X59548000Y-47065380D01*
X59673000Y-47090244D01*
X60073000Y-47090244D01*
X60198000Y-47065380D01*
X60323000Y-47090244D01*
X60723000Y-47090244D01*
X60827877Y-47069383D01*
X60848680Y-47078000D01*
X60916750Y-47078000D01*
X60949574Y-47045176D01*
X60966863Y-47041737D01*
X61047998Y-46987524D01*
X61047998Y-47078000D01*
G36*
X63371000Y-49478500D02*
G01*
X63391000Y-49478500D01*
X63391000Y-49728500D01*
X63371000Y-49728500D01*
X63371000Y-49748500D01*
X63121000Y-49748500D01*
X63121000Y-49728500D01*
X63101000Y-49728500D01*
X63101000Y-49478500D01*
X63121000Y-49478500D01*
X63121000Y-49458500D01*
X63371000Y-49458500D01*
X63371000Y-49478500D01*
X63371000Y-49478500D01*
G37*
X63371000Y-49478500D02*
X63391000Y-49478500D01*
X63391000Y-49728500D01*
X63371000Y-49728500D01*
X63371000Y-49748500D01*
X63121000Y-49748500D01*
X63121000Y-49728500D01*
X63101000Y-49728500D01*
X63101000Y-49478500D01*
X63121000Y-49478500D01*
X63121000Y-49458500D01*
X63371000Y-49458500D01*
X63371000Y-49478500D01*
G36*
X64276000Y-44050437D02*
G01*
X64276000Y-44363822D01*
X64258858Y-44450000D01*
X64276000Y-44536178D01*
X64276000Y-44536179D01*
X64326769Y-44791408D01*
X64520161Y-45080840D01*
X64593221Y-45129657D01*
X65106342Y-45642779D01*
X65155160Y-45715840D01*
X65381121Y-45866822D01*
X65444592Y-45909232D01*
X65786000Y-45977142D01*
X65872179Y-45960000D01*
X66054001Y-45960000D01*
X66054001Y-47290564D01*
X64756000Y-45992564D01*
X64756000Y-45866822D01*
X64705232Y-45611592D01*
X64511840Y-45322160D01*
X64222408Y-45128768D01*
X63881000Y-45060858D01*
X63820678Y-45072857D01*
X63773600Y-45002400D01*
X63566863Y-44864263D01*
X63323000Y-44815756D01*
X62923000Y-44815756D01*
X62798000Y-44840620D01*
X62673000Y-44815756D01*
X62273000Y-44815756D01*
X62148000Y-44840620D01*
X62023000Y-44815756D01*
X61640963Y-44815756D01*
X61657232Y-44791408D01*
X61708000Y-44536179D01*
X61708000Y-43674000D01*
X63899564Y-43674000D01*
X64276000Y-44050437D01*
X64276000Y-44050437D01*
G37*
X64276000Y-44050437D02*
X64276000Y-44363822D01*
X64258858Y-44450000D01*
X64276000Y-44536178D01*
X64276000Y-44536179D01*
X64326769Y-44791408D01*
X64520161Y-45080840D01*
X64593221Y-45129657D01*
X65106342Y-45642779D01*
X65155160Y-45715840D01*
X65381121Y-45866822D01*
X65444592Y-45909232D01*
X65786000Y-45977142D01*
X65872179Y-45960000D01*
X66054001Y-45960000D01*
X66054001Y-47290564D01*
X64756000Y-45992564D01*
X64756000Y-45866822D01*
X64705232Y-45611592D01*
X64511840Y-45322160D01*
X64222408Y-45128768D01*
X63881000Y-45060858D01*
X63820678Y-45072857D01*
X63773600Y-45002400D01*
X63566863Y-44864263D01*
X63323000Y-44815756D01*
X62923000Y-44815756D01*
X62798000Y-44840620D01*
X62673000Y-44815756D01*
X62273000Y-44815756D01*
X62148000Y-44840620D01*
X62023000Y-44815756D01*
X61640963Y-44815756D01*
X61657232Y-44791408D01*
X61708000Y-44536179D01*
X61708000Y-43674000D01*
X63899564Y-43674000D01*
X64276000Y-44050437D01*
G36*
X70372001Y-33276438D02*
G01*
X70372001Y-33284928D01*
X70346000Y-33279756D01*
X69501000Y-33279756D01*
X69257137Y-33328263D01*
X69050400Y-33466400D01*
X68961000Y-33600197D01*
X68871600Y-33466400D01*
X68664863Y-33328263D01*
X68421000Y-33279756D01*
X67576000Y-33279756D01*
X67332137Y-33328263D01*
X67125400Y-33466400D01*
X67074886Y-33542000D01*
X65661070Y-33542000D01*
X65764000Y-33293505D01*
X65764000Y-32746495D01*
X65554669Y-32241125D01*
X65167875Y-31854331D01*
X64662505Y-31645000D01*
X64115495Y-31645000D01*
X63610125Y-31854331D01*
X63223331Y-32241125D01*
X63157937Y-32399000D01*
X62189179Y-32399000D01*
X62103000Y-32381858D01*
X62016821Y-32399000D01*
X61761592Y-32449768D01*
X61472160Y-32643160D01*
X61423343Y-32716220D01*
X60788344Y-33351220D01*
X60688000Y-33501396D01*
X60688000Y-33354750D01*
X60531750Y-33198500D01*
X59688000Y-33198500D01*
X59688000Y-33218500D01*
X59438000Y-33218500D01*
X59438000Y-33198500D01*
X58594250Y-33198500D01*
X58438000Y-33354750D01*
X58438000Y-33620320D01*
X58533150Y-33850034D01*
X58708966Y-34025849D01*
X58741327Y-34039254D01*
X58612400Y-34125400D01*
X58474263Y-34332137D01*
X58425756Y-34576000D01*
X58425756Y-35421000D01*
X58474263Y-35664863D01*
X58474438Y-35665126D01*
X58414244Y-35725320D01*
X58414244Y-35191000D01*
X58365737Y-34947137D01*
X58227600Y-34740400D01*
X58152000Y-34689886D01*
X58152000Y-32874436D01*
X58438000Y-32588436D01*
X58438000Y-32792250D01*
X58594250Y-32948500D01*
X59438000Y-32948500D01*
X59438000Y-32182250D01*
X59688000Y-32182250D01*
X59688000Y-32948500D01*
X60531750Y-32948500D01*
X60688000Y-32792250D01*
X60688000Y-32526680D01*
X60592850Y-32296966D01*
X60417034Y-32121151D01*
X60187320Y-32026000D01*
X59844250Y-32026000D01*
X59688000Y-32182250D01*
X59438000Y-32182250D01*
X59281750Y-32026000D01*
X59000437Y-32026000D01*
X59798437Y-31228000D01*
X68323564Y-31228000D01*
X70372001Y-33276438D01*
X70372001Y-33276438D01*
G37*
X70372001Y-33276438D02*
X70372001Y-33284928D01*
X70346000Y-33279756D01*
X69501000Y-33279756D01*
X69257137Y-33328263D01*
X69050400Y-33466400D01*
X68961000Y-33600197D01*
X68871600Y-33466400D01*
X68664863Y-33328263D01*
X68421000Y-33279756D01*
X67576000Y-33279756D01*
X67332137Y-33328263D01*
X67125400Y-33466400D01*
X67074886Y-33542000D01*
X65661070Y-33542000D01*
X65764000Y-33293505D01*
X65764000Y-32746495D01*
X65554669Y-32241125D01*
X65167875Y-31854331D01*
X64662505Y-31645000D01*
X64115495Y-31645000D01*
X63610125Y-31854331D01*
X63223331Y-32241125D01*
X63157937Y-32399000D01*
X62189179Y-32399000D01*
X62103000Y-32381858D01*
X62016821Y-32399000D01*
X61761592Y-32449768D01*
X61472160Y-32643160D01*
X61423343Y-32716220D01*
X60788344Y-33351220D01*
X60688000Y-33501396D01*
X60688000Y-33354750D01*
X60531750Y-33198500D01*
X59688000Y-33198500D01*
X59688000Y-33218500D01*
X59438000Y-33218500D01*
X59438000Y-33198500D01*
X58594250Y-33198500D01*
X58438000Y-33354750D01*
X58438000Y-33620320D01*
X58533150Y-33850034D01*
X58708966Y-34025849D01*
X58741327Y-34039254D01*
X58612400Y-34125400D01*
X58474263Y-34332137D01*
X58425756Y-34576000D01*
X58425756Y-35421000D01*
X58474263Y-35664863D01*
X58474438Y-35665126D01*
X58414244Y-35725320D01*
X58414244Y-35191000D01*
X58365737Y-34947137D01*
X58227600Y-34740400D01*
X58152000Y-34689886D01*
X58152000Y-32874436D01*
X58438000Y-32588436D01*
X58438000Y-32792250D01*
X58594250Y-32948500D01*
X59438000Y-32948500D01*
X59438000Y-32182250D01*
X59688000Y-32182250D01*
X59688000Y-32948500D01*
X60531750Y-32948500D01*
X60688000Y-32792250D01*
X60688000Y-32526680D01*
X60592850Y-32296966D01*
X60417034Y-32121151D01*
X60187320Y-32026000D01*
X59844250Y-32026000D01*
X59688000Y-32182250D01*
X59438000Y-32182250D01*
X59281750Y-32026000D01*
X59000437Y-32026000D01*
X59798437Y-31228000D01*
X68323564Y-31228000D01*
X70372001Y-33276438D01*
M02*
