%FSLAX45Y45*%
G04 Gerber Fmt 4.5, Leading zero omitted, Abs format (unit mm)*
G04 Created by KiCad (PCBNEW 6.0.0-rc1-unknown) date Вт 01 янв 2019 13:59:57*
%MOMM*%
%LPD*%
G04 APERTURE LIST*
%ADD10C,0.150000*%
%ADD11C,0.200000*%
%ADD12C,0.300000*%
G04 APERTURE END LIST*
D10*
X12550000Y-9300000D02*
X3850000Y-9300000D01*
X3850000Y-2200000D02*
X12550000Y-2200000D01*
X12550000Y-2200000D02*
X12550000Y-9300000D01*
X3850000Y-2200000D02*
X3850000Y-9300000D01*
D11*
X4976500Y-5789300D02*
X5056500Y-5869300D01*
X5056500Y-5789300D02*
X4976500Y-5869300D01*
X5433700Y-2919100D02*
X5513700Y-2999100D01*
X5513700Y-2919100D02*
X5433700Y-2999100D01*
X5548000Y-4570100D02*
X5628000Y-4650100D01*
X5628000Y-4570100D02*
X5548000Y-4650100D01*
X5675000Y-8761100D02*
X5755000Y-8841100D01*
X5755000Y-8761100D02*
X5675000Y-8841100D01*
X5687700Y-2919100D02*
X5767700Y-2999100D01*
X5767700Y-2919100D02*
X5687700Y-2999100D01*
X5967100Y-6919600D02*
X6047100Y-6999600D01*
X6047100Y-6919600D02*
X5967100Y-6999600D01*
X5967100Y-7110100D02*
X6047100Y-7190100D01*
X6047100Y-7110100D02*
X5967100Y-7190100D01*
X6144900Y-6005200D02*
X6224900Y-6085200D01*
X6224900Y-6005200D02*
X6144900Y-6085200D01*
X6144900Y-6221100D02*
X6224900Y-6301100D01*
X6224900Y-6221100D02*
X6144900Y-6301100D01*
X6183000Y-2487300D02*
X6263000Y-2567300D01*
X6263000Y-2487300D02*
X6183000Y-2567300D01*
X6195700Y-2842900D02*
X6275700Y-2922900D01*
X6275700Y-2842900D02*
X6195700Y-2922900D01*
X6195700Y-3135000D02*
X6275700Y-3215000D01*
X6275700Y-3135000D02*
X6195700Y-3215000D01*
X6233800Y-5078100D02*
X6313800Y-5158100D01*
X6313800Y-5078100D02*
X6233800Y-5158100D01*
X6246500Y-3427100D02*
X6326500Y-3507100D01*
X6326500Y-3427100D02*
X6246500Y-3507100D01*
X6322700Y-8164200D02*
X6402700Y-8244200D01*
X6402700Y-8164200D02*
X6322700Y-8244200D01*
X6398900Y-3262000D02*
X6478900Y-3342000D01*
X6478900Y-3262000D02*
X6398900Y-3342000D01*
X6437000Y-5052700D02*
X6517000Y-5132700D01*
X6517000Y-5052700D02*
X6437000Y-5132700D01*
X6525900Y-4595500D02*
X6605900Y-4675500D01*
X6605900Y-4595500D02*
X6525900Y-4675500D01*
X6602100Y-4341500D02*
X6682100Y-4421500D01*
X6682100Y-4341500D02*
X6602100Y-4421500D01*
X6678300Y-3846200D02*
X6758300Y-3926200D01*
X6758300Y-3846200D02*
X6678300Y-3926200D01*
X6678300Y-4036700D02*
X6758300Y-4116700D01*
X6758300Y-4036700D02*
X6678300Y-4116700D01*
X6818000Y-7326000D02*
X6898000Y-7406000D01*
X6898000Y-7326000D02*
X6818000Y-7406000D01*
X7554600Y-5370200D02*
X7634600Y-5450200D01*
X7634600Y-5370200D02*
X7554600Y-5450200D01*
X8621400Y-2817500D02*
X8701400Y-2897500D01*
X8701400Y-2817500D02*
X8621400Y-2897500D01*
X8989700Y-2830200D02*
X9069700Y-2910200D01*
X9069700Y-2830200D02*
X8989700Y-2910200D01*
X9269100Y-4874900D02*
X9349100Y-4954900D01*
X9349100Y-4874900D02*
X9269100Y-4954900D01*
X10043800Y-2309500D02*
X10123800Y-2389500D01*
X10123800Y-2309500D02*
X10043800Y-2389500D01*
X10526400Y-5040000D02*
X10606400Y-5120000D01*
X10606400Y-5040000D02*
X10526400Y-5120000D01*
X10577200Y-5446400D02*
X10657200Y-5526400D01*
X10657200Y-5446400D02*
X10577200Y-5526400D01*
X10810000Y-8010000D02*
X10890000Y-8090000D01*
X10890000Y-8010000D02*
X10810000Y-8090000D01*
X10810000Y-8510000D02*
X10890000Y-8590000D01*
X10890000Y-8510000D02*
X10810000Y-8590000D01*
X11645650Y-4913000D02*
X11725650Y-4993000D01*
X11725650Y-4913000D02*
X11645650Y-4993000D01*
X12145650Y-4913000D02*
X12225650Y-4993000D01*
X12225650Y-4913000D02*
X12145650Y-4993000D01*
X7846700Y-7643500D02*
X7926700Y-7723500D01*
X7926700Y-7643500D02*
X7846700Y-7723500D01*
X7846700Y-8405500D02*
X7926700Y-8485500D01*
X7926700Y-8405500D02*
X7846700Y-8485500D01*
X8100700Y-7643500D02*
X8180700Y-7723500D01*
X8180700Y-7643500D02*
X8100700Y-7723500D01*
X8100700Y-8405500D02*
X8180700Y-8485500D01*
X8180700Y-8405500D02*
X8100700Y-8485500D01*
X6564000Y-7999100D02*
X6644000Y-8079100D01*
X6644000Y-7999100D02*
X6564000Y-8079100D01*
X6564000Y-8253100D02*
X6644000Y-8333100D01*
X6644000Y-8253100D02*
X6564000Y-8333100D01*
X7326000Y-7999100D02*
X7406000Y-8079100D01*
X7406000Y-7999100D02*
X7326000Y-8079100D01*
X7326000Y-8253100D02*
X7406000Y-8333100D01*
X7406000Y-8253100D02*
X7326000Y-8333100D01*
X6564000Y-8659500D02*
X6644000Y-8739500D01*
X6644000Y-8659500D02*
X6564000Y-8739500D01*
X6564000Y-8913500D02*
X6644000Y-8993500D01*
X6644000Y-8913500D02*
X6564000Y-8993500D01*
X7326000Y-8659500D02*
X7406000Y-8739500D01*
X7406000Y-8659500D02*
X7326000Y-8739500D01*
X7326000Y-8913500D02*
X7406000Y-8993500D01*
X7406000Y-8913500D02*
X7326000Y-8993500D01*
X6525900Y-6271900D02*
X6605900Y-6351900D01*
X6605900Y-6271900D02*
X6525900Y-6351900D01*
X6525900Y-6759900D02*
X6605900Y-6839900D01*
X6605900Y-6759900D02*
X6525900Y-6839900D01*
X11452000Y-5360000D02*
X11532000Y-5440000D01*
X11532000Y-5360000D02*
X11452000Y-5440000D01*
X11452000Y-6122000D02*
X11532000Y-6202000D01*
X11532000Y-6122000D02*
X11452000Y-6202000D01*
X11706000Y-5360000D02*
X11786000Y-5440000D01*
X11786000Y-5360000D02*
X11706000Y-5440000D01*
X11706000Y-6122000D02*
X11786000Y-6202000D01*
X11786000Y-6122000D02*
X11706000Y-6202000D01*
X11960000Y-5360000D02*
X12040000Y-5440000D01*
X12040000Y-5360000D02*
X11960000Y-5440000D01*
X11960000Y-6122000D02*
X12040000Y-6202000D01*
X12040000Y-6122000D02*
X11960000Y-6202000D01*
X9789800Y-2538100D02*
X9869800Y-2618100D01*
X9869800Y-2538100D02*
X9789800Y-2618100D01*
X9789800Y-3300100D02*
X9869800Y-3380100D01*
X9869800Y-3300100D02*
X9789800Y-3380100D01*
X10043800Y-2538100D02*
X10123800Y-2618100D01*
X10123800Y-2538100D02*
X10043800Y-2618100D01*
X10043800Y-3300100D02*
X10123800Y-3380100D01*
X10123800Y-3300100D02*
X10043800Y-3380100D01*
X10297800Y-2538100D02*
X10377800Y-2618100D01*
X10377800Y-2538100D02*
X10297800Y-2618100D01*
X10297800Y-3300100D02*
X10377800Y-3380100D01*
X10377800Y-3300100D02*
X10297800Y-3380100D01*
X4490500Y-7146000D02*
G75*
G03X4490500Y-7146000I-40500J0D01*
G01*
X4490500Y-7400000D02*
G75*
G03X4490500Y-7400000I-40500J0D01*
G01*
X4690500Y-7146000D02*
G75*
G03X4690500Y-7146000I-40500J0D01*
G01*
X4690500Y-7400000D02*
G75*
G03X4690500Y-7400000I-40500J0D01*
G01*
X8513600Y-5656800D02*
X8513600Y-5756800D01*
X8463600Y-5706800D02*
X8563600Y-5706800D01*
X9713600Y-5656800D02*
X9713600Y-5756800D01*
X9663600Y-5706800D02*
X9763600Y-5706800D01*
X9944100Y-3747300D02*
X9944100Y-3847300D01*
X9894100Y-3797300D02*
X9994100Y-3797300D01*
X9944100Y-4001300D02*
X9944100Y-4101300D01*
X9894100Y-4051300D02*
X9994100Y-4051300D01*
X9944100Y-4255300D02*
X9944100Y-4355300D01*
X9894100Y-4305300D02*
X9994100Y-4305300D01*
X10750000Y-6492000D02*
X10750000Y-6592000D01*
X10700000Y-6542000D02*
X10800000Y-6542000D01*
X10750000Y-6746000D02*
X10750000Y-6846000D01*
X10700000Y-6796000D02*
X10800000Y-6796000D01*
X10750000Y-7000000D02*
X10750000Y-7100000D01*
X10700000Y-7050000D02*
X10800000Y-7050000D01*
X5219700Y-2528100D02*
X5219700Y-2628100D01*
X5169700Y-2578100D02*
X5269700Y-2578100D01*
X5473700Y-2528100D02*
X5473700Y-2628100D01*
X5423700Y-2578100D02*
X5523700Y-2578100D01*
X5727700Y-2528100D02*
X5727700Y-2628100D01*
X5677700Y-2578100D02*
X5777700Y-2578100D01*
X5207000Y-8420900D02*
X5207000Y-8520900D01*
X5157000Y-8470900D02*
X5257000Y-8470900D01*
X5461000Y-8420900D02*
X5461000Y-8520900D01*
X5411000Y-8470900D02*
X5511000Y-8470900D01*
X7642500Y-3364500D02*
X7642500Y-3464500D01*
X7592500Y-3414500D02*
X7692500Y-3414500D01*
X8842500Y-3364500D02*
X8842500Y-3464500D01*
X8792500Y-3414500D02*
X8892500Y-3414500D01*
X4316000Y-4280500D02*
X4316000Y-4380500D01*
X4266000Y-4330500D02*
X4366000Y-4330500D01*
X4316000Y-4557500D02*
X4316000Y-4657500D01*
X4266000Y-4607500D02*
X4366000Y-4607500D01*
X4316000Y-4834500D02*
X4316000Y-4934500D01*
X4266000Y-4884500D02*
X4366000Y-4884500D01*
X4316000Y-5111500D02*
X4316000Y-5211500D01*
X4266000Y-5161500D02*
X4366000Y-5161500D01*
X4600000Y-4142000D02*
X4600000Y-4242000D01*
X4550000Y-4192000D02*
X4650000Y-4192000D01*
X4600000Y-4419000D02*
X4600000Y-4519000D01*
X4550000Y-4469000D02*
X4650000Y-4469000D01*
X4600000Y-4696000D02*
X4600000Y-4796000D01*
X4550000Y-4746000D02*
X4650000Y-4746000D01*
X4600000Y-4973000D02*
X4600000Y-5073000D01*
X4550000Y-5023000D02*
X4650000Y-5023000D01*
X4600000Y-5250000D02*
X4600000Y-5350000D01*
X4550000Y-5300000D02*
X4650000Y-5300000D01*
X11332727Y-6557527D02*
X11332727Y-6472673D01*
X11247873Y-6472673D01*
X11247873Y-6557527D01*
X11332727Y-6557527D01*
X11332727Y-9097527D02*
X11332727Y-9012673D01*
X11247873Y-9012673D01*
X11247873Y-9097527D01*
X11332727Y-9097527D01*
X11453377Y-2455427D02*
X11453377Y-2370573D01*
X11368523Y-2370573D01*
X11368523Y-2455427D01*
X11453377Y-2455427D01*
X11453377Y-4995427D02*
X11453377Y-4910573D01*
X11368523Y-4910573D01*
X11368523Y-4995427D01*
X11453377Y-4995427D01*
X8513600Y-6991800D02*
X8578600Y-6926800D01*
X8513600Y-6861800D01*
X8448600Y-6926800D01*
X8513600Y-6991800D01*
X9118600Y-5576800D02*
X9183600Y-5511800D01*
X9118600Y-5446800D01*
X9053600Y-5511800D01*
X9118600Y-5576800D01*
X9718600Y-6996800D02*
X9783600Y-6931800D01*
X9718600Y-6866800D01*
X9653600Y-6931800D01*
X9718600Y-6996800D01*
X7642500Y-4699500D02*
X7707500Y-4634500D01*
X7642500Y-4569500D01*
X7577500Y-4634500D01*
X7642500Y-4699500D01*
X8247500Y-3284500D02*
X8312500Y-3219500D01*
X8247500Y-3154500D01*
X8182500Y-3219500D01*
X8247500Y-3284500D01*
X8847500Y-4704500D02*
X8912500Y-4639500D01*
X8847500Y-4574500D01*
X8782500Y-4639500D01*
X8847500Y-4704500D01*
X11684000Y-3384000D02*
X11816000Y-3516000D01*
X11816000Y-3384000D02*
X11684000Y-3516000D01*
X11816000Y-3450000D02*
G75*
G03X11816000Y-3450000I-66000J0D01*
G01*
X11684000Y-3884000D02*
X11816000Y-4016000D01*
X11816000Y-3884000D02*
X11684000Y-4016000D01*
X11816000Y-3950000D02*
G75*
G03X11816000Y-3950000I-66000J0D01*
G01*
X11684000Y-4384000D02*
X11816000Y-4516000D01*
X11816000Y-4384000D02*
X11684000Y-4516000D01*
X11816000Y-4450000D02*
G75*
G03X11816000Y-4450000I-66000J0D01*
G01*
X11684000Y-6984000D02*
X11816000Y-7116000D01*
X11816000Y-6984000D02*
X11684000Y-7116000D01*
X11816000Y-7050000D02*
G75*
G03X11816000Y-7050000I-66000J0D01*
G01*
X11684000Y-7484000D02*
X11816000Y-7616000D01*
X11816000Y-7484000D02*
X11684000Y-7616000D01*
X11816000Y-7550000D02*
G75*
G03X11816000Y-7550000I-66000J0D01*
G01*
X11684000Y-7984000D02*
X11816000Y-8116000D01*
X11816000Y-7984000D02*
X11684000Y-8116000D01*
X11816000Y-8050000D02*
G75*
G03X11816000Y-8050000I-66000J0D01*
G01*
X4065000Y-6558000D02*
X4295000Y-6788000D01*
X4295000Y-6558000D02*
X4065000Y-6788000D01*
X4180000Y-6558000D02*
X4180000Y-6788000D01*
X4065000Y-6673000D02*
X4295000Y-6673000D01*
X4065000Y-7758000D02*
X4295000Y-7988000D01*
X4295000Y-7758000D02*
X4065000Y-7988000D01*
X4180000Y-7758000D02*
X4180000Y-7988000D01*
X4065000Y-7873000D02*
X4295000Y-7873000D01*
X4410000Y-3336000D02*
X4730000Y-3656000D01*
X4730000Y-3336000D02*
X4410000Y-3656000D01*
X4683138Y-3609138D02*
X4683138Y-3382862D01*
X4456862Y-3382862D01*
X4456862Y-3609138D01*
X4683138Y-3609138D01*
X4410000Y-5836000D02*
X4730000Y-6156000D01*
X4730000Y-5836000D02*
X4410000Y-6156000D01*
X4683138Y-6109138D02*
X4683138Y-5882862D01*
X4456862Y-5882862D01*
X4456862Y-6109138D01*
X4683138Y-6109138D01*
X4240000Y-8690000D02*
X4560000Y-9010000D01*
X4560000Y-8690000D02*
X4240000Y-9010000D01*
X4400000Y-9010000D02*
X4560000Y-8850000D01*
X4400000Y-8690000D01*
X4240000Y-8850000D01*
X4400000Y-9010000D01*
X11740000Y-8690000D02*
X12060000Y-9010000D01*
X12060000Y-8690000D02*
X11740000Y-9010000D01*
X11900000Y-9010000D02*
X12060000Y-8850000D01*
X11900000Y-8690000D01*
X11740000Y-8850000D01*
X11900000Y-9010000D01*
X11740000Y-2540000D02*
X12060000Y-2860000D01*
X12060000Y-2540000D02*
X11740000Y-2860000D01*
X11900000Y-2860000D02*
X12060000Y-2700000D01*
X11900000Y-2540000D01*
X11740000Y-2700000D01*
X11900000Y-2860000D01*
X4240000Y-2540000D02*
X4560000Y-2860000D01*
X4560000Y-2540000D02*
X4240000Y-2860000D01*
X4400000Y-2860000D02*
X4560000Y-2700000D01*
X4400000Y-2540000D01*
X4240000Y-2700000D01*
X4400000Y-2860000D01*
D12*
X4128928Y-9773214D02*
X4128928Y-9473214D01*
X4200357Y-9473214D01*
X4243214Y-9487500D01*
X4271786Y-9516072D01*
X4286071Y-9544643D01*
X4300357Y-9601786D01*
X4300357Y-9644643D01*
X4286071Y-9701786D01*
X4271786Y-9730357D01*
X4243214Y-9758929D01*
X4200357Y-9773214D01*
X4128928Y-9773214D01*
X4428928Y-9773214D02*
X4428928Y-9573214D01*
X4428928Y-9630357D02*
X4443214Y-9601786D01*
X4457500Y-9587500D01*
X4486071Y-9573214D01*
X4514643Y-9573214D01*
X4614643Y-9773214D02*
X4614643Y-9573214D01*
X4614643Y-9473214D02*
X4600357Y-9487500D01*
X4614643Y-9501786D01*
X4628928Y-9487500D01*
X4614643Y-9473214D01*
X4614643Y-9501786D01*
X4800357Y-9773214D02*
X4771786Y-9758929D01*
X4757500Y-9730357D01*
X4757500Y-9473214D01*
X4957500Y-9773214D02*
X4928928Y-9758929D01*
X4914643Y-9730357D01*
X4914643Y-9473214D01*
X5300357Y-9773214D02*
X5300357Y-9473214D01*
X5400357Y-9687500D01*
X5500357Y-9473214D01*
X5500357Y-9773214D01*
X5771786Y-9773214D02*
X5771786Y-9616072D01*
X5757500Y-9587500D01*
X5728928Y-9573214D01*
X5671786Y-9573214D01*
X5643214Y-9587500D01*
X5771786Y-9758929D02*
X5743214Y-9773214D01*
X5671786Y-9773214D01*
X5643214Y-9758929D01*
X5628928Y-9730357D01*
X5628928Y-9701786D01*
X5643214Y-9673214D01*
X5671786Y-9658929D01*
X5743214Y-9658929D01*
X5771786Y-9644643D01*
X5914643Y-9573214D02*
X5914643Y-9873214D01*
X5914643Y-9587500D02*
X5943214Y-9573214D01*
X6000357Y-9573214D01*
X6028928Y-9587500D01*
X6043214Y-9601786D01*
X6057500Y-9630357D01*
X6057500Y-9716072D01*
X6043214Y-9744643D01*
X6028928Y-9758929D01*
X6000357Y-9773214D01*
X5943214Y-9773214D01*
X5914643Y-9758929D01*
X6186071Y-9744643D02*
X6200357Y-9758929D01*
X6186071Y-9773214D01*
X6171786Y-9758929D01*
X6186071Y-9744643D01*
X6186071Y-9773214D01*
X6186071Y-9587500D02*
X6200357Y-9601786D01*
X6186071Y-9616072D01*
X6171786Y-9601786D01*
X6186071Y-9587500D01*
X6186071Y-9616072D01*
X3762500Y-10227500D02*
X3842500Y-10307500D01*
X3842500Y-10227500D02*
X3762500Y-10307500D01*
X4186071Y-10103214D02*
X4214643Y-10103214D01*
X4243214Y-10117500D01*
X4257500Y-10131786D01*
X4271786Y-10160357D01*
X4286071Y-10217500D01*
X4286071Y-10288929D01*
X4271786Y-10346072D01*
X4257500Y-10374643D01*
X4243214Y-10388929D01*
X4214643Y-10403214D01*
X4186071Y-10403214D01*
X4157500Y-10388929D01*
X4143214Y-10374643D01*
X4128928Y-10346072D01*
X4114643Y-10288929D01*
X4114643Y-10217500D01*
X4128928Y-10160357D01*
X4143214Y-10131786D01*
X4157500Y-10117500D01*
X4186071Y-10103214D01*
X4414643Y-10374643D02*
X4428928Y-10388929D01*
X4414643Y-10403214D01*
X4400357Y-10388929D01*
X4414643Y-10374643D01*
X4414643Y-10403214D01*
X4600357Y-10231786D02*
X4571786Y-10217500D01*
X4557500Y-10203214D01*
X4543214Y-10174643D01*
X4543214Y-10160357D01*
X4557500Y-10131786D01*
X4571786Y-10117500D01*
X4600357Y-10103214D01*
X4657500Y-10103214D01*
X4686071Y-10117500D01*
X4700357Y-10131786D01*
X4714643Y-10160357D01*
X4714643Y-10174643D01*
X4700357Y-10203214D01*
X4686071Y-10217500D01*
X4657500Y-10231786D01*
X4600357Y-10231786D01*
X4571786Y-10246072D01*
X4557500Y-10260357D01*
X4543214Y-10288929D01*
X4543214Y-10346072D01*
X4557500Y-10374643D01*
X4571786Y-10388929D01*
X4600357Y-10403214D01*
X4657500Y-10403214D01*
X4686071Y-10388929D01*
X4700357Y-10374643D01*
X4714643Y-10346072D01*
X4714643Y-10288929D01*
X4700357Y-10260357D01*
X4686071Y-10246072D01*
X4657500Y-10231786D01*
X4900357Y-10103214D02*
X4928928Y-10103214D01*
X4957500Y-10117500D01*
X4971786Y-10131786D01*
X4986071Y-10160357D01*
X5000357Y-10217500D01*
X5000357Y-10288929D01*
X4986071Y-10346072D01*
X4971786Y-10374643D01*
X4957500Y-10388929D01*
X4928928Y-10403214D01*
X4900357Y-10403214D01*
X4871786Y-10388929D01*
X4857500Y-10374643D01*
X4843214Y-10346072D01*
X4828928Y-10288929D01*
X4828928Y-10217500D01*
X4843214Y-10160357D01*
X4857500Y-10131786D01*
X4871786Y-10117500D01*
X4900357Y-10103214D01*
X5128928Y-10403214D02*
X5128928Y-10203214D01*
X5128928Y-10231786D02*
X5143214Y-10217500D01*
X5171786Y-10203214D01*
X5214643Y-10203214D01*
X5243214Y-10217500D01*
X5257500Y-10246072D01*
X5257500Y-10403214D01*
X5257500Y-10246072D02*
X5271786Y-10217500D01*
X5300357Y-10203214D01*
X5343214Y-10203214D01*
X5371786Y-10217500D01*
X5386071Y-10246072D01*
X5386071Y-10403214D01*
X5528928Y-10403214D02*
X5528928Y-10203214D01*
X5528928Y-10231786D02*
X5543214Y-10217500D01*
X5571786Y-10203214D01*
X5614643Y-10203214D01*
X5643214Y-10217500D01*
X5657500Y-10246072D01*
X5657500Y-10403214D01*
X5657500Y-10246072D02*
X5671786Y-10217500D01*
X5700357Y-10203214D01*
X5743214Y-10203214D01*
X5771786Y-10217500D01*
X5786071Y-10246072D01*
X5786071Y-10403214D01*
X6371786Y-10088929D02*
X6114643Y-10474643D01*
X6757500Y-10103214D02*
X6786071Y-10103214D01*
X6814643Y-10117500D01*
X6828928Y-10131786D01*
X6843214Y-10160357D01*
X6857500Y-10217500D01*
X6857500Y-10288929D01*
X6843214Y-10346072D01*
X6828928Y-10374643D01*
X6814643Y-10388929D01*
X6786071Y-10403214D01*
X6757500Y-10403214D01*
X6728928Y-10388929D01*
X6714643Y-10374643D01*
X6700357Y-10346072D01*
X6686071Y-10288929D01*
X6686071Y-10217500D01*
X6700357Y-10160357D01*
X6714643Y-10131786D01*
X6728928Y-10117500D01*
X6757500Y-10103214D01*
X6986071Y-10374643D02*
X7000357Y-10388929D01*
X6986071Y-10403214D01*
X6971786Y-10388929D01*
X6986071Y-10374643D01*
X6986071Y-10403214D01*
X7186071Y-10103214D02*
X7214643Y-10103214D01*
X7243214Y-10117500D01*
X7257500Y-10131786D01*
X7271786Y-10160357D01*
X7286071Y-10217500D01*
X7286071Y-10288929D01*
X7271786Y-10346072D01*
X7257500Y-10374643D01*
X7243214Y-10388929D01*
X7214643Y-10403214D01*
X7186071Y-10403214D01*
X7157500Y-10388929D01*
X7143214Y-10374643D01*
X7128928Y-10346072D01*
X7114643Y-10288929D01*
X7114643Y-10217500D01*
X7128928Y-10160357D01*
X7143214Y-10131786D01*
X7157500Y-10117500D01*
X7186071Y-10103214D01*
X7386071Y-10103214D02*
X7571786Y-10103214D01*
X7471786Y-10217500D01*
X7514643Y-10217500D01*
X7543214Y-10231786D01*
X7557500Y-10246072D01*
X7571786Y-10274643D01*
X7571786Y-10346072D01*
X7557500Y-10374643D01*
X7543214Y-10388929D01*
X7514643Y-10403214D01*
X7428928Y-10403214D01*
X7400357Y-10388929D01*
X7386071Y-10374643D01*
X7857500Y-10403214D02*
X7686071Y-10403214D01*
X7771786Y-10403214D02*
X7771786Y-10103214D01*
X7743214Y-10146072D01*
X7714643Y-10174643D01*
X7686071Y-10188929D01*
X7971786Y-10103214D02*
X7971786Y-10160357D01*
X8086071Y-10103214D02*
X8086071Y-10160357D01*
X8528928Y-10517500D02*
X8514643Y-10503214D01*
X8486071Y-10460357D01*
X8471786Y-10431786D01*
X8457500Y-10388929D01*
X8443214Y-10317500D01*
X8443214Y-10260357D01*
X8457500Y-10188929D01*
X8471786Y-10146072D01*
X8486071Y-10117500D01*
X8514643Y-10074643D01*
X8528928Y-10060357D01*
X8786071Y-10103214D02*
X8643214Y-10103214D01*
X8628928Y-10246072D01*
X8643214Y-10231786D01*
X8671786Y-10217500D01*
X8743214Y-10217500D01*
X8771786Y-10231786D01*
X8786071Y-10246072D01*
X8800357Y-10274643D01*
X8800357Y-10346072D01*
X8786071Y-10374643D01*
X8771786Y-10388929D01*
X8743214Y-10403214D01*
X8671786Y-10403214D01*
X8643214Y-10388929D01*
X8628928Y-10374643D01*
X8943214Y-10403214D02*
X9000357Y-10403214D01*
X9028928Y-10388929D01*
X9043214Y-10374643D01*
X9071786Y-10331786D01*
X9086071Y-10274643D01*
X9086071Y-10160357D01*
X9071786Y-10131786D01*
X9057500Y-10117500D01*
X9028928Y-10103214D01*
X8971786Y-10103214D01*
X8943214Y-10117500D01*
X8928928Y-10131786D01*
X8914643Y-10160357D01*
X8914643Y-10231786D01*
X8928928Y-10260357D01*
X8943214Y-10274643D01*
X8971786Y-10288929D01*
X9028928Y-10288929D01*
X9057500Y-10274643D01*
X9071786Y-10260357D01*
X9086071Y-10231786D01*
X9443214Y-10403214D02*
X9443214Y-10103214D01*
X9571786Y-10403214D02*
X9571786Y-10246072D01*
X9557500Y-10217500D01*
X9528928Y-10203214D01*
X9486071Y-10203214D01*
X9457500Y-10217500D01*
X9443214Y-10231786D01*
X9757500Y-10403214D02*
X9728928Y-10388929D01*
X9714643Y-10374643D01*
X9700357Y-10346072D01*
X9700357Y-10260357D01*
X9714643Y-10231786D01*
X9728928Y-10217500D01*
X9757500Y-10203214D01*
X9800357Y-10203214D01*
X9828928Y-10217500D01*
X9843214Y-10231786D01*
X9857500Y-10260357D01*
X9857500Y-10346072D01*
X9843214Y-10374643D01*
X9828928Y-10388929D01*
X9800357Y-10403214D01*
X9757500Y-10403214D01*
X10028928Y-10403214D02*
X10000357Y-10388929D01*
X9986071Y-10360357D01*
X9986071Y-10103214D01*
X10257500Y-10388929D02*
X10228928Y-10403214D01*
X10171786Y-10403214D01*
X10143214Y-10388929D01*
X10128928Y-10360357D01*
X10128928Y-10246072D01*
X10143214Y-10217500D01*
X10171786Y-10203214D01*
X10228928Y-10203214D01*
X10257500Y-10217500D01*
X10271786Y-10246072D01*
X10271786Y-10274643D01*
X10128928Y-10303214D01*
X10386071Y-10388929D02*
X10414643Y-10403214D01*
X10471786Y-10403214D01*
X10500357Y-10388929D01*
X10514643Y-10360357D01*
X10514643Y-10346072D01*
X10500357Y-10317500D01*
X10471786Y-10303214D01*
X10428928Y-10303214D01*
X10400357Y-10288929D01*
X10386071Y-10260357D01*
X10386071Y-10246072D01*
X10400357Y-10217500D01*
X10428928Y-10203214D01*
X10471786Y-10203214D01*
X10500357Y-10217500D01*
X10614643Y-10517500D02*
X10628928Y-10503214D01*
X10657500Y-10460357D01*
X10671786Y-10431786D01*
X10686071Y-10388929D01*
X10700357Y-10317500D01*
X10700357Y-10260357D01*
X10686071Y-10188929D01*
X10671786Y-10146072D01*
X10657500Y-10117500D01*
X10628928Y-10074643D01*
X10614643Y-10060357D01*
X3842500Y-10663500D02*
G75*
G03X3842500Y-10663500I-40500J0D01*
G01*
X4186071Y-10499214D02*
X4214643Y-10499214D01*
X4243214Y-10513500D01*
X4257500Y-10527786D01*
X4271786Y-10556357D01*
X4286071Y-10613500D01*
X4286071Y-10684929D01*
X4271786Y-10742072D01*
X4257500Y-10770643D01*
X4243214Y-10784929D01*
X4214643Y-10799214D01*
X4186071Y-10799214D01*
X4157500Y-10784929D01*
X4143214Y-10770643D01*
X4128928Y-10742072D01*
X4114643Y-10684929D01*
X4114643Y-10613500D01*
X4128928Y-10556357D01*
X4143214Y-10527786D01*
X4157500Y-10513500D01*
X4186071Y-10499214D01*
X4414643Y-10770643D02*
X4428928Y-10784929D01*
X4414643Y-10799214D01*
X4400357Y-10784929D01*
X4414643Y-10770643D01*
X4414643Y-10799214D01*
X4600357Y-10627786D02*
X4571786Y-10613500D01*
X4557500Y-10599214D01*
X4543214Y-10570643D01*
X4543214Y-10556357D01*
X4557500Y-10527786D01*
X4571786Y-10513500D01*
X4600357Y-10499214D01*
X4657500Y-10499214D01*
X4686071Y-10513500D01*
X4700357Y-10527786D01*
X4714643Y-10556357D01*
X4714643Y-10570643D01*
X4700357Y-10599214D01*
X4686071Y-10613500D01*
X4657500Y-10627786D01*
X4600357Y-10627786D01*
X4571786Y-10642072D01*
X4557500Y-10656357D01*
X4543214Y-10684929D01*
X4543214Y-10742072D01*
X4557500Y-10770643D01*
X4571786Y-10784929D01*
X4600357Y-10799214D01*
X4657500Y-10799214D01*
X4686071Y-10784929D01*
X4700357Y-10770643D01*
X4714643Y-10742072D01*
X4714643Y-10684929D01*
X4700357Y-10656357D01*
X4686071Y-10642072D01*
X4657500Y-10627786D01*
X5000357Y-10799214D02*
X4828928Y-10799214D01*
X4914643Y-10799214D02*
X4914643Y-10499214D01*
X4886071Y-10542072D01*
X4857500Y-10570643D01*
X4828928Y-10584929D01*
X5128928Y-10799214D02*
X5128928Y-10599214D01*
X5128928Y-10627786D02*
X5143214Y-10613500D01*
X5171786Y-10599214D01*
X5214643Y-10599214D01*
X5243214Y-10613500D01*
X5257500Y-10642072D01*
X5257500Y-10799214D01*
X5257500Y-10642072D02*
X5271786Y-10613500D01*
X5300357Y-10599214D01*
X5343214Y-10599214D01*
X5371786Y-10613500D01*
X5386071Y-10642072D01*
X5386071Y-10799214D01*
X5528928Y-10799214D02*
X5528928Y-10599214D01*
X5528928Y-10627786D02*
X5543214Y-10613500D01*
X5571786Y-10599214D01*
X5614643Y-10599214D01*
X5643214Y-10613500D01*
X5657500Y-10642072D01*
X5657500Y-10799214D01*
X5657500Y-10642072D02*
X5671786Y-10613500D01*
X5700357Y-10599214D01*
X5743214Y-10599214D01*
X5771786Y-10613500D01*
X5786071Y-10642072D01*
X5786071Y-10799214D01*
X6371786Y-10484929D02*
X6114643Y-10870643D01*
X6757500Y-10499214D02*
X6786071Y-10499214D01*
X6814643Y-10513500D01*
X6828928Y-10527786D01*
X6843214Y-10556357D01*
X6857500Y-10613500D01*
X6857500Y-10684929D01*
X6843214Y-10742072D01*
X6828928Y-10770643D01*
X6814643Y-10784929D01*
X6786071Y-10799214D01*
X6757500Y-10799214D01*
X6728928Y-10784929D01*
X6714643Y-10770643D01*
X6700357Y-10742072D01*
X6686071Y-10684929D01*
X6686071Y-10613500D01*
X6700357Y-10556357D01*
X6714643Y-10527786D01*
X6728928Y-10513500D01*
X6757500Y-10499214D01*
X6986071Y-10770643D02*
X7000357Y-10784929D01*
X6986071Y-10799214D01*
X6971786Y-10784929D01*
X6986071Y-10770643D01*
X6986071Y-10799214D01*
X7186071Y-10499214D02*
X7214643Y-10499214D01*
X7243214Y-10513500D01*
X7257500Y-10527786D01*
X7271786Y-10556357D01*
X7286071Y-10613500D01*
X7286071Y-10684929D01*
X7271786Y-10742072D01*
X7257500Y-10770643D01*
X7243214Y-10784929D01*
X7214643Y-10799214D01*
X7186071Y-10799214D01*
X7157500Y-10784929D01*
X7143214Y-10770643D01*
X7128928Y-10742072D01*
X7114643Y-10684929D01*
X7114643Y-10613500D01*
X7128928Y-10556357D01*
X7143214Y-10527786D01*
X7157500Y-10513500D01*
X7186071Y-10499214D01*
X7386071Y-10499214D02*
X7571786Y-10499214D01*
X7471786Y-10613500D01*
X7514643Y-10613500D01*
X7543214Y-10627786D01*
X7557500Y-10642072D01*
X7571786Y-10670643D01*
X7571786Y-10742072D01*
X7557500Y-10770643D01*
X7543214Y-10784929D01*
X7514643Y-10799214D01*
X7428928Y-10799214D01*
X7400357Y-10784929D01*
X7386071Y-10770643D01*
X7686071Y-10527786D02*
X7700357Y-10513500D01*
X7728928Y-10499214D01*
X7800357Y-10499214D01*
X7828928Y-10513500D01*
X7843214Y-10527786D01*
X7857500Y-10556357D01*
X7857500Y-10584929D01*
X7843214Y-10627786D01*
X7671786Y-10799214D01*
X7857500Y-10799214D01*
X7971786Y-10499214D02*
X7971786Y-10556357D01*
X8086071Y-10499214D02*
X8086071Y-10556357D01*
X8528928Y-10913500D02*
X8514643Y-10899214D01*
X8486071Y-10856357D01*
X8471786Y-10827786D01*
X8457500Y-10784929D01*
X8443214Y-10713500D01*
X8443214Y-10656357D01*
X8457500Y-10584929D01*
X8471786Y-10542072D01*
X8486071Y-10513500D01*
X8514643Y-10470643D01*
X8528928Y-10456357D01*
X8771786Y-10599214D02*
X8771786Y-10799214D01*
X8700357Y-10484929D02*
X8628928Y-10699214D01*
X8814643Y-10699214D01*
X9157500Y-10799214D02*
X9157500Y-10499214D01*
X9286071Y-10799214D02*
X9286071Y-10642072D01*
X9271786Y-10613500D01*
X9243214Y-10599214D01*
X9200357Y-10599214D01*
X9171786Y-10613500D01*
X9157500Y-10627786D01*
X9471786Y-10799214D02*
X9443214Y-10784929D01*
X9428928Y-10770643D01*
X9414643Y-10742072D01*
X9414643Y-10656357D01*
X9428928Y-10627786D01*
X9443214Y-10613500D01*
X9471786Y-10599214D01*
X9514643Y-10599214D01*
X9543214Y-10613500D01*
X9557500Y-10627786D01*
X9571786Y-10656357D01*
X9571786Y-10742072D01*
X9557500Y-10770643D01*
X9543214Y-10784929D01*
X9514643Y-10799214D01*
X9471786Y-10799214D01*
X9743214Y-10799214D02*
X9714643Y-10784929D01*
X9700357Y-10756357D01*
X9700357Y-10499214D01*
X9971786Y-10784929D02*
X9943214Y-10799214D01*
X9886071Y-10799214D01*
X9857500Y-10784929D01*
X9843214Y-10756357D01*
X9843214Y-10642072D01*
X9857500Y-10613500D01*
X9886071Y-10599214D01*
X9943214Y-10599214D01*
X9971786Y-10613500D01*
X9986071Y-10642072D01*
X9986071Y-10670643D01*
X9843214Y-10699214D01*
X10100357Y-10784929D02*
X10128928Y-10799214D01*
X10186071Y-10799214D01*
X10214643Y-10784929D01*
X10228928Y-10756357D01*
X10228928Y-10742072D01*
X10214643Y-10713500D01*
X10186071Y-10699214D01*
X10143214Y-10699214D01*
X10114643Y-10684929D01*
X10100357Y-10656357D01*
X10100357Y-10642072D01*
X10114643Y-10613500D01*
X10143214Y-10599214D01*
X10186071Y-10599214D01*
X10214643Y-10613500D01*
X10328928Y-10913500D02*
X10343214Y-10899214D01*
X10371786Y-10856357D01*
X10386071Y-10827786D01*
X10400357Y-10784929D01*
X10414643Y-10713500D01*
X10414643Y-10656357D01*
X10400357Y-10584929D01*
X10386071Y-10542072D01*
X10371786Y-10513500D01*
X10343214Y-10470643D01*
X10328928Y-10456357D01*
X3792500Y-11009500D02*
X3792500Y-11109500D01*
X3742500Y-11059500D02*
X3842500Y-11059500D01*
X4286071Y-11195214D02*
X4114643Y-11195214D01*
X4200357Y-11195214D02*
X4200357Y-10895214D01*
X4171786Y-10938072D01*
X4143214Y-10966643D01*
X4114643Y-10980929D01*
X4414643Y-11166643D02*
X4428928Y-11180929D01*
X4414643Y-11195214D01*
X4400357Y-11180929D01*
X4414643Y-11166643D01*
X4414643Y-11195214D01*
X4614643Y-10895214D02*
X4643214Y-10895214D01*
X4671786Y-10909500D01*
X4686071Y-10923786D01*
X4700357Y-10952357D01*
X4714643Y-11009500D01*
X4714643Y-11080929D01*
X4700357Y-11138072D01*
X4686071Y-11166643D01*
X4671786Y-11180929D01*
X4643214Y-11195214D01*
X4614643Y-11195214D01*
X4586071Y-11180929D01*
X4571786Y-11166643D01*
X4557500Y-11138072D01*
X4543214Y-11080929D01*
X4543214Y-11009500D01*
X4557500Y-10952357D01*
X4571786Y-10923786D01*
X4586071Y-10909500D01*
X4614643Y-10895214D01*
X4900357Y-10895214D02*
X4928928Y-10895214D01*
X4957500Y-10909500D01*
X4971786Y-10923786D01*
X4986071Y-10952357D01*
X5000357Y-11009500D01*
X5000357Y-11080929D01*
X4986071Y-11138072D01*
X4971786Y-11166643D01*
X4957500Y-11180929D01*
X4928928Y-11195214D01*
X4900357Y-11195214D01*
X4871786Y-11180929D01*
X4857500Y-11166643D01*
X4843214Y-11138072D01*
X4828928Y-11080929D01*
X4828928Y-11009500D01*
X4843214Y-10952357D01*
X4857500Y-10923786D01*
X4871786Y-10909500D01*
X4900357Y-10895214D01*
X5128928Y-11195214D02*
X5128928Y-10995214D01*
X5128928Y-11023786D02*
X5143214Y-11009500D01*
X5171786Y-10995214D01*
X5214643Y-10995214D01*
X5243214Y-11009500D01*
X5257500Y-11038072D01*
X5257500Y-11195214D01*
X5257500Y-11038072D02*
X5271786Y-11009500D01*
X5300357Y-10995214D01*
X5343214Y-10995214D01*
X5371786Y-11009500D01*
X5386071Y-11038072D01*
X5386071Y-11195214D01*
X5528928Y-11195214D02*
X5528928Y-10995214D01*
X5528928Y-11023786D02*
X5543214Y-11009500D01*
X5571786Y-10995214D01*
X5614643Y-10995214D01*
X5643214Y-11009500D01*
X5657500Y-11038072D01*
X5657500Y-11195214D01*
X5657500Y-11038072D02*
X5671786Y-11009500D01*
X5700357Y-10995214D01*
X5743214Y-10995214D01*
X5771786Y-11009500D01*
X5786071Y-11038072D01*
X5786071Y-11195214D01*
X6371786Y-10880929D02*
X6114643Y-11266643D01*
X6757500Y-10895214D02*
X6786071Y-10895214D01*
X6814643Y-10909500D01*
X6828928Y-10923786D01*
X6843214Y-10952357D01*
X6857500Y-11009500D01*
X6857500Y-11080929D01*
X6843214Y-11138072D01*
X6828928Y-11166643D01*
X6814643Y-11180929D01*
X6786071Y-11195214D01*
X6757500Y-11195214D01*
X6728928Y-11180929D01*
X6714643Y-11166643D01*
X6700357Y-11138072D01*
X6686071Y-11080929D01*
X6686071Y-11009500D01*
X6700357Y-10952357D01*
X6714643Y-10923786D01*
X6728928Y-10909500D01*
X6757500Y-10895214D01*
X6986071Y-11166643D02*
X7000357Y-11180929D01*
X6986071Y-11195214D01*
X6971786Y-11180929D01*
X6986071Y-11166643D01*
X6986071Y-11195214D01*
X7186071Y-10895214D02*
X7214643Y-10895214D01*
X7243214Y-10909500D01*
X7257500Y-10923786D01*
X7271786Y-10952357D01*
X7286071Y-11009500D01*
X7286071Y-11080929D01*
X7271786Y-11138072D01*
X7257500Y-11166643D01*
X7243214Y-11180929D01*
X7214643Y-11195214D01*
X7186071Y-11195214D01*
X7157500Y-11180929D01*
X7143214Y-11166643D01*
X7128928Y-11138072D01*
X7114643Y-11080929D01*
X7114643Y-11009500D01*
X7128928Y-10952357D01*
X7143214Y-10923786D01*
X7157500Y-10909500D01*
X7186071Y-10895214D01*
X7386071Y-10895214D02*
X7571786Y-10895214D01*
X7471786Y-11009500D01*
X7514643Y-11009500D01*
X7543214Y-11023786D01*
X7557500Y-11038072D01*
X7571786Y-11066643D01*
X7571786Y-11138072D01*
X7557500Y-11166643D01*
X7543214Y-11180929D01*
X7514643Y-11195214D01*
X7428928Y-11195214D01*
X7400357Y-11180929D01*
X7386071Y-11166643D01*
X7714643Y-11195214D02*
X7771786Y-11195214D01*
X7800357Y-11180929D01*
X7814643Y-11166643D01*
X7843214Y-11123786D01*
X7857500Y-11066643D01*
X7857500Y-10952357D01*
X7843214Y-10923786D01*
X7828928Y-10909500D01*
X7800357Y-10895214D01*
X7743214Y-10895214D01*
X7714643Y-10909500D01*
X7700357Y-10923786D01*
X7686071Y-10952357D01*
X7686071Y-11023786D01*
X7700357Y-11052357D01*
X7714643Y-11066643D01*
X7743214Y-11080929D01*
X7800357Y-11080929D01*
X7828928Y-11066643D01*
X7843214Y-11052357D01*
X7857500Y-11023786D01*
X7971786Y-10895214D02*
X7971786Y-10952357D01*
X8086071Y-10895214D02*
X8086071Y-10952357D01*
X8528928Y-11309500D02*
X8514643Y-11295214D01*
X8486071Y-11252357D01*
X8471786Y-11223786D01*
X8457500Y-11180929D01*
X8443214Y-11109500D01*
X8443214Y-11052357D01*
X8457500Y-10980929D01*
X8471786Y-10938072D01*
X8486071Y-10909500D01*
X8514643Y-10866643D01*
X8528928Y-10852357D01*
X8628928Y-10923786D02*
X8643214Y-10909500D01*
X8671786Y-10895214D01*
X8743214Y-10895214D01*
X8771786Y-10909500D01*
X8786071Y-10923786D01*
X8800357Y-10952357D01*
X8800357Y-10980929D01*
X8786071Y-11023786D01*
X8614643Y-11195214D01*
X8800357Y-11195214D01*
X9057500Y-10995214D02*
X9057500Y-11195214D01*
X8986071Y-10880929D02*
X8914643Y-11095214D01*
X9100357Y-11095214D01*
X9443214Y-11195214D02*
X9443214Y-10895214D01*
X9571786Y-11195214D02*
X9571786Y-11038072D01*
X9557500Y-11009500D01*
X9528928Y-10995214D01*
X9486071Y-10995214D01*
X9457500Y-11009500D01*
X9443214Y-11023786D01*
X9757500Y-11195214D02*
X9728928Y-11180929D01*
X9714643Y-11166643D01*
X9700357Y-11138072D01*
X9700357Y-11052357D01*
X9714643Y-11023786D01*
X9728928Y-11009500D01*
X9757500Y-10995214D01*
X9800357Y-10995214D01*
X9828928Y-11009500D01*
X9843214Y-11023786D01*
X9857500Y-11052357D01*
X9857500Y-11138072D01*
X9843214Y-11166643D01*
X9828928Y-11180929D01*
X9800357Y-11195214D01*
X9757500Y-11195214D01*
X10028928Y-11195214D02*
X10000357Y-11180929D01*
X9986071Y-11152357D01*
X9986071Y-10895214D01*
X10257500Y-11180929D02*
X10228928Y-11195214D01*
X10171786Y-11195214D01*
X10143214Y-11180929D01*
X10128928Y-11152357D01*
X10128928Y-11038072D01*
X10143214Y-11009500D01*
X10171786Y-10995214D01*
X10228928Y-10995214D01*
X10257500Y-11009500D01*
X10271786Y-11038072D01*
X10271786Y-11066643D01*
X10128928Y-11095214D01*
X10386071Y-11180929D02*
X10414643Y-11195214D01*
X10471786Y-11195214D01*
X10500357Y-11180929D01*
X10514643Y-11152357D01*
X10514643Y-11138072D01*
X10500357Y-11109500D01*
X10471786Y-11095214D01*
X10428928Y-11095214D01*
X10400357Y-11080929D01*
X10386071Y-11052357D01*
X10386071Y-11038072D01*
X10400357Y-11009500D01*
X10428928Y-10995214D01*
X10471786Y-10995214D01*
X10500357Y-11009500D01*
X10614643Y-11309500D02*
X10628928Y-11295214D01*
X10657500Y-11252357D01*
X10671786Y-11223786D01*
X10686071Y-11180929D01*
X10700357Y-11109500D01*
X10700357Y-11052357D01*
X10686071Y-10980929D01*
X10671786Y-10938072D01*
X10657500Y-10909500D01*
X10628928Y-10866643D01*
X10614643Y-10852357D01*
X3824927Y-11497927D02*
X3824927Y-11413073D01*
X3740073Y-11413073D01*
X3740073Y-11497927D01*
X3824927Y-11497927D01*
X4286071Y-11591214D02*
X4114643Y-11591214D01*
X4200357Y-11591214D02*
X4200357Y-11291214D01*
X4171786Y-11334071D01*
X4143214Y-11362643D01*
X4114643Y-11376929D01*
X4414643Y-11562643D02*
X4428928Y-11576929D01*
X4414643Y-11591214D01*
X4400357Y-11576929D01*
X4414643Y-11562643D01*
X4414643Y-11591214D01*
X4543214Y-11319786D02*
X4557500Y-11305500D01*
X4586071Y-11291214D01*
X4657500Y-11291214D01*
X4686071Y-11305500D01*
X4700357Y-11319786D01*
X4714643Y-11348357D01*
X4714643Y-11376929D01*
X4700357Y-11419786D01*
X4528928Y-11591214D01*
X4714643Y-11591214D01*
X4900357Y-11291214D02*
X4928928Y-11291214D01*
X4957500Y-11305500D01*
X4971786Y-11319786D01*
X4986071Y-11348357D01*
X5000357Y-11405500D01*
X5000357Y-11476929D01*
X4986071Y-11534071D01*
X4971786Y-11562643D01*
X4957500Y-11576929D01*
X4928928Y-11591214D01*
X4900357Y-11591214D01*
X4871786Y-11576929D01*
X4857500Y-11562643D01*
X4843214Y-11534071D01*
X4828928Y-11476929D01*
X4828928Y-11405500D01*
X4843214Y-11348357D01*
X4857500Y-11319786D01*
X4871786Y-11305500D01*
X4900357Y-11291214D01*
X5128928Y-11591214D02*
X5128928Y-11391214D01*
X5128928Y-11419786D02*
X5143214Y-11405500D01*
X5171786Y-11391214D01*
X5214643Y-11391214D01*
X5243214Y-11405500D01*
X5257500Y-11434071D01*
X5257500Y-11591214D01*
X5257500Y-11434071D02*
X5271786Y-11405500D01*
X5300357Y-11391214D01*
X5343214Y-11391214D01*
X5371786Y-11405500D01*
X5386071Y-11434071D01*
X5386071Y-11591214D01*
X5528928Y-11591214D02*
X5528928Y-11391214D01*
X5528928Y-11419786D02*
X5543214Y-11405500D01*
X5571786Y-11391214D01*
X5614643Y-11391214D01*
X5643214Y-11405500D01*
X5657500Y-11434071D01*
X5657500Y-11591214D01*
X5657500Y-11434071D02*
X5671786Y-11405500D01*
X5700357Y-11391214D01*
X5743214Y-11391214D01*
X5771786Y-11405500D01*
X5786071Y-11434071D01*
X5786071Y-11591214D01*
X6371786Y-11276929D02*
X6114643Y-11662643D01*
X6757500Y-11291214D02*
X6786071Y-11291214D01*
X6814643Y-11305500D01*
X6828928Y-11319786D01*
X6843214Y-11348357D01*
X6857500Y-11405500D01*
X6857500Y-11476929D01*
X6843214Y-11534071D01*
X6828928Y-11562643D01*
X6814643Y-11576929D01*
X6786071Y-11591214D01*
X6757500Y-11591214D01*
X6728928Y-11576929D01*
X6714643Y-11562643D01*
X6700357Y-11534071D01*
X6686071Y-11476929D01*
X6686071Y-11405500D01*
X6700357Y-11348357D01*
X6714643Y-11319786D01*
X6728928Y-11305500D01*
X6757500Y-11291214D01*
X6986071Y-11562643D02*
X7000357Y-11576929D01*
X6986071Y-11591214D01*
X6971786Y-11576929D01*
X6986071Y-11562643D01*
X6986071Y-11591214D01*
X7186071Y-11291214D02*
X7214643Y-11291214D01*
X7243214Y-11305500D01*
X7257500Y-11319786D01*
X7271786Y-11348357D01*
X7286071Y-11405500D01*
X7286071Y-11476929D01*
X7271786Y-11534071D01*
X7257500Y-11562643D01*
X7243214Y-11576929D01*
X7214643Y-11591214D01*
X7186071Y-11591214D01*
X7157500Y-11576929D01*
X7143214Y-11562643D01*
X7128928Y-11534071D01*
X7114643Y-11476929D01*
X7114643Y-11405500D01*
X7128928Y-11348357D01*
X7143214Y-11319786D01*
X7157500Y-11305500D01*
X7186071Y-11291214D01*
X7543214Y-11391214D02*
X7543214Y-11591214D01*
X7471786Y-11276929D02*
X7400357Y-11491214D01*
X7586071Y-11491214D01*
X7671786Y-11291214D02*
X7871786Y-11291214D01*
X7743214Y-11591214D01*
X7971786Y-11291214D02*
X7971786Y-11348357D01*
X8086071Y-11291214D02*
X8086071Y-11348357D01*
X8528928Y-11705500D02*
X8514643Y-11691214D01*
X8486071Y-11648357D01*
X8471786Y-11619786D01*
X8457500Y-11576929D01*
X8443214Y-11505500D01*
X8443214Y-11448357D01*
X8457500Y-11376929D01*
X8471786Y-11334071D01*
X8486071Y-11305500D01*
X8514643Y-11262643D01*
X8528928Y-11248357D01*
X8771786Y-11391214D02*
X8771786Y-11591214D01*
X8700357Y-11276929D02*
X8628928Y-11491214D01*
X8814643Y-11491214D01*
X9157500Y-11591214D02*
X9157500Y-11291214D01*
X9286071Y-11591214D02*
X9286071Y-11434071D01*
X9271786Y-11405500D01*
X9243214Y-11391214D01*
X9200357Y-11391214D01*
X9171786Y-11405500D01*
X9157500Y-11419786D01*
X9471786Y-11591214D02*
X9443214Y-11576929D01*
X9428928Y-11562643D01*
X9414643Y-11534071D01*
X9414643Y-11448357D01*
X9428928Y-11419786D01*
X9443214Y-11405500D01*
X9471786Y-11391214D01*
X9514643Y-11391214D01*
X9543214Y-11405500D01*
X9557500Y-11419786D01*
X9571786Y-11448357D01*
X9571786Y-11534071D01*
X9557500Y-11562643D01*
X9543214Y-11576929D01*
X9514643Y-11591214D01*
X9471786Y-11591214D01*
X9743214Y-11591214D02*
X9714643Y-11576929D01*
X9700357Y-11548357D01*
X9700357Y-11291214D01*
X9971786Y-11576929D02*
X9943214Y-11591214D01*
X9886071Y-11591214D01*
X9857500Y-11576929D01*
X9843214Y-11548357D01*
X9843214Y-11434071D01*
X9857500Y-11405500D01*
X9886071Y-11391214D01*
X9943214Y-11391214D01*
X9971786Y-11405500D01*
X9986071Y-11434071D01*
X9986071Y-11462643D01*
X9843214Y-11491214D01*
X10100357Y-11576929D02*
X10128928Y-11591214D01*
X10186071Y-11591214D01*
X10214643Y-11576929D01*
X10228928Y-11548357D01*
X10228928Y-11534071D01*
X10214643Y-11505500D01*
X10186071Y-11491214D01*
X10143214Y-11491214D01*
X10114643Y-11476929D01*
X10100357Y-11448357D01*
X10100357Y-11434071D01*
X10114643Y-11405500D01*
X10143214Y-11391214D01*
X10186071Y-11391214D01*
X10214643Y-11405500D01*
X10328928Y-11705500D02*
X10343214Y-11691214D01*
X10371786Y-11648357D01*
X10386071Y-11619786D01*
X10400357Y-11576929D01*
X10414643Y-11505500D01*
X10414643Y-11448357D01*
X10400357Y-11376929D01*
X10386071Y-11334071D01*
X10371786Y-11305500D01*
X10343214Y-11262643D01*
X10328928Y-11248357D01*
X3777500Y-11916500D02*
X3842500Y-11851500D01*
X3777500Y-11786500D01*
X3712500Y-11851500D01*
X3777500Y-11916500D01*
X4286071Y-11987214D02*
X4114643Y-11987214D01*
X4200357Y-11987214D02*
X4200357Y-11687214D01*
X4171786Y-11730071D01*
X4143214Y-11758643D01*
X4114643Y-11772929D01*
X4414643Y-11958643D02*
X4428928Y-11972929D01*
X4414643Y-11987214D01*
X4400357Y-11972929D01*
X4414643Y-11958643D01*
X4414643Y-11987214D01*
X4528928Y-11687214D02*
X4714643Y-11687214D01*
X4614643Y-11801500D01*
X4657500Y-11801500D01*
X4686071Y-11815786D01*
X4700357Y-11830071D01*
X4714643Y-11858643D01*
X4714643Y-11930071D01*
X4700357Y-11958643D01*
X4686071Y-11972929D01*
X4657500Y-11987214D01*
X4571786Y-11987214D01*
X4543214Y-11972929D01*
X4528928Y-11958643D01*
X4900357Y-11687214D02*
X4928928Y-11687214D01*
X4957500Y-11701500D01*
X4971786Y-11715786D01*
X4986071Y-11744357D01*
X5000357Y-11801500D01*
X5000357Y-11872929D01*
X4986071Y-11930071D01*
X4971786Y-11958643D01*
X4957500Y-11972929D01*
X4928928Y-11987214D01*
X4900357Y-11987214D01*
X4871786Y-11972929D01*
X4857500Y-11958643D01*
X4843214Y-11930071D01*
X4828928Y-11872929D01*
X4828928Y-11801500D01*
X4843214Y-11744357D01*
X4857500Y-11715786D01*
X4871786Y-11701500D01*
X4900357Y-11687214D01*
X5128928Y-11987214D02*
X5128928Y-11787214D01*
X5128928Y-11815786D02*
X5143214Y-11801500D01*
X5171786Y-11787214D01*
X5214643Y-11787214D01*
X5243214Y-11801500D01*
X5257500Y-11830071D01*
X5257500Y-11987214D01*
X5257500Y-11830071D02*
X5271786Y-11801500D01*
X5300357Y-11787214D01*
X5343214Y-11787214D01*
X5371786Y-11801500D01*
X5386071Y-11830071D01*
X5386071Y-11987214D01*
X5528928Y-11987214D02*
X5528928Y-11787214D01*
X5528928Y-11815786D02*
X5543214Y-11801500D01*
X5571786Y-11787214D01*
X5614643Y-11787214D01*
X5643214Y-11801500D01*
X5657500Y-11830071D01*
X5657500Y-11987214D01*
X5657500Y-11830071D02*
X5671786Y-11801500D01*
X5700357Y-11787214D01*
X5743214Y-11787214D01*
X5771786Y-11801500D01*
X5786071Y-11830071D01*
X5786071Y-11987214D01*
X6371786Y-11672929D02*
X6114643Y-12058643D01*
X6757500Y-11687214D02*
X6786071Y-11687214D01*
X6814643Y-11701500D01*
X6828928Y-11715786D01*
X6843214Y-11744357D01*
X6857500Y-11801500D01*
X6857500Y-11872929D01*
X6843214Y-11930071D01*
X6828928Y-11958643D01*
X6814643Y-11972929D01*
X6786071Y-11987214D01*
X6757500Y-11987214D01*
X6728928Y-11972929D01*
X6714643Y-11958643D01*
X6700357Y-11930071D01*
X6686071Y-11872929D01*
X6686071Y-11801500D01*
X6700357Y-11744357D01*
X6714643Y-11715786D01*
X6728928Y-11701500D01*
X6757500Y-11687214D01*
X6986071Y-11958643D02*
X7000357Y-11972929D01*
X6986071Y-11987214D01*
X6971786Y-11972929D01*
X6986071Y-11958643D01*
X6986071Y-11987214D01*
X7186071Y-11687214D02*
X7214643Y-11687214D01*
X7243214Y-11701500D01*
X7257500Y-11715786D01*
X7271786Y-11744357D01*
X7286071Y-11801500D01*
X7286071Y-11872929D01*
X7271786Y-11930071D01*
X7257500Y-11958643D01*
X7243214Y-11972929D01*
X7214643Y-11987214D01*
X7186071Y-11987214D01*
X7157500Y-11972929D01*
X7143214Y-11958643D01*
X7128928Y-11930071D01*
X7114643Y-11872929D01*
X7114643Y-11801500D01*
X7128928Y-11744357D01*
X7143214Y-11715786D01*
X7157500Y-11701500D01*
X7186071Y-11687214D01*
X7557500Y-11687214D02*
X7414643Y-11687214D01*
X7400357Y-11830071D01*
X7414643Y-11815786D01*
X7443214Y-11801500D01*
X7514643Y-11801500D01*
X7543214Y-11815786D01*
X7557500Y-11830071D01*
X7571786Y-11858643D01*
X7571786Y-11930071D01*
X7557500Y-11958643D01*
X7543214Y-11972929D01*
X7514643Y-11987214D01*
X7443214Y-11987214D01*
X7414643Y-11972929D01*
X7400357Y-11958643D01*
X7857500Y-11987214D02*
X7686071Y-11987214D01*
X7771786Y-11987214D02*
X7771786Y-11687214D01*
X7743214Y-11730071D01*
X7714643Y-11758643D01*
X7686071Y-11772929D01*
X7971786Y-11687214D02*
X7971786Y-11744357D01*
X8086071Y-11687214D02*
X8086071Y-11744357D01*
X8528928Y-12101500D02*
X8514643Y-12087214D01*
X8486071Y-12044357D01*
X8471786Y-12015786D01*
X8457500Y-11972929D01*
X8443214Y-11901500D01*
X8443214Y-11844357D01*
X8457500Y-11772929D01*
X8471786Y-11730071D01*
X8486071Y-11701500D01*
X8514643Y-11658643D01*
X8528928Y-11644357D01*
X8771786Y-11687214D02*
X8714643Y-11687214D01*
X8686071Y-11701500D01*
X8671786Y-11715786D01*
X8643214Y-11758643D01*
X8628928Y-11815786D01*
X8628928Y-11930071D01*
X8643214Y-11958643D01*
X8657500Y-11972929D01*
X8686071Y-11987214D01*
X8743214Y-11987214D01*
X8771786Y-11972929D01*
X8786071Y-11958643D01*
X8800357Y-11930071D01*
X8800357Y-11858643D01*
X8786071Y-11830071D01*
X8771786Y-11815786D01*
X8743214Y-11801500D01*
X8686071Y-11801500D01*
X8657500Y-11815786D01*
X8643214Y-11830071D01*
X8628928Y-11858643D01*
X9157500Y-11987214D02*
X9157500Y-11687214D01*
X9286071Y-11987214D02*
X9286071Y-11830071D01*
X9271786Y-11801500D01*
X9243214Y-11787214D01*
X9200357Y-11787214D01*
X9171786Y-11801500D01*
X9157500Y-11815786D01*
X9471786Y-11987214D02*
X9443214Y-11972929D01*
X9428928Y-11958643D01*
X9414643Y-11930071D01*
X9414643Y-11844357D01*
X9428928Y-11815786D01*
X9443214Y-11801500D01*
X9471786Y-11787214D01*
X9514643Y-11787214D01*
X9543214Y-11801500D01*
X9557500Y-11815786D01*
X9571786Y-11844357D01*
X9571786Y-11930071D01*
X9557500Y-11958643D01*
X9543214Y-11972929D01*
X9514643Y-11987214D01*
X9471786Y-11987214D01*
X9743214Y-11987214D02*
X9714643Y-11972929D01*
X9700357Y-11944357D01*
X9700357Y-11687214D01*
X9971786Y-11972929D02*
X9943214Y-11987214D01*
X9886071Y-11987214D01*
X9857500Y-11972929D01*
X9843214Y-11944357D01*
X9843214Y-11830071D01*
X9857500Y-11801500D01*
X9886071Y-11787214D01*
X9943214Y-11787214D01*
X9971786Y-11801500D01*
X9986071Y-11830071D01*
X9986071Y-11858643D01*
X9843214Y-11887214D01*
X10100357Y-11972929D02*
X10128928Y-11987214D01*
X10186071Y-11987214D01*
X10214643Y-11972929D01*
X10228928Y-11944357D01*
X10228928Y-11930071D01*
X10214643Y-11901500D01*
X10186071Y-11887214D01*
X10143214Y-11887214D01*
X10114643Y-11872929D01*
X10100357Y-11844357D01*
X10100357Y-11830071D01*
X10114643Y-11801500D01*
X10143214Y-11787214D01*
X10186071Y-11787214D01*
X10214643Y-11801500D01*
X10328928Y-12101500D02*
X10343214Y-12087214D01*
X10371786Y-12044357D01*
X10386071Y-12015786D01*
X10400357Y-11972929D01*
X10414643Y-11901500D01*
X10414643Y-11844357D01*
X10400357Y-11772929D01*
X10386071Y-11730071D01*
X10371786Y-11701500D01*
X10343214Y-11658643D01*
X10328928Y-11644357D01*
X3710500Y-12181500D02*
X3842500Y-12313500D01*
X3842500Y-12181500D02*
X3710500Y-12313500D01*
X3842500Y-12247500D02*
G75*
G03X3842500Y-12247500I-66000J0D01*
G01*
X4286071Y-12383214D02*
X4114643Y-12383214D01*
X4200357Y-12383214D02*
X4200357Y-12083214D01*
X4171786Y-12126071D01*
X4143214Y-12154643D01*
X4114643Y-12168929D01*
X4414643Y-12354643D02*
X4428928Y-12368929D01*
X4414643Y-12383214D01*
X4400357Y-12368929D01*
X4414643Y-12354643D01*
X4414643Y-12383214D01*
X4528928Y-12083214D02*
X4714643Y-12083214D01*
X4614643Y-12197500D01*
X4657500Y-12197500D01*
X4686071Y-12211786D01*
X4700357Y-12226071D01*
X4714643Y-12254643D01*
X4714643Y-12326071D01*
X4700357Y-12354643D01*
X4686071Y-12368929D01*
X4657500Y-12383214D01*
X4571786Y-12383214D01*
X4543214Y-12368929D01*
X4528928Y-12354643D01*
X4828928Y-12111786D02*
X4843214Y-12097500D01*
X4871786Y-12083214D01*
X4943214Y-12083214D01*
X4971786Y-12097500D01*
X4986071Y-12111786D01*
X5000357Y-12140357D01*
X5000357Y-12168929D01*
X4986071Y-12211786D01*
X4814643Y-12383214D01*
X5000357Y-12383214D01*
X5128928Y-12383214D02*
X5128928Y-12183214D01*
X5128928Y-12211786D02*
X5143214Y-12197500D01*
X5171786Y-12183214D01*
X5214643Y-12183214D01*
X5243214Y-12197500D01*
X5257500Y-12226071D01*
X5257500Y-12383214D01*
X5257500Y-12226071D02*
X5271786Y-12197500D01*
X5300357Y-12183214D01*
X5343214Y-12183214D01*
X5371786Y-12197500D01*
X5386071Y-12226071D01*
X5386071Y-12383214D01*
X5528928Y-12383214D02*
X5528928Y-12183214D01*
X5528928Y-12211786D02*
X5543214Y-12197500D01*
X5571786Y-12183214D01*
X5614643Y-12183214D01*
X5643214Y-12197500D01*
X5657500Y-12226071D01*
X5657500Y-12383214D01*
X5657500Y-12226071D02*
X5671786Y-12197500D01*
X5700357Y-12183214D01*
X5743214Y-12183214D01*
X5771786Y-12197500D01*
X5786071Y-12226071D01*
X5786071Y-12383214D01*
X6371786Y-12068929D02*
X6114643Y-12454643D01*
X6757500Y-12083214D02*
X6786071Y-12083214D01*
X6814643Y-12097500D01*
X6828928Y-12111786D01*
X6843214Y-12140357D01*
X6857500Y-12197500D01*
X6857500Y-12268929D01*
X6843214Y-12326071D01*
X6828928Y-12354643D01*
X6814643Y-12368929D01*
X6786071Y-12383214D01*
X6757500Y-12383214D01*
X6728928Y-12368929D01*
X6714643Y-12354643D01*
X6700357Y-12326071D01*
X6686071Y-12268929D01*
X6686071Y-12197500D01*
X6700357Y-12140357D01*
X6714643Y-12111786D01*
X6728928Y-12097500D01*
X6757500Y-12083214D01*
X6986071Y-12354643D02*
X7000357Y-12368929D01*
X6986071Y-12383214D01*
X6971786Y-12368929D01*
X6986071Y-12354643D01*
X6986071Y-12383214D01*
X7186071Y-12083214D02*
X7214643Y-12083214D01*
X7243214Y-12097500D01*
X7257500Y-12111786D01*
X7271786Y-12140357D01*
X7286071Y-12197500D01*
X7286071Y-12268929D01*
X7271786Y-12326071D01*
X7257500Y-12354643D01*
X7243214Y-12368929D01*
X7214643Y-12383214D01*
X7186071Y-12383214D01*
X7157500Y-12368929D01*
X7143214Y-12354643D01*
X7128928Y-12326071D01*
X7114643Y-12268929D01*
X7114643Y-12197500D01*
X7128928Y-12140357D01*
X7143214Y-12111786D01*
X7157500Y-12097500D01*
X7186071Y-12083214D01*
X7557500Y-12083214D02*
X7414643Y-12083214D01*
X7400357Y-12226071D01*
X7414643Y-12211786D01*
X7443214Y-12197500D01*
X7514643Y-12197500D01*
X7543214Y-12211786D01*
X7557500Y-12226071D01*
X7571786Y-12254643D01*
X7571786Y-12326071D01*
X7557500Y-12354643D01*
X7543214Y-12368929D01*
X7514643Y-12383214D01*
X7443214Y-12383214D01*
X7414643Y-12368929D01*
X7400357Y-12354643D01*
X7686071Y-12111786D02*
X7700357Y-12097500D01*
X7728928Y-12083214D01*
X7800357Y-12083214D01*
X7828928Y-12097500D01*
X7843214Y-12111786D01*
X7857500Y-12140357D01*
X7857500Y-12168929D01*
X7843214Y-12211786D01*
X7671786Y-12383214D01*
X7857500Y-12383214D01*
X7971786Y-12083214D02*
X7971786Y-12140357D01*
X8086071Y-12083214D02*
X8086071Y-12140357D01*
X8528928Y-12497500D02*
X8514643Y-12483214D01*
X8486071Y-12440357D01*
X8471786Y-12411786D01*
X8457500Y-12368929D01*
X8443214Y-12297500D01*
X8443214Y-12240357D01*
X8457500Y-12168929D01*
X8471786Y-12126071D01*
X8486071Y-12097500D01*
X8514643Y-12054643D01*
X8528928Y-12040357D01*
X8771786Y-12083214D02*
X8714643Y-12083214D01*
X8686071Y-12097500D01*
X8671786Y-12111786D01*
X8643214Y-12154643D01*
X8628928Y-12211786D01*
X8628928Y-12326071D01*
X8643214Y-12354643D01*
X8657500Y-12368929D01*
X8686071Y-12383214D01*
X8743214Y-12383214D01*
X8771786Y-12368929D01*
X8786071Y-12354643D01*
X8800357Y-12326071D01*
X8800357Y-12254643D01*
X8786071Y-12226071D01*
X8771786Y-12211786D01*
X8743214Y-12197500D01*
X8686071Y-12197500D01*
X8657500Y-12211786D01*
X8643214Y-12226071D01*
X8628928Y-12254643D01*
X9157500Y-12383214D02*
X9157500Y-12083214D01*
X9286071Y-12383214D02*
X9286071Y-12226071D01*
X9271786Y-12197500D01*
X9243214Y-12183214D01*
X9200357Y-12183214D01*
X9171786Y-12197500D01*
X9157500Y-12211786D01*
X9471786Y-12383214D02*
X9443214Y-12368929D01*
X9428928Y-12354643D01*
X9414643Y-12326071D01*
X9414643Y-12240357D01*
X9428928Y-12211786D01*
X9443214Y-12197500D01*
X9471786Y-12183214D01*
X9514643Y-12183214D01*
X9543214Y-12197500D01*
X9557500Y-12211786D01*
X9571786Y-12240357D01*
X9571786Y-12326071D01*
X9557500Y-12354643D01*
X9543214Y-12368929D01*
X9514643Y-12383214D01*
X9471786Y-12383214D01*
X9743214Y-12383214D02*
X9714643Y-12368929D01*
X9700357Y-12340357D01*
X9700357Y-12083214D01*
X9971786Y-12368929D02*
X9943214Y-12383214D01*
X9886071Y-12383214D01*
X9857500Y-12368929D01*
X9843214Y-12340357D01*
X9843214Y-12226071D01*
X9857500Y-12197500D01*
X9886071Y-12183214D01*
X9943214Y-12183214D01*
X9971786Y-12197500D01*
X9986071Y-12226071D01*
X9986071Y-12254643D01*
X9843214Y-12283214D01*
X10100357Y-12368929D02*
X10128928Y-12383214D01*
X10186071Y-12383214D01*
X10214643Y-12368929D01*
X10228928Y-12340357D01*
X10228928Y-12326071D01*
X10214643Y-12297500D01*
X10186071Y-12283214D01*
X10143214Y-12283214D01*
X10114643Y-12268929D01*
X10100357Y-12240357D01*
X10100357Y-12226071D01*
X10114643Y-12197500D01*
X10143214Y-12183214D01*
X10186071Y-12183214D01*
X10214643Y-12197500D01*
X10328928Y-12497500D02*
X10343214Y-12483214D01*
X10371786Y-12440357D01*
X10386071Y-12411786D01*
X10400357Y-12368929D01*
X10414643Y-12297500D01*
X10414643Y-12240357D01*
X10400357Y-12168929D01*
X10386071Y-12126071D01*
X10371786Y-12097500D01*
X10343214Y-12054643D01*
X10328928Y-12040357D01*
X3612500Y-12528500D02*
X3842500Y-12758500D01*
X3842500Y-12528500D02*
X3612500Y-12758500D01*
X3727500Y-12528500D02*
X3727500Y-12758500D01*
X3612500Y-12643500D02*
X3842500Y-12643500D01*
X4114643Y-12507786D02*
X4128928Y-12493500D01*
X4157500Y-12479214D01*
X4228928Y-12479214D01*
X4257500Y-12493500D01*
X4271786Y-12507786D01*
X4286071Y-12536357D01*
X4286071Y-12564929D01*
X4271786Y-12607786D01*
X4100357Y-12779214D01*
X4286071Y-12779214D01*
X4414643Y-12750643D02*
X4428928Y-12764929D01*
X4414643Y-12779214D01*
X4400357Y-12764929D01*
X4414643Y-12750643D01*
X4414643Y-12779214D01*
X4528928Y-12479214D02*
X4714643Y-12479214D01*
X4614643Y-12593500D01*
X4657500Y-12593500D01*
X4686071Y-12607786D01*
X4700357Y-12622071D01*
X4714643Y-12650643D01*
X4714643Y-12722071D01*
X4700357Y-12750643D01*
X4686071Y-12764929D01*
X4657500Y-12779214D01*
X4571786Y-12779214D01*
X4543214Y-12764929D01*
X4528928Y-12750643D01*
X4900357Y-12479214D02*
X4928928Y-12479214D01*
X4957500Y-12493500D01*
X4971786Y-12507786D01*
X4986071Y-12536357D01*
X5000357Y-12593500D01*
X5000357Y-12664929D01*
X4986071Y-12722071D01*
X4971786Y-12750643D01*
X4957500Y-12764929D01*
X4928928Y-12779214D01*
X4900357Y-12779214D01*
X4871786Y-12764929D01*
X4857500Y-12750643D01*
X4843214Y-12722071D01*
X4828928Y-12664929D01*
X4828928Y-12593500D01*
X4843214Y-12536357D01*
X4857500Y-12507786D01*
X4871786Y-12493500D01*
X4900357Y-12479214D01*
X5128928Y-12779214D02*
X5128928Y-12579214D01*
X5128928Y-12607786D02*
X5143214Y-12593500D01*
X5171786Y-12579214D01*
X5214643Y-12579214D01*
X5243214Y-12593500D01*
X5257500Y-12622071D01*
X5257500Y-12779214D01*
X5257500Y-12622071D02*
X5271786Y-12593500D01*
X5300357Y-12579214D01*
X5343214Y-12579214D01*
X5371786Y-12593500D01*
X5386071Y-12622071D01*
X5386071Y-12779214D01*
X5528928Y-12779214D02*
X5528928Y-12579214D01*
X5528928Y-12607786D02*
X5543214Y-12593500D01*
X5571786Y-12579214D01*
X5614643Y-12579214D01*
X5643214Y-12593500D01*
X5657500Y-12622071D01*
X5657500Y-12779214D01*
X5657500Y-12622071D02*
X5671786Y-12593500D01*
X5700357Y-12579214D01*
X5743214Y-12579214D01*
X5771786Y-12593500D01*
X5786071Y-12622071D01*
X5786071Y-12779214D01*
X6371786Y-12464929D02*
X6114643Y-12850643D01*
X6757500Y-12479214D02*
X6786071Y-12479214D01*
X6814643Y-12493500D01*
X6828928Y-12507786D01*
X6843214Y-12536357D01*
X6857500Y-12593500D01*
X6857500Y-12664929D01*
X6843214Y-12722071D01*
X6828928Y-12750643D01*
X6814643Y-12764929D01*
X6786071Y-12779214D01*
X6757500Y-12779214D01*
X6728928Y-12764929D01*
X6714643Y-12750643D01*
X6700357Y-12722071D01*
X6686071Y-12664929D01*
X6686071Y-12593500D01*
X6700357Y-12536357D01*
X6714643Y-12507786D01*
X6728928Y-12493500D01*
X6757500Y-12479214D01*
X6986071Y-12750643D02*
X7000357Y-12764929D01*
X6986071Y-12779214D01*
X6971786Y-12764929D01*
X6986071Y-12750643D01*
X6986071Y-12779214D01*
X7186071Y-12479214D02*
X7214643Y-12479214D01*
X7243214Y-12493500D01*
X7257500Y-12507786D01*
X7271786Y-12536357D01*
X7286071Y-12593500D01*
X7286071Y-12664929D01*
X7271786Y-12722071D01*
X7257500Y-12750643D01*
X7243214Y-12764929D01*
X7214643Y-12779214D01*
X7186071Y-12779214D01*
X7157500Y-12764929D01*
X7143214Y-12750643D01*
X7128928Y-12722071D01*
X7114643Y-12664929D01*
X7114643Y-12593500D01*
X7128928Y-12536357D01*
X7143214Y-12507786D01*
X7157500Y-12493500D01*
X7186071Y-12479214D01*
X7428928Y-12779214D02*
X7486071Y-12779214D01*
X7514643Y-12764929D01*
X7528928Y-12750643D01*
X7557500Y-12707786D01*
X7571786Y-12650643D01*
X7571786Y-12536357D01*
X7557500Y-12507786D01*
X7543214Y-12493500D01*
X7514643Y-12479214D01*
X7457500Y-12479214D01*
X7428928Y-12493500D01*
X7414643Y-12507786D01*
X7400357Y-12536357D01*
X7400357Y-12607786D01*
X7414643Y-12636357D01*
X7428928Y-12650643D01*
X7457500Y-12664929D01*
X7514643Y-12664929D01*
X7543214Y-12650643D01*
X7557500Y-12636357D01*
X7571786Y-12607786D01*
X7857500Y-12779214D02*
X7686071Y-12779214D01*
X7771786Y-12779214D02*
X7771786Y-12479214D01*
X7743214Y-12522071D01*
X7714643Y-12550643D01*
X7686071Y-12564929D01*
X7971786Y-12479214D02*
X7971786Y-12536357D01*
X8086071Y-12479214D02*
X8086071Y-12536357D01*
X8528928Y-12893500D02*
X8514643Y-12879214D01*
X8486071Y-12836357D01*
X8471786Y-12807786D01*
X8457500Y-12764929D01*
X8443214Y-12693500D01*
X8443214Y-12636357D01*
X8457500Y-12564929D01*
X8471786Y-12522071D01*
X8486071Y-12493500D01*
X8514643Y-12450643D01*
X8528928Y-12436357D01*
X8628928Y-12507786D02*
X8643214Y-12493500D01*
X8671786Y-12479214D01*
X8743214Y-12479214D01*
X8771786Y-12493500D01*
X8786071Y-12507786D01*
X8800357Y-12536357D01*
X8800357Y-12564929D01*
X8786071Y-12607786D01*
X8614643Y-12779214D01*
X8800357Y-12779214D01*
X9157500Y-12779214D02*
X9157500Y-12479214D01*
X9286071Y-12779214D02*
X9286071Y-12622071D01*
X9271786Y-12593500D01*
X9243214Y-12579214D01*
X9200357Y-12579214D01*
X9171786Y-12593500D01*
X9157500Y-12607786D01*
X9471786Y-12779214D02*
X9443214Y-12764929D01*
X9428928Y-12750643D01*
X9414643Y-12722071D01*
X9414643Y-12636357D01*
X9428928Y-12607786D01*
X9443214Y-12593500D01*
X9471786Y-12579214D01*
X9514643Y-12579214D01*
X9543214Y-12593500D01*
X9557500Y-12607786D01*
X9571786Y-12636357D01*
X9571786Y-12722071D01*
X9557500Y-12750643D01*
X9543214Y-12764929D01*
X9514643Y-12779214D01*
X9471786Y-12779214D01*
X9743214Y-12779214D02*
X9714643Y-12764929D01*
X9700357Y-12736357D01*
X9700357Y-12479214D01*
X9971786Y-12764929D02*
X9943214Y-12779214D01*
X9886071Y-12779214D01*
X9857500Y-12764929D01*
X9843214Y-12736357D01*
X9843214Y-12622071D01*
X9857500Y-12593500D01*
X9886071Y-12579214D01*
X9943214Y-12579214D01*
X9971786Y-12593500D01*
X9986071Y-12622071D01*
X9986071Y-12650643D01*
X9843214Y-12679214D01*
X10100357Y-12764929D02*
X10128928Y-12779214D01*
X10186071Y-12779214D01*
X10214643Y-12764929D01*
X10228928Y-12736357D01*
X10228928Y-12722071D01*
X10214643Y-12693500D01*
X10186071Y-12679214D01*
X10143214Y-12679214D01*
X10114643Y-12664929D01*
X10100357Y-12636357D01*
X10100357Y-12622071D01*
X10114643Y-12593500D01*
X10143214Y-12579214D01*
X10186071Y-12579214D01*
X10214643Y-12593500D01*
X10328928Y-12893500D02*
X10343214Y-12879214D01*
X10371786Y-12836357D01*
X10386071Y-12807786D01*
X10400357Y-12764929D01*
X10414643Y-12693500D01*
X10414643Y-12636357D01*
X10400357Y-12564929D01*
X10386071Y-12522071D01*
X10371786Y-12493500D01*
X10343214Y-12450643D01*
X10328928Y-12436357D01*
X3522500Y-12879500D02*
X3842500Y-13199500D01*
X3842500Y-12879500D02*
X3522500Y-13199500D01*
X3795638Y-13152638D02*
X3795638Y-12926362D01*
X3569362Y-12926362D01*
X3569362Y-13152638D01*
X3795638Y-13152638D01*
X4100357Y-12875214D02*
X4286071Y-12875214D01*
X4186071Y-12989500D01*
X4228928Y-12989500D01*
X4257500Y-13003786D01*
X4271786Y-13018071D01*
X4286071Y-13046643D01*
X4286071Y-13118071D01*
X4271786Y-13146643D01*
X4257500Y-13160929D01*
X4228928Y-13175214D01*
X4143214Y-13175214D01*
X4114643Y-13160929D01*
X4100357Y-13146643D01*
X4414643Y-13146643D02*
X4428928Y-13160929D01*
X4414643Y-13175214D01*
X4400357Y-13160929D01*
X4414643Y-13146643D01*
X4414643Y-13175214D01*
X4543214Y-12903786D02*
X4557500Y-12889500D01*
X4586071Y-12875214D01*
X4657500Y-12875214D01*
X4686071Y-12889500D01*
X4700357Y-12903786D01*
X4714643Y-12932357D01*
X4714643Y-12960929D01*
X4700357Y-13003786D01*
X4528928Y-13175214D01*
X4714643Y-13175214D01*
X4900357Y-12875214D02*
X4928928Y-12875214D01*
X4957500Y-12889500D01*
X4971786Y-12903786D01*
X4986071Y-12932357D01*
X5000357Y-12989500D01*
X5000357Y-13060929D01*
X4986071Y-13118071D01*
X4971786Y-13146643D01*
X4957500Y-13160929D01*
X4928928Y-13175214D01*
X4900357Y-13175214D01*
X4871786Y-13160929D01*
X4857500Y-13146643D01*
X4843214Y-13118071D01*
X4828928Y-13060929D01*
X4828928Y-12989500D01*
X4843214Y-12932357D01*
X4857500Y-12903786D01*
X4871786Y-12889500D01*
X4900357Y-12875214D01*
X5128928Y-13175214D02*
X5128928Y-12975214D01*
X5128928Y-13003786D02*
X5143214Y-12989500D01*
X5171786Y-12975214D01*
X5214643Y-12975214D01*
X5243214Y-12989500D01*
X5257500Y-13018071D01*
X5257500Y-13175214D01*
X5257500Y-13018071D02*
X5271786Y-12989500D01*
X5300357Y-12975214D01*
X5343214Y-12975214D01*
X5371786Y-12989500D01*
X5386071Y-13018071D01*
X5386071Y-13175214D01*
X5528928Y-13175214D02*
X5528928Y-12975214D01*
X5528928Y-13003786D02*
X5543214Y-12989500D01*
X5571786Y-12975214D01*
X5614643Y-12975214D01*
X5643214Y-12989500D01*
X5657500Y-13018071D01*
X5657500Y-13175214D01*
X5657500Y-13018071D02*
X5671786Y-12989500D01*
X5700357Y-12975214D01*
X5743214Y-12975214D01*
X5771786Y-12989500D01*
X5786071Y-13018071D01*
X5786071Y-13175214D01*
X6371786Y-12860929D02*
X6114643Y-13246643D01*
X6757500Y-12875214D02*
X6786071Y-12875214D01*
X6814643Y-12889500D01*
X6828928Y-12903786D01*
X6843214Y-12932357D01*
X6857500Y-12989500D01*
X6857500Y-13060929D01*
X6843214Y-13118071D01*
X6828928Y-13146643D01*
X6814643Y-13160929D01*
X6786071Y-13175214D01*
X6757500Y-13175214D01*
X6728928Y-13160929D01*
X6714643Y-13146643D01*
X6700357Y-13118071D01*
X6686071Y-13060929D01*
X6686071Y-12989500D01*
X6700357Y-12932357D01*
X6714643Y-12903786D01*
X6728928Y-12889500D01*
X6757500Y-12875214D01*
X6986071Y-13146643D02*
X7000357Y-13160929D01*
X6986071Y-13175214D01*
X6971786Y-13160929D01*
X6986071Y-13146643D01*
X6986071Y-13175214D01*
X7286071Y-13175214D02*
X7114643Y-13175214D01*
X7200357Y-13175214D02*
X7200357Y-12875214D01*
X7171786Y-12918071D01*
X7143214Y-12946643D01*
X7114643Y-12960929D01*
X7400357Y-12903786D02*
X7414643Y-12889500D01*
X7443214Y-12875214D01*
X7514643Y-12875214D01*
X7543214Y-12889500D01*
X7557500Y-12903786D01*
X7571786Y-12932357D01*
X7571786Y-12960929D01*
X7557500Y-13003786D01*
X7386071Y-13175214D01*
X7571786Y-13175214D01*
X7828928Y-12875214D02*
X7771786Y-12875214D01*
X7743214Y-12889500D01*
X7728928Y-12903786D01*
X7700357Y-12946643D01*
X7686071Y-13003786D01*
X7686071Y-13118071D01*
X7700357Y-13146643D01*
X7714643Y-13160929D01*
X7743214Y-13175214D01*
X7800357Y-13175214D01*
X7828928Y-13160929D01*
X7843214Y-13146643D01*
X7857500Y-13118071D01*
X7857500Y-13046643D01*
X7843214Y-13018071D01*
X7828928Y-13003786D01*
X7800357Y-12989500D01*
X7743214Y-12989500D01*
X7714643Y-13003786D01*
X7700357Y-13018071D01*
X7686071Y-13046643D01*
X7971786Y-12875214D02*
X7971786Y-12932357D01*
X8086071Y-12875214D02*
X8086071Y-12932357D01*
X8528928Y-13289500D02*
X8514643Y-13275214D01*
X8486071Y-13232357D01*
X8471786Y-13203786D01*
X8457500Y-13160929D01*
X8443214Y-13089500D01*
X8443214Y-13032357D01*
X8457500Y-12960929D01*
X8471786Y-12918071D01*
X8486071Y-12889500D01*
X8514643Y-12846643D01*
X8528928Y-12832357D01*
X8628928Y-12903786D02*
X8643214Y-12889500D01*
X8671786Y-12875214D01*
X8743214Y-12875214D01*
X8771786Y-12889500D01*
X8786071Y-12903786D01*
X8800357Y-12932357D01*
X8800357Y-12960929D01*
X8786071Y-13003786D01*
X8614643Y-13175214D01*
X8800357Y-13175214D01*
X9157500Y-13175214D02*
X9157500Y-12875214D01*
X9286071Y-13175214D02*
X9286071Y-13018071D01*
X9271786Y-12989500D01*
X9243214Y-12975214D01*
X9200357Y-12975214D01*
X9171786Y-12989500D01*
X9157500Y-13003786D01*
X9471786Y-13175214D02*
X9443214Y-13160929D01*
X9428928Y-13146643D01*
X9414643Y-13118071D01*
X9414643Y-13032357D01*
X9428928Y-13003786D01*
X9443214Y-12989500D01*
X9471786Y-12975214D01*
X9514643Y-12975214D01*
X9543214Y-12989500D01*
X9557500Y-13003786D01*
X9571786Y-13032357D01*
X9571786Y-13118071D01*
X9557500Y-13146643D01*
X9543214Y-13160929D01*
X9514643Y-13175214D01*
X9471786Y-13175214D01*
X9743214Y-13175214D02*
X9714643Y-13160929D01*
X9700357Y-13132357D01*
X9700357Y-12875214D01*
X9971786Y-13160929D02*
X9943214Y-13175214D01*
X9886071Y-13175214D01*
X9857500Y-13160929D01*
X9843214Y-13132357D01*
X9843214Y-13018071D01*
X9857500Y-12989500D01*
X9886071Y-12975214D01*
X9943214Y-12975214D01*
X9971786Y-12989500D01*
X9986071Y-13018071D01*
X9986071Y-13046643D01*
X9843214Y-13075214D01*
X10100357Y-13160929D02*
X10128928Y-13175214D01*
X10186071Y-13175214D01*
X10214643Y-13160929D01*
X10228928Y-13132357D01*
X10228928Y-13118071D01*
X10214643Y-13089500D01*
X10186071Y-13075214D01*
X10143214Y-13075214D01*
X10114643Y-13060929D01*
X10100357Y-13032357D01*
X10100357Y-13018071D01*
X10114643Y-12989500D01*
X10143214Y-12975214D01*
X10186071Y-12975214D01*
X10214643Y-12989500D01*
X10328928Y-13289500D02*
X10343214Y-13275214D01*
X10371786Y-13232357D01*
X10386071Y-13203786D01*
X10400357Y-13160929D01*
X10414643Y-13089500D01*
X10414643Y-13032357D01*
X10400357Y-12960929D01*
X10386071Y-12918071D01*
X10371786Y-12889500D01*
X10343214Y-12846643D01*
X10328928Y-12832357D01*
X3522500Y-13329500D02*
X3842500Y-13649500D01*
X3842500Y-13329500D02*
X3522500Y-13649500D01*
X3682500Y-13649500D02*
X3842500Y-13489500D01*
X3682500Y-13329500D01*
X3522500Y-13489500D01*
X3682500Y-13649500D01*
X4100357Y-13325214D02*
X4286071Y-13325214D01*
X4186071Y-13439500D01*
X4228928Y-13439500D01*
X4257500Y-13453786D01*
X4271786Y-13468071D01*
X4286071Y-13496643D01*
X4286071Y-13568071D01*
X4271786Y-13596643D01*
X4257500Y-13610929D01*
X4228928Y-13625214D01*
X4143214Y-13625214D01*
X4114643Y-13610929D01*
X4100357Y-13596643D01*
X4414643Y-13596643D02*
X4428928Y-13610929D01*
X4414643Y-13625214D01*
X4400357Y-13610929D01*
X4414643Y-13596643D01*
X4414643Y-13625214D01*
X4543214Y-13353786D02*
X4557500Y-13339500D01*
X4586071Y-13325214D01*
X4657500Y-13325214D01*
X4686071Y-13339500D01*
X4700357Y-13353786D01*
X4714643Y-13382357D01*
X4714643Y-13410929D01*
X4700357Y-13453786D01*
X4528928Y-13625214D01*
X4714643Y-13625214D01*
X4900357Y-13325214D02*
X4928928Y-13325214D01*
X4957500Y-13339500D01*
X4971786Y-13353786D01*
X4986071Y-13382357D01*
X5000357Y-13439500D01*
X5000357Y-13510929D01*
X4986071Y-13568071D01*
X4971786Y-13596643D01*
X4957500Y-13610929D01*
X4928928Y-13625214D01*
X4900357Y-13625214D01*
X4871786Y-13610929D01*
X4857500Y-13596643D01*
X4843214Y-13568071D01*
X4828928Y-13510929D01*
X4828928Y-13439500D01*
X4843214Y-13382357D01*
X4857500Y-13353786D01*
X4871786Y-13339500D01*
X4900357Y-13325214D01*
X5128928Y-13625214D02*
X5128928Y-13425214D01*
X5128928Y-13453786D02*
X5143214Y-13439500D01*
X5171786Y-13425214D01*
X5214643Y-13425214D01*
X5243214Y-13439500D01*
X5257500Y-13468071D01*
X5257500Y-13625214D01*
X5257500Y-13468071D02*
X5271786Y-13439500D01*
X5300357Y-13425214D01*
X5343214Y-13425214D01*
X5371786Y-13439500D01*
X5386071Y-13468071D01*
X5386071Y-13625214D01*
X5528928Y-13625214D02*
X5528928Y-13425214D01*
X5528928Y-13453786D02*
X5543214Y-13439500D01*
X5571786Y-13425214D01*
X5614643Y-13425214D01*
X5643214Y-13439500D01*
X5657500Y-13468071D01*
X5657500Y-13625214D01*
X5657500Y-13468071D02*
X5671786Y-13439500D01*
X5700357Y-13425214D01*
X5743214Y-13425214D01*
X5771786Y-13439500D01*
X5786071Y-13468071D01*
X5786071Y-13625214D01*
X6371786Y-13310929D02*
X6114643Y-13696643D01*
X6757500Y-13325214D02*
X6786071Y-13325214D01*
X6814643Y-13339500D01*
X6828928Y-13353786D01*
X6843214Y-13382357D01*
X6857500Y-13439500D01*
X6857500Y-13510929D01*
X6843214Y-13568071D01*
X6828928Y-13596643D01*
X6814643Y-13610929D01*
X6786071Y-13625214D01*
X6757500Y-13625214D01*
X6728928Y-13610929D01*
X6714643Y-13596643D01*
X6700357Y-13568071D01*
X6686071Y-13510929D01*
X6686071Y-13439500D01*
X6700357Y-13382357D01*
X6714643Y-13353786D01*
X6728928Y-13339500D01*
X6757500Y-13325214D01*
X6986071Y-13596643D02*
X7000357Y-13610929D01*
X6986071Y-13625214D01*
X6971786Y-13610929D01*
X6986071Y-13596643D01*
X6986071Y-13625214D01*
X7286071Y-13625214D02*
X7114643Y-13625214D01*
X7200357Y-13625214D02*
X7200357Y-13325214D01*
X7171786Y-13368071D01*
X7143214Y-13396643D01*
X7114643Y-13410929D01*
X7400357Y-13353786D02*
X7414643Y-13339500D01*
X7443214Y-13325214D01*
X7514643Y-13325214D01*
X7543214Y-13339500D01*
X7557500Y-13353786D01*
X7571786Y-13382357D01*
X7571786Y-13410929D01*
X7557500Y-13453786D01*
X7386071Y-13625214D01*
X7571786Y-13625214D01*
X7828928Y-13325214D02*
X7771786Y-13325214D01*
X7743214Y-13339500D01*
X7728928Y-13353786D01*
X7700357Y-13396643D01*
X7686071Y-13453786D01*
X7686071Y-13568071D01*
X7700357Y-13596643D01*
X7714643Y-13610929D01*
X7743214Y-13625214D01*
X7800357Y-13625214D01*
X7828928Y-13610929D01*
X7843214Y-13596643D01*
X7857500Y-13568071D01*
X7857500Y-13496643D01*
X7843214Y-13468071D01*
X7828928Y-13453786D01*
X7800357Y-13439500D01*
X7743214Y-13439500D01*
X7714643Y-13453786D01*
X7700357Y-13468071D01*
X7686071Y-13496643D01*
X7971786Y-13325214D02*
X7971786Y-13382357D01*
X8086071Y-13325214D02*
X8086071Y-13382357D01*
X8528928Y-13739500D02*
X8514643Y-13725214D01*
X8486071Y-13682357D01*
X8471786Y-13653786D01*
X8457500Y-13610929D01*
X8443214Y-13539500D01*
X8443214Y-13482357D01*
X8457500Y-13410929D01*
X8471786Y-13368071D01*
X8486071Y-13339500D01*
X8514643Y-13296643D01*
X8528928Y-13282357D01*
X8771786Y-13425214D02*
X8771786Y-13625214D01*
X8700357Y-13310929D02*
X8628928Y-13525214D01*
X8814643Y-13525214D01*
X9157500Y-13625214D02*
X9157500Y-13325214D01*
X9286071Y-13625214D02*
X9286071Y-13468071D01*
X9271786Y-13439500D01*
X9243214Y-13425214D01*
X9200357Y-13425214D01*
X9171786Y-13439500D01*
X9157500Y-13453786D01*
X9471786Y-13625214D02*
X9443214Y-13610929D01*
X9428928Y-13596643D01*
X9414643Y-13568071D01*
X9414643Y-13482357D01*
X9428928Y-13453786D01*
X9443214Y-13439500D01*
X9471786Y-13425214D01*
X9514643Y-13425214D01*
X9543214Y-13439500D01*
X9557500Y-13453786D01*
X9571786Y-13482357D01*
X9571786Y-13568071D01*
X9557500Y-13596643D01*
X9543214Y-13610929D01*
X9514643Y-13625214D01*
X9471786Y-13625214D01*
X9743214Y-13625214D02*
X9714643Y-13610929D01*
X9700357Y-13582357D01*
X9700357Y-13325214D01*
X9971786Y-13610929D02*
X9943214Y-13625214D01*
X9886071Y-13625214D01*
X9857500Y-13610929D01*
X9843214Y-13582357D01*
X9843214Y-13468071D01*
X9857500Y-13439500D01*
X9886071Y-13425214D01*
X9943214Y-13425214D01*
X9971786Y-13439500D01*
X9986071Y-13468071D01*
X9986071Y-13496643D01*
X9843214Y-13525214D01*
X10100357Y-13610929D02*
X10128928Y-13625214D01*
X10186071Y-13625214D01*
X10214643Y-13610929D01*
X10228928Y-13582357D01*
X10228928Y-13568071D01*
X10214643Y-13539500D01*
X10186071Y-13525214D01*
X10143214Y-13525214D01*
X10114643Y-13510929D01*
X10100357Y-13482357D01*
X10100357Y-13468071D01*
X10114643Y-13439500D01*
X10143214Y-13425214D01*
X10186071Y-13425214D01*
X10214643Y-13439500D01*
X10328928Y-13739500D02*
X10343214Y-13725214D01*
X10371786Y-13682357D01*
X10386071Y-13653786D01*
X10400357Y-13610929D01*
X10414643Y-13539500D01*
X10414643Y-13482357D01*
X10400357Y-13410929D01*
X10386071Y-13368071D01*
X10371786Y-13339500D01*
X10343214Y-13296643D01*
X10328928Y-13282357D01*
X10871786Y-13739500D02*
X10857500Y-13725214D01*
X10828928Y-13682357D01*
X10814643Y-13653786D01*
X10800357Y-13610929D01*
X10786071Y-13539500D01*
X10786071Y-13482357D01*
X10800357Y-13410929D01*
X10814643Y-13368071D01*
X10828928Y-13339500D01*
X10857500Y-13296643D01*
X10871786Y-13282357D01*
X10986071Y-13425214D02*
X10986071Y-13625214D01*
X10986071Y-13453786D02*
X11000357Y-13439500D01*
X11028928Y-13425214D01*
X11071786Y-13425214D01*
X11100357Y-13439500D01*
X11114643Y-13468071D01*
X11114643Y-13625214D01*
X11300357Y-13625214D02*
X11271786Y-13610929D01*
X11257500Y-13596643D01*
X11243214Y-13568071D01*
X11243214Y-13482357D01*
X11257500Y-13453786D01*
X11271786Y-13439500D01*
X11300357Y-13425214D01*
X11343214Y-13425214D01*
X11371786Y-13439500D01*
X11386071Y-13453786D01*
X11400357Y-13482357D01*
X11400357Y-13568071D01*
X11386071Y-13596643D01*
X11371786Y-13610929D01*
X11343214Y-13625214D01*
X11300357Y-13625214D01*
X11486071Y-13425214D02*
X11600357Y-13425214D01*
X11528928Y-13325214D02*
X11528928Y-13582357D01*
X11543214Y-13610929D01*
X11571786Y-13625214D01*
X11600357Y-13625214D01*
X11928928Y-13425214D02*
X11928928Y-13725214D01*
X11928928Y-13439500D02*
X11957500Y-13425214D01*
X12014643Y-13425214D01*
X12043214Y-13439500D01*
X12057500Y-13453786D01*
X12071786Y-13482357D01*
X12071786Y-13568071D01*
X12057500Y-13596643D01*
X12043214Y-13610929D01*
X12014643Y-13625214D01*
X11957500Y-13625214D01*
X11928928Y-13610929D01*
X12243214Y-13625214D02*
X12214643Y-13610929D01*
X12200357Y-13582357D01*
X12200357Y-13325214D01*
X12486071Y-13625214D02*
X12486071Y-13468071D01*
X12471786Y-13439500D01*
X12443214Y-13425214D01*
X12386071Y-13425214D01*
X12357500Y-13439500D01*
X12486071Y-13610929D02*
X12457500Y-13625214D01*
X12386071Y-13625214D01*
X12357500Y-13610929D01*
X12343214Y-13582357D01*
X12343214Y-13553786D01*
X12357500Y-13525214D01*
X12386071Y-13510929D01*
X12457500Y-13510929D01*
X12486071Y-13496643D01*
X12586071Y-13425214D02*
X12700357Y-13425214D01*
X12628928Y-13325214D02*
X12628928Y-13582357D01*
X12643214Y-13610929D01*
X12671786Y-13625214D01*
X12700357Y-13625214D01*
X12914643Y-13610929D02*
X12886071Y-13625214D01*
X12828928Y-13625214D01*
X12800357Y-13610929D01*
X12786071Y-13582357D01*
X12786071Y-13468071D01*
X12800357Y-13439500D01*
X12828928Y-13425214D01*
X12886071Y-13425214D01*
X12914643Y-13439500D01*
X12928928Y-13468071D01*
X12928928Y-13496643D01*
X12786071Y-13525214D01*
X13186071Y-13625214D02*
X13186071Y-13325214D01*
X13186071Y-13610929D02*
X13157500Y-13625214D01*
X13100357Y-13625214D01*
X13071786Y-13610929D01*
X13057500Y-13596643D01*
X13043214Y-13568071D01*
X13043214Y-13482357D01*
X13057500Y-13453786D01*
X13071786Y-13439500D01*
X13100357Y-13425214D01*
X13157500Y-13425214D01*
X13186071Y-13439500D01*
X13300357Y-13739500D02*
X13314643Y-13725214D01*
X13343214Y-13682357D01*
X13357500Y-13653786D01*
X13371786Y-13610929D01*
X13386071Y-13539500D01*
X13386071Y-13482357D01*
X13371786Y-13410929D01*
X13357500Y-13368071D01*
X13343214Y-13339500D01*
X13314643Y-13296643D01*
X13300357Y-13282357D01*
M02*
