G04 #@! TF.GenerationSoftware,KiCad,Pcbnew,6.0.0-rc1-unknown*
G04 #@! TF.CreationDate,2019-01-01T14:04:30+03:00
G04 #@! TF.ProjectId,socket,736f636b-6574-42e6-9b69-6361645f7063,rev?*
G04 #@! TF.SameCoordinates,Original*
G04 #@! TF.FileFunction,Soldermask,Top*
G04 #@! TF.FilePolarity,Negative*
%FSLAX46Y46*%
G04 Gerber Fmt 4.6, Leading zero omitted, Abs format (unit mm)*
G04 Created by KiCad (PCBNEW 6.0.0-rc1-unknown) date Вт 01 янв 2019 14:04:30*
%MOMM*%
%LPD*%
G04 APERTURE LIST*
%ADD10C,0.150000*%
%ADD11C,0.100000*%
G04 APERTURE END LIST*
D10*
X125500000Y-93000000D02*
X38500000Y-93000000D01*
X38500000Y-22000000D02*
X125500000Y-22000000D01*
X125500000Y-22000000D02*
X125500000Y-93000000D01*
X38500000Y-22000000D02*
X38500000Y-93000000D01*
D11*
G36*
X85468333Y-92940000D02*
G01*
X83221667Y-92940000D01*
X83221667Y-89060000D01*
X85468333Y-89060000D01*
X85468333Y-92940000D01*
X85468333Y-92940000D01*
G37*
G36*
X99318333Y-92940000D02*
G01*
X97071667Y-92940000D01*
X97071667Y-89060000D01*
X99318333Y-89060000D01*
X99318333Y-92940000D01*
X99318333Y-92940000D01*
G37*
G36*
X96548333Y-92940000D02*
G01*
X94301667Y-92940000D01*
X94301667Y-89060000D01*
X96548333Y-89060000D01*
X96548333Y-92940000D01*
X96548333Y-92940000D01*
G37*
G36*
X93778333Y-92940000D02*
G01*
X91531667Y-92940000D01*
X91531667Y-89060000D01*
X93778333Y-89060000D01*
X93778333Y-92940000D01*
X93778333Y-92940000D01*
G37*
G36*
X91008333Y-92940000D02*
G01*
X88761667Y-92940000D01*
X88761667Y-89060000D01*
X91008333Y-89060000D01*
X91008333Y-92940000D01*
X91008333Y-92940000D01*
G37*
G36*
X79928333Y-92940000D02*
G01*
X77681667Y-92940000D01*
X77681667Y-89060000D01*
X79928333Y-89060000D01*
X79928333Y-92940000D01*
X79928333Y-92940000D01*
G37*
G36*
X88238333Y-92940000D02*
G01*
X85991667Y-92940000D01*
X85991667Y-89060000D01*
X88238333Y-89060000D01*
X88238333Y-92940000D01*
X88238333Y-92940000D01*
G37*
G36*
X82698333Y-92940000D02*
G01*
X80451667Y-92940000D01*
X80451667Y-89060000D01*
X82698333Y-89060000D01*
X82698333Y-92940000D01*
X82698333Y-92940000D01*
G37*
G36*
X113176127Y-89177901D02*
G01*
X113311365Y-89204801D01*
X113566149Y-89310336D01*
X113750334Y-89433405D01*
X113795451Y-89463551D01*
X113990449Y-89658549D01*
X113990451Y-89658552D01*
X114143664Y-89887851D01*
X114196649Y-90015767D01*
X114249199Y-90142636D01*
X114294523Y-90370492D01*
X114303000Y-90413112D01*
X114303000Y-90688888D01*
X114249199Y-90959365D01*
X114143664Y-91214149D01*
X113992489Y-91440397D01*
X113990449Y-91443451D01*
X113795451Y-91638449D01*
X113795448Y-91638451D01*
X113566149Y-91791664D01*
X113311365Y-91897199D01*
X113176126Y-91924100D01*
X113040889Y-91951000D01*
X112765111Y-91951000D01*
X112629874Y-91924100D01*
X112494635Y-91897199D01*
X112239851Y-91791664D01*
X112010552Y-91638451D01*
X112010549Y-91638449D01*
X111815551Y-91443451D01*
X111813511Y-91440397D01*
X111662336Y-91214149D01*
X111556801Y-90959365D01*
X111503000Y-90688888D01*
X111503000Y-90413112D01*
X111511478Y-90370492D01*
X111556801Y-90142636D01*
X111609352Y-90015767D01*
X111662336Y-89887851D01*
X111815549Y-89658552D01*
X111815551Y-89658549D01*
X112010549Y-89463551D01*
X112055666Y-89433405D01*
X112239851Y-89310336D01*
X112494635Y-89204801D01*
X112629874Y-89177900D01*
X112765111Y-89151000D01*
X113040889Y-89151000D01*
X113176127Y-89177901D01*
X113176127Y-89177901D01*
G37*
G36*
X119933405Y-85422974D02*
G01*
X120515767Y-85664196D01*
X121039884Y-86014400D01*
X121485600Y-86460116D01*
X121835804Y-86984233D01*
X122077026Y-87566595D01*
X122200000Y-88184826D01*
X122200000Y-88815174D01*
X122077026Y-89433405D01*
X121835804Y-90015767D01*
X121485600Y-90539884D01*
X121039884Y-90985600D01*
X120515767Y-91335804D01*
X119933405Y-91577026D01*
X119315174Y-91700000D01*
X118684826Y-91700000D01*
X118066595Y-91577026D01*
X117484233Y-91335804D01*
X116960116Y-90985600D01*
X116514400Y-90539884D01*
X116164196Y-90015767D01*
X115922974Y-89433405D01*
X115800000Y-88815174D01*
X115800000Y-88184826D01*
X115922974Y-87566595D01*
X116164196Y-86984233D01*
X116514400Y-86460116D01*
X116960116Y-86014400D01*
X117484233Y-85664196D01*
X118066595Y-85422974D01*
X118684826Y-85300000D01*
X119315174Y-85300000D01*
X119933405Y-85422974D01*
X119933405Y-85422974D01*
G37*
G36*
X44933405Y-85422974D02*
G01*
X45515767Y-85664196D01*
X46039884Y-86014400D01*
X46485600Y-86460116D01*
X46835804Y-86984233D01*
X47077026Y-87566595D01*
X47200000Y-88184826D01*
X47200000Y-88815174D01*
X47077026Y-89433405D01*
X46835804Y-90015767D01*
X46485600Y-90539884D01*
X46039884Y-90985600D01*
X45515767Y-91335804D01*
X44933405Y-91577026D01*
X44315174Y-91700000D01*
X43684826Y-91700000D01*
X43066595Y-91577026D01*
X42484233Y-91335804D01*
X41960116Y-90985600D01*
X41514400Y-90539884D01*
X41164196Y-90015767D01*
X40922974Y-89433405D01*
X40800000Y-88815174D01*
X40800000Y-88184826D01*
X40922974Y-87566595D01*
X41164196Y-86984233D01*
X41514400Y-86460116D01*
X41960116Y-86014400D01*
X42484233Y-85664196D01*
X43066595Y-85422974D01*
X43684826Y-85300000D01*
X44315174Y-85300000D01*
X44933405Y-85422974D01*
X44933405Y-85422974D01*
G37*
G36*
X73856030Y-88549469D02*
G01*
X73856033Y-88549470D01*
X73856034Y-88549470D01*
X74044535Y-88606651D01*
X74044537Y-88606652D01*
X74218260Y-88699509D01*
X74370528Y-88824472D01*
X74495491Y-88976740D01*
X74495492Y-88976742D01*
X74588349Y-89150465D01*
X74636845Y-89310335D01*
X74645531Y-89338970D01*
X74664838Y-89535000D01*
X74645531Y-89731030D01*
X74645530Y-89731033D01*
X74645530Y-89731034D01*
X74597960Y-89887853D01*
X74588348Y-89919537D01*
X74495491Y-90093260D01*
X74370528Y-90245528D01*
X74218260Y-90370491D01*
X74218258Y-90370492D01*
X74044535Y-90463349D01*
X73856034Y-90520530D01*
X73856033Y-90520530D01*
X73856030Y-90520531D01*
X73709124Y-90535000D01*
X73610876Y-90535000D01*
X73463970Y-90520531D01*
X73463967Y-90520530D01*
X73463966Y-90520530D01*
X73275465Y-90463349D01*
X73101742Y-90370492D01*
X73101740Y-90370491D01*
X72949472Y-90245528D01*
X72824509Y-90093260D01*
X72731652Y-89919537D01*
X72722041Y-89887853D01*
X72674470Y-89731034D01*
X72674470Y-89731033D01*
X72674469Y-89731030D01*
X72655162Y-89535000D01*
X72674469Y-89338970D01*
X72683155Y-89310335D01*
X72731651Y-89150465D01*
X72824508Y-88976742D01*
X72824509Y-88976740D01*
X72949472Y-88824472D01*
X73101740Y-88699509D01*
X73275463Y-88606652D01*
X73275465Y-88606651D01*
X73463966Y-88549470D01*
X73463967Y-88549470D01*
X73463970Y-88549469D01*
X73610876Y-88535000D01*
X73709124Y-88535000D01*
X73856030Y-88549469D01*
X73856030Y-88549469D01*
G37*
G36*
X67040000Y-90535000D02*
G01*
X65040000Y-90535000D01*
X65040000Y-88535000D01*
X67040000Y-88535000D01*
X67040000Y-90535000D01*
X67040000Y-90535000D01*
G37*
G36*
X68899000Y-90104000D02*
G01*
X67499000Y-90104000D01*
X67499000Y-88859000D01*
X68899000Y-88859000D01*
X68899000Y-90104000D01*
X68899000Y-90104000D01*
G37*
G36*
X61118000Y-88545000D02*
G01*
X58818000Y-88545000D01*
X58818000Y-87345000D01*
X61118000Y-87345000D01*
X61118000Y-88545000D01*
X61118000Y-88545000D01*
G37*
G36*
X68899000Y-88179000D02*
G01*
X67499000Y-88179000D01*
X67499000Y-86934000D01*
X68899000Y-86934000D01*
X68899000Y-88179000D01*
X68899000Y-88179000D01*
G37*
G36*
X66236030Y-86009469D02*
G01*
X66236033Y-86009470D01*
X66236034Y-86009470D01*
X66424535Y-86066651D01*
X66424537Y-86066652D01*
X66598260Y-86159509D01*
X66750528Y-86284472D01*
X66875491Y-86436740D01*
X66968348Y-86610463D01*
X67025531Y-86798970D01*
X67044838Y-86995000D01*
X67025531Y-87191030D01*
X66968348Y-87379537D01*
X66875491Y-87553260D01*
X66750528Y-87705528D01*
X66598260Y-87830491D01*
X66598258Y-87830492D01*
X66424535Y-87923349D01*
X66236034Y-87980530D01*
X66236033Y-87980530D01*
X66236030Y-87980531D01*
X66089124Y-87995000D01*
X65990876Y-87995000D01*
X65843970Y-87980531D01*
X65843967Y-87980530D01*
X65843966Y-87980530D01*
X65655465Y-87923349D01*
X65481742Y-87830492D01*
X65481740Y-87830491D01*
X65329472Y-87705528D01*
X65204509Y-87553260D01*
X65111652Y-87379537D01*
X65054469Y-87191030D01*
X65035162Y-86995000D01*
X65054469Y-86798970D01*
X65111652Y-86610463D01*
X65204509Y-86436740D01*
X65329472Y-86284472D01*
X65481740Y-86159509D01*
X65655463Y-86066652D01*
X65655465Y-86066651D01*
X65843966Y-86009470D01*
X65843967Y-86009470D01*
X65843970Y-86009469D01*
X65990876Y-85995000D01*
X66089124Y-85995000D01*
X66236030Y-86009469D01*
X66236030Y-86009469D01*
G37*
G36*
X73856030Y-86009469D02*
G01*
X73856033Y-86009470D01*
X73856034Y-86009470D01*
X74044535Y-86066651D01*
X74044537Y-86066652D01*
X74218260Y-86159509D01*
X74370528Y-86284472D01*
X74495491Y-86436740D01*
X74588348Y-86610463D01*
X74645531Y-86798970D01*
X74664838Y-86995000D01*
X74645531Y-87191030D01*
X74588348Y-87379537D01*
X74495491Y-87553260D01*
X74370528Y-87705528D01*
X74218260Y-87830491D01*
X74218258Y-87830492D01*
X74044535Y-87923349D01*
X73856034Y-87980530D01*
X73856033Y-87980530D01*
X73856030Y-87980531D01*
X73709124Y-87995000D01*
X73610876Y-87995000D01*
X73463970Y-87980531D01*
X73463967Y-87980530D01*
X73463966Y-87980530D01*
X73275465Y-87923349D01*
X73101742Y-87830492D01*
X73101740Y-87830491D01*
X72949472Y-87705528D01*
X72824509Y-87553260D01*
X72731652Y-87379537D01*
X72674469Y-87191030D01*
X72655162Y-86995000D01*
X72674469Y-86798970D01*
X72731652Y-86610463D01*
X72824509Y-86436740D01*
X72949472Y-86284472D01*
X73101740Y-86159509D01*
X73275463Y-86066652D01*
X73275465Y-86066651D01*
X73463966Y-86009470D01*
X73463967Y-86009470D01*
X73463970Y-86009469D01*
X73610876Y-85995000D01*
X73709124Y-85995000D01*
X73856030Y-86009469D01*
X73856030Y-86009469D01*
G37*
G36*
X64118000Y-87595000D02*
G01*
X61818000Y-87595000D01*
X61818000Y-86395000D01*
X64118000Y-86395000D01*
X64118000Y-87595000D01*
X64118000Y-87595000D01*
G37*
G36*
X61118000Y-86645000D02*
G01*
X58818000Y-86645000D01*
X58818000Y-85445000D01*
X61118000Y-85445000D01*
X61118000Y-86645000D01*
X61118000Y-86645000D01*
G37*
G36*
X90993000Y-86524000D02*
G01*
X89093000Y-86524000D01*
X89093000Y-84979000D01*
X90993000Y-84979000D01*
X90993000Y-86524000D01*
X90993000Y-86524000D01*
G37*
G36*
X108675770Y-84515372D02*
G01*
X108791689Y-84538429D01*
X108973678Y-84613811D01*
X109137463Y-84723249D01*
X109276751Y-84862537D01*
X109386189Y-85026322D01*
X109461571Y-85208311D01*
X109500000Y-85401509D01*
X109500000Y-85598491D01*
X109461571Y-85791689D01*
X109386189Y-85973678D01*
X109276751Y-86137463D01*
X109137463Y-86276751D01*
X108973678Y-86386189D01*
X108791689Y-86461571D01*
X108675770Y-86484628D01*
X108598493Y-86500000D01*
X108401507Y-86500000D01*
X108324230Y-86484628D01*
X108208311Y-86461571D01*
X108026322Y-86386189D01*
X107862537Y-86276751D01*
X107723249Y-86137463D01*
X107613811Y-85973678D01*
X107538429Y-85791689D01*
X107500000Y-85598491D01*
X107500000Y-85401509D01*
X107538429Y-85208311D01*
X107613811Y-85026322D01*
X107723249Y-84862537D01*
X107862537Y-84723249D01*
X108026322Y-84613811D01*
X108208311Y-84538429D01*
X108324230Y-84515372D01*
X108401507Y-84500000D01*
X108598493Y-84500000D01*
X108675770Y-84515372D01*
X108675770Y-84515372D01*
G37*
G36*
X93757000Y-86132000D02*
G01*
X91457000Y-86132000D01*
X91457000Y-84932000D01*
X93757000Y-84932000D01*
X93757000Y-86132000D01*
X93757000Y-86132000D01*
G37*
G36*
X55660000Y-85759000D02*
G01*
X53560000Y-85759000D01*
X53560000Y-83659000D01*
X55660000Y-83659000D01*
X55660000Y-85759000D01*
X55660000Y-85759000D01*
G37*
G36*
X52198707Y-83666597D02*
G01*
X52275836Y-83674193D01*
X52407787Y-83714220D01*
X52473763Y-83734233D01*
X52656172Y-83831733D01*
X52816054Y-83962946D01*
X52947267Y-84122828D01*
X53044767Y-84305237D01*
X53044767Y-84305238D01*
X53104807Y-84503164D01*
X53125080Y-84709000D01*
X53104807Y-84914836D01*
X53070988Y-85026322D01*
X53044767Y-85112763D01*
X52947267Y-85295172D01*
X52816054Y-85455054D01*
X52656172Y-85586267D01*
X52473763Y-85683767D01*
X52407787Y-85703780D01*
X52275836Y-85743807D01*
X52198707Y-85751403D01*
X52121580Y-85759000D01*
X52018420Y-85759000D01*
X51941293Y-85751403D01*
X51864164Y-85743807D01*
X51732213Y-85703780D01*
X51666237Y-85683767D01*
X51483828Y-85586267D01*
X51323946Y-85455054D01*
X51192733Y-85295172D01*
X51095233Y-85112763D01*
X51069012Y-85026322D01*
X51035193Y-84914836D01*
X51014920Y-84709000D01*
X51035193Y-84503164D01*
X51095233Y-84305238D01*
X51095233Y-84305237D01*
X51192733Y-84122828D01*
X51323946Y-83962946D01*
X51483828Y-83831733D01*
X51666237Y-83734233D01*
X51732213Y-83714220D01*
X51864164Y-83674193D01*
X51941293Y-83666597D01*
X52018420Y-83659000D01*
X52121580Y-83659000D01*
X52198707Y-83666597D01*
X52198707Y-83666597D01*
G37*
G36*
X79063030Y-83469469D02*
G01*
X79063033Y-83469470D01*
X79063034Y-83469470D01*
X79251535Y-83526651D01*
X79251537Y-83526652D01*
X79425260Y-83619509D01*
X79577528Y-83744472D01*
X79702491Y-83896740D01*
X79795348Y-84070463D01*
X79852531Y-84258970D01*
X79871838Y-84455000D01*
X79852531Y-84651030D01*
X79852530Y-84651033D01*
X79852530Y-84651034D01*
X79830623Y-84723253D01*
X79795348Y-84839537D01*
X79702491Y-85013260D01*
X79577528Y-85165528D01*
X79425260Y-85290491D01*
X79425258Y-85290492D01*
X79251535Y-85383349D01*
X79063034Y-85440530D01*
X79063033Y-85440530D01*
X79063030Y-85440531D01*
X78916124Y-85455000D01*
X78817876Y-85455000D01*
X78670970Y-85440531D01*
X78670967Y-85440530D01*
X78670966Y-85440530D01*
X78482465Y-85383349D01*
X78308742Y-85290492D01*
X78308740Y-85290491D01*
X78156472Y-85165528D01*
X78031509Y-85013260D01*
X77938652Y-84839537D01*
X77903378Y-84723253D01*
X77881470Y-84651034D01*
X77881470Y-84651033D01*
X77881469Y-84651030D01*
X77862162Y-84455000D01*
X77881469Y-84258970D01*
X77938652Y-84070463D01*
X78031509Y-83896740D01*
X78156472Y-83744472D01*
X78308740Y-83619509D01*
X78482463Y-83526652D01*
X78482465Y-83526651D01*
X78670966Y-83469470D01*
X78670967Y-83469470D01*
X78670970Y-83469469D01*
X78817876Y-83455000D01*
X78916124Y-83455000D01*
X79063030Y-83469469D01*
X79063030Y-83469469D01*
G37*
G36*
X82407000Y-85455000D02*
G01*
X80407000Y-85455000D01*
X80407000Y-83455000D01*
X82407000Y-83455000D01*
X82407000Y-85455000D01*
X82407000Y-85455000D01*
G37*
G36*
X68899000Y-85405000D02*
G01*
X67499000Y-85405000D01*
X67499000Y-84160000D01*
X68899000Y-84160000D01*
X68899000Y-85405000D01*
X68899000Y-85405000D01*
G37*
G36*
X96757000Y-85182000D02*
G01*
X94457000Y-85182000D01*
X94457000Y-83982000D01*
X96757000Y-83982000D01*
X96757000Y-85182000D01*
X96757000Y-85182000D01*
G37*
G36*
X60620000Y-84520000D02*
G01*
X59375000Y-84520000D01*
X59375000Y-83120000D01*
X60620000Y-83120000D01*
X60620000Y-84520000D01*
X60620000Y-84520000D01*
G37*
G36*
X62545000Y-84520000D02*
G01*
X61300000Y-84520000D01*
X61300000Y-83120000D01*
X62545000Y-83120000D01*
X62545000Y-84520000D01*
X62545000Y-84520000D01*
G37*
G36*
X90993000Y-84439000D02*
G01*
X89093000Y-84439000D01*
X89093000Y-82894000D01*
X90993000Y-82894000D01*
X90993000Y-84439000D01*
X90993000Y-84439000D01*
G37*
G36*
X93757000Y-84232000D02*
G01*
X91457000Y-84232000D01*
X91457000Y-83032000D01*
X93757000Y-83032000D01*
X93757000Y-84232000D01*
X93757000Y-84232000D01*
G37*
G36*
X73856030Y-81945469D02*
G01*
X73856033Y-81945470D01*
X73856034Y-81945470D01*
X74044535Y-82002651D01*
X74044537Y-82002652D01*
X74218260Y-82095509D01*
X74370528Y-82220472D01*
X74495491Y-82372740D01*
X74588348Y-82546463D01*
X74645531Y-82734970D01*
X74664838Y-82931000D01*
X74645531Y-83127030D01*
X74588348Y-83315537D01*
X74495491Y-83489260D01*
X74370528Y-83641528D01*
X74218260Y-83766491D01*
X74218258Y-83766492D01*
X74044535Y-83859349D01*
X73856034Y-83916530D01*
X73856033Y-83916530D01*
X73856030Y-83916531D01*
X73709124Y-83931000D01*
X73610876Y-83931000D01*
X73463970Y-83916531D01*
X73463967Y-83916530D01*
X73463966Y-83916530D01*
X73275465Y-83859349D01*
X73101742Y-83766492D01*
X73101740Y-83766491D01*
X72949472Y-83641528D01*
X72824509Y-83489260D01*
X72731652Y-83315537D01*
X72674469Y-83127030D01*
X72655162Y-82931000D01*
X72674469Y-82734970D01*
X72731652Y-82546463D01*
X72824509Y-82372740D01*
X72949472Y-82220472D01*
X73101740Y-82095509D01*
X73275463Y-82002652D01*
X73275465Y-82002651D01*
X73463966Y-81945470D01*
X73463967Y-81945470D01*
X73463970Y-81945469D01*
X73610876Y-81931000D01*
X73709124Y-81931000D01*
X73856030Y-81945469D01*
X73856030Y-81945469D01*
G37*
G36*
X67040000Y-83931000D02*
G01*
X65040000Y-83931000D01*
X65040000Y-81931000D01*
X67040000Y-81931000D01*
X67040000Y-83931000D01*
X67040000Y-83931000D01*
G37*
G36*
X68899000Y-83480000D02*
G01*
X67499000Y-83480000D01*
X67499000Y-82235000D01*
X68899000Y-82235000D01*
X68899000Y-83480000D01*
X68899000Y-83480000D01*
G37*
G36*
X57896000Y-82738000D02*
G01*
X56351000Y-82738000D01*
X56351000Y-80838000D01*
X57896000Y-80838000D01*
X57896000Y-82738000D01*
X57896000Y-82738000D01*
G37*
G36*
X59981000Y-82738000D02*
G01*
X58436000Y-82738000D01*
X58436000Y-80838000D01*
X59981000Y-80838000D01*
X59981000Y-82738000D01*
X59981000Y-82738000D01*
G37*
G36*
X93283000Y-82738000D02*
G01*
X91883000Y-82738000D01*
X91883000Y-81493000D01*
X93283000Y-81493000D01*
X93283000Y-82738000D01*
X93283000Y-82738000D01*
G37*
G36*
X118583418Y-79313444D02*
G01*
X118723281Y-79327219D01*
X118947596Y-79395265D01*
X119154327Y-79505764D01*
X119335528Y-79654472D01*
X119484236Y-79835673D01*
X119594735Y-80042404D01*
X119662781Y-80266719D01*
X119685757Y-80500000D01*
X119662781Y-80733281D01*
X119594735Y-80957596D01*
X119484236Y-81164327D01*
X119335528Y-81345528D01*
X119154327Y-81494236D01*
X118947596Y-81604735D01*
X118723281Y-81672781D01*
X118583418Y-81686556D01*
X118548453Y-81690000D01*
X116451547Y-81690000D01*
X116416582Y-81686556D01*
X116276719Y-81672781D01*
X116052404Y-81604735D01*
X115845673Y-81494236D01*
X115664472Y-81345528D01*
X115515764Y-81164327D01*
X115405265Y-80957596D01*
X115337219Y-80733281D01*
X115314243Y-80500000D01*
X115337219Y-80266719D01*
X115405265Y-80042404D01*
X115515764Y-79835673D01*
X115664472Y-79654472D01*
X115845673Y-79505764D01*
X116052404Y-79395265D01*
X116276719Y-79327219D01*
X116416582Y-79313444D01*
X116451547Y-79310000D01*
X118548453Y-79310000D01*
X118583418Y-79313444D01*
X118583418Y-79313444D01*
G37*
G36*
X108675770Y-79515372D02*
G01*
X108791689Y-79538429D01*
X108973678Y-79613811D01*
X109137463Y-79723249D01*
X109276751Y-79862537D01*
X109386189Y-80026322D01*
X109461571Y-80208311D01*
X109500000Y-80401509D01*
X109500000Y-80598491D01*
X109461571Y-80791689D01*
X109386189Y-80973678D01*
X109276751Y-81137463D01*
X109137463Y-81276751D01*
X108973678Y-81386189D01*
X108791689Y-81461571D01*
X108675770Y-81484628D01*
X108598493Y-81500000D01*
X108401507Y-81500000D01*
X108324230Y-81484628D01*
X108208311Y-81461571D01*
X108026322Y-81386189D01*
X107862537Y-81276751D01*
X107723249Y-81137463D01*
X107613811Y-80973678D01*
X107538429Y-80791689D01*
X107500000Y-80598491D01*
X107500000Y-80401509D01*
X107538429Y-80208311D01*
X107613811Y-80026322D01*
X107723249Y-79862537D01*
X107862537Y-79723249D01*
X108026322Y-79613811D01*
X108208311Y-79538429D01*
X108324230Y-79515372D01*
X108401507Y-79500000D01*
X108598493Y-79500000D01*
X108675770Y-79515372D01*
X108675770Y-79515372D01*
G37*
G36*
X73856030Y-79405469D02*
G01*
X73856033Y-79405470D01*
X73856034Y-79405470D01*
X74044535Y-79462651D01*
X74044537Y-79462652D01*
X74218260Y-79555509D01*
X74370528Y-79680472D01*
X74495491Y-79832740D01*
X74495492Y-79832742D01*
X74588349Y-80006465D01*
X74594373Y-80026325D01*
X74645531Y-80194970D01*
X74664838Y-80391000D01*
X74645531Y-80587030D01*
X74645530Y-80587033D01*
X74645530Y-80587034D01*
X74601167Y-80733281D01*
X74588348Y-80775537D01*
X74495491Y-80949260D01*
X74370528Y-81101528D01*
X74218260Y-81226491D01*
X74218258Y-81226492D01*
X74044535Y-81319349D01*
X73856034Y-81376530D01*
X73856033Y-81376530D01*
X73856030Y-81376531D01*
X73709124Y-81391000D01*
X73610876Y-81391000D01*
X73463970Y-81376531D01*
X73463967Y-81376530D01*
X73463966Y-81376530D01*
X73275465Y-81319349D01*
X73101742Y-81226492D01*
X73101740Y-81226491D01*
X72949472Y-81101528D01*
X72824509Y-80949260D01*
X72731652Y-80775537D01*
X72718834Y-80733281D01*
X72674470Y-80587034D01*
X72674470Y-80587033D01*
X72674469Y-80587030D01*
X72655162Y-80391000D01*
X72674469Y-80194970D01*
X72725627Y-80026325D01*
X72731651Y-80006465D01*
X72824508Y-79832742D01*
X72824509Y-79832740D01*
X72949472Y-79680472D01*
X73101740Y-79555509D01*
X73275463Y-79462652D01*
X73275465Y-79462651D01*
X73463966Y-79405470D01*
X73463967Y-79405470D01*
X73463970Y-79405469D01*
X73610876Y-79391000D01*
X73709124Y-79391000D01*
X73856030Y-79405469D01*
X73856030Y-79405469D01*
G37*
G36*
X66236030Y-79405469D02*
G01*
X66236033Y-79405470D01*
X66236034Y-79405470D01*
X66424535Y-79462651D01*
X66424537Y-79462652D01*
X66598260Y-79555509D01*
X66750528Y-79680472D01*
X66875491Y-79832740D01*
X66875492Y-79832742D01*
X66968349Y-80006465D01*
X66974373Y-80026325D01*
X67025531Y-80194970D01*
X67044838Y-80391000D01*
X67025531Y-80587030D01*
X67025530Y-80587033D01*
X67025530Y-80587034D01*
X66981167Y-80733281D01*
X66968348Y-80775537D01*
X66875491Y-80949260D01*
X66750528Y-81101528D01*
X66598260Y-81226491D01*
X66598258Y-81226492D01*
X66424535Y-81319349D01*
X66236034Y-81376530D01*
X66236033Y-81376530D01*
X66236030Y-81376531D01*
X66089124Y-81391000D01*
X65990876Y-81391000D01*
X65843970Y-81376531D01*
X65843967Y-81376530D01*
X65843966Y-81376530D01*
X65655465Y-81319349D01*
X65481742Y-81226492D01*
X65481740Y-81226491D01*
X65329472Y-81101528D01*
X65204509Y-80949260D01*
X65111652Y-80775537D01*
X65098834Y-80733281D01*
X65054470Y-80587034D01*
X65054470Y-80587033D01*
X65054469Y-80587030D01*
X65035162Y-80391000D01*
X65054469Y-80194970D01*
X65105627Y-80026325D01*
X65111651Y-80006465D01*
X65204508Y-79832742D01*
X65204509Y-79832740D01*
X65329472Y-79680472D01*
X65481740Y-79555509D01*
X65655463Y-79462652D01*
X65655465Y-79462651D01*
X65843966Y-79405470D01*
X65843967Y-79405470D01*
X65843970Y-79405469D01*
X65990876Y-79391000D01*
X66089124Y-79391000D01*
X66236030Y-79405469D01*
X66236030Y-79405469D01*
G37*
G36*
X93283000Y-80813000D02*
G01*
X91883000Y-80813000D01*
X91883000Y-79568000D01*
X93283000Y-79568000D01*
X93283000Y-80813000D01*
X93283000Y-80813000D01*
G37*
G36*
X42052481Y-77199855D02*
G01*
X42252118Y-77239565D01*
X42440173Y-77317460D01*
X42534201Y-77356408D01*
X42788071Y-77526038D01*
X43003962Y-77741929D01*
X43173592Y-77995799D01*
X43173592Y-77995800D01*
X43290435Y-78277882D01*
X43350000Y-78577338D01*
X43350000Y-78882662D01*
X43290435Y-79182118D01*
X43237464Y-79310000D01*
X43173592Y-79464201D01*
X43003962Y-79718071D01*
X42788071Y-79933962D01*
X42534201Y-80103592D01*
X42440173Y-80142540D01*
X42252118Y-80220435D01*
X42052481Y-80260145D01*
X41952663Y-80280000D01*
X41647337Y-80280000D01*
X41547519Y-80260145D01*
X41347882Y-80220435D01*
X41159827Y-80142540D01*
X41065799Y-80103592D01*
X40811929Y-79933962D01*
X40596038Y-79718071D01*
X40426408Y-79464201D01*
X40362536Y-79310000D01*
X40309565Y-79182118D01*
X40250000Y-78882662D01*
X40250000Y-78577338D01*
X40309565Y-78277882D01*
X40426408Y-77995800D01*
X40426408Y-77995799D01*
X40596038Y-77741929D01*
X40811929Y-77526038D01*
X41065799Y-77356408D01*
X41159827Y-77317460D01*
X41347882Y-77239565D01*
X41547519Y-77199855D01*
X41647337Y-77180000D01*
X41952663Y-77180000D01*
X42052481Y-77199855D01*
X42052481Y-77199855D01*
G37*
G36*
X93660000Y-79031000D02*
G01*
X91760000Y-79031000D01*
X91760000Y-77486000D01*
X93660000Y-77486000D01*
X93660000Y-79031000D01*
X93660000Y-79031000D01*
G37*
G36*
X96424000Y-78893000D02*
G01*
X94124000Y-78893000D01*
X94124000Y-77693000D01*
X96424000Y-77693000D01*
X96424000Y-78893000D01*
X96424000Y-78893000D01*
G37*
G36*
X72451000Y-78396000D02*
G01*
X70551000Y-78396000D01*
X70551000Y-76851000D01*
X72451000Y-76851000D01*
X72451000Y-78396000D01*
X72451000Y-78396000D01*
G37*
G36*
X74487000Y-78166000D02*
G01*
X73087000Y-78166000D01*
X73087000Y-76921000D01*
X74487000Y-76921000D01*
X74487000Y-78166000D01*
X74487000Y-78166000D01*
G37*
G36*
X70214000Y-78131000D02*
G01*
X67914000Y-78131000D01*
X67914000Y-76931000D01*
X70214000Y-76931000D01*
X70214000Y-78131000D01*
X70214000Y-78131000D01*
G37*
G36*
X99424000Y-77943000D02*
G01*
X97124000Y-77943000D01*
X97124000Y-76743000D01*
X99424000Y-76743000D01*
X99424000Y-77943000D01*
X99424000Y-77943000D01*
G37*
G36*
X81603030Y-75849469D02*
G01*
X81603033Y-75849470D01*
X81603034Y-75849470D01*
X81791535Y-75906651D01*
X81791537Y-75906652D01*
X81965260Y-75999509D01*
X82117528Y-76124472D01*
X82242491Y-76276740D01*
X82242492Y-76276742D01*
X82335349Y-76450465D01*
X82382146Y-76604734D01*
X82392531Y-76638970D01*
X82411838Y-76835000D01*
X82392531Y-77031030D01*
X82392530Y-77031033D01*
X82392530Y-77031034D01*
X82347342Y-77180000D01*
X82335348Y-77219537D01*
X82242491Y-77393260D01*
X82117528Y-77545528D01*
X81965260Y-77670491D01*
X81965258Y-77670492D01*
X81791535Y-77763349D01*
X81603034Y-77820530D01*
X81603033Y-77820530D01*
X81603030Y-77820531D01*
X81456124Y-77835000D01*
X81357876Y-77835000D01*
X81210970Y-77820531D01*
X81210967Y-77820530D01*
X81210966Y-77820530D01*
X81022465Y-77763349D01*
X80848742Y-77670492D01*
X80848740Y-77670491D01*
X80696472Y-77545528D01*
X80571509Y-77393260D01*
X80478652Y-77219537D01*
X80466659Y-77180000D01*
X80421470Y-77031034D01*
X80421470Y-77031033D01*
X80421469Y-77031030D01*
X80402162Y-76835000D01*
X80421469Y-76638970D01*
X80431854Y-76604734D01*
X80478651Y-76450465D01*
X80571508Y-76276742D01*
X80571509Y-76276740D01*
X80696472Y-76124472D01*
X80848740Y-75999509D01*
X81022463Y-75906652D01*
X81022465Y-75906651D01*
X81210966Y-75849470D01*
X81210967Y-75849470D01*
X81210970Y-75849469D01*
X81357876Y-75835000D01*
X81456124Y-75835000D01*
X81603030Y-75849469D01*
X81603030Y-75849469D01*
G37*
G36*
X79063030Y-75849469D02*
G01*
X79063033Y-75849470D01*
X79063034Y-75849470D01*
X79251535Y-75906651D01*
X79251537Y-75906652D01*
X79425260Y-75999509D01*
X79577528Y-76124472D01*
X79702491Y-76276740D01*
X79702492Y-76276742D01*
X79795349Y-76450465D01*
X79842146Y-76604734D01*
X79852531Y-76638970D01*
X79871838Y-76835000D01*
X79852531Y-77031030D01*
X79852530Y-77031033D01*
X79852530Y-77031034D01*
X79807342Y-77180000D01*
X79795348Y-77219537D01*
X79702491Y-77393260D01*
X79577528Y-77545528D01*
X79425260Y-77670491D01*
X79425258Y-77670492D01*
X79251535Y-77763349D01*
X79063034Y-77820530D01*
X79063033Y-77820530D01*
X79063030Y-77820531D01*
X78916124Y-77835000D01*
X78817876Y-77835000D01*
X78670970Y-77820531D01*
X78670967Y-77820530D01*
X78670966Y-77820530D01*
X78482465Y-77763349D01*
X78308742Y-77670492D01*
X78308740Y-77670491D01*
X78156472Y-77545528D01*
X78031509Y-77393260D01*
X77938652Y-77219537D01*
X77926659Y-77180000D01*
X77881470Y-77031034D01*
X77881470Y-77031033D01*
X77881469Y-77031030D01*
X77862162Y-76835000D01*
X77881469Y-76638970D01*
X77891854Y-76604734D01*
X77938651Y-76450465D01*
X78031508Y-76276742D01*
X78031509Y-76276740D01*
X78156472Y-76124472D01*
X78308740Y-75999509D01*
X78482463Y-75906652D01*
X78482465Y-75906651D01*
X78670966Y-75849470D01*
X78670967Y-75849470D01*
X78670970Y-75849469D01*
X78817876Y-75835000D01*
X78916124Y-75835000D01*
X79063030Y-75849469D01*
X79063030Y-75849469D01*
G37*
G36*
X67214000Y-77181000D02*
G01*
X64914000Y-77181000D01*
X64914000Y-75981000D01*
X67214000Y-75981000D01*
X67214000Y-77181000D01*
X67214000Y-77181000D01*
G37*
G36*
X89322000Y-77027000D02*
G01*
X88077000Y-77027000D01*
X88077000Y-75627000D01*
X89322000Y-75627000D01*
X89322000Y-77027000D01*
X89322000Y-77027000D01*
G37*
G36*
X91247000Y-77027000D02*
G01*
X90002000Y-77027000D01*
X90002000Y-75627000D01*
X91247000Y-75627000D01*
X91247000Y-77027000D01*
X91247000Y-77027000D01*
G37*
G36*
X96424000Y-76993000D02*
G01*
X94124000Y-76993000D01*
X94124000Y-75793000D01*
X96424000Y-75793000D01*
X96424000Y-76993000D01*
X96424000Y-76993000D01*
G37*
G36*
X93660000Y-76946000D02*
G01*
X91760000Y-76946000D01*
X91760000Y-75401000D01*
X93660000Y-75401000D01*
X93660000Y-76946000D01*
X93660000Y-76946000D01*
G37*
G36*
X118583418Y-74313444D02*
G01*
X118723281Y-74327219D01*
X118947596Y-74395265D01*
X119154327Y-74505764D01*
X119335528Y-74654472D01*
X119484236Y-74835673D01*
X119569932Y-74996000D01*
X119588640Y-75031000D01*
X119594735Y-75042404D01*
X119662781Y-75266719D01*
X119685757Y-75500000D01*
X119662781Y-75733281D01*
X119594735Y-75957596D01*
X119484236Y-76164327D01*
X119335528Y-76345528D01*
X119154327Y-76494236D01*
X118947596Y-76604735D01*
X118723281Y-76672781D01*
X118583418Y-76686556D01*
X118548453Y-76690000D01*
X116451547Y-76690000D01*
X116416582Y-76686556D01*
X116276719Y-76672781D01*
X116052404Y-76604735D01*
X115845673Y-76494236D01*
X115664472Y-76345528D01*
X115515764Y-76164327D01*
X115405265Y-75957596D01*
X115337219Y-75733281D01*
X115314243Y-75500000D01*
X115337219Y-75266719D01*
X115405265Y-75042404D01*
X115411361Y-75031000D01*
X115430068Y-74996000D01*
X115515764Y-74835673D01*
X115664472Y-74654472D01*
X115845673Y-74505764D01*
X116052404Y-74395265D01*
X116276719Y-74327219D01*
X116416582Y-74313444D01*
X116451547Y-74310000D01*
X118548453Y-74310000D01*
X118583418Y-74313444D01*
X118583418Y-74313444D01*
G37*
G36*
X72451000Y-76311000D02*
G01*
X70551000Y-76311000D01*
X70551000Y-74766000D01*
X72451000Y-74766000D01*
X72451000Y-76311000D01*
X72451000Y-76311000D01*
G37*
G36*
X74487000Y-76241000D02*
G01*
X73087000Y-76241000D01*
X73087000Y-74996000D01*
X74487000Y-74996000D01*
X74487000Y-76241000D01*
X74487000Y-76241000D01*
G37*
G36*
X70214000Y-76231000D02*
G01*
X67914000Y-76231000D01*
X67914000Y-75031000D01*
X70214000Y-75031000D01*
X70214000Y-76231000D01*
X70214000Y-76231000D01*
G37*
G36*
X44687287Y-73058446D02*
G01*
X44780022Y-73076892D01*
X44954731Y-73149259D01*
X45109872Y-73252921D01*
X45111967Y-73254321D01*
X45245679Y-73388033D01*
X45350742Y-73545271D01*
X45384515Y-73626806D01*
X45396066Y-73648417D01*
X45411612Y-73667359D01*
X45430554Y-73682905D01*
X45452165Y-73694456D01*
X45475614Y-73701569D01*
X45500000Y-73703971D01*
X45524386Y-73701569D01*
X45547835Y-73694456D01*
X45569446Y-73682905D01*
X45588388Y-73667359D01*
X45603934Y-73648417D01*
X45615485Y-73626806D01*
X45649258Y-73545271D01*
X45754321Y-73388033D01*
X45888033Y-73254321D01*
X45890128Y-73252921D01*
X46045269Y-73149259D01*
X46219978Y-73076892D01*
X46312713Y-73058446D01*
X46405447Y-73040000D01*
X46594553Y-73040000D01*
X46687287Y-73058446D01*
X46780022Y-73076892D01*
X46954731Y-73149259D01*
X47109872Y-73252921D01*
X47111967Y-73254321D01*
X47245679Y-73388033D01*
X47245681Y-73388036D01*
X47350741Y-73545269D01*
X47423108Y-73719978D01*
X47460000Y-73905448D01*
X47460000Y-74094552D01*
X47423108Y-74280022D01*
X47407752Y-74317095D01*
X47350742Y-74454729D01*
X47245679Y-74611967D01*
X47111967Y-74745679D01*
X47111964Y-74745681D01*
X46954731Y-74850741D01*
X46780022Y-74923108D01*
X46687287Y-74941554D01*
X46594553Y-74960000D01*
X46405447Y-74960000D01*
X46312713Y-74941554D01*
X46219978Y-74923108D01*
X46045269Y-74850741D01*
X45888036Y-74745681D01*
X45888033Y-74745679D01*
X45754321Y-74611967D01*
X45649258Y-74454729D01*
X45615485Y-74373194D01*
X45603934Y-74351583D01*
X45588388Y-74332641D01*
X45569446Y-74317095D01*
X45547835Y-74305544D01*
X45524386Y-74298431D01*
X45500000Y-74296029D01*
X45475614Y-74298431D01*
X45452165Y-74305544D01*
X45430554Y-74317095D01*
X45411612Y-74332641D01*
X45396066Y-74351583D01*
X45384515Y-74373194D01*
X45350742Y-74454729D01*
X45245679Y-74611967D01*
X45111967Y-74745679D01*
X45111964Y-74745681D01*
X44954731Y-74850741D01*
X44780022Y-74923108D01*
X44687287Y-74941554D01*
X44594553Y-74960000D01*
X44405447Y-74960000D01*
X44312713Y-74941554D01*
X44219978Y-74923108D01*
X44045269Y-74850741D01*
X43888036Y-74745681D01*
X43888033Y-74745679D01*
X43754321Y-74611967D01*
X43649258Y-74454729D01*
X43592248Y-74317095D01*
X43576892Y-74280022D01*
X43540000Y-74094552D01*
X43540000Y-73905448D01*
X43576892Y-73719978D01*
X43649259Y-73545269D01*
X43754319Y-73388036D01*
X43754321Y-73388033D01*
X43888033Y-73254321D01*
X43890128Y-73252921D01*
X44045269Y-73149259D01*
X44219978Y-73076892D01*
X44312713Y-73058446D01*
X44405447Y-73040000D01*
X44594553Y-73040000D01*
X44687287Y-73058446D01*
X44687287Y-73058446D01*
G37*
G36*
X44687287Y-70518446D02*
G01*
X44780022Y-70536892D01*
X44954731Y-70609259D01*
X45109872Y-70712921D01*
X45111967Y-70714321D01*
X45245679Y-70848033D01*
X45245681Y-70848036D01*
X45325839Y-70968000D01*
X45350742Y-71005271D01*
X45384515Y-71086806D01*
X45396066Y-71108417D01*
X45411612Y-71127359D01*
X45430554Y-71142905D01*
X45452165Y-71154456D01*
X45475614Y-71161569D01*
X45500000Y-71163971D01*
X45524386Y-71161569D01*
X45547835Y-71154456D01*
X45569446Y-71142905D01*
X45588388Y-71127359D01*
X45603934Y-71108417D01*
X45615485Y-71086806D01*
X45649258Y-71005271D01*
X45674162Y-70968000D01*
X45754319Y-70848036D01*
X45754321Y-70848033D01*
X45888033Y-70714321D01*
X45890128Y-70712921D01*
X46045269Y-70609259D01*
X46219978Y-70536892D01*
X46312713Y-70518446D01*
X46405447Y-70500000D01*
X46594553Y-70500000D01*
X46687287Y-70518446D01*
X46780022Y-70536892D01*
X46954731Y-70609259D01*
X47109872Y-70712921D01*
X47111967Y-70714321D01*
X47245679Y-70848033D01*
X47245681Y-70848036D01*
X47350741Y-71005269D01*
X47423108Y-71179978D01*
X47460000Y-71365448D01*
X47460000Y-71554552D01*
X47423108Y-71740022D01*
X47412536Y-71765544D01*
X47350742Y-71914729D01*
X47245679Y-72071967D01*
X47111967Y-72205679D01*
X47111964Y-72205681D01*
X46954731Y-72310741D01*
X46780022Y-72383108D01*
X46687287Y-72401554D01*
X46594553Y-72420000D01*
X46405447Y-72420000D01*
X46312713Y-72401554D01*
X46219978Y-72383108D01*
X46045269Y-72310741D01*
X45888036Y-72205681D01*
X45888033Y-72205679D01*
X45754321Y-72071967D01*
X45649258Y-71914729D01*
X45615485Y-71833194D01*
X45603934Y-71811583D01*
X45588388Y-71792641D01*
X45569446Y-71777095D01*
X45547835Y-71765544D01*
X45524386Y-71758431D01*
X45500000Y-71756029D01*
X45475614Y-71758431D01*
X45452165Y-71765544D01*
X45430554Y-71777095D01*
X45411612Y-71792641D01*
X45396066Y-71811583D01*
X45384515Y-71833194D01*
X45350742Y-71914729D01*
X45245679Y-72071967D01*
X45111967Y-72205679D01*
X45111964Y-72205681D01*
X44954731Y-72310741D01*
X44780022Y-72383108D01*
X44687287Y-72401554D01*
X44594553Y-72420000D01*
X44405447Y-72420000D01*
X44312713Y-72401554D01*
X44219978Y-72383108D01*
X44045269Y-72310741D01*
X43888036Y-72205681D01*
X43888033Y-72205679D01*
X43754321Y-72071967D01*
X43649258Y-71914729D01*
X43587464Y-71765544D01*
X43576892Y-71740022D01*
X43540000Y-71554552D01*
X43540000Y-71365448D01*
X43576892Y-71179978D01*
X43649259Y-71005269D01*
X43754319Y-70848036D01*
X43754321Y-70848033D01*
X43888033Y-70714321D01*
X43890128Y-70712921D01*
X44045269Y-70609259D01*
X44219978Y-70536892D01*
X44312713Y-70518446D01*
X44405447Y-70500000D01*
X44594553Y-70500000D01*
X44687287Y-70518446D01*
X44687287Y-70518446D01*
G37*
G36*
X119680000Y-71690000D02*
G01*
X115320000Y-71690000D01*
X115320000Y-69310000D01*
X119680000Y-69310000D01*
X119680000Y-71690000D01*
X119680000Y-71690000D01*
G37*
G36*
X108600000Y-71600000D02*
G01*
X106400000Y-71600000D01*
X106400000Y-69400000D01*
X108600000Y-69400000D01*
X108600000Y-71600000D01*
X108600000Y-71600000D01*
G37*
G36*
X97572393Y-67661553D02*
G01*
X97681872Y-67683330D01*
X97991252Y-67811479D01*
X98269687Y-67997523D01*
X98506477Y-68234313D01*
X98692521Y-68512748D01*
X98820670Y-68822128D01*
X98824400Y-68840879D01*
X98876055Y-69100565D01*
X98886000Y-69150565D01*
X98886000Y-69485435D01*
X98820670Y-69813872D01*
X98692521Y-70123252D01*
X98506477Y-70401687D01*
X98269687Y-70638477D01*
X97991252Y-70824521D01*
X97681872Y-70952670D01*
X97572393Y-70974447D01*
X97353437Y-71018000D01*
X97018563Y-71018000D01*
X96799607Y-70974447D01*
X96690128Y-70952670D01*
X96380748Y-70824521D01*
X96102313Y-70638477D01*
X95865523Y-70401687D01*
X95679479Y-70123252D01*
X95551330Y-69813872D01*
X95486000Y-69485435D01*
X95486000Y-69150565D01*
X95495946Y-69100565D01*
X95547600Y-68840879D01*
X95551330Y-68822128D01*
X95679479Y-68512748D01*
X95865523Y-68234313D01*
X96102313Y-67997523D01*
X96380748Y-67811479D01*
X96690128Y-67683330D01*
X96799607Y-67661553D01*
X97018563Y-67618000D01*
X97353437Y-67618000D01*
X97572393Y-67661553D01*
X97572393Y-67661553D01*
G37*
G36*
X85522393Y-67611553D02*
G01*
X85631872Y-67633330D01*
X85941252Y-67761479D01*
X86219687Y-67947523D01*
X86456477Y-68184313D01*
X86642521Y-68462748D01*
X86770670Y-68772128D01*
X86780616Y-68822129D01*
X86836000Y-69100563D01*
X86836000Y-69435437D01*
X86826054Y-69485437D01*
X86770670Y-69763872D01*
X86642521Y-70073252D01*
X86456477Y-70351687D01*
X86219687Y-70588477D01*
X85941252Y-70774521D01*
X85631872Y-70902670D01*
X85522393Y-70924447D01*
X85303437Y-70968000D01*
X84968563Y-70968000D01*
X84749607Y-70924447D01*
X84640128Y-70902670D01*
X84330748Y-70774521D01*
X84052313Y-70588477D01*
X83815523Y-70351687D01*
X83629479Y-70073252D01*
X83501330Y-69763872D01*
X83445946Y-69485437D01*
X83436000Y-69435437D01*
X83436000Y-69100563D01*
X83491384Y-68822129D01*
X83501330Y-68772128D01*
X83629479Y-68462748D01*
X83815523Y-68184313D01*
X84052313Y-67947523D01*
X84330748Y-67761479D01*
X84640128Y-67633330D01*
X84749607Y-67611553D01*
X84968563Y-67568000D01*
X85303437Y-67568000D01*
X85522393Y-67611553D01*
X85522393Y-67611553D01*
G37*
G36*
X104050000Y-70200000D02*
G01*
X101950000Y-70200000D01*
X101950000Y-67800000D01*
X104050000Y-67800000D01*
X104050000Y-70200000D01*
X104050000Y-70200000D01*
G37*
G36*
X107715639Y-66875916D02*
G01*
X107922986Y-66938815D01*
X107922988Y-66938816D01*
X108114084Y-67040958D01*
X108281581Y-67178419D01*
X108419042Y-67345916D01*
X108482266Y-67464201D01*
X108521185Y-67537014D01*
X108584084Y-67744361D01*
X108605322Y-67960000D01*
X108584084Y-68175639D01*
X108566286Y-68234311D01*
X108521184Y-68382988D01*
X108419042Y-68574084D01*
X108281581Y-68741581D01*
X108114084Y-68879042D01*
X107922988Y-68981184D01*
X107922986Y-68981185D01*
X107715639Y-69044084D01*
X107554038Y-69060000D01*
X107445962Y-69060000D01*
X107284361Y-69044084D01*
X107077014Y-68981185D01*
X107077012Y-68981184D01*
X106885916Y-68879042D01*
X106718419Y-68741581D01*
X106580958Y-68574084D01*
X106478816Y-68382988D01*
X106433715Y-68234311D01*
X106415916Y-68175639D01*
X106394678Y-67960000D01*
X106415916Y-67744361D01*
X106478815Y-67537014D01*
X106517734Y-67464201D01*
X106580958Y-67345916D01*
X106718419Y-67178419D01*
X106885916Y-67040958D01*
X107077012Y-66938816D01*
X107077014Y-66938815D01*
X107284361Y-66875916D01*
X107445962Y-66860000D01*
X107554038Y-66860000D01*
X107715639Y-66875916D01*
X107715639Y-66875916D01*
G37*
G36*
X65798451Y-67058127D02*
G01*
X65936105Y-67085508D01*
X66108994Y-67157121D01*
X66264590Y-67261087D01*
X66396913Y-67393410D01*
X66500879Y-67549006D01*
X66572492Y-67721895D01*
X66609000Y-67905433D01*
X66609000Y-68092567D01*
X66572492Y-68276105D01*
X66500879Y-68448994D01*
X66396913Y-68604590D01*
X66264590Y-68736913D01*
X66108994Y-68840879D01*
X65936105Y-68912492D01*
X65798452Y-68939873D01*
X65752568Y-68949000D01*
X65565432Y-68949000D01*
X65519548Y-68939873D01*
X65381895Y-68912492D01*
X65209006Y-68840879D01*
X65053410Y-68736913D01*
X64921087Y-68604590D01*
X64817121Y-68448994D01*
X64745508Y-68276105D01*
X64709000Y-68092567D01*
X64709000Y-67905433D01*
X64745508Y-67721895D01*
X64817121Y-67549006D01*
X64921087Y-67393410D01*
X65053410Y-67261087D01*
X65209006Y-67157121D01*
X65381895Y-67085508D01*
X65519549Y-67058127D01*
X65565432Y-67049000D01*
X65752568Y-67049000D01*
X65798451Y-67058127D01*
X65798451Y-67058127D01*
G37*
G36*
X42052481Y-65199855D02*
G01*
X42252118Y-65239565D01*
X42440173Y-65317460D01*
X42534201Y-65356408D01*
X42788071Y-65526038D01*
X43003962Y-65741929D01*
X43173592Y-65995799D01*
X43173592Y-65995800D01*
X43290435Y-66277882D01*
X43350000Y-66577338D01*
X43350000Y-66882662D01*
X43290435Y-67182118D01*
X43222587Y-67345916D01*
X43173592Y-67464201D01*
X43003962Y-67718071D01*
X42788071Y-67933962D01*
X42534201Y-68103592D01*
X42440173Y-68142540D01*
X42252118Y-68220435D01*
X42052481Y-68260145D01*
X41952663Y-68280000D01*
X41647337Y-68280000D01*
X41547519Y-68260145D01*
X41347882Y-68220435D01*
X41159827Y-68142540D01*
X41065799Y-68103592D01*
X40811929Y-67933962D01*
X40596038Y-67718071D01*
X40426408Y-67464201D01*
X40377413Y-67345916D01*
X40309565Y-67182118D01*
X40250000Y-66882662D01*
X40250000Y-66577338D01*
X40309565Y-66277882D01*
X40426408Y-65995800D01*
X40426408Y-65995799D01*
X40596038Y-65741929D01*
X40811929Y-65526038D01*
X41065799Y-65356408D01*
X41159827Y-65317460D01*
X41347882Y-65239565D01*
X41547519Y-65199855D01*
X41647337Y-65180000D01*
X41952663Y-65180000D01*
X42052481Y-65199855D01*
X42052481Y-65199855D01*
G37*
G36*
X113177448Y-63771257D02*
G01*
X113441349Y-63851310D01*
X113684562Y-63981310D01*
X113897739Y-64156261D01*
X114072690Y-64369438D01*
X114202690Y-64612651D01*
X114282743Y-64876552D01*
X114309774Y-65151000D01*
X114282743Y-65425448D01*
X114202690Y-65689349D01*
X114072690Y-65932562D01*
X113897739Y-66145739D01*
X113684562Y-66320690D01*
X113441349Y-66450690D01*
X113177448Y-66530743D01*
X112971777Y-66551000D01*
X112834223Y-66551000D01*
X112628552Y-66530743D01*
X112364651Y-66450690D01*
X112121438Y-66320690D01*
X111908261Y-66145739D01*
X111733310Y-65932562D01*
X111603310Y-65689349D01*
X111523257Y-65425448D01*
X111496226Y-65151000D01*
X111523257Y-64876552D01*
X111603310Y-64612651D01*
X111733310Y-64369438D01*
X111908261Y-64156261D01*
X112121438Y-63981310D01*
X112364651Y-63851310D01*
X112628552Y-63771257D01*
X112834223Y-63751000D01*
X112971777Y-63751000D01*
X113177448Y-63771257D01*
X113177448Y-63771257D01*
G37*
G36*
X107715639Y-64335916D02*
G01*
X107922986Y-64398815D01*
X107922988Y-64398816D01*
X108114084Y-64500958D01*
X108281581Y-64638419D01*
X108419042Y-64805916D01*
X108456797Y-64876552D01*
X108521185Y-64997014D01*
X108584084Y-65204361D01*
X108605322Y-65420000D01*
X108584084Y-65635639D01*
X108551841Y-65741929D01*
X108521184Y-65842988D01*
X108419042Y-66034084D01*
X108281581Y-66201581D01*
X108114084Y-66339042D01*
X107922988Y-66441184D01*
X107922986Y-66441185D01*
X107715639Y-66504084D01*
X107554038Y-66520000D01*
X107445962Y-66520000D01*
X107284361Y-66504084D01*
X107077014Y-66441185D01*
X107077012Y-66441184D01*
X106885916Y-66339042D01*
X106718419Y-66201581D01*
X106580958Y-66034084D01*
X106478816Y-65842988D01*
X106448160Y-65741929D01*
X106415916Y-65635639D01*
X106394678Y-65420000D01*
X106415916Y-65204361D01*
X106478815Y-64997014D01*
X106543203Y-64876552D01*
X106580958Y-64805916D01*
X106718419Y-64638419D01*
X106885916Y-64500958D01*
X107077012Y-64398816D01*
X107077014Y-64398815D01*
X107284361Y-64335916D01*
X107445962Y-64320000D01*
X107554038Y-64320000D01*
X107715639Y-64335916D01*
X107715639Y-64335916D01*
G37*
G36*
X104050000Y-66200000D02*
G01*
X101950000Y-66200000D01*
X101950000Y-63800000D01*
X104050000Y-63800000D01*
X104050000Y-66200000D01*
X104050000Y-66200000D01*
G37*
G36*
X65798452Y-62178127D02*
G01*
X65936105Y-62205508D01*
X66108994Y-62277121D01*
X66264590Y-62381087D01*
X66396913Y-62513410D01*
X66500879Y-62669006D01*
X66572492Y-62841895D01*
X66609000Y-63025433D01*
X66609000Y-63212567D01*
X66572492Y-63396105D01*
X66500879Y-63568994D01*
X66396913Y-63724590D01*
X66264590Y-63856913D01*
X66108994Y-63960879D01*
X65936105Y-64032492D01*
X65798451Y-64059873D01*
X65752568Y-64069000D01*
X65565432Y-64069000D01*
X65519549Y-64059873D01*
X65381895Y-64032492D01*
X65209006Y-63960879D01*
X65053410Y-63856913D01*
X64921087Y-63724590D01*
X64817121Y-63568994D01*
X64745508Y-63396105D01*
X64709000Y-63212567D01*
X64709000Y-63025433D01*
X64745508Y-62841895D01*
X64817121Y-62669006D01*
X64921087Y-62513410D01*
X65053410Y-62381087D01*
X65209006Y-62277121D01*
X65381895Y-62205508D01*
X65519548Y-62178127D01*
X65565432Y-62169000D01*
X65752568Y-62169000D01*
X65798452Y-62178127D01*
X65798452Y-62178127D01*
G37*
G36*
X56322000Y-63057000D02*
G01*
X55077000Y-63057000D01*
X55077000Y-61657000D01*
X56322000Y-61657000D01*
X56322000Y-63057000D01*
X56322000Y-63057000D01*
G37*
G36*
X54397000Y-63057000D02*
G01*
X53152000Y-63057000D01*
X53152000Y-61657000D01*
X54397000Y-61657000D01*
X54397000Y-63057000D01*
X54397000Y-63057000D01*
G37*
G36*
X115116030Y-60634469D02*
G01*
X115116033Y-60634470D01*
X115116034Y-60634470D01*
X115304535Y-60691651D01*
X115304537Y-60691652D01*
X115478260Y-60784509D01*
X115630528Y-60909472D01*
X115755491Y-61061740D01*
X115755492Y-61061742D01*
X115848349Y-61235465D01*
X115905530Y-61423966D01*
X115905531Y-61423970D01*
X115924838Y-61620000D01*
X115905531Y-61816030D01*
X115905530Y-61816033D01*
X115905530Y-61816034D01*
X115877143Y-61909615D01*
X115848348Y-62004537D01*
X115755491Y-62178260D01*
X115630528Y-62330528D01*
X115478260Y-62455491D01*
X115478258Y-62455492D01*
X115304535Y-62548349D01*
X115116034Y-62605530D01*
X115116033Y-62605530D01*
X115116030Y-62605531D01*
X114969124Y-62620000D01*
X114870876Y-62620000D01*
X114723970Y-62605531D01*
X114723967Y-62605530D01*
X114723966Y-62605530D01*
X114535465Y-62548349D01*
X114361742Y-62455492D01*
X114361740Y-62455491D01*
X114209472Y-62330528D01*
X114084509Y-62178260D01*
X113991652Y-62004537D01*
X113962858Y-61909615D01*
X113934470Y-61816034D01*
X113934470Y-61816033D01*
X113934469Y-61816030D01*
X113915162Y-61620000D01*
X113934469Y-61423970D01*
X113934470Y-61423966D01*
X113991651Y-61235465D01*
X114084508Y-61061742D01*
X114084509Y-61061740D01*
X114209472Y-60909472D01*
X114361740Y-60784509D01*
X114535463Y-60691652D01*
X114535465Y-60691651D01*
X114723966Y-60634470D01*
X114723967Y-60634470D01*
X114723970Y-60634469D01*
X114870876Y-60620000D01*
X114969124Y-60620000D01*
X115116030Y-60634469D01*
X115116030Y-60634469D01*
G37*
G36*
X120196030Y-60634469D02*
G01*
X120196033Y-60634470D01*
X120196034Y-60634470D01*
X120384535Y-60691651D01*
X120384537Y-60691652D01*
X120558260Y-60784509D01*
X120710528Y-60909472D01*
X120835491Y-61061740D01*
X120835492Y-61061742D01*
X120928349Y-61235465D01*
X120985530Y-61423966D01*
X120985531Y-61423970D01*
X121004838Y-61620000D01*
X120985531Y-61816030D01*
X120985530Y-61816033D01*
X120985530Y-61816034D01*
X120957143Y-61909615D01*
X120928348Y-62004537D01*
X120835491Y-62178260D01*
X120710528Y-62330528D01*
X120558260Y-62455491D01*
X120558258Y-62455492D01*
X120384535Y-62548349D01*
X120196034Y-62605530D01*
X120196033Y-62605530D01*
X120196030Y-62605531D01*
X120049124Y-62620000D01*
X119950876Y-62620000D01*
X119803970Y-62605531D01*
X119803967Y-62605530D01*
X119803966Y-62605530D01*
X119615465Y-62548349D01*
X119441742Y-62455492D01*
X119441740Y-62455491D01*
X119289472Y-62330528D01*
X119164509Y-62178260D01*
X119071652Y-62004537D01*
X119042858Y-61909615D01*
X119014470Y-61816034D01*
X119014470Y-61816033D01*
X119014469Y-61816030D01*
X118995162Y-61620000D01*
X119014469Y-61423970D01*
X119014470Y-61423966D01*
X119071651Y-61235465D01*
X119164508Y-61061742D01*
X119164509Y-61061740D01*
X119289472Y-60909472D01*
X119441740Y-60784509D01*
X119615463Y-60691652D01*
X119615465Y-60691651D01*
X119803966Y-60634470D01*
X119803967Y-60634470D01*
X119803970Y-60634469D01*
X119950876Y-60620000D01*
X120049124Y-60620000D01*
X120196030Y-60634469D01*
X120196030Y-60634469D01*
G37*
G36*
X117656030Y-60634469D02*
G01*
X117656033Y-60634470D01*
X117656034Y-60634470D01*
X117844535Y-60691651D01*
X117844537Y-60691652D01*
X118018260Y-60784509D01*
X118170528Y-60909472D01*
X118295491Y-61061740D01*
X118295492Y-61061742D01*
X118388349Y-61235465D01*
X118445530Y-61423966D01*
X118445531Y-61423970D01*
X118464838Y-61620000D01*
X118445531Y-61816030D01*
X118445530Y-61816033D01*
X118445530Y-61816034D01*
X118417143Y-61909615D01*
X118388348Y-62004537D01*
X118295491Y-62178260D01*
X118170528Y-62330528D01*
X118018260Y-62455491D01*
X118018258Y-62455492D01*
X117844535Y-62548349D01*
X117656034Y-62605530D01*
X117656033Y-62605530D01*
X117656030Y-62605531D01*
X117509124Y-62620000D01*
X117410876Y-62620000D01*
X117263970Y-62605531D01*
X117263967Y-62605530D01*
X117263966Y-62605530D01*
X117075465Y-62548349D01*
X116901742Y-62455492D01*
X116901740Y-62455491D01*
X116749472Y-62330528D01*
X116624509Y-62178260D01*
X116531652Y-62004537D01*
X116502858Y-61909615D01*
X116474470Y-61816034D01*
X116474470Y-61816033D01*
X116474469Y-61816030D01*
X116455162Y-61620000D01*
X116474469Y-61423970D01*
X116474470Y-61423966D01*
X116531651Y-61235465D01*
X116624508Y-61061742D01*
X116624509Y-61061740D01*
X116749472Y-60909472D01*
X116901740Y-60784509D01*
X117075463Y-60691652D01*
X117075465Y-60691651D01*
X117263966Y-60634470D01*
X117263967Y-60634470D01*
X117263970Y-60634469D01*
X117410876Y-60620000D01*
X117509124Y-60620000D01*
X117656030Y-60634469D01*
X117656030Y-60634469D01*
G37*
G36*
X46341716Y-57844544D02*
G01*
X46742090Y-58010384D01*
X47102421Y-58251150D01*
X47408850Y-58557579D01*
X47649616Y-58917910D01*
X47815456Y-59318284D01*
X47900000Y-59743317D01*
X47900000Y-60176683D01*
X47815456Y-60601716D01*
X47649616Y-61002090D01*
X47408850Y-61362421D01*
X47102421Y-61668850D01*
X46742090Y-61909616D01*
X46341716Y-62075456D01*
X45916683Y-62160000D01*
X45483317Y-62160000D01*
X45058284Y-62075456D01*
X44657910Y-61909616D01*
X44297579Y-61668850D01*
X43991150Y-61362421D01*
X43750384Y-61002090D01*
X43584544Y-60601716D01*
X43500000Y-60176683D01*
X43500000Y-59743317D01*
X43584544Y-59318284D01*
X43750384Y-58917910D01*
X43991150Y-58557579D01*
X44297579Y-58251150D01*
X44657910Y-58010384D01*
X45058284Y-57844544D01*
X45483317Y-57760000D01*
X45916683Y-57760000D01*
X46341716Y-57844544D01*
X46341716Y-57844544D01*
G37*
G36*
X61333000Y-59530000D02*
G01*
X60333000Y-59530000D01*
X60333000Y-57630000D01*
X61333000Y-57630000D01*
X61333000Y-59530000D01*
X61333000Y-59530000D01*
G37*
G36*
X60063000Y-59530000D02*
G01*
X59063000Y-59530000D01*
X59063000Y-57630000D01*
X60063000Y-57630000D01*
X60063000Y-59530000D01*
X60063000Y-59530000D01*
G37*
G36*
X58793000Y-59530000D02*
G01*
X57793000Y-59530000D01*
X57793000Y-57630000D01*
X58793000Y-57630000D01*
X58793000Y-59530000D01*
X58793000Y-59530000D01*
G37*
G36*
X57523000Y-59530000D02*
G01*
X56523000Y-59530000D01*
X56523000Y-57630000D01*
X57523000Y-57630000D01*
X57523000Y-59530000D01*
X57523000Y-59530000D01*
G37*
G36*
X56253000Y-59530000D02*
G01*
X55253000Y-59530000D01*
X55253000Y-57630000D01*
X56253000Y-57630000D01*
X56253000Y-59530000D01*
X56253000Y-59530000D01*
G37*
G36*
X54983000Y-59530000D02*
G01*
X53983000Y-59530000D01*
X53983000Y-57630000D01*
X54983000Y-57630000D01*
X54983000Y-59530000D01*
X54983000Y-59530000D01*
G37*
G36*
X53713000Y-59530000D02*
G01*
X52713000Y-59530000D01*
X52713000Y-57630000D01*
X53713000Y-57630000D01*
X53713000Y-59530000D01*
X53713000Y-59530000D01*
G37*
G36*
X52443000Y-59530000D02*
G01*
X51443000Y-59530000D01*
X51443000Y-57630000D01*
X52443000Y-57630000D01*
X52443000Y-59530000D01*
X52443000Y-59530000D01*
G37*
G36*
X64600000Y-59203000D02*
G01*
X62400000Y-59203000D01*
X62400000Y-56303000D01*
X64600000Y-56303000D01*
X64600000Y-59203000D01*
X64600000Y-59203000D01*
G37*
G36*
X85558947Y-55673722D02*
G01*
X85822833Y-55783027D01*
X86060324Y-55941713D01*
X86262287Y-56143676D01*
X86420973Y-56381167D01*
X86530278Y-56645053D01*
X86586000Y-56925186D01*
X86586000Y-57210814D01*
X86530278Y-57490947D01*
X86420973Y-57754833D01*
X86262287Y-57992324D01*
X86060324Y-58194287D01*
X85822833Y-58352973D01*
X85558947Y-58462278D01*
X85278814Y-58518000D01*
X84993186Y-58518000D01*
X84713053Y-58462278D01*
X84449167Y-58352973D01*
X84211676Y-58194287D01*
X84009713Y-57992324D01*
X83851027Y-57754833D01*
X83741722Y-57490947D01*
X83686000Y-57210814D01*
X83686000Y-56925186D01*
X83741722Y-56645053D01*
X83851027Y-56381167D01*
X84009713Y-56143676D01*
X84211676Y-55941713D01*
X84449167Y-55783027D01*
X84713053Y-55673722D01*
X84993186Y-55618000D01*
X85278814Y-55618000D01*
X85558947Y-55673722D01*
X85558947Y-55673722D01*
G37*
G36*
X97558947Y-55673722D02*
G01*
X97822833Y-55783027D01*
X98060324Y-55941713D01*
X98262287Y-56143676D01*
X98420973Y-56381167D01*
X98530278Y-56645053D01*
X98586000Y-56925186D01*
X98586000Y-57210814D01*
X98530278Y-57490947D01*
X98420973Y-57754833D01*
X98262287Y-57992324D01*
X98060324Y-58194287D01*
X97822833Y-58352973D01*
X97558947Y-58462278D01*
X97278814Y-58518000D01*
X96993186Y-58518000D01*
X96713053Y-58462278D01*
X96449167Y-58352973D01*
X96211676Y-58194287D01*
X96009713Y-57992324D01*
X95851027Y-57754833D01*
X95741722Y-57490947D01*
X95686000Y-57210814D01*
X95686000Y-56925186D01*
X95741722Y-56645053D01*
X95851027Y-56381167D01*
X96009713Y-56143676D01*
X96211676Y-55941713D01*
X96449167Y-55783027D01*
X96713053Y-55673722D01*
X96993186Y-55618000D01*
X97278814Y-55618000D01*
X97558947Y-55673722D01*
X97558947Y-55673722D01*
G37*
G36*
X91572393Y-53461553D02*
G01*
X91681872Y-53483330D01*
X91991252Y-53611479D01*
X92269687Y-53797523D01*
X92506477Y-54034313D01*
X92692521Y-54312748D01*
X92794214Y-54558258D01*
X92820670Y-54622129D01*
X92863111Y-54835491D01*
X92886000Y-54950565D01*
X92886000Y-55285435D01*
X92820670Y-55613872D01*
X92692521Y-55923252D01*
X92506477Y-56201687D01*
X92269687Y-56438477D01*
X91991252Y-56624521D01*
X91681872Y-56752670D01*
X91572393Y-56774447D01*
X91353437Y-56818000D01*
X91018563Y-56818000D01*
X90799607Y-56774447D01*
X90690128Y-56752670D01*
X90380748Y-56624521D01*
X90102313Y-56438477D01*
X89865523Y-56201687D01*
X89679479Y-55923252D01*
X89551330Y-55613872D01*
X89486000Y-55285435D01*
X89486000Y-54950565D01*
X89508890Y-54835491D01*
X89551330Y-54622129D01*
X89577786Y-54558258D01*
X89679479Y-54312748D01*
X89865523Y-54034313D01*
X90102313Y-53797523D01*
X90380748Y-53611479D01*
X90690128Y-53483330D01*
X90799607Y-53461553D01*
X91018563Y-53418000D01*
X91353437Y-53418000D01*
X91572393Y-53461553D01*
X91572393Y-53461553D01*
G37*
G36*
X64600000Y-55203000D02*
G01*
X62400000Y-55203000D01*
X62400000Y-52303000D01*
X64600000Y-52303000D01*
X64600000Y-55203000D01*
X64600000Y-55203000D01*
G37*
G36*
X117656030Y-53014469D02*
G01*
X117656033Y-53014470D01*
X117656034Y-53014470D01*
X117844535Y-53071651D01*
X117844537Y-53071652D01*
X118018260Y-53164509D01*
X118170528Y-53289472D01*
X118295491Y-53441740D01*
X118388348Y-53615463D01*
X118388349Y-53615465D01*
X118443576Y-53797526D01*
X118445531Y-53803970D01*
X118464838Y-54000000D01*
X118445531Y-54196030D01*
X118445530Y-54196033D01*
X118445530Y-54196034D01*
X118410125Y-54312750D01*
X118388348Y-54384537D01*
X118295491Y-54558260D01*
X118170528Y-54710528D01*
X118018260Y-54835491D01*
X118018258Y-54835492D01*
X117844535Y-54928349D01*
X117656034Y-54985530D01*
X117656033Y-54985530D01*
X117656030Y-54985531D01*
X117509124Y-55000000D01*
X117410876Y-55000000D01*
X117263970Y-54985531D01*
X117263967Y-54985530D01*
X117263966Y-54985530D01*
X117075465Y-54928349D01*
X116901742Y-54835492D01*
X116901740Y-54835491D01*
X116749472Y-54710528D01*
X116624509Y-54558260D01*
X116531652Y-54384537D01*
X116509876Y-54312750D01*
X116474470Y-54196034D01*
X116474470Y-54196033D01*
X116474469Y-54196030D01*
X116455162Y-54000000D01*
X116474469Y-53803970D01*
X116476424Y-53797526D01*
X116531651Y-53615465D01*
X116531652Y-53615463D01*
X116624509Y-53441740D01*
X116749472Y-53289472D01*
X116901740Y-53164509D01*
X117075463Y-53071652D01*
X117075465Y-53071651D01*
X117263966Y-53014470D01*
X117263967Y-53014470D01*
X117263970Y-53014469D01*
X117410876Y-53000000D01*
X117509124Y-53000000D01*
X117656030Y-53014469D01*
X117656030Y-53014469D01*
G37*
G36*
X115116030Y-53014469D02*
G01*
X115116033Y-53014470D01*
X115116034Y-53014470D01*
X115304535Y-53071651D01*
X115304537Y-53071652D01*
X115478260Y-53164509D01*
X115630528Y-53289472D01*
X115755491Y-53441740D01*
X115848348Y-53615463D01*
X115848349Y-53615465D01*
X115903576Y-53797526D01*
X115905531Y-53803970D01*
X115924838Y-54000000D01*
X115905531Y-54196030D01*
X115905530Y-54196033D01*
X115905530Y-54196034D01*
X115870125Y-54312750D01*
X115848348Y-54384537D01*
X115755491Y-54558260D01*
X115630528Y-54710528D01*
X115478260Y-54835491D01*
X115478258Y-54835492D01*
X115304535Y-54928349D01*
X115116034Y-54985530D01*
X115116033Y-54985530D01*
X115116030Y-54985531D01*
X114969124Y-55000000D01*
X114870876Y-55000000D01*
X114723970Y-54985531D01*
X114723967Y-54985530D01*
X114723966Y-54985530D01*
X114535465Y-54928349D01*
X114361742Y-54835492D01*
X114361740Y-54835491D01*
X114209472Y-54710528D01*
X114084509Y-54558260D01*
X113991652Y-54384537D01*
X113969876Y-54312750D01*
X113934470Y-54196034D01*
X113934470Y-54196033D01*
X113934469Y-54196030D01*
X113915162Y-54000000D01*
X113934469Y-53803970D01*
X113936424Y-53797526D01*
X113991651Y-53615465D01*
X113991652Y-53615463D01*
X114084509Y-53441740D01*
X114209472Y-53289472D01*
X114361740Y-53164509D01*
X114535463Y-53071652D01*
X114535465Y-53071651D01*
X114723966Y-53014470D01*
X114723967Y-53014470D01*
X114723970Y-53014469D01*
X114870876Y-53000000D01*
X114969124Y-53000000D01*
X115116030Y-53014469D01*
X115116030Y-53014469D01*
G37*
G36*
X121000000Y-55000000D02*
G01*
X119000000Y-55000000D01*
X119000000Y-53000000D01*
X121000000Y-53000000D01*
X121000000Y-55000000D01*
X121000000Y-55000000D01*
G37*
G36*
X52443000Y-54130000D02*
G01*
X51443000Y-54130000D01*
X51443000Y-52230000D01*
X52443000Y-52230000D01*
X52443000Y-54130000D01*
X52443000Y-54130000D01*
G37*
G36*
X58793000Y-54130000D02*
G01*
X57793000Y-54130000D01*
X57793000Y-52230000D01*
X58793000Y-52230000D01*
X58793000Y-54130000D01*
X58793000Y-54130000D01*
G37*
G36*
X53713000Y-54130000D02*
G01*
X52713000Y-54130000D01*
X52713000Y-52230000D01*
X53713000Y-52230000D01*
X53713000Y-54130000D01*
X53713000Y-54130000D01*
G37*
G36*
X54983000Y-54130000D02*
G01*
X53983000Y-54130000D01*
X53983000Y-52230000D01*
X54983000Y-52230000D01*
X54983000Y-54130000D01*
X54983000Y-54130000D01*
G37*
G36*
X57523000Y-54130000D02*
G01*
X56523000Y-54130000D01*
X56523000Y-52230000D01*
X57523000Y-52230000D01*
X57523000Y-54130000D01*
X57523000Y-54130000D01*
G37*
G36*
X61333000Y-54130000D02*
G01*
X60333000Y-54130000D01*
X60333000Y-52230000D01*
X61333000Y-52230000D01*
X61333000Y-54130000D01*
X61333000Y-54130000D01*
G37*
G36*
X60063000Y-54130000D02*
G01*
X59063000Y-54130000D01*
X59063000Y-52230000D01*
X60063000Y-52230000D01*
X60063000Y-54130000D01*
X60063000Y-54130000D01*
G37*
G36*
X56253000Y-54130000D02*
G01*
X55253000Y-54130000D01*
X55253000Y-52230000D01*
X56253000Y-52230000D01*
X56253000Y-54130000D01*
X56253000Y-54130000D01*
G37*
G36*
X47000000Y-54000000D02*
G01*
X45000000Y-54000000D01*
X45000000Y-52000000D01*
X47000000Y-52000000D01*
X47000000Y-54000000D01*
X47000000Y-54000000D01*
G37*
G36*
X43335770Y-50630372D02*
G01*
X43451689Y-50653429D01*
X43633678Y-50728811D01*
X43797463Y-50838249D01*
X43936751Y-50977537D01*
X44046189Y-51141322D01*
X44121571Y-51323311D01*
X44160000Y-51516509D01*
X44160000Y-51713491D01*
X44121571Y-51906689D01*
X44046189Y-52088678D01*
X43936751Y-52252463D01*
X43797463Y-52391751D01*
X43633678Y-52501189D01*
X43451689Y-52576571D01*
X43335770Y-52599628D01*
X43258493Y-52615000D01*
X43061507Y-52615000D01*
X42984230Y-52599628D01*
X42868311Y-52576571D01*
X42686322Y-52501189D01*
X42522537Y-52391751D01*
X42383249Y-52252463D01*
X42273811Y-52088678D01*
X42198429Y-51906689D01*
X42160000Y-51713491D01*
X42160000Y-51516509D01*
X42198429Y-51323311D01*
X42273811Y-51141322D01*
X42383249Y-50977537D01*
X42522537Y-50838249D01*
X42686322Y-50728811D01*
X42868311Y-50653429D01*
X42984230Y-50630372D01*
X43061507Y-50615000D01*
X43258493Y-50615000D01*
X43335770Y-50630372D01*
X43335770Y-50630372D01*
G37*
G36*
X46175770Y-49245372D02*
G01*
X46291689Y-49268429D01*
X46473678Y-49343811D01*
X46637463Y-49453249D01*
X46776751Y-49592537D01*
X46886189Y-49756322D01*
X46961571Y-49938311D01*
X47000000Y-50131509D01*
X47000000Y-50328491D01*
X46961571Y-50521689D01*
X46886189Y-50703678D01*
X46776751Y-50867463D01*
X46637463Y-51006751D01*
X46473678Y-51116189D01*
X46291689Y-51191571D01*
X46175770Y-51214628D01*
X46098493Y-51230000D01*
X45901507Y-51230000D01*
X45824230Y-51214628D01*
X45708311Y-51191571D01*
X45526322Y-51116189D01*
X45362537Y-51006751D01*
X45223249Y-50867463D01*
X45113811Y-50703678D01*
X45038429Y-50521689D01*
X45000000Y-50328491D01*
X45000000Y-50131509D01*
X45038429Y-49938311D01*
X45113811Y-49756322D01*
X45223249Y-49592537D01*
X45362537Y-49453249D01*
X45526322Y-49343811D01*
X45708311Y-49268429D01*
X45824230Y-49245372D01*
X45901507Y-49230000D01*
X46098493Y-49230000D01*
X46175770Y-49245372D01*
X46175770Y-49245372D01*
G37*
G36*
X114382626Y-48156900D02*
G01*
X114517865Y-48183801D01*
X114772649Y-48289336D01*
X114790105Y-48301000D01*
X115001951Y-48442551D01*
X115196949Y-48637549D01*
X115196951Y-48637552D01*
X115269753Y-48746507D01*
X115350165Y-48866853D01*
X115381075Y-48941477D01*
X115428647Y-49056325D01*
X115455699Y-49121636D01*
X115509500Y-49392111D01*
X115509500Y-49667889D01*
X115491909Y-49756325D01*
X115455699Y-49938365D01*
X115428645Y-50003678D01*
X115360804Y-50167463D01*
X115350164Y-50193149D01*
X115274260Y-50306747D01*
X115196949Y-50422451D01*
X115001951Y-50617449D01*
X115001948Y-50617451D01*
X114772649Y-50770664D01*
X114517865Y-50876199D01*
X114382627Y-50903099D01*
X114247389Y-50930000D01*
X113971611Y-50930000D01*
X113836373Y-50903099D01*
X113701135Y-50876199D01*
X113446351Y-50770664D01*
X113217052Y-50617451D01*
X113217049Y-50617449D01*
X113022051Y-50422451D01*
X112944740Y-50306747D01*
X112868836Y-50193149D01*
X112858197Y-50167463D01*
X112790355Y-50003678D01*
X112763301Y-49938365D01*
X112727091Y-49756325D01*
X112709500Y-49667889D01*
X112709500Y-49392111D01*
X112763301Y-49121636D01*
X112790354Y-49056325D01*
X112837925Y-48941477D01*
X112868835Y-48866853D01*
X112949248Y-48746507D01*
X113022049Y-48637552D01*
X113022051Y-48637549D01*
X113217049Y-48442551D01*
X113428895Y-48301000D01*
X113446351Y-48289336D01*
X113701135Y-48183801D01*
X113836374Y-48156900D01*
X113971611Y-48130000D01*
X114247389Y-48130000D01*
X114382626Y-48156900D01*
X114382626Y-48156900D01*
G37*
G36*
X122032270Y-48545372D02*
G01*
X122148189Y-48568429D01*
X122330178Y-48643811D01*
X122493963Y-48753249D01*
X122633251Y-48892537D01*
X122742689Y-49056322D01*
X122818071Y-49238311D01*
X122834056Y-49318675D01*
X122856500Y-49431507D01*
X122856500Y-49628493D01*
X122841128Y-49705770D01*
X122818071Y-49821689D01*
X122742689Y-50003678D01*
X122633251Y-50167463D01*
X122493963Y-50306751D01*
X122330178Y-50416189D01*
X122148189Y-50491571D01*
X122032270Y-50514628D01*
X121954993Y-50530000D01*
X121758007Y-50530000D01*
X121680730Y-50514628D01*
X121564811Y-50491571D01*
X121382822Y-50416189D01*
X121219037Y-50306751D01*
X121079749Y-50167463D01*
X120970311Y-50003678D01*
X120894929Y-49821689D01*
X120871872Y-49705770D01*
X120856500Y-49628493D01*
X120856500Y-49431507D01*
X120878944Y-49318675D01*
X120894929Y-49238311D01*
X120970311Y-49056322D01*
X121079749Y-48892537D01*
X121219037Y-48753249D01*
X121382822Y-48643811D01*
X121564811Y-48568429D01*
X121680730Y-48545372D01*
X121758007Y-48530000D01*
X121954993Y-48530000D01*
X122032270Y-48545372D01*
X122032270Y-48545372D01*
G37*
G36*
X117032270Y-48545372D02*
G01*
X117148189Y-48568429D01*
X117330178Y-48643811D01*
X117493963Y-48753249D01*
X117633251Y-48892537D01*
X117742689Y-49056322D01*
X117818071Y-49238311D01*
X117834056Y-49318675D01*
X117856500Y-49431507D01*
X117856500Y-49628493D01*
X117841128Y-49705770D01*
X117818071Y-49821689D01*
X117742689Y-50003678D01*
X117633251Y-50167463D01*
X117493963Y-50306751D01*
X117330178Y-50416189D01*
X117148189Y-50491571D01*
X117032270Y-50514628D01*
X116954993Y-50530000D01*
X116758007Y-50530000D01*
X116680730Y-50514628D01*
X116564811Y-50491571D01*
X116382822Y-50416189D01*
X116219037Y-50306751D01*
X116079749Y-50167463D01*
X115970311Y-50003678D01*
X115894929Y-49821689D01*
X115871872Y-49705770D01*
X115856500Y-49628493D01*
X115856500Y-49431507D01*
X115878944Y-49318675D01*
X115894929Y-49238311D01*
X115970311Y-49056322D01*
X116079749Y-48892537D01*
X116219037Y-48753249D01*
X116382822Y-48643811D01*
X116564811Y-48568429D01*
X116680730Y-48545372D01*
X116758007Y-48530000D01*
X116954993Y-48530000D01*
X117032270Y-48545372D01*
X117032270Y-48545372D01*
G37*
G36*
X63946000Y-50226000D02*
G01*
X62546000Y-50226000D01*
X62546000Y-48981000D01*
X63946000Y-48981000D01*
X63946000Y-50226000D01*
X63946000Y-50226000D01*
G37*
G36*
X43335770Y-47860372D02*
G01*
X43451689Y-47883429D01*
X43633678Y-47958811D01*
X43797463Y-48068249D01*
X43936751Y-48207537D01*
X44046189Y-48371322D01*
X44121571Y-48553311D01*
X44160000Y-48746509D01*
X44160000Y-48943491D01*
X44121571Y-49136689D01*
X44046189Y-49318678D01*
X43936751Y-49482463D01*
X43797463Y-49621751D01*
X43633678Y-49731189D01*
X43451689Y-49806571D01*
X43335770Y-49829628D01*
X43258493Y-49845000D01*
X43061507Y-49845000D01*
X42984230Y-49829628D01*
X42868311Y-49806571D01*
X42686322Y-49731189D01*
X42522537Y-49621751D01*
X42383249Y-49482463D01*
X42273811Y-49318678D01*
X42198429Y-49136689D01*
X42160000Y-48943491D01*
X42160000Y-48746509D01*
X42198429Y-48553311D01*
X42273811Y-48371322D01*
X42383249Y-48207537D01*
X42522537Y-48068249D01*
X42686322Y-47958811D01*
X42868311Y-47883429D01*
X42984230Y-47860372D01*
X43061507Y-47845000D01*
X43258493Y-47845000D01*
X43335770Y-47860372D01*
X43335770Y-47860372D01*
G37*
G36*
X62291000Y-49341000D02*
G01*
X61046000Y-49341000D01*
X61046000Y-47941000D01*
X62291000Y-47941000D01*
X62291000Y-49341000D01*
X62291000Y-49341000D01*
G37*
G36*
X60366000Y-49341000D02*
G01*
X59121000Y-49341000D01*
X59121000Y-47941000D01*
X60366000Y-47941000D01*
X60366000Y-49341000D01*
X60366000Y-49341000D01*
G37*
G36*
X46175770Y-46475372D02*
G01*
X46291689Y-46498429D01*
X46473678Y-46573811D01*
X46637463Y-46683249D01*
X46776751Y-46822537D01*
X46886189Y-46986322D01*
X46961571Y-47168311D01*
X47000000Y-47361509D01*
X47000000Y-47558491D01*
X46961571Y-47751689D01*
X46886189Y-47933678D01*
X46776751Y-48097463D01*
X46637463Y-48236751D01*
X46473678Y-48346189D01*
X46291689Y-48421571D01*
X46186224Y-48442549D01*
X46098493Y-48460000D01*
X45901507Y-48460000D01*
X45813776Y-48442549D01*
X45708311Y-48421571D01*
X45526322Y-48346189D01*
X45362537Y-48236751D01*
X45223249Y-48097463D01*
X45113811Y-47933678D01*
X45038429Y-47751689D01*
X45000000Y-47558491D01*
X45000000Y-47361509D01*
X45038429Y-47168311D01*
X45113811Y-46986322D01*
X45223249Y-46822537D01*
X45362537Y-46683249D01*
X45526322Y-46573811D01*
X45708311Y-46498429D01*
X45824230Y-46475372D01*
X45901507Y-46460000D01*
X46098493Y-46460000D01*
X46175770Y-46475372D01*
X46175770Y-46475372D01*
G37*
G36*
X63946000Y-48301000D02*
G01*
X62546000Y-48301000D01*
X62546000Y-47056000D01*
X63946000Y-47056000D01*
X63946000Y-48301000D01*
X63946000Y-48301000D01*
G37*
G36*
X88834867Y-44733277D02*
G01*
X88970872Y-44760330D01*
X89280252Y-44888479D01*
X89558687Y-45074523D01*
X89795477Y-45311313D01*
X89981521Y-45589748D01*
X90109670Y-45899128D01*
X90109670Y-45899129D01*
X90175000Y-46227563D01*
X90175000Y-46562437D01*
X90156986Y-46653000D01*
X90109670Y-46890872D01*
X89981521Y-47200252D01*
X89795477Y-47478687D01*
X89558687Y-47715477D01*
X89280252Y-47901521D01*
X88970872Y-48029670D01*
X88861393Y-48051447D01*
X88642437Y-48095000D01*
X88307563Y-48095000D01*
X88088607Y-48051447D01*
X87979128Y-48029670D01*
X87669748Y-47901521D01*
X87391313Y-47715477D01*
X87154523Y-47478687D01*
X86968479Y-47200252D01*
X86840330Y-46890872D01*
X86793014Y-46653000D01*
X86775000Y-46562437D01*
X86775000Y-46227563D01*
X86840330Y-45899129D01*
X86840330Y-45899128D01*
X86968479Y-45589748D01*
X87154523Y-45311313D01*
X87391313Y-45074523D01*
X87669748Y-44888479D01*
X87979128Y-44760330D01*
X88115133Y-44733277D01*
X88307563Y-44695000D01*
X88642437Y-44695000D01*
X88834867Y-44733277D01*
X88834867Y-44733277D01*
G37*
G36*
X76811393Y-44688553D02*
G01*
X76920872Y-44710330D01*
X77230252Y-44838479D01*
X77508687Y-45024523D01*
X77745477Y-45261313D01*
X77931521Y-45539748D01*
X78059670Y-45849128D01*
X78069616Y-45899129D01*
X78125000Y-46177563D01*
X78125000Y-46512437D01*
X78081447Y-46731393D01*
X78059670Y-46840872D01*
X77931521Y-47150252D01*
X77745477Y-47428687D01*
X77508687Y-47665477D01*
X77230252Y-47851521D01*
X76920872Y-47979670D01*
X76811393Y-48001447D01*
X76592437Y-48045000D01*
X76257563Y-48045000D01*
X76038607Y-48001447D01*
X75929128Y-47979670D01*
X75619748Y-47851521D01*
X75341313Y-47665477D01*
X75104523Y-47428687D01*
X74918479Y-47150252D01*
X74790330Y-46840872D01*
X74768553Y-46731393D01*
X74725000Y-46512437D01*
X74725000Y-46177563D01*
X74780384Y-45899129D01*
X74790330Y-45849128D01*
X74918479Y-45539748D01*
X75104523Y-45261313D01*
X75341313Y-45024523D01*
X75619748Y-44838479D01*
X75929128Y-44710330D01*
X76038607Y-44688553D01*
X76257563Y-44645000D01*
X76592437Y-44645000D01*
X76811393Y-44688553D01*
X76811393Y-44688553D01*
G37*
G36*
X43335770Y-45090372D02*
G01*
X43451689Y-45113429D01*
X43633678Y-45188811D01*
X43797463Y-45298249D01*
X43936751Y-45437537D01*
X44046189Y-45601322D01*
X44121571Y-45783311D01*
X44160000Y-45976509D01*
X44160000Y-46173491D01*
X44121571Y-46366689D01*
X44046189Y-46548678D01*
X43936751Y-46712463D01*
X43797463Y-46851751D01*
X43633678Y-46961189D01*
X43451689Y-47036571D01*
X43335770Y-47059628D01*
X43258493Y-47075000D01*
X43061507Y-47075000D01*
X42984230Y-47059628D01*
X42868311Y-47036571D01*
X42686322Y-46961189D01*
X42522537Y-46851751D01*
X42383249Y-46712463D01*
X42273811Y-46548678D01*
X42198429Y-46366689D01*
X42160000Y-46173491D01*
X42160000Y-45976509D01*
X42198429Y-45783311D01*
X42273811Y-45601322D01*
X42383249Y-45437537D01*
X42522537Y-45298249D01*
X42686322Y-45188811D01*
X42868311Y-45113429D01*
X42984230Y-45090372D01*
X43061507Y-45075000D01*
X43258493Y-45075000D01*
X43335770Y-45090372D01*
X43335770Y-45090372D01*
G37*
G36*
X63523000Y-46653000D02*
G01*
X56873000Y-46653000D01*
X56873000Y-45253000D01*
X63523000Y-45253000D01*
X63523000Y-46653000D01*
X63523000Y-46653000D01*
G37*
G36*
X46175770Y-43705372D02*
G01*
X46291689Y-43728429D01*
X46473678Y-43803811D01*
X46637463Y-43913249D01*
X46776751Y-44052537D01*
X46886189Y-44216322D01*
X46961571Y-44398311D01*
X47000000Y-44591509D01*
X47000000Y-44788491D01*
X46961571Y-44981689D01*
X46886189Y-45163678D01*
X46776751Y-45327463D01*
X46637463Y-45466751D01*
X46473678Y-45576189D01*
X46291689Y-45651571D01*
X46185058Y-45672781D01*
X46098493Y-45690000D01*
X45901507Y-45690000D01*
X45814942Y-45672781D01*
X45708311Y-45651571D01*
X45526322Y-45576189D01*
X45362537Y-45466751D01*
X45223249Y-45327463D01*
X45113811Y-45163678D01*
X45038429Y-44981689D01*
X45000000Y-44788491D01*
X45000000Y-44591509D01*
X45038429Y-44398311D01*
X45113811Y-44216322D01*
X45223249Y-44052537D01*
X45362537Y-43913249D01*
X45526322Y-43803811D01*
X45708311Y-43728429D01*
X45824230Y-43705372D01*
X45901507Y-43690000D01*
X46098493Y-43690000D01*
X46175770Y-43705372D01*
X46175770Y-43705372D01*
G37*
G36*
X118583418Y-43313444D02*
G01*
X118723281Y-43327219D01*
X118947596Y-43395265D01*
X119154327Y-43505764D01*
X119335528Y-43654472D01*
X119484236Y-43835673D01*
X119594735Y-44042404D01*
X119662781Y-44266719D01*
X119685757Y-44500000D01*
X119662781Y-44733281D01*
X119594735Y-44957596D01*
X119484236Y-45164327D01*
X119335528Y-45345528D01*
X119154327Y-45494236D01*
X118947596Y-45604735D01*
X118723281Y-45672781D01*
X118583418Y-45686556D01*
X118548453Y-45690000D01*
X116451547Y-45690000D01*
X116416582Y-45686556D01*
X116276719Y-45672781D01*
X116052404Y-45604735D01*
X115845673Y-45494236D01*
X115664472Y-45345528D01*
X115515764Y-45164327D01*
X115405265Y-44957596D01*
X115337219Y-44733281D01*
X115314243Y-44500000D01*
X115337219Y-44266719D01*
X115405265Y-44042404D01*
X115515764Y-43835673D01*
X115664472Y-43654472D01*
X115845673Y-43505764D01*
X116052404Y-43395265D01*
X116276719Y-43327219D01*
X116416582Y-43313444D01*
X116451547Y-43310000D01*
X118548453Y-43310000D01*
X118583418Y-43313444D01*
X118583418Y-43313444D01*
G37*
G36*
X54925000Y-45277000D02*
G01*
X53680000Y-45277000D01*
X53680000Y-43877000D01*
X54925000Y-43877000D01*
X54925000Y-45277000D01*
X54925000Y-45277000D01*
G37*
G36*
X53000000Y-45277000D02*
G01*
X51755000Y-45277000D01*
X51755000Y-43877000D01*
X53000000Y-43877000D01*
X53000000Y-45277000D01*
X53000000Y-45277000D01*
G37*
G36*
X43335770Y-42320372D02*
G01*
X43451689Y-42343429D01*
X43633678Y-42418811D01*
X43797463Y-42528249D01*
X43936751Y-42667537D01*
X44046189Y-42831322D01*
X44121571Y-43013311D01*
X44144628Y-43129230D01*
X44158706Y-43200000D01*
X44160000Y-43206509D01*
X44160000Y-43403491D01*
X44121571Y-43596689D01*
X44046189Y-43778678D01*
X43936751Y-43942463D01*
X43797463Y-44081751D01*
X43633678Y-44191189D01*
X43451689Y-44266571D01*
X43335770Y-44289628D01*
X43258493Y-44305000D01*
X43061507Y-44305000D01*
X42984230Y-44289628D01*
X42868311Y-44266571D01*
X42686322Y-44191189D01*
X42522537Y-44081751D01*
X42383249Y-43942463D01*
X42273811Y-43778678D01*
X42198429Y-43596689D01*
X42160000Y-43403491D01*
X42160000Y-43206509D01*
X42161295Y-43200000D01*
X42175372Y-43129230D01*
X42198429Y-43013311D01*
X42273811Y-42831322D01*
X42383249Y-42667537D01*
X42522537Y-42528249D01*
X42686322Y-42418811D01*
X42868311Y-42343429D01*
X42984230Y-42320372D01*
X43061507Y-42305000D01*
X43258493Y-42305000D01*
X43335770Y-42320372D01*
X43335770Y-42320372D01*
G37*
G36*
X100541000Y-44153000D02*
G01*
X98341000Y-44153000D01*
X98341000Y-41953000D01*
X100541000Y-41953000D01*
X100541000Y-44153000D01*
X100541000Y-44153000D01*
G37*
G36*
X96050000Y-43200000D02*
G01*
X93950000Y-43200000D01*
X93950000Y-40800000D01*
X96050000Y-40800000D01*
X96050000Y-43200000D01*
X96050000Y-43200000D01*
G37*
G36*
X46175770Y-40935372D02*
G01*
X46291689Y-40958429D01*
X46473678Y-41033811D01*
X46637463Y-41143249D01*
X46776751Y-41282537D01*
X46886189Y-41446322D01*
X46961571Y-41628311D01*
X47000000Y-41821509D01*
X47000000Y-42018491D01*
X46961571Y-42211689D01*
X46886189Y-42393678D01*
X46776751Y-42557463D01*
X46637463Y-42696751D01*
X46473678Y-42806189D01*
X46291689Y-42881571D01*
X46175770Y-42904628D01*
X46098493Y-42920000D01*
X45901507Y-42920000D01*
X45824230Y-42904628D01*
X45708311Y-42881571D01*
X45526322Y-42806189D01*
X45362537Y-42696751D01*
X45223249Y-42557463D01*
X45113811Y-42393678D01*
X45038429Y-42211689D01*
X45000000Y-42018491D01*
X45000000Y-41821509D01*
X45038429Y-41628311D01*
X45113811Y-41446322D01*
X45223249Y-41282537D01*
X45362537Y-41143249D01*
X45526322Y-41033811D01*
X45708311Y-40958429D01*
X45824230Y-40935372D01*
X45901507Y-40920000D01*
X46098493Y-40920000D01*
X46175770Y-40935372D01*
X46175770Y-40935372D01*
G37*
G36*
X99656639Y-39428916D02*
G01*
X99863986Y-39491815D01*
X99863988Y-39491816D01*
X100055084Y-39593958D01*
X100222581Y-39731419D01*
X100360042Y-39898916D01*
X100462184Y-40090012D01*
X100462185Y-40090014D01*
X100525084Y-40297361D01*
X100546322Y-40513000D01*
X100525084Y-40728639D01*
X100503437Y-40800000D01*
X100462184Y-40935988D01*
X100360042Y-41127084D01*
X100222581Y-41294581D01*
X100055084Y-41432042D01*
X99863988Y-41534184D01*
X99863986Y-41534185D01*
X99656639Y-41597084D01*
X99495038Y-41613000D01*
X99386962Y-41613000D01*
X99225361Y-41597084D01*
X99018014Y-41534185D01*
X99018012Y-41534184D01*
X98826916Y-41432042D01*
X98659419Y-41294581D01*
X98521958Y-41127084D01*
X98419816Y-40935988D01*
X98378564Y-40800000D01*
X98356916Y-40728639D01*
X98335678Y-40513000D01*
X98356916Y-40297361D01*
X98419815Y-40090014D01*
X98419816Y-40090012D01*
X98521958Y-39898916D01*
X98659419Y-39731419D01*
X98826916Y-39593958D01*
X99018012Y-39491816D01*
X99018014Y-39491815D01*
X99225361Y-39428916D01*
X99386962Y-39413000D01*
X99495038Y-39413000D01*
X99656639Y-39428916D01*
X99656639Y-39428916D01*
G37*
G36*
X63523000Y-40853000D02*
G01*
X56873000Y-40853000D01*
X56873000Y-39453000D01*
X63523000Y-39453000D01*
X63523000Y-40853000D01*
X63523000Y-40853000D01*
G37*
G36*
X118583418Y-38313444D02*
G01*
X118723281Y-38327219D01*
X118947596Y-38395265D01*
X119154327Y-38505764D01*
X119335528Y-38654472D01*
X119484236Y-38835673D01*
X119594735Y-39042404D01*
X119662781Y-39266719D01*
X119685757Y-39500000D01*
X119662781Y-39733281D01*
X119594735Y-39957596D01*
X119484236Y-40164327D01*
X119335528Y-40345528D01*
X119154327Y-40494236D01*
X118947596Y-40604735D01*
X118723281Y-40672781D01*
X118583418Y-40686556D01*
X118548453Y-40690000D01*
X116451547Y-40690000D01*
X116416582Y-40686556D01*
X116276719Y-40672781D01*
X116052404Y-40604735D01*
X115845673Y-40494236D01*
X115664472Y-40345528D01*
X115515764Y-40164327D01*
X115405265Y-39957596D01*
X115337219Y-39733281D01*
X115314243Y-39500000D01*
X115337219Y-39266719D01*
X115405265Y-39042404D01*
X115515764Y-38835673D01*
X115664472Y-38654472D01*
X115845673Y-38505764D01*
X116052404Y-38395265D01*
X116276719Y-38327219D01*
X116416582Y-38313444D01*
X116451547Y-38310000D01*
X118548453Y-38310000D01*
X118583418Y-38313444D01*
X118583418Y-38313444D01*
G37*
G36*
X96050000Y-39200000D02*
G01*
X93950000Y-39200000D01*
X93950000Y-36800000D01*
X96050000Y-36800000D01*
X96050000Y-39200000D01*
X96050000Y-39200000D01*
G37*
G36*
X99656639Y-36888916D02*
G01*
X99863986Y-36951815D01*
X99863988Y-36951816D01*
X100055084Y-37053958D01*
X100222581Y-37191419D01*
X100360042Y-37358916D01*
X100462184Y-37550012D01*
X100462185Y-37550014D01*
X100525084Y-37757361D01*
X100546322Y-37973000D01*
X100525084Y-38188639D01*
X100462404Y-38395265D01*
X100462184Y-38395988D01*
X100360042Y-38587084D01*
X100222581Y-38754581D01*
X100055084Y-38892042D01*
X99863988Y-38994184D01*
X99863986Y-38994185D01*
X99656639Y-39057084D01*
X99495038Y-39073000D01*
X99386962Y-39073000D01*
X99225361Y-39057084D01*
X99018014Y-38994185D01*
X99018012Y-38994184D01*
X98826916Y-38892042D01*
X98659419Y-38754581D01*
X98521958Y-38587084D01*
X98419816Y-38395988D01*
X98419597Y-38395265D01*
X98356916Y-38188639D01*
X98335678Y-37973000D01*
X98356916Y-37757361D01*
X98419815Y-37550014D01*
X98419816Y-37550012D01*
X98521958Y-37358916D01*
X98659419Y-37191419D01*
X98826916Y-37053958D01*
X99018012Y-36951816D01*
X99018014Y-36951815D01*
X99225361Y-36888916D01*
X99386962Y-36873000D01*
X99495038Y-36873000D01*
X99656639Y-36888916D01*
X99656639Y-36888916D01*
G37*
G36*
X57977000Y-38161000D02*
G01*
X56577000Y-38161000D01*
X56577000Y-36916000D01*
X57977000Y-36916000D01*
X57977000Y-38161000D01*
X57977000Y-38161000D01*
G37*
G36*
X46341716Y-32844544D02*
G01*
X46742090Y-33010384D01*
X47102421Y-33251150D01*
X47408850Y-33557579D01*
X47649616Y-33917910D01*
X47815456Y-34318284D01*
X47900000Y-34743317D01*
X47900000Y-35176683D01*
X47815456Y-35601716D01*
X47649616Y-36002090D01*
X47408850Y-36362421D01*
X47102421Y-36668850D01*
X46742090Y-36909616D01*
X46341716Y-37075456D01*
X45916683Y-37160000D01*
X45483317Y-37160000D01*
X45058284Y-37075456D01*
X44657910Y-36909616D01*
X44297579Y-36668850D01*
X43991150Y-36362421D01*
X43750384Y-36002090D01*
X43584544Y-35601716D01*
X43500000Y-35176683D01*
X43500000Y-34743317D01*
X43584544Y-34318284D01*
X43750384Y-33917910D01*
X43991150Y-33557579D01*
X44297579Y-33251150D01*
X44657910Y-33010384D01*
X45058284Y-32844544D01*
X45483317Y-32760000D01*
X45916683Y-32760000D01*
X46341716Y-32844544D01*
X46341716Y-32844544D01*
G37*
G36*
X57977000Y-36236000D02*
G01*
X56577000Y-36236000D01*
X56577000Y-34991000D01*
X57977000Y-34991000D01*
X57977000Y-36236000D01*
X57977000Y-36236000D01*
G37*
G36*
X119680000Y-35690000D02*
G01*
X115320000Y-35690000D01*
X115320000Y-33310000D01*
X119680000Y-33310000D01*
X119680000Y-35690000D01*
X119680000Y-35690000D01*
G37*
G36*
X60263000Y-35621000D02*
G01*
X58863000Y-35621000D01*
X58863000Y-34376000D01*
X60263000Y-34376000D01*
X60263000Y-35621000D01*
X60263000Y-35621000D01*
G37*
G36*
X88847947Y-32750722D02*
G01*
X89111833Y-32860027D01*
X89349324Y-33018713D01*
X89551287Y-33220676D01*
X89709973Y-33458167D01*
X89819278Y-33722053D01*
X89875000Y-34002186D01*
X89875000Y-34287814D01*
X89819278Y-34567947D01*
X89709973Y-34831833D01*
X89551287Y-35069324D01*
X89349324Y-35271287D01*
X89111833Y-35429973D01*
X88847947Y-35539278D01*
X88567814Y-35595000D01*
X88282186Y-35595000D01*
X88002053Y-35539278D01*
X87738167Y-35429973D01*
X87500676Y-35271287D01*
X87298713Y-35069324D01*
X87140027Y-34831833D01*
X87030722Y-34567947D01*
X86975000Y-34287814D01*
X86975000Y-34002186D01*
X87030722Y-33722053D01*
X87140027Y-33458167D01*
X87298713Y-33220676D01*
X87500676Y-33018713D01*
X87738167Y-32860027D01*
X88002053Y-32750722D01*
X88282186Y-32695000D01*
X88567814Y-32695000D01*
X88847947Y-32750722D01*
X88847947Y-32750722D01*
G37*
G36*
X76847947Y-32750722D02*
G01*
X77111833Y-32860027D01*
X77349324Y-33018713D01*
X77551287Y-33220676D01*
X77709973Y-33458167D01*
X77819278Y-33722053D01*
X77875000Y-34002186D01*
X77875000Y-34287814D01*
X77819278Y-34567947D01*
X77709973Y-34831833D01*
X77551287Y-35069324D01*
X77349324Y-35271287D01*
X77111833Y-35429973D01*
X76847947Y-35539278D01*
X76567814Y-35595000D01*
X76282186Y-35595000D01*
X76002053Y-35539278D01*
X75738167Y-35429973D01*
X75500676Y-35271287D01*
X75298713Y-35069324D01*
X75140027Y-34831833D01*
X75030722Y-34567947D01*
X74975000Y-34287814D01*
X74975000Y-34002186D01*
X75030722Y-33722053D01*
X75140027Y-33458167D01*
X75298713Y-33220676D01*
X75500676Y-33018713D01*
X75738167Y-32860027D01*
X76002053Y-32750722D01*
X76282186Y-32695000D01*
X76567814Y-32695000D01*
X76847947Y-32750722D01*
X76847947Y-32750722D01*
G37*
G36*
X70546000Y-35117000D02*
G01*
X69301000Y-35117000D01*
X69301000Y-33717000D01*
X70546000Y-33717000D01*
X70546000Y-35117000D01*
X70546000Y-35117000D01*
G37*
G36*
X68621000Y-35117000D02*
G01*
X67376000Y-35117000D01*
X67376000Y-33717000D01*
X68621000Y-33717000D01*
X68621000Y-35117000D01*
X68621000Y-35117000D01*
G37*
G36*
X101034030Y-32415469D02*
G01*
X101034033Y-32415470D01*
X101034034Y-32415470D01*
X101222535Y-32472651D01*
X101222537Y-32472652D01*
X101396260Y-32565509D01*
X101548528Y-32690472D01*
X101673491Y-32842740D01*
X101766348Y-33016463D01*
X101823531Y-33204970D01*
X101842838Y-33401000D01*
X101823531Y-33597030D01*
X101823530Y-33597033D01*
X101823530Y-33597034D01*
X101785607Y-33722051D01*
X101766348Y-33785537D01*
X101673491Y-33959260D01*
X101548528Y-34111528D01*
X101396260Y-34236491D01*
X101243236Y-34318284D01*
X101222535Y-34329349D01*
X101034034Y-34386530D01*
X101034033Y-34386530D01*
X101034030Y-34386531D01*
X100887124Y-34401000D01*
X100788876Y-34401000D01*
X100641970Y-34386531D01*
X100641967Y-34386530D01*
X100641966Y-34386530D01*
X100453465Y-34329349D01*
X100432764Y-34318284D01*
X100279740Y-34236491D01*
X100127472Y-34111528D01*
X100002509Y-33959260D01*
X99909652Y-33785537D01*
X99890394Y-33722051D01*
X99852470Y-33597034D01*
X99852470Y-33597033D01*
X99852469Y-33597030D01*
X99833162Y-33401000D01*
X99852469Y-33204970D01*
X99909652Y-33016463D01*
X100002509Y-32842740D01*
X100127472Y-32690472D01*
X100279740Y-32565509D01*
X100453463Y-32472652D01*
X100453465Y-32472651D01*
X100641966Y-32415470D01*
X100641967Y-32415470D01*
X100641970Y-32415469D01*
X100788876Y-32401000D01*
X100887124Y-32401000D01*
X101034030Y-32415469D01*
X101034030Y-32415469D01*
G37*
G36*
X103574030Y-32415469D02*
G01*
X103574033Y-32415470D01*
X103574034Y-32415470D01*
X103762535Y-32472651D01*
X103762537Y-32472652D01*
X103936260Y-32565509D01*
X104088528Y-32690472D01*
X104213491Y-32842740D01*
X104306348Y-33016463D01*
X104363531Y-33204970D01*
X104382838Y-33401000D01*
X104363531Y-33597030D01*
X104363530Y-33597033D01*
X104363530Y-33597034D01*
X104325607Y-33722051D01*
X104306348Y-33785537D01*
X104213491Y-33959260D01*
X104088528Y-34111528D01*
X103936260Y-34236491D01*
X103783236Y-34318284D01*
X103762535Y-34329349D01*
X103574034Y-34386530D01*
X103574033Y-34386530D01*
X103574030Y-34386531D01*
X103427124Y-34401000D01*
X103328876Y-34401000D01*
X103181970Y-34386531D01*
X103181967Y-34386530D01*
X103181966Y-34386530D01*
X102993465Y-34329349D01*
X102972764Y-34318284D01*
X102819740Y-34236491D01*
X102667472Y-34111528D01*
X102542509Y-33959260D01*
X102449652Y-33785537D01*
X102430394Y-33722051D01*
X102392470Y-33597034D01*
X102392470Y-33597033D01*
X102392469Y-33597030D01*
X102373162Y-33401000D01*
X102392469Y-33204970D01*
X102449652Y-33016463D01*
X102542509Y-32842740D01*
X102667472Y-32690472D01*
X102819740Y-32565509D01*
X102993463Y-32472652D01*
X102993465Y-32472651D01*
X103181966Y-32415470D01*
X103181967Y-32415470D01*
X103181970Y-32415469D01*
X103328876Y-32401000D01*
X103427124Y-32401000D01*
X103574030Y-32415469D01*
X103574030Y-32415469D01*
G37*
G36*
X98494030Y-32415469D02*
G01*
X98494033Y-32415470D01*
X98494034Y-32415470D01*
X98682535Y-32472651D01*
X98682537Y-32472652D01*
X98856260Y-32565509D01*
X99008528Y-32690472D01*
X99133491Y-32842740D01*
X99226348Y-33016463D01*
X99283531Y-33204970D01*
X99302838Y-33401000D01*
X99283531Y-33597030D01*
X99283530Y-33597033D01*
X99283530Y-33597034D01*
X99245607Y-33722051D01*
X99226348Y-33785537D01*
X99133491Y-33959260D01*
X99008528Y-34111528D01*
X98856260Y-34236491D01*
X98703236Y-34318284D01*
X98682535Y-34329349D01*
X98494034Y-34386530D01*
X98494033Y-34386530D01*
X98494030Y-34386531D01*
X98347124Y-34401000D01*
X98248876Y-34401000D01*
X98101970Y-34386531D01*
X98101967Y-34386530D01*
X98101966Y-34386530D01*
X97913465Y-34329349D01*
X97892764Y-34318284D01*
X97739740Y-34236491D01*
X97587472Y-34111528D01*
X97462509Y-33959260D01*
X97369652Y-33785537D01*
X97350394Y-33722051D01*
X97312470Y-33597034D01*
X97312470Y-33597033D01*
X97312469Y-33597030D01*
X97293162Y-33401000D01*
X97312469Y-33204970D01*
X97369652Y-33016463D01*
X97462509Y-32842740D01*
X97587472Y-32690472D01*
X97739740Y-32565509D01*
X97913463Y-32472652D01*
X97913465Y-32472651D01*
X98101966Y-32415470D01*
X98101967Y-32415470D01*
X98101970Y-32415469D01*
X98248876Y-32401000D01*
X98347124Y-32401000D01*
X98494030Y-32415469D01*
X98494030Y-32415469D01*
G37*
G36*
X82861393Y-30538553D02*
G01*
X82970872Y-30560330D01*
X83280252Y-30688479D01*
X83558687Y-30874523D01*
X83795477Y-31111313D01*
X83981521Y-31389748D01*
X84109670Y-31699128D01*
X84109670Y-31699129D01*
X84175000Y-32027563D01*
X84175000Y-32362437D01*
X84153077Y-32472651D01*
X84109670Y-32690872D01*
X83981521Y-33000252D01*
X83795477Y-33278687D01*
X83558687Y-33515477D01*
X83280252Y-33701521D01*
X82970872Y-33829670D01*
X82861393Y-33851447D01*
X82642437Y-33895000D01*
X82307563Y-33895000D01*
X82088607Y-33851447D01*
X81979128Y-33829670D01*
X81669748Y-33701521D01*
X81391313Y-33515477D01*
X81154523Y-33278687D01*
X80968479Y-33000252D01*
X80840330Y-32690872D01*
X80796923Y-32472651D01*
X80775000Y-32362437D01*
X80775000Y-32027563D01*
X80840330Y-31699129D01*
X80840330Y-31699128D01*
X80968479Y-31389748D01*
X81154523Y-31111313D01*
X81391313Y-30874523D01*
X81669748Y-30688479D01*
X81979128Y-30560330D01*
X82088607Y-30538553D01*
X82307563Y-30495000D01*
X82642437Y-30495000D01*
X82861393Y-30538553D01*
X82861393Y-30538553D01*
G37*
G36*
X60263000Y-33696000D02*
G01*
X58863000Y-33696000D01*
X58863000Y-32451000D01*
X60263000Y-32451000D01*
X60263000Y-33696000D01*
X60263000Y-33696000D01*
G37*
G36*
X119933405Y-23922974D02*
G01*
X120515767Y-24164196D01*
X121039884Y-24514400D01*
X121485600Y-24960116D01*
X121835804Y-25484233D01*
X122077026Y-26066595D01*
X122200000Y-26684826D01*
X122200000Y-27315174D01*
X122077026Y-27933405D01*
X121835804Y-28515767D01*
X121485600Y-29039884D01*
X121039884Y-29485600D01*
X120515767Y-29835804D01*
X119933405Y-30077026D01*
X119315174Y-30200000D01*
X118684826Y-30200000D01*
X118066595Y-30077026D01*
X117484233Y-29835804D01*
X116960116Y-29485600D01*
X116514400Y-29039884D01*
X116164196Y-28515767D01*
X115922974Y-27933405D01*
X115800000Y-27315174D01*
X115800000Y-26684826D01*
X115922974Y-26066595D01*
X116164196Y-25484233D01*
X116514400Y-24960116D01*
X116960116Y-24514400D01*
X117484233Y-24164196D01*
X118066595Y-23922974D01*
X118684826Y-23800000D01*
X119315174Y-23800000D01*
X119933405Y-23922974D01*
X119933405Y-23922974D01*
G37*
G36*
X44933405Y-23922974D02*
G01*
X45515767Y-24164196D01*
X46039884Y-24514400D01*
X46485600Y-24960116D01*
X46835804Y-25484233D01*
X47077026Y-26066595D01*
X47200000Y-26684826D01*
X47200000Y-27315174D01*
X47077026Y-27933405D01*
X46835804Y-28515767D01*
X46485600Y-29039884D01*
X46039884Y-29485600D01*
X45515767Y-29835804D01*
X44933405Y-30077026D01*
X44315174Y-30200000D01*
X43684826Y-30200000D01*
X43066595Y-30077026D01*
X42484233Y-29835804D01*
X41960116Y-29485600D01*
X41514400Y-29039884D01*
X41164196Y-28515767D01*
X40922974Y-27933405D01*
X40800000Y-27315174D01*
X40800000Y-26684826D01*
X40922974Y-26066595D01*
X41164196Y-25484233D01*
X41514400Y-24960116D01*
X41960116Y-24514400D01*
X42484233Y-24164196D01*
X43066595Y-23922974D01*
X43684826Y-23800000D01*
X44315174Y-23800000D01*
X44933405Y-23922974D01*
X44933405Y-23922974D01*
G37*
G36*
X73086000Y-27977000D02*
G01*
X71186000Y-27977000D01*
X71186000Y-26432000D01*
X73086000Y-26432000D01*
X73086000Y-27977000D01*
X73086000Y-27977000D01*
G37*
G36*
X75977000Y-27585000D02*
G01*
X73677000Y-27585000D01*
X73677000Y-26385000D01*
X75977000Y-26385000D01*
X75977000Y-27585000D01*
X75977000Y-27585000D01*
G37*
G36*
X53247000Y-26831000D02*
G01*
X51147000Y-26831000D01*
X51147000Y-24731000D01*
X53247000Y-24731000D01*
X53247000Y-26831000D01*
X53247000Y-26831000D01*
G37*
G36*
X54865707Y-24738597D02*
G01*
X54942836Y-24746193D01*
X55074787Y-24786220D01*
X55140763Y-24806233D01*
X55323172Y-24903733D01*
X55483054Y-25034946D01*
X55614267Y-25194828D01*
X55711767Y-25377237D01*
X55727678Y-25429689D01*
X55771807Y-25575164D01*
X55792080Y-25781000D01*
X55771807Y-25986836D01*
X55747612Y-26066595D01*
X55711767Y-26184763D01*
X55614267Y-26367172D01*
X55483054Y-26527054D01*
X55323172Y-26658267D01*
X55140763Y-26755767D01*
X55105281Y-26766530D01*
X54942836Y-26815807D01*
X54865707Y-26823403D01*
X54788580Y-26831000D01*
X54685420Y-26831000D01*
X54608293Y-26823403D01*
X54531164Y-26815807D01*
X54368719Y-26766530D01*
X54333237Y-26755767D01*
X54150828Y-26658267D01*
X53990946Y-26527054D01*
X53859733Y-26367172D01*
X53762233Y-26184763D01*
X53726388Y-26066595D01*
X53702193Y-25986836D01*
X53681920Y-25781000D01*
X53702193Y-25575164D01*
X53746322Y-25429689D01*
X53762233Y-25377237D01*
X53859733Y-25194828D01*
X53990946Y-25034946D01*
X54150828Y-24903733D01*
X54333237Y-24806233D01*
X54399213Y-24786220D01*
X54531164Y-24746193D01*
X54608293Y-24738596D01*
X54685420Y-24731000D01*
X54788580Y-24731000D01*
X54865707Y-24738597D01*
X54865707Y-24738597D01*
G37*
G36*
X57405707Y-24738597D02*
G01*
X57482836Y-24746193D01*
X57614787Y-24786220D01*
X57680763Y-24806233D01*
X57863172Y-24903733D01*
X58023054Y-25034946D01*
X58154267Y-25194828D01*
X58251767Y-25377237D01*
X58267678Y-25429689D01*
X58311807Y-25575164D01*
X58332080Y-25781000D01*
X58311807Y-25986836D01*
X58287612Y-26066595D01*
X58251767Y-26184763D01*
X58154267Y-26367172D01*
X58023054Y-26527054D01*
X57863172Y-26658267D01*
X57680763Y-26755767D01*
X57645281Y-26766530D01*
X57482836Y-26815807D01*
X57405707Y-26823403D01*
X57328580Y-26831000D01*
X57225420Y-26831000D01*
X57148293Y-26823403D01*
X57071164Y-26815807D01*
X56908719Y-26766530D01*
X56873237Y-26755767D01*
X56690828Y-26658267D01*
X56530946Y-26527054D01*
X56399733Y-26367172D01*
X56302233Y-26184763D01*
X56266388Y-26066595D01*
X56242193Y-25986836D01*
X56221920Y-25781000D01*
X56242193Y-25575164D01*
X56286322Y-25429689D01*
X56302233Y-25377237D01*
X56399733Y-25194828D01*
X56530946Y-25034946D01*
X56690828Y-24903733D01*
X56873237Y-24806233D01*
X56939213Y-24786220D01*
X57071164Y-24746193D01*
X57148293Y-24738596D01*
X57225420Y-24731000D01*
X57328580Y-24731000D01*
X57405707Y-24738597D01*
X57405707Y-24738597D01*
G37*
G36*
X98494030Y-24795469D02*
G01*
X98494033Y-24795470D01*
X98494034Y-24795470D01*
X98682535Y-24852651D01*
X98682537Y-24852652D01*
X98856260Y-24945509D01*
X99008528Y-25070472D01*
X99133491Y-25222740D01*
X99133492Y-25222742D01*
X99226349Y-25396465D01*
X99280557Y-25575166D01*
X99283531Y-25584970D01*
X99302838Y-25781000D01*
X99283531Y-25977030D01*
X99283530Y-25977033D01*
X99283530Y-25977034D01*
X99280557Y-25986836D01*
X99226348Y-26165537D01*
X99133491Y-26339260D01*
X99008528Y-26491528D01*
X98856260Y-26616491D01*
X98856258Y-26616492D01*
X98682535Y-26709349D01*
X98494034Y-26766530D01*
X98494033Y-26766530D01*
X98494030Y-26766531D01*
X98347124Y-26781000D01*
X98248876Y-26781000D01*
X98101970Y-26766531D01*
X98101967Y-26766530D01*
X98101966Y-26766530D01*
X97913465Y-26709349D01*
X97739742Y-26616492D01*
X97739740Y-26616491D01*
X97587472Y-26491528D01*
X97462509Y-26339260D01*
X97369652Y-26165537D01*
X97315444Y-25986836D01*
X97312470Y-25977034D01*
X97312470Y-25977033D01*
X97312469Y-25977030D01*
X97293162Y-25781000D01*
X97312469Y-25584970D01*
X97315443Y-25575166D01*
X97369651Y-25396465D01*
X97462508Y-25222742D01*
X97462509Y-25222740D01*
X97587472Y-25070472D01*
X97739740Y-24945509D01*
X97913463Y-24852652D01*
X97913465Y-24852651D01*
X98101966Y-24795470D01*
X98101967Y-24795470D01*
X98101970Y-24795469D01*
X98248876Y-24781000D01*
X98347124Y-24781000D01*
X98494030Y-24795469D01*
X98494030Y-24795469D01*
G37*
G36*
X101034030Y-24795469D02*
G01*
X101034033Y-24795470D01*
X101034034Y-24795470D01*
X101222535Y-24852651D01*
X101222537Y-24852652D01*
X101396260Y-24945509D01*
X101548528Y-25070472D01*
X101673491Y-25222740D01*
X101673492Y-25222742D01*
X101766349Y-25396465D01*
X101820557Y-25575166D01*
X101823531Y-25584970D01*
X101842838Y-25781000D01*
X101823531Y-25977030D01*
X101823530Y-25977033D01*
X101823530Y-25977034D01*
X101820557Y-25986836D01*
X101766348Y-26165537D01*
X101673491Y-26339260D01*
X101548528Y-26491528D01*
X101396260Y-26616491D01*
X101396258Y-26616492D01*
X101222535Y-26709349D01*
X101034034Y-26766530D01*
X101034033Y-26766530D01*
X101034030Y-26766531D01*
X100887124Y-26781000D01*
X100788876Y-26781000D01*
X100641970Y-26766531D01*
X100641967Y-26766530D01*
X100641966Y-26766530D01*
X100453465Y-26709349D01*
X100279742Y-26616492D01*
X100279740Y-26616491D01*
X100127472Y-26491528D01*
X100002509Y-26339260D01*
X99909652Y-26165537D01*
X99855444Y-25986836D01*
X99852470Y-25977034D01*
X99852470Y-25977033D01*
X99852469Y-25977030D01*
X99833162Y-25781000D01*
X99852469Y-25584970D01*
X99855443Y-25575166D01*
X99909651Y-25396465D01*
X100002508Y-25222742D01*
X100002509Y-25222740D01*
X100127472Y-25070472D01*
X100279740Y-24945509D01*
X100453463Y-24852652D01*
X100453465Y-24852651D01*
X100641966Y-24795470D01*
X100641967Y-24795470D01*
X100641970Y-24795469D01*
X100788876Y-24781000D01*
X100887124Y-24781000D01*
X101034030Y-24795469D01*
X101034030Y-24795469D01*
G37*
G36*
X104378000Y-26781000D02*
G01*
X102378000Y-26781000D01*
X102378000Y-24781000D01*
X104378000Y-24781000D01*
X104378000Y-26781000D01*
X104378000Y-26781000D01*
G37*
G36*
X78977000Y-26635000D02*
G01*
X76677000Y-26635000D01*
X76677000Y-25435000D01*
X78977000Y-25435000D01*
X78977000Y-26635000D01*
X78977000Y-26635000D01*
G37*
G36*
X73086000Y-25892000D02*
G01*
X71186000Y-25892000D01*
X71186000Y-24347000D01*
X73086000Y-24347000D01*
X73086000Y-25892000D01*
X73086000Y-25892000D01*
G37*
G36*
X64938000Y-25846000D02*
G01*
X63693000Y-25846000D01*
X63693000Y-24446000D01*
X64938000Y-24446000D01*
X64938000Y-25846000D01*
X64938000Y-25846000D01*
G37*
G36*
X66863000Y-25846000D02*
G01*
X65618000Y-25846000D01*
X65618000Y-24446000D01*
X66863000Y-24446000D01*
X66863000Y-25846000D01*
X66863000Y-25846000D01*
G37*
G36*
X75977000Y-25685000D02*
G01*
X73677000Y-25685000D01*
X73677000Y-24485000D01*
X75977000Y-24485000D01*
X75977000Y-25685000D01*
X75977000Y-25685000D01*
G37*
G36*
X114383948Y-22750257D02*
G01*
X114647849Y-22830310D01*
X114891062Y-22960310D01*
X115104239Y-23135261D01*
X115279190Y-23348438D01*
X115409190Y-23591651D01*
X115489243Y-23855552D01*
X115516274Y-24130000D01*
X115489243Y-24404448D01*
X115409190Y-24668349D01*
X115279190Y-24911562D01*
X115104239Y-25124739D01*
X114891062Y-25299690D01*
X114647849Y-25429690D01*
X114383948Y-25509743D01*
X114178277Y-25530000D01*
X114040723Y-25530000D01*
X113835052Y-25509743D01*
X113571151Y-25429690D01*
X113327938Y-25299690D01*
X113114761Y-25124739D01*
X112939810Y-24911562D01*
X112809810Y-24668349D01*
X112729757Y-24404448D01*
X112702726Y-24130000D01*
X112729757Y-23855552D01*
X112809810Y-23591651D01*
X112939810Y-23348438D01*
X113114761Y-23135261D01*
X113327938Y-22960310D01*
X113571151Y-22830310D01*
X113835052Y-22750257D01*
X114040723Y-22730000D01*
X114178277Y-22730000D01*
X114383948Y-22750257D01*
X114383948Y-22750257D01*
G37*
M02*
