G04 #@! TF.FileFunction,Copper,L1,Top,Signal*
%FSLAX46Y46*%
G04 Gerber Fmt 4.6, Leading zero omitted, Abs format (unit mm)*
G04 Created by KiCad (PCBNEW 4.0.7) date Mon Jun 25 21:13:58 2018*
%MOMM*%
%LPD*%
G01*
G04 APERTURE LIST*
%ADD10C,0.100000*%
%ADD11R,0.845000X1.000000*%
%ADD12R,1.000000X0.845000*%
%ADD13R,1.800000X1.800000*%
%ADD14O,1.800000X1.800000*%
%ADD15C,1.520000*%
%ADD16C,2.700000*%
%ADD17R,1.700000X1.700000*%
%ADD18O,1.700000X1.700000*%
%ADD19R,1.846667X3.480000*%
%ADD20R,3.960000X1.980000*%
%ADD21O,3.960000X1.980000*%
%ADD22C,2.500000*%
%ADD23C,3.000000*%
%ADD24R,1.900000X0.800000*%
%ADD25R,0.600000X1.500000*%
%ADD26R,0.400000X1.000000*%
%ADD27R,1.600000X1.600000*%
%ADD28O,1.600000X1.600000*%
%ADD29C,1.500000*%
%ADD30C,1.600000*%
%ADD31C,4.000000*%
%ADD32C,6.000000*%
%ADD33R,1.500000X1.145000*%
%ADD34R,1.145000X1.500000*%
%ADD35R,1.800000X2.500000*%
%ADD36C,0.500000*%
%ADD37C,0.250000*%
G04 APERTURE END LIST*
D10*
D11*
X53774500Y-62357000D03*
X55699500Y-62357000D03*
X54302500Y-44577000D03*
X52377500Y-44577000D03*
X61668500Y-48641000D03*
X59743500Y-48641000D03*
D12*
X63246000Y-49603500D03*
X63246000Y-47678500D03*
D13*
X99441000Y-43053000D03*
D14*
X99441000Y-40513000D03*
X99441000Y-37973000D03*
D13*
X107500000Y-70500000D03*
D14*
X107500000Y-67960000D03*
X107500000Y-65420000D03*
D15*
X46500000Y-71460000D03*
X46500000Y-74000000D03*
X44500000Y-74000000D03*
X44500000Y-71460000D03*
D16*
X41800000Y-66730000D03*
X41800000Y-78730000D03*
D17*
X54610000Y-84709000D03*
D18*
X52070000Y-84709000D03*
D17*
X52197000Y-25781000D03*
D18*
X54737000Y-25781000D03*
X57277000Y-25781000D03*
D19*
X78805000Y-91000000D03*
X81575000Y-91000000D03*
X84345000Y-91000000D03*
X87115000Y-91000000D03*
X89885000Y-91000000D03*
X92655000Y-91000000D03*
X95425000Y-91000000D03*
X98195000Y-91000000D03*
D20*
X117500000Y-34500000D03*
D21*
X117500000Y-39500000D03*
X117500000Y-44500000D03*
D20*
X117500000Y-70500000D03*
D21*
X117500000Y-75500000D03*
X117500000Y-80500000D03*
D22*
X76425000Y-34145000D03*
D23*
X76425000Y-46345000D03*
X88475000Y-46395000D03*
D22*
X88425000Y-34145000D03*
D23*
X82475000Y-32195000D03*
D22*
X85136000Y-57068000D03*
D23*
X85136000Y-69268000D03*
X97186000Y-69318000D03*
D22*
X97136000Y-57068000D03*
D23*
X91186000Y-55118000D03*
D24*
X69064000Y-77531000D03*
X69064000Y-75631000D03*
X66064000Y-76581000D03*
X59968000Y-86045000D03*
X59968000Y-87945000D03*
X62968000Y-86995000D03*
X95274000Y-76393000D03*
X95274000Y-78293000D03*
X98274000Y-77343000D03*
X92607000Y-83632000D03*
X92607000Y-85532000D03*
X95607000Y-84582000D03*
D11*
X59997500Y-83820000D03*
X61922500Y-83820000D03*
D12*
X73787000Y-77543500D03*
X73787000Y-75618500D03*
X57277000Y-35613500D03*
X57277000Y-37538500D03*
X68199000Y-82857500D03*
X68199000Y-84782500D03*
X68199000Y-89481500D03*
X68199000Y-87556500D03*
D11*
X90624500Y-76327000D03*
X88699500Y-76327000D03*
D12*
X92583000Y-82115500D03*
X92583000Y-80190500D03*
D25*
X51943000Y-58580000D03*
X53213000Y-58580000D03*
X54483000Y-58580000D03*
X55753000Y-58580000D03*
X57023000Y-58580000D03*
X58293000Y-58580000D03*
X59563000Y-58580000D03*
X60833000Y-58580000D03*
X60833000Y-53180000D03*
X59563000Y-53180000D03*
X58293000Y-53180000D03*
X57023000Y-53180000D03*
X55753000Y-53180000D03*
X54483000Y-53180000D03*
X53213000Y-53180000D03*
X51943000Y-53180000D03*
D26*
X57273000Y-45953000D03*
X57923000Y-45953000D03*
X58573000Y-45953000D03*
X59223000Y-45953000D03*
X59873000Y-45953000D03*
X60523000Y-45953000D03*
X61173000Y-45953000D03*
X61823000Y-45953000D03*
X62473000Y-45953000D03*
X63123000Y-45953000D03*
X63123000Y-40153000D03*
X62473000Y-40153000D03*
X61823000Y-40153000D03*
X61173000Y-40153000D03*
X60523000Y-40153000D03*
X59873000Y-40153000D03*
X59223000Y-40153000D03*
X58573000Y-40153000D03*
X57923000Y-40153000D03*
X57273000Y-40153000D03*
D27*
X81407000Y-84455000D03*
D28*
X78867000Y-76835000D03*
X78867000Y-84455000D03*
X81407000Y-76835000D03*
D27*
X66040000Y-82931000D03*
D28*
X73660000Y-80391000D03*
X66040000Y-80391000D03*
X73660000Y-82931000D03*
D27*
X66040000Y-89535000D03*
D28*
X73660000Y-86995000D03*
X66040000Y-86995000D03*
X73660000Y-89535000D03*
D27*
X103378000Y-25781000D03*
D28*
X98298000Y-33401000D03*
X100838000Y-25781000D03*
X100838000Y-33401000D03*
X98298000Y-25781000D03*
X103378000Y-33401000D03*
D27*
X120000000Y-54000000D03*
D28*
X114920000Y-61620000D03*
X117460000Y-54000000D03*
X117460000Y-61620000D03*
X114920000Y-54000000D03*
X120000000Y-61620000D03*
D29*
X65659000Y-63119000D03*
X65659000Y-67999000D03*
D27*
X46000000Y-53000000D03*
D30*
X46000000Y-50230000D03*
X46000000Y-47460000D03*
X46000000Y-44690000D03*
X46000000Y-41920000D03*
X43160000Y-51615000D03*
X43160000Y-48845000D03*
X43160000Y-46075000D03*
X43160000Y-43305000D03*
D31*
X45700000Y-34960000D03*
X45700000Y-59960000D03*
D12*
X59563000Y-34998500D03*
X59563000Y-33073500D03*
D10*
G36*
X60451000Y-30868000D02*
X60451000Y-28568000D01*
X64051000Y-29168000D01*
X64051000Y-30268000D01*
X60451000Y-30868000D01*
X60451000Y-30868000D01*
G37*
G36*
X69851000Y-28568000D02*
X69851000Y-30868000D01*
X66251000Y-30268000D01*
X66251000Y-29168000D01*
X69851000Y-28568000D01*
X69851000Y-28568000D01*
G37*
D30*
X93475000Y-42195000D03*
D28*
X93475000Y-29495000D03*
D30*
X102000000Y-70500000D03*
D28*
X102000000Y-57800000D03*
D32*
X44000000Y-27000000D03*
X44000000Y-88500000D03*
X119000000Y-88500000D03*
X119000000Y-27000000D03*
D24*
X74827000Y-25085000D03*
X74827000Y-26985000D03*
X77827000Y-26035000D03*
D33*
X71501000Y-77623500D03*
X71501000Y-75538500D03*
D34*
X57123500Y-81788000D03*
X59208500Y-81788000D03*
D33*
X92710000Y-76173500D03*
X92710000Y-78258500D03*
X90043000Y-83666500D03*
X90043000Y-85751500D03*
D11*
X66240500Y-25146000D03*
X64315500Y-25146000D03*
D33*
X72136000Y-27204500D03*
X72136000Y-25119500D03*
D11*
X69923500Y-34417000D03*
X67998500Y-34417000D03*
D35*
X63500000Y-57753000D03*
X63500000Y-53753000D03*
D29*
X65659000Y-46355000D03*
X93091000Y-49149000D03*
X68580000Y-73660000D03*
X57150000Y-88011000D03*
X50165000Y-58293000D03*
X61849000Y-62611000D03*
X61849000Y-60452000D03*
X54737000Y-29591000D03*
X86614000Y-28575000D03*
X90297000Y-28702000D03*
X63627000Y-82042000D03*
X64770000Y-50927000D03*
X60071000Y-71501000D03*
X60071000Y-69596000D03*
X57277000Y-29591000D03*
X105664000Y-50800000D03*
X67183000Y-40767000D03*
X62230000Y-25273000D03*
X64389000Y-33020000D03*
X62865000Y-34671000D03*
X75946000Y-54102000D03*
X62738000Y-51181000D03*
X55880000Y-46101000D03*
X67183000Y-38862000D03*
X66421000Y-43815000D03*
X100838000Y-23495000D03*
X106172000Y-54864000D03*
D36*
X90297000Y-50165000D02*
X92075000Y-50165000D01*
X92075000Y-50165000D02*
X93091000Y-49149000D01*
X59743500Y-49847500D02*
X63002000Y-49847500D01*
X63002000Y-49847500D02*
X63246000Y-49603500D01*
X72136000Y-47117000D02*
X72136000Y-47244000D01*
X72136000Y-47244000D02*
X75057000Y-50165000D01*
D37*
X61173000Y-45126000D02*
X61849000Y-44450000D01*
X61849000Y-44450000D02*
X62230000Y-44450000D01*
D36*
X63754000Y-44450000D02*
X62230000Y-44450000D01*
X65659000Y-46355000D02*
X63754000Y-44450000D01*
D37*
X61173000Y-45953000D02*
X61173000Y-45126000D01*
D36*
X90043000Y-85751500D02*
X92387500Y-85751500D01*
X92387500Y-85751500D02*
X92607000Y-85532000D01*
X90297000Y-50165000D02*
X75057000Y-50165000D01*
X74827000Y-26985000D02*
X72355500Y-26985000D01*
X72355500Y-26985000D02*
X72136000Y-27204500D01*
X92710000Y-78258500D02*
X95239500Y-78258500D01*
X95239500Y-78258500D02*
X95274000Y-78293000D01*
X69064000Y-75631000D02*
X71408500Y-75631000D01*
X71408500Y-75631000D02*
X71501000Y-75538500D01*
X71755000Y-26924000D02*
X63119000Y-26924000D01*
X72136000Y-27305000D02*
X71755000Y-26924000D01*
X72136000Y-47117000D02*
X72136000Y-27305000D01*
X59563000Y-33073500D02*
X60271500Y-33073500D01*
X63119000Y-26924000D02*
X64262000Y-26924000D01*
X64262000Y-26924000D02*
X65151000Y-27813000D01*
X65151000Y-27813000D02*
X65151000Y-30734000D01*
X60271500Y-33073500D02*
X61341000Y-32004000D01*
X61341000Y-32004000D02*
X63246000Y-32004000D01*
X63246000Y-32004000D02*
X63881000Y-31369000D01*
X63881000Y-31369000D02*
X64516000Y-31369000D01*
X64516000Y-31369000D02*
X65151000Y-30734000D01*
X50863500Y-43497500D02*
X50863500Y-29781500D01*
X50863500Y-29781500D02*
X52578000Y-28067000D01*
X52578000Y-28067000D02*
X58928000Y-28067000D01*
X58928000Y-28067000D02*
X60071000Y-26924000D01*
X60071000Y-26924000D02*
X63119000Y-26924000D01*
X52377500Y-44577000D02*
X51943000Y-44577000D01*
X43561000Y-40005000D02*
X41402000Y-42164000D01*
X47371000Y-40005000D02*
X43561000Y-40005000D01*
X51943000Y-44577000D02*
X50863500Y-43497500D01*
X50863500Y-43497500D02*
X47371000Y-40005000D01*
X53774500Y-62357000D02*
X48768000Y-62357000D01*
X41402000Y-60198000D02*
X41402000Y-42164000D01*
X44450000Y-63246000D02*
X41402000Y-60198000D01*
X47879000Y-63246000D02*
X44450000Y-63246000D01*
X48768000Y-62357000D02*
X47879000Y-63246000D01*
X53774500Y-62357000D02*
X53774500Y-67744500D01*
X57150000Y-71120000D02*
X57150000Y-88011000D01*
X53774500Y-67744500D02*
X57150000Y-71120000D01*
X69064000Y-74144000D02*
X69064000Y-75631000D01*
X68580000Y-73660000D02*
X69064000Y-74144000D01*
X57216000Y-87945000D02*
X59968000Y-87945000D01*
X57150000Y-88011000D02*
X57216000Y-87945000D01*
X50452000Y-58580000D02*
X51943000Y-58580000D01*
X50165000Y-58293000D02*
X50452000Y-58580000D01*
X59743500Y-48641000D02*
X59743500Y-49847500D01*
D37*
X61173000Y-45953000D02*
X61173000Y-47158000D01*
X59743500Y-47825500D02*
X59743500Y-48641000D01*
X59944000Y-47625000D02*
X59743500Y-47825500D01*
X60706000Y-47625000D02*
X59944000Y-47625000D01*
X61173000Y-47158000D02*
X60706000Y-47625000D01*
X92607000Y-85532000D02*
X93284000Y-85532000D01*
X93284000Y-85532000D02*
X94107000Y-84709000D01*
X95274000Y-79351000D02*
X95274000Y-78293000D01*
X94107000Y-80518000D02*
X95274000Y-79351000D01*
X94107000Y-84709000D02*
X94107000Y-80518000D01*
D36*
X92607000Y-85532000D02*
X92607000Y-90952000D01*
X92607000Y-90952000D02*
X92655000Y-91000000D01*
D37*
X59563000Y-58580000D02*
X59563000Y-60325000D01*
X59563000Y-60325000D02*
X61849000Y-62611000D01*
X60833000Y-58580000D02*
X60833000Y-59436000D01*
X60833000Y-59436000D02*
X61849000Y-60452000D01*
D36*
X55753000Y-58580000D02*
X55753000Y-62303500D01*
X55753000Y-62303500D02*
X55699500Y-62357000D01*
D37*
X54302500Y-44577000D02*
X56769000Y-44577000D01*
D36*
X56007000Y-43815000D02*
X54610000Y-42418000D01*
D37*
X59223000Y-44999000D02*
X58801000Y-44577000D01*
X58801000Y-44577000D02*
X56769000Y-44577000D01*
X56769000Y-44577000D02*
X56007000Y-43815000D01*
X59223000Y-45953000D02*
X59223000Y-44999000D01*
D36*
X54610000Y-29718000D02*
X54737000Y-29591000D01*
X54610000Y-42418000D02*
X54610000Y-29718000D01*
D37*
X61823000Y-45953000D02*
X61823000Y-48486500D01*
X61823000Y-48486500D02*
X61668500Y-48641000D01*
D36*
X90170000Y-28575000D02*
X86614000Y-28575000D01*
X90297000Y-28702000D02*
X90170000Y-28575000D01*
X64770000Y-50927000D02*
X65024000Y-50927000D01*
D37*
X65913000Y-55753000D02*
X62865000Y-55753000D01*
D36*
X66167000Y-55499000D02*
X65913000Y-55753000D01*
X66167000Y-52070000D02*
X66167000Y-55499000D01*
X65024000Y-50927000D02*
X66167000Y-52070000D01*
X63246000Y-47678500D02*
X63807500Y-47678500D01*
X63807500Y-47678500D02*
X64770000Y-48641000D01*
X51943000Y-53180000D02*
X51943000Y-54610000D01*
X53086000Y-55753000D02*
X60960000Y-55753000D01*
X51943000Y-54610000D02*
X53086000Y-55753000D01*
D37*
X62865000Y-55753000D02*
X60960000Y-55753000D01*
D36*
X64770000Y-50927000D02*
X64770000Y-48641000D01*
X68199000Y-84782500D02*
X64462500Y-84782500D01*
X63627000Y-83947000D02*
X63627000Y-82042000D01*
X64462500Y-84782500D02*
X63627000Y-83947000D01*
X68199000Y-87556500D02*
X68199000Y-84782500D01*
D37*
X62473000Y-45953000D02*
X62473000Y-46905500D01*
X62473000Y-46905500D02*
X63246000Y-47678500D01*
D36*
X60071000Y-71501000D02*
X60706000Y-71501000D01*
X58293000Y-61849000D02*
X58293000Y-58580000D01*
X61595000Y-65151000D02*
X58293000Y-61849000D01*
X61595000Y-70612000D02*
X61595000Y-65151000D01*
X60706000Y-71501000D02*
X61595000Y-70612000D01*
X60071000Y-69596000D02*
X60071000Y-65405000D01*
X60071000Y-65405000D02*
X57023000Y-62357000D01*
X57023000Y-62357000D02*
X57023000Y-58580000D01*
X55753000Y-40894000D02*
X55753000Y-32639000D01*
D37*
X58573000Y-41122000D02*
X58166000Y-41529000D01*
X58166000Y-41529000D02*
X56388000Y-41529000D01*
X56388000Y-41529000D02*
X55753000Y-40894000D01*
X58573000Y-40153000D02*
X58573000Y-41122000D01*
D36*
X57277000Y-31115000D02*
X57277000Y-29591000D01*
X55753000Y-32639000D02*
X57277000Y-31115000D01*
X78805000Y-91000000D02*
X75125000Y-91000000D01*
X75125000Y-91000000D02*
X73660000Y-89535000D01*
X73660000Y-86995000D02*
X80518000Y-86995000D01*
X81575000Y-88052000D02*
X81575000Y-91000000D01*
X80518000Y-86995000D02*
X81575000Y-88052000D01*
X73660000Y-82931000D02*
X74295000Y-82931000D01*
X74295000Y-82931000D02*
X75438000Y-81788000D01*
X84328000Y-85979000D02*
X84345000Y-85979000D01*
X84328000Y-83439000D02*
X84328000Y-85979000D01*
X82677000Y-81788000D02*
X84328000Y-83439000D01*
X75438000Y-81788000D02*
X82677000Y-81788000D01*
X84345000Y-85979000D02*
X84345000Y-91000000D01*
X73660000Y-80391000D02*
X85344000Y-80391000D01*
X87115000Y-82162000D02*
X87115000Y-91000000D01*
X85344000Y-80391000D02*
X87115000Y-82162000D01*
X95425000Y-91000000D02*
X95425000Y-84764000D01*
X95425000Y-84764000D02*
X95607000Y-84582000D01*
X98195000Y-91000000D02*
X98195000Y-77422000D01*
X98195000Y-77422000D02*
X98274000Y-77343000D01*
X69064000Y-77531000D02*
X71408500Y-77531000D01*
X71408500Y-77531000D02*
X71501000Y-77623500D01*
X69064000Y-77531000D02*
X73774500Y-77531000D01*
X73774500Y-77531000D02*
X73787000Y-77543500D01*
X66064000Y-76581000D02*
X66064000Y-80367000D01*
X66064000Y-80367000D02*
X66040000Y-80391000D01*
X59208500Y-81788000D02*
X59208500Y-83031000D01*
X59208500Y-83031000D02*
X59997500Y-83820000D01*
X59997500Y-83820000D02*
X59997500Y-86015500D01*
X59997500Y-86015500D02*
X59968000Y-86045000D01*
X62968000Y-86995000D02*
X66040000Y-86995000D01*
X95274000Y-76393000D02*
X92929500Y-76393000D01*
X92929500Y-76393000D02*
X92710000Y-76173500D01*
X90624500Y-76327000D02*
X95208000Y-76327000D01*
X95208000Y-76327000D02*
X95274000Y-76393000D01*
X90043000Y-83666500D02*
X92572500Y-83666500D01*
X92572500Y-83666500D02*
X92607000Y-83632000D01*
X92607000Y-83632000D02*
X92607000Y-82139500D01*
X92607000Y-82139500D02*
X92583000Y-82115500D01*
X70866000Y-61976000D02*
X70866000Y-55372000D01*
X70866000Y-55372000D02*
X66040000Y-50546000D01*
X70866000Y-61976000D02*
X70866000Y-70231000D01*
X63754000Y-72009000D02*
X69088000Y-72009000D01*
X69088000Y-72009000D02*
X70866000Y-70231000D01*
X66040000Y-50546000D02*
X66040000Y-48514000D01*
X63881000Y-46355000D02*
X63881000Y-45953000D01*
X66040000Y-48514000D02*
X63881000Y-46355000D01*
X61922500Y-83820000D02*
X61922500Y-73840500D01*
X61922500Y-73840500D02*
X63754000Y-72009000D01*
X61922500Y-83820000D02*
X61976000Y-83820000D01*
D37*
X63123000Y-45953000D02*
X63881000Y-45953000D01*
D36*
X66929000Y-50165000D02*
X71628000Y-54864000D01*
X71628000Y-54864000D02*
X71628000Y-60960000D01*
X73787000Y-75618500D02*
X73787000Y-74295000D01*
X73787000Y-74295000D02*
X71628000Y-72136000D01*
X71628000Y-72136000D02*
X71628000Y-60960000D01*
X66929000Y-50165000D02*
X66929000Y-45212000D01*
D37*
X60523000Y-44760000D02*
X60833000Y-44450000D01*
X60523000Y-45953000D02*
X60523000Y-44760000D01*
D36*
X65786000Y-45085000D02*
X65151000Y-44450000D01*
X60833000Y-43307000D02*
X61341000Y-42799000D01*
X61341000Y-42799000D02*
X64262000Y-42799000D01*
X64262000Y-42799000D02*
X65151000Y-43688000D01*
X65151000Y-43688000D02*
X65151000Y-44450000D01*
X60833000Y-44450000D02*
X60833000Y-43307000D01*
X66929000Y-45212000D02*
X66802000Y-45085000D01*
X66802000Y-45085000D02*
X65786000Y-45085000D01*
X71247000Y-47625000D02*
X74676000Y-51054000D01*
X98298000Y-51054000D02*
X105410000Y-51054000D01*
X98298000Y-51054000D02*
X74676000Y-51054000D01*
X105410000Y-51054000D02*
X105664000Y-50800000D01*
X71247000Y-32914000D02*
X68051000Y-29718000D01*
X71247000Y-47625000D02*
X71247000Y-32914000D01*
X66040000Y-82931000D02*
X68125500Y-82931000D01*
X68125500Y-82931000D02*
X68199000Y-82857500D01*
X66040000Y-89535000D02*
X68145500Y-89535000D01*
X68145500Y-89535000D02*
X68199000Y-89481500D01*
X62357000Y-38227000D02*
X64008000Y-38227000D01*
D37*
X61823000Y-40153000D02*
X61823000Y-38735000D01*
D36*
X61849000Y-38735000D02*
X62357000Y-38227000D01*
X61823000Y-38735000D02*
X61849000Y-38735000D01*
X68580000Y-49022000D02*
X74041000Y-54483000D01*
X74041000Y-57150000D02*
X74600500Y-57709500D01*
X74041000Y-54483000D02*
X74041000Y-57150000D01*
X65214500Y-37274500D02*
X64960500Y-37274500D01*
X64960500Y-37274500D02*
X64262000Y-37973000D01*
X68580000Y-36830000D02*
X68580000Y-38481000D01*
X68453000Y-36703000D02*
X68580000Y-36830000D01*
X65786000Y-36703000D02*
X68453000Y-36703000D01*
X65214500Y-37274500D02*
X65786000Y-36703000D01*
X68580000Y-40894000D02*
X68580000Y-38481000D01*
X86327000Y-76327000D02*
X88699500Y-76327000D01*
X68580000Y-49022000D02*
X68580000Y-40894000D01*
X79709500Y-57709500D02*
X81500000Y-59500000D01*
X81500000Y-59500000D02*
X81500000Y-71500000D01*
X81500000Y-71500000D02*
X86327000Y-76327000D01*
X74600500Y-57709500D02*
X79709500Y-57709500D01*
X64008000Y-38227000D02*
X64262000Y-37973000D01*
X64262000Y-37973000D02*
X64452500Y-37782500D01*
X64008000Y-38227000D02*
X64452500Y-37782500D01*
X67691000Y-49530000D02*
X72644000Y-54483000D01*
X72644000Y-57150000D02*
X74041000Y-58547000D01*
X72644000Y-54483000D02*
X72644000Y-57150000D01*
X87503000Y-78740000D02*
X88773000Y-80010000D01*
X87503000Y-78740000D02*
X80645000Y-71882000D01*
X80645000Y-71882000D02*
X80645000Y-59817000D01*
X80645000Y-59817000D02*
X79375000Y-58547000D01*
X79375000Y-58547000D02*
X74041000Y-58547000D01*
X88773000Y-80010000D02*
X92402500Y-80010000D01*
X92402500Y-80010000D02*
X92583000Y-80190500D01*
X67691000Y-49530000D02*
X67691000Y-43053000D01*
D37*
X60523000Y-40153000D02*
X60523000Y-41275000D01*
D36*
X67691000Y-43053000D02*
X66675000Y-42037000D01*
X66675000Y-42037000D02*
X66040000Y-42037000D01*
X66040000Y-42037000D02*
X65278000Y-41275000D01*
X65278000Y-41275000D02*
X60523000Y-41275000D01*
D37*
X66315000Y-40153000D02*
X67183000Y-40767000D01*
X63123000Y-40153000D02*
X66315000Y-40153000D01*
D36*
X62230000Y-25273000D02*
X64188500Y-25273000D01*
X64188500Y-25273000D02*
X64315500Y-25146000D01*
X64135000Y-33274000D02*
X64389000Y-33020000D01*
X62103000Y-33274000D02*
X64135000Y-33274000D01*
X61468000Y-33909000D02*
X62103000Y-33274000D01*
D37*
X61468000Y-34925000D02*
X61468000Y-33909000D01*
X57923000Y-38470000D02*
X61468000Y-34925000D01*
X57923000Y-40153000D02*
X57923000Y-38470000D01*
X59223000Y-38059000D02*
X61849000Y-35433000D01*
X59223000Y-40153000D02*
X59223000Y-38059000D01*
X62103000Y-35433000D02*
X62865000Y-34671000D01*
X61849000Y-35433000D02*
X62103000Y-35433000D01*
D36*
X63627000Y-35941000D02*
X64008000Y-35941000D01*
X65532000Y-34417000D02*
X67998500Y-34417000D01*
X64008000Y-35941000D02*
X65532000Y-34417000D01*
X62611000Y-36322000D02*
X62992000Y-35941000D01*
X62230000Y-36322000D02*
X62611000Y-36322000D01*
X62992000Y-35941000D02*
X63627000Y-35941000D01*
D37*
X61722000Y-36322000D02*
X62230000Y-36322000D01*
X59873000Y-38171000D02*
X59873000Y-40153000D01*
X59873000Y-38171000D02*
X61722000Y-36322000D01*
D36*
X72834500Y-51879500D02*
X74803000Y-53848000D01*
X75692000Y-53848000D02*
X75946000Y-54102000D01*
X74803000Y-53848000D02*
X75692000Y-53848000D01*
X69469000Y-48514000D02*
X72834500Y-51879500D01*
X64262000Y-36830000D02*
X64389000Y-36830000D01*
X69469000Y-36449000D02*
X69469000Y-38100000D01*
X68834000Y-35814000D02*
X69469000Y-36449000D01*
X65405000Y-35814000D02*
X68834000Y-35814000D01*
X64389000Y-36830000D02*
X65405000Y-35814000D01*
X69469000Y-38100000D02*
X69469000Y-40894000D01*
X63881000Y-36830000D02*
X64262000Y-36830000D01*
X69469000Y-40894000D02*
X69469000Y-48514000D01*
X63500000Y-37211000D02*
X63881000Y-36830000D01*
D37*
X61173000Y-37887000D02*
X61849000Y-37211000D01*
X61173000Y-40153000D02*
X61173000Y-37887000D01*
X61849000Y-37211000D02*
X62230000Y-37211000D01*
D36*
X62230000Y-37211000D02*
X63500000Y-37211000D01*
X58674000Y-50419000D02*
X58674000Y-50546000D01*
X58674000Y-50419000D02*
X58674000Y-49784000D01*
D37*
X58573000Y-49683000D02*
X58674000Y-49784000D01*
X58573000Y-45953000D02*
X58573000Y-49683000D01*
D36*
X59309000Y-51181000D02*
X62738000Y-51181000D01*
X58674000Y-50546000D02*
X59309000Y-51181000D01*
X63500000Y-53753000D02*
X63500000Y-51943000D01*
X63500000Y-51943000D02*
X62738000Y-51181000D01*
X63246000Y-53499000D02*
X63500000Y-53753000D01*
X49276000Y-60579000D02*
X54483000Y-60579000D01*
X48768000Y-60071000D02*
X49276000Y-60579000D01*
X48768000Y-52324000D02*
X48768000Y-60071000D01*
X49657000Y-51435000D02*
X48768000Y-52324000D01*
D37*
X57923000Y-47879000D02*
X57404000Y-47879000D01*
D36*
X55880000Y-47117000D02*
X56642000Y-47879000D01*
X56642000Y-47879000D02*
X57404000Y-47879000D01*
X55880000Y-46101000D02*
X55880000Y-47117000D01*
X49657000Y-51435000D02*
X56007000Y-51435000D01*
X56007000Y-51435000D02*
X57923000Y-49519000D01*
D37*
X57923000Y-45953000D02*
X57923000Y-47879000D01*
X57923000Y-47879000D02*
X57923000Y-49519000D01*
D36*
X54483000Y-60579000D02*
X54483000Y-58580000D01*
D37*
X62738000Y-38989000D02*
X67183000Y-38862000D01*
X62473000Y-39254000D02*
X62738000Y-38989000D01*
X62473000Y-40153000D02*
X62473000Y-39254000D01*
X62484000Y-40142000D02*
X62473000Y-40153000D01*
D36*
X59873000Y-44394000D02*
X59873000Y-42743000D01*
X64643000Y-42037000D02*
X66421000Y-43815000D01*
X60579000Y-42037000D02*
X64643000Y-42037000D01*
X59873000Y-42743000D02*
X60579000Y-42037000D01*
D37*
X59873000Y-44394000D02*
X59873000Y-45953000D01*
D36*
X57277000Y-37538500D02*
X57838500Y-37538500D01*
X59563000Y-35814000D02*
X59563000Y-34998500D01*
X57838500Y-37538500D02*
X59563000Y-35814000D01*
D37*
X57277000Y-37538500D02*
X57277000Y-40149000D01*
X57277000Y-40149000D02*
X57273000Y-40153000D01*
D36*
X57277000Y-35613500D02*
X57277000Y-33147000D01*
X57277000Y-33147000D02*
X60706000Y-29718000D01*
X60706000Y-29718000D02*
X62251000Y-29718000D01*
X72136000Y-25119500D02*
X74792500Y-25119500D01*
X74792500Y-25119500D02*
X74827000Y-25085000D01*
X66240500Y-25146000D02*
X72109500Y-25146000D01*
X72109500Y-25146000D02*
X72136000Y-25119500D01*
X77827000Y-26035000D02*
X90170000Y-26035000D01*
X92710000Y-23495000D02*
X100838000Y-23495000D01*
X90170000Y-26035000D02*
X92710000Y-23495000D01*
X70231000Y-47625000D02*
X70231000Y-47879000D01*
X70231000Y-47879000D02*
X74295000Y-51943000D01*
X70231000Y-36449000D02*
X70231000Y-34724500D01*
X70231000Y-34724500D02*
X69923500Y-34417000D01*
X70231000Y-36449000D02*
X70231000Y-39624000D01*
X105410000Y-54102000D02*
X106172000Y-54864000D01*
X70231000Y-39624000D02*
X70231000Y-47625000D01*
X74295000Y-51943000D02*
X103251000Y-51943000D01*
X103251000Y-51943000D02*
X105410000Y-54102000D01*
X59055000Y-56715500D02*
X62462500Y-56715500D01*
X62462500Y-56715500D02*
X63500000Y-57753000D01*
X59055000Y-56715500D02*
X53774500Y-56715500D01*
X53774500Y-56715500D02*
X53213000Y-57277000D01*
X53213000Y-57277000D02*
X53213000Y-58580000D01*
D37*
G36*
X89807564Y-25160000D02*
X79188897Y-25160000D01*
X79024924Y-25047962D01*
X78777000Y-24997756D01*
X76877000Y-24997756D01*
X76645389Y-25041337D01*
X76432668Y-25178219D01*
X76414244Y-25205183D01*
X76414244Y-24685000D01*
X76370663Y-24453389D01*
X76233781Y-24240668D01*
X76024924Y-24097962D01*
X75777000Y-24047756D01*
X73877000Y-24047756D01*
X73645389Y-24091337D01*
X73432668Y-24228219D01*
X73427983Y-24235076D01*
X73342781Y-24102668D01*
X73133924Y-23959962D01*
X72886000Y-23909756D01*
X71386000Y-23909756D01*
X71154389Y-23953337D01*
X70941668Y-24090219D01*
X70818146Y-24271000D01*
X67164395Y-24271000D01*
X67119781Y-24201668D01*
X66910924Y-24058962D01*
X66663000Y-24008756D01*
X65818000Y-24008756D01*
X65586389Y-24052337D01*
X65373668Y-24189219D01*
X65277417Y-24330088D01*
X65194781Y-24201668D01*
X64985924Y-24058962D01*
X64738000Y-24008756D01*
X63893000Y-24008756D01*
X63661389Y-24052337D01*
X63448668Y-24189219D01*
X63306014Y-24398000D01*
X63299375Y-24398000D01*
X63009892Y-24108011D01*
X62504704Y-23898239D01*
X61957695Y-23897762D01*
X61452143Y-24106652D01*
X61065011Y-24493108D01*
X60855239Y-24998296D01*
X60854762Y-25545305D01*
X61063652Y-26050857D01*
X61450108Y-26437989D01*
X61955296Y-26647761D01*
X62502305Y-26648238D01*
X63007857Y-26439348D01*
X63299715Y-26148000D01*
X63520619Y-26148000D01*
X63645076Y-26233038D01*
X63893000Y-26283244D01*
X64738000Y-26283244D01*
X64969611Y-26239663D01*
X65182332Y-26102781D01*
X65278583Y-25961912D01*
X65361219Y-26090332D01*
X65570076Y-26233038D01*
X65818000Y-26283244D01*
X66663000Y-26283244D01*
X66894611Y-26239663D01*
X67107332Y-26102781D01*
X67163211Y-26021000D01*
X70855005Y-26021000D01*
X70929219Y-26136332D01*
X70969953Y-26164164D01*
X70856150Y-26277966D01*
X70761000Y-26507680D01*
X70761000Y-26923250D01*
X70917250Y-27079500D01*
X72011000Y-27079500D01*
X72011000Y-27059500D01*
X72261000Y-27059500D01*
X72261000Y-27079500D01*
X72281000Y-27079500D01*
X72281000Y-27329500D01*
X72261000Y-27329500D01*
X72261000Y-28245750D01*
X72417250Y-28402000D01*
X73010320Y-28402000D01*
X73240034Y-28306849D01*
X73415850Y-28131034D01*
X73510542Y-27902426D01*
X73522966Y-27914850D01*
X73752680Y-28010000D01*
X74545750Y-28010000D01*
X74702000Y-27853750D01*
X74702000Y-27110000D01*
X74952000Y-27110000D01*
X74952000Y-27853750D01*
X75108250Y-28010000D01*
X75901320Y-28010000D01*
X76131034Y-27914850D01*
X76306849Y-27739034D01*
X76402000Y-27509320D01*
X76402000Y-27266250D01*
X76245750Y-27110000D01*
X74952000Y-27110000D01*
X74702000Y-27110000D01*
X74682000Y-27110000D01*
X74682000Y-26860000D01*
X74702000Y-26860000D01*
X74702000Y-26840000D01*
X74952000Y-26840000D01*
X74952000Y-26860000D01*
X76245750Y-26860000D01*
X76344339Y-26761411D01*
X76420219Y-26879332D01*
X76629076Y-27022038D01*
X76877000Y-27072244D01*
X78777000Y-27072244D01*
X79008611Y-27028663D01*
X79193019Y-26910000D01*
X90170000Y-26910000D01*
X90504848Y-26843395D01*
X90788718Y-26653718D01*
X93072437Y-24370000D01*
X98087270Y-24370000D01*
X97752676Y-24436555D01*
X97290373Y-24745456D01*
X96981472Y-25207759D01*
X96873000Y-25753083D01*
X96873000Y-25808917D01*
X96981472Y-26354241D01*
X97290373Y-26816544D01*
X97623828Y-27039352D01*
X86976107Y-27236532D01*
X86888704Y-27200239D01*
X86341695Y-27199762D01*
X86218763Y-27250557D01*
X79497686Y-27375021D01*
X79449244Y-27385768D01*
X79403509Y-27420537D01*
X72403509Y-35920537D01*
X72380195Y-35964338D01*
X72375000Y-36000000D01*
X72375000Y-47500000D01*
X72378952Y-47519516D01*
X72122000Y-47262564D01*
X72122000Y-32914000D01*
X72055395Y-32579152D01*
X71979525Y-32465605D01*
X71865719Y-32295282D01*
X70479856Y-30909420D01*
X70488244Y-30868000D01*
X70488244Y-28568000D01*
X70398509Y-28241943D01*
X70228519Y-28054620D01*
X69999042Y-27948191D01*
X69746238Y-27939426D01*
X66146238Y-28539426D01*
X66019389Y-28574337D01*
X65806668Y-28711219D01*
X65663962Y-28920076D01*
X65613756Y-29168000D01*
X65613756Y-30268000D01*
X65627337Y-30398862D01*
X65727386Y-30631192D01*
X65909941Y-30806292D01*
X66146238Y-30896574D01*
X68361318Y-31265754D01*
X70372000Y-33276437D01*
X70372000Y-33285021D01*
X70346000Y-33279756D01*
X69501000Y-33279756D01*
X69269389Y-33323337D01*
X69056668Y-33460219D01*
X68960417Y-33601088D01*
X68877781Y-33472668D01*
X68668924Y-33329962D01*
X68421000Y-33279756D01*
X67576000Y-33279756D01*
X67344389Y-33323337D01*
X67131668Y-33460219D01*
X67075789Y-33542000D01*
X65661075Y-33542000D01*
X65763761Y-33294704D01*
X65764238Y-32747695D01*
X65555348Y-32242143D01*
X65168892Y-31855011D01*
X64663704Y-31645239D01*
X64116695Y-31644762D01*
X63611143Y-31853652D01*
X63224011Y-32240108D01*
X63158033Y-32399000D01*
X62103000Y-32399000D01*
X61768152Y-32465605D01*
X61484282Y-32655281D01*
X60849282Y-33290282D01*
X60688000Y-33531656D01*
X60688000Y-33354750D01*
X60531750Y-33198500D01*
X59688000Y-33198500D01*
X59688000Y-33218500D01*
X59438000Y-33218500D01*
X59438000Y-33198500D01*
X59418000Y-33198500D01*
X59418000Y-32948500D01*
X59438000Y-32948500D01*
X59438000Y-32928500D01*
X59688000Y-32928500D01*
X59688000Y-32948500D01*
X60531750Y-32948500D01*
X60688000Y-32792250D01*
X60688000Y-32526680D01*
X60592850Y-32296966D01*
X60417034Y-32121151D01*
X60187320Y-32026000D01*
X59844250Y-32026000D01*
X59688002Y-32182248D01*
X59688002Y-32026000D01*
X59635436Y-32026000D01*
X60214605Y-31446832D01*
X60302958Y-31487809D01*
X60555762Y-31496574D01*
X64155762Y-30896574D01*
X64282611Y-30861663D01*
X64495332Y-30724781D01*
X64638038Y-30515924D01*
X64688244Y-30268000D01*
X64688244Y-29168000D01*
X64674663Y-29037138D01*
X64574614Y-28804808D01*
X64392059Y-28629708D01*
X64155762Y-28539426D01*
X60555762Y-27939426D01*
X60219389Y-27974337D01*
X60006668Y-28111219D01*
X59863962Y-28320076D01*
X59813756Y-28568000D01*
X59813756Y-29372807D01*
X58152000Y-31034564D01*
X58152000Y-30660375D01*
X58441989Y-30370892D01*
X58651761Y-29865704D01*
X58652238Y-29318695D01*
X58443348Y-28813143D01*
X58056892Y-28426011D01*
X57551704Y-28216239D01*
X57004695Y-28215762D01*
X56499143Y-28424652D01*
X56112011Y-28811108D01*
X56007001Y-29064001D01*
X55903348Y-28813143D01*
X55516892Y-28426011D01*
X55011704Y-28216239D01*
X54464695Y-28215762D01*
X53959143Y-28424652D01*
X53572011Y-28811108D01*
X53362239Y-29316296D01*
X53361762Y-29863305D01*
X53570652Y-30368857D01*
X53735000Y-30533492D01*
X53735000Y-42418000D01*
X53781150Y-42650011D01*
X53801605Y-42752848D01*
X53991282Y-43036718D01*
X54394320Y-43439756D01*
X53880000Y-43439756D01*
X53648389Y-43483337D01*
X53435668Y-43620219D01*
X53343291Y-43755417D01*
X53329849Y-43722966D01*
X53154034Y-43547150D01*
X52924320Y-43452000D01*
X52658750Y-43452000D01*
X52502500Y-43608250D01*
X52502500Y-44452000D01*
X52522500Y-44452000D01*
X52522500Y-44702000D01*
X52502500Y-44702000D01*
X52502500Y-45545750D01*
X52658750Y-45702000D01*
X52924320Y-45702000D01*
X53154034Y-45606850D01*
X53329849Y-45431034D01*
X53343659Y-45397693D01*
X53423219Y-45521332D01*
X53632076Y-45664038D01*
X53880000Y-45714244D01*
X54551767Y-45714244D01*
X54505239Y-45826296D01*
X54504762Y-46373305D01*
X54713652Y-46878857D01*
X55018343Y-47184081D01*
X55068419Y-47435830D01*
X55071605Y-47451848D01*
X55261282Y-47735718D01*
X56023282Y-48497719D01*
X56307152Y-48687395D01*
X56642000Y-48754000D01*
X57173000Y-48754000D01*
X57173000Y-49031563D01*
X55644564Y-50560000D01*
X49657000Y-50560000D01*
X49322152Y-50626605D01*
X49038282Y-50816281D01*
X48149282Y-51705282D01*
X47959605Y-51989152D01*
X47893000Y-52324000D01*
X47893000Y-58441276D01*
X47188885Y-57735931D01*
X46224436Y-57335456D01*
X45180146Y-57334545D01*
X44214999Y-57733336D01*
X43475931Y-58471115D01*
X43075456Y-59435564D01*
X43074545Y-60479854D01*
X43473336Y-61445001D01*
X44211115Y-62184069D01*
X45175564Y-62584544D01*
X46219854Y-62585455D01*
X47185001Y-62186664D01*
X47924069Y-61448885D01*
X48212891Y-60753327D01*
X48657281Y-61197718D01*
X48941151Y-61387395D01*
X48996706Y-61398445D01*
X49276000Y-61454000D01*
X52871117Y-61454000D01*
X52822151Y-61502966D01*
X52727000Y-61732680D01*
X52727000Y-62075750D01*
X52883250Y-62232000D01*
X53649500Y-62232000D01*
X53649500Y-62212000D01*
X53899500Y-62212000D01*
X53899500Y-62232000D01*
X53919500Y-62232000D01*
X53919500Y-62482000D01*
X53899500Y-62482000D01*
X53899500Y-63325750D01*
X54055750Y-63482000D01*
X54321320Y-63482000D01*
X54551034Y-63386850D01*
X54726849Y-63211034D01*
X54740659Y-63177693D01*
X54820219Y-63301332D01*
X55029076Y-63444038D01*
X55277000Y-63494244D01*
X56122000Y-63494244D01*
X56353611Y-63450663D01*
X56566332Y-63313781D01*
X56637779Y-63209215D01*
X59196000Y-65767436D01*
X59196000Y-68526625D01*
X58906011Y-68816108D01*
X58696239Y-69321296D01*
X58695762Y-69868305D01*
X58904652Y-70373857D01*
X59078956Y-70548465D01*
X58906011Y-70721108D01*
X58696239Y-71226296D01*
X58695762Y-71773305D01*
X58904652Y-72278857D01*
X59291108Y-72665989D01*
X59796296Y-72875761D01*
X60343305Y-72876238D01*
X60848857Y-72667348D01*
X61235989Y-72280892D01*
X61294542Y-72139881D01*
X61324718Y-72119718D01*
X62213719Y-71230718D01*
X62403395Y-70946848D01*
X62448297Y-70721108D01*
X62470000Y-70612000D01*
X62470000Y-68271305D01*
X64283762Y-68271305D01*
X64492652Y-68776857D01*
X64879108Y-69163989D01*
X65384296Y-69373761D01*
X65931305Y-69374238D01*
X66436857Y-69165348D01*
X66823989Y-68778892D01*
X67033761Y-68273704D01*
X67034238Y-67726695D01*
X66825348Y-67221143D01*
X66438892Y-66834011D01*
X65933704Y-66624239D01*
X65386695Y-66623762D01*
X64881143Y-66832652D01*
X64494011Y-67219108D01*
X64284239Y-67724296D01*
X64283762Y-68271305D01*
X62470000Y-68271305D01*
X62470000Y-65151000D01*
X62403395Y-64816152D01*
X62368874Y-64764488D01*
X62213718Y-64532281D01*
X61667279Y-63985842D01*
X62121305Y-63986238D01*
X62626857Y-63777348D01*
X63013575Y-63391305D01*
X64283762Y-63391305D01*
X64492652Y-63896857D01*
X64879108Y-64283989D01*
X65384296Y-64493761D01*
X65931305Y-64494238D01*
X66436857Y-64285348D01*
X66823989Y-63898892D01*
X67033761Y-63393704D01*
X67034238Y-62846695D01*
X66825348Y-62341143D01*
X66438892Y-61954011D01*
X65933704Y-61744239D01*
X65386695Y-61743762D01*
X64881143Y-61952652D01*
X64494011Y-62339108D01*
X64284239Y-62844296D01*
X64283762Y-63391305D01*
X63013575Y-63391305D01*
X63013989Y-63390892D01*
X63223761Y-62885704D01*
X63224238Y-62338695D01*
X63015348Y-61833143D01*
X62714045Y-61531313D01*
X63013989Y-61231892D01*
X63223761Y-60726704D01*
X63224238Y-60179695D01*
X63015348Y-59674143D01*
X62981508Y-59640244D01*
X64400000Y-59640244D01*
X64631611Y-59596663D01*
X64844332Y-59459781D01*
X64987038Y-59250924D01*
X65037244Y-59003000D01*
X65037244Y-56503000D01*
X65490758Y-56503000D01*
X65578152Y-56561395D01*
X65913000Y-56627999D01*
X66247848Y-56561395D01*
X66531718Y-56371718D01*
X66785718Y-56117719D01*
X66975395Y-55833848D01*
X67042000Y-55499000D01*
X67042000Y-52785436D01*
X69991000Y-55734437D01*
X69991000Y-69868563D01*
X68725564Y-71134000D01*
X63754000Y-71134000D01*
X63419152Y-71200605D01*
X63135281Y-71390282D01*
X61303782Y-73221782D01*
X61114105Y-73505652D01*
X61047500Y-73840500D01*
X61047500Y-82875173D01*
X60959417Y-83004088D01*
X60876781Y-82875668D01*
X60667924Y-82732962D01*
X60420000Y-82682756D01*
X60388930Y-82682756D01*
X60418244Y-82538000D01*
X60418244Y-81038000D01*
X60374663Y-80806389D01*
X60237781Y-80593668D01*
X60028924Y-80450962D01*
X59781000Y-80400756D01*
X58636000Y-80400756D01*
X58404389Y-80444337D01*
X58191668Y-80581219D01*
X58163836Y-80621953D01*
X58050034Y-80508150D01*
X57820320Y-80413000D01*
X57404750Y-80413000D01*
X57248500Y-80569250D01*
X57248500Y-81663000D01*
X57268500Y-81663000D01*
X57268500Y-81913000D01*
X57248500Y-81913000D01*
X57248500Y-83006750D01*
X57404750Y-83163000D01*
X57820320Y-83163000D01*
X58050034Y-83067850D01*
X58162122Y-82955762D01*
X58179219Y-82982332D01*
X58346563Y-83096673D01*
X58380214Y-83265848D01*
X58400105Y-83365848D01*
X58589782Y-83649718D01*
X58937756Y-83997692D01*
X58937756Y-84320000D01*
X58981337Y-84551611D01*
X59118219Y-84764332D01*
X59122500Y-84767257D01*
X59122500Y-85007756D01*
X59018000Y-85007756D01*
X58786389Y-85051337D01*
X58573668Y-85188219D01*
X58430962Y-85397076D01*
X58380756Y-85645000D01*
X58380756Y-86445000D01*
X58424337Y-86676611D01*
X58561219Y-86889332D01*
X58714640Y-86994160D01*
X58663966Y-87015150D01*
X58488151Y-87190966D01*
X58393000Y-87420680D01*
X58393000Y-87663750D01*
X58549250Y-87820000D01*
X59843000Y-87820000D01*
X59843000Y-87800000D01*
X60093000Y-87800000D01*
X60093000Y-87820000D01*
X61386750Y-87820000D01*
X61485339Y-87721411D01*
X61561219Y-87839332D01*
X61770076Y-87982038D01*
X62018000Y-88032244D01*
X63918000Y-88032244D01*
X64149611Y-87988663D01*
X64334019Y-87870000D01*
X64915837Y-87870000D01*
X65004456Y-88002627D01*
X65167300Y-88111436D01*
X65008389Y-88141337D01*
X64795668Y-88278219D01*
X64652962Y-88487076D01*
X64602756Y-88735000D01*
X64602756Y-90335000D01*
X64646337Y-90566611D01*
X64783219Y-90779332D01*
X64992076Y-90922038D01*
X65240000Y-90972244D01*
X66840000Y-90972244D01*
X67071611Y-90928663D01*
X67284332Y-90791781D01*
X67427038Y-90582924D01*
X67446306Y-90487778D01*
X67451076Y-90491038D01*
X67699000Y-90541244D01*
X68699000Y-90541244D01*
X68930611Y-90497663D01*
X69143332Y-90360781D01*
X69286038Y-90151924D01*
X69336244Y-89904000D01*
X69336244Y-89059000D01*
X69292663Y-88827389D01*
X69155781Y-88614668D01*
X69014912Y-88518417D01*
X69143332Y-88435781D01*
X69286038Y-88226924D01*
X69336244Y-87979000D01*
X69336244Y-87134000D01*
X69292663Y-86902389D01*
X69155781Y-86689668D01*
X69074000Y-86633789D01*
X69074000Y-85706395D01*
X69143332Y-85661781D01*
X69286038Y-85452924D01*
X69336244Y-85205000D01*
X69336244Y-84427083D01*
X77442000Y-84427083D01*
X77442000Y-84482917D01*
X77550472Y-85028241D01*
X77859373Y-85490544D01*
X78321676Y-85799445D01*
X78867000Y-85907917D01*
X79412324Y-85799445D01*
X79874627Y-85490544D01*
X79983436Y-85327700D01*
X80013337Y-85486611D01*
X80150219Y-85699332D01*
X80359076Y-85842038D01*
X80607000Y-85892244D01*
X82207000Y-85892244D01*
X82438611Y-85848663D01*
X82651332Y-85711781D01*
X82794038Y-85502924D01*
X82844244Y-85255000D01*
X82844244Y-83655000D01*
X82800663Y-83423389D01*
X82663781Y-83210668D01*
X82454924Y-83067962D01*
X82207000Y-83017756D01*
X80607000Y-83017756D01*
X80375389Y-83061337D01*
X80162668Y-83198219D01*
X80019962Y-83407076D01*
X79984236Y-83583497D01*
X79874627Y-83419456D01*
X79412324Y-83110555D01*
X78867000Y-83002083D01*
X78321676Y-83110555D01*
X77859373Y-83419456D01*
X77550472Y-83881759D01*
X77442000Y-84427083D01*
X69336244Y-84427083D01*
X69336244Y-84360000D01*
X69292663Y-84128389D01*
X69155781Y-83915668D01*
X69014912Y-83819417D01*
X69143332Y-83736781D01*
X69286038Y-83527924D01*
X69336244Y-83280000D01*
X69336244Y-82435000D01*
X69292663Y-82203389D01*
X69155781Y-81990668D01*
X68946924Y-81847962D01*
X68699000Y-81797756D01*
X67699000Y-81797756D01*
X67467389Y-81841337D01*
X67417122Y-81873683D01*
X67296781Y-81686668D01*
X67087924Y-81543962D01*
X66911503Y-81508236D01*
X67075544Y-81398627D01*
X67384445Y-80936324D01*
X67492917Y-80391000D01*
X67384445Y-79845676D01*
X67075544Y-79383373D01*
X66939000Y-79292137D01*
X66939000Y-77618244D01*
X67014000Y-77618244D01*
X67245611Y-77574663D01*
X67458332Y-77437781D01*
X67476756Y-77410817D01*
X67476756Y-77931000D01*
X67520337Y-78162611D01*
X67657219Y-78375332D01*
X67866076Y-78518038D01*
X68114000Y-78568244D01*
X70014000Y-78568244D01*
X70222577Y-78528997D01*
X70294219Y-78640332D01*
X70503076Y-78783038D01*
X70751000Y-78833244D01*
X72251000Y-78833244D01*
X72482611Y-78789663D01*
X72695332Y-78652781D01*
X72838038Y-78443924D01*
X72843063Y-78419108D01*
X73039076Y-78553038D01*
X73287000Y-78603244D01*
X74287000Y-78603244D01*
X74518611Y-78559663D01*
X74731332Y-78422781D01*
X74874038Y-78213924D01*
X74924244Y-77966000D01*
X74924244Y-77180522D01*
X77484514Y-77180522D01*
X77721975Y-77683275D01*
X78133756Y-78056886D01*
X78521479Y-78217476D01*
X78742000Y-78097577D01*
X78742000Y-76960000D01*
X77603733Y-76960000D01*
X77484514Y-77180522D01*
X74924244Y-77180522D01*
X74924244Y-77121000D01*
X74880663Y-76889389D01*
X74743781Y-76676668D01*
X74602912Y-76580417D01*
X74731332Y-76497781D01*
X74737005Y-76489478D01*
X77484514Y-76489478D01*
X77603733Y-76710000D01*
X78742000Y-76710000D01*
X78742000Y-75572423D01*
X78992000Y-75572423D01*
X78992000Y-76710000D01*
X79012000Y-76710000D01*
X79012000Y-76960000D01*
X78992000Y-76960000D01*
X78992000Y-78097577D01*
X79212521Y-78217476D01*
X79600244Y-78056886D01*
X80012025Y-77683275D01*
X80120619Y-77453359D01*
X80399373Y-77870544D01*
X80861676Y-78179445D01*
X81407000Y-78287917D01*
X81952324Y-78179445D01*
X82414627Y-77870544D01*
X82723528Y-77408241D01*
X82832000Y-76862917D01*
X82832000Y-76807083D01*
X82723528Y-76261759D01*
X82414627Y-75799456D01*
X81952324Y-75490555D01*
X81407000Y-75382083D01*
X80861676Y-75490555D01*
X80399373Y-75799456D01*
X80120619Y-76216641D01*
X80012025Y-75986725D01*
X79600244Y-75613114D01*
X79212521Y-75452524D01*
X78992000Y-75572423D01*
X78742000Y-75572423D01*
X78521479Y-75452524D01*
X78133756Y-75613114D01*
X77721975Y-75986725D01*
X77484514Y-76489478D01*
X74737005Y-76489478D01*
X74874038Y-76288924D01*
X74924244Y-76041000D01*
X74924244Y-75196000D01*
X74880663Y-74964389D01*
X74743781Y-74751668D01*
X74662000Y-74695789D01*
X74662000Y-74295000D01*
X74595395Y-73960152D01*
X74405718Y-73676282D01*
X72503000Y-71773564D01*
X72503000Y-58246436D01*
X73422281Y-59165718D01*
X73706151Y-59355395D01*
X73761706Y-59366445D01*
X74041000Y-59422000D01*
X79012564Y-59422000D01*
X79770000Y-60179437D01*
X79770000Y-71882000D01*
X79836605Y-72216848D01*
X80026282Y-72500718D01*
X86884282Y-79358719D01*
X86884285Y-79358721D01*
X88154281Y-80628718D01*
X88299646Y-80725848D01*
X88438152Y-80818395D01*
X88773000Y-80885000D01*
X91515327Y-80885000D01*
X91626219Y-81057332D01*
X91767088Y-81153583D01*
X91638668Y-81236219D01*
X91495962Y-81445076D01*
X91445756Y-81693000D01*
X91445756Y-82538000D01*
X91463294Y-82631205D01*
X91425389Y-82638337D01*
X91296046Y-82721567D01*
X91249781Y-82649668D01*
X91040924Y-82506962D01*
X90793000Y-82456756D01*
X89293000Y-82456756D01*
X89061389Y-82500337D01*
X88848668Y-82637219D01*
X88705962Y-82846076D01*
X88655756Y-83094000D01*
X88655756Y-84239000D01*
X88699337Y-84470611D01*
X88836219Y-84683332D01*
X88876953Y-84711164D01*
X88763150Y-84824966D01*
X88668000Y-85054680D01*
X88668000Y-85470250D01*
X88824250Y-85626500D01*
X89918000Y-85626500D01*
X89918000Y-85606500D01*
X90168000Y-85606500D01*
X90168000Y-85626500D01*
X90188000Y-85626500D01*
X90188000Y-85876500D01*
X90168000Y-85876500D01*
X90168000Y-86792750D01*
X90324250Y-86949000D01*
X90917320Y-86949000D01*
X91147034Y-86853849D01*
X91322850Y-86678034D01*
X91396370Y-86500539D01*
X91532680Y-86557000D01*
X92325750Y-86557000D01*
X92482000Y-86400750D01*
X92482000Y-85657000D01*
X92732000Y-85657000D01*
X92732000Y-86400750D01*
X92888250Y-86557000D01*
X93681320Y-86557000D01*
X93911034Y-86461850D01*
X94086849Y-86286034D01*
X94182000Y-86056320D01*
X94182000Y-85813250D01*
X94025750Y-85657000D01*
X92732000Y-85657000D01*
X92482000Y-85657000D01*
X92462000Y-85657000D01*
X92462000Y-85407000D01*
X92482000Y-85407000D01*
X92482000Y-85387000D01*
X92732000Y-85387000D01*
X92732000Y-85407000D01*
X94025750Y-85407000D01*
X94124339Y-85308411D01*
X94200219Y-85426332D01*
X94409076Y-85569038D01*
X94550000Y-85597576D01*
X94550000Y-87375000D01*
X87990000Y-87375000D01*
X87990000Y-86032750D01*
X88668000Y-86032750D01*
X88668000Y-86448320D01*
X88763150Y-86678034D01*
X88938966Y-86853849D01*
X89168680Y-86949000D01*
X89761750Y-86949000D01*
X89918000Y-86792750D01*
X89918000Y-85876500D01*
X88824250Y-85876500D01*
X88668000Y-86032750D01*
X87990000Y-86032750D01*
X87990000Y-82162000D01*
X87923395Y-81827152D01*
X87883400Y-81767296D01*
X87733718Y-81543281D01*
X85962718Y-79772282D01*
X85678848Y-79582605D01*
X85344000Y-79516000D01*
X74784163Y-79516000D01*
X74695544Y-79383373D01*
X74233241Y-79074472D01*
X73687917Y-78966000D01*
X73632083Y-78966000D01*
X73086759Y-79074472D01*
X72624456Y-79383373D01*
X72315555Y-79845676D01*
X72207083Y-80391000D01*
X72315555Y-80936324D01*
X72624456Y-81398627D01*
X73017125Y-81661000D01*
X72624456Y-81923373D01*
X72315555Y-82385676D01*
X72207083Y-82931000D01*
X72315555Y-83476324D01*
X72624456Y-83938627D01*
X73086759Y-84247528D01*
X73632083Y-84356000D01*
X73687917Y-84356000D01*
X74233241Y-84247528D01*
X74695544Y-83938627D01*
X75004445Y-83476324D01*
X75008749Y-83454687D01*
X75800437Y-82663000D01*
X82314564Y-82663000D01*
X83453000Y-83801437D01*
X83453000Y-85979000D01*
X83470000Y-86064465D01*
X83470000Y-87375000D01*
X82135437Y-87375000D01*
X81136718Y-86376282D01*
X80852848Y-86186605D01*
X80518000Y-86120000D01*
X74784163Y-86120000D01*
X74695544Y-85987373D01*
X74233241Y-85678472D01*
X73687917Y-85570000D01*
X73632083Y-85570000D01*
X73086759Y-85678472D01*
X72624456Y-85987373D01*
X72315555Y-86449676D01*
X72207083Y-86995000D01*
X72315555Y-87540324D01*
X72624456Y-88002627D01*
X73017125Y-88265000D01*
X72624456Y-88527373D01*
X72315555Y-88989676D01*
X72207083Y-89535000D01*
X72315555Y-90080324D01*
X72624456Y-90542627D01*
X73086759Y-90851528D01*
X73632083Y-90960000D01*
X73687917Y-90960000D01*
X73821076Y-90933513D01*
X74506282Y-91618719D01*
X74790152Y-91808395D01*
X75125000Y-91875000D01*
X45324459Y-91875000D01*
X46050715Y-91574917D01*
X47071334Y-90556079D01*
X47624369Y-89224220D01*
X47625240Y-88226250D01*
X58393000Y-88226250D01*
X58393000Y-88469320D01*
X58488151Y-88699034D01*
X58663966Y-88874850D01*
X58893680Y-88970000D01*
X59686750Y-88970000D01*
X59843000Y-88813750D01*
X59843000Y-88070000D01*
X60093000Y-88070000D01*
X60093000Y-88813750D01*
X60249250Y-88970000D01*
X61042320Y-88970000D01*
X61272034Y-88874850D01*
X61447849Y-88699034D01*
X61543000Y-88469320D01*
X61543000Y-88226250D01*
X61386750Y-88070000D01*
X60093000Y-88070000D01*
X59843000Y-88070000D01*
X58549250Y-88070000D01*
X58393000Y-88226250D01*
X47625240Y-88226250D01*
X47625628Y-87782106D01*
X47074917Y-86449285D01*
X46056079Y-85428666D01*
X45173946Y-85062373D01*
X50637946Y-85062373D01*
X50882185Y-85583497D01*
X51307258Y-85971487D01*
X51716628Y-86141045D01*
X51945000Y-86021812D01*
X51945000Y-84834000D01*
X50756547Y-84834000D01*
X50637946Y-85062373D01*
X45173946Y-85062373D01*
X44724220Y-84875631D01*
X43282106Y-84874372D01*
X41949285Y-85425083D01*
X40928666Y-86443921D01*
X40375631Y-87775780D01*
X40374372Y-89217894D01*
X40925083Y-90550715D01*
X41943921Y-91571334D01*
X42675231Y-91875000D01*
X39625000Y-91875000D01*
X39625000Y-84355627D01*
X50637946Y-84355627D01*
X50756547Y-84584000D01*
X51945000Y-84584000D01*
X51945000Y-83396188D01*
X52195000Y-83396188D01*
X52195000Y-84584000D01*
X52215000Y-84584000D01*
X52215000Y-84834000D01*
X52195000Y-84834000D01*
X52195000Y-86021812D01*
X52423372Y-86141045D01*
X52832742Y-85971487D01*
X53146486Y-85685114D01*
X53166337Y-85790611D01*
X53303219Y-86003332D01*
X53512076Y-86146038D01*
X53760000Y-86196244D01*
X55460000Y-86196244D01*
X55691611Y-86152663D01*
X55904332Y-86015781D01*
X56047038Y-85806924D01*
X56097244Y-85559000D01*
X56097244Y-83859000D01*
X56053663Y-83627389D01*
X55916781Y-83414668D01*
X55707924Y-83271962D01*
X55460000Y-83221756D01*
X53760000Y-83221756D01*
X53528389Y-83265337D01*
X53315668Y-83402219D01*
X53172962Y-83611076D01*
X53148013Y-83734280D01*
X52832742Y-83446513D01*
X52423372Y-83276955D01*
X52195000Y-83396188D01*
X51945000Y-83396188D01*
X51716628Y-83276955D01*
X51307258Y-83446513D01*
X50882185Y-83834503D01*
X50637946Y-84355627D01*
X39625000Y-84355627D01*
X39625000Y-82069250D01*
X55926000Y-82069250D01*
X55926000Y-82662320D01*
X56021151Y-82892034D01*
X56196966Y-83067850D01*
X56426680Y-83163000D01*
X56842250Y-83163000D01*
X56998500Y-83006750D01*
X56998500Y-81913000D01*
X56082250Y-81913000D01*
X55926000Y-82069250D01*
X39625000Y-82069250D01*
X39625000Y-80913680D01*
X55926000Y-80913680D01*
X55926000Y-81506750D01*
X56082250Y-81663000D01*
X56998500Y-81663000D01*
X56998500Y-80569250D01*
X56842250Y-80413000D01*
X56426680Y-80413000D01*
X56196966Y-80508150D01*
X56021151Y-80683966D01*
X55926000Y-80913680D01*
X39625000Y-80913680D01*
X39625000Y-80128821D01*
X40577955Y-80128821D01*
X40719790Y-80429444D01*
X41452365Y-80713460D01*
X42237865Y-80695512D01*
X42880210Y-80429444D01*
X43022045Y-80128821D01*
X41800000Y-78906777D01*
X40577955Y-80128821D01*
X39625000Y-80128821D01*
X39625000Y-78382365D01*
X39816540Y-78382365D01*
X39834488Y-79167865D01*
X40100556Y-79810210D01*
X40401179Y-79952045D01*
X41623223Y-78730000D01*
X41976777Y-78730000D01*
X43198821Y-79952045D01*
X43499444Y-79810210D01*
X43783460Y-79077635D01*
X43765512Y-78292135D01*
X43499444Y-77649790D01*
X43198821Y-77507955D01*
X41976777Y-78730000D01*
X41623223Y-78730000D01*
X40401179Y-77507955D01*
X40100556Y-77649790D01*
X39816540Y-78382365D01*
X39625000Y-78382365D01*
X39625000Y-77331179D01*
X40577955Y-77331179D01*
X41800000Y-78553223D01*
X43022045Y-77331179D01*
X42880210Y-77030556D01*
X42147635Y-76746540D01*
X41362135Y-76764488D01*
X40719790Y-77030556D01*
X40577955Y-77331179D01*
X39625000Y-77331179D01*
X39625000Y-74972023D01*
X43704754Y-74972023D01*
X43774354Y-75211429D01*
X44293183Y-75396907D01*
X44843500Y-75369720D01*
X45225646Y-75211429D01*
X45295246Y-74972023D01*
X44500000Y-74176777D01*
X43704754Y-74972023D01*
X39625000Y-74972023D01*
X39625000Y-73793183D01*
X43103093Y-73793183D01*
X43130280Y-74343500D01*
X43288571Y-74725646D01*
X43527977Y-74795246D01*
X44323223Y-74000000D01*
X43527977Y-73204754D01*
X43288571Y-73274354D01*
X43103093Y-73793183D01*
X39625000Y-73793183D01*
X39625000Y-71734285D01*
X43114760Y-71734285D01*
X43325169Y-72243515D01*
X43714436Y-72633461D01*
X43931361Y-72723536D01*
X43774354Y-72788571D01*
X43704754Y-73027977D01*
X44500000Y-73823223D01*
X45295246Y-73027977D01*
X45225646Y-72788571D01*
X45057186Y-72728348D01*
X45283515Y-72634831D01*
X45500036Y-72418687D01*
X45714436Y-72633461D01*
X45946870Y-72729976D01*
X45716485Y-72825169D01*
X45326539Y-73214436D01*
X45230107Y-73446670D01*
X44676777Y-74000000D01*
X45230025Y-74553248D01*
X45325169Y-74783515D01*
X45714436Y-75173461D01*
X46223298Y-75384759D01*
X46774285Y-75385240D01*
X47283515Y-75174831D01*
X47673461Y-74785564D01*
X47884759Y-74276702D01*
X47885240Y-73725715D01*
X47674831Y-73216485D01*
X47285564Y-72826539D01*
X47053130Y-72730024D01*
X47283515Y-72634831D01*
X47673461Y-72245564D01*
X47884759Y-71736702D01*
X47885240Y-71185715D01*
X47674831Y-70676485D01*
X47285564Y-70286539D01*
X46776702Y-70075241D01*
X46225715Y-70074760D01*
X45716485Y-70285169D01*
X45499964Y-70501313D01*
X45285564Y-70286539D01*
X44776702Y-70075241D01*
X44225715Y-70074760D01*
X43716485Y-70285169D01*
X43326539Y-70674436D01*
X43115241Y-71183298D01*
X43114760Y-71734285D01*
X39625000Y-71734285D01*
X39625000Y-68128821D01*
X40577955Y-68128821D01*
X40719790Y-68429444D01*
X41452365Y-68713460D01*
X42237865Y-68695512D01*
X42880210Y-68429444D01*
X43022045Y-68128821D01*
X41800000Y-66906777D01*
X40577955Y-68128821D01*
X39625000Y-68128821D01*
X39625000Y-66382365D01*
X39816540Y-66382365D01*
X39834488Y-67167865D01*
X40100556Y-67810210D01*
X40401179Y-67952045D01*
X41623223Y-66730000D01*
X41976777Y-66730000D01*
X43198821Y-67952045D01*
X43499444Y-67810210D01*
X43783460Y-67077635D01*
X43765512Y-66292135D01*
X43499444Y-65649790D01*
X43198821Y-65507955D01*
X41976777Y-66730000D01*
X41623223Y-66730000D01*
X40401179Y-65507955D01*
X40100556Y-65649790D01*
X39816540Y-66382365D01*
X39625000Y-66382365D01*
X39625000Y-65331179D01*
X40577955Y-65331179D01*
X41800000Y-66553223D01*
X43022045Y-65331179D01*
X42880210Y-65030556D01*
X42147635Y-64746540D01*
X41362135Y-64764488D01*
X40719790Y-65030556D01*
X40577955Y-65331179D01*
X39625000Y-65331179D01*
X39625000Y-62638250D01*
X52727000Y-62638250D01*
X52727000Y-62981320D01*
X52822151Y-63211034D01*
X52997966Y-63386850D01*
X53227680Y-63482000D01*
X53493250Y-63482000D01*
X53649500Y-63325750D01*
X53649500Y-62482000D01*
X52883250Y-62482000D01*
X52727000Y-62638250D01*
X39625000Y-62638250D01*
X39625000Y-43587206D01*
X41734754Y-43587206D01*
X41951240Y-44111143D01*
X42351749Y-44512351D01*
X42779981Y-44690169D01*
X42353857Y-44866240D01*
X41952649Y-45266749D01*
X41735248Y-45790307D01*
X41734754Y-46357206D01*
X41951240Y-46881143D01*
X42351749Y-47282351D01*
X42779981Y-47460169D01*
X42353857Y-47636240D01*
X41952649Y-48036749D01*
X41735248Y-48560307D01*
X41734754Y-49127206D01*
X41951240Y-49651143D01*
X42351749Y-50052351D01*
X42779981Y-50230169D01*
X42353857Y-50406240D01*
X41952649Y-50806749D01*
X41735248Y-51330307D01*
X41734754Y-51897206D01*
X41951240Y-52421143D01*
X42351749Y-52822351D01*
X42875307Y-53039752D01*
X43442206Y-53040246D01*
X43966143Y-52823760D01*
X44367351Y-52423251D01*
X44460053Y-52200000D01*
X44562756Y-52200000D01*
X44562756Y-53800000D01*
X44606337Y-54031611D01*
X44743219Y-54244332D01*
X44952076Y-54387038D01*
X45200000Y-54437244D01*
X46800000Y-54437244D01*
X47031611Y-54393663D01*
X47244332Y-54256781D01*
X47387038Y-54047924D01*
X47437244Y-53800000D01*
X47437244Y-52200000D01*
X47393663Y-51968389D01*
X47256781Y-51755668D01*
X47047924Y-51612962D01*
X46800000Y-51562756D01*
X46506049Y-51562756D01*
X46806143Y-51438760D01*
X47207351Y-51038251D01*
X47424752Y-50514693D01*
X47425246Y-49947794D01*
X47208760Y-49423857D01*
X46808251Y-49022649D01*
X46380019Y-48844831D01*
X46806143Y-48668760D01*
X47207351Y-48268251D01*
X47424752Y-47744693D01*
X47425246Y-47177794D01*
X47208760Y-46653857D01*
X46808251Y-46252649D01*
X46380019Y-46074831D01*
X46806143Y-45898760D01*
X47207351Y-45498251D01*
X47424752Y-44974693D01*
X47424853Y-44858250D01*
X51330000Y-44858250D01*
X51330000Y-45201320D01*
X51425151Y-45431034D01*
X51600966Y-45606850D01*
X51830680Y-45702000D01*
X52096250Y-45702000D01*
X52252500Y-45545750D01*
X52252500Y-44702000D01*
X51486250Y-44702000D01*
X51330000Y-44858250D01*
X47424853Y-44858250D01*
X47425246Y-44407794D01*
X47237198Y-43952680D01*
X51330000Y-43952680D01*
X51330000Y-44295750D01*
X51486250Y-44452000D01*
X52252500Y-44452000D01*
X52252500Y-43608250D01*
X52096250Y-43452000D01*
X51830680Y-43452000D01*
X51600966Y-43547150D01*
X51425151Y-43722966D01*
X51330000Y-43952680D01*
X47237198Y-43952680D01*
X47208760Y-43883857D01*
X46808251Y-43482649D01*
X46395512Y-43311264D01*
X46749709Y-43164550D01*
X46824223Y-42921000D01*
X46000000Y-42096777D01*
X45175777Y-42921000D01*
X45250291Y-43164550D01*
X45629569Y-43301208D01*
X45193857Y-43481240D01*
X44792649Y-43881749D01*
X44575248Y-44405307D01*
X44574754Y-44972206D01*
X44791240Y-45496143D01*
X45191749Y-45897351D01*
X45619981Y-46075169D01*
X45193857Y-46251240D01*
X44792649Y-46651749D01*
X44575248Y-47175307D01*
X44574754Y-47742206D01*
X44791240Y-48266143D01*
X45191749Y-48667351D01*
X45619981Y-48845169D01*
X45193857Y-49021240D01*
X44792649Y-49421749D01*
X44575248Y-49945307D01*
X44574754Y-50512206D01*
X44791240Y-51036143D01*
X45191749Y-51437351D01*
X45493757Y-51562756D01*
X45200000Y-51562756D01*
X44968389Y-51606337D01*
X44755668Y-51743219D01*
X44612962Y-51952076D01*
X44562756Y-52200000D01*
X44460053Y-52200000D01*
X44584752Y-51899693D01*
X44585246Y-51332794D01*
X44368760Y-50808857D01*
X43968251Y-50407649D01*
X43540019Y-50229831D01*
X43966143Y-50053760D01*
X44367351Y-49653251D01*
X44584752Y-49129693D01*
X44585246Y-48562794D01*
X44368760Y-48038857D01*
X43968251Y-47637649D01*
X43540019Y-47459831D01*
X43966143Y-47283760D01*
X44367351Y-46883251D01*
X44584752Y-46359693D01*
X44585246Y-45792794D01*
X44368760Y-45268857D01*
X43968251Y-44867649D01*
X43540019Y-44689831D01*
X43966143Y-44513760D01*
X44367351Y-44113251D01*
X44584752Y-43589693D01*
X44585246Y-43022794D01*
X44368760Y-42498857D01*
X43968251Y-42097649D01*
X43444693Y-41880248D01*
X42877794Y-41879754D01*
X42353857Y-42096240D01*
X41952649Y-42496749D01*
X41735248Y-43020307D01*
X41734754Y-43587206D01*
X39625000Y-43587206D01*
X39625000Y-41703627D01*
X44563284Y-41703627D01*
X44589845Y-42269905D01*
X44755450Y-42669709D01*
X44999000Y-42744223D01*
X45823223Y-41920000D01*
X46176777Y-41920000D01*
X47001000Y-42744223D01*
X47244550Y-42669709D01*
X47436716Y-42136373D01*
X47410155Y-41570095D01*
X47244550Y-41170291D01*
X47001000Y-41095777D01*
X46176777Y-41920000D01*
X45823223Y-41920000D01*
X44999000Y-41095777D01*
X44755450Y-41170291D01*
X44563284Y-41703627D01*
X39625000Y-41703627D01*
X39625000Y-40919000D01*
X45175777Y-40919000D01*
X46000000Y-41743223D01*
X46824223Y-40919000D01*
X46749709Y-40675450D01*
X46216373Y-40483284D01*
X45650095Y-40509845D01*
X45250291Y-40675450D01*
X45175777Y-40919000D01*
X39625000Y-40919000D01*
X39625000Y-35479854D01*
X43074545Y-35479854D01*
X43473336Y-36445001D01*
X44211115Y-37184069D01*
X45175564Y-37584544D01*
X46219854Y-37585455D01*
X47185001Y-37186664D01*
X47924069Y-36448885D01*
X48324544Y-35484436D01*
X48325455Y-34440146D01*
X47926664Y-33474999D01*
X47188885Y-32735931D01*
X46224436Y-32335456D01*
X45180146Y-32334545D01*
X44214999Y-32733336D01*
X43475931Y-33471115D01*
X43075456Y-34435564D01*
X43074545Y-35479854D01*
X39625000Y-35479854D01*
X39625000Y-27717894D01*
X40374372Y-27717894D01*
X40925083Y-29050715D01*
X41943921Y-30071334D01*
X43275780Y-30624369D01*
X44717894Y-30625628D01*
X46050715Y-30074917D01*
X47071334Y-29056079D01*
X47624369Y-27724220D01*
X47624577Y-27485750D01*
X70761000Y-27485750D01*
X70761000Y-27901320D01*
X70856150Y-28131034D01*
X71031966Y-28306849D01*
X71261680Y-28402000D01*
X71854750Y-28402000D01*
X72011000Y-28245750D01*
X72011000Y-27329500D01*
X70917250Y-27329500D01*
X70761000Y-27485750D01*
X47624577Y-27485750D01*
X47625628Y-26282106D01*
X47534786Y-26062250D01*
X50722000Y-26062250D01*
X50722000Y-26755320D01*
X50817150Y-26985034D01*
X50992966Y-27160849D01*
X51222680Y-27256000D01*
X51915750Y-27256000D01*
X52072000Y-27099750D01*
X52072000Y-25906000D01*
X50878250Y-25906000D01*
X50722000Y-26062250D01*
X47534786Y-26062250D01*
X47074917Y-24949285D01*
X46932561Y-24806680D01*
X50722000Y-24806680D01*
X50722000Y-25499750D01*
X50878250Y-25656000D01*
X52072000Y-25656000D01*
X52072000Y-24462250D01*
X52322000Y-24462250D01*
X52322000Y-25656000D01*
X52342000Y-25656000D01*
X52342000Y-25906000D01*
X52322000Y-25906000D01*
X52322000Y-27099750D01*
X52478250Y-27256000D01*
X53171320Y-27256000D01*
X53401034Y-27160849D01*
X53576850Y-26985034D01*
X53655479Y-26795204D01*
X53694017Y-26852880D01*
X54172542Y-27172619D01*
X54737000Y-27284897D01*
X55301458Y-27172619D01*
X55779983Y-26852880D01*
X56007000Y-26513124D01*
X56234017Y-26852880D01*
X56712542Y-27172619D01*
X57277000Y-27284897D01*
X57841458Y-27172619D01*
X58319983Y-26852880D01*
X58639722Y-26374355D01*
X58752000Y-25809897D01*
X58752000Y-25752103D01*
X58639722Y-25187645D01*
X58319983Y-24709120D01*
X57841458Y-24389381D01*
X57277000Y-24277103D01*
X56712542Y-24389381D01*
X56234017Y-24709120D01*
X56007000Y-25048876D01*
X55779983Y-24709120D01*
X55301458Y-24389381D01*
X54737000Y-24277103D01*
X54172542Y-24389381D01*
X53694017Y-24709120D01*
X53655479Y-24766796D01*
X53576850Y-24576966D01*
X53401034Y-24401151D01*
X53171320Y-24306000D01*
X52478250Y-24306000D01*
X52322000Y-24462250D01*
X52072000Y-24462250D01*
X51915750Y-24306000D01*
X51222680Y-24306000D01*
X50992966Y-24401151D01*
X50817150Y-24576966D01*
X50722000Y-24806680D01*
X46932561Y-24806680D01*
X46056079Y-23928666D01*
X44724220Y-23375631D01*
X43282106Y-23374372D01*
X41949285Y-23925083D01*
X40928666Y-24943921D01*
X40375631Y-26275780D01*
X40374372Y-27717894D01*
X39625000Y-27717894D01*
X39625000Y-23125000D01*
X91842563Y-23125000D01*
X89807564Y-25160000D01*
X89807564Y-25160000D01*
G37*
X89807564Y-25160000D02*
X79188897Y-25160000D01*
X79024924Y-25047962D01*
X78777000Y-24997756D01*
X76877000Y-24997756D01*
X76645389Y-25041337D01*
X76432668Y-25178219D01*
X76414244Y-25205183D01*
X76414244Y-24685000D01*
X76370663Y-24453389D01*
X76233781Y-24240668D01*
X76024924Y-24097962D01*
X75777000Y-24047756D01*
X73877000Y-24047756D01*
X73645389Y-24091337D01*
X73432668Y-24228219D01*
X73427983Y-24235076D01*
X73342781Y-24102668D01*
X73133924Y-23959962D01*
X72886000Y-23909756D01*
X71386000Y-23909756D01*
X71154389Y-23953337D01*
X70941668Y-24090219D01*
X70818146Y-24271000D01*
X67164395Y-24271000D01*
X67119781Y-24201668D01*
X66910924Y-24058962D01*
X66663000Y-24008756D01*
X65818000Y-24008756D01*
X65586389Y-24052337D01*
X65373668Y-24189219D01*
X65277417Y-24330088D01*
X65194781Y-24201668D01*
X64985924Y-24058962D01*
X64738000Y-24008756D01*
X63893000Y-24008756D01*
X63661389Y-24052337D01*
X63448668Y-24189219D01*
X63306014Y-24398000D01*
X63299375Y-24398000D01*
X63009892Y-24108011D01*
X62504704Y-23898239D01*
X61957695Y-23897762D01*
X61452143Y-24106652D01*
X61065011Y-24493108D01*
X60855239Y-24998296D01*
X60854762Y-25545305D01*
X61063652Y-26050857D01*
X61450108Y-26437989D01*
X61955296Y-26647761D01*
X62502305Y-26648238D01*
X63007857Y-26439348D01*
X63299715Y-26148000D01*
X63520619Y-26148000D01*
X63645076Y-26233038D01*
X63893000Y-26283244D01*
X64738000Y-26283244D01*
X64969611Y-26239663D01*
X65182332Y-26102781D01*
X65278583Y-25961912D01*
X65361219Y-26090332D01*
X65570076Y-26233038D01*
X65818000Y-26283244D01*
X66663000Y-26283244D01*
X66894611Y-26239663D01*
X67107332Y-26102781D01*
X67163211Y-26021000D01*
X70855005Y-26021000D01*
X70929219Y-26136332D01*
X70969953Y-26164164D01*
X70856150Y-26277966D01*
X70761000Y-26507680D01*
X70761000Y-26923250D01*
X70917250Y-27079500D01*
X72011000Y-27079500D01*
X72011000Y-27059500D01*
X72261000Y-27059500D01*
X72261000Y-27079500D01*
X72281000Y-27079500D01*
X72281000Y-27329500D01*
X72261000Y-27329500D01*
X72261000Y-28245750D01*
X72417250Y-28402000D01*
X73010320Y-28402000D01*
X73240034Y-28306849D01*
X73415850Y-28131034D01*
X73510542Y-27902426D01*
X73522966Y-27914850D01*
X73752680Y-28010000D01*
X74545750Y-28010000D01*
X74702000Y-27853750D01*
X74702000Y-27110000D01*
X74952000Y-27110000D01*
X74952000Y-27853750D01*
X75108250Y-28010000D01*
X75901320Y-28010000D01*
X76131034Y-27914850D01*
X76306849Y-27739034D01*
X76402000Y-27509320D01*
X76402000Y-27266250D01*
X76245750Y-27110000D01*
X74952000Y-27110000D01*
X74702000Y-27110000D01*
X74682000Y-27110000D01*
X74682000Y-26860000D01*
X74702000Y-26860000D01*
X74702000Y-26840000D01*
X74952000Y-26840000D01*
X74952000Y-26860000D01*
X76245750Y-26860000D01*
X76344339Y-26761411D01*
X76420219Y-26879332D01*
X76629076Y-27022038D01*
X76877000Y-27072244D01*
X78777000Y-27072244D01*
X79008611Y-27028663D01*
X79193019Y-26910000D01*
X90170000Y-26910000D01*
X90504848Y-26843395D01*
X90788718Y-26653718D01*
X93072437Y-24370000D01*
X98087270Y-24370000D01*
X97752676Y-24436555D01*
X97290373Y-24745456D01*
X96981472Y-25207759D01*
X96873000Y-25753083D01*
X96873000Y-25808917D01*
X96981472Y-26354241D01*
X97290373Y-26816544D01*
X97623828Y-27039352D01*
X86976107Y-27236532D01*
X86888704Y-27200239D01*
X86341695Y-27199762D01*
X86218763Y-27250557D01*
X79497686Y-27375021D01*
X79449244Y-27385768D01*
X79403509Y-27420537D01*
X72403509Y-35920537D01*
X72380195Y-35964338D01*
X72375000Y-36000000D01*
X72375000Y-47500000D01*
X72378952Y-47519516D01*
X72122000Y-47262564D01*
X72122000Y-32914000D01*
X72055395Y-32579152D01*
X71979525Y-32465605D01*
X71865719Y-32295282D01*
X70479856Y-30909420D01*
X70488244Y-30868000D01*
X70488244Y-28568000D01*
X70398509Y-28241943D01*
X70228519Y-28054620D01*
X69999042Y-27948191D01*
X69746238Y-27939426D01*
X66146238Y-28539426D01*
X66019389Y-28574337D01*
X65806668Y-28711219D01*
X65663962Y-28920076D01*
X65613756Y-29168000D01*
X65613756Y-30268000D01*
X65627337Y-30398862D01*
X65727386Y-30631192D01*
X65909941Y-30806292D01*
X66146238Y-30896574D01*
X68361318Y-31265754D01*
X70372000Y-33276437D01*
X70372000Y-33285021D01*
X70346000Y-33279756D01*
X69501000Y-33279756D01*
X69269389Y-33323337D01*
X69056668Y-33460219D01*
X68960417Y-33601088D01*
X68877781Y-33472668D01*
X68668924Y-33329962D01*
X68421000Y-33279756D01*
X67576000Y-33279756D01*
X67344389Y-33323337D01*
X67131668Y-33460219D01*
X67075789Y-33542000D01*
X65661075Y-33542000D01*
X65763761Y-33294704D01*
X65764238Y-32747695D01*
X65555348Y-32242143D01*
X65168892Y-31855011D01*
X64663704Y-31645239D01*
X64116695Y-31644762D01*
X63611143Y-31853652D01*
X63224011Y-32240108D01*
X63158033Y-32399000D01*
X62103000Y-32399000D01*
X61768152Y-32465605D01*
X61484282Y-32655281D01*
X60849282Y-33290282D01*
X60688000Y-33531656D01*
X60688000Y-33354750D01*
X60531750Y-33198500D01*
X59688000Y-33198500D01*
X59688000Y-33218500D01*
X59438000Y-33218500D01*
X59438000Y-33198500D01*
X59418000Y-33198500D01*
X59418000Y-32948500D01*
X59438000Y-32948500D01*
X59438000Y-32928500D01*
X59688000Y-32928500D01*
X59688000Y-32948500D01*
X60531750Y-32948500D01*
X60688000Y-32792250D01*
X60688000Y-32526680D01*
X60592850Y-32296966D01*
X60417034Y-32121151D01*
X60187320Y-32026000D01*
X59844250Y-32026000D01*
X59688002Y-32182248D01*
X59688002Y-32026000D01*
X59635436Y-32026000D01*
X60214605Y-31446832D01*
X60302958Y-31487809D01*
X60555762Y-31496574D01*
X64155762Y-30896574D01*
X64282611Y-30861663D01*
X64495332Y-30724781D01*
X64638038Y-30515924D01*
X64688244Y-30268000D01*
X64688244Y-29168000D01*
X64674663Y-29037138D01*
X64574614Y-28804808D01*
X64392059Y-28629708D01*
X64155762Y-28539426D01*
X60555762Y-27939426D01*
X60219389Y-27974337D01*
X60006668Y-28111219D01*
X59863962Y-28320076D01*
X59813756Y-28568000D01*
X59813756Y-29372807D01*
X58152000Y-31034564D01*
X58152000Y-30660375D01*
X58441989Y-30370892D01*
X58651761Y-29865704D01*
X58652238Y-29318695D01*
X58443348Y-28813143D01*
X58056892Y-28426011D01*
X57551704Y-28216239D01*
X57004695Y-28215762D01*
X56499143Y-28424652D01*
X56112011Y-28811108D01*
X56007001Y-29064001D01*
X55903348Y-28813143D01*
X55516892Y-28426011D01*
X55011704Y-28216239D01*
X54464695Y-28215762D01*
X53959143Y-28424652D01*
X53572011Y-28811108D01*
X53362239Y-29316296D01*
X53361762Y-29863305D01*
X53570652Y-30368857D01*
X53735000Y-30533492D01*
X53735000Y-42418000D01*
X53781150Y-42650011D01*
X53801605Y-42752848D01*
X53991282Y-43036718D01*
X54394320Y-43439756D01*
X53880000Y-43439756D01*
X53648389Y-43483337D01*
X53435668Y-43620219D01*
X53343291Y-43755417D01*
X53329849Y-43722966D01*
X53154034Y-43547150D01*
X52924320Y-43452000D01*
X52658750Y-43452000D01*
X52502500Y-43608250D01*
X52502500Y-44452000D01*
X52522500Y-44452000D01*
X52522500Y-44702000D01*
X52502500Y-44702000D01*
X52502500Y-45545750D01*
X52658750Y-45702000D01*
X52924320Y-45702000D01*
X53154034Y-45606850D01*
X53329849Y-45431034D01*
X53343659Y-45397693D01*
X53423219Y-45521332D01*
X53632076Y-45664038D01*
X53880000Y-45714244D01*
X54551767Y-45714244D01*
X54505239Y-45826296D01*
X54504762Y-46373305D01*
X54713652Y-46878857D01*
X55018343Y-47184081D01*
X55068419Y-47435830D01*
X55071605Y-47451848D01*
X55261282Y-47735718D01*
X56023282Y-48497719D01*
X56307152Y-48687395D01*
X56642000Y-48754000D01*
X57173000Y-48754000D01*
X57173000Y-49031563D01*
X55644564Y-50560000D01*
X49657000Y-50560000D01*
X49322152Y-50626605D01*
X49038282Y-50816281D01*
X48149282Y-51705282D01*
X47959605Y-51989152D01*
X47893000Y-52324000D01*
X47893000Y-58441276D01*
X47188885Y-57735931D01*
X46224436Y-57335456D01*
X45180146Y-57334545D01*
X44214999Y-57733336D01*
X43475931Y-58471115D01*
X43075456Y-59435564D01*
X43074545Y-60479854D01*
X43473336Y-61445001D01*
X44211115Y-62184069D01*
X45175564Y-62584544D01*
X46219854Y-62585455D01*
X47185001Y-62186664D01*
X47924069Y-61448885D01*
X48212891Y-60753327D01*
X48657281Y-61197718D01*
X48941151Y-61387395D01*
X48996706Y-61398445D01*
X49276000Y-61454000D01*
X52871117Y-61454000D01*
X52822151Y-61502966D01*
X52727000Y-61732680D01*
X52727000Y-62075750D01*
X52883250Y-62232000D01*
X53649500Y-62232000D01*
X53649500Y-62212000D01*
X53899500Y-62212000D01*
X53899500Y-62232000D01*
X53919500Y-62232000D01*
X53919500Y-62482000D01*
X53899500Y-62482000D01*
X53899500Y-63325750D01*
X54055750Y-63482000D01*
X54321320Y-63482000D01*
X54551034Y-63386850D01*
X54726849Y-63211034D01*
X54740659Y-63177693D01*
X54820219Y-63301332D01*
X55029076Y-63444038D01*
X55277000Y-63494244D01*
X56122000Y-63494244D01*
X56353611Y-63450663D01*
X56566332Y-63313781D01*
X56637779Y-63209215D01*
X59196000Y-65767436D01*
X59196000Y-68526625D01*
X58906011Y-68816108D01*
X58696239Y-69321296D01*
X58695762Y-69868305D01*
X58904652Y-70373857D01*
X59078956Y-70548465D01*
X58906011Y-70721108D01*
X58696239Y-71226296D01*
X58695762Y-71773305D01*
X58904652Y-72278857D01*
X59291108Y-72665989D01*
X59796296Y-72875761D01*
X60343305Y-72876238D01*
X60848857Y-72667348D01*
X61235989Y-72280892D01*
X61294542Y-72139881D01*
X61324718Y-72119718D01*
X62213719Y-71230718D01*
X62403395Y-70946848D01*
X62448297Y-70721108D01*
X62470000Y-70612000D01*
X62470000Y-68271305D01*
X64283762Y-68271305D01*
X64492652Y-68776857D01*
X64879108Y-69163989D01*
X65384296Y-69373761D01*
X65931305Y-69374238D01*
X66436857Y-69165348D01*
X66823989Y-68778892D01*
X67033761Y-68273704D01*
X67034238Y-67726695D01*
X66825348Y-67221143D01*
X66438892Y-66834011D01*
X65933704Y-66624239D01*
X65386695Y-66623762D01*
X64881143Y-66832652D01*
X64494011Y-67219108D01*
X64284239Y-67724296D01*
X64283762Y-68271305D01*
X62470000Y-68271305D01*
X62470000Y-65151000D01*
X62403395Y-64816152D01*
X62368874Y-64764488D01*
X62213718Y-64532281D01*
X61667279Y-63985842D01*
X62121305Y-63986238D01*
X62626857Y-63777348D01*
X63013575Y-63391305D01*
X64283762Y-63391305D01*
X64492652Y-63896857D01*
X64879108Y-64283989D01*
X65384296Y-64493761D01*
X65931305Y-64494238D01*
X66436857Y-64285348D01*
X66823989Y-63898892D01*
X67033761Y-63393704D01*
X67034238Y-62846695D01*
X66825348Y-62341143D01*
X66438892Y-61954011D01*
X65933704Y-61744239D01*
X65386695Y-61743762D01*
X64881143Y-61952652D01*
X64494011Y-62339108D01*
X64284239Y-62844296D01*
X64283762Y-63391305D01*
X63013575Y-63391305D01*
X63013989Y-63390892D01*
X63223761Y-62885704D01*
X63224238Y-62338695D01*
X63015348Y-61833143D01*
X62714045Y-61531313D01*
X63013989Y-61231892D01*
X63223761Y-60726704D01*
X63224238Y-60179695D01*
X63015348Y-59674143D01*
X62981508Y-59640244D01*
X64400000Y-59640244D01*
X64631611Y-59596663D01*
X64844332Y-59459781D01*
X64987038Y-59250924D01*
X65037244Y-59003000D01*
X65037244Y-56503000D01*
X65490758Y-56503000D01*
X65578152Y-56561395D01*
X65913000Y-56627999D01*
X66247848Y-56561395D01*
X66531718Y-56371718D01*
X66785718Y-56117719D01*
X66975395Y-55833848D01*
X67042000Y-55499000D01*
X67042000Y-52785436D01*
X69991000Y-55734437D01*
X69991000Y-69868563D01*
X68725564Y-71134000D01*
X63754000Y-71134000D01*
X63419152Y-71200605D01*
X63135281Y-71390282D01*
X61303782Y-73221782D01*
X61114105Y-73505652D01*
X61047500Y-73840500D01*
X61047500Y-82875173D01*
X60959417Y-83004088D01*
X60876781Y-82875668D01*
X60667924Y-82732962D01*
X60420000Y-82682756D01*
X60388930Y-82682756D01*
X60418244Y-82538000D01*
X60418244Y-81038000D01*
X60374663Y-80806389D01*
X60237781Y-80593668D01*
X60028924Y-80450962D01*
X59781000Y-80400756D01*
X58636000Y-80400756D01*
X58404389Y-80444337D01*
X58191668Y-80581219D01*
X58163836Y-80621953D01*
X58050034Y-80508150D01*
X57820320Y-80413000D01*
X57404750Y-80413000D01*
X57248500Y-80569250D01*
X57248500Y-81663000D01*
X57268500Y-81663000D01*
X57268500Y-81913000D01*
X57248500Y-81913000D01*
X57248500Y-83006750D01*
X57404750Y-83163000D01*
X57820320Y-83163000D01*
X58050034Y-83067850D01*
X58162122Y-82955762D01*
X58179219Y-82982332D01*
X58346563Y-83096673D01*
X58380214Y-83265848D01*
X58400105Y-83365848D01*
X58589782Y-83649718D01*
X58937756Y-83997692D01*
X58937756Y-84320000D01*
X58981337Y-84551611D01*
X59118219Y-84764332D01*
X59122500Y-84767257D01*
X59122500Y-85007756D01*
X59018000Y-85007756D01*
X58786389Y-85051337D01*
X58573668Y-85188219D01*
X58430962Y-85397076D01*
X58380756Y-85645000D01*
X58380756Y-86445000D01*
X58424337Y-86676611D01*
X58561219Y-86889332D01*
X58714640Y-86994160D01*
X58663966Y-87015150D01*
X58488151Y-87190966D01*
X58393000Y-87420680D01*
X58393000Y-87663750D01*
X58549250Y-87820000D01*
X59843000Y-87820000D01*
X59843000Y-87800000D01*
X60093000Y-87800000D01*
X60093000Y-87820000D01*
X61386750Y-87820000D01*
X61485339Y-87721411D01*
X61561219Y-87839332D01*
X61770076Y-87982038D01*
X62018000Y-88032244D01*
X63918000Y-88032244D01*
X64149611Y-87988663D01*
X64334019Y-87870000D01*
X64915837Y-87870000D01*
X65004456Y-88002627D01*
X65167300Y-88111436D01*
X65008389Y-88141337D01*
X64795668Y-88278219D01*
X64652962Y-88487076D01*
X64602756Y-88735000D01*
X64602756Y-90335000D01*
X64646337Y-90566611D01*
X64783219Y-90779332D01*
X64992076Y-90922038D01*
X65240000Y-90972244D01*
X66840000Y-90972244D01*
X67071611Y-90928663D01*
X67284332Y-90791781D01*
X67427038Y-90582924D01*
X67446306Y-90487778D01*
X67451076Y-90491038D01*
X67699000Y-90541244D01*
X68699000Y-90541244D01*
X68930611Y-90497663D01*
X69143332Y-90360781D01*
X69286038Y-90151924D01*
X69336244Y-89904000D01*
X69336244Y-89059000D01*
X69292663Y-88827389D01*
X69155781Y-88614668D01*
X69014912Y-88518417D01*
X69143332Y-88435781D01*
X69286038Y-88226924D01*
X69336244Y-87979000D01*
X69336244Y-87134000D01*
X69292663Y-86902389D01*
X69155781Y-86689668D01*
X69074000Y-86633789D01*
X69074000Y-85706395D01*
X69143332Y-85661781D01*
X69286038Y-85452924D01*
X69336244Y-85205000D01*
X69336244Y-84427083D01*
X77442000Y-84427083D01*
X77442000Y-84482917D01*
X77550472Y-85028241D01*
X77859373Y-85490544D01*
X78321676Y-85799445D01*
X78867000Y-85907917D01*
X79412324Y-85799445D01*
X79874627Y-85490544D01*
X79983436Y-85327700D01*
X80013337Y-85486611D01*
X80150219Y-85699332D01*
X80359076Y-85842038D01*
X80607000Y-85892244D01*
X82207000Y-85892244D01*
X82438611Y-85848663D01*
X82651332Y-85711781D01*
X82794038Y-85502924D01*
X82844244Y-85255000D01*
X82844244Y-83655000D01*
X82800663Y-83423389D01*
X82663781Y-83210668D01*
X82454924Y-83067962D01*
X82207000Y-83017756D01*
X80607000Y-83017756D01*
X80375389Y-83061337D01*
X80162668Y-83198219D01*
X80019962Y-83407076D01*
X79984236Y-83583497D01*
X79874627Y-83419456D01*
X79412324Y-83110555D01*
X78867000Y-83002083D01*
X78321676Y-83110555D01*
X77859373Y-83419456D01*
X77550472Y-83881759D01*
X77442000Y-84427083D01*
X69336244Y-84427083D01*
X69336244Y-84360000D01*
X69292663Y-84128389D01*
X69155781Y-83915668D01*
X69014912Y-83819417D01*
X69143332Y-83736781D01*
X69286038Y-83527924D01*
X69336244Y-83280000D01*
X69336244Y-82435000D01*
X69292663Y-82203389D01*
X69155781Y-81990668D01*
X68946924Y-81847962D01*
X68699000Y-81797756D01*
X67699000Y-81797756D01*
X67467389Y-81841337D01*
X67417122Y-81873683D01*
X67296781Y-81686668D01*
X67087924Y-81543962D01*
X66911503Y-81508236D01*
X67075544Y-81398627D01*
X67384445Y-80936324D01*
X67492917Y-80391000D01*
X67384445Y-79845676D01*
X67075544Y-79383373D01*
X66939000Y-79292137D01*
X66939000Y-77618244D01*
X67014000Y-77618244D01*
X67245611Y-77574663D01*
X67458332Y-77437781D01*
X67476756Y-77410817D01*
X67476756Y-77931000D01*
X67520337Y-78162611D01*
X67657219Y-78375332D01*
X67866076Y-78518038D01*
X68114000Y-78568244D01*
X70014000Y-78568244D01*
X70222577Y-78528997D01*
X70294219Y-78640332D01*
X70503076Y-78783038D01*
X70751000Y-78833244D01*
X72251000Y-78833244D01*
X72482611Y-78789663D01*
X72695332Y-78652781D01*
X72838038Y-78443924D01*
X72843063Y-78419108D01*
X73039076Y-78553038D01*
X73287000Y-78603244D01*
X74287000Y-78603244D01*
X74518611Y-78559663D01*
X74731332Y-78422781D01*
X74874038Y-78213924D01*
X74924244Y-77966000D01*
X74924244Y-77180522D01*
X77484514Y-77180522D01*
X77721975Y-77683275D01*
X78133756Y-78056886D01*
X78521479Y-78217476D01*
X78742000Y-78097577D01*
X78742000Y-76960000D01*
X77603733Y-76960000D01*
X77484514Y-77180522D01*
X74924244Y-77180522D01*
X74924244Y-77121000D01*
X74880663Y-76889389D01*
X74743781Y-76676668D01*
X74602912Y-76580417D01*
X74731332Y-76497781D01*
X74737005Y-76489478D01*
X77484514Y-76489478D01*
X77603733Y-76710000D01*
X78742000Y-76710000D01*
X78742000Y-75572423D01*
X78992000Y-75572423D01*
X78992000Y-76710000D01*
X79012000Y-76710000D01*
X79012000Y-76960000D01*
X78992000Y-76960000D01*
X78992000Y-78097577D01*
X79212521Y-78217476D01*
X79600244Y-78056886D01*
X80012025Y-77683275D01*
X80120619Y-77453359D01*
X80399373Y-77870544D01*
X80861676Y-78179445D01*
X81407000Y-78287917D01*
X81952324Y-78179445D01*
X82414627Y-77870544D01*
X82723528Y-77408241D01*
X82832000Y-76862917D01*
X82832000Y-76807083D01*
X82723528Y-76261759D01*
X82414627Y-75799456D01*
X81952324Y-75490555D01*
X81407000Y-75382083D01*
X80861676Y-75490555D01*
X80399373Y-75799456D01*
X80120619Y-76216641D01*
X80012025Y-75986725D01*
X79600244Y-75613114D01*
X79212521Y-75452524D01*
X78992000Y-75572423D01*
X78742000Y-75572423D01*
X78521479Y-75452524D01*
X78133756Y-75613114D01*
X77721975Y-75986725D01*
X77484514Y-76489478D01*
X74737005Y-76489478D01*
X74874038Y-76288924D01*
X74924244Y-76041000D01*
X74924244Y-75196000D01*
X74880663Y-74964389D01*
X74743781Y-74751668D01*
X74662000Y-74695789D01*
X74662000Y-74295000D01*
X74595395Y-73960152D01*
X74405718Y-73676282D01*
X72503000Y-71773564D01*
X72503000Y-58246436D01*
X73422281Y-59165718D01*
X73706151Y-59355395D01*
X73761706Y-59366445D01*
X74041000Y-59422000D01*
X79012564Y-59422000D01*
X79770000Y-60179437D01*
X79770000Y-71882000D01*
X79836605Y-72216848D01*
X80026282Y-72500718D01*
X86884282Y-79358719D01*
X86884285Y-79358721D01*
X88154281Y-80628718D01*
X88299646Y-80725848D01*
X88438152Y-80818395D01*
X88773000Y-80885000D01*
X91515327Y-80885000D01*
X91626219Y-81057332D01*
X91767088Y-81153583D01*
X91638668Y-81236219D01*
X91495962Y-81445076D01*
X91445756Y-81693000D01*
X91445756Y-82538000D01*
X91463294Y-82631205D01*
X91425389Y-82638337D01*
X91296046Y-82721567D01*
X91249781Y-82649668D01*
X91040924Y-82506962D01*
X90793000Y-82456756D01*
X89293000Y-82456756D01*
X89061389Y-82500337D01*
X88848668Y-82637219D01*
X88705962Y-82846076D01*
X88655756Y-83094000D01*
X88655756Y-84239000D01*
X88699337Y-84470611D01*
X88836219Y-84683332D01*
X88876953Y-84711164D01*
X88763150Y-84824966D01*
X88668000Y-85054680D01*
X88668000Y-85470250D01*
X88824250Y-85626500D01*
X89918000Y-85626500D01*
X89918000Y-85606500D01*
X90168000Y-85606500D01*
X90168000Y-85626500D01*
X90188000Y-85626500D01*
X90188000Y-85876500D01*
X90168000Y-85876500D01*
X90168000Y-86792750D01*
X90324250Y-86949000D01*
X90917320Y-86949000D01*
X91147034Y-86853849D01*
X91322850Y-86678034D01*
X91396370Y-86500539D01*
X91532680Y-86557000D01*
X92325750Y-86557000D01*
X92482000Y-86400750D01*
X92482000Y-85657000D01*
X92732000Y-85657000D01*
X92732000Y-86400750D01*
X92888250Y-86557000D01*
X93681320Y-86557000D01*
X93911034Y-86461850D01*
X94086849Y-86286034D01*
X94182000Y-86056320D01*
X94182000Y-85813250D01*
X94025750Y-85657000D01*
X92732000Y-85657000D01*
X92482000Y-85657000D01*
X92462000Y-85657000D01*
X92462000Y-85407000D01*
X92482000Y-85407000D01*
X92482000Y-85387000D01*
X92732000Y-85387000D01*
X92732000Y-85407000D01*
X94025750Y-85407000D01*
X94124339Y-85308411D01*
X94200219Y-85426332D01*
X94409076Y-85569038D01*
X94550000Y-85597576D01*
X94550000Y-87375000D01*
X87990000Y-87375000D01*
X87990000Y-86032750D01*
X88668000Y-86032750D01*
X88668000Y-86448320D01*
X88763150Y-86678034D01*
X88938966Y-86853849D01*
X89168680Y-86949000D01*
X89761750Y-86949000D01*
X89918000Y-86792750D01*
X89918000Y-85876500D01*
X88824250Y-85876500D01*
X88668000Y-86032750D01*
X87990000Y-86032750D01*
X87990000Y-82162000D01*
X87923395Y-81827152D01*
X87883400Y-81767296D01*
X87733718Y-81543281D01*
X85962718Y-79772282D01*
X85678848Y-79582605D01*
X85344000Y-79516000D01*
X74784163Y-79516000D01*
X74695544Y-79383373D01*
X74233241Y-79074472D01*
X73687917Y-78966000D01*
X73632083Y-78966000D01*
X73086759Y-79074472D01*
X72624456Y-79383373D01*
X72315555Y-79845676D01*
X72207083Y-80391000D01*
X72315555Y-80936324D01*
X72624456Y-81398627D01*
X73017125Y-81661000D01*
X72624456Y-81923373D01*
X72315555Y-82385676D01*
X72207083Y-82931000D01*
X72315555Y-83476324D01*
X72624456Y-83938627D01*
X73086759Y-84247528D01*
X73632083Y-84356000D01*
X73687917Y-84356000D01*
X74233241Y-84247528D01*
X74695544Y-83938627D01*
X75004445Y-83476324D01*
X75008749Y-83454687D01*
X75800437Y-82663000D01*
X82314564Y-82663000D01*
X83453000Y-83801437D01*
X83453000Y-85979000D01*
X83470000Y-86064465D01*
X83470000Y-87375000D01*
X82135437Y-87375000D01*
X81136718Y-86376282D01*
X80852848Y-86186605D01*
X80518000Y-86120000D01*
X74784163Y-86120000D01*
X74695544Y-85987373D01*
X74233241Y-85678472D01*
X73687917Y-85570000D01*
X73632083Y-85570000D01*
X73086759Y-85678472D01*
X72624456Y-85987373D01*
X72315555Y-86449676D01*
X72207083Y-86995000D01*
X72315555Y-87540324D01*
X72624456Y-88002627D01*
X73017125Y-88265000D01*
X72624456Y-88527373D01*
X72315555Y-88989676D01*
X72207083Y-89535000D01*
X72315555Y-90080324D01*
X72624456Y-90542627D01*
X73086759Y-90851528D01*
X73632083Y-90960000D01*
X73687917Y-90960000D01*
X73821076Y-90933513D01*
X74506282Y-91618719D01*
X74790152Y-91808395D01*
X75125000Y-91875000D01*
X45324459Y-91875000D01*
X46050715Y-91574917D01*
X47071334Y-90556079D01*
X47624369Y-89224220D01*
X47625240Y-88226250D01*
X58393000Y-88226250D01*
X58393000Y-88469320D01*
X58488151Y-88699034D01*
X58663966Y-88874850D01*
X58893680Y-88970000D01*
X59686750Y-88970000D01*
X59843000Y-88813750D01*
X59843000Y-88070000D01*
X60093000Y-88070000D01*
X60093000Y-88813750D01*
X60249250Y-88970000D01*
X61042320Y-88970000D01*
X61272034Y-88874850D01*
X61447849Y-88699034D01*
X61543000Y-88469320D01*
X61543000Y-88226250D01*
X61386750Y-88070000D01*
X60093000Y-88070000D01*
X59843000Y-88070000D01*
X58549250Y-88070000D01*
X58393000Y-88226250D01*
X47625240Y-88226250D01*
X47625628Y-87782106D01*
X47074917Y-86449285D01*
X46056079Y-85428666D01*
X45173946Y-85062373D01*
X50637946Y-85062373D01*
X50882185Y-85583497D01*
X51307258Y-85971487D01*
X51716628Y-86141045D01*
X51945000Y-86021812D01*
X51945000Y-84834000D01*
X50756547Y-84834000D01*
X50637946Y-85062373D01*
X45173946Y-85062373D01*
X44724220Y-84875631D01*
X43282106Y-84874372D01*
X41949285Y-85425083D01*
X40928666Y-86443921D01*
X40375631Y-87775780D01*
X40374372Y-89217894D01*
X40925083Y-90550715D01*
X41943921Y-91571334D01*
X42675231Y-91875000D01*
X39625000Y-91875000D01*
X39625000Y-84355627D01*
X50637946Y-84355627D01*
X50756547Y-84584000D01*
X51945000Y-84584000D01*
X51945000Y-83396188D01*
X52195000Y-83396188D01*
X52195000Y-84584000D01*
X52215000Y-84584000D01*
X52215000Y-84834000D01*
X52195000Y-84834000D01*
X52195000Y-86021812D01*
X52423372Y-86141045D01*
X52832742Y-85971487D01*
X53146486Y-85685114D01*
X53166337Y-85790611D01*
X53303219Y-86003332D01*
X53512076Y-86146038D01*
X53760000Y-86196244D01*
X55460000Y-86196244D01*
X55691611Y-86152663D01*
X55904332Y-86015781D01*
X56047038Y-85806924D01*
X56097244Y-85559000D01*
X56097244Y-83859000D01*
X56053663Y-83627389D01*
X55916781Y-83414668D01*
X55707924Y-83271962D01*
X55460000Y-83221756D01*
X53760000Y-83221756D01*
X53528389Y-83265337D01*
X53315668Y-83402219D01*
X53172962Y-83611076D01*
X53148013Y-83734280D01*
X52832742Y-83446513D01*
X52423372Y-83276955D01*
X52195000Y-83396188D01*
X51945000Y-83396188D01*
X51716628Y-83276955D01*
X51307258Y-83446513D01*
X50882185Y-83834503D01*
X50637946Y-84355627D01*
X39625000Y-84355627D01*
X39625000Y-82069250D01*
X55926000Y-82069250D01*
X55926000Y-82662320D01*
X56021151Y-82892034D01*
X56196966Y-83067850D01*
X56426680Y-83163000D01*
X56842250Y-83163000D01*
X56998500Y-83006750D01*
X56998500Y-81913000D01*
X56082250Y-81913000D01*
X55926000Y-82069250D01*
X39625000Y-82069250D01*
X39625000Y-80913680D01*
X55926000Y-80913680D01*
X55926000Y-81506750D01*
X56082250Y-81663000D01*
X56998500Y-81663000D01*
X56998500Y-80569250D01*
X56842250Y-80413000D01*
X56426680Y-80413000D01*
X56196966Y-80508150D01*
X56021151Y-80683966D01*
X55926000Y-80913680D01*
X39625000Y-80913680D01*
X39625000Y-80128821D01*
X40577955Y-80128821D01*
X40719790Y-80429444D01*
X41452365Y-80713460D01*
X42237865Y-80695512D01*
X42880210Y-80429444D01*
X43022045Y-80128821D01*
X41800000Y-78906777D01*
X40577955Y-80128821D01*
X39625000Y-80128821D01*
X39625000Y-78382365D01*
X39816540Y-78382365D01*
X39834488Y-79167865D01*
X40100556Y-79810210D01*
X40401179Y-79952045D01*
X41623223Y-78730000D01*
X41976777Y-78730000D01*
X43198821Y-79952045D01*
X43499444Y-79810210D01*
X43783460Y-79077635D01*
X43765512Y-78292135D01*
X43499444Y-77649790D01*
X43198821Y-77507955D01*
X41976777Y-78730000D01*
X41623223Y-78730000D01*
X40401179Y-77507955D01*
X40100556Y-77649790D01*
X39816540Y-78382365D01*
X39625000Y-78382365D01*
X39625000Y-77331179D01*
X40577955Y-77331179D01*
X41800000Y-78553223D01*
X43022045Y-77331179D01*
X42880210Y-77030556D01*
X42147635Y-76746540D01*
X41362135Y-76764488D01*
X40719790Y-77030556D01*
X40577955Y-77331179D01*
X39625000Y-77331179D01*
X39625000Y-74972023D01*
X43704754Y-74972023D01*
X43774354Y-75211429D01*
X44293183Y-75396907D01*
X44843500Y-75369720D01*
X45225646Y-75211429D01*
X45295246Y-74972023D01*
X44500000Y-74176777D01*
X43704754Y-74972023D01*
X39625000Y-74972023D01*
X39625000Y-73793183D01*
X43103093Y-73793183D01*
X43130280Y-74343500D01*
X43288571Y-74725646D01*
X43527977Y-74795246D01*
X44323223Y-74000000D01*
X43527977Y-73204754D01*
X43288571Y-73274354D01*
X43103093Y-73793183D01*
X39625000Y-73793183D01*
X39625000Y-71734285D01*
X43114760Y-71734285D01*
X43325169Y-72243515D01*
X43714436Y-72633461D01*
X43931361Y-72723536D01*
X43774354Y-72788571D01*
X43704754Y-73027977D01*
X44500000Y-73823223D01*
X45295246Y-73027977D01*
X45225646Y-72788571D01*
X45057186Y-72728348D01*
X45283515Y-72634831D01*
X45500036Y-72418687D01*
X45714436Y-72633461D01*
X45946870Y-72729976D01*
X45716485Y-72825169D01*
X45326539Y-73214436D01*
X45230107Y-73446670D01*
X44676777Y-74000000D01*
X45230025Y-74553248D01*
X45325169Y-74783515D01*
X45714436Y-75173461D01*
X46223298Y-75384759D01*
X46774285Y-75385240D01*
X47283515Y-75174831D01*
X47673461Y-74785564D01*
X47884759Y-74276702D01*
X47885240Y-73725715D01*
X47674831Y-73216485D01*
X47285564Y-72826539D01*
X47053130Y-72730024D01*
X47283515Y-72634831D01*
X47673461Y-72245564D01*
X47884759Y-71736702D01*
X47885240Y-71185715D01*
X47674831Y-70676485D01*
X47285564Y-70286539D01*
X46776702Y-70075241D01*
X46225715Y-70074760D01*
X45716485Y-70285169D01*
X45499964Y-70501313D01*
X45285564Y-70286539D01*
X44776702Y-70075241D01*
X44225715Y-70074760D01*
X43716485Y-70285169D01*
X43326539Y-70674436D01*
X43115241Y-71183298D01*
X43114760Y-71734285D01*
X39625000Y-71734285D01*
X39625000Y-68128821D01*
X40577955Y-68128821D01*
X40719790Y-68429444D01*
X41452365Y-68713460D01*
X42237865Y-68695512D01*
X42880210Y-68429444D01*
X43022045Y-68128821D01*
X41800000Y-66906777D01*
X40577955Y-68128821D01*
X39625000Y-68128821D01*
X39625000Y-66382365D01*
X39816540Y-66382365D01*
X39834488Y-67167865D01*
X40100556Y-67810210D01*
X40401179Y-67952045D01*
X41623223Y-66730000D01*
X41976777Y-66730000D01*
X43198821Y-67952045D01*
X43499444Y-67810210D01*
X43783460Y-67077635D01*
X43765512Y-66292135D01*
X43499444Y-65649790D01*
X43198821Y-65507955D01*
X41976777Y-66730000D01*
X41623223Y-66730000D01*
X40401179Y-65507955D01*
X40100556Y-65649790D01*
X39816540Y-66382365D01*
X39625000Y-66382365D01*
X39625000Y-65331179D01*
X40577955Y-65331179D01*
X41800000Y-66553223D01*
X43022045Y-65331179D01*
X42880210Y-65030556D01*
X42147635Y-64746540D01*
X41362135Y-64764488D01*
X40719790Y-65030556D01*
X40577955Y-65331179D01*
X39625000Y-65331179D01*
X39625000Y-62638250D01*
X52727000Y-62638250D01*
X52727000Y-62981320D01*
X52822151Y-63211034D01*
X52997966Y-63386850D01*
X53227680Y-63482000D01*
X53493250Y-63482000D01*
X53649500Y-63325750D01*
X53649500Y-62482000D01*
X52883250Y-62482000D01*
X52727000Y-62638250D01*
X39625000Y-62638250D01*
X39625000Y-43587206D01*
X41734754Y-43587206D01*
X41951240Y-44111143D01*
X42351749Y-44512351D01*
X42779981Y-44690169D01*
X42353857Y-44866240D01*
X41952649Y-45266749D01*
X41735248Y-45790307D01*
X41734754Y-46357206D01*
X41951240Y-46881143D01*
X42351749Y-47282351D01*
X42779981Y-47460169D01*
X42353857Y-47636240D01*
X41952649Y-48036749D01*
X41735248Y-48560307D01*
X41734754Y-49127206D01*
X41951240Y-49651143D01*
X42351749Y-50052351D01*
X42779981Y-50230169D01*
X42353857Y-50406240D01*
X41952649Y-50806749D01*
X41735248Y-51330307D01*
X41734754Y-51897206D01*
X41951240Y-52421143D01*
X42351749Y-52822351D01*
X42875307Y-53039752D01*
X43442206Y-53040246D01*
X43966143Y-52823760D01*
X44367351Y-52423251D01*
X44460053Y-52200000D01*
X44562756Y-52200000D01*
X44562756Y-53800000D01*
X44606337Y-54031611D01*
X44743219Y-54244332D01*
X44952076Y-54387038D01*
X45200000Y-54437244D01*
X46800000Y-54437244D01*
X47031611Y-54393663D01*
X47244332Y-54256781D01*
X47387038Y-54047924D01*
X47437244Y-53800000D01*
X47437244Y-52200000D01*
X47393663Y-51968389D01*
X47256781Y-51755668D01*
X47047924Y-51612962D01*
X46800000Y-51562756D01*
X46506049Y-51562756D01*
X46806143Y-51438760D01*
X47207351Y-51038251D01*
X47424752Y-50514693D01*
X47425246Y-49947794D01*
X47208760Y-49423857D01*
X46808251Y-49022649D01*
X46380019Y-48844831D01*
X46806143Y-48668760D01*
X47207351Y-48268251D01*
X47424752Y-47744693D01*
X47425246Y-47177794D01*
X47208760Y-46653857D01*
X46808251Y-46252649D01*
X46380019Y-46074831D01*
X46806143Y-45898760D01*
X47207351Y-45498251D01*
X47424752Y-44974693D01*
X47424853Y-44858250D01*
X51330000Y-44858250D01*
X51330000Y-45201320D01*
X51425151Y-45431034D01*
X51600966Y-45606850D01*
X51830680Y-45702000D01*
X52096250Y-45702000D01*
X52252500Y-45545750D01*
X52252500Y-44702000D01*
X51486250Y-44702000D01*
X51330000Y-44858250D01*
X47424853Y-44858250D01*
X47425246Y-44407794D01*
X47237198Y-43952680D01*
X51330000Y-43952680D01*
X51330000Y-44295750D01*
X51486250Y-44452000D01*
X52252500Y-44452000D01*
X52252500Y-43608250D01*
X52096250Y-43452000D01*
X51830680Y-43452000D01*
X51600966Y-43547150D01*
X51425151Y-43722966D01*
X51330000Y-43952680D01*
X47237198Y-43952680D01*
X47208760Y-43883857D01*
X46808251Y-43482649D01*
X46395512Y-43311264D01*
X46749709Y-43164550D01*
X46824223Y-42921000D01*
X46000000Y-42096777D01*
X45175777Y-42921000D01*
X45250291Y-43164550D01*
X45629569Y-43301208D01*
X45193857Y-43481240D01*
X44792649Y-43881749D01*
X44575248Y-44405307D01*
X44574754Y-44972206D01*
X44791240Y-45496143D01*
X45191749Y-45897351D01*
X45619981Y-46075169D01*
X45193857Y-46251240D01*
X44792649Y-46651749D01*
X44575248Y-47175307D01*
X44574754Y-47742206D01*
X44791240Y-48266143D01*
X45191749Y-48667351D01*
X45619981Y-48845169D01*
X45193857Y-49021240D01*
X44792649Y-49421749D01*
X44575248Y-49945307D01*
X44574754Y-50512206D01*
X44791240Y-51036143D01*
X45191749Y-51437351D01*
X45493757Y-51562756D01*
X45200000Y-51562756D01*
X44968389Y-51606337D01*
X44755668Y-51743219D01*
X44612962Y-51952076D01*
X44562756Y-52200000D01*
X44460053Y-52200000D01*
X44584752Y-51899693D01*
X44585246Y-51332794D01*
X44368760Y-50808857D01*
X43968251Y-50407649D01*
X43540019Y-50229831D01*
X43966143Y-50053760D01*
X44367351Y-49653251D01*
X44584752Y-49129693D01*
X44585246Y-48562794D01*
X44368760Y-48038857D01*
X43968251Y-47637649D01*
X43540019Y-47459831D01*
X43966143Y-47283760D01*
X44367351Y-46883251D01*
X44584752Y-46359693D01*
X44585246Y-45792794D01*
X44368760Y-45268857D01*
X43968251Y-44867649D01*
X43540019Y-44689831D01*
X43966143Y-44513760D01*
X44367351Y-44113251D01*
X44584752Y-43589693D01*
X44585246Y-43022794D01*
X44368760Y-42498857D01*
X43968251Y-42097649D01*
X43444693Y-41880248D01*
X42877794Y-41879754D01*
X42353857Y-42096240D01*
X41952649Y-42496749D01*
X41735248Y-43020307D01*
X41734754Y-43587206D01*
X39625000Y-43587206D01*
X39625000Y-41703627D01*
X44563284Y-41703627D01*
X44589845Y-42269905D01*
X44755450Y-42669709D01*
X44999000Y-42744223D01*
X45823223Y-41920000D01*
X46176777Y-41920000D01*
X47001000Y-42744223D01*
X47244550Y-42669709D01*
X47436716Y-42136373D01*
X47410155Y-41570095D01*
X47244550Y-41170291D01*
X47001000Y-41095777D01*
X46176777Y-41920000D01*
X45823223Y-41920000D01*
X44999000Y-41095777D01*
X44755450Y-41170291D01*
X44563284Y-41703627D01*
X39625000Y-41703627D01*
X39625000Y-40919000D01*
X45175777Y-40919000D01*
X46000000Y-41743223D01*
X46824223Y-40919000D01*
X46749709Y-40675450D01*
X46216373Y-40483284D01*
X45650095Y-40509845D01*
X45250291Y-40675450D01*
X45175777Y-40919000D01*
X39625000Y-40919000D01*
X39625000Y-35479854D01*
X43074545Y-35479854D01*
X43473336Y-36445001D01*
X44211115Y-37184069D01*
X45175564Y-37584544D01*
X46219854Y-37585455D01*
X47185001Y-37186664D01*
X47924069Y-36448885D01*
X48324544Y-35484436D01*
X48325455Y-34440146D01*
X47926664Y-33474999D01*
X47188885Y-32735931D01*
X46224436Y-32335456D01*
X45180146Y-32334545D01*
X44214999Y-32733336D01*
X43475931Y-33471115D01*
X43075456Y-34435564D01*
X43074545Y-35479854D01*
X39625000Y-35479854D01*
X39625000Y-27717894D01*
X40374372Y-27717894D01*
X40925083Y-29050715D01*
X41943921Y-30071334D01*
X43275780Y-30624369D01*
X44717894Y-30625628D01*
X46050715Y-30074917D01*
X47071334Y-29056079D01*
X47624369Y-27724220D01*
X47624577Y-27485750D01*
X70761000Y-27485750D01*
X70761000Y-27901320D01*
X70856150Y-28131034D01*
X71031966Y-28306849D01*
X71261680Y-28402000D01*
X71854750Y-28402000D01*
X72011000Y-28245750D01*
X72011000Y-27329500D01*
X70917250Y-27329500D01*
X70761000Y-27485750D01*
X47624577Y-27485750D01*
X47625628Y-26282106D01*
X47534786Y-26062250D01*
X50722000Y-26062250D01*
X50722000Y-26755320D01*
X50817150Y-26985034D01*
X50992966Y-27160849D01*
X51222680Y-27256000D01*
X51915750Y-27256000D01*
X52072000Y-27099750D01*
X52072000Y-25906000D01*
X50878250Y-25906000D01*
X50722000Y-26062250D01*
X47534786Y-26062250D01*
X47074917Y-24949285D01*
X46932561Y-24806680D01*
X50722000Y-24806680D01*
X50722000Y-25499750D01*
X50878250Y-25656000D01*
X52072000Y-25656000D01*
X52072000Y-24462250D01*
X52322000Y-24462250D01*
X52322000Y-25656000D01*
X52342000Y-25656000D01*
X52342000Y-25906000D01*
X52322000Y-25906000D01*
X52322000Y-27099750D01*
X52478250Y-27256000D01*
X53171320Y-27256000D01*
X53401034Y-27160849D01*
X53576850Y-26985034D01*
X53655479Y-26795204D01*
X53694017Y-26852880D01*
X54172542Y-27172619D01*
X54737000Y-27284897D01*
X55301458Y-27172619D01*
X55779983Y-26852880D01*
X56007000Y-26513124D01*
X56234017Y-26852880D01*
X56712542Y-27172619D01*
X57277000Y-27284897D01*
X57841458Y-27172619D01*
X58319983Y-26852880D01*
X58639722Y-26374355D01*
X58752000Y-25809897D01*
X58752000Y-25752103D01*
X58639722Y-25187645D01*
X58319983Y-24709120D01*
X57841458Y-24389381D01*
X57277000Y-24277103D01*
X56712542Y-24389381D01*
X56234017Y-24709120D01*
X56007000Y-25048876D01*
X55779983Y-24709120D01*
X55301458Y-24389381D01*
X54737000Y-24277103D01*
X54172542Y-24389381D01*
X53694017Y-24709120D01*
X53655479Y-24766796D01*
X53576850Y-24576966D01*
X53401034Y-24401151D01*
X53171320Y-24306000D01*
X52478250Y-24306000D01*
X52322000Y-24462250D01*
X52072000Y-24462250D01*
X51915750Y-24306000D01*
X51222680Y-24306000D01*
X50992966Y-24401151D01*
X50817150Y-24576966D01*
X50722000Y-24806680D01*
X46932561Y-24806680D01*
X46056079Y-23928666D01*
X44724220Y-23375631D01*
X43282106Y-23374372D01*
X41949285Y-23925083D01*
X40928666Y-24943921D01*
X40375631Y-26275780D01*
X40374372Y-27717894D01*
X39625000Y-27717894D01*
X39625000Y-23125000D01*
X91842563Y-23125000D01*
X89807564Y-25160000D01*
G36*
X89745219Y-77271332D02*
X89954076Y-77414038D01*
X90202000Y-77464244D01*
X91047000Y-77464244D01*
X91278611Y-77420663D01*
X91454877Y-77307239D01*
X91430150Y-77331966D01*
X91335000Y-77561680D01*
X91335000Y-77977250D01*
X91491250Y-78133500D01*
X92585000Y-78133500D01*
X92585000Y-78113500D01*
X92835000Y-78113500D01*
X92835000Y-78133500D01*
X93820750Y-78133500D01*
X93855250Y-78168000D01*
X95149000Y-78168000D01*
X95149000Y-78148000D01*
X95399000Y-78148000D01*
X95399000Y-78168000D01*
X96692750Y-78168000D01*
X96791339Y-78069411D01*
X96867219Y-78187332D01*
X97076076Y-78330038D01*
X97320000Y-78379434D01*
X97320000Y-87375000D01*
X96300000Y-87375000D01*
X96300000Y-85619244D01*
X96557000Y-85619244D01*
X96788611Y-85575663D01*
X97001332Y-85438781D01*
X97144038Y-85229924D01*
X97194244Y-84982000D01*
X97194244Y-84182000D01*
X97150663Y-83950389D01*
X97013781Y-83737668D01*
X96804924Y-83594962D01*
X96557000Y-83544756D01*
X94657000Y-83544756D01*
X94425389Y-83588337D01*
X94212668Y-83725219D01*
X94194244Y-83752183D01*
X94194244Y-83232000D01*
X94150663Y-83000389D01*
X94013781Y-82787668D01*
X93804924Y-82644962D01*
X93702773Y-82624276D01*
X93720244Y-82538000D01*
X93720244Y-81693000D01*
X93676663Y-81461389D01*
X93539781Y-81248668D01*
X93398912Y-81152417D01*
X93527332Y-81069781D01*
X93670038Y-80860924D01*
X93720244Y-80613000D01*
X93720244Y-79768000D01*
X93676663Y-79536389D01*
X93616387Y-79442717D01*
X93814034Y-79360849D01*
X93961000Y-79213884D01*
X93969966Y-79222850D01*
X94199680Y-79318000D01*
X94992750Y-79318000D01*
X95149000Y-79161750D01*
X95149000Y-78418000D01*
X95399000Y-78418000D01*
X95399000Y-79161750D01*
X95555250Y-79318000D01*
X96348320Y-79318000D01*
X96578034Y-79222850D01*
X96753849Y-79047034D01*
X96849000Y-78817320D01*
X96849000Y-78574250D01*
X96692750Y-78418000D01*
X95399000Y-78418000D01*
X95149000Y-78418000D01*
X93963250Y-78418000D01*
X93928750Y-78383500D01*
X92835000Y-78383500D01*
X92835000Y-78403500D01*
X92585000Y-78403500D01*
X92585000Y-78383500D01*
X91491250Y-78383500D01*
X91335000Y-78539750D01*
X91335000Y-78955320D01*
X91409425Y-79135000D01*
X89135437Y-79135000D01*
X88121721Y-78121285D01*
X88121719Y-78121282D01*
X87202437Y-77202000D01*
X87775605Y-77202000D01*
X87820219Y-77271332D01*
X88029076Y-77414038D01*
X88277000Y-77464244D01*
X89122000Y-77464244D01*
X89353611Y-77420663D01*
X89566332Y-77283781D01*
X89662583Y-77142912D01*
X89745219Y-77271332D01*
X89745219Y-77271332D01*
G37*
X89745219Y-77271332D02*
X89954076Y-77414038D01*
X90202000Y-77464244D01*
X91047000Y-77464244D01*
X91278611Y-77420663D01*
X91454877Y-77307239D01*
X91430150Y-77331966D01*
X91335000Y-77561680D01*
X91335000Y-77977250D01*
X91491250Y-78133500D01*
X92585000Y-78133500D01*
X92585000Y-78113500D01*
X92835000Y-78113500D01*
X92835000Y-78133500D01*
X93820750Y-78133500D01*
X93855250Y-78168000D01*
X95149000Y-78168000D01*
X95149000Y-78148000D01*
X95399000Y-78148000D01*
X95399000Y-78168000D01*
X96692750Y-78168000D01*
X96791339Y-78069411D01*
X96867219Y-78187332D01*
X97076076Y-78330038D01*
X97320000Y-78379434D01*
X97320000Y-87375000D01*
X96300000Y-87375000D01*
X96300000Y-85619244D01*
X96557000Y-85619244D01*
X96788611Y-85575663D01*
X97001332Y-85438781D01*
X97144038Y-85229924D01*
X97194244Y-84982000D01*
X97194244Y-84182000D01*
X97150663Y-83950389D01*
X97013781Y-83737668D01*
X96804924Y-83594962D01*
X96557000Y-83544756D01*
X94657000Y-83544756D01*
X94425389Y-83588337D01*
X94212668Y-83725219D01*
X94194244Y-83752183D01*
X94194244Y-83232000D01*
X94150663Y-83000389D01*
X94013781Y-82787668D01*
X93804924Y-82644962D01*
X93702773Y-82624276D01*
X93720244Y-82538000D01*
X93720244Y-81693000D01*
X93676663Y-81461389D01*
X93539781Y-81248668D01*
X93398912Y-81152417D01*
X93527332Y-81069781D01*
X93670038Y-80860924D01*
X93720244Y-80613000D01*
X93720244Y-79768000D01*
X93676663Y-79536389D01*
X93616387Y-79442717D01*
X93814034Y-79360849D01*
X93961000Y-79213884D01*
X93969966Y-79222850D01*
X94199680Y-79318000D01*
X94992750Y-79318000D01*
X95149000Y-79161750D01*
X95149000Y-78418000D01*
X95399000Y-78418000D01*
X95399000Y-79161750D01*
X95555250Y-79318000D01*
X96348320Y-79318000D01*
X96578034Y-79222850D01*
X96753849Y-79047034D01*
X96849000Y-78817320D01*
X96849000Y-78574250D01*
X96692750Y-78418000D01*
X95399000Y-78418000D01*
X95149000Y-78418000D01*
X93963250Y-78418000D01*
X93928750Y-78383500D01*
X92835000Y-78383500D01*
X92835000Y-78403500D01*
X92585000Y-78403500D01*
X92585000Y-78383500D01*
X91491250Y-78383500D01*
X91335000Y-78539750D01*
X91335000Y-78955320D01*
X91409425Y-79135000D01*
X89135437Y-79135000D01*
X88121721Y-78121285D01*
X88121719Y-78121282D01*
X87202437Y-77202000D01*
X87775605Y-77202000D01*
X87820219Y-77271332D01*
X88029076Y-77414038D01*
X88277000Y-77464244D01*
X89122000Y-77464244D01*
X89353611Y-77420663D01*
X89566332Y-77283781D01*
X89662583Y-77142912D01*
X89745219Y-77271332D01*
G36*
X70753000Y-72136000D02*
X70800739Y-72376000D01*
X70819605Y-72470848D01*
X71009282Y-72754718D01*
X72912000Y-74657436D01*
X72912000Y-74694605D01*
X72842668Y-74739219D01*
X72836997Y-74747518D01*
X72780850Y-74611966D01*
X72605034Y-74436151D01*
X72375320Y-74341000D01*
X71782250Y-74341000D01*
X71626000Y-74497250D01*
X71626000Y-75413500D01*
X71646000Y-75413500D01*
X71646000Y-75663500D01*
X71626000Y-75663500D01*
X71626000Y-75683500D01*
X71376000Y-75683500D01*
X71376000Y-75663500D01*
X70282250Y-75663500D01*
X70189750Y-75756000D01*
X69189000Y-75756000D01*
X69189000Y-75776000D01*
X68939000Y-75776000D01*
X68939000Y-75756000D01*
X67645250Y-75756000D01*
X67546661Y-75854589D01*
X67470781Y-75736668D01*
X67261924Y-75593962D01*
X67014000Y-75543756D01*
X65114000Y-75543756D01*
X64882389Y-75587337D01*
X64669668Y-75724219D01*
X64526962Y-75933076D01*
X64476756Y-76181000D01*
X64476756Y-76981000D01*
X64520337Y-77212611D01*
X64657219Y-77425332D01*
X64866076Y-77568038D01*
X65114000Y-77618244D01*
X65189000Y-77618244D01*
X65189000Y-79260065D01*
X65004456Y-79383373D01*
X64695555Y-79845676D01*
X64587083Y-80391000D01*
X64695555Y-80936324D01*
X65004456Y-81398627D01*
X65167300Y-81507436D01*
X65008389Y-81537337D01*
X64927687Y-81589267D01*
X64793348Y-81264143D01*
X64406892Y-80877011D01*
X63901704Y-80667239D01*
X63354695Y-80666762D01*
X62849143Y-80875652D01*
X62797500Y-80927205D01*
X62797500Y-75106680D01*
X67489000Y-75106680D01*
X67489000Y-75349750D01*
X67645250Y-75506000D01*
X68939000Y-75506000D01*
X68939000Y-74762250D01*
X69189000Y-74762250D01*
X69189000Y-75506000D01*
X70482750Y-75506000D01*
X70575250Y-75413500D01*
X71376000Y-75413500D01*
X71376000Y-74497250D01*
X71219750Y-74341000D01*
X70626680Y-74341000D01*
X70396966Y-74436151D01*
X70221150Y-74611966D01*
X70211129Y-74636158D01*
X70138320Y-74606000D01*
X69345250Y-74606000D01*
X69189000Y-74762250D01*
X68939000Y-74762250D01*
X68782750Y-74606000D01*
X67989680Y-74606000D01*
X67759966Y-74701150D01*
X67584151Y-74876966D01*
X67489000Y-75106680D01*
X62797500Y-75106680D01*
X62797500Y-74202936D01*
X64116437Y-72884000D01*
X69088000Y-72884000D01*
X69422848Y-72817395D01*
X69706718Y-72627718D01*
X70753000Y-71581437D01*
X70753000Y-72136000D01*
X70753000Y-72136000D01*
G37*
X70753000Y-72136000D02*
X70800739Y-72376000D01*
X70819605Y-72470848D01*
X71009282Y-72754718D01*
X72912000Y-74657436D01*
X72912000Y-74694605D01*
X72842668Y-74739219D01*
X72836997Y-74747518D01*
X72780850Y-74611966D01*
X72605034Y-74436151D01*
X72375320Y-74341000D01*
X71782250Y-74341000D01*
X71626000Y-74497250D01*
X71626000Y-75413500D01*
X71646000Y-75413500D01*
X71646000Y-75663500D01*
X71626000Y-75663500D01*
X71626000Y-75683500D01*
X71376000Y-75683500D01*
X71376000Y-75663500D01*
X70282250Y-75663500D01*
X70189750Y-75756000D01*
X69189000Y-75756000D01*
X69189000Y-75776000D01*
X68939000Y-75776000D01*
X68939000Y-75756000D01*
X67645250Y-75756000D01*
X67546661Y-75854589D01*
X67470781Y-75736668D01*
X67261924Y-75593962D01*
X67014000Y-75543756D01*
X65114000Y-75543756D01*
X64882389Y-75587337D01*
X64669668Y-75724219D01*
X64526962Y-75933076D01*
X64476756Y-76181000D01*
X64476756Y-76981000D01*
X64520337Y-77212611D01*
X64657219Y-77425332D01*
X64866076Y-77568038D01*
X65114000Y-77618244D01*
X65189000Y-77618244D01*
X65189000Y-79260065D01*
X65004456Y-79383373D01*
X64695555Y-79845676D01*
X64587083Y-80391000D01*
X64695555Y-80936324D01*
X65004456Y-81398627D01*
X65167300Y-81507436D01*
X65008389Y-81537337D01*
X64927687Y-81589267D01*
X64793348Y-81264143D01*
X64406892Y-80877011D01*
X63901704Y-80667239D01*
X63354695Y-80666762D01*
X62849143Y-80875652D01*
X62797500Y-80927205D01*
X62797500Y-75106680D01*
X67489000Y-75106680D01*
X67489000Y-75349750D01*
X67645250Y-75506000D01*
X68939000Y-75506000D01*
X68939000Y-74762250D01*
X69189000Y-74762250D01*
X69189000Y-75506000D01*
X70482750Y-75506000D01*
X70575250Y-75413500D01*
X71376000Y-75413500D01*
X71376000Y-74497250D01*
X71219750Y-74341000D01*
X70626680Y-74341000D01*
X70396966Y-74436151D01*
X70221150Y-74611966D01*
X70211129Y-74636158D01*
X70138320Y-74606000D01*
X69345250Y-74606000D01*
X69189000Y-74762250D01*
X68939000Y-74762250D01*
X68782750Y-74606000D01*
X67989680Y-74606000D01*
X67759966Y-74701150D01*
X67584151Y-74876966D01*
X67489000Y-75106680D01*
X62797500Y-75106680D01*
X62797500Y-74202936D01*
X64116437Y-72884000D01*
X69088000Y-72884000D01*
X69422848Y-72817395D01*
X69706718Y-72627718D01*
X70753000Y-71581437D01*
X70753000Y-72136000D01*
G36*
X51005756Y-52430000D02*
X51005756Y-53930000D01*
X51049337Y-54161611D01*
X51068000Y-54190614D01*
X51068000Y-54610000D01*
X51127752Y-54910395D01*
X51134605Y-54944848D01*
X51324282Y-55228718D01*
X52467281Y-56371718D01*
X52663758Y-56503000D01*
X52715195Y-56537369D01*
X52594282Y-56658282D01*
X52404605Y-56942152D01*
X52352322Y-57205000D01*
X52224250Y-57205000D01*
X52068000Y-57361250D01*
X52068000Y-58455000D01*
X52088000Y-58455000D01*
X52088000Y-58705000D01*
X52068000Y-58705000D01*
X52068000Y-58725000D01*
X51818000Y-58725000D01*
X51818000Y-58705000D01*
X51174250Y-58705000D01*
X51018000Y-58861250D01*
X51018000Y-59454320D01*
X51113150Y-59684034D01*
X51133116Y-59704000D01*
X49643000Y-59704000D01*
X49643000Y-57705680D01*
X51018000Y-57705680D01*
X51018000Y-58298750D01*
X51174250Y-58455000D01*
X51818000Y-58455000D01*
X51818000Y-57361250D01*
X51661750Y-57205000D01*
X51518680Y-57205000D01*
X51288966Y-57300151D01*
X51113150Y-57475966D01*
X51018000Y-57705680D01*
X49643000Y-57705680D01*
X49643000Y-52686436D01*
X50019437Y-52310000D01*
X51030057Y-52310000D01*
X51005756Y-52430000D01*
X51005756Y-52430000D01*
G37*
X51005756Y-52430000D02*
X51005756Y-53930000D01*
X51049337Y-54161611D01*
X51068000Y-54190614D01*
X51068000Y-54610000D01*
X51127752Y-54910395D01*
X51134605Y-54944848D01*
X51324282Y-55228718D01*
X52467281Y-56371718D01*
X52663758Y-56503000D01*
X52715195Y-56537369D01*
X52594282Y-56658282D01*
X52404605Y-56942152D01*
X52352322Y-57205000D01*
X52224250Y-57205000D01*
X52068000Y-57361250D01*
X52068000Y-58455000D01*
X52088000Y-58455000D01*
X52088000Y-58705000D01*
X52068000Y-58705000D01*
X52068000Y-58725000D01*
X51818000Y-58725000D01*
X51818000Y-58705000D01*
X51174250Y-58705000D01*
X51018000Y-58861250D01*
X51018000Y-59454320D01*
X51113150Y-59684034D01*
X51133116Y-59704000D01*
X49643000Y-59704000D01*
X49643000Y-57705680D01*
X51018000Y-57705680D01*
X51018000Y-58298750D01*
X51174250Y-58455000D01*
X51818000Y-58455000D01*
X51818000Y-57361250D01*
X51661750Y-57205000D01*
X51518680Y-57205000D01*
X51288966Y-57300151D01*
X51113150Y-57475966D01*
X51018000Y-57705680D01*
X49643000Y-57705680D01*
X49643000Y-52686436D01*
X50019437Y-52310000D01*
X51030057Y-52310000D01*
X51005756Y-52430000D01*
G36*
X61047998Y-47078000D02*
X61073000Y-47078000D01*
X61073000Y-47536308D01*
X61014389Y-47547337D01*
X60801668Y-47684219D01*
X60709291Y-47819417D01*
X60695849Y-47786966D01*
X60520034Y-47611150D01*
X60290320Y-47516000D01*
X60024750Y-47516000D01*
X59868500Y-47672250D01*
X59868500Y-48516000D01*
X59888500Y-48516000D01*
X59888500Y-48766000D01*
X59868500Y-48766000D01*
X59868500Y-49609750D01*
X60024750Y-49766000D01*
X60290320Y-49766000D01*
X60520034Y-49670850D01*
X60695849Y-49495034D01*
X60709659Y-49461693D01*
X60789219Y-49585332D01*
X60998076Y-49728038D01*
X61246000Y-49778244D01*
X62091000Y-49778244D01*
X62259145Y-49746605D01*
X62121000Y-49884750D01*
X62121000Y-49948187D01*
X61960143Y-50014652D01*
X61668285Y-50306000D01*
X59671437Y-50306000D01*
X59549000Y-50183564D01*
X59549000Y-49784000D01*
X59531621Y-49696629D01*
X59618500Y-49609750D01*
X59618500Y-48766000D01*
X59598500Y-48766000D01*
X59598500Y-48516000D01*
X59618500Y-48516000D01*
X59618500Y-47672250D01*
X59462250Y-47516000D01*
X59323000Y-47516000D01*
X59323000Y-47090244D01*
X59423000Y-47090244D01*
X59552589Y-47065860D01*
X59673000Y-47090244D01*
X60073000Y-47090244D01*
X60202589Y-47065860D01*
X60323000Y-47090244D01*
X60723000Y-47090244D01*
X60829748Y-47070158D01*
X60848680Y-47078000D01*
X60916750Y-47078000D01*
X60946575Y-47048175D01*
X60954611Y-47046663D01*
X61047998Y-46986570D01*
X61047998Y-47078000D01*
X61047998Y-47078000D01*
G37*
X61047998Y-47078000D02*
X61073000Y-47078000D01*
X61073000Y-47536308D01*
X61014389Y-47547337D01*
X60801668Y-47684219D01*
X60709291Y-47819417D01*
X60695849Y-47786966D01*
X60520034Y-47611150D01*
X60290320Y-47516000D01*
X60024750Y-47516000D01*
X59868500Y-47672250D01*
X59868500Y-48516000D01*
X59888500Y-48516000D01*
X59888500Y-48766000D01*
X59868500Y-48766000D01*
X59868500Y-49609750D01*
X60024750Y-49766000D01*
X60290320Y-49766000D01*
X60520034Y-49670850D01*
X60695849Y-49495034D01*
X60709659Y-49461693D01*
X60789219Y-49585332D01*
X60998076Y-49728038D01*
X61246000Y-49778244D01*
X62091000Y-49778244D01*
X62259145Y-49746605D01*
X62121000Y-49884750D01*
X62121000Y-49948187D01*
X61960143Y-50014652D01*
X61668285Y-50306000D01*
X59671437Y-50306000D01*
X59549000Y-50183564D01*
X59549000Y-49784000D01*
X59531621Y-49696629D01*
X59618500Y-49609750D01*
X59618500Y-48766000D01*
X59598500Y-48766000D01*
X59598500Y-48516000D01*
X59618500Y-48516000D01*
X59618500Y-47672250D01*
X59462250Y-47516000D01*
X59323000Y-47516000D01*
X59323000Y-47090244D01*
X59423000Y-47090244D01*
X59552589Y-47065860D01*
X59673000Y-47090244D01*
X60073000Y-47090244D01*
X60202589Y-47065860D01*
X60323000Y-47090244D01*
X60723000Y-47090244D01*
X60829748Y-47070158D01*
X60848680Y-47078000D01*
X60916750Y-47078000D01*
X60946575Y-47048175D01*
X60954611Y-47046663D01*
X61047998Y-46986570D01*
X61047998Y-47078000D01*
G36*
X75000000Y-50125000D02*
X97875000Y-50125000D01*
X97875000Y-50179000D01*
X75038437Y-50179000D01*
X74980660Y-50121223D01*
X75000000Y-50125000D01*
X75000000Y-50125000D01*
G37*
X75000000Y-50125000D02*
X97875000Y-50125000D01*
X97875000Y-50179000D01*
X75038437Y-50179000D01*
X74980660Y-50121223D01*
X75000000Y-50125000D01*
G36*
X63371000Y-49478500D02*
X63391000Y-49478500D01*
X63391000Y-49728500D01*
X63371000Y-49728500D01*
X63371000Y-49748500D01*
X63121000Y-49748500D01*
X63121000Y-49728500D01*
X63101000Y-49728500D01*
X63101000Y-49478500D01*
X63121000Y-49478500D01*
X63121000Y-49458500D01*
X63371000Y-49458500D01*
X63371000Y-49478500D01*
X63371000Y-49478500D01*
G37*
X63371000Y-49478500D02*
X63391000Y-49478500D01*
X63391000Y-49728500D01*
X63371000Y-49728500D01*
X63371000Y-49748500D01*
X63121000Y-49748500D01*
X63121000Y-49728500D01*
X63101000Y-49728500D01*
X63101000Y-49478500D01*
X63121000Y-49478500D01*
X63121000Y-49458500D01*
X63371000Y-49458500D01*
X63371000Y-49478500D01*
G36*
X64276000Y-44050437D02*
X64276000Y-44450000D01*
X64342605Y-44784848D01*
X64532282Y-45068718D01*
X65167282Y-45703719D01*
X65451152Y-45893395D01*
X65786000Y-45960000D01*
X66054000Y-45960000D01*
X66054000Y-47290564D01*
X64756000Y-45992564D01*
X64756000Y-45953000D01*
X64689395Y-45618152D01*
X64499718Y-45334282D01*
X64215848Y-45144605D01*
X63881000Y-45078000D01*
X63830818Y-45087982D01*
X63779781Y-45008668D01*
X63570924Y-44865962D01*
X63323000Y-44815756D01*
X62923000Y-44815756D01*
X62793411Y-44840140D01*
X62673000Y-44815756D01*
X62273000Y-44815756D01*
X62143411Y-44840140D01*
X62023000Y-44815756D01*
X61623000Y-44815756D01*
X61620418Y-44816242D01*
X61641395Y-44784848D01*
X61708000Y-44450000D01*
X61708000Y-43674000D01*
X63899564Y-43674000D01*
X64276000Y-44050437D01*
X64276000Y-44050437D01*
G37*
X64276000Y-44050437D02*
X64276000Y-44450000D01*
X64342605Y-44784848D01*
X64532282Y-45068718D01*
X65167282Y-45703719D01*
X65451152Y-45893395D01*
X65786000Y-45960000D01*
X66054000Y-45960000D01*
X66054000Y-47290564D01*
X64756000Y-45992564D01*
X64756000Y-45953000D01*
X64689395Y-45618152D01*
X64499718Y-45334282D01*
X64215848Y-45144605D01*
X63881000Y-45078000D01*
X63830818Y-45087982D01*
X63779781Y-45008668D01*
X63570924Y-44865962D01*
X63323000Y-44815756D01*
X62923000Y-44815756D01*
X62793411Y-44840140D01*
X62673000Y-44815756D01*
X62273000Y-44815756D01*
X62143411Y-44840140D01*
X62023000Y-44815756D01*
X61623000Y-44815756D01*
X61620418Y-44816242D01*
X61641395Y-44784848D01*
X61708000Y-44450000D01*
X61708000Y-43674000D01*
X63899564Y-43674000D01*
X64276000Y-44050437D01*
M02*
