G04 #@! TF.GenerationSoftware,KiCad,Pcbnew,6.0.0-rc1-unknown*
G04 #@! TF.CreationDate,2019-01-01T14:04:30+03:00
G04 #@! TF.ProjectId,socket,736f636b-6574-42e6-9b69-6361645f7063,rev?*
G04 #@! TF.SameCoordinates,Original*
G04 #@! TF.FileFunction,Legend,Bot*
G04 #@! TF.FilePolarity,Positive*
%FSLAX46Y46*%
G04 Gerber Fmt 4.6, Leading zero omitted, Abs format (unit mm)*
G04 Created by KiCad (PCBNEW 6.0.0-rc1-unknown) date Вт 01 янв 2019 14:04:30*
%MOMM*%
%LPD*%
G04 APERTURE LIST*
%ADD10C,0.200000*%
%ADD11C,0.300000*%
%ADD12C,0.150000*%
%ADD13C,0.120000*%
G04 APERTURE END LIST*
D10*
X66802000Y-74168000D02*
X72644000Y-74168000D01*
X66802000Y-67691000D02*
X66802000Y-74168000D01*
X69215000Y-67691000D02*
X66802000Y-67691000D01*
X69215000Y-69215000D02*
X69215000Y-67691000D01*
X72644000Y-69215000D02*
X69215000Y-69215000D01*
D11*
X68623571Y-68116000D02*
X67123571Y-68116000D01*
X67123571Y-68687428D01*
X67195000Y-68830285D01*
X67266428Y-68901714D01*
X67409285Y-68973142D01*
X67623571Y-68973142D01*
X67766428Y-68901714D01*
X67837857Y-68830285D01*
X67909285Y-68687428D01*
X67909285Y-68116000D01*
X68623571Y-69616000D02*
X67123571Y-69616000D01*
X68195000Y-70116000D01*
X67123571Y-70616000D01*
X68623571Y-70616000D01*
X67123571Y-71616000D02*
X67123571Y-71901714D01*
X67195000Y-72044571D01*
X67337857Y-72187428D01*
X67623571Y-72258857D01*
X68123571Y-72258857D01*
X68409285Y-72187428D01*
X68552142Y-72044571D01*
X68623571Y-71901714D01*
X68623571Y-71616000D01*
X68552142Y-71473142D01*
X68409285Y-71330285D01*
X68123571Y-71258857D01*
X67623571Y-71258857D01*
X67337857Y-71330285D01*
X67195000Y-71473142D01*
X67123571Y-71616000D01*
X68552142Y-72830285D02*
X68623571Y-73044571D01*
X68623571Y-73401714D01*
X68552142Y-73544571D01*
X68480714Y-73616000D01*
X68337857Y-73687428D01*
X68195000Y-73687428D01*
X68052142Y-73616000D01*
X67980714Y-73544571D01*
X67909285Y-73401714D01*
X67837857Y-73116000D01*
X67766428Y-72973142D01*
X67695000Y-72901714D01*
X67552142Y-72830285D01*
X67409285Y-72830285D01*
X67266428Y-72901714D01*
X67195000Y-72973142D01*
X67123571Y-73116000D01*
X67123571Y-73473142D01*
X67195000Y-73687428D01*
D10*
X68453000Y-61722000D02*
X73279000Y-61722000D01*
X68453000Y-56134000D02*
X68453000Y-61722000D01*
X73279000Y-56134000D02*
X68453000Y-56134000D01*
D11*
X70274571Y-57162142D02*
X70203142Y-57019285D01*
X70131714Y-56947857D01*
X69988857Y-56876428D01*
X69560285Y-56876428D01*
X69417428Y-56947857D01*
X69346000Y-57019285D01*
X69274571Y-57162142D01*
X69274571Y-57376428D01*
X69346000Y-57519285D01*
X69417428Y-57590714D01*
X69560285Y-57662142D01*
X69988857Y-57662142D01*
X70131714Y-57590714D01*
X70203142Y-57519285D01*
X70274571Y-57376428D01*
X70274571Y-57162142D01*
X69274571Y-58305000D02*
X70774571Y-58305000D01*
X69346000Y-58305000D02*
X69274571Y-58447857D01*
X69274571Y-58733571D01*
X69346000Y-58876428D01*
X69417428Y-58947857D01*
X69560285Y-59019285D01*
X69988857Y-59019285D01*
X70131714Y-58947857D01*
X70203142Y-58876428D01*
X70274571Y-58733571D01*
X70274571Y-58447857D01*
X70203142Y-58305000D01*
X69274571Y-59447857D02*
X69274571Y-60019285D01*
X68774571Y-59662142D02*
X70060285Y-59662142D01*
X70203142Y-59733571D01*
X70274571Y-59876428D01*
X70274571Y-60019285D01*
X70274571Y-60733571D02*
X70203142Y-60590714D01*
X70131714Y-60519285D01*
X69988857Y-60447857D01*
X69560285Y-60447857D01*
X69417428Y-60519285D01*
X69346000Y-60590714D01*
X69274571Y-60733571D01*
X69274571Y-60947857D01*
X69346000Y-61090714D01*
X69417428Y-61162142D01*
X69560285Y-61233571D01*
X69988857Y-61233571D01*
X70131714Y-61162142D01*
X70203142Y-61090714D01*
X70274571Y-60947857D01*
X70274571Y-60733571D01*
X79894428Y-58560571D02*
X79608714Y-58560571D01*
X79465857Y-58489142D01*
X79394428Y-58417714D01*
X79251571Y-58203428D01*
X79180142Y-57917714D01*
X79180142Y-57346285D01*
X79251571Y-57203428D01*
X79323000Y-57132000D01*
X79465857Y-57060571D01*
X79751571Y-57060571D01*
X79894428Y-57132000D01*
X79965857Y-57203428D01*
X80037285Y-57346285D01*
X80037285Y-57703428D01*
X79965857Y-57846285D01*
X79894428Y-57917714D01*
X79751571Y-57989142D01*
X79465857Y-57989142D01*
X79323000Y-57917714D01*
X79251571Y-57846285D01*
X79180142Y-57703428D01*
X76251571Y-57989142D02*
X75108714Y-57989142D01*
X75680142Y-58560571D02*
X75680142Y-57417714D01*
X73680142Y-57060571D02*
X74394428Y-57060571D01*
X74465857Y-57774857D01*
X74394428Y-57703428D01*
X74251571Y-57632000D01*
X73894428Y-57632000D01*
X73751571Y-57703428D01*
X73680142Y-57774857D01*
X73608714Y-57917714D01*
X73608714Y-58274857D01*
X73680142Y-58417714D01*
X73751571Y-58489142D01*
X73894428Y-58560571D01*
X74251571Y-58560571D01*
X74394428Y-58489142D01*
X74465857Y-58417714D01*
X73108714Y-57560571D02*
X72751571Y-58560571D01*
X72394428Y-57560571D01*
X71037285Y-58560571D02*
X71894428Y-58560571D01*
X71465857Y-58560571D02*
X71465857Y-57060571D01*
X71608714Y-57274857D01*
X71751571Y-57417714D01*
X71894428Y-57489142D01*
X79180142Y-61110571D02*
X80037285Y-61110571D01*
X79608714Y-61110571D02*
X79608714Y-59610571D01*
X79751571Y-59824857D01*
X79894428Y-59967714D01*
X80037285Y-60039142D01*
X78251571Y-59610571D02*
X78108714Y-59610571D01*
X77965857Y-59682000D01*
X77894428Y-59753428D01*
X77823000Y-59896285D01*
X77751571Y-60182000D01*
X77751571Y-60539142D01*
X77823000Y-60824857D01*
X77894428Y-60967714D01*
X77965857Y-61039142D01*
X78108714Y-61110571D01*
X78251571Y-61110571D01*
X78394428Y-61039142D01*
X78465857Y-60967714D01*
X78537285Y-60824857D01*
X78608714Y-60539142D01*
X78608714Y-60182000D01*
X78537285Y-59896285D01*
X78465857Y-59753428D01*
X78394428Y-59682000D01*
X78251571Y-59610571D01*
X75323000Y-60110571D02*
X75323000Y-61324857D01*
X75394428Y-61467714D01*
X75465857Y-61539142D01*
X75608714Y-61610571D01*
X75823000Y-61610571D01*
X75965857Y-61539142D01*
X75323000Y-61039142D02*
X75465857Y-61110571D01*
X75751571Y-61110571D01*
X75894428Y-61039142D01*
X75965857Y-60967714D01*
X76037285Y-60824857D01*
X76037285Y-60396285D01*
X75965857Y-60253428D01*
X75894428Y-60182000D01*
X75751571Y-60110571D01*
X75465857Y-60110571D01*
X75323000Y-60182000D01*
X74608714Y-60110571D02*
X74608714Y-61110571D01*
X74608714Y-60253428D02*
X74537285Y-60182000D01*
X74394428Y-60110571D01*
X74180142Y-60110571D01*
X74037285Y-60182000D01*
X73965857Y-60324857D01*
X73965857Y-61110571D01*
X72608714Y-61110571D02*
X72608714Y-59610571D01*
X72608714Y-61039142D02*
X72751571Y-61110571D01*
X73037285Y-61110571D01*
X73180142Y-61039142D01*
X73251571Y-60967714D01*
X73323000Y-60824857D01*
X73323000Y-60396285D01*
X73251571Y-60253428D01*
X73180142Y-60182000D01*
X73037285Y-60110571D01*
X72751571Y-60110571D01*
X72608714Y-60182000D01*
X71108714Y-61110571D02*
X71965857Y-61110571D01*
X71537285Y-61110571D02*
X71537285Y-59610571D01*
X71680142Y-59824857D01*
X71823000Y-59967714D01*
X71965857Y-60039142D01*
X79180142Y-63660571D02*
X80037285Y-63660571D01*
X79608714Y-63660571D02*
X79608714Y-62160571D01*
X79751571Y-62374857D01*
X79894428Y-62517714D01*
X80037285Y-62589142D01*
X77751571Y-63660571D02*
X78608714Y-63660571D01*
X78180142Y-63660571D02*
X78180142Y-62160571D01*
X78323000Y-62374857D01*
X78465857Y-62517714D01*
X78608714Y-62589142D01*
X75323000Y-62660571D02*
X75323000Y-63874857D01*
X75394428Y-64017714D01*
X75465857Y-64089142D01*
X75608714Y-64160571D01*
X75823000Y-64160571D01*
X75965857Y-64089142D01*
X75323000Y-63589142D02*
X75465857Y-63660571D01*
X75751571Y-63660571D01*
X75894428Y-63589142D01*
X75965857Y-63517714D01*
X76037285Y-63374857D01*
X76037285Y-62946285D01*
X75965857Y-62803428D01*
X75894428Y-62732000D01*
X75751571Y-62660571D01*
X75465857Y-62660571D01*
X75323000Y-62732000D01*
X74608714Y-62660571D02*
X74608714Y-63660571D01*
X74608714Y-62803428D02*
X74537285Y-62732000D01*
X74394428Y-62660571D01*
X74180142Y-62660571D01*
X74037285Y-62732000D01*
X73965857Y-62874857D01*
X73965857Y-63660571D01*
X72608714Y-63660571D02*
X72608714Y-62160571D01*
X72608714Y-63589142D02*
X72751571Y-63660571D01*
X73037285Y-63660571D01*
X73180142Y-63589142D01*
X73251571Y-63517714D01*
X73323000Y-63374857D01*
X73323000Y-62946285D01*
X73251571Y-62803428D01*
X73180142Y-62732000D01*
X73037285Y-62660571D01*
X72751571Y-62660571D01*
X72608714Y-62732000D01*
X79180142Y-66210571D02*
X80037285Y-66210571D01*
X79608714Y-66210571D02*
X79608714Y-64710571D01*
X79751571Y-64924857D01*
X79894428Y-65067714D01*
X80037285Y-65139142D01*
X78608714Y-64853428D02*
X78537285Y-64782000D01*
X78394428Y-64710571D01*
X78037285Y-64710571D01*
X77894428Y-64782000D01*
X77823000Y-64853428D01*
X77751571Y-64996285D01*
X77751571Y-65139142D01*
X77823000Y-65353428D01*
X78680142Y-66210571D01*
X77751571Y-66210571D01*
X76108714Y-64710571D02*
X75180142Y-64710571D01*
X75680142Y-65282000D01*
X75465857Y-65282000D01*
X75323000Y-65353428D01*
X75251571Y-65424857D01*
X75180142Y-65567714D01*
X75180142Y-65924857D01*
X75251571Y-66067714D01*
X75323000Y-66139142D01*
X75465857Y-66210571D01*
X75894428Y-66210571D01*
X76037285Y-66139142D01*
X76108714Y-66067714D01*
X74537285Y-66067714D02*
X74465857Y-66139142D01*
X74537285Y-66210571D01*
X74608714Y-66139142D01*
X74537285Y-66067714D01*
X74537285Y-66210571D01*
X73823000Y-66067714D02*
X73751571Y-66139142D01*
X73823000Y-66210571D01*
X73894428Y-66139142D01*
X73823000Y-66067714D01*
X73823000Y-66210571D01*
X72394428Y-64710571D02*
X73108714Y-64710571D01*
X73180142Y-65424857D01*
X73108714Y-65353428D01*
X72965857Y-65282000D01*
X72608714Y-65282000D01*
X72465857Y-65353428D01*
X72394428Y-65424857D01*
X72323000Y-65567714D01*
X72323000Y-65924857D01*
X72394428Y-66067714D01*
X72465857Y-66139142D01*
X72608714Y-66210571D01*
X72965857Y-66210571D01*
X73108714Y-66139142D01*
X73180142Y-66067714D01*
X71894428Y-64710571D02*
X71394428Y-66210571D01*
X70894428Y-64710571D01*
X69037285Y-66210571D02*
X69180142Y-66139142D01*
X69251571Y-65996285D01*
X69251571Y-64710571D01*
X68251571Y-66210571D02*
X68394428Y-66139142D01*
X68465857Y-66067714D01*
X68537285Y-65924857D01*
X68537285Y-65496285D01*
X68465857Y-65353428D01*
X68394428Y-65282000D01*
X68251571Y-65210571D01*
X68037285Y-65210571D01*
X67894428Y-65282000D01*
X67823000Y-65353428D01*
X67751571Y-65496285D01*
X67751571Y-65924857D01*
X67823000Y-66067714D01*
X67894428Y-66139142D01*
X68037285Y-66210571D01*
X68251571Y-66210571D01*
X66465857Y-65210571D02*
X66465857Y-66424857D01*
X66537285Y-66567714D01*
X66608714Y-66639142D01*
X66751571Y-66710571D01*
X66965857Y-66710571D01*
X67108714Y-66639142D01*
X66465857Y-66139142D02*
X66608714Y-66210571D01*
X66894428Y-66210571D01*
X67037285Y-66139142D01*
X67108714Y-66067714D01*
X67180142Y-65924857D01*
X67180142Y-65496285D01*
X67108714Y-65353428D01*
X67037285Y-65282000D01*
X66894428Y-65210571D01*
X66608714Y-65210571D01*
X66465857Y-65282000D01*
X65751571Y-66067714D02*
X65680142Y-66139142D01*
X65751571Y-66210571D01*
X65823000Y-66139142D01*
X65751571Y-66067714D01*
X65751571Y-66210571D01*
X65037285Y-66210571D02*
X65037285Y-65210571D01*
X65037285Y-64710571D02*
X65108714Y-64782000D01*
X65037285Y-64853428D01*
X64965857Y-64782000D01*
X65037285Y-64710571D01*
X65037285Y-64853428D01*
X64323000Y-65210571D02*
X64323000Y-66210571D01*
X64323000Y-65353428D02*
X64251571Y-65282000D01*
X64108714Y-65210571D01*
X63894428Y-65210571D01*
X63751571Y-65282000D01*
X63680142Y-65424857D01*
X63680142Y-66210571D01*
X79180142Y-68760571D02*
X80037285Y-68760571D01*
X79608714Y-68760571D02*
X79608714Y-67260571D01*
X79751571Y-67474857D01*
X79894428Y-67617714D01*
X80037285Y-67689142D01*
X78680142Y-67260571D02*
X77751571Y-67260571D01*
X78251571Y-67832000D01*
X78037285Y-67832000D01*
X77894428Y-67903428D01*
X77823000Y-67974857D01*
X77751571Y-68117714D01*
X77751571Y-68474857D01*
X77823000Y-68617714D01*
X77894428Y-68689142D01*
X78037285Y-68760571D01*
X78465857Y-68760571D01*
X78608714Y-68689142D01*
X78680142Y-68617714D01*
X75965857Y-68760571D02*
X75965857Y-67260571D01*
X75108714Y-68760571D01*
X75108714Y-67260571D01*
X73537285Y-68617714D02*
X73608714Y-68689142D01*
X73823000Y-68760571D01*
X73965857Y-68760571D01*
X74180142Y-68689142D01*
X74323000Y-68546285D01*
X74394428Y-68403428D01*
X74465857Y-68117714D01*
X74465857Y-67903428D01*
X74394428Y-67617714D01*
X74323000Y-67474857D01*
X74180142Y-67332000D01*
X73965857Y-67260571D01*
X73823000Y-67260571D01*
X73608714Y-67332000D01*
X73537285Y-67403428D01*
X79180142Y-71310571D02*
X80037285Y-71310571D01*
X79608714Y-71310571D02*
X79608714Y-69810571D01*
X79751571Y-70024857D01*
X79894428Y-70167714D01*
X80037285Y-70239142D01*
X77894428Y-70310571D02*
X77894428Y-71310571D01*
X78251571Y-69739142D02*
X78608714Y-70810571D01*
X77680142Y-70810571D01*
X75323000Y-70310571D02*
X75323000Y-71524857D01*
X75394428Y-71667714D01*
X75465857Y-71739142D01*
X75608714Y-71810571D01*
X75823000Y-71810571D01*
X75965857Y-71739142D01*
X75323000Y-71239142D02*
X75465857Y-71310571D01*
X75751571Y-71310571D01*
X75894428Y-71239142D01*
X75965857Y-71167714D01*
X76037285Y-71024857D01*
X76037285Y-70596285D01*
X75965857Y-70453428D01*
X75894428Y-70382000D01*
X75751571Y-70310571D01*
X75465857Y-70310571D01*
X75323000Y-70382000D01*
X74608714Y-70310571D02*
X74608714Y-71310571D01*
X74608714Y-70453428D02*
X74537285Y-70382000D01*
X74394428Y-70310571D01*
X74180142Y-70310571D01*
X74037285Y-70382000D01*
X73965857Y-70524857D01*
X73965857Y-71310571D01*
X72608714Y-71310571D02*
X72608714Y-69810571D01*
X72608714Y-71239142D02*
X72751571Y-71310571D01*
X73037285Y-71310571D01*
X73180142Y-71239142D01*
X73251571Y-71167714D01*
X73323000Y-71024857D01*
X73323000Y-70596285D01*
X73251571Y-70453428D01*
X73180142Y-70382000D01*
X73037285Y-70310571D01*
X72751571Y-70310571D01*
X72608714Y-70382000D01*
X71965857Y-69953428D02*
X71894428Y-69882000D01*
X71751571Y-69810571D01*
X71394428Y-69810571D01*
X71251571Y-69882000D01*
X71180142Y-69953428D01*
X71108714Y-70096285D01*
X71108714Y-70239142D01*
X71180142Y-70453428D01*
X72037285Y-71310571D01*
X71108714Y-71310571D01*
X79180142Y-73860571D02*
X80037285Y-73860571D01*
X79608714Y-73860571D02*
X79608714Y-72360571D01*
X79751571Y-72574857D01*
X79894428Y-72717714D01*
X80037285Y-72789142D01*
X77823000Y-72360571D02*
X78537285Y-72360571D01*
X78608714Y-73074857D01*
X78537285Y-73003428D01*
X78394428Y-72932000D01*
X78037285Y-72932000D01*
X77894428Y-73003428D01*
X77823000Y-73074857D01*
X77751571Y-73217714D01*
X77751571Y-73574857D01*
X77823000Y-73717714D01*
X77894428Y-73789142D01*
X78037285Y-73860571D01*
X78394428Y-73860571D01*
X78537285Y-73789142D01*
X78608714Y-73717714D01*
X76108714Y-72360571D02*
X75180142Y-72360571D01*
X75680142Y-72932000D01*
X75465857Y-72932000D01*
X75323000Y-73003428D01*
X75251571Y-73074857D01*
X75180142Y-73217714D01*
X75180142Y-73574857D01*
X75251571Y-73717714D01*
X75323000Y-73789142D01*
X75465857Y-73860571D01*
X75894428Y-73860571D01*
X76037285Y-73789142D01*
X76108714Y-73717714D01*
X74537285Y-73717714D02*
X74465857Y-73789142D01*
X74537285Y-73860571D01*
X74608714Y-73789142D01*
X74537285Y-73717714D01*
X74537285Y-73860571D01*
X73823000Y-73717714D02*
X73751571Y-73789142D01*
X73823000Y-73860571D01*
X73894428Y-73789142D01*
X73823000Y-73717714D01*
X73823000Y-73860571D01*
X72323000Y-73860571D02*
X73180142Y-73860571D01*
X72751571Y-73860571D02*
X72751571Y-72360571D01*
X72894428Y-72574857D01*
X73037285Y-72717714D01*
X73180142Y-72789142D01*
X70965857Y-72360571D02*
X71680142Y-72360571D01*
X71751571Y-73074857D01*
X71680142Y-73003428D01*
X71537285Y-72932000D01*
X71180142Y-72932000D01*
X71037285Y-73003428D01*
X70965857Y-73074857D01*
X70894428Y-73217714D01*
X70894428Y-73574857D01*
X70965857Y-73717714D01*
X71037285Y-73789142D01*
X71180142Y-73860571D01*
X71537285Y-73860571D01*
X71680142Y-73789142D01*
X71751571Y-73717714D01*
X70465857Y-72360571D02*
X69965857Y-73860571D01*
X69465857Y-72360571D01*
X99853714Y-91483571D02*
X100710857Y-91483571D01*
X100282285Y-91483571D02*
X100282285Y-89983571D01*
X100425142Y-90197857D01*
X100568000Y-90340714D01*
X100710857Y-90412142D01*
X98496571Y-89983571D02*
X99210857Y-89983571D01*
X99282285Y-90697857D01*
X99210857Y-90626428D01*
X99068000Y-90555000D01*
X98710857Y-90555000D01*
X98568000Y-90626428D01*
X98496571Y-90697857D01*
X98425142Y-90840714D01*
X98425142Y-91197857D01*
X98496571Y-91340714D01*
X98568000Y-91412142D01*
X98710857Y-91483571D01*
X99068000Y-91483571D01*
X99210857Y-91412142D01*
X99282285Y-91340714D01*
X78263714Y-91483571D02*
X77978000Y-91483571D01*
X77835142Y-91412142D01*
X77763714Y-91340714D01*
X77620857Y-91126428D01*
X77549428Y-90840714D01*
X77549428Y-90269285D01*
X77620857Y-90126428D01*
X77692285Y-90055000D01*
X77835142Y-89983571D01*
X78120857Y-89983571D01*
X78263714Y-90055000D01*
X78335142Y-90126428D01*
X78406571Y-90269285D01*
X78406571Y-90626428D01*
X78335142Y-90769285D01*
X78263714Y-90840714D01*
X78120857Y-90912142D01*
X77835142Y-90912142D01*
X77692285Y-90840714D01*
X77620857Y-90769285D01*
X77549428Y-90626428D01*
X82720571Y-59607428D02*
X81220571Y-59607428D01*
X81220571Y-59964571D01*
X81292000Y-60178857D01*
X81434857Y-60321714D01*
X81577714Y-60393142D01*
X81863428Y-60464571D01*
X82077714Y-60464571D01*
X82363428Y-60393142D01*
X82506285Y-60321714D01*
X82649142Y-60178857D01*
X82720571Y-59964571D01*
X82720571Y-59607428D01*
X81934857Y-61607428D02*
X82006285Y-61821714D01*
X82077714Y-61893142D01*
X82220571Y-61964571D01*
X82434857Y-61964571D01*
X82577714Y-61893142D01*
X82649142Y-61821714D01*
X82720571Y-61678857D01*
X82720571Y-61107428D01*
X81220571Y-61107428D01*
X81220571Y-61607428D01*
X81292000Y-61750285D01*
X81363428Y-61821714D01*
X81506285Y-61893142D01*
X81649142Y-61893142D01*
X81792000Y-61821714D01*
X81863428Y-61750285D01*
X81934857Y-61607428D01*
X81934857Y-61107428D01*
X82720571Y-63393142D02*
X82720571Y-62536000D01*
X82720571Y-62964571D02*
X81220571Y-62964571D01*
X81434857Y-62821714D01*
X81577714Y-62678857D01*
X81649142Y-62536000D01*
X81220571Y-64750285D02*
X81220571Y-64036000D01*
X81934857Y-63964571D01*
X81863428Y-64036000D01*
X81792000Y-64178857D01*
X81792000Y-64536000D01*
X81863428Y-64678857D01*
X81934857Y-64750285D01*
X82077714Y-64821714D01*
X82434857Y-64821714D01*
X82577714Y-64750285D01*
X82649142Y-64678857D01*
X82720571Y-64536000D01*
X82720571Y-64178857D01*
X82649142Y-64036000D01*
X82577714Y-63964571D01*
X82649142Y-67250285D02*
X82720571Y-67107428D01*
X82720571Y-66821714D01*
X82649142Y-66678857D01*
X82577714Y-66607428D01*
X82434857Y-66536000D01*
X82006285Y-66536000D01*
X81863428Y-66607428D01*
X81792000Y-66678857D01*
X81720571Y-66821714D01*
X81720571Y-67107428D01*
X81792000Y-67250285D01*
X82720571Y-68107428D02*
X82649142Y-67964571D01*
X82577714Y-67893142D01*
X82434857Y-67821714D01*
X82006285Y-67821714D01*
X81863428Y-67893142D01*
X81792000Y-67964571D01*
X81720571Y-68107428D01*
X81720571Y-68321714D01*
X81792000Y-68464571D01*
X81863428Y-68536000D01*
X82006285Y-68607428D01*
X82434857Y-68607428D01*
X82577714Y-68536000D01*
X82649142Y-68464571D01*
X82720571Y-68321714D01*
X82720571Y-68107428D01*
X81720571Y-69250285D02*
X82720571Y-69250285D01*
X81863428Y-69250285D02*
X81792000Y-69321714D01*
X81720571Y-69464571D01*
X81720571Y-69678857D01*
X81792000Y-69821714D01*
X81934857Y-69893142D01*
X82720571Y-69893142D01*
X81720571Y-70607428D02*
X82720571Y-70607428D01*
X81863428Y-70607428D02*
X81792000Y-70678857D01*
X81720571Y-70821714D01*
X81720571Y-71036000D01*
X81792000Y-71178857D01*
X81934857Y-71250285D01*
X82720571Y-71250285D01*
X82577714Y-71964571D02*
X82649142Y-72036000D01*
X82720571Y-71964571D01*
X82649142Y-71893142D01*
X82577714Y-71964571D01*
X82720571Y-71964571D01*
X54816428Y-61638571D02*
X55673571Y-61638571D01*
X55245000Y-61638571D02*
X55245000Y-60138571D01*
X55387857Y-60352857D01*
X55530714Y-60495714D01*
X55673571Y-60567142D01*
X104600428Y-45636571D02*
X105457571Y-45636571D01*
X105029000Y-45636571D02*
X105029000Y-44136571D01*
X105171857Y-44350857D01*
X105314714Y-44493714D01*
X105457571Y-44565142D01*
X54689428Y-43731571D02*
X55546571Y-43731571D01*
X55118000Y-43731571D02*
X55118000Y-42231571D01*
X55260857Y-42445857D01*
X55403714Y-42588714D01*
X55546571Y-42660142D01*
D12*
X125500000Y-93000000D02*
X38500000Y-93000000D01*
X38500000Y-22000000D02*
X125500000Y-22000000D01*
X125500000Y-22000000D02*
X125500000Y-93000000D01*
X38500000Y-22000000D02*
X38500000Y-93000000D01*
D13*
X112010000Y-51720000D02*
X112010000Y-51280000D01*
X110990000Y-51720000D02*
X110990000Y-51280000D01*
X52231000Y-46230000D02*
X52671000Y-46230000D01*
X52231000Y-45210000D02*
X52671000Y-45210000D01*
X54106000Y-44256000D02*
X54106000Y-43856000D01*
X54106000Y-43856000D02*
X52706000Y-43856000D01*
X54106000Y-44256000D02*
X58906000Y-44256000D01*
X54106000Y-33456000D02*
X58906000Y-33456000D01*
X56735000Y-31748000D02*
X56295000Y-31748000D01*
X56735000Y-32768000D02*
X56295000Y-32768000D01*
X66169000Y-71467000D02*
X66169000Y-71027000D01*
X65149000Y-71467000D02*
X65149000Y-71027000D01*
X50421000Y-39209000D02*
X50421000Y-38769000D01*
X49401000Y-39209000D02*
X49401000Y-38769000D01*
X65149000Y-59597000D02*
X65149000Y-60037000D01*
X66169000Y-59597000D02*
X66169000Y-60037000D01*
X50421000Y-43019000D02*
X50421000Y-42579000D01*
X49401000Y-43019000D02*
X49401000Y-42579000D01*
X103122000Y-51215000D02*
X103122000Y-51655000D01*
X104142000Y-51215000D02*
X104142000Y-51655000D01*
X55736000Y-64327000D02*
X55736000Y-62427000D01*
X58056000Y-62927000D02*
X58056000Y-64327000D01*
X64667000Y-74431000D02*
X64667000Y-78731000D01*
X64667000Y-78731000D02*
X57117000Y-78731000D01*
X64667000Y-74431000D02*
X57117000Y-74431000D01*
X94744000Y-87559000D02*
X94744000Y-86629000D01*
X94744000Y-84399000D02*
X94744000Y-85329000D01*
X94744000Y-84399000D02*
X97904000Y-84399000D01*
X94744000Y-87559000D02*
X96204000Y-87559000D01*
X87755000Y-23312000D02*
X87755000Y-24242000D01*
X87755000Y-26472000D02*
X87755000Y-25542000D01*
X87755000Y-26472000D02*
X84595000Y-26472000D01*
X87755000Y-23312000D02*
X86295000Y-23312000D01*
X99439000Y-49728000D02*
X99439000Y-50658000D01*
X99439000Y-52888000D02*
X99439000Y-51958000D01*
X99439000Y-52888000D02*
X96279000Y-52888000D01*
X99439000Y-49728000D02*
X97979000Y-49728000D01*
X56862000Y-69086000D02*
X56422000Y-69086000D01*
X56862000Y-70106000D02*
X56422000Y-70106000D01*
X56862000Y-70991000D02*
X56422000Y-70991000D01*
X56862000Y-72011000D02*
X56422000Y-72011000D01*
X89029000Y-86453000D02*
X89029000Y-86013000D01*
X88009000Y-86453000D02*
X88009000Y-86013000D01*
X79468000Y-86866000D02*
X79028000Y-86866000D01*
X79468000Y-87886000D02*
X79028000Y-87886000D01*
X96232000Y-82294000D02*
X95792000Y-82294000D01*
X96232000Y-83314000D02*
X95792000Y-83314000D01*
X106043000Y-26450000D02*
X106043000Y-26890000D01*
X107063000Y-26450000D02*
X107063000Y-26890000D01*
X72102000Y-25144000D02*
X71662000Y-25144000D01*
X72102000Y-26164000D02*
X71662000Y-26164000D01*
X79722000Y-53592000D02*
X79282000Y-53592000D01*
X79722000Y-54612000D02*
X79282000Y-54612000D01*
X61597000Y-48353000D02*
X61597000Y-47913000D01*
X60577000Y-48353000D02*
X60577000Y-47913000D01*
X82737000Y-79645000D02*
G75*
G03X82737000Y-81645000I0J-1000000D01*
G01*
X82737000Y-81645000D02*
X82737000Y-83295000D01*
X82737000Y-83295000D02*
X77537000Y-83295000D01*
X77537000Y-83295000D02*
X77537000Y-77995000D01*
X77537000Y-77995000D02*
X82737000Y-77995000D01*
X82737000Y-77995000D02*
X82737000Y-79645000D01*
X70850000Y-84261000D02*
G75*
G03X68850000Y-84261000I-1000000J0D01*
G01*
X68850000Y-84261000D02*
X67200000Y-84261000D01*
X67200000Y-84261000D02*
X67200000Y-79061000D01*
X67200000Y-79061000D02*
X72500000Y-79061000D01*
X72500000Y-79061000D02*
X72500000Y-84261000D01*
X72500000Y-84261000D02*
X70850000Y-84261000D01*
X70850000Y-90865000D02*
G75*
G03X68850000Y-90865000I-1000000J0D01*
G01*
X68850000Y-90865000D02*
X67200000Y-90865000D01*
X67200000Y-90865000D02*
X67200000Y-85665000D01*
X67200000Y-85665000D02*
X72500000Y-85665000D01*
X72500000Y-85665000D02*
X72500000Y-90865000D01*
X72500000Y-90865000D02*
X70850000Y-90865000D01*
D12*
X104359000Y-43645000D02*
X104409000Y-43645000D01*
X104359000Y-47795000D02*
X104504000Y-47795000D01*
X109509000Y-47795000D02*
X109364000Y-47795000D01*
X109509000Y-43645000D02*
X109364000Y-43645000D01*
X104359000Y-43645000D02*
X104359000Y-47795000D01*
X109509000Y-43645000D02*
X109509000Y-47795000D01*
X104409000Y-43645000D02*
X104409000Y-42245000D01*
D13*
X89149000Y-80811000D02*
X89149000Y-82511000D01*
X89149000Y-82511000D02*
X85999000Y-82511000D01*
X89149000Y-80811000D02*
X85999000Y-80811000D01*
X107059000Y-51215000D02*
X107059000Y-51655000D01*
X108079000Y-51215000D02*
X108079000Y-51655000D01*
X113790000Y-55443000D02*
X113790000Y-56373000D01*
X113790000Y-58603000D02*
X113790000Y-57673000D01*
X113790000Y-58603000D02*
X110630000Y-58603000D01*
X113790000Y-55443000D02*
X112330000Y-55443000D01*
X73417500Y-53680500D02*
X73417500Y-53380500D01*
X71997500Y-53680500D02*
X71997500Y-53380500D01*
X83133000Y-24915000D02*
X83133000Y-24615000D01*
X81713000Y-24915000D02*
X81713000Y-24615000D01*
X108129000Y-57000000D02*
X108129000Y-57300000D01*
X109549000Y-57000000D02*
X109549000Y-57300000D01*
X95579000Y-51585000D02*
X95579000Y-51285000D01*
X94159000Y-51585000D02*
X94159000Y-51285000D01*
X60707000Y-38637000D02*
X64007000Y-38637000D01*
X64007000Y-38637000D02*
X64007000Y-44037000D01*
X60707000Y-38637000D02*
X60707000Y-44037000D01*
X69816000Y-38098000D02*
X69376000Y-38098000D01*
X69816000Y-39118000D02*
X69376000Y-39118000D01*
X117369500Y-46890000D02*
X110849500Y-46890000D01*
X110849500Y-46890000D02*
X110849500Y-26770000D01*
X110849500Y-26770000D02*
X117369500Y-26770000D01*
X117369500Y-26770000D02*
X117369500Y-46890000D01*
X114109500Y-48150000D02*
X114109500Y-46890000D01*
X114109500Y-25510000D02*
X114109500Y-26770000D01*
X116163000Y-87911000D02*
X109643000Y-87911000D01*
X109643000Y-87911000D02*
X109643000Y-67791000D01*
X109643000Y-67791000D02*
X116163000Y-67791000D01*
X116163000Y-67791000D02*
X116163000Y-87911000D01*
X112903000Y-89171000D02*
X112903000Y-87911000D01*
X112903000Y-66531000D02*
X112903000Y-67791000D01*
X102308000Y-36465000D02*
X102308000Y-38465000D01*
X104448000Y-38465000D02*
X104448000Y-36465000D01*
X120126000Y-64462000D02*
X118126000Y-64462000D01*
X118126000Y-66602000D02*
X120126000Y-66602000D01*
D12*
X113603380Y-51873142D02*
X113127190Y-51539809D01*
X113603380Y-51301714D02*
X112603380Y-51301714D01*
X112603380Y-51682666D01*
X112651000Y-51777904D01*
X112698619Y-51825523D01*
X112793857Y-51873142D01*
X112936714Y-51873142D01*
X113031952Y-51825523D01*
X113079571Y-51777904D01*
X113127190Y-51682666D01*
X113127190Y-51301714D01*
X113603380Y-52825523D02*
X113603380Y-52254095D01*
X113603380Y-52539809D02*
X112603380Y-52539809D01*
X112746238Y-52444571D01*
X112841476Y-52349333D01*
X112889095Y-52254095D01*
X112603380Y-53158857D02*
X112603380Y-53825523D01*
X113603380Y-53396952D01*
X52617666Y-47727142D02*
X52665285Y-47774761D01*
X52808142Y-47822380D01*
X52903380Y-47822380D01*
X53046238Y-47774761D01*
X53141476Y-47679523D01*
X53189095Y-47584285D01*
X53236714Y-47393809D01*
X53236714Y-47250952D01*
X53189095Y-47060476D01*
X53141476Y-46965238D01*
X53046238Y-46870000D01*
X52903380Y-46822380D01*
X52808142Y-46822380D01*
X52665285Y-46870000D01*
X52617666Y-46917619D01*
X51665285Y-47822380D02*
X52236714Y-47822380D01*
X51951000Y-47822380D02*
X51951000Y-46822380D01*
X52046238Y-46965238D01*
X52141476Y-47060476D01*
X52236714Y-47108095D01*
X57267904Y-44508380D02*
X57267904Y-45317904D01*
X57220285Y-45413142D01*
X57172666Y-45460761D01*
X57077428Y-45508380D01*
X56886952Y-45508380D01*
X56791714Y-45460761D01*
X56744095Y-45413142D01*
X56696476Y-45317904D01*
X56696476Y-44508380D01*
X55696476Y-45508380D02*
X56267904Y-45508380D01*
X55982190Y-45508380D02*
X55982190Y-44508380D01*
X56077428Y-44651238D01*
X56172666Y-44746476D01*
X56267904Y-44794095D01*
X56681666Y-30965142D02*
X56729285Y-31012761D01*
X56872142Y-31060380D01*
X56967380Y-31060380D01*
X57110238Y-31012761D01*
X57205476Y-30917523D01*
X57253095Y-30822285D01*
X57300714Y-30631809D01*
X57300714Y-30488952D01*
X57253095Y-30298476D01*
X57205476Y-30203238D01*
X57110238Y-30108000D01*
X56967380Y-30060380D01*
X56872142Y-30060380D01*
X56729285Y-30108000D01*
X56681666Y-30155619D01*
X56300714Y-30155619D02*
X56253095Y-30108000D01*
X56157857Y-30060380D01*
X55919761Y-30060380D01*
X55824523Y-30108000D01*
X55776904Y-30155619D01*
X55729285Y-30250857D01*
X55729285Y-30346095D01*
X55776904Y-30488952D01*
X56348333Y-31060380D01*
X55729285Y-31060380D01*
X64492142Y-71080333D02*
X64539761Y-71032714D01*
X64587380Y-70889857D01*
X64587380Y-70794619D01*
X64539761Y-70651761D01*
X64444523Y-70556523D01*
X64349285Y-70508904D01*
X64158809Y-70461285D01*
X64015952Y-70461285D01*
X63825476Y-70508904D01*
X63730238Y-70556523D01*
X63635000Y-70651761D01*
X63587380Y-70794619D01*
X63587380Y-70889857D01*
X63635000Y-71032714D01*
X63682619Y-71080333D01*
X63587380Y-71413666D02*
X63587380Y-72032714D01*
X63968333Y-71699380D01*
X63968333Y-71842238D01*
X64015952Y-71937476D01*
X64063571Y-71985095D01*
X64158809Y-72032714D01*
X64396904Y-72032714D01*
X64492142Y-71985095D01*
X64539761Y-71937476D01*
X64587380Y-71842238D01*
X64587380Y-71556523D01*
X64539761Y-71461285D01*
X64492142Y-71413666D01*
X48744142Y-38822333D02*
X48791761Y-38774714D01*
X48839380Y-38631857D01*
X48839380Y-38536619D01*
X48791761Y-38393761D01*
X48696523Y-38298523D01*
X48601285Y-38250904D01*
X48410809Y-38203285D01*
X48267952Y-38203285D01*
X48077476Y-38250904D01*
X47982238Y-38298523D01*
X47887000Y-38393761D01*
X47839380Y-38536619D01*
X47839380Y-38631857D01*
X47887000Y-38774714D01*
X47934619Y-38822333D01*
X48172714Y-39679476D02*
X48839380Y-39679476D01*
X47791761Y-39441380D02*
X48506047Y-39203285D01*
X48506047Y-39822333D01*
X64366142Y-59650333D02*
X64413761Y-59602714D01*
X64461380Y-59459857D01*
X64461380Y-59364619D01*
X64413761Y-59221761D01*
X64318523Y-59126523D01*
X64223285Y-59078904D01*
X64032809Y-59031285D01*
X63889952Y-59031285D01*
X63699476Y-59078904D01*
X63604238Y-59126523D01*
X63509000Y-59221761D01*
X63461380Y-59364619D01*
X63461380Y-59459857D01*
X63509000Y-59602714D01*
X63556619Y-59650333D01*
X63461380Y-60555095D02*
X63461380Y-60078904D01*
X63937571Y-60031285D01*
X63889952Y-60078904D01*
X63842333Y-60174142D01*
X63842333Y-60412238D01*
X63889952Y-60507476D01*
X63937571Y-60555095D01*
X64032809Y-60602714D01*
X64270904Y-60602714D01*
X64366142Y-60555095D01*
X64413761Y-60507476D01*
X64461380Y-60412238D01*
X64461380Y-60174142D01*
X64413761Y-60078904D01*
X64366142Y-60031285D01*
X48744142Y-42632333D02*
X48791761Y-42584714D01*
X48839380Y-42441857D01*
X48839380Y-42346619D01*
X48791761Y-42203761D01*
X48696523Y-42108523D01*
X48601285Y-42060904D01*
X48410809Y-42013285D01*
X48267952Y-42013285D01*
X48077476Y-42060904D01*
X47982238Y-42108523D01*
X47887000Y-42203761D01*
X47839380Y-42346619D01*
X47839380Y-42441857D01*
X47887000Y-42584714D01*
X47934619Y-42632333D01*
X47839380Y-42965666D02*
X47839380Y-43632333D01*
X48839380Y-43203761D01*
X102339142Y-50792142D02*
X102386761Y-50744523D01*
X102434380Y-50601666D01*
X102434380Y-50506428D01*
X102386761Y-50363571D01*
X102291523Y-50268333D01*
X102196285Y-50220714D01*
X102005809Y-50173095D01*
X101862952Y-50173095D01*
X101672476Y-50220714D01*
X101577238Y-50268333D01*
X101482000Y-50363571D01*
X101434380Y-50506428D01*
X101434380Y-50601666D01*
X101482000Y-50744523D01*
X101529619Y-50792142D01*
X102434380Y-51744523D02*
X102434380Y-51173095D01*
X102434380Y-51458809D02*
X101434380Y-51458809D01*
X101577238Y-51363571D01*
X101672476Y-51268333D01*
X101720095Y-51173095D01*
X102434380Y-52696904D02*
X102434380Y-52125476D01*
X102434380Y-52411190D02*
X101434380Y-52411190D01*
X101577238Y-52315952D01*
X101672476Y-52220714D01*
X101720095Y-52125476D01*
X55348380Y-62888904D02*
X54348380Y-62888904D01*
X54348380Y-63127000D01*
X54396000Y-63269857D01*
X54491238Y-63365095D01*
X54586476Y-63412714D01*
X54776952Y-63460333D01*
X54919809Y-63460333D01*
X55110285Y-63412714D01*
X55205523Y-63365095D01*
X55300761Y-63269857D01*
X55348380Y-63127000D01*
X55348380Y-62888904D01*
X55348380Y-64412714D02*
X55348380Y-63841285D01*
X55348380Y-64127000D02*
X54348380Y-64127000D01*
X54491238Y-64031761D01*
X54586476Y-63936523D01*
X54634095Y-63841285D01*
X60555095Y-80208380D02*
X60555095Y-79208380D01*
X60317000Y-79208380D01*
X60174142Y-79256000D01*
X60078904Y-79351238D01*
X60031285Y-79446476D01*
X59983666Y-79636952D01*
X59983666Y-79779809D01*
X60031285Y-79970285D01*
X60078904Y-80065523D01*
X60174142Y-80160761D01*
X60317000Y-80208380D01*
X60555095Y-80208380D01*
X59602714Y-79303619D02*
X59555095Y-79256000D01*
X59459857Y-79208380D01*
X59221761Y-79208380D01*
X59126523Y-79256000D01*
X59078904Y-79303619D01*
X59031285Y-79398857D01*
X59031285Y-79494095D01*
X59078904Y-79636952D01*
X59650333Y-80208380D01*
X59031285Y-80208380D01*
X95472238Y-88939619D02*
X95567476Y-88892000D01*
X95662714Y-88796761D01*
X95805571Y-88653904D01*
X95900809Y-88606285D01*
X95996047Y-88606285D01*
X95948428Y-88844380D02*
X96043666Y-88796761D01*
X96138904Y-88701523D01*
X96186523Y-88511047D01*
X96186523Y-88177714D01*
X96138904Y-87987238D01*
X96043666Y-87892000D01*
X95948428Y-87844380D01*
X95757952Y-87844380D01*
X95662714Y-87892000D01*
X95567476Y-87987238D01*
X95519857Y-88177714D01*
X95519857Y-88511047D01*
X95567476Y-88701523D01*
X95662714Y-88796761D01*
X95757952Y-88844380D01*
X95948428Y-88844380D01*
X94662714Y-87844380D02*
X94853190Y-87844380D01*
X94948428Y-87892000D01*
X94996047Y-87939619D01*
X95091285Y-88082476D01*
X95138904Y-88272952D01*
X95138904Y-88653904D01*
X95091285Y-88749142D01*
X95043666Y-88796761D01*
X94948428Y-88844380D01*
X94757952Y-88844380D01*
X94662714Y-88796761D01*
X94615095Y-88749142D01*
X94567476Y-88653904D01*
X94567476Y-88415809D01*
X94615095Y-88320571D01*
X94662714Y-88272952D01*
X94757952Y-88225333D01*
X94948428Y-88225333D01*
X95043666Y-88272952D01*
X95091285Y-88320571D01*
X95138904Y-88415809D01*
X87090238Y-27939619D02*
X87185476Y-27892000D01*
X87280714Y-27796761D01*
X87423571Y-27653904D01*
X87518809Y-27606285D01*
X87614047Y-27606285D01*
X87566428Y-27844380D02*
X87661666Y-27796761D01*
X87756904Y-27701523D01*
X87804523Y-27511047D01*
X87804523Y-27177714D01*
X87756904Y-26987238D01*
X87661666Y-26892000D01*
X87566428Y-26844380D01*
X87375952Y-26844380D01*
X87280714Y-26892000D01*
X87185476Y-26987238D01*
X87137857Y-27177714D01*
X87137857Y-27511047D01*
X87185476Y-27701523D01*
X87280714Y-27796761D01*
X87375952Y-27844380D01*
X87566428Y-27844380D01*
X86566428Y-27272952D02*
X86661666Y-27225333D01*
X86709285Y-27177714D01*
X86756904Y-27082476D01*
X86756904Y-27034857D01*
X86709285Y-26939619D01*
X86661666Y-26892000D01*
X86566428Y-26844380D01*
X86375952Y-26844380D01*
X86280714Y-26892000D01*
X86233095Y-26939619D01*
X86185476Y-27034857D01*
X86185476Y-27082476D01*
X86233095Y-27177714D01*
X86280714Y-27225333D01*
X86375952Y-27272952D01*
X86566428Y-27272952D01*
X86661666Y-27320571D01*
X86709285Y-27368190D01*
X86756904Y-27463428D01*
X86756904Y-27653904D01*
X86709285Y-27749142D01*
X86661666Y-27796761D01*
X86566428Y-27844380D01*
X86375952Y-27844380D01*
X86280714Y-27796761D01*
X86233095Y-27749142D01*
X86185476Y-27653904D01*
X86185476Y-27463428D01*
X86233095Y-27368190D01*
X86280714Y-27320571D01*
X86375952Y-27272952D01*
X98774238Y-54355619D02*
X98869476Y-54308000D01*
X98964714Y-54212761D01*
X99107571Y-54069904D01*
X99202809Y-54022285D01*
X99298047Y-54022285D01*
X99250428Y-54260380D02*
X99345666Y-54212761D01*
X99440904Y-54117523D01*
X99488523Y-53927047D01*
X99488523Y-53593714D01*
X99440904Y-53403238D01*
X99345666Y-53308000D01*
X99250428Y-53260380D01*
X99059952Y-53260380D01*
X98964714Y-53308000D01*
X98869476Y-53403238D01*
X98821857Y-53593714D01*
X98821857Y-53927047D01*
X98869476Y-54117523D01*
X98964714Y-54212761D01*
X99059952Y-54260380D01*
X99250428Y-54260380D01*
X98345666Y-54260380D02*
X98155190Y-54260380D01*
X98059952Y-54212761D01*
X98012333Y-54165142D01*
X97917095Y-54022285D01*
X97869476Y-53831809D01*
X97869476Y-53450857D01*
X97917095Y-53355619D01*
X97964714Y-53308000D01*
X98059952Y-53260380D01*
X98250428Y-53260380D01*
X98345666Y-53308000D01*
X98393285Y-53355619D01*
X98440904Y-53450857D01*
X98440904Y-53688952D01*
X98393285Y-53784190D01*
X98345666Y-53831809D01*
X98250428Y-53879428D01*
X98059952Y-53879428D01*
X97964714Y-53831809D01*
X97917095Y-53784190D01*
X97869476Y-53688952D01*
X56808666Y-68398380D02*
X57142000Y-67922190D01*
X57380095Y-68398380D02*
X57380095Y-67398380D01*
X56999142Y-67398380D01*
X56903904Y-67446000D01*
X56856285Y-67493619D01*
X56808666Y-67588857D01*
X56808666Y-67731714D01*
X56856285Y-67826952D01*
X56903904Y-67874571D01*
X56999142Y-67922190D01*
X57380095Y-67922190D01*
X55856285Y-68398380D02*
X56427714Y-68398380D01*
X56142000Y-68398380D02*
X56142000Y-67398380D01*
X56237238Y-67541238D01*
X56332476Y-67636476D01*
X56427714Y-67684095D01*
X57166666Y-73452380D02*
X57500000Y-72976190D01*
X57738095Y-73452380D02*
X57738095Y-72452380D01*
X57357142Y-72452380D01*
X57261904Y-72500000D01*
X57214285Y-72547619D01*
X57166666Y-72642857D01*
X57166666Y-72785714D01*
X57214285Y-72880952D01*
X57261904Y-72928571D01*
X57357142Y-72976190D01*
X57738095Y-72976190D01*
X56785714Y-72547619D02*
X56738095Y-72500000D01*
X56642857Y-72452380D01*
X56404761Y-72452380D01*
X56309523Y-72500000D01*
X56261904Y-72547619D01*
X56214285Y-72642857D01*
X56214285Y-72738095D01*
X56261904Y-72880952D01*
X56833333Y-73452380D01*
X56214285Y-73452380D01*
X90621380Y-86066333D02*
X90145190Y-85733000D01*
X90621380Y-85494904D02*
X89621380Y-85494904D01*
X89621380Y-85875857D01*
X89669000Y-85971095D01*
X89716619Y-86018714D01*
X89811857Y-86066333D01*
X89954714Y-86066333D01*
X90049952Y-86018714D01*
X90097571Y-85971095D01*
X90145190Y-85875857D01*
X90145190Y-85494904D01*
X90621380Y-86542523D02*
X90621380Y-86733000D01*
X90573761Y-86828238D01*
X90526142Y-86875857D01*
X90383285Y-86971095D01*
X90192809Y-87018714D01*
X89811857Y-87018714D01*
X89716619Y-86971095D01*
X89669000Y-86923476D01*
X89621380Y-86828238D01*
X89621380Y-86637761D01*
X89669000Y-86542523D01*
X89716619Y-86494904D01*
X89811857Y-86447285D01*
X90049952Y-86447285D01*
X90145190Y-86494904D01*
X90192809Y-86542523D01*
X90240428Y-86637761D01*
X90240428Y-86828238D01*
X90192809Y-86923476D01*
X90145190Y-86971095D01*
X90049952Y-87018714D01*
X83192857Y-87828380D02*
X83526190Y-87352190D01*
X83764285Y-87828380D02*
X83764285Y-86828380D01*
X83383333Y-86828380D01*
X83288095Y-86876000D01*
X83240476Y-86923619D01*
X83192857Y-87018857D01*
X83192857Y-87161714D01*
X83240476Y-87256952D01*
X83288095Y-87304571D01*
X83383333Y-87352190D01*
X83764285Y-87352190D01*
X82240476Y-87828380D02*
X82811904Y-87828380D01*
X82526190Y-87828380D02*
X82526190Y-86828380D01*
X82621428Y-86971238D01*
X82716666Y-87066476D01*
X82811904Y-87114095D01*
X81621428Y-86828380D02*
X81526190Y-86828380D01*
X81430952Y-86876000D01*
X81383333Y-86923619D01*
X81335714Y-87018857D01*
X81288095Y-87209333D01*
X81288095Y-87447428D01*
X81335714Y-87637904D01*
X81383333Y-87733142D01*
X81430952Y-87780761D01*
X81526190Y-87828380D01*
X81621428Y-87828380D01*
X81716666Y-87780761D01*
X81764285Y-87733142D01*
X81811904Y-87637904D01*
X81859523Y-87447428D01*
X81859523Y-87209333D01*
X81811904Y-87018857D01*
X81764285Y-86923619D01*
X81716666Y-86876000D01*
X81621428Y-86828380D01*
X96654857Y-81606380D02*
X96988190Y-81130190D01*
X97226285Y-81606380D02*
X97226285Y-80606380D01*
X96845333Y-80606380D01*
X96750095Y-80654000D01*
X96702476Y-80701619D01*
X96654857Y-80796857D01*
X96654857Y-80939714D01*
X96702476Y-81034952D01*
X96750095Y-81082571D01*
X96845333Y-81130190D01*
X97226285Y-81130190D01*
X95702476Y-81606380D02*
X96273904Y-81606380D01*
X95988190Y-81606380D02*
X95988190Y-80606380D01*
X96083428Y-80749238D01*
X96178666Y-80844476D01*
X96273904Y-80892095D01*
X94845333Y-80939714D02*
X94845333Y-81606380D01*
X95083428Y-80558761D02*
X95321523Y-81273047D01*
X94702476Y-81273047D01*
X108656380Y-26027142D02*
X108180190Y-25693809D01*
X108656380Y-25455714D02*
X107656380Y-25455714D01*
X107656380Y-25836666D01*
X107704000Y-25931904D01*
X107751619Y-25979523D01*
X107846857Y-26027142D01*
X107989714Y-26027142D01*
X108084952Y-25979523D01*
X108132571Y-25931904D01*
X108180190Y-25836666D01*
X108180190Y-25455714D01*
X108656380Y-26979523D02*
X108656380Y-26408095D01*
X108656380Y-26693809D02*
X107656380Y-26693809D01*
X107799238Y-26598571D01*
X107894476Y-26503333D01*
X107942095Y-26408095D01*
X107656380Y-27884285D02*
X107656380Y-27408095D01*
X108132571Y-27360476D01*
X108084952Y-27408095D01*
X108037333Y-27503333D01*
X108037333Y-27741428D01*
X108084952Y-27836666D01*
X108132571Y-27884285D01*
X108227809Y-27931904D01*
X108465904Y-27931904D01*
X108561142Y-27884285D01*
X108608761Y-27836666D01*
X108656380Y-27741428D01*
X108656380Y-27503333D01*
X108608761Y-27408095D01*
X108561142Y-27360476D01*
X72524857Y-24456380D02*
X72858190Y-23980190D01*
X73096285Y-24456380D02*
X73096285Y-23456380D01*
X72715333Y-23456380D01*
X72620095Y-23504000D01*
X72572476Y-23551619D01*
X72524857Y-23646857D01*
X72524857Y-23789714D01*
X72572476Y-23884952D01*
X72620095Y-23932571D01*
X72715333Y-23980190D01*
X73096285Y-23980190D01*
X71572476Y-24456380D02*
X72143904Y-24456380D01*
X71858190Y-24456380D02*
X71858190Y-23456380D01*
X71953428Y-23599238D01*
X72048666Y-23694476D01*
X72143904Y-23742095D01*
X70715333Y-23456380D02*
X70905809Y-23456380D01*
X71001047Y-23504000D01*
X71048666Y-23551619D01*
X71143904Y-23694476D01*
X71191523Y-23884952D01*
X71191523Y-24265904D01*
X71143904Y-24361142D01*
X71096285Y-24408761D01*
X71001047Y-24456380D01*
X70810571Y-24456380D01*
X70715333Y-24408761D01*
X70667714Y-24361142D01*
X70620095Y-24265904D01*
X70620095Y-24027809D01*
X70667714Y-23932571D01*
X70715333Y-23884952D01*
X70810571Y-23837333D01*
X71001047Y-23837333D01*
X71096285Y-23884952D01*
X71143904Y-23932571D01*
X71191523Y-24027809D01*
X80144857Y-52904380D02*
X80478190Y-52428190D01*
X80716285Y-52904380D02*
X80716285Y-51904380D01*
X80335333Y-51904380D01*
X80240095Y-51952000D01*
X80192476Y-51999619D01*
X80144857Y-52094857D01*
X80144857Y-52237714D01*
X80192476Y-52332952D01*
X80240095Y-52380571D01*
X80335333Y-52428190D01*
X80716285Y-52428190D01*
X79192476Y-52904380D02*
X79763904Y-52904380D01*
X79478190Y-52904380D02*
X79478190Y-51904380D01*
X79573428Y-52047238D01*
X79668666Y-52142476D01*
X79763904Y-52190095D01*
X78621047Y-52332952D02*
X78716285Y-52285333D01*
X78763904Y-52237714D01*
X78811523Y-52142476D01*
X78811523Y-52094857D01*
X78763904Y-51999619D01*
X78716285Y-51952000D01*
X78621047Y-51904380D01*
X78430571Y-51904380D01*
X78335333Y-51952000D01*
X78287714Y-51999619D01*
X78240095Y-52094857D01*
X78240095Y-52142476D01*
X78287714Y-52237714D01*
X78335333Y-52285333D01*
X78430571Y-52332952D01*
X78621047Y-52332952D01*
X78716285Y-52380571D01*
X78763904Y-52428190D01*
X78811523Y-52523428D01*
X78811523Y-52713904D01*
X78763904Y-52809142D01*
X78716285Y-52856761D01*
X78621047Y-52904380D01*
X78430571Y-52904380D01*
X78335333Y-52856761D01*
X78287714Y-52809142D01*
X78240095Y-52713904D01*
X78240095Y-52523428D01*
X78287714Y-52428190D01*
X78335333Y-52380571D01*
X78430571Y-52332952D01*
X59888380Y-47490142D02*
X59412190Y-47156809D01*
X59888380Y-46918714D02*
X58888380Y-46918714D01*
X58888380Y-47299666D01*
X58936000Y-47394904D01*
X58983619Y-47442523D01*
X59078857Y-47490142D01*
X59221714Y-47490142D01*
X59316952Y-47442523D01*
X59364571Y-47394904D01*
X59412190Y-47299666D01*
X59412190Y-46918714D01*
X58983619Y-47871095D02*
X58936000Y-47918714D01*
X58888380Y-48013952D01*
X58888380Y-48252047D01*
X58936000Y-48347285D01*
X58983619Y-48394904D01*
X59078857Y-48442523D01*
X59174095Y-48442523D01*
X59316952Y-48394904D01*
X59888380Y-47823476D01*
X59888380Y-48442523D01*
X58888380Y-48775857D02*
X58888380Y-49394904D01*
X59269333Y-49061571D01*
X59269333Y-49204428D01*
X59316952Y-49299666D01*
X59364571Y-49347285D01*
X59459809Y-49394904D01*
X59697904Y-49394904D01*
X59793142Y-49347285D01*
X59840761Y-49299666D01*
X59888380Y-49204428D01*
X59888380Y-48918714D01*
X59840761Y-48823476D01*
X59793142Y-48775857D01*
X83189380Y-79883095D02*
X83998904Y-79883095D01*
X84094142Y-79930714D01*
X84141761Y-79978333D01*
X84189380Y-80073571D01*
X84189380Y-80264047D01*
X84141761Y-80359285D01*
X84094142Y-80406904D01*
X83998904Y-80454523D01*
X83189380Y-80454523D01*
X83189380Y-81406904D02*
X83189380Y-80930714D01*
X83665571Y-80883095D01*
X83617952Y-80930714D01*
X83570333Y-81025952D01*
X83570333Y-81264047D01*
X83617952Y-81359285D01*
X83665571Y-81406904D01*
X83760809Y-81454523D01*
X83998904Y-81454523D01*
X84094142Y-81406904D01*
X84141761Y-81359285D01*
X84189380Y-81264047D01*
X84189380Y-81025952D01*
X84141761Y-80930714D01*
X84094142Y-80883095D01*
X70738904Y-77430380D02*
X70738904Y-78239904D01*
X70691285Y-78335142D01*
X70643666Y-78382761D01*
X70548428Y-78430380D01*
X70357952Y-78430380D01*
X70262714Y-78382761D01*
X70215095Y-78335142D01*
X70167476Y-78239904D01*
X70167476Y-77430380D01*
X69262714Y-77430380D02*
X69453190Y-77430380D01*
X69548428Y-77478000D01*
X69596047Y-77525619D01*
X69691285Y-77668476D01*
X69738904Y-77858952D01*
X69738904Y-78239904D01*
X69691285Y-78335142D01*
X69643666Y-78382761D01*
X69548428Y-78430380D01*
X69357952Y-78430380D01*
X69262714Y-78382761D01*
X69215095Y-78335142D01*
X69167476Y-78239904D01*
X69167476Y-78001809D01*
X69215095Y-77906571D01*
X69262714Y-77858952D01*
X69357952Y-77811333D01*
X69548428Y-77811333D01*
X69643666Y-77858952D01*
X69691285Y-77906571D01*
X69738904Y-78001809D01*
X70611904Y-91317380D02*
X70611904Y-92126904D01*
X70564285Y-92222142D01*
X70516666Y-92269761D01*
X70421428Y-92317380D01*
X70230952Y-92317380D01*
X70135714Y-92269761D01*
X70088095Y-92222142D01*
X70040476Y-92126904D01*
X70040476Y-91317380D01*
X69659523Y-91317380D02*
X68992857Y-91317380D01*
X69421428Y-92317380D01*
X102886380Y-44481904D02*
X103695904Y-44481904D01*
X103791142Y-44529523D01*
X103838761Y-44577142D01*
X103886380Y-44672380D01*
X103886380Y-44862857D01*
X103838761Y-44958095D01*
X103791142Y-45005714D01*
X103695904Y-45053333D01*
X102886380Y-45053333D01*
X103886380Y-46053333D02*
X103886380Y-45481904D01*
X103886380Y-45767619D02*
X102886380Y-45767619D01*
X103029238Y-45672380D01*
X103124476Y-45577142D01*
X103172095Y-45481904D01*
X102886380Y-46672380D02*
X102886380Y-46767619D01*
X102934000Y-46862857D01*
X102981619Y-46910476D01*
X103076857Y-46958095D01*
X103267333Y-47005714D01*
X103505428Y-47005714D01*
X103695904Y-46958095D01*
X103791142Y-46910476D01*
X103838761Y-46862857D01*
X103886380Y-46767619D01*
X103886380Y-46672380D01*
X103838761Y-46577142D01*
X103791142Y-46529523D01*
X103695904Y-46481904D01*
X103505428Y-46434285D01*
X103267333Y-46434285D01*
X103076857Y-46481904D01*
X102981619Y-46529523D01*
X102934000Y-46577142D01*
X102886380Y-46672380D01*
X87987095Y-80263380D02*
X87987095Y-79263380D01*
X87749000Y-79263380D01*
X87606142Y-79311000D01*
X87510904Y-79406238D01*
X87463285Y-79501476D01*
X87415666Y-79691952D01*
X87415666Y-79834809D01*
X87463285Y-80025285D01*
X87510904Y-80120523D01*
X87606142Y-80215761D01*
X87749000Y-80263380D01*
X87987095Y-80263380D01*
X86510904Y-79263380D02*
X86987095Y-79263380D01*
X87034714Y-79739571D01*
X86987095Y-79691952D01*
X86891857Y-79644333D01*
X86653761Y-79644333D01*
X86558523Y-79691952D01*
X86510904Y-79739571D01*
X86463285Y-79834809D01*
X86463285Y-80072904D01*
X86510904Y-80168142D01*
X86558523Y-80215761D01*
X86653761Y-80263380D01*
X86891857Y-80263380D01*
X86987095Y-80215761D01*
X87034714Y-80168142D01*
X109577142Y-50792142D02*
X109624761Y-50744523D01*
X109672380Y-50601666D01*
X109672380Y-50506428D01*
X109624761Y-50363571D01*
X109529523Y-50268333D01*
X109434285Y-50220714D01*
X109243809Y-50173095D01*
X109100952Y-50173095D01*
X108910476Y-50220714D01*
X108815238Y-50268333D01*
X108720000Y-50363571D01*
X108672380Y-50506428D01*
X108672380Y-50601666D01*
X108720000Y-50744523D01*
X108767619Y-50792142D01*
X109672380Y-51744523D02*
X109672380Y-51173095D01*
X109672380Y-51458809D02*
X108672380Y-51458809D01*
X108815238Y-51363571D01*
X108910476Y-51268333D01*
X108958095Y-51173095D01*
X108767619Y-52125476D02*
X108720000Y-52173095D01*
X108672380Y-52268333D01*
X108672380Y-52506428D01*
X108720000Y-52601666D01*
X108767619Y-52649285D01*
X108862857Y-52696904D01*
X108958095Y-52696904D01*
X109100952Y-52649285D01*
X109672380Y-52077857D01*
X109672380Y-52696904D01*
X113125238Y-60070619D02*
X113220476Y-60023000D01*
X113315714Y-59927761D01*
X113458571Y-59784904D01*
X113553809Y-59737285D01*
X113649047Y-59737285D01*
X113601428Y-59975380D02*
X113696666Y-59927761D01*
X113791904Y-59832523D01*
X113839523Y-59642047D01*
X113839523Y-59308714D01*
X113791904Y-59118238D01*
X113696666Y-59023000D01*
X113601428Y-58975380D01*
X113410952Y-58975380D01*
X113315714Y-59023000D01*
X113220476Y-59118238D01*
X113172857Y-59308714D01*
X113172857Y-59642047D01*
X113220476Y-59832523D01*
X113315714Y-59927761D01*
X113410952Y-59975380D01*
X113601428Y-59975380D01*
X112839523Y-58975380D02*
X112172857Y-58975380D01*
X112601428Y-59975380D01*
X75009880Y-52887642D02*
X74533690Y-52554309D01*
X75009880Y-52316214D02*
X74009880Y-52316214D01*
X74009880Y-52697166D01*
X74057500Y-52792404D01*
X74105119Y-52840023D01*
X74200357Y-52887642D01*
X74343214Y-52887642D01*
X74438452Y-52840023D01*
X74486071Y-52792404D01*
X74533690Y-52697166D01*
X74533690Y-52316214D01*
X74105119Y-53268595D02*
X74057500Y-53316214D01*
X74009880Y-53411452D01*
X74009880Y-53649547D01*
X74057500Y-53744785D01*
X74105119Y-53792404D01*
X74200357Y-53840023D01*
X74295595Y-53840023D01*
X74438452Y-53792404D01*
X75009880Y-53220976D01*
X75009880Y-53840023D01*
X74009880Y-54173357D02*
X74009880Y-54840023D01*
X75009880Y-54411452D01*
X80970380Y-24376142D02*
X80494190Y-24042809D01*
X80970380Y-23804714D02*
X79970380Y-23804714D01*
X79970380Y-24185666D01*
X80018000Y-24280904D01*
X80065619Y-24328523D01*
X80160857Y-24376142D01*
X80303714Y-24376142D01*
X80398952Y-24328523D01*
X80446571Y-24280904D01*
X80494190Y-24185666D01*
X80494190Y-23804714D01*
X79970380Y-24709476D02*
X79970380Y-25328523D01*
X80351333Y-24995190D01*
X80351333Y-25138047D01*
X80398952Y-25233285D01*
X80446571Y-25280904D01*
X80541809Y-25328523D01*
X80779904Y-25328523D01*
X80875142Y-25280904D01*
X80922761Y-25233285D01*
X80970380Y-25138047D01*
X80970380Y-24852333D01*
X80922761Y-24757095D01*
X80875142Y-24709476D01*
X79970380Y-25947571D02*
X79970380Y-26042809D01*
X80018000Y-26138047D01*
X80065619Y-26185666D01*
X80160857Y-26233285D01*
X80351333Y-26280904D01*
X80589428Y-26280904D01*
X80779904Y-26233285D01*
X80875142Y-26185666D01*
X80922761Y-26138047D01*
X80970380Y-26042809D01*
X80970380Y-25947571D01*
X80922761Y-25852333D01*
X80875142Y-25804714D01*
X80779904Y-25757095D01*
X80589428Y-25709476D01*
X80351333Y-25709476D01*
X80160857Y-25757095D01*
X80065619Y-25804714D01*
X80018000Y-25852333D01*
X79970380Y-25947571D01*
X107441380Y-56507142D02*
X106965190Y-56173809D01*
X107441380Y-55935714D02*
X106441380Y-55935714D01*
X106441380Y-56316666D01*
X106489000Y-56411904D01*
X106536619Y-56459523D01*
X106631857Y-56507142D01*
X106774714Y-56507142D01*
X106869952Y-56459523D01*
X106917571Y-56411904D01*
X106965190Y-56316666D01*
X106965190Y-55935714D01*
X106441380Y-56840476D02*
X106441380Y-57459523D01*
X106822333Y-57126190D01*
X106822333Y-57269047D01*
X106869952Y-57364285D01*
X106917571Y-57411904D01*
X107012809Y-57459523D01*
X107250904Y-57459523D01*
X107346142Y-57411904D01*
X107393761Y-57364285D01*
X107441380Y-57269047D01*
X107441380Y-56983333D01*
X107393761Y-56888095D01*
X107346142Y-56840476D01*
X106536619Y-57840476D02*
X106489000Y-57888095D01*
X106441380Y-57983333D01*
X106441380Y-58221428D01*
X106489000Y-58316666D01*
X106536619Y-58364285D01*
X106631857Y-58411904D01*
X106727095Y-58411904D01*
X106869952Y-58364285D01*
X107441380Y-57792857D01*
X107441380Y-58411904D01*
X93543380Y-51173142D02*
X93067190Y-50839809D01*
X93543380Y-50601714D02*
X92543380Y-50601714D01*
X92543380Y-50982666D01*
X92591000Y-51077904D01*
X92638619Y-51125523D01*
X92733857Y-51173142D01*
X92876714Y-51173142D01*
X92971952Y-51125523D01*
X93019571Y-51077904D01*
X93067190Y-50982666D01*
X93067190Y-50601714D01*
X92543380Y-51506476D02*
X92543380Y-52125523D01*
X92924333Y-51792190D01*
X92924333Y-51935047D01*
X92971952Y-52030285D01*
X93019571Y-52077904D01*
X93114809Y-52125523D01*
X93352904Y-52125523D01*
X93448142Y-52077904D01*
X93495761Y-52030285D01*
X93543380Y-51935047D01*
X93543380Y-51649333D01*
X93495761Y-51554095D01*
X93448142Y-51506476D01*
X92543380Y-52458857D02*
X92543380Y-53077904D01*
X92924333Y-52744571D01*
X92924333Y-52887428D01*
X92971952Y-52982666D01*
X93019571Y-53030285D01*
X93114809Y-53077904D01*
X93352904Y-53077904D01*
X93448142Y-53030285D01*
X93495761Y-52982666D01*
X93543380Y-52887428D01*
X93543380Y-52601714D01*
X93495761Y-52506476D01*
X93448142Y-52458857D01*
X65222380Y-41298904D02*
X64222380Y-41298904D01*
X64222380Y-41537000D01*
X64270000Y-41679857D01*
X64365238Y-41775095D01*
X64460476Y-41822714D01*
X64650952Y-41870333D01*
X64793809Y-41870333D01*
X64984285Y-41822714D01*
X65079523Y-41775095D01*
X65174761Y-41679857D01*
X65222380Y-41537000D01*
X65222380Y-41298904D01*
X64650952Y-42441761D02*
X64603333Y-42346523D01*
X64555714Y-42298904D01*
X64460476Y-42251285D01*
X64412857Y-42251285D01*
X64317619Y-42298904D01*
X64270000Y-42346523D01*
X64222380Y-42441761D01*
X64222380Y-42632238D01*
X64270000Y-42727476D01*
X64317619Y-42775095D01*
X64412857Y-42822714D01*
X64460476Y-42822714D01*
X64555714Y-42775095D01*
X64603333Y-42727476D01*
X64650952Y-42632238D01*
X64650952Y-42441761D01*
X64698571Y-42346523D01*
X64746190Y-42298904D01*
X64841428Y-42251285D01*
X65031904Y-42251285D01*
X65127142Y-42298904D01*
X65174761Y-42346523D01*
X65222380Y-42441761D01*
X65222380Y-42632238D01*
X65174761Y-42727476D01*
X65127142Y-42775095D01*
X65031904Y-42822714D01*
X64841428Y-42822714D01*
X64746190Y-42775095D01*
X64698571Y-42727476D01*
X64650952Y-42632238D01*
X70238857Y-37410380D02*
X70572190Y-36934190D01*
X70810285Y-37410380D02*
X70810285Y-36410380D01*
X70429333Y-36410380D01*
X70334095Y-36458000D01*
X70286476Y-36505619D01*
X70238857Y-36600857D01*
X70238857Y-36743714D01*
X70286476Y-36838952D01*
X70334095Y-36886571D01*
X70429333Y-36934190D01*
X70810285Y-36934190D01*
X69857904Y-36505619D02*
X69810285Y-36458000D01*
X69715047Y-36410380D01*
X69476952Y-36410380D01*
X69381714Y-36458000D01*
X69334095Y-36505619D01*
X69286476Y-36600857D01*
X69286476Y-36696095D01*
X69334095Y-36838952D01*
X69905523Y-37410380D01*
X69286476Y-37410380D01*
X68429333Y-36743714D02*
X68429333Y-37410380D01*
X68667428Y-36362761D02*
X68905523Y-37077047D01*
X68286476Y-37077047D01*
X114307880Y-36123642D02*
X113831690Y-35790309D01*
X114307880Y-35552214D02*
X113307880Y-35552214D01*
X113307880Y-35933166D01*
X113355500Y-36028404D01*
X113403119Y-36076023D01*
X113498357Y-36123642D01*
X113641214Y-36123642D01*
X113736452Y-36076023D01*
X113784071Y-36028404D01*
X113831690Y-35933166D01*
X113831690Y-35552214D01*
X113307880Y-36456976D02*
X113307880Y-37076023D01*
X113688833Y-36742690D01*
X113688833Y-36885547D01*
X113736452Y-36980785D01*
X113784071Y-37028404D01*
X113879309Y-37076023D01*
X114117404Y-37076023D01*
X114212642Y-37028404D01*
X114260261Y-36980785D01*
X114307880Y-36885547D01*
X114307880Y-36599833D01*
X114260261Y-36504595D01*
X114212642Y-36456976D01*
X113641214Y-37933166D02*
X114307880Y-37933166D01*
X113260261Y-37695071D02*
X113974547Y-37456976D01*
X113974547Y-38076023D01*
X113799880Y-77271642D02*
X113323690Y-76938309D01*
X113799880Y-76700214D02*
X112799880Y-76700214D01*
X112799880Y-77081166D01*
X112847500Y-77176404D01*
X112895119Y-77224023D01*
X112990357Y-77271642D01*
X113133214Y-77271642D01*
X113228452Y-77224023D01*
X113276071Y-77176404D01*
X113323690Y-77081166D01*
X113323690Y-76700214D01*
X112799880Y-77604976D02*
X112799880Y-78224023D01*
X113180833Y-77890690D01*
X113180833Y-78033547D01*
X113228452Y-78128785D01*
X113276071Y-78176404D01*
X113371309Y-78224023D01*
X113609404Y-78224023D01*
X113704642Y-78176404D01*
X113752261Y-78128785D01*
X113799880Y-78033547D01*
X113799880Y-77747833D01*
X113752261Y-77652595D01*
X113704642Y-77604976D01*
X112799880Y-79128785D02*
X112799880Y-78652595D01*
X113276071Y-78604976D01*
X113228452Y-78652595D01*
X113180833Y-78747833D01*
X113180833Y-78985928D01*
X113228452Y-79081166D01*
X113276071Y-79128785D01*
X113371309Y-79176404D01*
X113609404Y-79176404D01*
X113704642Y-79128785D01*
X113752261Y-79081166D01*
X113799880Y-78985928D01*
X113799880Y-78747833D01*
X113752261Y-78652595D01*
X113704642Y-78604976D01*
X105680380Y-36822142D02*
X105204190Y-36488809D01*
X105680380Y-36250714D02*
X104680380Y-36250714D01*
X104680380Y-36631666D01*
X104728000Y-36726904D01*
X104775619Y-36774523D01*
X104870857Y-36822142D01*
X105013714Y-36822142D01*
X105108952Y-36774523D01*
X105156571Y-36726904D01*
X105204190Y-36631666D01*
X105204190Y-36250714D01*
X104775619Y-37203095D02*
X104728000Y-37250714D01*
X104680380Y-37345952D01*
X104680380Y-37584047D01*
X104728000Y-37679285D01*
X104775619Y-37726904D01*
X104870857Y-37774523D01*
X104966095Y-37774523D01*
X105108952Y-37726904D01*
X105680380Y-37155476D01*
X105680380Y-37774523D01*
X104680380Y-38393571D02*
X104680380Y-38488809D01*
X104728000Y-38584047D01*
X104775619Y-38631666D01*
X104870857Y-38679285D01*
X105061333Y-38726904D01*
X105299428Y-38726904D01*
X105489904Y-38679285D01*
X105585142Y-38631666D01*
X105632761Y-38584047D01*
X105680380Y-38488809D01*
X105680380Y-38393571D01*
X105632761Y-38298333D01*
X105585142Y-38250714D01*
X105489904Y-38203095D01*
X105299428Y-38155476D01*
X105061333Y-38155476D01*
X104870857Y-38203095D01*
X104775619Y-38250714D01*
X104728000Y-38298333D01*
X104680380Y-38393571D01*
X119768857Y-67834380D02*
X120102190Y-67358190D01*
X120340285Y-67834380D02*
X120340285Y-66834380D01*
X119959333Y-66834380D01*
X119864095Y-66882000D01*
X119816476Y-66929619D01*
X119768857Y-67024857D01*
X119768857Y-67167714D01*
X119816476Y-67262952D01*
X119864095Y-67310571D01*
X119959333Y-67358190D01*
X120340285Y-67358190D01*
X119387904Y-66929619D02*
X119340285Y-66882000D01*
X119245047Y-66834380D01*
X119006952Y-66834380D01*
X118911714Y-66882000D01*
X118864095Y-66929619D01*
X118816476Y-67024857D01*
X118816476Y-67120095D01*
X118864095Y-67262952D01*
X119435523Y-67834380D01*
X118816476Y-67834380D01*
X118435523Y-66929619D02*
X118387904Y-66882000D01*
X118292666Y-66834380D01*
X118054571Y-66834380D01*
X117959333Y-66882000D01*
X117911714Y-66929619D01*
X117864095Y-67024857D01*
X117864095Y-67120095D01*
X117911714Y-67262952D01*
X118483142Y-67834380D01*
X117864095Y-67834380D01*
M02*
