G04 #@! TF.FileFunction,Legend,Top*
%FSLAX46Y46*%
G04 Gerber Fmt 4.6, Leading zero omitted, Abs format (unit mm)*
G04 Created by KiCad (PCBNEW 4.0.7) date Mon Jun 25 21:13:58 2018*
%MOMM*%
%LPD*%
G01*
G04 APERTURE LIST*
%ADD10C,0.100000*%
%ADD11C,0.300000*%
%ADD12C,0.200000*%
%ADD13C,0.120000*%
%ADD14C,0.150000*%
G04 APERTURE END LIST*
D10*
D11*
X70274571Y-68789571D02*
X68774571Y-68789571D01*
X68774571Y-68432428D01*
X68846000Y-68218143D01*
X68988857Y-68075285D01*
X69131714Y-68003857D01*
X69417429Y-67932428D01*
X69631714Y-67932428D01*
X69917429Y-68003857D01*
X70060286Y-68075285D01*
X70203143Y-68218143D01*
X70274571Y-68432428D01*
X70274571Y-68789571D01*
X69488857Y-66789571D02*
X69560286Y-66575285D01*
X69631714Y-66503857D01*
X69774571Y-66432428D01*
X69988857Y-66432428D01*
X70131714Y-66503857D01*
X70203143Y-66575285D01*
X70274571Y-66718143D01*
X70274571Y-67289571D01*
X68774571Y-67289571D01*
X68774571Y-66789571D01*
X68846000Y-66646714D01*
X68917429Y-66575285D01*
X69060286Y-66503857D01*
X69203143Y-66503857D01*
X69346000Y-66575285D01*
X69417429Y-66646714D01*
X69488857Y-66789571D01*
X69488857Y-67289571D01*
X70274571Y-65003857D02*
X70274571Y-65861000D01*
X70274571Y-65432428D02*
X68774571Y-65432428D01*
X68988857Y-65575285D01*
X69131714Y-65718143D01*
X69203143Y-65861000D01*
X68774571Y-63646714D02*
X68774571Y-64361000D01*
X69488857Y-64432429D01*
X69417429Y-64361000D01*
X69346000Y-64218143D01*
X69346000Y-63861000D01*
X69417429Y-63718143D01*
X69488857Y-63646714D01*
X69631714Y-63575286D01*
X69988857Y-63575286D01*
X70131714Y-63646714D01*
X70203143Y-63718143D01*
X70274571Y-63861000D01*
X70274571Y-64218143D01*
X70203143Y-64361000D01*
X70131714Y-64432429D01*
X70203143Y-61146715D02*
X70274571Y-61289572D01*
X70274571Y-61575286D01*
X70203143Y-61718144D01*
X70131714Y-61789572D01*
X69988857Y-61861001D01*
X69560286Y-61861001D01*
X69417429Y-61789572D01*
X69346000Y-61718144D01*
X69274571Y-61575286D01*
X69274571Y-61289572D01*
X69346000Y-61146715D01*
X70274571Y-60289572D02*
X70203143Y-60432430D01*
X70131714Y-60503858D01*
X69988857Y-60575287D01*
X69560286Y-60575287D01*
X69417429Y-60503858D01*
X69346000Y-60432430D01*
X69274571Y-60289572D01*
X69274571Y-60075287D01*
X69346000Y-59932430D01*
X69417429Y-59861001D01*
X69560286Y-59789572D01*
X69988857Y-59789572D01*
X70131714Y-59861001D01*
X70203143Y-59932430D01*
X70274571Y-60075287D01*
X70274571Y-60289572D01*
X69274571Y-59146715D02*
X70274571Y-59146715D01*
X69417429Y-59146715D02*
X69346000Y-59075287D01*
X69274571Y-58932429D01*
X69274571Y-58718144D01*
X69346000Y-58575287D01*
X69488857Y-58503858D01*
X70274571Y-58503858D01*
X69274571Y-57789572D02*
X70274571Y-57789572D01*
X69417429Y-57789572D02*
X69346000Y-57718144D01*
X69274571Y-57575286D01*
X69274571Y-57361001D01*
X69346000Y-57218144D01*
X69488857Y-57146715D01*
X70274571Y-57146715D01*
X70131714Y-56432429D02*
X70203143Y-56361001D01*
X70274571Y-56432429D01*
X70203143Y-56503858D01*
X70131714Y-56432429D01*
X70274571Y-56432429D01*
X98155144Y-87705429D02*
X98012286Y-87634000D01*
X97940858Y-87562571D01*
X97869429Y-87419714D01*
X97869429Y-87348286D01*
X97940858Y-87205429D01*
X98012286Y-87134000D01*
X98155144Y-87062571D01*
X98440858Y-87062571D01*
X98583715Y-87134000D01*
X98655144Y-87205429D01*
X98726572Y-87348286D01*
X98726572Y-87419714D01*
X98655144Y-87562571D01*
X98583715Y-87634000D01*
X98440858Y-87705429D01*
X98155144Y-87705429D01*
X98012286Y-87776857D01*
X97940858Y-87848286D01*
X97869429Y-87991143D01*
X97869429Y-88276857D01*
X97940858Y-88419714D01*
X98012286Y-88491143D01*
X98155144Y-88562571D01*
X98440858Y-88562571D01*
X98583715Y-88491143D01*
X98655144Y-88419714D01*
X98726572Y-88276857D01*
X98726572Y-87991143D01*
X98655144Y-87848286D01*
X98583715Y-87776857D01*
X98440858Y-87705429D01*
X78914572Y-88435571D02*
X78057429Y-88435571D01*
X78486001Y-88435571D02*
X78486001Y-86935571D01*
X78343144Y-87149857D01*
X78200286Y-87292714D01*
X78057429Y-87364143D01*
D12*
X82169000Y-73152000D02*
X79375000Y-73152000D01*
X82169000Y-66167000D02*
X82169000Y-73152000D01*
X79502000Y-66167000D02*
X82169000Y-66167000D01*
D11*
X80664857Y-70885714D02*
X80664857Y-71385714D01*
X81450571Y-71385714D02*
X79950571Y-71385714D01*
X79950571Y-70671428D01*
X80664857Y-70100000D02*
X80664857Y-69600000D01*
X81450571Y-69385714D02*
X81450571Y-70100000D01*
X79950571Y-70100000D01*
X79950571Y-69385714D01*
X79950571Y-68957143D02*
X79950571Y-68100000D01*
X81450571Y-68528571D02*
X79950571Y-68528571D01*
D12*
X82550000Y-62738000D02*
X81280000Y-62738000D01*
X82550000Y-53594000D02*
X82550000Y-62738000D01*
X80137000Y-53594000D02*
X82550000Y-53594000D01*
D11*
X81704571Y-59931857D02*
X81633143Y-60074715D01*
X81561714Y-60146143D01*
X81418857Y-60217572D01*
X80990286Y-60217572D01*
X80847429Y-60146143D01*
X80776000Y-60074715D01*
X80704571Y-59931857D01*
X80704571Y-59717572D01*
X80776000Y-59574715D01*
X80847429Y-59503286D01*
X80990286Y-59431857D01*
X81418857Y-59431857D01*
X81561714Y-59503286D01*
X81633143Y-59574715D01*
X81704571Y-59717572D01*
X81704571Y-59931857D01*
X80704571Y-58789000D02*
X82204571Y-58789000D01*
X80776000Y-58789000D02*
X80704571Y-58646143D01*
X80704571Y-58360429D01*
X80776000Y-58217572D01*
X80847429Y-58146143D01*
X80990286Y-58074714D01*
X81418857Y-58074714D01*
X81561714Y-58146143D01*
X81633143Y-58217572D01*
X81704571Y-58360429D01*
X81704571Y-58646143D01*
X81633143Y-58789000D01*
X80704571Y-57646143D02*
X80704571Y-57074714D01*
X80204571Y-57431857D02*
X81490286Y-57431857D01*
X81633143Y-57360429D01*
X81704571Y-57217571D01*
X81704571Y-57074714D01*
X81704571Y-56360428D02*
X81633143Y-56503286D01*
X81561714Y-56574714D01*
X81418857Y-56646143D01*
X80990286Y-56646143D01*
X80847429Y-56574714D01*
X80776000Y-56503286D01*
X80704571Y-56360428D01*
X80704571Y-56146143D01*
X80776000Y-56003286D01*
X80847429Y-55931857D01*
X80990286Y-55860428D01*
X81418857Y-55860428D01*
X81561714Y-55931857D01*
X81633143Y-56003286D01*
X81704571Y-56146143D01*
X81704571Y-56360428D01*
X72643857Y-54999571D02*
X71786714Y-54999571D01*
X72215286Y-54999571D02*
X72215286Y-53499571D01*
X72072429Y-53713857D01*
X71929571Y-53856714D01*
X71786714Y-53928143D01*
X74358142Y-54928143D02*
X74500999Y-54999571D01*
X74786714Y-54999571D01*
X74929571Y-54928143D01*
X75000999Y-54785286D01*
X75000999Y-54713857D01*
X74929571Y-54571000D01*
X74786714Y-54499571D01*
X74572428Y-54499571D01*
X74429571Y-54428143D01*
X74358142Y-54285286D01*
X74358142Y-54213857D01*
X74429571Y-54071000D01*
X74572428Y-53999571D01*
X74786714Y-53999571D01*
X74929571Y-54071000D01*
X75643857Y-54999571D02*
X75643857Y-53999571D01*
X75643857Y-53499571D02*
X75572428Y-53571000D01*
X75643857Y-53642429D01*
X75715285Y-53571000D01*
X75643857Y-53499571D01*
X75643857Y-53642429D01*
X77001000Y-53999571D02*
X77001000Y-55213857D01*
X76929571Y-55356714D01*
X76858143Y-55428143D01*
X76715286Y-55499571D01*
X76501000Y-55499571D01*
X76358143Y-55428143D01*
X77001000Y-54928143D02*
X76858143Y-54999571D01*
X76572429Y-54999571D01*
X76429571Y-54928143D01*
X76358143Y-54856714D01*
X76286714Y-54713857D01*
X76286714Y-54285286D01*
X76358143Y-54142429D01*
X76429571Y-54071000D01*
X76572429Y-53999571D01*
X76858143Y-53999571D01*
X77001000Y-54071000D01*
X78501000Y-54999571D02*
X77643857Y-54999571D01*
X78072429Y-54999571D02*
X78072429Y-53499571D01*
X77929572Y-53713857D01*
X77786714Y-53856714D01*
X77643857Y-53928143D01*
X71786714Y-56192429D02*
X71858143Y-56121000D01*
X72001000Y-56049571D01*
X72358143Y-56049571D01*
X72501000Y-56121000D01*
X72572429Y-56192429D01*
X72643857Y-56335286D01*
X72643857Y-56478143D01*
X72572429Y-56692429D01*
X71715286Y-57549571D01*
X72643857Y-57549571D01*
X75072428Y-56549571D02*
X75072428Y-57763857D01*
X75000999Y-57906714D01*
X74929571Y-57978143D01*
X74786714Y-58049571D01*
X74572428Y-58049571D01*
X74429571Y-57978143D01*
X75072428Y-57478143D02*
X74929571Y-57549571D01*
X74643857Y-57549571D01*
X74500999Y-57478143D01*
X74429571Y-57406714D01*
X74358142Y-57263857D01*
X74358142Y-56835286D01*
X74429571Y-56692429D01*
X74500999Y-56621000D01*
X74643857Y-56549571D01*
X74929571Y-56549571D01*
X75072428Y-56621000D01*
X75786714Y-56549571D02*
X75786714Y-57549571D01*
X75786714Y-56692429D02*
X75858142Y-56621000D01*
X76001000Y-56549571D01*
X76215285Y-56549571D01*
X76358142Y-56621000D01*
X76429571Y-56763857D01*
X76429571Y-57549571D01*
X77786714Y-57549571D02*
X77786714Y-56049571D01*
X77786714Y-57478143D02*
X77643857Y-57549571D01*
X77358143Y-57549571D01*
X77215285Y-57478143D01*
X77143857Y-57406714D01*
X77072428Y-57263857D01*
X77072428Y-56835286D01*
X77143857Y-56692429D01*
X77215285Y-56621000D01*
X77358143Y-56549571D01*
X77643857Y-56549571D01*
X77786714Y-56621000D01*
X79286714Y-57549571D02*
X78429571Y-57549571D01*
X78858143Y-57549571D02*
X78858143Y-56049571D01*
X78715286Y-56263857D01*
X78572428Y-56406714D01*
X78429571Y-56478143D01*
X71715286Y-58599571D02*
X72643857Y-58599571D01*
X72143857Y-59171000D01*
X72358143Y-59171000D01*
X72501000Y-59242429D01*
X72572429Y-59313857D01*
X72643857Y-59456714D01*
X72643857Y-59813857D01*
X72572429Y-59956714D01*
X72501000Y-60028143D01*
X72358143Y-60099571D01*
X71929571Y-60099571D01*
X71786714Y-60028143D01*
X71715286Y-59956714D01*
X74358142Y-60028143D02*
X74500999Y-60099571D01*
X74786714Y-60099571D01*
X74929571Y-60028143D01*
X75000999Y-59885286D01*
X75000999Y-59813857D01*
X74929571Y-59671000D01*
X74786714Y-59599571D01*
X74572428Y-59599571D01*
X74429571Y-59528143D01*
X74358142Y-59385286D01*
X74358142Y-59313857D01*
X74429571Y-59171000D01*
X74572428Y-59099571D01*
X74786714Y-59099571D01*
X74929571Y-59171000D01*
X75643857Y-60099571D02*
X75643857Y-59099571D01*
X75643857Y-58599571D02*
X75572428Y-58671000D01*
X75643857Y-58742429D01*
X75715285Y-58671000D01*
X75643857Y-58599571D01*
X75643857Y-58742429D01*
X77001000Y-59099571D02*
X77001000Y-60313857D01*
X76929571Y-60456714D01*
X76858143Y-60528143D01*
X76715286Y-60599571D01*
X76501000Y-60599571D01*
X76358143Y-60528143D01*
X77001000Y-60028143D02*
X76858143Y-60099571D01*
X76572429Y-60099571D01*
X76429571Y-60028143D01*
X76358143Y-59956714D01*
X76286714Y-59813857D01*
X76286714Y-59385286D01*
X76358143Y-59242429D01*
X76429571Y-59171000D01*
X76572429Y-59099571D01*
X76858143Y-59099571D01*
X77001000Y-59171000D01*
X77643857Y-58742429D02*
X77715286Y-58671000D01*
X77858143Y-58599571D01*
X78215286Y-58599571D01*
X78358143Y-58671000D01*
X78429572Y-58742429D01*
X78501000Y-58885286D01*
X78501000Y-59028143D01*
X78429572Y-59242429D01*
X77572429Y-60099571D01*
X78501000Y-60099571D01*
X72501000Y-61649571D02*
X72501000Y-62649571D01*
X72143857Y-61078143D02*
X71786714Y-62149571D01*
X72715286Y-62149571D01*
X75072428Y-61649571D02*
X75072428Y-62863857D01*
X75000999Y-63006714D01*
X74929571Y-63078143D01*
X74786714Y-63149571D01*
X74572428Y-63149571D01*
X74429571Y-63078143D01*
X75072428Y-62578143D02*
X74929571Y-62649571D01*
X74643857Y-62649571D01*
X74500999Y-62578143D01*
X74429571Y-62506714D01*
X74358142Y-62363857D01*
X74358142Y-61935286D01*
X74429571Y-61792429D01*
X74500999Y-61721000D01*
X74643857Y-61649571D01*
X74929571Y-61649571D01*
X75072428Y-61721000D01*
X75786714Y-61649571D02*
X75786714Y-62649571D01*
X75786714Y-61792429D02*
X75858142Y-61721000D01*
X76001000Y-61649571D01*
X76215285Y-61649571D01*
X76358142Y-61721000D01*
X76429571Y-61863857D01*
X76429571Y-62649571D01*
X77786714Y-62649571D02*
X77786714Y-61149571D01*
X77786714Y-62578143D02*
X77643857Y-62649571D01*
X77358143Y-62649571D01*
X77215285Y-62578143D01*
X77143857Y-62506714D01*
X77072428Y-62363857D01*
X77072428Y-61935286D01*
X77143857Y-61792429D01*
X77215285Y-61721000D01*
X77358143Y-61649571D01*
X77643857Y-61649571D01*
X77786714Y-61721000D01*
X78429571Y-61292429D02*
X78501000Y-61221000D01*
X78643857Y-61149571D01*
X79001000Y-61149571D01*
X79143857Y-61221000D01*
X79215286Y-61292429D01*
X79286714Y-61435286D01*
X79286714Y-61578143D01*
X79215286Y-61792429D01*
X78358143Y-62649571D01*
X79286714Y-62649571D01*
X72572429Y-63699571D02*
X71858143Y-63699571D01*
X71786714Y-64413857D01*
X71858143Y-64342429D01*
X72001000Y-64271000D01*
X72358143Y-64271000D01*
X72501000Y-64342429D01*
X72572429Y-64413857D01*
X72643857Y-64556714D01*
X72643857Y-64913857D01*
X72572429Y-65056714D01*
X72501000Y-65128143D01*
X72358143Y-65199571D01*
X72001000Y-65199571D01*
X71858143Y-65128143D01*
X71786714Y-65056714D01*
X74429571Y-65199571D02*
X74429571Y-63699571D01*
X75286714Y-65199571D01*
X75286714Y-63699571D01*
X76858143Y-65056714D02*
X76786714Y-65128143D01*
X76572428Y-65199571D01*
X76429571Y-65199571D01*
X76215286Y-65128143D01*
X76072428Y-64985286D01*
X76001000Y-64842429D01*
X75929571Y-64556714D01*
X75929571Y-64342429D01*
X76001000Y-64056714D01*
X76072428Y-63913857D01*
X76215286Y-63771000D01*
X76429571Y-63699571D01*
X76572428Y-63699571D01*
X76786714Y-63771000D01*
X76858143Y-63842429D01*
X72501000Y-66249571D02*
X72215286Y-66249571D01*
X72072429Y-66321000D01*
X72001000Y-66392429D01*
X71858143Y-66606714D01*
X71786714Y-66892429D01*
X71786714Y-67463857D01*
X71858143Y-67606714D01*
X71929571Y-67678143D01*
X72072429Y-67749571D01*
X72358143Y-67749571D01*
X72501000Y-67678143D01*
X72572429Y-67606714D01*
X72643857Y-67463857D01*
X72643857Y-67106714D01*
X72572429Y-66963857D01*
X72501000Y-66892429D01*
X72358143Y-66821000D01*
X72072429Y-66821000D01*
X71929571Y-66892429D01*
X71858143Y-66963857D01*
X71786714Y-67106714D01*
X75072428Y-66749571D02*
X75072428Y-67963857D01*
X75000999Y-68106714D01*
X74929571Y-68178143D01*
X74786714Y-68249571D01*
X74572428Y-68249571D01*
X74429571Y-68178143D01*
X75072428Y-67678143D02*
X74929571Y-67749571D01*
X74643857Y-67749571D01*
X74500999Y-67678143D01*
X74429571Y-67606714D01*
X74358142Y-67463857D01*
X74358142Y-67035286D01*
X74429571Y-66892429D01*
X74500999Y-66821000D01*
X74643857Y-66749571D01*
X74929571Y-66749571D01*
X75072428Y-66821000D01*
X75786714Y-66749571D02*
X75786714Y-67749571D01*
X75786714Y-66892429D02*
X75858142Y-66821000D01*
X76001000Y-66749571D01*
X76215285Y-66749571D01*
X76358142Y-66821000D01*
X76429571Y-66963857D01*
X76429571Y-67749571D01*
X77786714Y-67749571D02*
X77786714Y-66249571D01*
X77786714Y-67678143D02*
X77643857Y-67749571D01*
X77358143Y-67749571D01*
X77215285Y-67678143D01*
X77143857Y-67606714D01*
X77072428Y-67463857D01*
X77072428Y-67035286D01*
X77143857Y-66892429D01*
X77215285Y-66821000D01*
X77358143Y-66749571D01*
X77643857Y-66749571D01*
X77786714Y-66821000D01*
X71715286Y-68799571D02*
X72715286Y-68799571D01*
X72072429Y-70299571D01*
X74358142Y-70228143D02*
X74500999Y-70299571D01*
X74786714Y-70299571D01*
X74929571Y-70228143D01*
X75000999Y-70085286D01*
X75000999Y-70013857D01*
X74929571Y-69871000D01*
X74786714Y-69799571D01*
X74572428Y-69799571D01*
X74429571Y-69728143D01*
X74358142Y-69585286D01*
X74358142Y-69513857D01*
X74429571Y-69371000D01*
X74572428Y-69299571D01*
X74786714Y-69299571D01*
X74929571Y-69371000D01*
X75643857Y-70299571D02*
X75643857Y-69299571D01*
X75643857Y-68799571D02*
X75572428Y-68871000D01*
X75643857Y-68942429D01*
X75715285Y-68871000D01*
X75643857Y-68799571D01*
X75643857Y-68942429D01*
X77001000Y-69299571D02*
X77001000Y-70513857D01*
X76929571Y-70656714D01*
X76858143Y-70728143D01*
X76715286Y-70799571D01*
X76501000Y-70799571D01*
X76358143Y-70728143D01*
X77001000Y-70228143D02*
X76858143Y-70299571D01*
X76572429Y-70299571D01*
X76429571Y-70228143D01*
X76358143Y-70156714D01*
X76286714Y-70013857D01*
X76286714Y-69585286D01*
X76358143Y-69442429D01*
X76429571Y-69371000D01*
X76572429Y-69299571D01*
X76858143Y-69299571D01*
X77001000Y-69371000D01*
X77572429Y-68799571D02*
X78501000Y-68799571D01*
X78001000Y-69371000D01*
X78215286Y-69371000D01*
X78358143Y-69442429D01*
X78429572Y-69513857D01*
X78501000Y-69656714D01*
X78501000Y-70013857D01*
X78429572Y-70156714D01*
X78358143Y-70228143D01*
X78215286Y-70299571D01*
X77786714Y-70299571D01*
X77643857Y-70228143D01*
X77572429Y-70156714D01*
X72072429Y-71992429D02*
X71929571Y-71921000D01*
X71858143Y-71849571D01*
X71786714Y-71706714D01*
X71786714Y-71635286D01*
X71858143Y-71492429D01*
X71929571Y-71421000D01*
X72072429Y-71349571D01*
X72358143Y-71349571D01*
X72501000Y-71421000D01*
X72572429Y-71492429D01*
X72643857Y-71635286D01*
X72643857Y-71706714D01*
X72572429Y-71849571D01*
X72501000Y-71921000D01*
X72358143Y-71992429D01*
X72072429Y-71992429D01*
X71929571Y-72063857D01*
X71858143Y-72135286D01*
X71786714Y-72278143D01*
X71786714Y-72563857D01*
X71858143Y-72706714D01*
X71929571Y-72778143D01*
X72072429Y-72849571D01*
X72358143Y-72849571D01*
X72501000Y-72778143D01*
X72572429Y-72706714D01*
X72643857Y-72563857D01*
X72643857Y-72278143D01*
X72572429Y-72135286D01*
X72501000Y-72063857D01*
X72358143Y-71992429D01*
X74358142Y-72778143D02*
X74500999Y-72849571D01*
X74786714Y-72849571D01*
X74929571Y-72778143D01*
X75000999Y-72635286D01*
X75000999Y-72563857D01*
X74929571Y-72421000D01*
X74786714Y-72349571D01*
X74572428Y-72349571D01*
X74429571Y-72278143D01*
X74358142Y-72135286D01*
X74358142Y-72063857D01*
X74429571Y-71921000D01*
X74572428Y-71849571D01*
X74786714Y-71849571D01*
X74929571Y-71921000D01*
X75643857Y-72849571D02*
X75643857Y-71849571D01*
X75643857Y-71349571D02*
X75572428Y-71421000D01*
X75643857Y-71492429D01*
X75715285Y-71421000D01*
X75643857Y-71349571D01*
X75643857Y-71492429D01*
X77001000Y-71849571D02*
X77001000Y-73063857D01*
X76929571Y-73206714D01*
X76858143Y-73278143D01*
X76715286Y-73349571D01*
X76501000Y-73349571D01*
X76358143Y-73278143D01*
X77001000Y-72778143D02*
X76858143Y-72849571D01*
X76572429Y-72849571D01*
X76429571Y-72778143D01*
X76358143Y-72706714D01*
X76286714Y-72563857D01*
X76286714Y-72135286D01*
X76358143Y-71992429D01*
X76429571Y-71921000D01*
X76572429Y-71849571D01*
X76858143Y-71849571D01*
X77001000Y-71921000D01*
X78358143Y-71849571D02*
X78358143Y-72849571D01*
X78001000Y-71278143D02*
X77643857Y-72349571D01*
X78572429Y-72349571D01*
X52625572Y-57320571D02*
X51768429Y-57320571D01*
X52197001Y-57320571D02*
X52197001Y-55820571D01*
X52054144Y-56034857D01*
X51911286Y-56177714D01*
X51768429Y-56249143D01*
X58213572Y-44874571D02*
X57356429Y-44874571D01*
X57785001Y-44874571D02*
X57785001Y-43374571D01*
X57642144Y-43588857D01*
X57499286Y-43731714D01*
X57356429Y-43803143D01*
X49587817Y-88797523D02*
X49436294Y-88848030D01*
X49284771Y-88999553D01*
X49183756Y-89201584D01*
X49183755Y-89403615D01*
X49234263Y-89555137D01*
X49385786Y-89807676D01*
X49537309Y-89959198D01*
X49789848Y-90110721D01*
X49941370Y-90161229D01*
X50143401Y-90161229D01*
X50345431Y-90060214D01*
X50446446Y-89959198D01*
X50547462Y-89757168D01*
X50547462Y-89656152D01*
X50193908Y-89302599D01*
X49991877Y-89504630D01*
X50395939Y-88595492D02*
X51103045Y-89302599D01*
X50496955Y-88696508D02*
X50496954Y-88595493D01*
X50547462Y-88443969D01*
X50698984Y-88292447D01*
X50850507Y-88241939D01*
X51002030Y-88292447D01*
X51557614Y-88848030D01*
X52517259Y-87888385D02*
X51456599Y-86827725D01*
X52466752Y-87837878D02*
X52416244Y-87989400D01*
X52214214Y-88191431D01*
X52062690Y-88241939D01*
X51961675Y-88241939D01*
X51810152Y-88191431D01*
X51507107Y-87888386D01*
X51456600Y-87736863D01*
X51456599Y-87635848D01*
X51507107Y-87484324D01*
X51709137Y-87282294D01*
X51860660Y-87231786D01*
X52433056Y-90212467D02*
X53241178Y-89404345D01*
X53241177Y-90212467D02*
X52433055Y-89404345D01*
X53594731Y-87737593D02*
X53089655Y-88242669D01*
X53544223Y-88798254D01*
X53544224Y-88697238D01*
X53594731Y-88545715D01*
X53847269Y-88293177D01*
X53998793Y-88242670D01*
X54099808Y-88242669D01*
X54251330Y-88293177D01*
X54503868Y-88545715D01*
X54554376Y-88697238D01*
X54554376Y-88798254D01*
X54503868Y-88949776D01*
X54251330Y-89202314D01*
X54099808Y-89252822D01*
X53998792Y-89252822D01*
X53948284Y-87384040D02*
X55362497Y-88091147D01*
X54655391Y-86676933D01*
X56360143Y-35083429D02*
X56431571Y-34869143D01*
X56431571Y-34512000D01*
X56360143Y-34369143D01*
X56288714Y-34297714D01*
X56145857Y-34226286D01*
X56003000Y-34226286D01*
X55860143Y-34297714D01*
X55788714Y-34369143D01*
X55717286Y-34512000D01*
X55645857Y-34797714D01*
X55574429Y-34940572D01*
X55503000Y-35012000D01*
X55360143Y-35083429D01*
X55217286Y-35083429D01*
X55074429Y-35012000D01*
X55003000Y-34940572D01*
X54931571Y-34797714D01*
X54931571Y-34440572D01*
X55003000Y-34226286D01*
X55431571Y-33726286D02*
X56431571Y-33440572D01*
X55717286Y-33154858D01*
X56431571Y-32869143D01*
X55431571Y-32583429D01*
X56431571Y-32012000D02*
X55431571Y-32012000D01*
X54931571Y-32012000D02*
X55003000Y-32083429D01*
X55074429Y-32012000D01*
X55003000Y-31940572D01*
X54931571Y-32012000D01*
X55074429Y-32012000D01*
X56431571Y-31297714D02*
X55431571Y-31297714D01*
X55574429Y-31297714D02*
X55503000Y-31226286D01*
X55431571Y-31083428D01*
X55431571Y-30869143D01*
X55503000Y-30726286D01*
X55645857Y-30654857D01*
X56431571Y-30654857D01*
X55645857Y-30654857D02*
X55503000Y-30583428D01*
X55431571Y-30440571D01*
X55431571Y-30226286D01*
X55503000Y-30083428D01*
X55645857Y-30012000D01*
X56431571Y-30012000D01*
X54018571Y-33607142D02*
X53304286Y-34107142D01*
X54018571Y-34464285D02*
X52518571Y-34464285D01*
X52518571Y-33892857D01*
X52590000Y-33749999D01*
X52661429Y-33678571D01*
X52804286Y-33607142D01*
X53018571Y-33607142D01*
X53161429Y-33678571D01*
X53232857Y-33749999D01*
X53304286Y-33892857D01*
X53304286Y-34464285D01*
X53947143Y-32392857D02*
X54018571Y-32535714D01*
X54018571Y-32821428D01*
X53947143Y-32964285D01*
X53804286Y-33035714D01*
X53232857Y-33035714D01*
X53090000Y-32964285D01*
X53018571Y-32821428D01*
X53018571Y-32535714D01*
X53090000Y-32392857D01*
X53232857Y-32321428D01*
X53375714Y-32321428D01*
X53518571Y-33035714D01*
X53947143Y-31750000D02*
X54018571Y-31607143D01*
X54018571Y-31321428D01*
X53947143Y-31178571D01*
X53804286Y-31107143D01*
X53732857Y-31107143D01*
X53590000Y-31178571D01*
X53518571Y-31321428D01*
X53518571Y-31535714D01*
X53447143Y-31678571D01*
X53304286Y-31750000D01*
X53232857Y-31750000D01*
X53090000Y-31678571D01*
X53018571Y-31535714D01*
X53018571Y-31321428D01*
X53090000Y-31178571D01*
X53947143Y-29892857D02*
X54018571Y-30035714D01*
X54018571Y-30321428D01*
X53947143Y-30464285D01*
X53804286Y-30535714D01*
X53232857Y-30535714D01*
X53090000Y-30464285D01*
X53018571Y-30321428D01*
X53018571Y-30035714D01*
X53090000Y-29892857D01*
X53232857Y-29821428D01*
X53375714Y-29821428D01*
X53518571Y-30535714D01*
X53018571Y-29392857D02*
X53018571Y-28821428D01*
X52518571Y-29178571D02*
X53804286Y-29178571D01*
X53947143Y-29107143D01*
X54018571Y-28964285D01*
X54018571Y-28821428D01*
X50177000Y-34281714D02*
X50105571Y-34424571D01*
X50105571Y-34638857D01*
X50177000Y-34853142D01*
X50319857Y-34996000D01*
X50462714Y-35067428D01*
X50748429Y-35138857D01*
X50962714Y-35138857D01*
X51248429Y-35067428D01*
X51391286Y-34996000D01*
X51534143Y-34853142D01*
X51605571Y-34638857D01*
X51605571Y-34496000D01*
X51534143Y-34281714D01*
X51462714Y-34210285D01*
X50962714Y-34210285D01*
X50962714Y-34496000D01*
X51605571Y-33567428D02*
X50605571Y-33567428D01*
X50891286Y-33567428D02*
X50748429Y-33496000D01*
X50677000Y-33424571D01*
X50605571Y-33281714D01*
X50605571Y-33138857D01*
X51605571Y-32424571D02*
X51534143Y-32567429D01*
X51462714Y-32638857D01*
X51319857Y-32710286D01*
X50891286Y-32710286D01*
X50748429Y-32638857D01*
X50677000Y-32567429D01*
X50605571Y-32424571D01*
X50605571Y-32210286D01*
X50677000Y-32067429D01*
X50748429Y-31996000D01*
X50891286Y-31924571D01*
X51319857Y-31924571D01*
X51462714Y-31996000D01*
X51534143Y-32067429D01*
X51605571Y-32210286D01*
X51605571Y-32424571D01*
X50605571Y-30638857D02*
X51605571Y-30638857D01*
X50605571Y-31281714D02*
X51391286Y-31281714D01*
X51534143Y-31210286D01*
X51605571Y-31067428D01*
X51605571Y-30853143D01*
X51534143Y-30710286D01*
X51462714Y-30638857D01*
X50605571Y-29924571D02*
X51605571Y-29924571D01*
X50748429Y-29924571D02*
X50677000Y-29853143D01*
X50605571Y-29710285D01*
X50605571Y-29496000D01*
X50677000Y-29353143D01*
X50819857Y-29281714D01*
X51605571Y-29281714D01*
X51605571Y-27924571D02*
X50105571Y-27924571D01*
X51534143Y-27924571D02*
X51605571Y-28067428D01*
X51605571Y-28353142D01*
X51534143Y-28496000D01*
X51462714Y-28567428D01*
X51319857Y-28638857D01*
X50891286Y-28638857D01*
X50748429Y-28567428D01*
X50677000Y-28496000D01*
X50605571Y-28353142D01*
X50605571Y-28067428D01*
X50677000Y-27924571D01*
X123106571Y-82446571D02*
X121606571Y-82446571D01*
X123106571Y-81589428D01*
X121606571Y-81589428D01*
X121606571Y-80589428D02*
X121606571Y-80303714D01*
X121678000Y-80160856D01*
X121820857Y-80017999D01*
X122106571Y-79946571D01*
X122606571Y-79946571D01*
X122892286Y-80017999D01*
X123035143Y-80160856D01*
X123106571Y-80303714D01*
X123106571Y-80589428D01*
X123035143Y-80732285D01*
X122892286Y-80875142D01*
X122606571Y-80946571D01*
X122106571Y-80946571D01*
X121820857Y-80875142D01*
X121678000Y-80732285D01*
X121606571Y-80589428D01*
X121749429Y-79375142D02*
X121678000Y-79303713D01*
X121606571Y-79160856D01*
X121606571Y-78803713D01*
X121678000Y-78660856D01*
X121749429Y-78589427D01*
X121892286Y-78517999D01*
X122035143Y-78517999D01*
X122249429Y-78589427D01*
X123106571Y-79446570D01*
X123106571Y-78517999D01*
X123106571Y-72159571D02*
X121606571Y-72159571D01*
X123106571Y-71302428D01*
X121606571Y-71302428D01*
X121606571Y-70302428D02*
X121606571Y-70016714D01*
X121678000Y-69873856D01*
X121820857Y-69730999D01*
X122106571Y-69659571D01*
X122606571Y-69659571D01*
X122892286Y-69730999D01*
X123035143Y-69873856D01*
X123106571Y-70016714D01*
X123106571Y-70302428D01*
X123035143Y-70445285D01*
X122892286Y-70588142D01*
X122606571Y-70659571D01*
X122106571Y-70659571D01*
X121820857Y-70588142D01*
X121678000Y-70445285D01*
X121606571Y-70302428D01*
X121749429Y-69088142D02*
X121678000Y-69016713D01*
X121606571Y-68873856D01*
X121606571Y-68516713D01*
X121678000Y-68373856D01*
X121749429Y-68302427D01*
X121892286Y-68230999D01*
X122035143Y-68230999D01*
X122249429Y-68302427D01*
X123106571Y-69159570D01*
X123106571Y-68230999D01*
X122852571Y-46505571D02*
X121352571Y-46505571D01*
X122852571Y-45648428D01*
X121352571Y-45648428D01*
X121352571Y-44648428D02*
X121352571Y-44362714D01*
X121424000Y-44219856D01*
X121566857Y-44076999D01*
X121852571Y-44005571D01*
X122352571Y-44005571D01*
X122638286Y-44076999D01*
X122781143Y-44219856D01*
X122852571Y-44362714D01*
X122852571Y-44648428D01*
X122781143Y-44791285D01*
X122638286Y-44934142D01*
X122352571Y-45005571D01*
X121852571Y-45005571D01*
X121566857Y-44934142D01*
X121424000Y-44791285D01*
X121352571Y-44648428D01*
X122852571Y-42576999D02*
X122852571Y-43434142D01*
X122852571Y-43005570D02*
X121352571Y-43005570D01*
X121566857Y-43148427D01*
X121709714Y-43291285D01*
X121781143Y-43434142D01*
X122979571Y-36218571D02*
X121479571Y-36218571D01*
X122979571Y-35361428D01*
X121479571Y-35361428D01*
X121479571Y-34361428D02*
X121479571Y-34075714D01*
X121551000Y-33932856D01*
X121693857Y-33789999D01*
X121979571Y-33718571D01*
X122479571Y-33718571D01*
X122765286Y-33789999D01*
X122908143Y-33932856D01*
X122979571Y-34075714D01*
X122979571Y-34361428D01*
X122908143Y-34504285D01*
X122765286Y-34647142D01*
X122479571Y-34718571D01*
X121979571Y-34718571D01*
X121693857Y-34647142D01*
X121551000Y-34504285D01*
X121479571Y-34361428D01*
X122979571Y-32289999D02*
X122979571Y-33147142D01*
X122979571Y-32718570D02*
X121479571Y-32718570D01*
X121693857Y-32861427D01*
X121836714Y-33004285D01*
X121908143Y-33147142D01*
X121551000Y-76402286D02*
X121479571Y-76545143D01*
X121479571Y-76759429D01*
X121551000Y-76973714D01*
X121693857Y-77116572D01*
X121836714Y-77188000D01*
X122122429Y-77259429D01*
X122336714Y-77259429D01*
X122622429Y-77188000D01*
X122765286Y-77116572D01*
X122908143Y-76973714D01*
X122979571Y-76759429D01*
X122979571Y-76616572D01*
X122908143Y-76402286D01*
X122836714Y-76330857D01*
X122336714Y-76330857D01*
X122336714Y-76616572D01*
X121979571Y-75688000D02*
X122979571Y-75688000D01*
X122122429Y-75688000D02*
X122051000Y-75616572D01*
X121979571Y-75473714D01*
X121979571Y-75259429D01*
X122051000Y-75116572D01*
X122193857Y-75045143D01*
X122979571Y-75045143D01*
X122979571Y-73688000D02*
X121479571Y-73688000D01*
X122908143Y-73688000D02*
X122979571Y-73830857D01*
X122979571Y-74116571D01*
X122908143Y-74259429D01*
X122836714Y-74330857D01*
X122693857Y-74402286D01*
X122265286Y-74402286D01*
X122122429Y-74330857D01*
X122051000Y-74259429D01*
X121979571Y-74116571D01*
X121979571Y-73830857D01*
X122051000Y-73688000D01*
X121297000Y-40588286D02*
X121225571Y-40731143D01*
X121225571Y-40945429D01*
X121297000Y-41159714D01*
X121439857Y-41302572D01*
X121582714Y-41374000D01*
X121868429Y-41445429D01*
X122082714Y-41445429D01*
X122368429Y-41374000D01*
X122511286Y-41302572D01*
X122654143Y-41159714D01*
X122725571Y-40945429D01*
X122725571Y-40802572D01*
X122654143Y-40588286D01*
X122582714Y-40516857D01*
X122082714Y-40516857D01*
X122082714Y-40802572D01*
X121725571Y-39874000D02*
X122725571Y-39874000D01*
X121868429Y-39874000D02*
X121797000Y-39802572D01*
X121725571Y-39659714D01*
X121725571Y-39445429D01*
X121797000Y-39302572D01*
X121939857Y-39231143D01*
X122725571Y-39231143D01*
X122725571Y-37874000D02*
X121225571Y-37874000D01*
X122654143Y-37874000D02*
X122725571Y-38016857D01*
X122725571Y-38302571D01*
X122654143Y-38445429D01*
X122582714Y-38516857D01*
X122439857Y-38588286D01*
X122011286Y-38588286D01*
X121868429Y-38516857D01*
X121797000Y-38445429D01*
X121725571Y-38302571D01*
X121725571Y-38016857D01*
X121797000Y-37874000D01*
D13*
X54517000Y-61847000D02*
X54957000Y-61847000D01*
X54517000Y-62867000D02*
X54957000Y-62867000D01*
X53560000Y-45087000D02*
X53120000Y-45087000D01*
X53560000Y-44067000D02*
X53120000Y-44067000D01*
X60926000Y-49151000D02*
X60486000Y-49151000D01*
X60926000Y-48131000D02*
X60486000Y-48131000D01*
X62736000Y-48861000D02*
X62736000Y-48421000D01*
X63756000Y-48861000D02*
X63756000Y-48421000D01*
X96821000Y-45633000D02*
X96821000Y-35393000D01*
X101462000Y-45633000D02*
X101462000Y-35393000D01*
X96821000Y-45633000D02*
X101462000Y-45633000D01*
X96821000Y-35393000D02*
X101462000Y-35393000D01*
X98331000Y-45633000D02*
X98331000Y-35393000D01*
X96821000Y-42363000D02*
X98331000Y-42363000D01*
X96821000Y-38662000D02*
X98331000Y-38662000D01*
X104880000Y-73080000D02*
X104880000Y-62840000D01*
X109521000Y-73080000D02*
X109521000Y-62840000D01*
X104880000Y-73080000D02*
X109521000Y-73080000D01*
X104880000Y-62840000D02*
X109521000Y-62840000D01*
X106390000Y-73080000D02*
X106390000Y-62840000D01*
X104880000Y-69810000D02*
X106390000Y-69810000D01*
X104880000Y-66109000D02*
X106390000Y-66109000D01*
X40200000Y-66600000D02*
X31450000Y-66600000D01*
X47150000Y-66600000D02*
X43350000Y-66600000D01*
X47150000Y-70700000D02*
X47150000Y-66600000D01*
X40250000Y-78900000D02*
X31450000Y-78900000D01*
X47150000Y-78900000D02*
X43300000Y-78900000D01*
X47150000Y-74800000D02*
X47150000Y-78900000D01*
X48450000Y-73550000D02*
X48000000Y-74000000D01*
X48450000Y-74450000D02*
X48450000Y-73550000D01*
X48000000Y-74000000D02*
X48450000Y-74450000D01*
X50740000Y-83379000D02*
X50740000Y-86039000D01*
X53340000Y-83379000D02*
X50740000Y-83379000D01*
X53340000Y-86039000D02*
X50740000Y-86039000D01*
X53340000Y-83379000D02*
X53340000Y-86039000D01*
X54610000Y-83379000D02*
X55940000Y-83379000D01*
X55940000Y-83379000D02*
X55940000Y-84709000D01*
X58607000Y-27111000D02*
X58607000Y-24451000D01*
X53467000Y-27111000D02*
X58607000Y-27111000D01*
X53467000Y-24451000D02*
X58607000Y-24451000D01*
X53467000Y-27111000D02*
X53467000Y-24451000D01*
X52197000Y-27111000D02*
X50867000Y-27111000D01*
X50867000Y-27111000D02*
X50867000Y-25781000D01*
X99378333Y-92740000D02*
X99378333Y-89000000D01*
X99378333Y-89000000D02*
X77621667Y-89000000D01*
X77621667Y-89000000D02*
X77621667Y-92740000D01*
X77381667Y-91000000D02*
X77381667Y-88760000D01*
X77381667Y-88760000D02*
X81575000Y-88760000D01*
X123800000Y-31850000D02*
X111200000Y-31850000D01*
X111200000Y-31850000D02*
X111200000Y-47250000D01*
X111200000Y-47250000D02*
X112150000Y-47250000D01*
X112150000Y-47250000D02*
X111850000Y-47750000D01*
X111850000Y-47750000D02*
X113850000Y-47750000D01*
X113850000Y-47750000D02*
X113600000Y-47250000D01*
X113600000Y-47250000D02*
X119000000Y-47250000D01*
X119000000Y-47250000D02*
X118750000Y-47750000D01*
X118750000Y-47750000D02*
X123800000Y-47750000D01*
X123800000Y-47750000D02*
X123800000Y-31850000D01*
X123800000Y-67850000D02*
X111200000Y-67850000D01*
X111200000Y-67850000D02*
X111200000Y-83250000D01*
X111200000Y-83250000D02*
X112150000Y-83250000D01*
X112150000Y-83250000D02*
X111850000Y-83750000D01*
X111850000Y-83750000D02*
X113850000Y-83750000D01*
X113850000Y-83750000D02*
X113600000Y-83250000D01*
X113600000Y-83250000D02*
X119000000Y-83250000D01*
X119000000Y-83250000D02*
X118750000Y-83750000D01*
X118750000Y-83750000D02*
X123800000Y-83750000D01*
X123800000Y-83750000D02*
X123800000Y-67850000D01*
X81275000Y-30795000D02*
X74675000Y-30795000D01*
X90275000Y-30795000D02*
X83675000Y-30795000D01*
X90275000Y-30795000D02*
X90275000Y-50595000D01*
X90275000Y-50595000D02*
X74675000Y-50595000D01*
X74675000Y-50595000D02*
X74675000Y-30795000D01*
X78275000Y-46345000D02*
X80725000Y-46345000D01*
X86675000Y-46345000D02*
X84175000Y-46345000D01*
X76425000Y-35745000D02*
X76425000Y-38245000D01*
X82425000Y-34845000D02*
X82425000Y-34045000D01*
X88425000Y-38245000D02*
X88425000Y-35745000D01*
X82425000Y-41645000D02*
X82425000Y-43145000D01*
X82425000Y-43145000D02*
X84925000Y-47745000D01*
X78825000Y-41645000D02*
X78825000Y-34845000D01*
X82425000Y-41645000D02*
X78825000Y-41645000D01*
X82425000Y-34845000D02*
X78825000Y-34845000D01*
X88425000Y-38245000D02*
X84225000Y-38245000D01*
X80625000Y-38245000D02*
X76425000Y-38245000D01*
X80625000Y-40245000D02*
X84225000Y-36245000D01*
X80625000Y-36245000D02*
X84225000Y-36245000D01*
X84225000Y-36245000D02*
X84225000Y-40245000D01*
X84225000Y-40245000D02*
X80625000Y-40245000D01*
X80625000Y-40245000D02*
X80625000Y-36245000D01*
X89986000Y-53718000D02*
X83386000Y-53718000D01*
X98986000Y-53718000D02*
X92386000Y-53718000D01*
X98986000Y-53718000D02*
X98986000Y-73518000D01*
X98986000Y-73518000D02*
X83386000Y-73518000D01*
X83386000Y-73518000D02*
X83386000Y-53718000D01*
X86986000Y-69268000D02*
X89436000Y-69268000D01*
X95386000Y-69268000D02*
X92886000Y-69268000D01*
X85136000Y-58668000D02*
X85136000Y-61168000D01*
X91136000Y-57768000D02*
X91136000Y-56968000D01*
X97136000Y-61168000D02*
X97136000Y-58668000D01*
X91136000Y-64568000D02*
X91136000Y-66068000D01*
X91136000Y-66068000D02*
X93636000Y-70668000D01*
X87536000Y-64568000D02*
X87536000Y-57768000D01*
X91136000Y-64568000D02*
X87536000Y-64568000D01*
X91136000Y-57768000D02*
X87536000Y-57768000D01*
X97136000Y-61168000D02*
X92936000Y-61168000D01*
X89336000Y-61168000D02*
X85136000Y-61168000D01*
X89336000Y-63168000D02*
X92936000Y-59168000D01*
X89336000Y-59168000D02*
X92936000Y-59168000D01*
X92936000Y-59168000D02*
X92936000Y-63168000D01*
X92936000Y-63168000D02*
X89336000Y-63168000D01*
X89336000Y-63168000D02*
X89336000Y-59168000D01*
X66804000Y-75001000D02*
X66804000Y-75931000D01*
X66804000Y-78161000D02*
X66804000Y-77231000D01*
X66804000Y-78161000D02*
X69964000Y-78161000D01*
X66804000Y-75001000D02*
X68264000Y-75001000D01*
X62228000Y-88575000D02*
X62228000Y-87645000D01*
X62228000Y-85415000D02*
X62228000Y-86345000D01*
X62228000Y-85415000D02*
X59068000Y-85415000D01*
X62228000Y-88575000D02*
X60768000Y-88575000D01*
X97534000Y-78923000D02*
X97534000Y-77993000D01*
X97534000Y-75763000D02*
X97534000Y-76693000D01*
X97534000Y-75763000D02*
X94374000Y-75763000D01*
X97534000Y-78923000D02*
X96074000Y-78923000D01*
X94867000Y-86162000D02*
X94867000Y-85232000D01*
X94867000Y-83002000D02*
X94867000Y-83932000D01*
X94867000Y-83002000D02*
X91707000Y-83002000D01*
X94867000Y-86162000D02*
X93407000Y-86162000D01*
X60740000Y-83310000D02*
X61180000Y-83310000D01*
X60740000Y-84330000D02*
X61180000Y-84330000D01*
X73277000Y-76801000D02*
X73277000Y-76361000D01*
X74297000Y-76801000D02*
X74297000Y-76361000D01*
X57787000Y-36356000D02*
X57787000Y-36796000D01*
X56767000Y-36356000D02*
X56767000Y-36796000D01*
X68709000Y-83600000D02*
X68709000Y-84040000D01*
X67689000Y-83600000D02*
X67689000Y-84040000D01*
X67689000Y-88739000D02*
X67689000Y-88299000D01*
X68709000Y-88739000D02*
X68709000Y-88299000D01*
X89882000Y-76837000D02*
X89442000Y-76837000D01*
X89882000Y-75817000D02*
X89442000Y-75817000D01*
X92073000Y-81373000D02*
X92073000Y-80933000D01*
X93093000Y-81373000D02*
X93093000Y-80933000D01*
D14*
X51313000Y-57955000D02*
X51338000Y-57955000D01*
X51313000Y-53805000D02*
X51418000Y-53805000D01*
X61463000Y-53805000D02*
X61358000Y-53805000D01*
X61463000Y-57955000D02*
X61358000Y-57955000D01*
X51313000Y-57955000D02*
X51313000Y-53805000D01*
X61463000Y-57955000D02*
X61463000Y-53805000D01*
X51338000Y-57955000D02*
X51338000Y-59330000D01*
X56748000Y-40728000D02*
X56848000Y-40728000D01*
X63573000Y-40728000D02*
X63548000Y-40728000D01*
X63573000Y-45378000D02*
X63548000Y-45378000D01*
X56748000Y-46453000D02*
X56748000Y-40728000D01*
X63573000Y-45378000D02*
X63573000Y-40728000D01*
D13*
X104708000Y-30591000D02*
G75*
G02X104708000Y-28591000I0J1000000D01*
G01*
X104708000Y-28591000D02*
X104708000Y-26941000D01*
X104708000Y-26941000D02*
X96968000Y-26941000D01*
X96968000Y-26941000D02*
X96968000Y-32241000D01*
X96968000Y-32241000D02*
X104708000Y-32241000D01*
X104708000Y-32241000D02*
X104708000Y-30591000D01*
X121330000Y-58810000D02*
G75*
G02X121330000Y-56810000I0J1000000D01*
G01*
X121330000Y-56810000D02*
X121330000Y-55160000D01*
X121330000Y-55160000D02*
X113590000Y-55160000D01*
X113590000Y-55160000D02*
X113590000Y-60460000D01*
X113590000Y-60460000D02*
X121330000Y-60460000D01*
X121330000Y-60460000D02*
X121330000Y-58810000D01*
X68184000Y-62434000D02*
X68184000Y-68684000D01*
X63134000Y-62434000D02*
X63134000Y-68684000D01*
X63134000Y-62434000D02*
G75*
G02X68184000Y-62434000I2525000J0D01*
G01*
X63134000Y-68684000D02*
G75*
G03X68184000Y-68684000I2525000J0D01*
G01*
X38280000Y-31975000D02*
X48760000Y-31975000D01*
X48760000Y-31975000D02*
X48760000Y-62945000D01*
X48760000Y-62945000D02*
X38280000Y-62945000D01*
X49654338Y-52750000D02*
X49654338Y-53250000D01*
X49654338Y-53250000D02*
X49221325Y-53000000D01*
X49221325Y-53000000D02*
X49654338Y-52750000D01*
X59053000Y-34256000D02*
X59053000Y-33816000D01*
X60073000Y-34256000D02*
X60073000Y-33816000D01*
X60301000Y-27568000D02*
X60301000Y-31868000D01*
X60301000Y-31868000D02*
X67851000Y-31868000D01*
X60301000Y-27568000D02*
X67851000Y-27568000D01*
X91755000Y-40465000D02*
X95195000Y-40465000D01*
X95195000Y-40465000D02*
X95195000Y-31225000D01*
X95195000Y-31225000D02*
X91755000Y-31225000D01*
X91755000Y-31225000D02*
X91755000Y-40465000D01*
X93475000Y-41155000D02*
X93475000Y-40465000D01*
X93475000Y-30535000D02*
X93475000Y-31225000D01*
X100280000Y-68770000D02*
X103720000Y-68770000D01*
X103720000Y-68770000D02*
X103720000Y-59530000D01*
X103720000Y-59530000D02*
X100280000Y-59530000D01*
X100280000Y-59530000D02*
X100280000Y-68770000D01*
X102000000Y-69460000D02*
X102000000Y-68770000D01*
X102000000Y-58840000D02*
X102000000Y-59530000D01*
X77087000Y-27615000D02*
X77087000Y-26685000D01*
X77087000Y-24455000D02*
X77087000Y-25385000D01*
X77087000Y-24455000D02*
X73927000Y-24455000D01*
X77087000Y-27615000D02*
X75627000Y-27615000D01*
X70791000Y-76731000D02*
X70791000Y-76431000D01*
X72211000Y-76731000D02*
X72211000Y-76431000D01*
X58016000Y-81078000D02*
X58316000Y-81078000D01*
X58016000Y-82498000D02*
X58316000Y-82498000D01*
X93420000Y-77066000D02*
X93420000Y-77366000D01*
X92000000Y-77066000D02*
X92000000Y-77366000D01*
X90753000Y-84559000D02*
X90753000Y-84859000D01*
X89333000Y-84559000D02*
X89333000Y-84859000D01*
X65498000Y-25656000D02*
X65058000Y-25656000D01*
X65498000Y-24636000D02*
X65058000Y-24636000D01*
X71426000Y-26312000D02*
X71426000Y-26012000D01*
X72846000Y-26312000D02*
X72846000Y-26012000D01*
X69181000Y-34927000D02*
X68741000Y-34927000D01*
X69181000Y-33907000D02*
X68741000Y-33907000D01*
X61850000Y-59153000D02*
X65150000Y-59153000D01*
X65150000Y-59153000D02*
X65150000Y-53753000D01*
X61850000Y-59153000D02*
X61850000Y-53753000D01*
D14*
X54570334Y-61064143D02*
X54522715Y-61111762D01*
X54379858Y-61159381D01*
X54284620Y-61159381D01*
X54141762Y-61111762D01*
X54046524Y-61016524D01*
X53998905Y-60921286D01*
X53951286Y-60730810D01*
X53951286Y-60587952D01*
X53998905Y-60397476D01*
X54046524Y-60302238D01*
X54141762Y-60207000D01*
X54284620Y-60159381D01*
X54379858Y-60159381D01*
X54522715Y-60207000D01*
X54570334Y-60254619D01*
X55427477Y-60159381D02*
X55237000Y-60159381D01*
X55141762Y-60207000D01*
X55094143Y-60254619D01*
X54998905Y-60397476D01*
X54951286Y-60587952D01*
X54951286Y-60968905D01*
X54998905Y-61064143D01*
X55046524Y-61111762D01*
X55141762Y-61159381D01*
X55332239Y-61159381D01*
X55427477Y-61111762D01*
X55475096Y-61064143D01*
X55522715Y-60968905D01*
X55522715Y-60730810D01*
X55475096Y-60635571D01*
X55427477Y-60587952D01*
X55332239Y-60540333D01*
X55141762Y-60540333D01*
X55046524Y-60587952D01*
X54998905Y-60635571D01*
X54951286Y-60730810D01*
X53173334Y-46584143D02*
X53125715Y-46631762D01*
X52982858Y-46679381D01*
X52887620Y-46679381D01*
X52744762Y-46631762D01*
X52649524Y-46536524D01*
X52601905Y-46441286D01*
X52554286Y-46250810D01*
X52554286Y-46107952D01*
X52601905Y-45917476D01*
X52649524Y-45822238D01*
X52744762Y-45727000D01*
X52887620Y-45679381D01*
X52982858Y-45679381D01*
X53125715Y-45727000D01*
X53173334Y-45774619D01*
X53744762Y-46107952D02*
X53649524Y-46060333D01*
X53601905Y-46012714D01*
X53554286Y-45917476D01*
X53554286Y-45869857D01*
X53601905Y-45774619D01*
X53649524Y-45727000D01*
X53744762Y-45679381D01*
X53935239Y-45679381D01*
X54030477Y-45727000D01*
X54078096Y-45774619D01*
X54125715Y-45869857D01*
X54125715Y-45917476D01*
X54078096Y-46012714D01*
X54030477Y-46060333D01*
X53935239Y-46107952D01*
X53744762Y-46107952D01*
X53649524Y-46155571D01*
X53601905Y-46203190D01*
X53554286Y-46298429D01*
X53554286Y-46488905D01*
X53601905Y-46584143D01*
X53649524Y-46631762D01*
X53744762Y-46679381D01*
X53935239Y-46679381D01*
X54030477Y-46631762D01*
X54078096Y-46584143D01*
X54125715Y-46488905D01*
X54125715Y-46298429D01*
X54078096Y-46203190D01*
X54030477Y-46155571D01*
X53935239Y-46107952D01*
X60539334Y-50648143D02*
X60491715Y-50695762D01*
X60348858Y-50743381D01*
X60253620Y-50743381D01*
X60110762Y-50695762D01*
X60015524Y-50600524D01*
X59967905Y-50505286D01*
X59920286Y-50314810D01*
X59920286Y-50171952D01*
X59967905Y-49981476D01*
X60015524Y-49886238D01*
X60110762Y-49791000D01*
X60253620Y-49743381D01*
X60348858Y-49743381D01*
X60491715Y-49791000D01*
X60539334Y-49838619D01*
X61015524Y-50743381D02*
X61206000Y-50743381D01*
X61301239Y-50695762D01*
X61348858Y-50648143D01*
X61444096Y-50505286D01*
X61491715Y-50314810D01*
X61491715Y-49933857D01*
X61444096Y-49838619D01*
X61396477Y-49791000D01*
X61301239Y-49743381D01*
X61110762Y-49743381D01*
X61015524Y-49791000D01*
X60967905Y-49838619D01*
X60920286Y-49933857D01*
X60920286Y-50171952D01*
X60967905Y-50267190D01*
X61015524Y-50314810D01*
X61110762Y-50362429D01*
X61301239Y-50362429D01*
X61396477Y-50314810D01*
X61444096Y-50267190D01*
X61491715Y-50171952D01*
X65127143Y-49283857D02*
X65174762Y-49331476D01*
X65222381Y-49474333D01*
X65222381Y-49569571D01*
X65174762Y-49712429D01*
X65079524Y-49807667D01*
X64984286Y-49855286D01*
X64793810Y-49902905D01*
X64650952Y-49902905D01*
X64460476Y-49855286D01*
X64365238Y-49807667D01*
X64270000Y-49712429D01*
X64222381Y-49569571D01*
X64222381Y-49474333D01*
X64270000Y-49331476D01*
X64317619Y-49283857D01*
X65222381Y-48331476D02*
X65222381Y-48902905D01*
X65222381Y-48617191D02*
X64222381Y-48617191D01*
X64365238Y-48712429D01*
X64460476Y-48807667D01*
X64508095Y-48902905D01*
X64222381Y-47712429D02*
X64222381Y-47617190D01*
X64270000Y-47521952D01*
X64317619Y-47474333D01*
X64412857Y-47426714D01*
X64603333Y-47379095D01*
X64841429Y-47379095D01*
X65031905Y-47426714D01*
X65127143Y-47474333D01*
X65174762Y-47521952D01*
X65222381Y-47617190D01*
X65222381Y-47712429D01*
X65174762Y-47807667D01*
X65127143Y-47855286D01*
X65031905Y-47902905D01*
X64841429Y-47950524D01*
X64603333Y-47950524D01*
X64412857Y-47902905D01*
X64317619Y-47855286D01*
X64270000Y-47807667D01*
X64222381Y-47712429D01*
X98702905Y-47061381D02*
X98702905Y-46061381D01*
X98941000Y-46061381D01*
X99083858Y-46109000D01*
X99179096Y-46204238D01*
X99226715Y-46299476D01*
X99274334Y-46489952D01*
X99274334Y-46632810D01*
X99226715Y-46823286D01*
X99179096Y-46918524D01*
X99083858Y-47013762D01*
X98941000Y-47061381D01*
X98702905Y-47061381D01*
X99607667Y-46061381D02*
X100226715Y-46061381D01*
X99893381Y-46442333D01*
X100036239Y-46442333D01*
X100131477Y-46489952D01*
X100179096Y-46537571D01*
X100226715Y-46632810D01*
X100226715Y-46870905D01*
X100179096Y-46966143D01*
X100131477Y-47013762D01*
X100036239Y-47061381D01*
X99750524Y-47061381D01*
X99655286Y-47013762D01*
X99607667Y-46966143D01*
X106830905Y-62301381D02*
X106830905Y-61301381D01*
X107069000Y-61301381D01*
X107211858Y-61349000D01*
X107307096Y-61444238D01*
X107354715Y-61539476D01*
X107402334Y-61729952D01*
X107402334Y-61872810D01*
X107354715Y-62063286D01*
X107307096Y-62158524D01*
X107211858Y-62253762D01*
X107069000Y-62301381D01*
X106830905Y-62301381D01*
X108259477Y-61634714D02*
X108259477Y-62301381D01*
X108021381Y-61253762D02*
X107783286Y-61968048D01*
X108402334Y-61968048D01*
X45116667Y-79552381D02*
X45116667Y-80266667D01*
X45069047Y-80409524D01*
X44973809Y-80504762D01*
X44830952Y-80552381D01*
X44735714Y-80552381D01*
X45545238Y-79647619D02*
X45592857Y-79600000D01*
X45688095Y-79552381D01*
X45926191Y-79552381D01*
X46021429Y-79600000D01*
X46069048Y-79647619D01*
X46116667Y-79742857D01*
X46116667Y-79838095D01*
X46069048Y-79980952D01*
X45497619Y-80552381D01*
X46116667Y-80552381D01*
X52879667Y-81494381D02*
X52879667Y-82208667D01*
X52832047Y-82351524D01*
X52736809Y-82446762D01*
X52593952Y-82494381D01*
X52498714Y-82494381D01*
X53260619Y-81494381D02*
X53879667Y-81494381D01*
X53546333Y-81875333D01*
X53689191Y-81875333D01*
X53784429Y-81922952D01*
X53832048Y-81970571D01*
X53879667Y-82065810D01*
X53879667Y-82303905D01*
X53832048Y-82399143D01*
X53784429Y-82446762D01*
X53689191Y-82494381D01*
X53403476Y-82494381D01*
X53308238Y-82446762D01*
X53260619Y-82399143D01*
X49319381Y-26114333D02*
X50033667Y-26114333D01*
X50176524Y-26161953D01*
X50271762Y-26257191D01*
X50319381Y-26400048D01*
X50319381Y-26495286D01*
X49652714Y-25209571D02*
X50319381Y-25209571D01*
X49271762Y-25447667D02*
X49986048Y-25685762D01*
X49986048Y-25066714D01*
X86534667Y-87463381D02*
X86534667Y-88177667D01*
X86487047Y-88320524D01*
X86391809Y-88415762D01*
X86248952Y-88463381D01*
X86153714Y-88463381D01*
X87487048Y-87463381D02*
X87010857Y-87463381D01*
X86963238Y-87939571D01*
X87010857Y-87891952D01*
X87106095Y-87844333D01*
X87344191Y-87844333D01*
X87439429Y-87891952D01*
X87487048Y-87939571D01*
X87534667Y-88034810D01*
X87534667Y-88272905D01*
X87487048Y-88368143D01*
X87439429Y-88415762D01*
X87344191Y-88463381D01*
X87106095Y-88463381D01*
X87010857Y-88415762D01*
X86963238Y-88368143D01*
X114982667Y-48220381D02*
X114982667Y-48934667D01*
X114935047Y-49077524D01*
X114839809Y-49172762D01*
X114696952Y-49220381D01*
X114601714Y-49220381D01*
X115887429Y-48220381D02*
X115696952Y-48220381D01*
X115601714Y-48268000D01*
X115554095Y-48315619D01*
X115458857Y-48458476D01*
X115411238Y-48648952D01*
X115411238Y-49029905D01*
X115458857Y-49125143D01*
X115506476Y-49172762D01*
X115601714Y-49220381D01*
X115792191Y-49220381D01*
X115887429Y-49172762D01*
X115935048Y-49125143D01*
X115982667Y-49029905D01*
X115982667Y-48791810D01*
X115935048Y-48696571D01*
X115887429Y-48648952D01*
X115792191Y-48601333D01*
X115601714Y-48601333D01*
X115506476Y-48648952D01*
X115458857Y-48696571D01*
X115411238Y-48791810D01*
X113458667Y-84669381D02*
X113458667Y-85383667D01*
X113411047Y-85526524D01*
X113315809Y-85621762D01*
X113172952Y-85669381D01*
X113077714Y-85669381D01*
X113839619Y-84669381D02*
X114506286Y-84669381D01*
X114077714Y-85669381D01*
X73727381Y-41033095D02*
X72727381Y-41033095D01*
X73727381Y-40461666D02*
X73155952Y-40890238D01*
X72727381Y-40461666D02*
X73298810Y-41033095D01*
X73727381Y-39509285D02*
X73727381Y-40080714D01*
X73727381Y-39795000D02*
X72727381Y-39795000D01*
X72870238Y-39890238D01*
X72965476Y-39985476D01*
X73013095Y-40080714D01*
X87907905Y-53030381D02*
X87907905Y-52030381D01*
X88479334Y-53030381D02*
X88050762Y-52458952D01*
X88479334Y-52030381D02*
X87907905Y-52601810D01*
X88860286Y-52125619D02*
X88907905Y-52078000D01*
X89003143Y-52030381D01*
X89241239Y-52030381D01*
X89336477Y-52078000D01*
X89384096Y-52125619D01*
X89431715Y-52220857D01*
X89431715Y-52316095D01*
X89384096Y-52458952D01*
X88812667Y-53030381D01*
X89431715Y-53030381D01*
X67468762Y-79541619D02*
X67373524Y-79494000D01*
X67278286Y-79398762D01*
X67135429Y-79255905D01*
X67040190Y-79208286D01*
X66944952Y-79208286D01*
X66992571Y-79446381D02*
X66897333Y-79398762D01*
X66802095Y-79303524D01*
X66754476Y-79113048D01*
X66754476Y-78779714D01*
X66802095Y-78589238D01*
X66897333Y-78494000D01*
X66992571Y-78446381D01*
X67183048Y-78446381D01*
X67278286Y-78494000D01*
X67373524Y-78589238D01*
X67421143Y-78779714D01*
X67421143Y-79113048D01*
X67373524Y-79303524D01*
X67278286Y-79398762D01*
X67183048Y-79446381D01*
X66992571Y-79446381D01*
X68373524Y-79446381D02*
X67802095Y-79446381D01*
X68087809Y-79446381D02*
X68087809Y-78446381D01*
X67992571Y-78589238D01*
X67897333Y-78684476D01*
X67802095Y-78732095D01*
X61372762Y-90336619D02*
X61277524Y-90289000D01*
X61182286Y-90193762D01*
X61039429Y-90050905D01*
X60944190Y-90003286D01*
X60848952Y-90003286D01*
X60896571Y-90241381D02*
X60801333Y-90193762D01*
X60706095Y-90098524D01*
X60658476Y-89908048D01*
X60658476Y-89574714D01*
X60706095Y-89384238D01*
X60801333Y-89289000D01*
X60896571Y-89241381D01*
X61087048Y-89241381D01*
X61182286Y-89289000D01*
X61277524Y-89384238D01*
X61325143Y-89574714D01*
X61325143Y-89908048D01*
X61277524Y-90098524D01*
X61182286Y-90193762D01*
X61087048Y-90241381D01*
X60896571Y-90241381D01*
X61706095Y-89336619D02*
X61753714Y-89289000D01*
X61848952Y-89241381D01*
X62087048Y-89241381D01*
X62182286Y-89289000D01*
X62229905Y-89336619D01*
X62277524Y-89431857D01*
X62277524Y-89527095D01*
X62229905Y-89669952D01*
X61658476Y-90241381D01*
X62277524Y-90241381D01*
X96678762Y-75390619D02*
X96583524Y-75343000D01*
X96488286Y-75247762D01*
X96345429Y-75104905D01*
X96250190Y-75057286D01*
X96154952Y-75057286D01*
X96202571Y-75295381D02*
X96107333Y-75247762D01*
X96012095Y-75152524D01*
X95964476Y-74962048D01*
X95964476Y-74628714D01*
X96012095Y-74438238D01*
X96107333Y-74343000D01*
X96202571Y-74295381D01*
X96393048Y-74295381D01*
X96488286Y-74343000D01*
X96583524Y-74438238D01*
X96631143Y-74628714D01*
X96631143Y-74962048D01*
X96583524Y-75152524D01*
X96488286Y-75247762D01*
X96393048Y-75295381D01*
X96202571Y-75295381D01*
X96964476Y-74295381D02*
X97583524Y-74295381D01*
X97250190Y-74676333D01*
X97393048Y-74676333D01*
X97488286Y-74723952D01*
X97535905Y-74771571D01*
X97583524Y-74866810D01*
X97583524Y-75104905D01*
X97535905Y-75200143D01*
X97488286Y-75247762D01*
X97393048Y-75295381D01*
X97107333Y-75295381D01*
X97012095Y-75247762D01*
X96964476Y-75200143D01*
X94011762Y-87796619D02*
X93916524Y-87749000D01*
X93821286Y-87653762D01*
X93678429Y-87510905D01*
X93583190Y-87463286D01*
X93487952Y-87463286D01*
X93535571Y-87701381D02*
X93440333Y-87653762D01*
X93345095Y-87558524D01*
X93297476Y-87368048D01*
X93297476Y-87034714D01*
X93345095Y-86844238D01*
X93440333Y-86749000D01*
X93535571Y-86701381D01*
X93726048Y-86701381D01*
X93821286Y-86749000D01*
X93916524Y-86844238D01*
X93964143Y-87034714D01*
X93964143Y-87368048D01*
X93916524Y-87558524D01*
X93821286Y-87653762D01*
X93726048Y-87701381D01*
X93535571Y-87701381D01*
X94821286Y-87034714D02*
X94821286Y-87701381D01*
X94583190Y-86653762D02*
X94345095Y-87368048D01*
X94964143Y-87368048D01*
X60793334Y-82622381D02*
X60460000Y-82146190D01*
X60221905Y-82622381D02*
X60221905Y-81622381D01*
X60602858Y-81622381D01*
X60698096Y-81670000D01*
X60745715Y-81717619D01*
X60793334Y-81812857D01*
X60793334Y-81955714D01*
X60745715Y-82050952D01*
X60698096Y-82098571D01*
X60602858Y-82146190D01*
X60221905Y-82146190D01*
X61126667Y-81622381D02*
X61745715Y-81622381D01*
X61412381Y-82003333D01*
X61555239Y-82003333D01*
X61650477Y-82050952D01*
X61698096Y-82098571D01*
X61745715Y-82193810D01*
X61745715Y-82431905D01*
X61698096Y-82527143D01*
X61650477Y-82574762D01*
X61555239Y-82622381D01*
X61269524Y-82622381D01*
X61174286Y-82574762D01*
X61126667Y-82527143D01*
X76017381Y-76747666D02*
X75541190Y-77081000D01*
X76017381Y-77319095D02*
X75017381Y-77319095D01*
X75017381Y-76938142D01*
X75065000Y-76842904D01*
X75112619Y-76795285D01*
X75207857Y-76747666D01*
X75350714Y-76747666D01*
X75445952Y-76795285D01*
X75493571Y-76842904D01*
X75541190Y-76938142D01*
X75541190Y-77319095D01*
X75350714Y-75890523D02*
X76017381Y-75890523D01*
X74969762Y-76128619D02*
X75684048Y-76366714D01*
X75684048Y-75747666D01*
X59380381Y-37504666D02*
X58904190Y-37838000D01*
X59380381Y-38076095D02*
X58380381Y-38076095D01*
X58380381Y-37695142D01*
X58428000Y-37599904D01*
X58475619Y-37552285D01*
X58570857Y-37504666D01*
X58713714Y-37504666D01*
X58808952Y-37552285D01*
X58856571Y-37599904D01*
X58904190Y-37695142D01*
X58904190Y-38076095D01*
X58380381Y-36599904D02*
X58380381Y-37076095D01*
X58856571Y-37123714D01*
X58808952Y-37076095D01*
X58761333Y-36980857D01*
X58761333Y-36742761D01*
X58808952Y-36647523D01*
X58856571Y-36599904D01*
X58951810Y-36552285D01*
X59189905Y-36552285D01*
X59285143Y-36599904D01*
X59332762Y-36647523D01*
X59380381Y-36742761D01*
X59380381Y-36980857D01*
X59332762Y-37076095D01*
X59285143Y-37123714D01*
X70301381Y-83986666D02*
X69825190Y-84320000D01*
X70301381Y-84558095D02*
X69301381Y-84558095D01*
X69301381Y-84177142D01*
X69349000Y-84081904D01*
X69396619Y-84034285D01*
X69491857Y-83986666D01*
X69634714Y-83986666D01*
X69729952Y-84034285D01*
X69777571Y-84081904D01*
X69825190Y-84177142D01*
X69825190Y-84558095D01*
X69301381Y-83653333D02*
X69301381Y-82986666D01*
X70301381Y-83415238D01*
X70429381Y-88685666D02*
X69953190Y-89019000D01*
X70429381Y-89257095D02*
X69429381Y-89257095D01*
X69429381Y-88876142D01*
X69477000Y-88780904D01*
X69524619Y-88733285D01*
X69619857Y-88685666D01*
X69762714Y-88685666D01*
X69857952Y-88733285D01*
X69905571Y-88780904D01*
X69953190Y-88876142D01*
X69953190Y-89257095D01*
X69857952Y-88114238D02*
X69810333Y-88209476D01*
X69762714Y-88257095D01*
X69667476Y-88304714D01*
X69619857Y-88304714D01*
X69524619Y-88257095D01*
X69477000Y-88209476D01*
X69429381Y-88114238D01*
X69429381Y-87923761D01*
X69477000Y-87828523D01*
X69524619Y-87780904D01*
X69619857Y-87733285D01*
X69667476Y-87733285D01*
X69762714Y-87780904D01*
X69810333Y-87828523D01*
X69857952Y-87923761D01*
X69857952Y-88114238D01*
X69905571Y-88209476D01*
X69953190Y-88257095D01*
X70048429Y-88304714D01*
X70238905Y-88304714D01*
X70334143Y-88257095D01*
X70381762Y-88209476D01*
X70429381Y-88114238D01*
X70429381Y-87923761D01*
X70381762Y-87828523D01*
X70334143Y-87780904D01*
X70238905Y-87733285D01*
X70048429Y-87733285D01*
X69953190Y-87780904D01*
X69905571Y-87828523D01*
X69857952Y-87923761D01*
X89019143Y-75128381D02*
X88685809Y-74652190D01*
X88447714Y-75128381D02*
X88447714Y-74128381D01*
X88828667Y-74128381D01*
X88923905Y-74176000D01*
X88971524Y-74223619D01*
X89019143Y-74318857D01*
X89019143Y-74461714D01*
X88971524Y-74556952D01*
X88923905Y-74604571D01*
X88828667Y-74652190D01*
X88447714Y-74652190D01*
X89971524Y-75128381D02*
X89400095Y-75128381D01*
X89685809Y-75128381D02*
X89685809Y-74128381D01*
X89590571Y-74271238D01*
X89495333Y-74366476D01*
X89400095Y-74414095D01*
X90923905Y-75128381D02*
X90352476Y-75128381D01*
X90638190Y-75128381D02*
X90638190Y-74128381D01*
X90542952Y-74271238D01*
X90447714Y-74366476D01*
X90352476Y-74414095D01*
X91385381Y-81795857D02*
X90909190Y-82129191D01*
X91385381Y-82367286D02*
X90385381Y-82367286D01*
X90385381Y-81986333D01*
X90433000Y-81891095D01*
X90480619Y-81843476D01*
X90575857Y-81795857D01*
X90718714Y-81795857D01*
X90813952Y-81843476D01*
X90861571Y-81891095D01*
X90909190Y-81986333D01*
X90909190Y-82367286D01*
X91385381Y-80843476D02*
X91385381Y-81414905D01*
X91385381Y-81129191D02*
X90385381Y-81129191D01*
X90528238Y-81224429D01*
X90623476Y-81319667D01*
X90671095Y-81414905D01*
X90480619Y-80462524D02*
X90433000Y-80414905D01*
X90385381Y-80319667D01*
X90385381Y-80081571D01*
X90433000Y-79986333D01*
X90480619Y-79938714D01*
X90575857Y-79891095D01*
X90671095Y-79891095D01*
X90813952Y-79938714D01*
X91385381Y-80510143D01*
X91385381Y-79891095D01*
X49840381Y-56641905D02*
X50649905Y-56641905D01*
X50745143Y-56594286D01*
X50792762Y-56546667D01*
X50840381Y-56451429D01*
X50840381Y-56260952D01*
X50792762Y-56165714D01*
X50745143Y-56118095D01*
X50649905Y-56070476D01*
X49840381Y-56070476D01*
X49935619Y-55641905D02*
X49888000Y-55594286D01*
X49840381Y-55499048D01*
X49840381Y-55260952D01*
X49888000Y-55165714D01*
X49935619Y-55118095D01*
X50030857Y-55070476D01*
X50126095Y-55070476D01*
X50268952Y-55118095D01*
X50840381Y-55689524D01*
X50840381Y-55070476D01*
X55350381Y-43814905D02*
X56159905Y-43814905D01*
X56255143Y-43767286D01*
X56302762Y-43719667D01*
X56350381Y-43624429D01*
X56350381Y-43433952D01*
X56302762Y-43338714D01*
X56255143Y-43291095D01*
X56159905Y-43243476D01*
X55350381Y-43243476D01*
X55350381Y-42862524D02*
X55350381Y-42243476D01*
X55731333Y-42576810D01*
X55731333Y-42433952D01*
X55778952Y-42338714D01*
X55826571Y-42291095D01*
X55921810Y-42243476D01*
X56159905Y-42243476D01*
X56255143Y-42291095D01*
X56302762Y-42338714D01*
X56350381Y-42433952D01*
X56350381Y-42719667D01*
X56302762Y-42814905D01*
X56255143Y-42862524D01*
X105160381Y-30352905D02*
X105969905Y-30352905D01*
X106065143Y-30305286D01*
X106112762Y-30257667D01*
X106160381Y-30162429D01*
X106160381Y-29971952D01*
X106112762Y-29876714D01*
X106065143Y-29829095D01*
X105969905Y-29781476D01*
X105160381Y-29781476D01*
X105588952Y-29162429D02*
X105541333Y-29257667D01*
X105493714Y-29305286D01*
X105398476Y-29352905D01*
X105350857Y-29352905D01*
X105255619Y-29305286D01*
X105208000Y-29257667D01*
X105160381Y-29162429D01*
X105160381Y-28971952D01*
X105208000Y-28876714D01*
X105255619Y-28829095D01*
X105350857Y-28781476D01*
X105398476Y-28781476D01*
X105493714Y-28829095D01*
X105541333Y-28876714D01*
X105588952Y-28971952D01*
X105588952Y-29162429D01*
X105636571Y-29257667D01*
X105684190Y-29305286D01*
X105779429Y-29352905D01*
X105969905Y-29352905D01*
X106065143Y-29305286D01*
X106112762Y-29257667D01*
X106160381Y-29162429D01*
X106160381Y-28971952D01*
X106112762Y-28876714D01*
X106065143Y-28829095D01*
X105969905Y-28781476D01*
X105779429Y-28781476D01*
X105684190Y-28829095D01*
X105636571Y-28876714D01*
X105588952Y-28971952D01*
X121782381Y-58571905D02*
X122591905Y-58571905D01*
X122687143Y-58524286D01*
X122734762Y-58476667D01*
X122782381Y-58381429D01*
X122782381Y-58190952D01*
X122734762Y-58095714D01*
X122687143Y-58048095D01*
X122591905Y-58000476D01*
X121782381Y-58000476D01*
X122782381Y-57476667D02*
X122782381Y-57286191D01*
X122734762Y-57190952D01*
X122687143Y-57143333D01*
X122544286Y-57048095D01*
X122353810Y-57000476D01*
X121972857Y-57000476D01*
X121877619Y-57048095D01*
X121830000Y-57095714D01*
X121782381Y-57190952D01*
X121782381Y-57381429D01*
X121830000Y-57476667D01*
X121877619Y-57524286D01*
X121972857Y-57571905D01*
X122210952Y-57571905D01*
X122306190Y-57524286D01*
X122353810Y-57476667D01*
X122401429Y-57381429D01*
X122401429Y-57190952D01*
X122353810Y-57095714D01*
X122306190Y-57048095D01*
X122210952Y-57000476D01*
X62079190Y-65627191D02*
X62555381Y-65627191D01*
X61555381Y-65960524D02*
X62079190Y-65627191D01*
X61555381Y-65293857D01*
X62555381Y-64436714D02*
X62555381Y-65008143D01*
X62555381Y-64722429D02*
X61555381Y-64722429D01*
X61698238Y-64817667D01*
X61793476Y-64912905D01*
X61841095Y-65008143D01*
X49152381Y-47793333D02*
X49866667Y-47793333D01*
X50009524Y-47840953D01*
X50104762Y-47936191D01*
X50152381Y-48079048D01*
X50152381Y-48174286D01*
X50152381Y-46793333D02*
X50152381Y-47364762D01*
X50152381Y-47079048D02*
X49152381Y-47079048D01*
X49295238Y-47174286D01*
X49390476Y-47269524D01*
X49438095Y-47364762D01*
X61571143Y-35059857D02*
X61618762Y-35107476D01*
X61666381Y-35250333D01*
X61666381Y-35345571D01*
X61618762Y-35488429D01*
X61523524Y-35583667D01*
X61428286Y-35631286D01*
X61237810Y-35678905D01*
X61094952Y-35678905D01*
X60904476Y-35631286D01*
X60809238Y-35583667D01*
X60714000Y-35488429D01*
X60666381Y-35345571D01*
X60666381Y-35250333D01*
X60714000Y-35107476D01*
X60761619Y-35059857D01*
X61666381Y-34107476D02*
X61666381Y-34678905D01*
X61666381Y-34393191D02*
X60666381Y-34393191D01*
X60809238Y-34488429D01*
X60904476Y-34583667D01*
X60952095Y-34678905D01*
X60666381Y-33774143D02*
X60666381Y-33155095D01*
X61047333Y-33488429D01*
X61047333Y-33345571D01*
X61094952Y-33250333D01*
X61142571Y-33202714D01*
X61237810Y-33155095D01*
X61475905Y-33155095D01*
X61571143Y-33202714D01*
X61618762Y-33250333D01*
X61666381Y-33345571D01*
X61666381Y-33631286D01*
X61618762Y-33726524D01*
X61571143Y-33774143D01*
X65555905Y-33218381D02*
X65555905Y-32218381D01*
X65794000Y-32218381D01*
X65936858Y-32266000D01*
X66032096Y-32361238D01*
X66079715Y-32456476D01*
X66127334Y-32646952D01*
X66127334Y-32789810D01*
X66079715Y-32980286D01*
X66032096Y-33075524D01*
X65936858Y-33170762D01*
X65794000Y-33218381D01*
X65555905Y-33218381D01*
X66984477Y-32218381D02*
X66794000Y-32218381D01*
X66698762Y-32266000D01*
X66651143Y-32313619D01*
X66555905Y-32456476D01*
X66508286Y-32646952D01*
X66508286Y-33027905D01*
X66555905Y-33123143D01*
X66603524Y-33170762D01*
X66698762Y-33218381D01*
X66889239Y-33218381D01*
X66984477Y-33170762D01*
X67032096Y-33123143D01*
X67079715Y-33027905D01*
X67079715Y-32789810D01*
X67032096Y-32694571D01*
X66984477Y-32646952D01*
X66889239Y-32599333D01*
X66698762Y-32599333D01*
X66603524Y-32646952D01*
X66555905Y-32694571D01*
X66508286Y-32789810D01*
X92829143Y-44648381D02*
X92495809Y-44172190D01*
X92257714Y-44648381D02*
X92257714Y-43648381D01*
X92638667Y-43648381D01*
X92733905Y-43696000D01*
X92781524Y-43743619D01*
X92829143Y-43838857D01*
X92829143Y-43981714D01*
X92781524Y-44076952D01*
X92733905Y-44124571D01*
X92638667Y-44172190D01*
X92257714Y-44172190D01*
X93781524Y-44648381D02*
X93210095Y-44648381D01*
X93495809Y-44648381D02*
X93495809Y-43648381D01*
X93400571Y-43791238D01*
X93305333Y-43886476D01*
X93210095Y-43934095D01*
X94257714Y-44648381D02*
X94448190Y-44648381D01*
X94543429Y-44600762D01*
X94591048Y-44553143D01*
X94686286Y-44410286D01*
X94733905Y-44219810D01*
X94733905Y-43838857D01*
X94686286Y-43743619D01*
X94638667Y-43696000D01*
X94543429Y-43648381D01*
X94352952Y-43648381D01*
X94257714Y-43696000D01*
X94210095Y-43743619D01*
X94162476Y-43838857D01*
X94162476Y-44076952D01*
X94210095Y-44172190D01*
X94257714Y-44219810D01*
X94352952Y-44267429D01*
X94543429Y-44267429D01*
X94638667Y-44219810D01*
X94686286Y-44172190D01*
X94733905Y-44076952D01*
X101338143Y-56205381D02*
X101004809Y-55729190D01*
X100766714Y-56205381D02*
X100766714Y-55205381D01*
X101147667Y-55205381D01*
X101242905Y-55253000D01*
X101290524Y-55300619D01*
X101338143Y-55395857D01*
X101338143Y-55538714D01*
X101290524Y-55633952D01*
X101242905Y-55681571D01*
X101147667Y-55729190D01*
X100766714Y-55729190D01*
X101719095Y-55300619D02*
X101766714Y-55253000D01*
X101861952Y-55205381D01*
X102100048Y-55205381D01*
X102195286Y-55253000D01*
X102242905Y-55300619D01*
X102290524Y-55395857D01*
X102290524Y-55491095D01*
X102242905Y-55633952D01*
X101671476Y-56205381D01*
X102290524Y-56205381D01*
X103242905Y-56205381D02*
X102671476Y-56205381D01*
X102957190Y-56205381D02*
X102957190Y-55205381D01*
X102861952Y-55348238D01*
X102766714Y-55443476D01*
X102671476Y-55491095D01*
X76231762Y-24082619D02*
X76136524Y-24035000D01*
X76041286Y-23939762D01*
X75898429Y-23796905D01*
X75803190Y-23749286D01*
X75707952Y-23749286D01*
X75755571Y-23987381D02*
X75660333Y-23939762D01*
X75565095Y-23844524D01*
X75517476Y-23654048D01*
X75517476Y-23320714D01*
X75565095Y-23130238D01*
X75660333Y-23035000D01*
X75755571Y-22987381D01*
X75946048Y-22987381D01*
X76041286Y-23035000D01*
X76136524Y-23130238D01*
X76184143Y-23320714D01*
X76184143Y-23654048D01*
X76136524Y-23844524D01*
X76041286Y-23939762D01*
X75946048Y-23987381D01*
X75755571Y-23987381D01*
X77088905Y-22987381D02*
X76612714Y-22987381D01*
X76565095Y-23463571D01*
X76612714Y-23415952D01*
X76707952Y-23368333D01*
X76946048Y-23368333D01*
X77041286Y-23415952D01*
X77088905Y-23463571D01*
X77136524Y-23558810D01*
X77136524Y-23796905D01*
X77088905Y-23892143D01*
X77041286Y-23939762D01*
X76946048Y-23987381D01*
X76707952Y-23987381D01*
X76612714Y-23939762D01*
X76565095Y-23892143D01*
X71334334Y-74620381D02*
X71001000Y-74144190D01*
X70762905Y-74620381D02*
X70762905Y-73620381D01*
X71143858Y-73620381D01*
X71239096Y-73668000D01*
X71286715Y-73715619D01*
X71334334Y-73810857D01*
X71334334Y-73953714D01*
X71286715Y-74048952D01*
X71239096Y-74096571D01*
X71143858Y-74144190D01*
X70762905Y-74144190D01*
X72191477Y-73620381D02*
X72001000Y-73620381D01*
X71905762Y-73668000D01*
X71858143Y-73715619D01*
X71762905Y-73858476D01*
X71715286Y-74048952D01*
X71715286Y-74429905D01*
X71762905Y-74525143D01*
X71810524Y-74572762D01*
X71905762Y-74620381D01*
X72096239Y-74620381D01*
X72191477Y-74572762D01*
X72239096Y-74525143D01*
X72286715Y-74429905D01*
X72286715Y-74191810D01*
X72239096Y-74096571D01*
X72191477Y-74048952D01*
X72096239Y-74001333D01*
X71905762Y-74001333D01*
X71810524Y-74048952D01*
X71762905Y-74096571D01*
X71715286Y-74191810D01*
X57523143Y-80390381D02*
X57189809Y-79914190D01*
X56951714Y-80390381D02*
X56951714Y-79390381D01*
X57332667Y-79390381D01*
X57427905Y-79438000D01*
X57475524Y-79485619D01*
X57523143Y-79580857D01*
X57523143Y-79723714D01*
X57475524Y-79818952D01*
X57427905Y-79866571D01*
X57332667Y-79914190D01*
X56951714Y-79914190D01*
X58475524Y-80390381D02*
X57904095Y-80390381D01*
X58189809Y-80390381D02*
X58189809Y-79390381D01*
X58094571Y-79533238D01*
X57999333Y-79628476D01*
X57904095Y-79676095D01*
X58808857Y-79390381D02*
X59427905Y-79390381D01*
X59094571Y-79771333D01*
X59237429Y-79771333D01*
X59332667Y-79818952D01*
X59380286Y-79866571D01*
X59427905Y-79961810D01*
X59427905Y-80199905D01*
X59380286Y-80295143D01*
X59332667Y-80342762D01*
X59237429Y-80390381D01*
X58951714Y-80390381D01*
X58856476Y-80342762D01*
X58808857Y-80295143D01*
X92321143Y-75001381D02*
X91987809Y-74525190D01*
X91749714Y-75001381D02*
X91749714Y-74001381D01*
X92130667Y-74001381D01*
X92225905Y-74049000D01*
X92273524Y-74096619D01*
X92321143Y-74191857D01*
X92321143Y-74334714D01*
X92273524Y-74429952D01*
X92225905Y-74477571D01*
X92130667Y-74525190D01*
X91749714Y-74525190D01*
X92702095Y-74096619D02*
X92749714Y-74049000D01*
X92844952Y-74001381D01*
X93083048Y-74001381D01*
X93178286Y-74049000D01*
X93225905Y-74096619D01*
X93273524Y-74191857D01*
X93273524Y-74287095D01*
X93225905Y-74429952D01*
X92654476Y-75001381D01*
X93273524Y-75001381D01*
X94178286Y-74001381D02*
X93702095Y-74001381D01*
X93654476Y-74477571D01*
X93702095Y-74429952D01*
X93797333Y-74382333D01*
X94035429Y-74382333D01*
X94130667Y-74429952D01*
X94178286Y-74477571D01*
X94225905Y-74572810D01*
X94225905Y-74810905D01*
X94178286Y-74906143D01*
X94130667Y-74953762D01*
X94035429Y-75001381D01*
X93797333Y-75001381D01*
X93702095Y-74953762D01*
X93654476Y-74906143D01*
X88717381Y-85351857D02*
X88241190Y-85685191D01*
X88717381Y-85923286D02*
X87717381Y-85923286D01*
X87717381Y-85542333D01*
X87765000Y-85447095D01*
X87812619Y-85399476D01*
X87907857Y-85351857D01*
X88050714Y-85351857D01*
X88145952Y-85399476D01*
X88193571Y-85447095D01*
X88241190Y-85542333D01*
X88241190Y-85923286D01*
X87812619Y-84970905D02*
X87765000Y-84923286D01*
X87717381Y-84828048D01*
X87717381Y-84589952D01*
X87765000Y-84494714D01*
X87812619Y-84447095D01*
X87907857Y-84399476D01*
X88003095Y-84399476D01*
X88145952Y-84447095D01*
X88717381Y-85018524D01*
X88717381Y-84399476D01*
X87717381Y-83542333D02*
X87717381Y-83732810D01*
X87765000Y-83828048D01*
X87812619Y-83875667D01*
X87955476Y-83970905D01*
X88145952Y-84018524D01*
X88526905Y-84018524D01*
X88622143Y-83970905D01*
X88669762Y-83923286D01*
X88717381Y-83828048D01*
X88717381Y-83637571D01*
X88669762Y-83542333D01*
X88622143Y-83494714D01*
X88526905Y-83447095D01*
X88288810Y-83447095D01*
X88193571Y-83494714D01*
X88145952Y-83542333D01*
X88098333Y-83637571D01*
X88098333Y-83828048D01*
X88145952Y-83923286D01*
X88193571Y-83970905D01*
X88288810Y-84018524D01*
X64635143Y-27248381D02*
X64301809Y-26772190D01*
X64063714Y-27248381D02*
X64063714Y-26248381D01*
X64444667Y-26248381D01*
X64539905Y-26296000D01*
X64587524Y-26343619D01*
X64635143Y-26438857D01*
X64635143Y-26581714D01*
X64587524Y-26676952D01*
X64539905Y-26724571D01*
X64444667Y-26772190D01*
X64063714Y-26772190D01*
X65016095Y-26343619D02*
X65063714Y-26296000D01*
X65158952Y-26248381D01*
X65397048Y-26248381D01*
X65492286Y-26296000D01*
X65539905Y-26343619D01*
X65587524Y-26438857D01*
X65587524Y-26534095D01*
X65539905Y-26676952D01*
X64968476Y-27248381D01*
X65587524Y-27248381D01*
X66158952Y-26676952D02*
X66063714Y-26629333D01*
X66016095Y-26581714D01*
X65968476Y-26486476D01*
X65968476Y-26438857D01*
X66016095Y-26343619D01*
X66063714Y-26296000D01*
X66158952Y-26248381D01*
X66349429Y-26248381D01*
X66444667Y-26296000D01*
X66492286Y-26343619D01*
X66539905Y-26438857D01*
X66539905Y-26486476D01*
X66492286Y-26581714D01*
X66444667Y-26629333D01*
X66349429Y-26676952D01*
X66158952Y-26676952D01*
X66063714Y-26724571D01*
X66016095Y-26772190D01*
X65968476Y-26867429D01*
X65968476Y-27057905D01*
X66016095Y-27153143D01*
X66063714Y-27200762D01*
X66158952Y-27248381D01*
X66349429Y-27248381D01*
X66444667Y-27200762D01*
X66492286Y-27153143D01*
X66539905Y-27057905D01*
X66539905Y-26867429D01*
X66492286Y-26772190D01*
X66444667Y-26724571D01*
X66349429Y-26676952D01*
X70738381Y-26804857D02*
X70262190Y-27138191D01*
X70738381Y-27376286D02*
X69738381Y-27376286D01*
X69738381Y-26995333D01*
X69786000Y-26900095D01*
X69833619Y-26852476D01*
X69928857Y-26804857D01*
X70071714Y-26804857D01*
X70166952Y-26852476D01*
X70214571Y-26900095D01*
X70262190Y-26995333D01*
X70262190Y-27376286D01*
X69833619Y-26423905D02*
X69786000Y-26376286D01*
X69738381Y-26281048D01*
X69738381Y-26042952D01*
X69786000Y-25947714D01*
X69833619Y-25900095D01*
X69928857Y-25852476D01*
X70024095Y-25852476D01*
X70166952Y-25900095D01*
X70738381Y-26471524D01*
X70738381Y-25852476D01*
X70738381Y-25376286D02*
X70738381Y-25185810D01*
X70690762Y-25090571D01*
X70643143Y-25042952D01*
X70500286Y-24947714D01*
X70309810Y-24900095D01*
X69928857Y-24900095D01*
X69833619Y-24947714D01*
X69786000Y-24995333D01*
X69738381Y-25090571D01*
X69738381Y-25281048D01*
X69786000Y-25376286D01*
X69833619Y-25423905D01*
X69928857Y-25471524D01*
X70166952Y-25471524D01*
X70262190Y-25423905D01*
X70309810Y-25376286D01*
X70357429Y-25281048D01*
X70357429Y-25090571D01*
X70309810Y-24995333D01*
X70262190Y-24947714D01*
X70166952Y-24900095D01*
X68318143Y-36519381D02*
X67984809Y-36043190D01*
X67746714Y-36519381D02*
X67746714Y-35519381D01*
X68127667Y-35519381D01*
X68222905Y-35567000D01*
X68270524Y-35614619D01*
X68318143Y-35709857D01*
X68318143Y-35852714D01*
X68270524Y-35947952D01*
X68222905Y-35995571D01*
X68127667Y-36043190D01*
X67746714Y-36043190D01*
X68651476Y-35519381D02*
X69270524Y-35519381D01*
X68937190Y-35900333D01*
X69080048Y-35900333D01*
X69175286Y-35947952D01*
X69222905Y-35995571D01*
X69270524Y-36090810D01*
X69270524Y-36328905D01*
X69222905Y-36424143D01*
X69175286Y-36471762D01*
X69080048Y-36519381D01*
X68794333Y-36519381D01*
X68699095Y-36471762D01*
X68651476Y-36424143D01*
X70222905Y-36519381D02*
X69651476Y-36519381D01*
X69937190Y-36519381D02*
X69937190Y-35519381D01*
X69841952Y-35662238D01*
X69746714Y-35757476D01*
X69651476Y-35805095D01*
X66492381Y-56237095D02*
X65492381Y-56237095D01*
X65492381Y-55999000D01*
X65540000Y-55856142D01*
X65635238Y-55760904D01*
X65730476Y-55713285D01*
X65920952Y-55665666D01*
X66063810Y-55665666D01*
X66254286Y-55713285D01*
X66349524Y-55760904D01*
X66444762Y-55856142D01*
X66492381Y-55999000D01*
X66492381Y-56237095D01*
X65492381Y-55332333D02*
X65492381Y-54665666D01*
X66492381Y-55094238D01*
M02*
