<?xml version="1.0" standalone="no"?>
 <!DOCTYPE svg PUBLIC "-//W3C//DTD SVG 1.1//EN" 
 "http://www.w3.org/Graphics/SVG/1.1/DTD/svg11.dtd"> 
<svg xmlns="http://www.w3.org/2000/svg" version="1.1" 
    width="29.7002cm" height="21.0007cm" viewBox="0 0 116930 82680 ">
<title>SVG Picture created as bake-F.Cu.svg date 2018/01/01 15:35:07 </title>
  <desc>Picture generated by PCBNEW </desc>
<g style="fill:#000000; fill-opacity:1;stroke:#000000; stroke-opacity:1;
stroke-linecap:round; stroke-linejoin:round; "
 transform="translate(0 0) scale(1 1)">
</g>
<g style="fill:#000000; fill-opacity:0.0; 
stroke:#000000; stroke-width:-0.000393701; stroke-opacity:1; 
stroke-linecap:round; stroke-linejoin:round;">
</g>
<g style="fill:#000000; fill-opacity:0.0; 
stroke:#000000; stroke-width:59.0551; stroke-opacity:1; 
stroke-linecap:round; stroke-linejoin:round;">
<path d="M57284 42716
L71260 42716
" />
<path d="M57284 34842
L57284 42716
" />
<path d="M71260 34842
L57284 34842
" />
<path d="M71260 42716
L71260 34842
" />
</g>
<g style="fill:#000000; fill-opacity:0.0; 
stroke:#000000; stroke-width:0; stroke-opacity:1; 
stroke-linecap:round; stroke-linejoin:round;">
</g>
<g style="fill:#000000; fill-opacity:1.0; 
stroke:#000000; stroke-width:0; stroke-opacity:1; 
stroke-linecap:round; stroke-linejoin:round;">
<polyline style="fill-rule:evenodd;"
points="66376,37587
66376,37409
65805,37409
65805,37587
66376,37587
" /> 
<polyline style="fill-rule:evenodd;"
points="66376,37842
66376,37665
65805,37665
65805,37842
66376,37842
" /> 
<polyline style="fill-rule:evenodd;"
points="66376,38098
66376,37921
65805,37921
65805,38098
66376,38098
" /> 
<polyline style="fill-rule:evenodd;"
points="66376,38354
66376,38177
65805,38177
65805,38354
66376,38354
" /> 
<polyline style="fill-rule:evenodd;"
points="66376,38610
66376,38433
65805,38433
65805,38610
66376,38610
" /> 
<polyline style="fill-rule:evenodd;"
points="66376,38866
66376,38689
65805,38689
65805,38866
66376,38866
" /> 
<polyline style="fill-rule:evenodd;"
points="66376,39122
66376,38945
65805,38945
65805,39122
66376,39122
" /> 
<polyline style="fill-rule:evenodd;"
points="66376,39378
66376,39201
65805,39201
65805,39378
66376,39378
" /> 
<polyline style="fill-rule:evenodd;"
points="66376,39634
66376,39457
65805,39457
65805,39634
66376,39634
" /> 
<polyline style="fill-rule:evenodd;"
points="66376,39890
66376,39712
65805,39712
65805,39890
66376,39890
" /> 
<polyline style="fill-rule:evenodd;"
points="64054,39890
64054,39712
63483,39712
63483,39890
64054,39890
" /> 
<polyline style="fill-rule:evenodd;"
points="64054,39634
64054,39457
63483,39457
63483,39634
64054,39634
" /> 
<polyline style="fill-rule:evenodd;"
points="64054,39378
64054,39201
63483,39201
63483,39378
64054,39378
" /> 
<polyline style="fill-rule:evenodd;"
points="64054,39122
64054,38945
63483,38945
63483,39122
64054,39122
" /> 
<polyline style="fill-rule:evenodd;"
points="64054,38866
64054,38689
63483,38689
63483,38866
64054,38866
" /> 
<polyline style="fill-rule:evenodd;"
points="64054,38610
64054,38433
63483,38433
63483,38610
64054,38610
" /> 
<polyline style="fill-rule:evenodd;"
points="64054,38354
64054,38177
63483,38177
63483,38354
64054,38354
" /> 
<polyline style="fill-rule:evenodd;"
points="64054,38098
64054,37921
63483,37921
63483,38098
64054,38098
" /> 
<polyline style="fill-rule:evenodd;"
points="64054,37842
64054,37665
63483,37665
63483,37842
64054,37842
" /> 
<polyline style="fill-rule:evenodd;"
points="64054,37587
64054,37409
63483,37409
63483,37587
64054,37587
" /> 
<polyline style="fill-rule:evenodd;"
points="67482,40060
67777,40060
67777,39587
67482,39587
67482,40060
" /> 
<polyline style="fill-rule:evenodd;"
points="67482,39312
67777,39312
67777,38839
67482,38839
67482,39312
" /> 
</g>
<g style="fill:#000000; fill-opacity:1.0; 
stroke:#000000; stroke-width:787; stroke-opacity:1; 
stroke-linecap:round; stroke-linejoin:round;">
</g>
<g style="fill:#000000; fill-opacity:0.0; 
stroke:#000000; stroke-width:787; stroke-opacity:1; 
stroke-linecap:round; stroke-linejoin:round;">
<path d="M67630 41650
L67630 41650
" />
</g>
<g style="fill:#000000; fill-opacity:0.0; 
stroke:#000000; stroke-width:0; stroke-opacity:1; 
stroke-linecap:round; stroke-linejoin:round;">
</g>
<g style="fill:#000000; fill-opacity:1.0; 
stroke:#000000; stroke-width:0; stroke-opacity:1; 
stroke-linecap:round; stroke-linejoin:round;">
<polyline style="fill-rule:evenodd;"
points="69023,42043
69023,41256
68236,41256
68236,42043
69023,42043
" /> 
</g>
<g style="fill:#000000; fill-opacity:1.0; 
stroke:#000000; stroke-width:787; stroke-opacity:1; 
stroke-linecap:round; stroke-linejoin:round;">
</g>
<g style="fill:#000000; fill-opacity:0.0; 
stroke:#000000; stroke-width:787; stroke-opacity:1; 
stroke-linecap:round; stroke-linejoin:round;">
<path d="M64380 35850
L64380 35850
" />
</g>
<g style="fill:#000000; fill-opacity:0.0; 
stroke:#000000; stroke-width:0; stroke-opacity:1; 
stroke-linecap:round; stroke-linejoin:round;">
</g>
<g style="fill:#000000; fill-opacity:1.0; 
stroke:#000000; stroke-width:0; stroke-opacity:1; 
stroke-linecap:round; stroke-linejoin:round;">
<polyline style="fill-rule:evenodd;"
points="65773,36243
65773,35456
64986,35456
64986,36243
65773,36243
" /> 
</g>
<g style="fill:#000000; fill-opacity:1.0; 
stroke:#000000; stroke-width:787; stroke-opacity:1; 
stroke-linecap:round; stroke-linejoin:round;">
</g>
<g style="fill:#000000; fill-opacity:0.0; 
stroke:#000000; stroke-width:787; stroke-opacity:1; 
stroke-linecap:round; stroke-linejoin:round;">
<path d="M67780 35850
L67780 35850
" />
</g>
<g style="fill:#000000; fill-opacity:0.0; 
stroke:#000000; stroke-width:0; stroke-opacity:1; 
stroke-linecap:round; stroke-linejoin:round;">
</g>
<g style="fill:#000000; fill-opacity:1.0; 
stroke:#000000; stroke-width:0; stroke-opacity:1; 
stroke-linecap:round; stroke-linejoin:round;">
<polyline style="fill-rule:evenodd;"
points="69173,36243
69173,35456
68386,35456
68386,36243
69173,36243
" /> 
<polyline style="fill-rule:evenodd;"
points="61894,40483
61894,40168
61146,40168
61146,40483
61894,40483
" /> 
<polyline style="fill-rule:evenodd;"
points="61894,41231
61894,40916
61146,40916
61146,41231
61894,41231
" /> 
<polyline style="fill-rule:evenodd;"
points="60713,40857
60713,40542
59965,40542
59965,40857
60713,40857
" /> 
<polyline style="fill-rule:evenodd;"
points="64744,40833
64744,40518
63996,40518
63996,40833
64744,40833
" /> 
<polyline style="fill-rule:evenodd;"
points="64744,41581
64744,41266
63996,41266
63996,41581
64744,41581
" /> 
<polyline style="fill-rule:evenodd;"
points="63563,41207
63563,40892
62815,40892
62815,41207
63563,41207
" /> 
<polyline style="fill-rule:evenodd;"
points="59728,38344
59728,38855
60318,38855
60318,38344
59728,38344
" /> 
<polyline style="fill-rule:evenodd;"
points="60791,38344
60791,38855
61381,38855
61381,38344
60791,38344
" /> 
<polyline style="fill-rule:evenodd;"
points="59728,37419
59728,37930
60318,37930
60318,37419
59728,37419
" /> 
<polyline style="fill-rule:evenodd;"
points="60791,37419
60791,37930
61381,37930
61381,37419
60791,37419
" /> 
</g>
<g style="fill:#000000; fill-opacity:1.0; 
stroke:#000000; stroke-width:787; stroke-opacity:1; 
stroke-linecap:round; stroke-linejoin:round;">
</g>
<g style="fill:#000000; fill-opacity:0.0; 
stroke:#000000; stroke-width:787; stroke-opacity:1; 
stroke-linecap:round; stroke-linejoin:round;">
<path d="M70180 37400
L70180 37400
" />
</g>
<g style="fill:#000000; fill-opacity:0.0; 
stroke:#000000; stroke-width:0; stroke-opacity:1; 
stroke-linecap:round; stroke-linejoin:round;">
</g>
<g style="fill:#000000; fill-opacity:1.0; 
stroke:#000000; stroke-width:0; stroke-opacity:1; 
stroke-linecap:round; stroke-linejoin:round;">
<polyline style="fill-rule:evenodd;"
points="70573,40006
69786,40006
69786,40793
70573,40793
70573,40006
" /> 
</g>
<g style="fill:#000000; fill-opacity:1.0; 
stroke:#000000; stroke-width:787; stroke-opacity:1; 
stroke-linecap:round; stroke-linejoin:round;">
</g>
<g style="fill:#000000; fill-opacity:0.0; 
stroke:#000000; stroke-width:787; stroke-opacity:1; 
stroke-linecap:round; stroke-linejoin:round;">
<path d="M70180 39400
L70180 39400
" />
<path d="M70180 38400
L70180 38400
" />
<path d="M58080 38650
L58080 38650
" />
</g>
<g style="fill:#000000; fill-opacity:0.0; 
stroke:#000000; stroke-width:0; stroke-opacity:1; 
stroke-linecap:round; stroke-linejoin:round;">
</g>
<g style="fill:#000000; fill-opacity:1.0; 
stroke:#000000; stroke-width:0; stroke-opacity:1; 
stroke-linecap:round; stroke-linejoin:round;">
<polyline style="fill-rule:evenodd;"
points="58473,41256
57686,41256
57686,42043
58473,42043
58473,41256
" /> 
</g>
<g style="fill:#000000; fill-opacity:1.0; 
stroke:#000000; stroke-width:787; stroke-opacity:1; 
stroke-linecap:round; stroke-linejoin:round;">
</g>
<g style="fill:#000000; fill-opacity:0.0; 
stroke:#000000; stroke-width:787; stroke-opacity:1; 
stroke-linecap:round; stroke-linejoin:round;">
<path d="M58080 40650
L58080 40650
" />
<path d="M58080 39650
L58080 39650
" />
<path d="M58080 37650
L58080 37650
" />
<path d="M58080 36650
L58080 36650
" />
<path d="M58080 35650
L58080 35650
" />
</g>
<g style="fill:#000000; fill-opacity:0.0; 
stroke:#000000; stroke-width:196.85; stroke-opacity:1; 
stroke-linecap:round; stroke-linejoin:round;">
<path d="M70180 39400
L68478 39400
" />
<path d="M68478 39400
L68054 39824
" />
<path d="M67630 39824
L68054 39824
" />
<path d="M68630 40400
L68630 41650
" />
<path d="M68054 39824
L68630 40400
" />
</g>
<g style="fill:#000000; fill-opacity:0.0; 
stroke:#000000; stroke-width:98.4252; stroke-opacity:1; 
stroke-linecap:round; stroke-linejoin:round;">
<path d="M67630 39824
L67454 39824
" />
<path d="M66919 39289
L66091 39289
" />
<path d="M67454 39824
L66919 39289
" />
<path d="M66091 39033
L65691 39033
" />
<path d="M66650 41650
L67630 41650
" />
<path d="M65355 40354
L66650 41650
" />
<path d="M65355 39370
L65355 40354
" />
<path d="M65691 39033
L65355 39370
" />
<path d="M66091 39033
L67587 39033
" />
<path d="M67587 39033
L67630 39075
" />
<path d="M64380 35850
L64380 36887
" />
<path d="M64380 36887
L63768 37498
" />
<path d="M65380 35850
L65380 36787
" />
<path d="M65380 36787
L66091 37498
" />
<path d="M66091 37754
L66625 37754
" />
<path d="M67780 36600
L67780 35850
" />
<path d="M66625 37754
L67780 36600
" />
<path d="M67630 38400
L67030 38400
" />
</g>
<g style="fill:#000000; fill-opacity:0.0; 
stroke:#000000; stroke-width:196.85; stroke-opacity:1; 
stroke-linecap:round; stroke-linejoin:round;">
<path d="M70180 38400
L67630 38400
" />
</g>
<g style="fill:#000000; fill-opacity:0.0; 
stroke:#000000; stroke-width:98.4252; stroke-opacity:1; 
stroke-linecap:round; stroke-linejoin:round;">
<path d="M66896 38266
L66091 38266
" />
<path d="M67030 38400
L66896 38266
" />
<path d="M66091 38010
L65590 38010
" />
</g>
<g style="fill:#000000; fill-opacity:0.0; 
stroke:#000000; stroke-width:196.85; stroke-opacity:1; 
stroke-linecap:round; stroke-linejoin:round;">
<path d="M64370 37859
L64730 37500
" />
<path d="M64730 37500
L65230 37500
" />
<path d="M64370 37859
L64370 40675
" />
</g>
<g style="fill:#000000; fill-opacity:0.0; 
stroke:#000000; stroke-width:98.4252; stroke-opacity:1; 
stroke-linecap:round; stroke-linejoin:round;">
<path d="M65530 37800
L65230 37500
" />
<path d="M65530 37950
L65530 37800
" />
<path d="M65590 38010
L65530 37950
" />
<path d="M66091 38010
L67319 38010
" />
</g>
<g style="fill:#000000; fill-opacity:0.0; 
stroke:#000000; stroke-width:196.85; stroke-opacity:1; 
stroke-linecap:round; stroke-linejoin:round;">
<path d="M67880 37400
L67330 37950
" />
<path d="M67330 37950
L67330 38000
" />
<path d="M67880 37400
L70180 37400
" />
</g>
<g style="fill:#000000; fill-opacity:0.0; 
stroke:#000000; stroke-width:98.4252; stroke-opacity:1; 
stroke-linecap:round; stroke-linejoin:round;">
<path d="M67319 38010
L67330 38000
" />
<path d="M66101 38000
L66091 38010
" />
<path d="M63768 37754
L63134 37754
" />
</g>
<g style="fill:#000000; fill-opacity:0.0; 
stroke:#000000; stroke-width:196.85; stroke-opacity:1; 
stroke-linecap:round; stroke-linejoin:round;">
<path d="M61880 36500
L62930 37550
" />
<path d="M59280 36500
L61880 36500
" />
<path d="M59280 36500
L58430 35650
" />
</g>
<g style="fill:#000000; fill-opacity:0.0; 
stroke:#000000; stroke-width:98.4252; stroke-opacity:1; 
stroke-linecap:round; stroke-linejoin:round;">
<path d="M63134 37754
L62930 37550
" />
</g>
<g style="fill:#000000; fill-opacity:0.0; 
stroke:#000000; stroke-width:196.85; stroke-opacity:1; 
stroke-linecap:round; stroke-linejoin:round;">
<path d="M58080 35650
L58430 35650
" />
<path d="M62317 39787
L59392 39787
" />
<path d="M58530 40650
L58080 40650
" />
<path d="M59392 39787
L58530 40650
" />
</g>
<g style="fill:#000000; fill-opacity:0.0; 
stroke:#000000; stroke-width:98.4252; stroke-opacity:1; 
stroke-linecap:round; stroke-linejoin:round;">
<path d="M63768 39033
L63071 39033
" />
</g>
<g style="fill:#000000; fill-opacity:0.0; 
stroke:#000000; stroke-width:196.85; stroke-opacity:1; 
stroke-linecap:round; stroke-linejoin:round;">
<path d="M62317 39787
L62805 39300
" />
</g>
<g style="fill:#000000; fill-opacity:0.0; 
stroke:#000000; stroke-width:98.4252; stroke-opacity:1; 
stroke-linecap:round; stroke-linejoin:round;">
<path d="M63071 39033
L62805 39300
" />
</g>
<g style="fill:#000000; fill-opacity:0.0; 
stroke:#000000; stroke-width:196.85; stroke-opacity:1; 
stroke-linecap:round; stroke-linejoin:round;">
<path d="M62055 39325
L59005 39325
" />
<path d="M58680 39650
L58080 39650
" />
<path d="M59005 39325
L58680 39650
" />
</g>
<g style="fill:#000000; fill-opacity:0.0; 
stroke:#000000; stroke-width:98.4252; stroke-opacity:1; 
stroke-linecap:round; stroke-linejoin:round;">
<path d="M63768 38777
L62602 38777
" />
</g>
<g style="fill:#000000; fill-opacity:0.0; 
stroke:#000000; stroke-width:196.85; stroke-opacity:1; 
stroke-linecap:round; stroke-linejoin:round;">
<path d="M62055 39325
L62355 39025
" />
</g>
<g style="fill:#000000; fill-opacity:0.0; 
stroke:#000000; stroke-width:98.4252; stroke-opacity:1; 
stroke-linecap:round; stroke-linejoin:round;">
<path d="M62602 38777
L62355 39025
" />
</g>
<g style="fill:#000000; fill-opacity:0.0; 
stroke:#000000; stroke-width:196.85; stroke-opacity:1; 
stroke-linecap:round; stroke-linejoin:round;">
<path d="M58080 36650
L58580 36650
" />
<path d="M58880 36950
L61805 36950
" />
<path d="M58580 36650
L58880 36950
" />
</g>
<g style="fill:#000000; fill-opacity:0.0; 
stroke:#000000; stroke-width:98.4252; stroke-opacity:1; 
stroke-linecap:round; stroke-linejoin:round;">
<path d="M63768 38010
L62865 38010
" />
</g>
<g style="fill:#000000; fill-opacity:0.0; 
stroke:#000000; stroke-width:196.85; stroke-opacity:1; 
stroke-linecap:round; stroke-linejoin:round;">
<path d="M62865 38010
L61805 36950
" />
</g>
<g style="fill:#000000; fill-opacity:0.0; 
stroke:#000000; stroke-width:98.4252; stroke-opacity:1; 
stroke-linecap:round; stroke-linejoin:round;">
<path d="M63189 41050
L63080 41050
" />
<path d="M63080 41050
L62730 40700
" />
<path d="M62730 40700
L60339 40700
" />
</g>
<g style="fill:#000000; fill-opacity:0.0; 
stroke:#000000; stroke-width:196.85; stroke-opacity:1; 
stroke-linecap:round; stroke-linejoin:round;">
<path d="M63480 41100
L63189 41050
" />
<path d="M60339 40700
L59930 40700
" />
<path d="M58980 41650
L58080 41650
" />
<path d="M59930 40700
L58980 41650
" />
<path d="M60023 38600
L58130 38600
" />
<path d="M58130 38600
L58080 38650
" />
<path d="M60023 37675
L58105 37675
" />
<path d="M58105 37675
L58080 37650
" />
</g>
<g style="fill:#000000; fill-opacity:0.0; 
stroke:#000000; stroke-width:98.4252; stroke-opacity:1; 
stroke-linecap:round; stroke-linejoin:round;">
<path d="M63768 38522
L61807 38522
" />
<path d="M61730 38600
L61086 38600
" />
<path d="M61807 38522
L61730 38600
" />
<path d="M63768 38266
L62471 38266
" />
<path d="M61880 37675
L61086 37675
" />
<path d="M62471 38266
L61880 37675
" />
<path d="M63768 39289
L63390 39289
" />
</g>
<g style="fill:#000000; fill-opacity:0.0; 
stroke:#000000; stroke-width:196.85; stroke-opacity:1; 
stroke-linecap:round; stroke-linejoin:round;">
<path d="M62454 40325
L62930 39850
" />
<path d="M62454 40325
L61520 40325
" />
</g>
<g style="fill:#000000; fill-opacity:0.0; 
stroke:#000000; stroke-width:98.4252; stroke-opacity:1; 
stroke-linecap:round; stroke-linejoin:round;">
<path d="M62930 39750
L62930 39850
" />
<path d="M63390 39289
L62930 39750
" />
</g>
<g style="fill:#000000; fill-opacity:1.0; 
stroke:#000000; stroke-width:100; stroke-opacity:1; 
stroke-linecap:round; stroke-linejoin:round;">
<polyline style="fill-rule:evenodd;"
points="58535,35182
58674,35391
58677,35404
59424,36151
61879,36151
61880,36151
62013,36178
62050,36203
62126,36253
62126,36253
63176,37303
63232,37387
63245,37317
63300,37232
63383,37175
63483,37154
63688,37154
64080,36763
64080,36417
63912,36305
63772,36096
63723,35850
63772,35603
63912,35394
64121,35255
64367,35206
64392,35206
64638,35255
64764,35339
64803,35278
64887,35221
64986,35201
65773,35201
65866,35219
65951,35273
66008,35357
66028,35456
66028,36243
66010,36336
65956,36421
65872,36478
65773,36498
65679,36498
65679,36663
66171,37154
66376,37154
66469,37172
66554,37227
66611,37310
66617,37339
67480,36476
67480,36417
67312,36305
67172,36096
67123,35850
67172,35603
67312,35394
67521,35255
67767,35206
67792,35206
68038,35255
68164,35339
68174,35314
68244,35244
68336,35206
68667,35206
68730,35269
68730,35800
68722,35800
68722,35900
68730,35900
68730,36431
68667,36493
68336,36493
68244,36455
68174,36385
68164,36360
68079,36417
68079,36600
68056,36714
67991,36811
67681,37121
67687,37117
67746,37078
67768,37073
67880,37051
67880,37051
69645,37051
69724,36932
69933,36792
70180,36743
70426,36792
70635,36932
70774,37141
70823,37387
70823,37412
70774,37658
70635,37867
70586,37900
70635,37932
70774,38141
70823,38387
70823,38412
70774,38658
70635,38867
70586,38900
70635,38932
70774,39141
70823,39387
70823,39412
70774,39658
70690,39784
70715,39794
70785,39864
70823,39956
70823,40287
70761,40350
70230,40350
70230,40342
70130,40342
70130,40350
69599,40350
69536,40287
69536,39956
69574,39864
69644,39794
69669,39784
69645,39748
68622,39748
68546,39824
68876,40153
68951,40266
68951,40266
68978,40400
68978,40400
68978,41001
69023,41001
69116,41019
69201,41073
69258,41157
69278,41256
69278,42043
69260,42136
69206,42221
69122,42278
69023,42298
68236,42298
68143,42280
68058,42226
68015,42162
68007,42170
67779,42275
67680,42229
67680,41700
67580,41700
67580,42229
67480,42275
67252,42170
67081,41986
67004,41799
67051,41700
67580,41700
67680,41700
67687,41700
67687,41600
67680,41600
67680,41070
67580,41070
67580,41600
67051,41600
67021,41536
64994,41536
64994,41631
64956,41723
64886,41793
64794,41831
64483,41831
64420,41768
64420,41474
64320,41474
64320,41768
64258,41831
63946,41831
63854,41793
63784,41723
63746,41631
63746,41536
63809,41474
64320,41474
64420,41474
64932,41474
64994,41536
67021,41536
67004,41500
67081,41313
67252,41129
67480,41024
67580,41070
67680,41070
67779,41024
68007,41129
68015,41137
68053,41078
68137,41021
68236,41001
68281,41001
68281,40544
67966,40228
67960,40237
67876,40295
67777,40315
67482,40315
67389,40297
67304,40242
67247,40159
67227,40060
67227,40020
66795,39588
66631,39588
66631,39634
66624,39675
66631,39712
66631,39890
66614,39982
66559,40067
66476,40124
66376,40145
65805,40145
65713,40127
65628,40072
65571,39989
65551,39890
65551,39712
65558,39672
65551,39634
65551,39457
65558,39416
65551,39378
65551,39201
65556,39173
65555,39172
65555,39140
65563,39132
65568,39108
65617,39032
65571,38965
65565,38936
65555,38927
65555,38895
65556,38893
65551,38866
65551,38689
65558,38648
65551,38610
65551,38433
65558,38392
65551,38354
65551,38301
65475,38286
65378,38221
65318,38161
65253,38064
65230,37950
65230,37923
65155,37848
64874,37848
64718,38003
64718,40263
64744,40263
64837,40281
64922,40335
64979,40419
64999,40518
64999,40833
64982,40926
64927,41011
64872,41048
64886,41054
64956,41124
64994,41216
64994,41311
64932,41374
64420,41374
64420,41366
64320,41366
64320,41374
63809,41374
63775,41340
63746,41385
63662,41442
63563,41462
62815,41462
62722,41444
62637,41390
62580,41306
62560,41207
62560,41186
62144,41186
62144,41281
62106,41373
62036,41443
61944,41481
61633,41481
61570,41418
61570,41124
61470,41124
61470,41418
61408,41481
61096,41481
61004,41443
60934,41373
60896,41281
60896,41186
60959,41124
61470,41124
61570,41124
62082,41124
62144,41186
62560,41186
62560,40999
62106,40999
62082,41024
61570,41024
61570,41016
61470,41016
61470,41024
60959,41024
60934,40999
60919,40999
60896,41035
60812,41092
60713,41112
60010,41112
59226,41896
59226,41896
59113,41971
58980,41998
58728,41998
58728,42043
58710,42136
58656,42221
58572,42278
58473,42298
57686,42298
57593,42280
57563,42261
57563,42437
70981,42437
70981,40512
70823,40512
70823,40843
70785,40935
70715,41005
70623,41043
70292,41043
70230,40981
70230,40450
70130,40450
70130,40981
70067,41043
69736,41043
69644,41005
69574,40935
69536,40843
69536,40512
69599,40450
70130,40450
70230,40450
70761,40450
70823,40512
70981,40512
70981,35962
69423,35962
69423,36293
69385,36385
69315,36455
69223,36493
68892,36493
68830,36431
68830,35900
69361,35900
69423,35962
70981,35962
70981,35406
69423,35406
69423,35737
69361,35800
68830,35800
68830,35269
68892,35206
69223,35206
69315,35244
69385,35314
69423,35406
70981,35406
70981,35122
58444,35122
58535,35182
" /> 
<polyline style="fill-rule:evenodd;"
points="66631,38610
66624,38651
66631,38689
66631,38866
66626,38894
66626,38895
66626,38927
66618,38935
66614,38959
66598,38983
66626,38983
66626,38990
66919,38990
67034,39013
67131,39078
67236,39183
67294,39125
67580,39125
67580,39133
67680,39133
67680,39125
67965,39125
68027,39188
68027,39357
68231,39153
68250,39141
68344,39078
68366,39073
68478,39051
68478,39051
69645,39051
69724,38932
69773,38900
69724,38867
69645,38748
68010,38748
68027,38790
68027,38963
67965,39025
67680,39025
67680,39018
67580,39018
67580,39025
67294,39025
67232,38963
67232,38790
67269,38699
67030,38699
66915,38676
66818,38611
66772,38565
66631,38565
66631,38610
" /> 
</g>
<g style="fill:#FFFFFF; fill-opacity:1.0; 
stroke:#FFFFFF; stroke-width:100; stroke-opacity:1; 
stroke-linecap:round; stroke-linejoin:round;">
</g>
<g style="fill:#FFFFFF; fill-opacity:1.0; 
stroke:#FFFFFF; stroke-width:0; stroke-opacity:1; 
stroke-linecap:round; stroke-linejoin:round;">
<circle cx="67630" cy="41650" r="216" /> 
</g>
<g style="fill:#FFFFFF; fill-opacity:1.0; 
stroke:#FFFFFF; stroke-width:39.3701; stroke-opacity:1; 
stroke-linecap:round; stroke-linejoin:round;">
</g>
<g style="fill:#FFFFFF; fill-opacity:1.0; 
stroke:#FFFFFF; stroke-width:0; stroke-opacity:1; 
stroke-linecap:round; stroke-linejoin:round;">
<circle cx="68630" cy="41650" r="216" /> 
</g>
<g style="fill:#FFFFFF; fill-opacity:1.0; 
stroke:#FFFFFF; stroke-width:39.3701; stroke-opacity:1; 
stroke-linecap:round; stroke-linejoin:round;">
</g>
<g style="fill:#FFFFFF; fill-opacity:1.0; 
stroke:#FFFFFF; stroke-width:0; stroke-opacity:1; 
stroke-linecap:round; stroke-linejoin:round;">
<circle cx="64380" cy="35850" r="216" /> 
</g>
<g style="fill:#FFFFFF; fill-opacity:1.0; 
stroke:#FFFFFF; stroke-width:39.3701; stroke-opacity:1; 
stroke-linecap:round; stroke-linejoin:round;">
</g>
<g style="fill:#FFFFFF; fill-opacity:1.0; 
stroke:#FFFFFF; stroke-width:0; stroke-opacity:1; 
stroke-linecap:round; stroke-linejoin:round;">
<circle cx="65380" cy="35850" r="216" /> 
</g>
<g style="fill:#FFFFFF; fill-opacity:1.0; 
stroke:#FFFFFF; stroke-width:39.3701; stroke-opacity:1; 
stroke-linecap:round; stroke-linejoin:round;">
</g>
<g style="fill:#FFFFFF; fill-opacity:1.0; 
stroke:#FFFFFF; stroke-width:0; stroke-opacity:1; 
stroke-linecap:round; stroke-linejoin:round;">
<circle cx="67780" cy="35850" r="216" /> 
</g>
<g style="fill:#FFFFFF; fill-opacity:1.0; 
stroke:#FFFFFF; stroke-width:39.3701; stroke-opacity:1; 
stroke-linecap:round; stroke-linejoin:round;">
</g>
<g style="fill:#FFFFFF; fill-opacity:1.0; 
stroke:#FFFFFF; stroke-width:0; stroke-opacity:1; 
stroke-linecap:round; stroke-linejoin:round;">
<circle cx="68780" cy="35850" r="216" /> 
</g>
<g style="fill:#FFFFFF; fill-opacity:1.0; 
stroke:#FFFFFF; stroke-width:39.3701; stroke-opacity:1; 
stroke-linecap:round; stroke-linejoin:round;">
</g>
<g style="fill:#FFFFFF; fill-opacity:1.0; 
stroke:#FFFFFF; stroke-width:0; stroke-opacity:1; 
stroke-linecap:round; stroke-linejoin:round;">
<circle cx="70180" cy="37400" r="216" /> 
</g>
<g style="fill:#FFFFFF; fill-opacity:1.0; 
stroke:#FFFFFF; stroke-width:39.3701; stroke-opacity:1; 
stroke-linecap:round; stroke-linejoin:round;">
</g>
<g style="fill:#FFFFFF; fill-opacity:1.0; 
stroke:#FFFFFF; stroke-width:0; stroke-opacity:1; 
stroke-linecap:round; stroke-linejoin:round;">
<circle cx="70180" cy="40400" r="216" /> 
</g>
<g style="fill:#FFFFFF; fill-opacity:1.0; 
stroke:#FFFFFF; stroke-width:39.3701; stroke-opacity:1; 
stroke-linecap:round; stroke-linejoin:round;">
</g>
<g style="fill:#FFFFFF; fill-opacity:1.0; 
stroke:#FFFFFF; stroke-width:0; stroke-opacity:1; 
stroke-linecap:round; stroke-linejoin:round;">
<circle cx="70180" cy="39400" r="216" /> 
</g>
<g style="fill:#FFFFFF; fill-opacity:1.0; 
stroke:#FFFFFF; stroke-width:39.3701; stroke-opacity:1; 
stroke-linecap:round; stroke-linejoin:round;">
</g>
<g style="fill:#FFFFFF; fill-opacity:1.0; 
stroke:#FFFFFF; stroke-width:0; stroke-opacity:1; 
stroke-linecap:round; stroke-linejoin:round;">
<circle cx="70180" cy="38400" r="216" /> 
</g>
<g style="fill:#FFFFFF; fill-opacity:1.0; 
stroke:#FFFFFF; stroke-width:39.3701; stroke-opacity:1; 
stroke-linecap:round; stroke-linejoin:round;">
</g>
<g style="fill:#FFFFFF; fill-opacity:1.0; 
stroke:#FFFFFF; stroke-width:0; stroke-opacity:1; 
stroke-linecap:round; stroke-linejoin:round;">
<circle cx="58080" cy="38650" r="216" /> 
</g>
<g style="fill:#FFFFFF; fill-opacity:1.0; 
stroke:#FFFFFF; stroke-width:39.3701; stroke-opacity:1; 
stroke-linecap:round; stroke-linejoin:round;">
</g>
<g style="fill:#FFFFFF; fill-opacity:1.0; 
stroke:#FFFFFF; stroke-width:0; stroke-opacity:1; 
stroke-linecap:round; stroke-linejoin:round;">
<circle cx="58080" cy="41650" r="216" /> 
</g>
<g style="fill:#FFFFFF; fill-opacity:1.0; 
stroke:#FFFFFF; stroke-width:39.3701; stroke-opacity:1; 
stroke-linecap:round; stroke-linejoin:round;">
</g>
<g style="fill:#FFFFFF; fill-opacity:1.0; 
stroke:#FFFFFF; stroke-width:0; stroke-opacity:1; 
stroke-linecap:round; stroke-linejoin:round;">
<circle cx="58080" cy="40650" r="216" /> 
</g>
<g style="fill:#FFFFFF; fill-opacity:1.0; 
stroke:#FFFFFF; stroke-width:39.3701; stroke-opacity:1; 
stroke-linecap:round; stroke-linejoin:round;">
</g>
<g style="fill:#FFFFFF; fill-opacity:1.0; 
stroke:#FFFFFF; stroke-width:0; stroke-opacity:1; 
stroke-linecap:round; stroke-linejoin:round;">
<circle cx="58080" cy="39650" r="216" /> 
</g>
<g style="fill:#FFFFFF; fill-opacity:1.0; 
stroke:#FFFFFF; stroke-width:39.3701; stroke-opacity:1; 
stroke-linecap:round; stroke-linejoin:round;">
</g>
<g style="fill:#FFFFFF; fill-opacity:1.0; 
stroke:#FFFFFF; stroke-width:0; stroke-opacity:1; 
stroke-linecap:round; stroke-linejoin:round;">
<circle cx="58080" cy="37650" r="216" /> 
</g>
<g style="fill:#FFFFFF; fill-opacity:1.0; 
stroke:#FFFFFF; stroke-width:39.3701; stroke-opacity:1; 
stroke-linecap:round; stroke-linejoin:round;">
</g>
<g style="fill:#FFFFFF; fill-opacity:1.0; 
stroke:#FFFFFF; stroke-width:0; stroke-opacity:1; 
stroke-linecap:round; stroke-linejoin:round;">
<circle cx="58080" cy="36650" r="216" /> 
</g>
<g style="fill:#FFFFFF; fill-opacity:1.0; 
stroke:#FFFFFF; stroke-width:39.3701; stroke-opacity:1; 
stroke-linecap:round; stroke-linejoin:round;">
</g>
<g style="fill:#FFFFFF; fill-opacity:1.0; 
stroke:#FFFFFF; stroke-width:0; stroke-opacity:1; 
stroke-linecap:round; stroke-linejoin:round;">
<circle cx="58080" cy="35650" r="216" /> 
</g>
<g style="fill:#FFFFFF; fill-opacity:1.0; 
stroke:#FFFFFF; stroke-width:39.3701; stroke-opacity:1; 
stroke-linecap:round; stroke-linejoin:round;">
</g>
<g style="fill:#000000; fill-opacity:1.0; 
stroke:#000000; stroke-width:39.3701; stroke-opacity:1; 
stroke-linecap:round; stroke-linejoin:round;">
</g> 
</svg>
