<?xml version="1.0" standalone="no"?>
 <!DOCTYPE svg PUBLIC "-//W3C//DTD SVG 1.1//EN" 
 "http://www.w3.org/Graphics/SVG/1.1/DTD/svg11.dtd"> 
<svg xmlns="http://www.w3.org/2000/svg" version="1.1" 
    width="4.86156cm" height="3.46456cm" viewBox="0 0 19140 13640 ">
<title>SVG Picture created as MCU_module-B_Cu.svg date 2014/12/28 18:36:05 </title>
  <desc>Picture generated by PCBNEW </desc>
<g style="fill:#000000; fill-opacity:1;stroke:#000000; stroke-opacity:1;
stroke-linecap:round; stroke-linejoin:round; "
 transform="translate(0 0) scale(1 1)">
</g>
<g style="fill:#000000; fill-opacity:0.0; 
stroke:#000000; stroke-width:39.3701; stroke-opacity:1; 
stroke-linecap:round; stroke-linejoin:round;">
<path d="M19 13518
L19 132
" />
<path d="M18523 13518
L19 13518
" />
<path d="M18523 132
L18523 13518
" />
<path d="M19 132
L18523 132
" />
</g>
<g style="fill:#000000; fill-opacity:0.0; 
stroke:#000000; stroke-width:118.11; stroke-opacity:1; 
stroke-linecap:round; stroke-linejoin:round;">
<path d="M1936 11563
L2274 11563
" />
<path d="M2105 11563
L2105 10972
L2161 11056
L2217 11113
L2274 11141
" />
</g>
<g style="fill:#000000; fill-opacity:0.0; 
stroke:#000000; stroke-width:19.685; stroke-opacity:1; 
stroke-linecap:round; stroke-linejoin:round;">
</g>
<g style="fill:#000000; fill-opacity:1.0; 
stroke:#000000; stroke-width:19.685; stroke-opacity:1; 
stroke-linecap:round; stroke-linejoin:round;">
<polyline style="fill-rule:evenodd;"
points="5515,4733
5515,5514
4095,5514
4095,4733
5515,4733
" /> 
<polyline style="fill-rule:evenodd;"
points="4995,7333
4995,8114
4615,8114
4615,7333
4995,7333
" /> 
<polyline style="fill-rule:evenodd;"
points="4095,7333
4095,8114
3715,8114
3715,7333
4095,7333
" /> 
<polyline style="fill-rule:evenodd;"
points="5895,7333
5895,8114
5515,8114
5515,7333
5895,7333
" /> 
<polyline style="fill-rule:evenodd;"
points="2665,10314
2665,9533
3245,9533
3245,10314
2665,10314
" /> 
<polyline style="fill-rule:evenodd;"
points="3965,10314
3965,9533
4545,9533
4545,10314
3965,10314
" /> 
<polyline style="fill-rule:evenodd;"
points="8220,9608
8220,10039
7990,10039
7990,9608
8220,9608
" /> 
<polyline style="fill-rule:evenodd;"
points="7620,9608
7620,10039
7390,10039
7390,9608
7620,9608
" /> 
<polyline style="fill-rule:evenodd;"
points="9290,10039
9290,9608
9520,9608
9520,10039
9290,10039
" /> 
<polyline style="fill-rule:evenodd;"
points="9890,10039
9890,9608
10120,9608
10120,10039
9890,10039
" /> 
<polyline style="fill-rule:evenodd;"
points="2590,7608
3020,7608
3020,7839
2590,7839
2590,7608
" /> 
<polyline style="fill-rule:evenodd;"
points="2590,8208
3020,8208
3020,8439
2590,8439
2590,8208
" /> 
<polyline style="fill-rule:evenodd;"
points="9390,8473
10620,8473
10620,9084
9390,9084
9390,8473
" /> 
<polyline style="fill-rule:evenodd;"
points="9390,5963
10620,5963
10620,6574
9390,6574
9390,5963
" /> 
<circle cx="14105.5" cy="724" r="215.157" /> 
<circle cx="15105.5" cy="724" r="215.157" /> 
<circle cx="12105.5" cy="724" r="215.157" /> 
<circle cx="11105.5" cy="724" r="215.157" /> 
<circle cx="10105.5" cy="12924" r="215.157" /> 
<circle cx="1305.51" cy="5424" r="215.157" /> 
<circle cx="17805.5" cy="9324" r="215.157" /> 
<circle cx="13105.5" cy="724" r="215.157" /> 
<circle cx="1305.51" cy="9724" r="215.157" /> 
<polyline style="fill-rule:evenodd;"
points="18095,7814
17515,7814
17515,7233
18095,7233
18095,7814
" /> 
<circle cx="17805.5" cy="6524" r="290.157" /> 
<circle cx="17805.5" cy="5524" r="290.157" /> 
<circle cx="17805.5" cy="4524" r="290.157" /> 
<polyline style="fill-rule:evenodd;"
points="1595,8814
1015,8814
1015,8233
1595,8233
1595,8814
" /> 
<circle cx="1305.51" cy="7524" r="290.157" /> 
<circle cx="1305.51" cy="6524" r="290.157" /> 
<polyline style="fill-rule:evenodd;"
points="1015,2833
1595,2833
1595,3414
1015,3414
1015,2833
" /> 
<circle cx="1305.51" cy="4124" r="290.157" /> 
</g>
<g style="fill:#000000; fill-opacity:1.0; 
stroke:#000000; stroke-width:787; stroke-opacity:1; 
stroke-linecap:round; stroke-linejoin:round;">
<path d="M3106 11323
L3106 11323
" />
<path d="M3106 2325
L3106 2325
" />
<path d="M4106 11323
L4106 11323
" />
<path d="M4106 2325
L4106 2325
" />
<path d="M5106 11323
L5106 11323
" />
<path d="M5106 2325
L5106 2325
" />
<path d="M6106 11323
L6106 11323
" />
<path d="M6106 2325
L6106 2325
" />
<path d="M7106 11323
L7106 11323
" />
<path d="M7106 2325
L7106 2325
" />
<path d="M8106 11323
L8106 11323
" />
<path d="M8106 2325
L8106 2325
" />
<path d="M9106 11323
L9106 11323
" />
<path d="M9106 2325
L9106 2325
" />
<path d="M10104 11323
L10104 11323
" />
<path d="M10104 2325
L10104 2325
" />
<path d="M11104 11323
L11104 11323
" />
<path d="M11104 2325
L11104 2325
" />
<path d="M12104 11323
L12104 11323
" />
<path d="M12104 2325
L12104 2325
" />
<path d="M13104 11323
L13104 11323
" />
<path d="M13104 2325
L13104 2325
" />
<path d="M14104 11323
L14104 11323
" />
<path d="M14104 2325
L14104 2325
" />
<path d="M15104 11323
L15104 11323
" />
<path d="M15104 2325
L15104 2325
" />
<path d="M16104 11323
L16104 11323
" />
<path d="M16104 2325
L16104 2325
" />
</g>
<g style="fill:#000000; fill-opacity:1.0; 
stroke:#000000; stroke-width:19.685; stroke-opacity:1; 
stroke-linecap:round; stroke-linejoin:round;">
<polyline style="fill-rule:evenodd;"
points="16265,6358
16745,6358
16745,6589
16265,6589
16265,6358
" /> 
<polyline style="fill-rule:evenodd;"
points="16265,6858
16745,6858
16745,7089
16265,7089
16265,6858
" /> 
<polyline style="fill-rule:evenodd;"
points="16265,7358
16745,7358
16745,7589
16265,7589
16265,7358
" /> 
<polyline style="fill-rule:evenodd;"
points="16265,7858
16745,7858
16745,8089
16265,8089
16265,7858
" /> 
<polyline style="fill-rule:evenodd;"
points="14065,7858
14545,7858
14545,8089
14065,8089
14065,7858
" /> 
<polyline style="fill-rule:evenodd;"
points="14065,7358
14545,7358
14545,7589
14065,7589
14065,7358
" /> 
<polyline style="fill-rule:evenodd;"
points="14065,6858
14545,6858
14545,7089
14065,7089
14065,6858
" /> 
<polyline style="fill-rule:evenodd;"
points="14065,6358
14545,6358
14545,6589
14065,6589
14065,6358
" /> 
<polyline style="fill-rule:evenodd;"
points="16265,4058
16745,4058
16745,4289
16265,4289
16265,4058
" /> 
<polyline style="fill-rule:evenodd;"
points="16265,4558
16745,4558
16745,4789
16265,4789
16265,4558
" /> 
<polyline style="fill-rule:evenodd;"
points="16265,5058
16745,5058
16745,5289
16265,5289
16265,5058
" /> 
<polyline style="fill-rule:evenodd;"
points="16265,5558
16745,5558
16745,5789
16265,5789
16265,5558
" /> 
<polyline style="fill-rule:evenodd;"
points="14065,5558
14545,5558
14545,5789
14065,5789
14065,5558
" /> 
<polyline style="fill-rule:evenodd;"
points="14065,5058
14545,5058
14545,5289
14065,5289
14065,5058
" /> 
<polyline style="fill-rule:evenodd;"
points="14065,4558
14545,4558
14545,4789
14065,4789
14065,4558
" /> 
<polyline style="fill-rule:evenodd;"
points="14065,4058
14545,4058
14545,4289
14065,4289
14065,4058
" /> 
<circle cx="4605.51" cy="6524" r="246.063" /> 
<circle cx="17805.5" cy="8724" r="285.433" /> 
<circle cx="16105.5" cy="10224" r="187.008" /> 
<circle cx="8105.51" cy="3524" r="187.008" /> 
<circle cx="7105.51" cy="3624" r="187.008" /> 
<circle cx="8105.51" cy="7424" r="246.063" /> 
<circle cx="2605.51" cy="3624" r="187.008" /> 
<circle cx="2405.51" cy="5124" r="187.008" /> 
<circle cx="11305.5" cy="7624" r="187.008" /> 
</g>
<g style="fill:#000000; fill-opacity:1.0; 
stroke:#000000; stroke-width:393.701; stroke-opacity:1; 
stroke-linecap:round; stroke-linejoin:round;">
<path d="M1305 6524
L1305 5424
" />
<path d="M2955 9924
L2955 9274
" />
<path d="M4805 8524
L4805 7724
" />
<path d="M4505 8824
L4805 8524
" />
<path d="M3805 8824
L4505 8824
" />
<path d="M3605 9024
L3805 8824
" />
<path d="M3205 9024
L3605 9024
" />
<path d="M2955 9274
L3205 9024
" />
<path d="M3106 11323
L3106 10075
" />
<path d="M3106 10075
L2955 9924
" />
</g>
<g style="fill:#000000; fill-opacity:1.0; 
stroke:#000000; stroke-width:196.85; stroke-opacity:1; 
stroke-linecap:round; stroke-linejoin:round;">
<path d="M3106 10075
L2955 9924
" />
<path d="M4350 6424
L4505 6424
" />
<path d="M4505 6424
L4605 6524
" />
<path d="M16505 4674
L15855 4674
" />
<path d="M15505 4324
L15505 4124
" />
<path d="M15855 4674
L15505 4324
" />
<path d="M15505 3524
L15505 4124
" />
</g>
<g style="fill:#000000; fill-opacity:1.0; 
stroke:#000000; stroke-width:393.701; stroke-opacity:1; 
stroke-linecap:round; stroke-linejoin:round;">
<path d="M2805 7724
L2805 7524
" />
<path d="M10205 3524
L15505 3524
" />
<path d="M7305 6424
L10205 3524
" />
<path d="M3905 6424
L4350 6424
" />
<path d="M4350 6424
L7305 6424
" />
<path d="M2805 7524
L3905 6424
" />
</g>
<g style="fill:#000000; fill-opacity:1.0; 
stroke:#000000; stroke-width:196.85; stroke-opacity:1; 
stroke-linecap:round; stroke-linejoin:round;">
<path d="M15505 4124
L15505 6624
" />
<path d="M15505 6624
L15855 6974
" />
<path d="M15855 6974
L16505 6974
" />
<path d="M16505 4674
L16505 5174
" />
<path d="M16505 7474
L16505 6974
" />
</g>
<g style="fill:#000000; fill-opacity:1.0; 
stroke:#000000; stroke-width:393.701; stroke-opacity:1; 
stroke-linecap:round; stroke-linejoin:round;">
<path d="M1305 7524
L2605 7524
" />
<path d="M2605 7524
L2805 7724
" />
<path d="M2805 7724
L3905 7724
" />
</g>
<g style="fill:#000000; fill-opacity:1.0; 
stroke:#000000; stroke-width:196.85; stroke-opacity:1; 
stroke-linecap:round; stroke-linejoin:round;">
<path d="M17805 8724
L17805 9324
" />
</g>
<g style="fill:#000000; fill-opacity:1.0; 
stroke:#000000; stroke-width:100; stroke-opacity:1; 
stroke-linecap:round; stroke-linejoin:round;">
<path d="M16104 11323
L16104 10225
" />
<path d="M16104 10225
L16105 10224
" />
</g>
<g style="fill:#000000; fill-opacity:1.0; 
stroke:#000000; stroke-width:196.85; stroke-opacity:1; 
stroke-linecap:round; stroke-linejoin:round;">
<path d="M8106 11323
L8106 9825
" />
<path d="M8107 9824
L9405 9824
" />
<path d="M8106 9825
L8107 9824
" />
<path d="M14104 11323
L14104 9223
" />
<path d="M13755 7474
L14305 7474
" />
<path d="M13405 7824
L13755 7474
" />
<path d="M13405 8524
L13405 7824
" />
<path d="M14104 9223
L13405 8524
" />
<path d="M14305 6974
L13555 6974
" />
<path d="M13104 9223
L13104 11323
" />
<path d="M13005 9124
L13104 9223
" />
<path d="M13005 7524
L13005 9124
" />
<path d="M13555 6974
L13005 7524
" />
<path d="M12104 11323
L12104 9925
" />
<path d="M13555 5174
L14305 5174
" />
<path d="M12505 6224
L13555 5174
" />
<path d="M12505 9524
L12505 6224
" />
<path d="M12104 9925
L12505 9524
" />
<path d="M11104 11323
L11104 9925
" />
<path d="M12955 4674
L14305 4674
" />
<path d="M12005 5624
L12955 4674
" />
<path d="M12005 9024
L12005 5624
" />
<path d="M11104 9925
L12005 9024
" />
<path d="M10105 12924
L10105 11324
" />
<path d="M10105 11324
L10104 11323
" />
<path d="M15104 2325
L15104 725
" />
<path d="M15104 725
L15105 724
" />
<path d="M14104 2325
L14104 725
" />
<path d="M14104 725
L14105 724
" />
<path d="M13104 2325
L13104 725
" />
<path d="M13104 725
L13105 724
" />
<path d="M12104 2325
L12104 725
" />
<path d="M12104 725
L12105 724
" />
<path d="M11104 2325
L11104 725
" />
<path d="M11104 725
L11105 724
" />
<path d="M8106 3523
L8106 2325
" />
<path d="M8105 3524
L8106 3523
" />
<path d="M7106 3623
L7106 2325
" />
<path d="M7105 3624
L7106 3623
" />
</g>
<g style="fill:#000000; fill-opacity:1.0; 
stroke:#000000; stroke-width:393.701; stroke-opacity:1; 
stroke-linecap:round; stroke-linejoin:round;">
<path d="M1305 9724
L1305 11624
" />
<path d="M4106 12523
L4106 11323
" />
<path d="M4005 12624
L4106 12523
" />
<path d="M2305 12624
L4005 12624
" />
<path d="M1305 11624
L2305 12624
" />
<path d="M4255 9924
L5005 9924
" />
<path d="M5705 9224
L5705 7724
" />
<path d="M5005 9924
L5705 9224
" />
</g>
<g style="fill:#000000; fill-opacity:1.0; 
stroke:#000000; stroke-width:196.85; stroke-opacity:1; 
stroke-linecap:round; stroke-linejoin:round;">
<path d="M2805 8324
L1505 8324
" />
<path d="M1505 8324
L1305 8524
" />
</g>
<g style="fill:#000000; fill-opacity:1.0; 
stroke:#000000; stroke-width:393.701; stroke-opacity:1; 
stroke-linecap:round; stroke-linejoin:round;">
<path d="M1305 9724
L1305 8524
" />
<path d="M4106 11323
L4106 10073
" />
<path d="M4106 10073
L4255 9924
" />
</g>
<g style="fill:#000000; fill-opacity:1.0; 
stroke:#000000; stroke-width:196.85; stroke-opacity:1; 
stroke-linecap:round; stroke-linejoin:round;">
<path d="M10005 6269
L10005 5124
" />
<path d="M10955 4174
L14305 4174
" />
<path d="M10005 5124
L10955 4174
" />
<path d="M15005 5424
L15005 6924
" />
<path d="M14305 6474
L14755 6474
" />
<path d="M14755 6474
L15005 6724
" />
<path d="M15005 6724
L15005 6924
" />
<path d="M14855 7974
L14305 7974
" />
<path d="M15005 6924
L15005 7824
" />
<path d="M15005 7824
L14855 7974
" />
<path d="M14305 4174
L14755 4174
" />
<path d="M14755 5674
L14305 5674
" />
<path d="M15005 5424
L14755 5674
" />
<path d="M15005 4424
L15005 5424
" />
<path d="M14755 4174
L15005 4424
" />
</g>
<g style="fill:#000000; fill-opacity:1.0; 
stroke:#000000; stroke-width:100; stroke-opacity:1; 
stroke-linecap:round; stroke-linejoin:round;">
<path d="M4106 10073
L4255 9924
" />
</g>
<g style="fill:#000000; fill-opacity:1.0; 
stroke:#000000; stroke-width:196.85; stroke-opacity:1; 
stroke-linecap:round; stroke-linejoin:round;">
<path d="M16505 6474
L17755 6474
" />
<path d="M17755 6474
L17805 6524
" />
<path d="M16505 7974
L17355 7974
" />
<path d="M17355 7974
L17805 7524
" />
<path d="M16505 4174
L17455 4174
" />
<path d="M17455 4174
L17805 4524
" />
<path d="M16505 5674
L17655 5674
" />
<path d="M17655 5674
L17805 5524
" />
<path d="M2105 3124
L1305 3124
" />
<path d="M2605 3624
L2105 3124
" />
<path d="M1705 4124
L1305 4124
" />
<path d="M2205 4624
L1705 4124
" />
<path d="M2205 4924
L2205 4624
" />
<path d="M2405 5124
L2205 4924
" />
<path d="M10005 9824
L10005 8779
" />
</g>
<g style="fill:#000000; fill-opacity:1.0; 
stroke:#000000; stroke-width:393.701; stroke-opacity:1; 
stroke-linecap:round; stroke-linejoin:round;">
<path d="M10150 8779
L10005 8779
" />
<path d="M11305 7624
L10150 8779
" />
</g>
<g style="fill:#000000; fill-opacity:1.0; 
stroke:#000000; stroke-width:19.685; stroke-opacity:1; 
stroke-linecap:round; stroke-linejoin:round;">
<polyline style="fill-rule:evenodd;"
points="18253,13248
10452,13248
10507,13193
10580,13018
10580,12829
10508,12655
10453,12600
10453,11857
10572,11778
10604,11729
10636,11778
10845,11917
11091,11966
11117,11966
11363,11917
11572,11778
11604,11729
11636,11778
11845,11917
12091,11966
12117,11966
12363,11917
12572,11778
12604,11729
12636,11778
12845,11917
13091,11966
13117,11966
13363,11917
13572,11778
13604,11729
13636,11778
13845,11917
14091,11966
14117,11966
14363,11917
14572,11778
14604,11729
14636,11778
14845,11917
15091,11966
15117,11966
15363,11917
15572,11778
15604,11729
15636,11778
15845,11917
16091,11966
16117,11966
16363,11917
16572,11778
16711,11569
16760,11323
16711,11076
16572,10867
16404,10755
16404,10556
16484,10477
16552,10313
16552,10135
16484,9971
16358,9845
16194,9777
16017,9777
15852,9844
15726,9970
15658,10134
15658,10312
15726,10476
15804,10554
15804,10755
15636,10867
15604,10916
15572,10867
15363,10728
15117,10679
15091,10679
14845,10728
14805,10755
14805,8148
14805,8086
14743,8024
14355,8024
14355,8286
14418,8349
14506,8349
14605,8348
14697,8310
14767,8240
14805,8148
14805,10755
14636,10867
14604,10916
14572,10867
14452,10788
14452,9223
14426,9089
14350,8976
14350,8976
14255,8881
14255,8286
14255,8024
13868,8024
13805,8086
13805,8148
13843,8240
13913,8310
14005,8348
14105,8349
14193,8349
14255,8286
14255,8881
13753,8379
13753,7968
13833,7889
13868,7924
14255,7924
14255,7916
14355,7916
14355,7924
14743,7924
14805,7861
14805,7799
14774,7723
14805,7648
14805,7549
14805,7299
14774,7223
14805,7148
14805,7049
14805,6799
14774,6724
14805,6648
14805,6299
14805,5848
14805,5786
14743,5724
14355,5724
14355,5986
14418,6049
14506,6049
14605,6048
14697,6010
14767,5940
14805,5848
14805,6299
14767,6207
14697,6137
14605,6099
14506,6098
14418,6099
14355,6161
14355,6424
14743,6424
14805,6361
14805,6299
14805,6648
14805,6586
14743,6524
14355,6524
14355,6531
14255,6531
14255,6524
14255,6424
14255,6161
14255,5986
14255,5724
13868,5724
13805,5786
13805,5848
13843,5940
13913,6010
14005,6048
14105,6049
14193,6049
14255,5986
14255,6161
14193,6099
14105,6098
14005,6099
13913,6137
13843,6207
13805,6299
13805,6361
13868,6424
14255,6424
14255,6524
13868,6524
13805,6586
13805,6625
13555,6625
13422,6652
13309,6727
13309,6727
12853,7182
12853,6368
13699,5522
13805,5522
13805,5561
13868,5624
14255,5624
14255,5616
14355,5616
14355,5624
14743,5624
14805,5561
14805,5499
14774,5423
14805,5348
14805,5249
14805,4999
14774,4923
14805,4848
14805,4749
14805,4499
14774,4424
14805,4348
14805,4286
14743,4224
14355,4224
14355,4231
14255,4231
14255,4224
13868,4224
13805,4286
13805,4325
12955,4325
12822,4352
12709,4427
12709,4427
11759,5377
11683,5490
11679,5512
11657,5624
11657,5624
11657,7343
11621,7308
11558,7245
11394,7177
11217,7177
11052,7244
10926,7370
10926,7370
10880,7417
10880,6633
10880,5904
10842,5812
10772,5742
10680,5704
10581,5703
10118,5704
10055,5766
10055,6219
10818,6219
10880,6156
10880,5904
10880,6633
10880,6381
10818,6319
10055,6319
10055,6771
10118,6834
10581,6834
10680,6833
10772,6795
10842,6725
10880,6633
10880,7417
10083,8213
9955,8213
9955,6771
9955,6319
9955,6219
9955,5766
9893,5704
9430,5703
9330,5704
9238,5742
9168,5812
9130,5904
9130,6156
9193,6219
9955,6219
9955,6319
9193,6319
9130,6381
9130,6633
9168,6725
9238,6795
9330,6833
9430,6834
9893,6834
9955,6771
9955,8213
9331,8213
9239,8251
9168,8322
9130,8414
9130,8513
9130,9143
9168,9235
9238,9305
9330,9343
9430,9344
9657,9344
9657,9380
9580,9349
9481,9348
9231,9348
9139,9386
9068,9457
9061,9475
8450,9475
8442,9457
8372,9387
8280,9349
8181,9348
7931,9348
7839,9386
7805,9420
7771,9386
7680,9348
7618,9349
7555,9411
7555,9774
7563,9774
7563,9874
7555,9874
7555,10236
7618,10299
7680,10299
7758,10266
7758,10788
7638,10867
7606,10916
7574,10867
7455,10788
7455,10236
7455,9874
7455,9774
7455,9411
7393,9349
7331,9348
7239,9386
7168,9457
7130,9549
7130,9648
7130,9711
7193,9774
7455,9774
7455,9874
7193,9874
7130,9936
7130,9999
7130,10098
7168,10190
7239,10261
7331,10299
7393,10299
7455,10236
7455,10788
7365,10728
7119,10679
7093,10679
6847,10728
6638,10867
6606,10916
6574,10867
6365,10728
6155,10686
6155,8074
6155,7373
6155,7274
6117,7182
6046,7111
5955,7073
5818,7074
5755,7136
5755,7674
6093,7674
6155,7611
6155,7373
6155,8074
6155,7836
6093,7774
5755,7774
5755,8311
5818,8374
5955,8374
6046,8336
6117,8265
6155,8173
6155,8074
6155,10686
6119,10679
6093,10679
5847,10728
5638,10867
5606,10916
5574,10867
5365,10728
5119,10679
5093,10679
4847,10728
4805,10756
4805,10274
4805,9573
4805,9474
4767,9382
4696,9311
4605,9273
4368,9274
4305,9336
4305,9874
4743,9874
4805,9811
4805,9573
4805,10274
4805,10036
4743,9974
4305,9974
4305,10511
4368,10574
4605,10574
4696,10536
4767,10465
4805,10373
4805,10274
4805,10756
4638,10867
4599,10926
4484,10802
4256,10697
4205,10720
4205,10511
4205,9974
3768,9974
3705,10036
3705,10274
3705,10373
3743,10465
3814,10536
3906,10574
4143,10574
4205,10511
4205,10720
4156,10743
4156,11273
4164,11273
4164,11373
4156,11373
4156,11902
4256,11948
4484,11843
4599,11719
4638,11778
4847,11917
5093,11966
5119,11966
5365,11917
5574,11778
5606,11729
5638,11778
5847,11917
6093,11966
6119,11966
6365,11917
6574,11778
6606,11729
6638,11778
6847,11917
7093,11966
7119,11966
7365,11917
7574,11778
7606,11729
7638,11778
7847,11917
8093,11966
8119,11966
8365,11917
8574,11778
8606,11729
8638,11778
8847,11917
9093,11966
9119,11966
9365,11917
9574,11778
9605,11731
9636,11778
9757,11858
9757,12600
9703,12654
9630,12829
9630,13018
9702,13192
9758,13248
289,13248
289,402
10755,402
10703,454
10630,629
10630,818
10702,992
10756,1046
10756,1790
10636,1869
10604,1918
10572,1869
10363,1730
10117,1681
10091,1681
9845,1730
9636,1869
9605,1916
9574,1869
9365,1730
9119,1681
9093,1681
8847,1730
8638,1869
8606,1918
8574,1869
8365,1730
8119,1681
8093,1681
7847,1730
7638,1869
7606,1918
7574,1869
7365,1730
7119,1681
7093,1681
6847,1730
6638,1869
6606,1918
6574,1869
6365,1730
6119,1681
6093,1681
5847,1730
5638,1869
5606,1918
5574,1869
5365,1730
5119,1681
5093,1681
4847,1730
4638,1869
4606,1918
4574,1869
4365,1730
4119,1681
4093,1681
3847,1730
3638,1869
3606,1918
3574,1869
3365,1730
3119,1681
3093,1681
2847,1730
2638,1869
2499,2078
2450,2325
2499,2571
2638,2780
2847,2919
3093,2968
3119,2968
3365,2919
3574,2780
3606,2731
3638,2780
3847,2919
4093,2968
4119,2968
4365,2919
4574,2780
4606,2731
4638,2780
4847,2919
5093,2968
5119,2968
5365,2919
5574,2780
5606,2731
5638,2780
5847,2919
6093,2968
6119,2968
6365,2919
6574,2780
6606,2731
6638,2780
6758,2859
6758,3339
6726,3370
6658,3534
6658,3712
6726,3876
6852,4002
7016,4070
7194,4070
7358,4003
7484,3877
7552,3713
7552,3535
7484,3371
7454,3341
7454,2859
7574,2780
7606,2731
7638,2780
7758,2859
7758,3239
7726,3270
7658,3434
7658,3612
7726,3776
7852,3902
8016,3970
8194,3970
8358,3903
8484,3777
8552,3613
8552,3435
8484,3271
8454,3241
8454,2859
8574,2780
8606,2731
8638,2780
8847,2919
9093,2968
9119,2968
9365,2919
9574,2780
9605,2733
9636,2780
9845,2919
10091,2968
10117,2968
10363,2919
10572,2780
10604,2731
10636,2780
10845,2919
11091,2968
11117,2968
11363,2919
11572,2780
11604,2731
11636,2780
11845,2919
12091,2968
12117,2968
12363,2919
12572,2780
12604,2731
12636,2780
12845,2919
13091,2968
13117,2968
13363,2919
13572,2780
13604,2731
13636,2780
13845,2919
14091,2968
14117,2968
14363,2919
14572,2780
14604,2731
14636,2780
14845,2919
15091,2968
15117,2968
15363,2919
15572,2780
15604,2731
15636,2780
15845,2919
16091,2968
16117,2968
16363,2919
16572,2780
16711,2571
16760,2325
16711,2078
16572,1869
16363,1730
16117,1681
16091,1681
15845,1730
15636,1869
15604,1918
15572,1869
15452,1790
15452,1048
15507,993
15580,818
15580,629
15508,455
15455,402
18253,402
18253,4194
18117,4058
17915,3974
17748,3973
17701,3927
17588,3852
17566,3847
17455,3825
17455,3825
16869,3825
16805,3799
16706,3798
16206,3798
16114,3836
16043,3907
16005,3999
16005,4098
16005,4325
15999,4325
15853,4179
15853,4124
15853,3791
15918,3695
15952,3524
15918,3352
15821,3208
15676,3111
15505,3077
10205,3077
10034,3111
9889,3208
7120,5977
5775,5977
5775,5474
5775,4674
5737,4582
5667,4512
5575,4474
5476,4473
4036,4473
3944,4511
3873,4582
3835,4674
3835,4773
3835,5573
3873,5665
3943,5735
4035,5773
4135,5774
5575,5774
5666,5736
5737,5665
5775,5573
5775,5474
5775,5977
4350,5977
3905,5977
3734,6011
3589,6108
3052,6645
3052,3535
2984,3371
2858,3245
2694,3177
2651,3177
2351,2877
2238,2802
2216,2797
2105,2775
2105,2775
1855,2775
1855,2774
1817,2682
1747,2612
1655,2574
1556,2573
956,2573
864,2611
793,2682
755,2774
755,2873
755,3473
793,3565
863,3635
955,3673
977,3673
839,3812
755,4014
755,4232
838,4435
993,4589
1195,4673
1414,4674
1616,4590
1648,4559
1857,4768
1857,4923
1857,4924
1879,5035
1883,5057
1958,5169
1958,5212
2026,5376
2152,5502
2316,5570
2494,5570
2658,5503
2784,5377
2852,5213
2852,5035
2784,4871
2658,4745
2553,4701
2553,4624
2553,4624
2553,4624
2527,4490
2451,4377
2451,4377
1951,3877
1838,3802
1816,3797
1742,3782
1633,3674
1655,3674
1746,3636
1817,3565
1855,3473
1855,3472
1961,3472
2158,3669
2158,3712
2226,3876
2352,4002
2516,4070
2694,4070
2858,4003
2984,3877
3052,3713
3052,3535
3052,6645
2617,7079
2605,7077
1636,7077
1617,7058
1535,7024
1616,6990
1771,6835
1855,6633
1855,6415
1772,6212
1752,6193
1752,5586
1780,5518
1780,5329
1708,5155
1574,5021
1400,4949
1211,4948
1036,5021
903,5154
830,5329
830,5518
858,5586
858,6192
839,6212
755,6414
755,6632
838,6835
993,6989
1075,7023
994,7057
839,7212
755,7414
755,7632
838,7835
977,7974
955,7974
863,8012
793,8082
755,8174
755,8411
818,8474
1255,8474
1255,8466
1355,8466
1355,8474
1793,8474
1855,8411
1855,8174
1817,8082
1747,8012
1655,7974
1633,7974
1636,7970
2360,7970
2368,7990
2401,8024
2368,8057
2330,8149
2330,8211
2393,8274
2755,8274
2755,8266
2855,8266
2855,8274
3218,8274
3280,8211
3280,8170
3455,8170
3455,8173
3493,8265
3563,8335
3655,8373
3755,8374
4155,8374
4246,8336
4317,8265
4355,8173
4355,8173
4355,8173
4358,8181
4358,8338
4320,8377
3805,8377
3634,8411
3489,8508
3420,8577
3248,8577
3280,8498
3280,8436
3218,8374
2855,8374
2855,8636
2912,8693
2889,8708
2755,8842
2755,8636
2755,8374
2393,8374
2330,8436
2330,8498
2368,8590
2438,8660
2530,8698
2630,8699
2693,8699
2755,8636
2755,8842
2639,8958
2542,9102
2508,9274
2508,9317
2443,9382
2405,9474
2405,9573
2405,10373
2443,10465
2461,10483
1855,10483
1855,8873
1855,8636
1793,8574
1355,8574
1355,9011
1418,9074
1556,9074
1655,9073
1747,9035
1817,8965
1855,8873
1855,10483
1785,10483
1785,9787
1773,9599
1724,9481
1637,9463
1566,9533
1566,9392
1548,9304
1369,9243
1255,9251
1255,9011
1255,8574
818,8574
755,8636
755,8873
793,8965
863,9035
955,9073
1055,9074
1193,9074
1255,9011
1255,9251
1180,9256
1062,9304
1044,9392
1305,9653
1566,9392
1566,9533
1376,9724
1637,9984
1724,9966
1785,9787
1785,10483
1566,10483
1566,10055
1305,9794
1234,9865
1234,9724
973,9463
886,9481
825,9660
837,9848
886,9966
973,9984
1234,9724
1234,9865
1044,10055
1062,10143
1241,10204
1430,10191
1548,10143
1566,10055
1566,10483
1515,10483
1515,12046
2695,12046
2695,11816
2847,11917
3093,11966
3119,11966
3365,11917
3574,11778
3613,11719
3728,11843
3956,11948
4056,11902
4056,11373
4048,11373
4048,11273
4056,11273
4056,10743
3956,10697
3728,10802
3613,10926
3574,10867
3553,10854
3553,10075
3519,9903
3505,9883
3505,9474
3504,9470
3605,9470
3716,9448
3705,9474
3705,9573
3705,9811
3768,9874
4205,9874
4205,9336
4143,9274
3987,9273
3990,9270
4505,9270
4676,9236
4676,9236
4821,9139
5121,8839
5121,8839
5218,8695
5252,8524
5252,8524
5252,8181
5255,8173
5255,8123
5255,8173
5293,8265
5364,8336
5456,8374
5593,8374
5655,8311
5655,7774
5647,7774
5647,7674
5655,7674
5655,7136
5593,7074
5456,7073
5364,7111
5293,7182
5255,7274
5255,7274
5217,7182
5147,7112
5055,7074
4956,7073
4556,7073
4464,7111
4393,7182
4355,7274
4355,7274
4317,7182
4247,7112
4155,7074
4056,7073
3887,7073
4090,6870
4236,6870
4318,6952
4504,7029
4705,7029
4891,6953
4974,6870
7305,6870
7476,6836
7476,6836
7621,6739
10390,3970
13817,3970
13805,3999
13805,4061
13868,4124
14255,4124
14255,4116
14355,4116
14355,4124
14743,4124
14805,4061
14805,3999
14793,3970
15157,3970
15157,4124
15157,4323
15157,4324
15157,4324
15157,6623
15157,6624
15179,6735
15183,6757
15259,6870
15609,7220
15609,7220
15722,7295
15855,7322
15855,7322
15855,7322
16005,7322
16005,7398
16005,7648
16036,7724
16005,7799
16005,7898
16005,8148
16043,8240
16113,8310
16205,8348
16305,8349
16805,8349
16869,8322
17355,8322
17355,8322
17355,8322
17456,8302
17343,8414
17260,8615
17260,8831
17342,9032
17391,9081
17330,9229
17330,9418
17402,9592
17536,9726
17710,9798
17899,9799
18074,9726
18207,9593
18253,9482
18253,13248
" /> 
</g>
<g style="fill:#000000; fill-opacity:0.0; 
stroke:#000000; stroke-width:100; stroke-opacity:1; 
stroke-linecap:round; stroke-linejoin:round;">
<polyline fill="none;"
points="18253,13248
10452,13248
10507,13193
10580,13018
10580,12829
10508,12655
10453,12600
10453,11857
10572,11778
10604,11729
10636,11778
10845,11917
11091,11966
11117,11966
11363,11917
11572,11778
11604,11729
11636,11778
11845,11917
12091,11966
12117,11966
12363,11917
12572,11778
12604,11729
12636,11778
12845,11917
13091,11966
13117,11966
13363,11917
13572,11778
13604,11729
13636,11778
13845,11917
14091,11966
14117,11966
14363,11917
14572,11778
14604,11729
14636,11778
14845,11917
15091,11966
15117,11966
15363,11917
15572,11778
15604,11729
15636,11778
15845,11917
16091,11966
16117,11966
16363,11917
16572,11778
16711,11569
16760,11323
16711,11076
16572,10867
16404,10755
16404,10556
16484,10477
16552,10313
16552,10135
16484,9971
16358,9845
16194,9777
16017,9777
15852,9844
15726,9970
15658,10134
15658,10312
15726,10476
15804,10554
15804,10755
15636,10867
15604,10916
15572,10867
15363,10728
15117,10679
15091,10679
14845,10728
14805,10755
14805,8148
14805,8086
14743,8024
14355,8024
14355,8286
14418,8349
14506,8349
14605,8348
14697,8310
14767,8240
14805,8148
14805,10755
14636,10867
14604,10916
14572,10867
14452,10788
14452,9223
14426,9089
14350,8976
14350,8976
14255,8881
14255,8286
14255,8024
13868,8024
13805,8086
13805,8148
13843,8240
13913,8310
14005,8348
14105,8349
14193,8349
14255,8286
14255,8881
13753,8379
13753,7968
13833,7889
13868,7924
14255,7924
14255,7916
14355,7916
14355,7924
14743,7924
14805,7861
14805,7799
14774,7723
14805,7648
14805,7549
14805,7299
14774,7223
14805,7148
14805,7049
14805,6799
14774,6724
14805,6648
14805,6299
14805,5848
14805,5786
14743,5724
14355,5724
14355,5986
14418,6049
14506,6049
14605,6048
14697,6010
14767,5940
14805,5848
14805,6299
14767,6207
14697,6137
14605,6099
14506,6098
14418,6099
14355,6161
14355,6424
14743,6424
14805,6361
14805,6299
14805,6648
14805,6586
14743,6524
14355,6524
14355,6531
14255,6531
14255,6524
14255,6424
14255,6161
14255,5986
14255,5724
13868,5724
13805,5786
13805,5848
13843,5940
13913,6010
14005,6048
14105,6049
14193,6049
14255,5986
14255,6161
14193,6099
14105,6098
14005,6099
13913,6137
13843,6207
13805,6299
13805,6361
13868,6424
14255,6424
14255,6524
13868,6524
13805,6586
13805,6625
13555,6625
13422,6652
13309,6727
13309,6727
12853,7182
12853,6368
13699,5522
13805,5522
13805,5561
13868,5624
14255,5624
14255,5616
14355,5616
14355,5624
14743,5624
14805,5561
14805,5499
14774,5423
14805,5348
14805,5249
14805,4999
14774,4923
14805,4848
14805,4749
14805,4499
14774,4424
14805,4348
14805,4286
14743,4224
14355,4224
14355,4231
14255,4231
14255,4224
13868,4224
13805,4286
13805,4325
12955,4325
12822,4352
12709,4427
12709,4427
11759,5377
11683,5490
11679,5512
11657,5624
11657,5624
11657,7343
11621,7308
11558,7245
11394,7177
11217,7177
11052,7244
10926,7370
10926,7370
10880,7417
10880,6633
10880,5904
10842,5812
10772,5742
10680,5704
10581,5703
10118,5704
10055,5766
10055,6219
10818,6219
10880,6156
10880,5904
10880,6633
10880,6381
10818,6319
10055,6319
10055,6771
10118,6834
10581,6834
10680,6833
10772,6795
10842,6725
10880,6633
10880,7417
10083,8213
9955,8213
9955,6771
9955,6319
9955,6219
9955,5766
9893,5704
9430,5703
9330,5704
9238,5742
9168,5812
9130,5904
9130,6156
9193,6219
9955,6219
9955,6319
9193,6319
9130,6381
9130,6633
9168,6725
9238,6795
9330,6833
9430,6834
9893,6834
9955,6771
9955,8213
9331,8213
9239,8251
9168,8322
9130,8414
9130,8513
9130,9143
9168,9235
9238,9305
9330,9343
9430,9344
9657,9344
9657,9380
9580,9349
9481,9348
9231,9348
9139,9386
9068,9457
9061,9475
8450,9475
8442,9457
8372,9387
8280,9349
8181,9348
7931,9348
7839,9386
7805,9420
7771,9386
7680,9348
7618,9349
7555,9411
7555,9774
7563,9774
7563,9874
7555,9874
7555,10236
7618,10299
7680,10299
7758,10266
7758,10788
7638,10867
7606,10916
7574,10867
7455,10788
7455,10236
7455,9874
7455,9774
7455,9411
7393,9349
7331,9348
7239,9386
7168,9457
7130,9549
7130,9648
7130,9711
7193,9774
7455,9774
7455,9874
7193,9874
7130,9936
7130,9999
7130,10098
7168,10190
7239,10261
7331,10299
7393,10299
7455,10236
7455,10788
7365,10728
7119,10679
7093,10679
6847,10728
6638,10867
6606,10916
6574,10867
6365,10728
6155,10686
6155,8074
6155,7373
6155,7274
6117,7182
6046,7111
5955,7073
5818,7074
5755,7136
5755,7674
6093,7674
6155,7611
6155,7373
6155,8074
6155,7836
6093,7774
5755,7774
5755,8311
5818,8374
5955,8374
6046,8336
6117,8265
6155,8173
6155,8074
6155,10686
6119,10679
6093,10679
5847,10728
5638,10867
5606,10916
5574,10867
5365,10728
5119,10679
5093,10679
4847,10728
4805,10756
4805,10274
4805,9573
4805,9474
4767,9382
4696,9311
4605,9273
4368,9274
4305,9336
4305,9874
4743,9874
4805,9811
4805,9573
4805,10274
4805,10036
4743,9974
4305,9974
4305,10511
4368,10574
4605,10574
4696,10536
4767,10465
4805,10373
4805,10274
4805,10756
4638,10867
4599,10926
4484,10802
4256,10697
4205,10720
4205,10511
4205,9974
3768,9974
3705,10036
3705,10274
3705,10373
3743,10465
3814,10536
3906,10574
4143,10574
4205,10511
4205,10720
4156,10743
4156,11273
4164,11273
4164,11373
4156,11373
4156,11902
4256,11948
4484,11843
4599,11719
4638,11778
4847,11917
5093,11966
5119,11966
5365,11917
5574,11778
5606,11729
5638,11778
5847,11917
6093,11966
6119,11966
6365,11917
6574,11778
6606,11729
6638,11778
6847,11917
7093,11966
7119,11966
7365,11917
7574,11778
7606,11729
7638,11778
7847,11917
8093,11966
8119,11966
8365,11917
8574,11778
8606,11729
8638,11778
8847,11917
9093,11966
9119,11966
9365,11917
9574,11778
9605,11731
9636,11778
9757,11858
9757,12600
9703,12654
9630,12829
9630,13018
9702,13192
9758,13248
289,13248
289,402
10755,402
10703,454
10630,629
10630,818
10702,992
10756,1046
10756,1790
10636,1869
10604,1918
10572,1869
10363,1730
10117,1681
10091,1681
9845,1730
9636,1869
9605,1916
9574,1869
9365,1730
9119,1681
9093,1681
8847,1730
8638,1869
8606,1918
8574,1869
8365,1730
8119,1681
8093,1681
7847,1730
7638,1869
7606,1918
7574,1869
7365,1730
7119,1681
7093,1681
6847,1730
6638,1869
6606,1918
6574,1869
6365,1730
6119,1681
6093,1681
5847,1730
5638,1869
5606,1918
5574,1869
5365,1730
5119,1681
5093,1681
4847,1730
4638,1869
4606,1918
4574,1869
4365,1730
4119,1681
4093,1681
3847,1730
3638,1869
3606,1918
3574,1869
3365,1730
3119,1681
3093,1681
2847,1730
2638,1869
2499,2078
2450,2325
2499,2571
2638,2780
2847,2919
3093,2968
3119,2968
3365,2919
3574,2780
3606,2731
3638,2780
3847,2919
4093,2968
4119,2968
4365,2919
4574,2780
4606,2731
4638,2780
4847,2919
5093,2968
5119,2968
5365,2919
5574,2780
5606,2731
5638,2780
5847,2919
6093,2968
6119,2968
6365,2919
6574,2780
6606,2731
6638,2780
6758,2859
6758,3339
6726,3370
6658,3534
6658,3712
6726,3876
6852,4002
7016,4070
7194,4070
7358,4003
7484,3877
7552,3713
7552,3535
7484,3371
7454,3341
7454,2859
7574,2780
7606,2731
7638,2780
7758,2859
7758,3239
7726,3270
7658,3434
7658,3612
7726,3776
7852,3902
8016,3970
8194,3970
8358,3903
8484,3777
8552,3613
8552,3435
8484,3271
8454,3241
8454,2859
8574,2780
8606,2731
8638,2780
8847,2919
9093,2968
9119,2968
9365,2919
9574,2780
9605,2733
9636,2780
9845,2919
10091,2968
10117,2968
10363,2919
10572,2780
10604,2731
10636,2780
10845,2919
11091,2968
11117,2968
11363,2919
11572,2780
11604,2731
11636,2780
11845,2919
12091,2968
12117,2968
12363,2919
12572,2780
12604,2731
12636,2780
12845,2919
13091,2968
13117,2968
13363,2919
13572,2780
13604,2731
13636,2780
13845,2919
14091,2968
14117,2968
14363,2919
14572,2780
14604,2731
14636,2780
14845,2919
15091,2968
15117,2968
15363,2919
15572,2780
15604,2731
15636,2780
15845,2919
16091,2968
16117,2968
16363,2919
16572,2780
16711,2571
16760,2325
16711,2078
16572,1869
16363,1730
16117,1681
16091,1681
15845,1730
15636,1869
15604,1918
15572,1869
15452,1790
15452,1048
15507,993
15580,818
15580,629
15508,455
15455,402
18253,402
18253,4194
18117,4058
17915,3974
17748,3973
17701,3927
17588,3852
17566,3847
17455,3825
17455,3825
16869,3825
16805,3799
16706,3798
16206,3798
16114,3836
16043,3907
16005,3999
16005,4098
16005,4325
15999,4325
15853,4179
15853,4124
15853,3791
15918,3695
15952,3524
15918,3352
15821,3208
15676,3111
15505,3077
10205,3077
10034,3111
9889,3208
7120,5977
5775,5977
5775,5474
5775,4674
5737,4582
5667,4512
5575,4474
5476,4473
4036,4473
3944,4511
3873,4582
3835,4674
3835,4773
3835,5573
3873,5665
3943,5735
4035,5773
4135,5774
5575,5774
5666,5736
5737,5665
5775,5573
5775,5474
5775,5977
4350,5977
3905,5977
3734,6011
3589,6108
3052,6645
3052,3535
2984,3371
2858,3245
2694,3177
2651,3177
2351,2877
2238,2802
2216,2797
2105,2775
2105,2775
1855,2775
1855,2774
1817,2682
1747,2612
1655,2574
1556,2573
956,2573
864,2611
793,2682
755,2774
755,2873
755,3473
793,3565
863,3635
955,3673
977,3673
839,3812
755,4014
755,4232
838,4435
993,4589
1195,4673
1414,4674
1616,4590
1648,4559
1857,4768
1857,4923
1857,4924
1879,5035
1883,5057
1958,5169
1958,5212
2026,5376
2152,5502
2316,5570
2494,5570
2658,5503
2784,5377
2852,5213
2852,5035
2784,4871
2658,4745
2553,4701
2553,4624
2553,4624
2553,4624
2527,4490
2451,4377
2451,4377
1951,3877
1838,3802
1816,3797
1742,3782
1633,3674
1655,3674
1746,3636
1817,3565
1855,3473
1855,3472
1961,3472
2158,3669
2158,3712
2226,3876
2352,4002
2516,4070
2694,4070
2858,4003
2984,3877
3052,3713
3052,3535
3052,6645
2617,7079
2605,7077
1636,7077
1617,7058
1535,7024
1616,6990
1771,6835
1855,6633
1855,6415
1772,6212
1752,6193
1752,5586
1780,5518
1780,5329
1708,5155
1574,5021
1400,4949
1211,4948
1036,5021
903,5154
830,5329
830,5518
858,5586
858,6192
839,6212
755,6414
755,6632
838,6835
993,6989
1075,7023
994,7057
839,7212
755,7414
755,7632
838,7835
977,7974
955,7974
863,8012
793,8082
755,8174
755,8411
818,8474
1255,8474
1255,8466
1355,8466
1355,8474
1793,8474
1855,8411
1855,8174
1817,8082
1747,8012
1655,7974
1633,7974
1636,7970
2360,7970
2368,7990
2401,8024
2368,8057
2330,8149
2330,8211
2393,8274
2755,8274
2755,8266
2855,8266
2855,8274
3218,8274
3280,8211
3280,8170
3455,8170
3455,8173
3493,8265
3563,8335
3655,8373
3755,8374
4155,8374
4246,8336
4317,8265
4355,8173
4355,8173
4355,8173
4358,8181
4358,8338
4320,8377
3805,8377
3634,8411
3489,8508
3420,8577
3248,8577
3280,8498
3280,8436
3218,8374
2855,8374
2855,8636
2912,8693
2889,8708
2755,8842
2755,8636
2755,8374
2393,8374
2330,8436
2330,8498
2368,8590
2438,8660
2530,8698
2630,8699
2693,8699
2755,8636
2755,8842
2639,8958
2542,9102
2508,9274
2508,9317
2443,9382
2405,9474
2405,9573
2405,10373
2443,10465
2461,10483
1855,10483
1855,8873
1855,8636
1793,8574
1355,8574
1355,9011
1418,9074
1556,9074
1655,9073
1747,9035
1817,8965
1855,8873
1855,10483
1785,10483
1785,9787
1773,9599
1724,9481
1637,9463
1566,9533
1566,9392
1548,9304
1369,9243
1255,9251
1255,9011
1255,8574
818,8574
755,8636
755,8873
793,8965
863,9035
955,9073
1055,9074
1193,9074
1255,9011
1255,9251
1180,9256
1062,9304
1044,9392
1305,9653
1566,9392
1566,9533
1376,9724
1637,9984
1724,9966
1785,9787
1785,10483
1566,10483
1566,10055
1305,9794
1234,9865
1234,9724
973,9463
886,9481
825,9660
837,9848
886,9966
973,9984
1234,9724
1234,9865
1044,10055
1062,10143
1241,10204
1430,10191
1548,10143
1566,10055
1566,10483
1515,10483
1515,12046
2695,12046
2695,11816
2847,11917
3093,11966
3119,11966
3365,11917
3574,11778
3613,11719
3728,11843
3956,11948
4056,11902
4056,11373
4048,11373
4048,11273
4056,11273
4056,10743
3956,10697
3728,10802
3613,10926
3574,10867
3553,10854
3553,10075
3519,9903
3505,9883
3505,9474
3504,9470
3605,9470
3716,9448
3705,9474
3705,9573
3705,9811
3768,9874
4205,9874
4205,9336
4143,9274
3987,9273
3990,9270
4505,9270
4676,9236
4676,9236
4821,9139
5121,8839
5121,8839
5218,8695
5252,8524
5252,8524
5252,8181
5255,8173
5255,8123
5255,8173
5293,8265
5364,8336
5456,8374
5593,8374
5655,8311
5655,7774
5647,7774
5647,7674
5655,7674
5655,7136
5593,7074
5456,7073
5364,7111
5293,7182
5255,7274
5255,7274
5217,7182
5147,7112
5055,7074
4956,7073
4556,7073
4464,7111
4393,7182
4355,7274
4355,7274
4317,7182
4247,7112
4155,7074
4056,7073
3887,7073
4090,6870
4236,6870
4318,6952
4504,7029
4705,7029
4891,6953
4974,6870
7305,6870
7476,6836
7476,6836
7621,6739
10390,3970
13817,3970
13805,3999
13805,4061
13868,4124
14255,4124
14255,4116
14355,4116
14355,4124
14743,4124
14805,4061
14805,3999
14793,3970
15157,3970
15157,4124
15157,4323
15157,4324
15157,4324
15157,6623
15157,6624
15179,6735
15183,6757
15259,6870
15609,7220
15609,7220
15722,7295
15855,7322
15855,7322
15855,7322
16005,7322
16005,7398
16005,7648
16036,7724
16005,7799
16005,7898
16005,8148
16043,8240
16113,8310
16205,8348
16305,8349
16805,8349
16869,8322
17355,8322
17355,8322
17355,8322
17456,8302
17343,8414
17260,8615
17260,8831
17342,9032
17391,9081
17330,9229
17330,9418
17402,9592
17536,9726
17710,9798
17899,9799
18074,9726
18207,9593
18253,9482
18253,13248
" /> 
</g>
<g style="fill:#FFFFFF; fill-opacity:0.0; 
stroke:#FFFFFF; stroke-width:19.685; stroke-opacity:1; 
stroke-linecap:round; stroke-linejoin:round;">
</g>
<g style="fill:#FFFFFF; fill-opacity:1.0; 
stroke:#FFFFFF; stroke-width:19.685; stroke-opacity:1; 
stroke-linecap:round; stroke-linejoin:round;">
<circle cx="4605.51" cy="6524" r="147.638" /> 
<circle cx="17805.5" cy="8724" r="147.638" /> 
<circle cx="16105.5" cy="10224" r="108.268" /> 
<circle cx="8105.51" cy="3524" r="108.268" /> 
<circle cx="7105.51" cy="3624" r="108.268" /> 
<circle cx="8105.51" cy="7424" r="147.638" /> 
<circle cx="2605.51" cy="3624" r="108.268" /> 
<circle cx="2405.51" cy="5124" r="108.268" /> 
<circle cx="11305.5" cy="7624" r="108.268" /> 
<circle cx="14105.5" cy="724" r="115.157" /> 
<circle cx="15105.5" cy="724" r="115.157" /> 
<circle cx="12105.5" cy="724" r="115.157" /> 
<circle cx="11105.5" cy="724" r="115.157" /> 
<circle cx="10105.5" cy="12924" r="115.157" /> 
<circle cx="1305.51" cy="5424" r="115.157" /> 
<circle cx="17805.5" cy="9324" r="115.157" /> 
<circle cx="13105.5" cy="724" r="115.157" /> 
<circle cx="1305.51" cy="9724" r="115.157" /> 
<circle cx="17805.5" cy="7524" r="190.157" /> 
<circle cx="17805.5" cy="6524" r="190.157" /> 
<circle cx="17805.5" cy="5524" r="190.157" /> 
<circle cx="17805.5" cy="4524" r="190.157" /> 
<circle cx="1305.51" cy="8524" r="190.157" /> 
<circle cx="1305.51" cy="7524" r="190.157" /> 
<circle cx="1305.51" cy="6524" r="190.157" /> 
<circle cx="1305.51" cy="3124" r="190.157" /> 
<circle cx="1305.51" cy="4124" r="190.157" /> 
<circle cx="3106.51" cy="11323" r="186.657" /> 
<circle cx="3106.51" cy="2325" r="186.657" /> 
<circle cx="4106.51" cy="11323" r="186.657" /> 
<circle cx="4106.51" cy="2325" r="186.657" /> 
<circle cx="5106.51" cy="11323" r="186.657" /> 
<circle cx="5106.51" cy="2325" r="186.657" /> 
<circle cx="6106.51" cy="11323" r="186.657" /> 
<circle cx="6106.51" cy="2325" r="186.657" /> 
<circle cx="7106.51" cy="11323" r="186.657" /> 
<circle cx="7106.51" cy="2325" r="186.657" /> 
<circle cx="8106.51" cy="11323" r="186.657" /> 
<circle cx="8106.51" cy="2325" r="186.657" /> 
<circle cx="9106.51" cy="11323" r="186.657" /> 
<circle cx="9106.51" cy="2325" r="186.657" /> 
<circle cx="10104.5" cy="11323" r="186.657" /> 
<circle cx="10104.5" cy="2325" r="186.657" /> 
<circle cx="11104.5" cy="11323" r="186.657" /> 
<circle cx="11104.5" cy="2325" r="186.657" /> 
<circle cx="12104.5" cy="11323" r="186.657" /> 
<circle cx="12104.5" cy="2325" r="186.657" /> 
<circle cx="13104.5" cy="11323" r="186.657" /> 
<circle cx="13104.5" cy="2325" r="186.657" /> 
<circle cx="14104.5" cy="11323" r="186.657" /> 
<circle cx="14104.5" cy="2325" r="186.657" /> 
<circle cx="15104.5" cy="11323" r="186.657" /> 
<circle cx="15104.5" cy="2325" r="186.657" /> 
<circle cx="16104.5" cy="11323" r="186.657" /> 
<circle cx="16104.5" cy="2325" r="186.657" /> 
</g> 
</svg>
