<?xml version="1.0" standalone="no"?>
 <!DOCTYPE svg PUBLIC "-//W3C//DTD SVG 1.1//EN" 
 "http://www.w3.org/Graphics/SVG/1.1/DTD/svg11.dtd"> 
<svg xmlns="http://www.w3.org/2000/svg" version="1.1" 
    width="4.86156cm" height="3.46456cm" viewBox="0 0 19140 13640 ">
<title>SVG Picture created as MCU_module-F_Cu.svg date 2014/12/28 18:36:07 </title>
  <desc>Picture generated by PCBNEW </desc>
<g style="fill:#000000; fill-opacity:1;stroke:#000000; stroke-opacity:1;
stroke-linecap:round; stroke-linejoin:round; "
 transform="translate(0 0) scale(1 1)">
</g>
<g style="fill:#000000; fill-opacity:0.0; 
stroke:#000000; stroke-width:39.3701; stroke-opacity:1; 
stroke-linecap:round; stroke-linejoin:round;">
<path d="M19 121
L19 13507
" />
<path d="M18523 121
L19 121
" />
<path d="M18523 13507
L18523 121
" />
<path d="M19 13507
L18523 13507
" />
</g>
<g style="fill:#000000; fill-opacity:0.0; 
stroke:#000000; stroke-width:118.11; stroke-opacity:1; 
stroke-linecap:round; stroke-linejoin:round;">
<path d="M1082 2066
L1053 2009
L1053 1925
L1082 1841
L1138 1784
L1194 1756
L1307 1728
L1391 1728
L1503 1756
L1560 1784
L1616 1841
L1644 1925
L1644 1981
L1616 2066
L1588 2094
L1391 2094
L1391 1981
" />
<path d="M1644 2347
L1053 2347
L1644 2684
L1053 2684
" />
<path d="M1644 2965
L1053 2965
L1053 3106
L1082 3190
L1138 3247
L1194 3275
L1307 3303
L1391 3303
L1503 3275
L1560 3247
L1616 3190
L1644 3106
L1644 2965
" />
</g>
<g style="fill:#000000; fill-opacity:0.0; 
stroke:#000000; stroke-width:78.7402; stroke-opacity:1; 
stroke-linecap:round; stroke-linejoin:round;">
<path d="M371 6209
L371 6022
L558 6003
L539 6022
L521 6059
L521 6153
L539 6190
L558 6209
L596 6228
L689 6228
L727 6209
L746 6190
L764 6153
L764 6059
L746 6022
L727 6003
" />
<path d="M864 7641
L864 7416
" />
<path d="M864 7528
L471 7528
L527 7491
L564 7453
L583 7416
" />
<path d="M508 7790
L489 7809
L471 7847
L471 7940
L489 7978
L508 7997
L546 8015
L583 8015
L639 7997
L864 7772
L864 8015
" />
</g>
<g style="fill:#000000; fill-opacity:0.0; 
stroke:#000000; stroke-width:118.11; stroke-opacity:1; 
stroke-linecap:round; stroke-linejoin:round;">
<path d="M853 10872
L853 11209
" />
<path d="M1444 11041
L853 11041
" />
<path d="M1444 11406
L1050 11406
" />
<path d="M1163 11406
L1107 11434
L1078 11462
L1050 11519
L1050 11575
" />
<path d="M1444 12025
L1135 12025
L1078 11997
L1050 11940
L1050 11828
L1078 11772
" />
<path d="M1416 12025
L1444 11969
L1444 11828
L1416 11772
L1360 11744
L1303 11744
L1247 11772
L1219 11828
L1219 11969
L1191 12025
" />
<path d="M1050 12250
L1444 12390
" />
<path d="M1050 12531
L1444 12390
L1585 12334
L1613 12306
L1641 12250
" />
</g>
<g style="fill:#000000; fill-opacity:0.0; 
stroke:#000000; stroke-width:98.4252; stroke-opacity:1; 
stroke-linecap:round; stroke-linejoin:round;">
<path d="M937 12962
L993 12944
L1012 12925
L1030 12887
L1030 12831
L1012 12794
L993 12775
L955 12756
L806 12756
L806 13150
L937 13150
L974 13131
L993 13112
L1012 13075
L1012 13037
L993 13000
L974 12981
L937 12962
L806 12962
" />
<path d="M1143 13150
L1368 13150
" />
<path d="M1255 12756
L1255 13150
" />
<path d="M1499 12756
L1499 13150
L1724 12756
L1724 13150
" />
<path d="M1893 13112
L1912 13131
L1949 13150
L2043 13150
L2080 13131
L2099 13112
L2118 13075
L2118 13037
L2099 12981
L1874 12756
L2118 12756
" />
<path d="M2305 12775
L2305 12756
L2287 12719
L2268 12700
" />
<path d="M2605 12962
L2662 12944
L2680 12925
L2699 12887
L2699 12831
L2680 12794
L2662 12775
L2624 12756
L2474 12756
L2474 13150
L2605 13150
L2643 13131
L2662 13112
L2680 13075
L2680 13037
L2662 13000
L2643 12981
L2605 12962
L2474 12962
" />
<path d="M2811 13150
L3036 13150
" />
<path d="M2924 12756
L2924 13150
" />
<path d="M3168 12756
L3168 13150
L3393 12756
L3393 13150
" />
<path d="M3786 12756
L3561 12756
" />
<path d="M3674 12756
L3674 13150
L3636 13094
L3599 13056
L3561 13037
" />
<path d="M3974 12775
L3974 12756
L3955 12719
L3936 12700
" />
<path d="M4143 12756
L4143 13150
L4293 13150
L4330 13131
L4349 13112
L4368 13075
L4368 13019
L4349 12981
L4330 12962
L4293 12944
L4143 12944
" />
<path d="M4536 12962
L4668 12962
" />
<path d="M4724 12756
L4536 12756
L4536 13150
L4724 13150
" />
<path d="M4892 12756
L4892 13150
L4986 13150
L5042 13131
L5080 13094
L5099 13056
L5117 12981
L5117 12925
L5099 12850
L5080 12812
L5042 12775
L4986 12756
L4892 12756
" />
<path d="M5267 12869
L5455 12869
" />
<path d="M5230 12756
L5361 13150
L5492 12756
" />
<path d="M5811 12756
L5624 12756
L5624 13150
" />
<path d="M5961 12775
L5961 12756
L5942 12719
L5924 12700
" />
<path d="M6130 13150
L6130 12831
L6149 12794
L6167 12775
L6205 12756
L6280 12756
L6317 12775
L6336 12794
L6355 12831
L6355 13150
" />
<path d="M6542 12756
L6542 13150
L6692 13150
L6730 13131
L6749 13112
L6767 13075
L6767 13019
L6749 12981
L6730 12962
L6692 12944
L6542 12944
" />
<path d="M6955 12775
L6955 12756
L6936 12719
L6917 12700
" />
<path d="M7123 12756
L7123 13150
L7217 13150
L7273 13131
L7311 13094
L7330 13056
L7348 12981
L7348 12925
L7330 12850
L7311 12812
L7273 12775
L7217 12756
L7123 12756
" />
<path d="M7592 13150
L7667 13150
L7705 13131
L7742 13094
L7761 13019
L7761 12887
L7742 12812
L7705 12775
L7667 12756
L7592 12756
L7555 12775
L7517 12812
L7498 12887
L7498 13019
L7517 13094
L7555 13131
L7592 13150
" />
<path d="M7892 13150
L7986 12756
L8061 13037
L8136 12756
L8230 13150
" />
<path d="M8380 12756
L8380 13150
L8605 12756
L8605 13150
" />
</g>
<g style="fill:#000000; fill-opacity:0.0; 
stroke:#000000; stroke-width:118.11; stroke-opacity:1; 
stroke-linecap:round; stroke-linejoin:round;">
<path d="M18116 10131
L18144 10216
L18144 10356
L18116 10412
L18088 10441
L18032 10469
L17975 10469
L17919 10441
L17891 10412
L17863 10356
L17835 10244
L17807 10187
L17778 10159
L17722 10131
L17666 10131
L17610 10159
L17582 10187
L17553 10244
L17553 10384
L17582 10469
" />
<path d="M17553 10637
L17553 10975
" />
<path d="M18144 10806
L17553 10806
" />
<path d="M18144 11172
L17553 11172
L17553 11397
L17582 11453
L17610 11481
L17666 11509
L17750 11509
L17807 11481
L17835 11453
L17863 11397
L17863 11172
" />
<path d="M18144 12100
L17863 11903
" />
<path d="M18144 11762
L17553 11762
L17553 11987
L17582 12044
L17610 12072
L17666 12100
L17750 12100
L17807 12072
L17835 12044
L17863 11987
L17863 11762
" />
<path d="M18044 1461
L17453 1461
L17453 1602
L17482 1686
L17538 1742
L17594 1770
L17707 1798
L17791 1798
L17903 1770
L17960 1742
L18016 1686
L18044 1602
L18044 1461
" />
<path d="M18044 2389
L17763 2192
" />
<path d="M18044 2051
L17453 2051
L17453 2276
L17482 2333
L17510 2361
L17566 2389
L17650 2389
L17707 2361
L17735 2333
L17763 2276
L17763 2051
" />
<path d="M18044 2923
L18044 2642
L17453 2642
" />
<path d="M17819 3120
L17819 3570
" />
<path d="M10816 476
L10816 1067
L11041 1067
L11097 1039
L11125 1011
L11153 955
L11153 870
L11125 814
L11097 786
L11041 758
L10816 758
" />
<path d="M11519 1067
L11632 1067
L11688 1039
L11744 983
L11772 870
L11772 673
L11744 561
L11688 505
L11632 476
L11519 476
L11463 505
L11407 561
L11378 673
L11378 870
L11407 983
L11463 1039
L11519 1067
" />
<path d="M11941 1067
L12278 1067
" />
<path d="M12110 476
L12110 1067
" />
<path d="M2274 2076
L1936 2076
" />
<path d="M2105 2076
L2105 2667
L2049 2583
L1993 2526
L1936 2498
" />
</g>
<g style="fill:#000000; fill-opacity:0.0; 
stroke:#000000; stroke-width:19.685; stroke-opacity:1; 
stroke-linecap:round; stroke-linejoin:round;">
</g>
<g style="fill:#000000; fill-opacity:1.0; 
stroke:#000000; stroke-width:19.685; stroke-opacity:1; 
stroke-linecap:round; stroke-linejoin:round;">
<circle cx="14105.5" cy="12916" r="215.157" /> 
<circle cx="15105.5" cy="12916" r="215.157" /> 
<circle cx="12105.5" cy="12916" r="215.157" /> 
<circle cx="11105.5" cy="12916" r="215.157" /> 
<circle cx="10105.5" cy="716" r="215.157" /> 
<circle cx="1305.51" cy="8216" r="215.157" /> 
<circle cx="17805.5" cy="4316" r="215.157" /> 
<circle cx="13105.5" cy="12916" r="215.157" /> 
<circle cx="1305.51" cy="3916" r="215.157" /> 
<polyline style="fill-rule:evenodd;"
points="18095,5825
17515,5825
17515,6406
18095,6406
18095,5825
" /> 
<circle cx="17805.5" cy="7116" r="290.157" /> 
<circle cx="17805.5" cy="8116" r="290.157" /> 
<circle cx="17805.5" cy="9116" r="290.157" /> 
<polyline style="fill-rule:evenodd;"
points="1595,4825
1015,4825
1015,5406
1595,5406
1595,4825
" /> 
<circle cx="1305.51" cy="6116" r="290.157" /> 
<circle cx="1305.51" cy="7116" r="290.157" /> 
<polyline style="fill-rule:evenodd;"
points="1015,10806
1595,10806
1595,10225
1015,10225
1015,10806
" /> 
<circle cx="1305.51" cy="9516" r="290.157" /> 
</g>
<g style="fill:#000000; fill-opacity:1.0; 
stroke:#000000; stroke-width:787; stroke-opacity:1; 
stroke-linecap:round; stroke-linejoin:round;">
<path d="M3106 2317
L3106 2317
" />
<path d="M3106 11315
L3106 11315
" />
<path d="M4106 2317
L4106 2317
" />
<path d="M4106 11315
L4106 11315
" />
<path d="M5106 2317
L5106 2317
" />
<path d="M5106 11315
L5106 11315
" />
<path d="M6106 2317
L6106 2317
" />
<path d="M6106 11315
L6106 11315
" />
<path d="M7106 2317
L7106 2317
" />
<path d="M7106 11315
L7106 11315
" />
<path d="M8106 2317
L8106 2317
" />
<path d="M8106 11315
L8106 11315
" />
<path d="M9106 2317
L9106 2317
" />
<path d="M9106 11315
L9106 11315
" />
<path d="M10104 2317
L10104 2317
" />
<path d="M10104 11315
L10104 11315
" />
<path d="M11104 2317
L11104 2317
" />
<path d="M11104 11315
L11104 11315
" />
<path d="M12104 2317
L12104 2317
" />
<path d="M12104 11315
L12104 11315
" />
<path d="M13104 2317
L13104 2317
" />
<path d="M13104 11315
L13104 11315
" />
<path d="M14104 2317
L14104 2317
" />
<path d="M14104 11315
L14104 11315
" />
<path d="M15104 2317
L15104 2317
" />
<path d="M15104 11315
L15104 11315
" />
<path d="M16104 2317
L16104 2317
" />
<path d="M16104 11315
L16104 11315
" />
</g>
<g style="fill:#000000; fill-opacity:1.0; 
stroke:#000000; stroke-width:19.685; stroke-opacity:1; 
stroke-linecap:round; stroke-linejoin:round;">
<polyline style="fill-rule:evenodd;"
points="3665,9681
4145,9681
4145,9450
3665,9450
3665,9681
" /> 
<polyline style="fill-rule:evenodd;"
points="3665,9181
4145,9181
4145,8950
3665,8950
3665,9181
" /> 
<polyline style="fill-rule:evenodd;"
points="3665,8681
4145,8681
4145,8450
3665,8450
3665,8681
" /> 
<polyline style="fill-rule:evenodd;"
points="3665,8181
4145,8181
4145,7950
3665,7950
3665,8181
" /> 
<polyline style="fill-rule:evenodd;"
points="5865,8181
6345,8181
6345,7950
5865,7950
5865,8181
" /> 
<polyline style="fill-rule:evenodd;"
points="5865,8681
6345,8681
6345,8450
5865,8450
5865,8681
" /> 
<polyline style="fill-rule:evenodd;"
points="5865,9181
6345,9181
6345,8950
5865,8950
5865,9181
" /> 
<polyline style="fill-rule:evenodd;"
points="5865,9681
6345,9681
6345,9450
5865,9450
5865,9681
" /> 
<polyline style="fill-rule:evenodd;"
points="16815,6625
16913,6625
16913,6211
16815,6211
16815,6625
" /> 
<polyline style="fill-rule:evenodd;"
points="16559,6625
16657,6625
16657,6211
16559,6211
16559,6625
" /> 
<polyline style="fill-rule:evenodd;"
points="16303,6625
16401,6625
16401,6211
16303,6211
16303,6625
" /> 
<polyline style="fill-rule:evenodd;"
points="16047,6625
16145,6625
16145,6211
16047,6211
16047,6625
" /> 
<polyline style="fill-rule:evenodd;"
points="16047,4420
16145,4420
16145,4006
16047,4006
16047,4420
" /> 
<polyline style="fill-rule:evenodd;"
points="16303,4420
16401,4420
16401,4006
16303,4006
16303,4420
" /> 
<polyline style="fill-rule:evenodd;"
points="16559,4420
16657,4420
16657,4006
16559,4006
16559,4420
" /> 
<polyline style="fill-rule:evenodd;"
points="16815,4420
16913,4420
16913,4006
16815,4006
16815,4420
" /> 
<circle cx="4605.51" cy="7116" r="246.063" /> 
<circle cx="17805.5" cy="4916" r="285.433" /> 
<circle cx="16105.5" cy="3416" r="187.008" /> 
<circle cx="8105.51" cy="10116" r="187.008" /> 
<circle cx="7105.51" cy="10016" r="187.008" /> 
<circle cx="8105.51" cy="6216" r="246.063" /> 
<circle cx="2605.51" cy="10016" r="187.008" /> 
<circle cx="2405.51" cy="8516" r="187.008" /> 
<circle cx="11305.5" cy="6016" r="187.008" /> 
</g>
<g style="fill:#000000; fill-opacity:1.0; 
stroke:#000000; stroke-width:100; stroke-opacity:1; 
stroke-linecap:round; stroke-linejoin:round;">
<path d="M10305 12916
L9905 12516
" />
<path d="M9905 13316
L10305 12916
" />
<path d="M10305 12916
L9105 12916
" />
</g>
<g style="fill:#000000; fill-opacity:1.0; 
stroke:#000000; stroke-width:196.85; stroke-opacity:1; 
stroke-linecap:round; stroke-linejoin:round;">
<path d="M3955 9066
L3905 9066
" />
<path d="M4505 8516
L3955 9066
" />
<path d="M4505 7216
L4505 8516
" />
<path d="M4605 7116
L4505 7216
" />
<path d="M3905 8566
L3905 9066
" />
<path d="M17105 4916
L17805 4916
" />
<path d="M17105 6216
L17105 4916
" />
<path d="M17105 4916
L17105 4416
" />
</g>
<g style="fill:#000000; fill-opacity:1.0; 
stroke:#000000; stroke-width:100; stroke-opacity:1; 
stroke-linecap:round; stroke-linejoin:round;">
<path d="M16903 6418
L17105 6216
" />
<path d="M16864 6418
L16903 6418
" />
<path d="M16903 4213
L17105 4416
" />
<path d="M16903 4213
L16864 4213
" />
<path d="M16096 3424
L16096 6418
" />
<path d="M16105 3416
L16096 3424
" />
</g>
<g style="fill:#000000; fill-opacity:1.0; 
stroke:#000000; stroke-width:196.85; stroke-opacity:1; 
stroke-linecap:round; stroke-linejoin:round;">
<path d="M6105 8566
L7155 8566
" />
<path d="M8105 9516
L8105 10116
" />
<path d="M7155 8566
L8105 9516
" />
<path d="M6105 9066
L6655 9066
" />
<path d="M7105 9516
L7105 10016
" />
<path d="M6655 9066
L7105 9516
" />
<path d="M6105 8066
L6255 8066
" />
<path d="M6255 8066
L8105 6216
" />
<path d="M5105 9216
L5105 8816
" />
<path d="M6105 8066
L5555 8066
" />
<path d="M5555 8066
L5105 8516
" />
<path d="M5105 8516
L5105 8816
" />
<path d="M5455 9566
L6105 9566
" />
<path d="M5105 9216
L5455 9566
" />
<path d="M3905 9566
L3055 9566
" />
<path d="M3055 9566
L2605 10016
" />
<path d="M3905 8066
L2855 8066
" />
<path d="M2855 8066
L2405 8516
" />
</g>
<g style="fill:#000000; fill-opacity:1.0; 
stroke:#000000; stroke-width:393.701; stroke-opacity:1; 
stroke-linecap:round; stroke-linejoin:round;">
<path d="M16305 7316
L12605 7316
" />
</g>
<g style="fill:#000000; fill-opacity:1.0; 
stroke:#000000; stroke-width:196.85; stroke-opacity:1; 
stroke-linecap:round; stroke-linejoin:round;">
<path d="M16505 7116
L16305 7316
" />
<path d="M16505 6416
L16505 7116
" />
</g>
<g style="fill:#000000; fill-opacity:1.0; 
stroke:#000000; stroke-width:393.701; stroke-opacity:1; 
stroke-linecap:round; stroke-linejoin:round;">
<path d="M12605 7316
L11305 6016
" />
</g>
<g style="fill:#000000; fill-opacity:1.0; 
stroke:#000000; stroke-width:196.85; stroke-opacity:1; 
stroke-linecap:round; stroke-linejoin:round;">
<path d="M16505 6418
L16505 6416
" />
<path d="M16505 6416
L16505 4213
" />
</g>
<g style="fill:#000000; fill-opacity:1.0; 
stroke:#000000; stroke-width:100; stroke-opacity:1; 
stroke-linecap:round; stroke-linejoin:round;">
<path d="M16608 6418
L16505 6418
" />
<path d="M16505 6418
L16352 6418
" />
<path d="M16608 4213
L16505 4213
" />
<path d="M16505 4213
L16352 4213
" />
</g>
<g style="fill:#000000; fill-opacity:1.0; 
stroke:#000000; stroke-width:19.685; stroke-opacity:1; 
stroke-linecap:round; stroke-linejoin:round;">
<polyline style="fill-rule:evenodd;"
points="16898,1520
16760,1381
16760,2317
16711,2563
16572,2772
16363,2911
16117,2960
16091,2960
15845,2911
15636,2772
15604,2723
15572,2772
15363,2911
15117,2960
15091,2960
14845,2911
14636,2772
14604,2723
14572,2772
14363,2911
14117,2960
14091,2960
13845,2911
13636,2772
13604,2723
13572,2772
13363,2911
13117,2960
13091,2960
12845,2911
12636,2772
12604,2723
12572,2772
12363,2911
12117,2960
12091,2960
11845,2911
11636,2772
11604,2723
11572,2772
11363,2911
11117,2960
11091,2960
10845,2911
10636,2772
10604,2723
10572,2772
10363,2911
10117,2960
10091,2960
9845,2911
9636,2772
9605,2725
9574,2772
9365,2911
9119,2960
9093,2960
8847,2911
8638,2772
8606,2723
8574,2772
8552,2786
8552,10204
8484,10368
8358,10494
8194,10562
8017,10562
7852,10495
7726,10369
7658,10205
7658,10027
7726,9863
7757,9832
7757,9660
7011,8914
6996,8914
7351,9269
7351,9269
7351,9269
7427,9382
7453,9516
7453,9516
7453,9516
7453,9732
7484,9762
7552,9926
7552,10104
7484,10268
7358,10394
7194,10462
7017,10462
6852,10395
6726,10269
6658,10105
6658,9927
6726,9763
6757,9732
6757,9660
6605,9508
6605,9740
6567,9832
6497,9902
6405,9940
6306,9941
6218,9941
6155,9878
6155,9616
6543,9616
6605,9678
6605,9740
6605,9508
6577,9481
6543,9516
6155,9516
6155,9508
6055,9508
6055,9516
6055,9616
6055,9878
5993,9941
5905,9941
5805,9940
5713,9902
5643,9832
5605,9740
5605,9678
5668,9616
6055,9616
6055,9516
5668,9516
5605,9453
5605,9391
5636,9315
5605,9240
5605,9141
5605,8891
5636,8815
5605,8740
5605,8641
5605,8391
5636,8316
5605,8240
5605,8178
5668,8116
6055,8116
6055,8123
6155,8123
6155,8116
6543,8116
6605,8178
6605,8217
7155,8217
7155,8217
7155,8217
7266,8239
7288,8244
7288,8244
7401,8319
8351,9269
8351,9269
8351,9269
8427,9382
8453,9516
8453,9832
8484,9862
8552,10026
8552,10204
8552,2786
8365,2911
8119,2960
8093,2960
7847,2911
7638,2772
7606,2723
7574,2772
7365,2911
7119,2960
7093,2960
6847,2911
6638,2772
6606,2723
6605,2725
6605,7891
6605,7953
6543,8016
6155,8016
6155,7753
6218,7691
6306,7690
6405,7691
6497,7729
6567,7799
6605,7891
6605,2725
6574,2772
6365,2911
6119,2960
6093,2960
6055,2952
6055,7753
6055,8016
5668,8016
5605,7953
5605,7891
5643,7799
5713,7729
5805,7691
5905,7690
5993,7691
6055,7753
6055,2952
5847,2911
5638,2772
5606,2723
5574,2772
5365,2911
5119,2960
5093,2960
4847,2911
4638,2772
4599,2713
4484,2837
4256,2942
4156,2896
4156,2367
4164,2367
4164,2267
4156,2267
4156,1737
4256,1691
4484,1796
4599,1920
4638,1861
4847,1722
5093,1673
5119,1673
5365,1722
5574,1861
5606,1910
5638,1861
5847,1722
6093,1673
6119,1673
6365,1722
6574,1861
6606,1910
6638,1861
6847,1722
7093,1673
7119,1673
7365,1722
7574,1861
7606,1910
7638,1861
7847,1722
8093,1673
8119,1673
8365,1722
8574,1861
8606,1910
8638,1861
8847,1722
9093,1673
9119,1673
9365,1722
9574,1861
9605,1908
9636,1861
9845,1722
10091,1673
10117,1673
10363,1722
10572,1861
10604,1910
10636,1861
10845,1722
11091,1673
11117,1673
11363,1722
11572,1861
11604,1910
11636,1861
11845,1722
12091,1673
12117,1673
12363,1722
12572,1861
12604,1910
12636,1861
12845,1722
13091,1673
13117,1673
13363,1722
13572,1861
13604,1910
13636,1861
13845,1722
14091,1673
14117,1673
14363,1722
14572,1861
14604,1910
14636,1861
14845,1722
15091,1673
15117,1673
15363,1722
15572,1861
15604,1910
15636,1861
15845,1722
16091,1673
16117,1673
16363,1722
16572,1861
16711,2070
16760,2317
16760,1381
16731,1352
12644,1352
12644,1556
10366,1556
10366,1352
2205,1352
2127,1430
2127,1593
2695,1593
2695,1823
2847,1722
3093,1673
3119,1673
3365,1722
3574,1861
3613,1920
3728,1796
3956,1691
4056,1737
4056,2267
4048,2267
4048,2367
4056,2367
4056,2896
3956,2942
3728,2837
3613,2713
3574,2772
3365,2911
3119,2960
3093,2960
2847,2911
2695,2810
2695,3156
2127,3156
2127,3724
2038,3724
2038,8251
2152,8137
2316,8069
2359,8069
2609,7819
2609,7819
2722,7744
2855,7717
2855,7717
2855,7717
3541,7717
3605,7691
3705,7690
4157,7690
4157,7355
4099,7217
4099,7015
4176,6829
4318,6687
4504,6610
4705,6610
4891,6686
5034,6829
5111,7014
5111,7216
5034,7402
4892,7544
4853,7560
4853,8516
4827,8649
4751,8762
4751,8762
4405,9108
4405,9240
4374,9316
4405,9391
4405,9490
4405,9740
4367,9832
4297,9902
4205,9940
4106,9941
3606,9941
3541,9914
3199,9914
3052,10061
3052,10104
2984,10268
2858,10394
2694,10462
2517,10462
2352,10395
2226,10269
2158,10105
2158,9927
2226,9763
2352,9637
2516,9569
2559,9569
2809,9319
2809,9319
2922,9244
3055,9217
3055,9217
3055,9217
3405,9217
3405,9141
3405,8891
3436,8815
3405,8740
3405,8641
3405,8414
2999,8414
2852,8561
2852,8604
2784,8768
2658,8894
2494,8962
2317,8962
2152,8895
2038,8780
2038,12108
2205,12276
9734,12276
9790,12238
9905,12216
10020,12238
10076,12276
16731,12276
16898,12108
16898,6884
16873,6884
16853,6884
16853,7116
16827,7249
16760,7349
16760,11315
16711,11561
16572,11770
16363,11909
16117,11958
16091,11958
15845,11909
15636,11770
15604,11721
15572,11770
15363,11909
15117,11958
15091,11958
14845,11909
14636,11770
14604,11721
14572,11770
14363,11909
14117,11958
14091,11958
13845,11909
13636,11770
13604,11721
13572,11770
13363,11909
13117,11958
13091,11958
12845,11909
12636,11770
12604,11721
12572,11770
12363,11909
12117,11958
12091,11958
11845,11909
11636,11770
11604,11721
11572,11770
11363,11909
11117,11958
11091,11958
10845,11909
10636,11770
10604,11721
10572,11770
10363,11909
10117,11958
10091,11958
9845,11909
9636,11770
9605,11723
9574,11770
9365,11909
9119,11958
9093,11958
8847,11909
8638,11770
8606,11721
8574,11770
8365,11909
8119,11958
8093,11958
7847,11909
7638,11770
7606,11721
7574,11770
7365,11909
7119,11958
7093,11958
6847,11909
6638,11770
6606,11721
6574,11770
6365,11909
6119,11958
6093,11958
5847,11909
5638,11770
5606,11721
5574,11770
5365,11909
5119,11958
5093,11958
4847,11909
4638,11770
4606,11721
4574,11770
4365,11909
4119,11958
4093,11958
3847,11909
3638,11770
3606,11721
3574,11770
3365,11909
3119,11958
3093,11958
2847,11909
2638,11770
2499,11561
2450,11315
2499,11068
2638,10859
2847,10720
3093,10671
3119,10671
3365,10720
3574,10859
3606,10908
3638,10859
3847,10720
4093,10671
4119,10671
4365,10720
4574,10859
4606,10908
4638,10859
4847,10720
5093,10671
5119,10671
5365,10720
5574,10859
5606,10908
5638,10859
5847,10720
6093,10671
6119,10671
6365,10720
6574,10859
6606,10908
6638,10859
6847,10720
7093,10671
7119,10671
7365,10720
7574,10859
7606,10908
7638,10859
7847,10720
8093,10671
8119,10671
8365,10720
8574,10859
8606,10908
8638,10859
8847,10720
9093,10671
9119,10671
9365,10720
9574,10859
9605,10906
9636,10859
9845,10720
10091,10671
10117,10671
10363,10720
10572,10859
10604,10908
10636,10859
10845,10720
11091,10671
11117,10671
11363,10720
11572,10859
11604,10908
11636,10859
11845,10720
12091,10671
12117,10671
12363,10720
12572,10859
12604,10908
12636,10859
12845,10720
13091,10671
13117,10671
13363,10720
13572,10859
13604,10908
13636,10859
13845,10720
14091,10671
14117,10671
14363,10720
14572,10859
14604,10908
14636,10859
14845,10720
15091,10671
15117,10671
15363,10720
15572,10859
15604,10908
15636,10859
15845,10720
16091,10671
16117,10671
16363,10720
16572,10859
16711,11068
16760,11315
16760,7349
16751,7362
16751,7362
16740,7373
16718,7487
16621,7631
16476,7728
16305,7762
12605,7762
12434,7728
12289,7631
10989,6332
10926,6269
10858,6105
10858,5927
10926,5763
10989,5700
11052,5637
11216,5569
11305,5569
11394,5569
11476,5603
11558,5636
11621,5700
11684,5762
11684,5762
12790,6869
15949,6869
15896,6846
15825,6776
15787,6684
15787,6585
15787,6152
15796,6130
15796,4501
15787,4480
15787,4380
15787,3947
15796,3925
15796,3739
15726,3669
15658,3505
15658,3327
15726,3163
15852,3037
16016,2969
16194,2969
16358,3036
16484,3162
16552,3326
16552,3504
16484,3668
16406,3747
16461,3747
16480,3755
16499,3747
16598,3747
16717,3747
16736,3755
16755,3747
16854,3747
16898,3747
16898,1520
" /> 
</g>
<g style="fill:#000000; fill-opacity:0.0; 
stroke:#000000; stroke-width:100; stroke-opacity:1; 
stroke-linecap:round; stroke-linejoin:round;">
<polyline fill="none;"
points="16898,1520
16760,1381
16760,2317
16711,2563
16572,2772
16363,2911
16117,2960
16091,2960
15845,2911
15636,2772
15604,2723
15572,2772
15363,2911
15117,2960
15091,2960
14845,2911
14636,2772
14604,2723
14572,2772
14363,2911
14117,2960
14091,2960
13845,2911
13636,2772
13604,2723
13572,2772
13363,2911
13117,2960
13091,2960
12845,2911
12636,2772
12604,2723
12572,2772
12363,2911
12117,2960
12091,2960
11845,2911
11636,2772
11604,2723
11572,2772
11363,2911
11117,2960
11091,2960
10845,2911
10636,2772
10604,2723
10572,2772
10363,2911
10117,2960
10091,2960
9845,2911
9636,2772
9605,2725
9574,2772
9365,2911
9119,2960
9093,2960
8847,2911
8638,2772
8606,2723
8574,2772
8552,2786
8552,10204
8484,10368
8358,10494
8194,10562
8017,10562
7852,10495
7726,10369
7658,10205
7658,10027
7726,9863
7757,9832
7757,9660
7011,8914
6996,8914
7351,9269
7351,9269
7351,9269
7427,9382
7453,9516
7453,9516
7453,9516
7453,9732
7484,9762
7552,9926
7552,10104
7484,10268
7358,10394
7194,10462
7017,10462
6852,10395
6726,10269
6658,10105
6658,9927
6726,9763
6757,9732
6757,9660
6605,9508
6605,9740
6567,9832
6497,9902
6405,9940
6306,9941
6218,9941
6155,9878
6155,9616
6543,9616
6605,9678
6605,9740
6605,9508
6577,9481
6543,9516
6155,9516
6155,9508
6055,9508
6055,9516
6055,9616
6055,9878
5993,9941
5905,9941
5805,9940
5713,9902
5643,9832
5605,9740
5605,9678
5668,9616
6055,9616
6055,9516
5668,9516
5605,9453
5605,9391
5636,9315
5605,9240
5605,9141
5605,8891
5636,8815
5605,8740
5605,8641
5605,8391
5636,8316
5605,8240
5605,8178
5668,8116
6055,8116
6055,8123
6155,8123
6155,8116
6543,8116
6605,8178
6605,8217
7155,8217
7155,8217
7155,8217
7266,8239
7288,8244
7288,8244
7401,8319
8351,9269
8351,9269
8351,9269
8427,9382
8453,9516
8453,9832
8484,9862
8552,10026
8552,10204
8552,2786
8365,2911
8119,2960
8093,2960
7847,2911
7638,2772
7606,2723
7574,2772
7365,2911
7119,2960
7093,2960
6847,2911
6638,2772
6606,2723
6605,2725
6605,7891
6605,7953
6543,8016
6155,8016
6155,7753
6218,7691
6306,7690
6405,7691
6497,7729
6567,7799
6605,7891
6605,2725
6574,2772
6365,2911
6119,2960
6093,2960
6055,2952
6055,7753
6055,8016
5668,8016
5605,7953
5605,7891
5643,7799
5713,7729
5805,7691
5905,7690
5993,7691
6055,7753
6055,2952
5847,2911
5638,2772
5606,2723
5574,2772
5365,2911
5119,2960
5093,2960
4847,2911
4638,2772
4599,2713
4484,2837
4256,2942
4156,2896
4156,2367
4164,2367
4164,2267
4156,2267
4156,1737
4256,1691
4484,1796
4599,1920
4638,1861
4847,1722
5093,1673
5119,1673
5365,1722
5574,1861
5606,1910
5638,1861
5847,1722
6093,1673
6119,1673
6365,1722
6574,1861
6606,1910
6638,1861
6847,1722
7093,1673
7119,1673
7365,1722
7574,1861
7606,1910
7638,1861
7847,1722
8093,1673
8119,1673
8365,1722
8574,1861
8606,1910
8638,1861
8847,1722
9093,1673
9119,1673
9365,1722
9574,1861
9605,1908
9636,1861
9845,1722
10091,1673
10117,1673
10363,1722
10572,1861
10604,1910
10636,1861
10845,1722
11091,1673
11117,1673
11363,1722
11572,1861
11604,1910
11636,1861
11845,1722
12091,1673
12117,1673
12363,1722
12572,1861
12604,1910
12636,1861
12845,1722
13091,1673
13117,1673
13363,1722
13572,1861
13604,1910
13636,1861
13845,1722
14091,1673
14117,1673
14363,1722
14572,1861
14604,1910
14636,1861
14845,1722
15091,1673
15117,1673
15363,1722
15572,1861
15604,1910
15636,1861
15845,1722
16091,1673
16117,1673
16363,1722
16572,1861
16711,2070
16760,2317
16760,1381
16731,1352
12644,1352
12644,1556
10366,1556
10366,1352
2205,1352
2127,1430
2127,1593
2695,1593
2695,1823
2847,1722
3093,1673
3119,1673
3365,1722
3574,1861
3613,1920
3728,1796
3956,1691
4056,1737
4056,2267
4048,2267
4048,2367
4056,2367
4056,2896
3956,2942
3728,2837
3613,2713
3574,2772
3365,2911
3119,2960
3093,2960
2847,2911
2695,2810
2695,3156
2127,3156
2127,3724
2038,3724
2038,8251
2152,8137
2316,8069
2359,8069
2609,7819
2609,7819
2722,7744
2855,7717
2855,7717
2855,7717
3541,7717
3605,7691
3705,7690
4157,7690
4157,7355
4099,7217
4099,7015
4176,6829
4318,6687
4504,6610
4705,6610
4891,6686
5034,6829
5111,7014
5111,7216
5034,7402
4892,7544
4853,7560
4853,8516
4827,8649
4751,8762
4751,8762
4405,9108
4405,9240
4374,9316
4405,9391
4405,9490
4405,9740
4367,9832
4297,9902
4205,9940
4106,9941
3606,9941
3541,9914
3199,9914
3052,10061
3052,10104
2984,10268
2858,10394
2694,10462
2517,10462
2352,10395
2226,10269
2158,10105
2158,9927
2226,9763
2352,9637
2516,9569
2559,9569
2809,9319
2809,9319
2922,9244
3055,9217
3055,9217
3055,9217
3405,9217
3405,9141
3405,8891
3436,8815
3405,8740
3405,8641
3405,8414
2999,8414
2852,8561
2852,8604
2784,8768
2658,8894
2494,8962
2317,8962
2152,8895
2038,8780
2038,12108
2205,12276
9734,12276
9790,12238
9905,12216
10020,12238
10076,12276
16731,12276
16898,12108
16898,6884
16873,6884
16853,6884
16853,7116
16827,7249
16760,7349
16760,11315
16711,11561
16572,11770
16363,11909
16117,11958
16091,11958
15845,11909
15636,11770
15604,11721
15572,11770
15363,11909
15117,11958
15091,11958
14845,11909
14636,11770
14604,11721
14572,11770
14363,11909
14117,11958
14091,11958
13845,11909
13636,11770
13604,11721
13572,11770
13363,11909
13117,11958
13091,11958
12845,11909
12636,11770
12604,11721
12572,11770
12363,11909
12117,11958
12091,11958
11845,11909
11636,11770
11604,11721
11572,11770
11363,11909
11117,11958
11091,11958
10845,11909
10636,11770
10604,11721
10572,11770
10363,11909
10117,11958
10091,11958
9845,11909
9636,11770
9605,11723
9574,11770
9365,11909
9119,11958
9093,11958
8847,11909
8638,11770
8606,11721
8574,11770
8365,11909
8119,11958
8093,11958
7847,11909
7638,11770
7606,11721
7574,11770
7365,11909
7119,11958
7093,11958
6847,11909
6638,11770
6606,11721
6574,11770
6365,11909
6119,11958
6093,11958
5847,11909
5638,11770
5606,11721
5574,11770
5365,11909
5119,11958
5093,11958
4847,11909
4638,11770
4606,11721
4574,11770
4365,11909
4119,11958
4093,11958
3847,11909
3638,11770
3606,11721
3574,11770
3365,11909
3119,11958
3093,11958
2847,11909
2638,11770
2499,11561
2450,11315
2499,11068
2638,10859
2847,10720
3093,10671
3119,10671
3365,10720
3574,10859
3606,10908
3638,10859
3847,10720
4093,10671
4119,10671
4365,10720
4574,10859
4606,10908
4638,10859
4847,10720
5093,10671
5119,10671
5365,10720
5574,10859
5606,10908
5638,10859
5847,10720
6093,10671
6119,10671
6365,10720
6574,10859
6606,10908
6638,10859
6847,10720
7093,10671
7119,10671
7365,10720
7574,10859
7606,10908
7638,10859
7847,10720
8093,10671
8119,10671
8365,10720
8574,10859
8606,10908
8638,10859
8847,10720
9093,10671
9119,10671
9365,10720
9574,10859
9605,10906
9636,10859
9845,10720
10091,10671
10117,10671
10363,10720
10572,10859
10604,10908
10636,10859
10845,10720
11091,10671
11117,10671
11363,10720
11572,10859
11604,10908
11636,10859
11845,10720
12091,10671
12117,10671
12363,10720
12572,10859
12604,10908
12636,10859
12845,10720
13091,10671
13117,10671
13363,10720
13572,10859
13604,10908
13636,10859
13845,10720
14091,10671
14117,10671
14363,10720
14572,10859
14604,10908
14636,10859
14845,10720
15091,10671
15117,10671
15363,10720
15572,10859
15604,10908
15636,10859
15845,10720
16091,10671
16117,10671
16363,10720
16572,10859
16711,11068
16760,11315
16760,7349
16751,7362
16751,7362
16740,7373
16718,7487
16621,7631
16476,7728
16305,7762
12605,7762
12434,7728
12289,7631
10989,6332
10926,6269
10858,6105
10858,5927
10926,5763
10989,5700
11052,5637
11216,5569
11305,5569
11394,5569
11476,5603
11558,5636
11621,5700
11684,5762
11684,5762
12790,6869
15949,6869
15896,6846
15825,6776
15787,6684
15787,6585
15787,6152
15796,6130
15796,4501
15787,4480
15787,4380
15787,3947
15796,3925
15796,3739
15726,3669
15658,3505
15658,3327
15726,3163
15852,3037
16016,2969
16194,2969
16358,3036
16484,3162
16552,3326
16552,3504
16484,3668
16406,3747
16461,3747
16480,3755
16499,3747
16598,3747
16717,3747
16736,3755
16755,3747
16854,3747
16898,3747
16898,1520
" /> 
</g>
<g style="fill:#FFFFFF; fill-opacity:0.0; 
stroke:#FFFFFF; stroke-width:19.685; stroke-opacity:1; 
stroke-linecap:round; stroke-linejoin:round;">
</g>
<g style="fill:#FFFFFF; fill-opacity:1.0; 
stroke:#FFFFFF; stroke-width:19.685; stroke-opacity:1; 
stroke-linecap:round; stroke-linejoin:round;">
<circle cx="4605.51" cy="7116" r="147.638" /> 
<circle cx="17805.5" cy="4916" r="147.638" /> 
<circle cx="16105.5" cy="3416" r="108.268" /> 
<circle cx="8105.51" cy="10116" r="108.268" /> 
<circle cx="7105.51" cy="10016" r="108.268" /> 
<circle cx="8105.51" cy="6216" r="147.638" /> 
<circle cx="2605.51" cy="10016" r="108.268" /> 
<circle cx="2405.51" cy="8516" r="108.268" /> 
<circle cx="11305.5" cy="6016" r="108.268" /> 
<circle cx="14105.5" cy="12916" r="115.157" /> 
<circle cx="15105.5" cy="12916" r="115.157" /> 
<circle cx="12105.5" cy="12916" r="115.157" /> 
<circle cx="11105.5" cy="12916" r="115.157" /> 
<circle cx="10105.5" cy="716" r="115.157" /> 
<circle cx="1305.51" cy="8216" r="115.157" /> 
<circle cx="17805.5" cy="4316" r="115.157" /> 
<circle cx="13105.5" cy="12916" r="115.157" /> 
<circle cx="1305.51" cy="3916" r="115.157" /> 
<circle cx="17805.5" cy="6116" r="190.157" /> 
<circle cx="17805.5" cy="7116" r="190.157" /> 
<circle cx="17805.5" cy="8116" r="190.157" /> 
<circle cx="17805.5" cy="9116" r="190.157" /> 
<circle cx="1305.51" cy="5116" r="190.157" /> 
<circle cx="1305.51" cy="6116" r="190.157" /> 
<circle cx="1305.51" cy="7116" r="190.157" /> 
<circle cx="1305.51" cy="10516" r="190.157" /> 
<circle cx="1305.51" cy="9516" r="190.157" /> 
<circle cx="3106.51" cy="2317" r="186.657" /> 
<circle cx="3106.51" cy="11315" r="186.657" /> 
<circle cx="4106.51" cy="2317" r="186.657" /> 
<circle cx="4106.51" cy="11315" r="186.657" /> 
<circle cx="5106.51" cy="2317" r="186.657" /> 
<circle cx="5106.51" cy="11315" r="186.657" /> 
<circle cx="6106.51" cy="2317" r="186.657" /> 
<circle cx="6106.51" cy="11315" r="186.657" /> 
<circle cx="7106.51" cy="2317" r="186.657" /> 
<circle cx="7106.51" cy="11315" r="186.657" /> 
<circle cx="8106.51" cy="2317" r="186.657" /> 
<circle cx="8106.51" cy="11315" r="186.657" /> 
<circle cx="9106.51" cy="2317" r="186.657" /> 
<circle cx="9106.51" cy="11315" r="186.657" /> 
<circle cx="10104.5" cy="2317" r="186.657" /> 
<circle cx="10104.5" cy="11315" r="186.657" /> 
<circle cx="11104.5" cy="2317" r="186.657" /> 
<circle cx="11104.5" cy="11315" r="186.657" /> 
<circle cx="12104.5" cy="2317" r="186.657" /> 
<circle cx="12104.5" cy="11315" r="186.657" /> 
<circle cx="13104.5" cy="2317" r="186.657" /> 
<circle cx="13104.5" cy="11315" r="186.657" /> 
<circle cx="14104.5" cy="2317" r="186.657" /> 
<circle cx="14104.5" cy="11315" r="186.657" /> 
<circle cx="15104.5" cy="2317" r="186.657" /> 
<circle cx="15104.5" cy="11315" r="186.657" /> 
<circle cx="16104.5" cy="2317" r="186.657" /> 
<circle cx="16104.5" cy="11315" r="186.657" /> 
</g> 
</svg>
