<?xml version="1.0" standalone="no"?>
 <!DOCTYPE svg PUBLIC "-//W3C//DTD SVG 1.1//EN" 
 "http://www.w3.org/Graphics/SVG/1.1/DTD/svg11.dtd"> 
<svg xmlns="http://www.w3.org/2000/svg" version="1.1" 
    width="41.9989cm" height="29.7002cm" viewBox="0 0 165350 116930 ">
<title>SVG Picture created as drum-F_Cu.svg date 2014/11/02 13:13:42 </title>
  <desc>Picture generated by PCBNEW </desc>
<g style="fill:#000000; fill-opacity:1;stroke:#000000; stroke-opacity:1;
stroke-linecap:round; stroke-linejoin:round; "
 transform="translate(0 0) scale(1 1)">
</g>
<g style="fill:#000000; fill-opacity:0.0; 
stroke:#000000; stroke-width:39.3701; stroke-opacity:1; 
stroke-linecap:round; stroke-linejoin:round;">
<path d="M10629 94095
L33070 94095
" />
<path d="M10629 107481
L10629 94095
" />
<path d="M33070 107481
L10629 107481
" />
<path d="M33070 107087
L33070 107481
" />
<path d="M33070 94095
L33070 107087
" />
</g>
<g style="fill:#000000; fill-opacity:0.0; 
stroke:#000000; stroke-width:59.0551; stroke-opacity:1; 
stroke-linecap:round; stroke-linejoin:round;">
</g>
<g style="fill:#000000; fill-opacity:1.0; 
stroke:#000000; stroke-width:59.0551; stroke-opacity:1; 
stroke-linecap:round; stroke-linejoin:round;">
<polyline style="fill-rule:evenodd;"
points="15121,104020
15612,104020
15612,103687
15121,103687
15121,104020
" /> 
<polyline style="fill-rule:evenodd;"
points="15121,103272
15612,103272
15612,102939
15121,102939
15121,103272
" /> 
<polyline style="fill-rule:evenodd;"
points="15987,103646
16478,103646
16478,103313
15987,103313
15987,103646
" /> 
<polyline style="fill-rule:evenodd;"
points="18321,104120
18812,104120
18812,103787
18321,103787
18321,104120
" /> 
<polyline style="fill-rule:evenodd;"
points="18321,103372
18812,103372
18812,103039
18321,103039
18321,103372
" /> 
<polyline style="fill-rule:evenodd;"
points="19187,103746
19678,103746
19678,103413
19187,103413
19187,103746
" /> 
<polyline style="fill-rule:evenodd;"
points="20121,104170
20612,104170
20612,103837
20121,103837
20121,104170
" /> 
<polyline style="fill-rule:evenodd;"
points="20121,103422
20612,103422
20612,103089
20121,103089
20121,103422
" /> 
<polyline style="fill-rule:evenodd;"
points="20987,103796
21478,103796
21478,103463
20987,103463
20987,103796
" /> 
<polyline style="fill-rule:evenodd;"
points="17890,104208
17890,103717
17557,103717
17557,104208
17890,104208
" /> 
<polyline style="fill-rule:evenodd;"
points="17142,104208
17142,103717
16809,103717
16809,104208
17142,104208
" /> 
<polyline style="fill-rule:evenodd;"
points="17516,103342
17516,102851
17183,102851
17183,103342
17516,103342
" /> 
<polyline style="fill-rule:evenodd;"
points="11471,104020
11962,104020
11962,103687
11471,103687
11471,104020
" /> 
<polyline style="fill-rule:evenodd;"
points="11471,103272
11962,103272
11962,102939
11471,102939
11471,103272
" /> 
<polyline style="fill-rule:evenodd;"
points="12337,103646
12828,103646
12828,103313
12337,103313
12337,103646
" /> 
<polyline style="fill-rule:evenodd;"
points="13321,104020
13812,104020
13812,103687
13321,103687
13321,104020
" /> 
<polyline style="fill-rule:evenodd;"
points="13321,103272
13812,103272
13812,102939
13321,102939
13321,103272
" /> 
<polyline style="fill-rule:evenodd;"
points="14187,103646
14678,103646
14678,103313
14187,103313
14187,103646
" /> 
<polyline style="fill-rule:evenodd;"
points="31845,98284
31354,98284
31354,98775
31845,98775
31845,98284
" /> 
<circle cx="31600" cy="99530" r="245.472" /> 
<circle cx="31600" cy="100530" r="245.472" /> 
<circle cx="31600" cy="101530" r="245.472" /> 
<circle cx="28600" cy="101530" r="245.472" /> 
<circle cx="28600" cy="100530" r="245.472" /> 
<circle cx="28600" cy="99530" r="245.472" /> 
<circle cx="28600" cy="98530" r="245.472" /> 
</g>
<g style="fill:#000000; fill-opacity:1.0; 
stroke:#000000; stroke-width:787; stroke-opacity:1; 
stroke-linecap:round; stroke-linejoin:round;">
<path d="M13251 96181
L13251 96181
" />
<path d="M13251 105179
L13251 105179
" />
<path d="M14251 96181
L14251 96181
" />
<path d="M14251 105179
L14251 105179
" />
<path d="M15251 96181
L15251 96181
" />
<path d="M15251 105179
L15251 105179
" />
<path d="M16251 96181
L16251 96181
" />
<path d="M16251 105179
L16251 105179
" />
<path d="M17251 96181
L17251 96181
" />
<path d="M17251 105179
L17251 105179
" />
<path d="M18251 96181
L18251 96181
" />
<path d="M18251 105179
L18251 105179
" />
<path d="M19251 96181
L19251 96181
" />
<path d="M19251 105179
L19251 105179
" />
<path d="M20249 96181
L20249 96181
" />
<path d="M20249 105179
L20249 105179
" />
<path d="M21249 96181
L21249 96181
" />
<path d="M21249 105179
L21249 105179
" />
<path d="M22249 96181
L22249 96181
" />
<path d="M22249 105179
L22249 105179
" />
<path d="M23249 96181
L23249 96181
" />
<path d="M23249 105179
L23249 105179
" />
<path d="M24249 96181
L24249 96181
" />
<path d="M24249 105179
L24249 105179
" />
<path d="M25249 96181
L25249 96181
" />
<path d="M25249 105179
L25249 105179
" />
<path d="M26249 96181
L26249 96181
" />
<path d="M26249 105179
L26249 105179
" />
</g>
<g style="fill:#000000; fill-opacity:1.0; 
stroke:#000000; stroke-width:59.0551; stroke-opacity:1; 
stroke-linecap:round; stroke-linejoin:round;">
<polyline style="fill-rule:evenodd;"
points="25445,101375
25445,100884
24954,100884
24954,101375
25445,101375
" /> 
<circle cx="24200" cy="101130" r="245.472" /> 
<circle cx="23200" cy="101130" r="245.472" /> 
<circle cx="22200" cy="101130" r="245.472" /> 
<circle cx="21200" cy="101130" r="245.472" /> 
<circle cx="20200" cy="101130" r="245.472" /> 
<circle cx="19200" cy="101130" r="245.472" /> 
<circle cx="18200" cy="101130" r="245.472" /> 
<circle cx="17200" cy="101130" r="245.472" /> 
<circle cx="16200" cy="101130" r="245.472" /> 
<circle cx="15200" cy="101130" r="245.472" /> 
<circle cx="14200" cy="101130" r="245.472" /> 
<circle cx="14200" cy="98130" r="245.472" /> 
<circle cx="15200" cy="98130" r="245.472" /> 
<circle cx="16200" cy="98130" r="245.472" /> 
<circle cx="17200" cy="98130" r="245.472" /> 
<circle cx="18200" cy="98130" r="245.472" /> 
<circle cx="19200" cy="98130" r="245.472" /> 
<circle cx="20200" cy="98130" r="245.472" /> 
<circle cx="21200" cy="98130" r="245.472" /> 
<circle cx="22200" cy="98130" r="245.472" /> 
<circle cx="23200" cy="98130" r="245.472" /> 
<circle cx="24200" cy="98130" r="245.472" /> 
<circle cx="25200" cy="98130" r="245.472" /> 
<polyline style="fill-rule:evenodd;"
points="28586,104666
28586,105393
29313,105393
29313,104666
28586,104666
" /> 
<circle cx="28950" cy="106030" r="363.972" /> 
<polyline style="fill-rule:evenodd;"
points="30786,104666
30786,105393
31513,105393
31513,104666
30786,104666
" /> 
<circle cx="31150" cy="106030" r="363.972" /> 
<polyline style="fill-rule:evenodd;"
points="11954,101834
11954,102325
12445,102325
12445,101834
11954,101834
" /> 
<circle cx="13200" cy="102080" r="245.472" /> 
<circle cx="14200" cy="102080" r="245.472" /> 
<circle cx="15200" cy="102080" r="245.472" /> 
<circle cx="16200" cy="102080" r="245.472" /> 
<circle cx="17200" cy="102080" r="245.472" /> 
<circle cx="18200" cy="102080" r="245.472" /> 
<circle cx="19200" cy="102080" r="245.472" /> 
<circle cx="20200" cy="102080" r="245.472" /> 
<circle cx="21200" cy="102080" r="245.472" /> 
<polyline style="fill-rule:evenodd;"
points="24504,102884
24504,103375
24995,103375
24995,102884
24504,102884
" /> 
<polyline style="fill-rule:evenodd;"
points="23504,102884
23504,103375
23995,103375
23995,102884
23504,102884
" /> 
<polyline style="fill-rule:evenodd;"
points="15004,106434
15004,106925
15495,106925
15495,106434
15004,106434
" /> 
<polyline style="fill-rule:evenodd;"
points="14004,106434
14004,106925
14495,106925
14495,106434
14004,106434
" /> 
<polyline style="fill-rule:evenodd;"
points="26004,106434
26004,106925
26495,106925
26495,106434
26004,106434
" /> 
<polyline style="fill-rule:evenodd;"
points="25004,106434
25004,106925
25495,106925
25495,106434
25004,106434
" /> 
<polyline style="fill-rule:evenodd;"
points="24004,106434
24004,106925
24495,106925
24495,106434
24004,106434
" /> 
<polyline style="fill-rule:evenodd;"
points="23004,106434
23004,106925
23495,106925
23495,106434
23004,106434
" /> 
<polyline style="fill-rule:evenodd;"
points="26504,100884
26504,101375
26995,101375
26995,100884
26504,100884
" /> 
<polyline style="fill-rule:evenodd;"
points="26504,101884
26504,102375
26995,102375
26995,101884
26504,101884
" /> 
<polyline style="fill-rule:evenodd;"
points="26504,102884
26504,103375
26995,103375
26995,102884
26504,102884
" /> 
<polyline style="fill-rule:evenodd;"
points="25504,102884
25504,103375
25995,103375
25995,102884
25504,102884
" /> 
<polyline style="fill-rule:evenodd;"
points="22004,94434
22004,94925
22495,94925
22495,94434
22004,94434
" /> 
<polyline style="fill-rule:evenodd;"
points="28004,96334
28004,96825
28495,96825
28495,96334
28004,96334
" /> 
<polyline style="fill-rule:evenodd;"
points="11004,96384
11004,96875
11495,96875
11495,96384
11004,96384
" /> 
<polyline style="fill-rule:evenodd;"
points="28154,102984
28154,103475
28645,103475
28645,102984
28154,102984
" /> 
<polyline style="fill-rule:evenodd;"
points="27204,106434
27204,106925
27695,106925
27695,106434
27204,106434
" /> 
<polyline style="fill-rule:evenodd;"
points="18004,94434
18004,94925
18495,94925
18495,94434
18004,94434
" /> 
<polyline style="fill-rule:evenodd;"
points="19004,94434
19004,94925
19495,94925
19495,94434
19004,94434
" /> 
<polyline style="fill-rule:evenodd;"
points="21004,94434
21004,94925
21495,94925
21495,94434
21004,94434
" /> 
<circle cx="16150" cy="104130" r="167.323" /> 
<circle cx="14500" cy="104280" r="167.323" /> 
<circle cx="30000" cy="99530" r="167.323" /> 
<circle cx="21500" cy="97330" r="167.323" /> 
<circle cx="25200" cy="97330" r="167.323" /> 
</g>
<g style="fill:#000000; fill-opacity:1.0; 
stroke:#000000; stroke-width:157.48; stroke-opacity:1; 
stroke-linecap:round; stroke-linejoin:round;">
<path d="M20367 104004
L20367 105061
" />
<path d="M20367 105061
L20249 105179
" />
<path d="M15367 103854
L15624 103854
" />
<path d="M15900 104130
L16150 104130
" />
<path d="M15624 103854
L15900 104130
" />
<path d="M13567 103854
L13567 104047
" />
<path d="M13800 104280
L14500 104280
" />
<path d="M13567 104047
L13800 104280
" />
<path d="M16251 105930
L11950 105930
" />
<path d="M11717 105697
L11717 103854
" />
<path d="M11950 105930
L11717 105697
" />
<path d="M16251 105930
L16251 105179
" />
<path d="M21200 102080
L21200 103597
" />
<path d="M21200 103597
L21233 103630
" />
<path d="M20367 103256
L20367 102247
" />
<path d="M20367 102247
L20200 102080
" />
<path d="M18567 103206
L18200 102839
" />
<path d="M18200 102839
L18200 102080
" />
<path d="M19200 102080
L19433 102313
" />
<path d="M19433 102313
L19433 103580
" />
<path d="M17200 102080
L17350 102230
" />
<path d="M17350 102230
L17350 103097
" />
<path d="M16200 102080
L15367 102913
" />
<path d="M15367 102913
L15367 103106
" />
<path d="M15200 102080
L14433 102847
" />
<path d="M14433 102847
L14433 103480
" />
<path d="M14200 102080
L13567 102713
" />
<path d="M13567 102713
L13567 103106
" />
<path d="M13200 102080
L12850 102430
" />
<path d="M12850 103213
L12583 103480
" />
<path d="M12850 102430
L12850 103213
" />
<path d="M12200 102080
L11717 102563
" />
<path d="M11717 102563
L11717 103106
" />
<path d="M18567 103954
L18943 104330
" />
<path d="M18943 104871
L19251 105179
" />
<path d="M18943 104330
L18943 104871
" />
<path d="M17724 103963
L16976 103963
" />
<path d="M16976 103963
L16716 103963
" />
<path d="M16716 103963
L16233 103480
" />
<path d="M28250 96580
L28850 96580
" />
<path d="M30000 97730
L30000 99530
" />
<path d="M28850 96580
L30000 97730
" />
<path d="M25200 97330
L27500 97330
" />
<path d="M27500 97330
L28250 96580
" />
<path d="M21500 97330
L25200 97330
" />
</g>
<g style="fill:#000000; fill-opacity:1.0; 
stroke:#000000; stroke-width:59.0551; stroke-opacity:1; 
stroke-linecap:round; stroke-linejoin:round;">
<polyline style="fill-rule:evenodd;"
points="32627,94539
32129,94539
32129,101454
32118,101662
32060,101802
31967,101827
31897,101756
31897,101897
31872,101990
31793,102018
31793,106157
31695,106394
31514,106575
31278,106673
31022,106673
30785,106575
30604,106394
30506,106158
30506,105902
30604,105665
30628,105641
30615,105635
30544,105565
30506,105473
30506,105373
30506,104586
30544,104495
30614,104424
30706,104386
30806,104386
31593,104386
31684,104424
31755,104494
31793,104586
31793,104686
31793,105473
31755,105564
31685,105635
31671,105641
31695,105665
31793,105901
31793,106157
31793,102018
31675,102059
31467,102048
31327,101990
31302,101897
31600,101600
31897,101897
31897,101756
31670,101530
31967,101232
32060,101257
32129,101454
32129,94539
32125,94539
32125,99633
32045,99827
31897,99974
31764,100030
31897,100084
32044,100232
32124,100425
32125,100633
32045,100827
31897,100974
31771,101027
31872,101069
31897,101162
31600,101459
31529,101388
31529,101530
31232,101827
31139,101802
31070,101605
31081,101397
31139,101257
31232,101232
31529,101530
31529,101388
31302,101162
31327,101069
31437,101030
31303,100975
31155,100827
31075,100634
31074,100426
31154,100233
31302,100085
31435,100029
31303,99975
31155,99827
31075,99634
31074,99426
31154,99233
31302,99085
31374,99055
31275,99055
31183,99017
31113,98946
31075,98854
31074,98755
31074,98205
31112,98113
31183,98043
31275,98005
31374,98004
31924,98004
32016,98042
32086,98113
32124,98205
32125,98304
32125,98854
32087,98946
32016,99016
31924,99054
31825,99055
31825,99055
31897,99084
32044,99232
32124,99425
32125,99633
32125,94539
30446,94539
30446,99618
30379,99782
30253,99908
30089,99976
29911,99976
29747,99909
29621,99783
29593,99716
29593,106157
29495,106394
29314,106575
29078,106673
28822,106673
28585,106575
28404,106394
28306,106158
28306,105902
28404,105665
28428,105641
28415,105635
28344,105565
28306,105473
28306,105373
28306,104586
28344,104495
28414,104424
28506,104386
28606,104386
29393,104386
29484,104424
29555,104494
29593,104586
29593,104686
29593,105473
29555,105564
29485,105635
29471,105641
29495,105665
29593,105901
29593,106157
29593,99716
29553,99619
29553,99441
29620,99277
29671,99226
29671,97866
29129,97324
29129,99454
29129,100454
29125,100542
29125,101633
29045,101827
28925,101947
28925,103004
28925,103554
28887,103646
28816,103716
28724,103754
28625,103755
28075,103755
27983,103717
27913,103646
27875,103554
27874,103455
27874,102905
27912,102813
27983,102743
28075,102705
28174,102704
28724,102704
28816,102742
28886,102813
28924,102905
28925,103004
28925,101947
28897,101974
28704,102054
28496,102055
28303,101975
28155,101827
28075,101634
28074,101426
28154,101233
28302,101085
28428,101032
28327,100990
28302,100897
28600,100600
28897,100897
28872,100990
28762,101029
28897,101084
29044,101232
29124,101425
29125,101633
29125,100542
29118,100662
29060,100802
28967,100827
28670,100530
28967,100232
29060,100257
29129,100454
29129,99454
29118,99662
29060,99802
28967,99827
28897,99756
28897,99897
28872,99990
28769,100026
28872,100069
28897,100162
28600,100459
28529,100388
28529,100530
28232,100827
28139,100802
28070,100605
28081,100397
28139,100257
28232,100232
28529,100530
28529,100388
28302,100162
28327,100069
28430,100033
28327,99990
28302,99897
28600,99600
28897,99897
28897,99756
28670,99530
28967,99232
29060,99257
29129,99454
29129,97324
29125,97319
29125,98633
29045,98827
28897,98974
28771,99027
28872,99069
28897,99162
28600,99459
28529,99388
28529,99530
28232,99827
28139,99802
28070,99605
28081,99397
28139,99257
28232,99232
28529,99530
28529,99388
28302,99162
28327,99069
28437,99030
28303,98975
28155,98827
28075,98634
28074,98426
28154,98233
28302,98085
28495,98005
28703,98004
28897,98084
29044,98232
29124,98425
29125,98633
29125,97319
28755,96950
28737,96996
28666,97066
28574,97104
28475,97105
28189,97105
27732,97562
27625,97633
27500,97658
27275,97658
27275,100904
27275,101454
27237,101546
27166,101616
27135,101629
27166,101642
27236,101713
27274,101805
27275,101904
27275,102454
27237,102546
27166,102616
27135,102629
27166,102642
27236,102713
27274,102805
27275,102904
27275,103454
27237,103546
27166,103616
27074,103654
26975,103655
26425,103655
26333,103617
26263,103546
26250,103515
26237,103546
26166,103616
26074,103654
25975,103655
25425,103655
25333,103617
25263,103546
25250,103515
25237,103546
25166,103616
25074,103654
24975,103655
24425,103655
24333,103617
24263,103546
24250,103515
24237,103546
24166,103616
24074,103654
23975,103655
23425,103655
23333,103617
23263,103546
23225,103454
23224,103355
23224,102805
23262,102713
23333,102643
23425,102605
23524,102604
24074,102604
24166,102642
24236,102713
24249,102744
24262,102713
24333,102643
24425,102605
24524,102604
25074,102604
25166,102642
25236,102713
25249,102744
25262,102713
25333,102643
25425,102605
25524,102604
26074,102604
26166,102642
26236,102713
26249,102744
26262,102713
26333,102643
26364,102630
26333,102617
26263,102546
26225,102454
26224,102355
26224,101805
26262,101713
26333,101643
26364,101630
26333,101617
26263,101546
26225,101454
26224,101355
26224,100805
26262,100713
26333,100643
26425,100605
26524,100604
27074,100604
27166,100642
27236,100713
27274,100805
27275,100904
27275,97658
25503,97658
25483,97678
25497,97684
25644,97832
25724,98025
25725,98233
25645,98427
25497,98574
25304,98654
25096,98655
24903,98575
24755,98427
24699,98294
24645,98427
24497,98574
24304,98654
24096,98655
23903,98575
23755,98427
23699,98294
23645,98427
23497,98574
23304,98654
23096,98655
22903,98575
22755,98427
22699,98294
22645,98427
22497,98574
22304,98654
22096,98655
21903,98575
21755,98427
21702,98301
21660,98402
21567,98427
21497,98356
21497,98497
21472,98590
21275,98659
21067,98648
20927,98590
20902,98497
21200,98200
21497,98497
21497,98356
21270,98130
21276,98124
21205,98053
21200,98059
21129,97988
21129,98130
20832,98427
20739,98402
20700,98292
20645,98427
20497,98574
20304,98654
20096,98655
19903,98575
19755,98427
19702,98301
19660,98402
19567,98427
19497,98356
19497,98497
19472,98590
19275,98659
19067,98648
18927,98590
18902,98497
19200,98200
19497,98497
19497,98356
19270,98130
19567,97832
19660,97857
19699,97967
19754,97833
19902,97685
20095,97605
20303,97604
20497,97684
20644,97832
20697,97958
20739,97857
20832,97832
21129,98130
21129,97988
20902,97762
20927,97669
21124,97600
21138,97600
21121,97583
21053,97419
21053,97241
21120,97077
21246,96951
21410,96883
21588,96883
21752,96950
21803,97001
24896,97001
24946,96951
25110,96883
25288,96883
25452,96950
25503,97001
27363,97001
27724,96640
27724,96255
27762,96163
27833,96093
27925,96055
28024,96054
28574,96054
28666,96092
28736,96163
28773,96251
28850,96251
28975,96276
28975,96276
29082,96347
30232,97497
30232,97497
30303,97604
30328,97729
30328,97730
30328,99226
30378,99276
30446,99440
30446,99618
30446,94539
26905,94539
26905,96181
26856,96427
26716,96636
26507,96775
26261,96824
26236,96824
25990,96775
25781,96636
25749,96587
25716,96636
25507,96775
25261,96824
25236,96824
24990,96775
24781,96636
24749,96587
24716,96636
24507,96775
24261,96824
24236,96824
23990,96775
23781,96636
23749,96587
23716,96636
23507,96775
23261,96824
23236,96824
22990,96775
22781,96636
22749,96587
22716,96636
22507,96775
22261,96824
22236,96824
21990,96775
21781,96636
21749,96587
21716,96636
21507,96775
21261,96824
21236,96824
20990,96775
20781,96636
20749,96587
20716,96636
20507,96775
20261,96824
20236,96824
19990,96775
19781,96636
19750,96589
19718,96636
19509,96775
19497,96778
19497,97762
19200,98059
19129,97988
19129,98130
18832,98427
18739,98402
18700,98292
18645,98427
18497,98574
18304,98654
18096,98655
17903,98575
17755,98427
17699,98294
17645,98427
17497,98574
17304,98654
17096,98655
16903,98575
16755,98427
16699,98294
16645,98427
16497,98574
16304,98654
16096,98655
15903,98575
15755,98427
15699,98294
15645,98427
15497,98574
15304,98654
15096,98655
14903,98575
14755,98427
14699,98294
14645,98427
14497,98574
14497,98575
14497,100762
14200,101059
14129,100988
14129,101130
13832,101427
13739,101402
13670,101205
13681,100997
13739,100857
13832,100832
14129,101130
14129,100988
13902,100762
13927,100669
14124,100600
14332,100611
14472,100669
14497,100762
14497,98575
14304,98654
14096,98655
13903,98575
13755,98427
13675,98234
13674,98026
13754,97833
13902,97685
14095,97605
14303,97604
14497,97684
14644,97832
14700,97965
14754,97833
14902,97685
15095,97605
15303,97604
15497,97684
15644,97832
15700,97965
15754,97833
15902,97685
16095,97605
16303,97604
16497,97684
16644,97832
16700,97965
16754,97833
16902,97685
17095,97605
17303,97604
17497,97684
17644,97832
17700,97965
17754,97833
17902,97685
18095,97605
18303,97604
18497,97684
18644,97832
18697,97958
18739,97857
18832,97832
19129,98130
19129,97988
18902,97762
18927,97669
19124,97600
19332,97611
19472,97669
19497,97762
19497,96778
19263,96824
19238,96824
18992,96775
18783,96636
18751,96587
18718,96636
18509,96775
18263,96824
18238,96824
17992,96775
17783,96636
17751,96587
17718,96636
17509,96775
17263,96824
17238,96824
16992,96775
16783,96636
16751,96587
16718,96636
16509,96775
16263,96824
16238,96824
15992,96775
15783,96636
15751,96587
15718,96636
15509,96775
15263,96824
15238,96824
14992,96775
14783,96636
14744,96577
14628,96701
14400,96806
14301,96760
14301,96231
14308,96231
14308,96131
14301,96131
14301,95601
14400,95555
14628,95660
14744,95784
14783,95725
14992,95586
15238,95537
15263,95537
15509,95586
15718,95725
15751,95774
15783,95725
15992,95586
16238,95537
16263,95537
16509,95586
16718,95725
16751,95774
16783,95725
16992,95586
17238,95537
17263,95537
17509,95586
17718,95725
17751,95774
17783,95725
17992,95586
18238,95537
18263,95537
18509,95586
18718,95725
18751,95774
18783,95725
18992,95586
19238,95537
19263,95537
19509,95586
19718,95725
19750,95772
19781,95725
19990,95586
20236,95537
20261,95537
20507,95586
20716,95725
20749,95774
20781,95725
20990,95586
21236,95537
21261,95537
21507,95586
21716,95725
21749,95774
21781,95725
21990,95586
22236,95537
22261,95537
22507,95586
22716,95725
22749,95774
22781,95725
22990,95586
23236,95537
23261,95537
23507,95586
23716,95725
23749,95774
23781,95725
23990,95586
24236,95537
24261,95537
24507,95586
24716,95725
24749,95774
24781,95725
24990,95586
25236,95537
25261,95537
25507,95586
25716,95725
25749,95774
25781,95725
25990,95586
26236,95537
26261,95537
26507,95586
26716,95725
26856,95934
26905,96181
26905,94539
22775,94539
22775,95004
22737,95096
22666,95166
22574,95204
22475,95205
21925,95205
21833,95167
21763,95096
21750,95065
21737,95096
21666,95166
21574,95204
21475,95205
20925,95205
20833,95167
20763,95096
20725,95004
20724,94905
20724,94539
19775,94539
19775,95004
19737,95096
19666,95166
19574,95204
19475,95205
18925,95205
18833,95167
18763,95096
18750,95065
18737,95096
18666,95166
18574,95204
18475,95205
17925,95205
17833,95167
17763,95096
17725,95004
17724,94905
17724,94539
14201,94539
14201,95601
14201,96131
14193,96131
14193,96231
14201,96231
14201,96760
14101,96806
13873,96701
13757,96577
13718,96636
13509,96775
13263,96824
13238,96824
12992,96775
12783,96636
12643,96427
12594,96181
12643,95934
12783,95725
12992,95586
13238,95537
13263,95537
13509,95586
13718,95725
13757,95784
13873,95660
14101,95555
14201,95601
14201,94539
11775,94539
11775,96404
11775,96855
11774,96954
11736,97046
11666,97117
11574,97155
11362,97155
11300,97092
11300,96680
11712,96680
11775,96742
11775,96855
11775,96404
11775,96517
11712,96580
11300,96580
11300,96167
11362,96105
11574,96104
11666,96142
11736,96213
11774,96305
11775,96404
11775,94539
11073,94539
11073,96104
11137,96105
11200,96167
11200,96580
11192,96580
11192,96680
11200,96680
11200,97092
11137,97155
11073,97155
11073,107037
13738,107037
13725,107004
13724,106905
13724,106355
13762,106263
13767,106258
11950,106258
11824,106233
11717,106162
11484,105929
11413,105822
11388,105697
11388,104299
11300,104262
11229,104192
11191,104100
11191,104000
11191,103607
11229,103516
11265,103479
11229,103444
11191,103352
11191,103252
11191,102859
11229,102768
11299,102697
11388,102660
11388,102563
11413,102437
11484,102330
11674,102140
11674,101755
11712,101663
11783,101593
11875,101555
11974,101554
12524,101554
12616,101592
12686,101663
12724,101755
12725,101854
12725,101854
12754,101783
12902,101635
13095,101555
13303,101554
13497,101634
13644,101782
13700,101915
13754,101783
13902,101635
13968,101607
13927,101590
13902,101497
14200,101200
14497,101497
14472,101590
14428,101606
14497,101634
14644,101782
14700,101915
14754,101783
14902,101635
14974,101605
14903,101575
14755,101427
14702,101301
14660,101402
14567,101427
14270,101130
14567,100832
14660,100857
14699,100967
14754,100833
14902,100685
15095,100605
15303,100604
15497,100684
15644,100832
15700,100965
15754,100833
15902,100685
16095,100605
16303,100604
16497,100684
16644,100832
16700,100965
16754,100833
16902,100685
17095,100605
17303,100604
17497,100684
17644,100832
17700,100965
17754,100833
17902,100685
18095,100605
18303,100604
18497,100684
18644,100832
18700,100965
18754,100833
18902,100685
19095,100605
19303,100604
19497,100684
19644,100832
19700,100965
19754,100833
19902,100685
20095,100605
20303,100604
20497,100684
20644,100832
20700,100965
20754,100833
20902,100685
21095,100605
21303,100604
21497,100684
21644,100832
21700,100965
21754,100833
21902,100685
22095,100605
22303,100604
22497,100684
22644,100832
22700,100965
22754,100833
22902,100685
23095,100605
23303,100604
23497,100684
23644,100832
23700,100965
23754,100833
23902,100685
24095,100605
24303,100604
24497,100684
24644,100832
24674,100904
24674,100805
24712,100713
24783,100643
24875,100605
24974,100604
25524,100604
25616,100642
25686,100713
25724,100805
25725,100904
25725,101454
25687,101546
25616,101616
25524,101654
25425,101655
24875,101655
24783,101617
24713,101546
24675,101454
24674,101355
24674,101355
24645,101427
24497,101574
24304,101654
24096,101655
23903,101575
23755,101427
23699,101294
23645,101427
23497,101574
23304,101654
23096,101655
22903,101575
22755,101427
22699,101294
22645,101427
22497,101574
22304,101654
22096,101655
21903,101575
21755,101427
21699,101294
21645,101427
21497,101574
21425,101604
21497,101634
21644,101782
21724,101975
21725,102183
21645,102377
21528,102493
21528,103183
21558,103183
21649,103221
21720,103291
21758,103383
21758,103483
21758,103876
21720,103967
21650,104038
21558,104076
21458,104076
20907,104076
20892,104070
20892,104250
20854,104341
20784,104412
20695,104449
20695,104710
20716,104723
20749,104772
20781,104723
20990,104584
21236,104535
21261,104535
21507,104584
21716,104723
21749,104772
21781,104723
21990,104584
22236,104535
22261,104535
22507,104584
22716,104723
22749,104772
22781,104723
22990,104584
23236,104535
23261,104535
23507,104584
23716,104723
23749,104772
23781,104723
23990,104584
24236,104535
24261,104535
24507,104584
24716,104723
24749,104772
24781,104723
24990,104584
25236,104535
25261,104535
25507,104584
25716,104723
25749,104772
25781,104723
25990,104584
26236,104535
26261,104535
26507,104584
26716,104723
26856,104932
26905,105179
26856,105425
26716,105634
26507,105773
26261,105822
26236,105822
25990,105773
25781,105634
25749,105585
25716,105634
25507,105773
25261,105822
25236,105822
24990,105773
24781,105634
24749,105585
24716,105634
24507,105773
24261,105822
24236,105822
23990,105773
23781,105634
23749,105585
23716,105634
23507,105773
23261,105822
23236,105822
22990,105773
22781,105634
22749,105585
22716,105634
22507,105773
22261,105822
22236,105822
21990,105773
21781,105634
21749,105585
21716,105634
21507,105773
21261,105822
21236,105822
20990,105773
20781,105634
20749,105585
20716,105634
20507,105773
20261,105822
20236,105822
19990,105773
19781,105634
19750,105587
19718,105634
19509,105773
19263,105822
19238,105822
18992,105773
18783,105634
18751,105585
18718,105634
18509,105773
18263,105822
18238,105822
17992,105773
17783,105634
17751,105585
17718,105634
17509,105773
17263,105822
17238,105822
16992,105773
16783,105634
16751,105585
16718,105634
16579,105726
16579,105930
16554,106055
16483,106162
16376,106233
16251,106258
15732,106258
15736,106263
15774,106355
15775,106454
15775,107004
15761,107037
22738,107037
22725,107004
22724,106905
22724,106355
22762,106263
22833,106193
22925,106155
23024,106154
23574,106154
23666,106192
23736,106263
23749,106294
23762,106263
23833,106193
23925,106155
24024,106154
24574,106154
24666,106192
24736,106263
24749,106294
24762,106263
24833,106193
24925,106155
25024,106154
25574,106154
25666,106192
25736,106263
25749,106294
25762,106263
25833,106193
25925,106155
26024,106154
26574,106154
26666,106192
26736,106263
26774,106355
26775,106454
26775,107004
26761,107037
26938,107037
26925,107004
26924,106905
26924,106355
26962,106263
27033,106193
27125,106155
27224,106154
27774,106154
27866,106192
27936,106263
27974,106355
27975,106454
27975,107004
27961,107037
32627,107037
32627,94539
" /> 
</g>
<g style="fill:#000000; fill-opacity:0.0; 
stroke:#000000; stroke-width:100; stroke-opacity:1; 
stroke-linecap:round; stroke-linejoin:round;">
<polyline fill="none;"
points="32627,94539
32129,94539
32129,101454
32118,101662
32060,101802
31967,101827
31897,101756
31897,101897
31872,101990
31793,102018
31793,106157
31695,106394
31514,106575
31278,106673
31022,106673
30785,106575
30604,106394
30506,106158
30506,105902
30604,105665
30628,105641
30615,105635
30544,105565
30506,105473
30506,105373
30506,104586
30544,104495
30614,104424
30706,104386
30806,104386
31593,104386
31684,104424
31755,104494
31793,104586
31793,104686
31793,105473
31755,105564
31685,105635
31671,105641
31695,105665
31793,105901
31793,106157
31793,102018
31675,102059
31467,102048
31327,101990
31302,101897
31600,101600
31897,101897
31897,101756
31670,101530
31967,101232
32060,101257
32129,101454
32129,94539
32125,94539
32125,99633
32045,99827
31897,99974
31764,100030
31897,100084
32044,100232
32124,100425
32125,100633
32045,100827
31897,100974
31771,101027
31872,101069
31897,101162
31600,101459
31529,101388
31529,101530
31232,101827
31139,101802
31070,101605
31081,101397
31139,101257
31232,101232
31529,101530
31529,101388
31302,101162
31327,101069
31437,101030
31303,100975
31155,100827
31075,100634
31074,100426
31154,100233
31302,100085
31435,100029
31303,99975
31155,99827
31075,99634
31074,99426
31154,99233
31302,99085
31374,99055
31275,99055
31183,99017
31113,98946
31075,98854
31074,98755
31074,98205
31112,98113
31183,98043
31275,98005
31374,98004
31924,98004
32016,98042
32086,98113
32124,98205
32125,98304
32125,98854
32087,98946
32016,99016
31924,99054
31825,99055
31825,99055
31897,99084
32044,99232
32124,99425
32125,99633
32125,94539
30446,94539
30446,99618
30379,99782
30253,99908
30089,99976
29911,99976
29747,99909
29621,99783
29593,99716
29593,106157
29495,106394
29314,106575
29078,106673
28822,106673
28585,106575
28404,106394
28306,106158
28306,105902
28404,105665
28428,105641
28415,105635
28344,105565
28306,105473
28306,105373
28306,104586
28344,104495
28414,104424
28506,104386
28606,104386
29393,104386
29484,104424
29555,104494
29593,104586
29593,104686
29593,105473
29555,105564
29485,105635
29471,105641
29495,105665
29593,105901
29593,106157
29593,99716
29553,99619
29553,99441
29620,99277
29671,99226
29671,97866
29129,97324
29129,99454
29129,100454
29125,100542
29125,101633
29045,101827
28925,101947
28925,103004
28925,103554
28887,103646
28816,103716
28724,103754
28625,103755
28075,103755
27983,103717
27913,103646
27875,103554
27874,103455
27874,102905
27912,102813
27983,102743
28075,102705
28174,102704
28724,102704
28816,102742
28886,102813
28924,102905
28925,103004
28925,101947
28897,101974
28704,102054
28496,102055
28303,101975
28155,101827
28075,101634
28074,101426
28154,101233
28302,101085
28428,101032
28327,100990
28302,100897
28600,100600
28897,100897
28872,100990
28762,101029
28897,101084
29044,101232
29124,101425
29125,101633
29125,100542
29118,100662
29060,100802
28967,100827
28670,100530
28967,100232
29060,100257
29129,100454
29129,99454
29118,99662
29060,99802
28967,99827
28897,99756
28897,99897
28872,99990
28769,100026
28872,100069
28897,100162
28600,100459
28529,100388
28529,100530
28232,100827
28139,100802
28070,100605
28081,100397
28139,100257
28232,100232
28529,100530
28529,100388
28302,100162
28327,100069
28430,100033
28327,99990
28302,99897
28600,99600
28897,99897
28897,99756
28670,99530
28967,99232
29060,99257
29129,99454
29129,97324
29125,97319
29125,98633
29045,98827
28897,98974
28771,99027
28872,99069
28897,99162
28600,99459
28529,99388
28529,99530
28232,99827
28139,99802
28070,99605
28081,99397
28139,99257
28232,99232
28529,99530
28529,99388
28302,99162
28327,99069
28437,99030
28303,98975
28155,98827
28075,98634
28074,98426
28154,98233
28302,98085
28495,98005
28703,98004
28897,98084
29044,98232
29124,98425
29125,98633
29125,97319
28755,96950
28737,96996
28666,97066
28574,97104
28475,97105
28189,97105
27732,97562
27625,97633
27500,97658
27275,97658
27275,100904
27275,101454
27237,101546
27166,101616
27135,101629
27166,101642
27236,101713
27274,101805
27275,101904
27275,102454
27237,102546
27166,102616
27135,102629
27166,102642
27236,102713
27274,102805
27275,102904
27275,103454
27237,103546
27166,103616
27074,103654
26975,103655
26425,103655
26333,103617
26263,103546
26250,103515
26237,103546
26166,103616
26074,103654
25975,103655
25425,103655
25333,103617
25263,103546
25250,103515
25237,103546
25166,103616
25074,103654
24975,103655
24425,103655
24333,103617
24263,103546
24250,103515
24237,103546
24166,103616
24074,103654
23975,103655
23425,103655
23333,103617
23263,103546
23225,103454
23224,103355
23224,102805
23262,102713
23333,102643
23425,102605
23524,102604
24074,102604
24166,102642
24236,102713
24249,102744
24262,102713
24333,102643
24425,102605
24524,102604
25074,102604
25166,102642
25236,102713
25249,102744
25262,102713
25333,102643
25425,102605
25524,102604
26074,102604
26166,102642
26236,102713
26249,102744
26262,102713
26333,102643
26364,102630
26333,102617
26263,102546
26225,102454
26224,102355
26224,101805
26262,101713
26333,101643
26364,101630
26333,101617
26263,101546
26225,101454
26224,101355
26224,100805
26262,100713
26333,100643
26425,100605
26524,100604
27074,100604
27166,100642
27236,100713
27274,100805
27275,100904
27275,97658
25503,97658
25483,97678
25497,97684
25644,97832
25724,98025
25725,98233
25645,98427
25497,98574
25304,98654
25096,98655
24903,98575
24755,98427
24699,98294
24645,98427
24497,98574
24304,98654
24096,98655
23903,98575
23755,98427
23699,98294
23645,98427
23497,98574
23304,98654
23096,98655
22903,98575
22755,98427
22699,98294
22645,98427
22497,98574
22304,98654
22096,98655
21903,98575
21755,98427
21702,98301
21660,98402
21567,98427
21497,98356
21497,98497
21472,98590
21275,98659
21067,98648
20927,98590
20902,98497
21200,98200
21497,98497
21497,98356
21270,98130
21276,98124
21205,98053
21200,98059
21129,97988
21129,98130
20832,98427
20739,98402
20700,98292
20645,98427
20497,98574
20304,98654
20096,98655
19903,98575
19755,98427
19702,98301
19660,98402
19567,98427
19497,98356
19497,98497
19472,98590
19275,98659
19067,98648
18927,98590
18902,98497
19200,98200
19497,98497
19497,98356
19270,98130
19567,97832
19660,97857
19699,97967
19754,97833
19902,97685
20095,97605
20303,97604
20497,97684
20644,97832
20697,97958
20739,97857
20832,97832
21129,98130
21129,97988
20902,97762
20927,97669
21124,97600
21138,97600
21121,97583
21053,97419
21053,97241
21120,97077
21246,96951
21410,96883
21588,96883
21752,96950
21803,97001
24896,97001
24946,96951
25110,96883
25288,96883
25452,96950
25503,97001
27363,97001
27724,96640
27724,96255
27762,96163
27833,96093
27925,96055
28024,96054
28574,96054
28666,96092
28736,96163
28773,96251
28850,96251
28975,96276
28975,96276
29082,96347
30232,97497
30232,97497
30303,97604
30328,97729
30328,97730
30328,99226
30378,99276
30446,99440
30446,99618
30446,94539
26905,94539
26905,96181
26856,96427
26716,96636
26507,96775
26261,96824
26236,96824
25990,96775
25781,96636
25749,96587
25716,96636
25507,96775
25261,96824
25236,96824
24990,96775
24781,96636
24749,96587
24716,96636
24507,96775
24261,96824
24236,96824
23990,96775
23781,96636
23749,96587
23716,96636
23507,96775
23261,96824
23236,96824
22990,96775
22781,96636
22749,96587
22716,96636
22507,96775
22261,96824
22236,96824
21990,96775
21781,96636
21749,96587
21716,96636
21507,96775
21261,96824
21236,96824
20990,96775
20781,96636
20749,96587
20716,96636
20507,96775
20261,96824
20236,96824
19990,96775
19781,96636
19750,96589
19718,96636
19509,96775
19497,96778
19497,97762
19200,98059
19129,97988
19129,98130
18832,98427
18739,98402
18700,98292
18645,98427
18497,98574
18304,98654
18096,98655
17903,98575
17755,98427
17699,98294
17645,98427
17497,98574
17304,98654
17096,98655
16903,98575
16755,98427
16699,98294
16645,98427
16497,98574
16304,98654
16096,98655
15903,98575
15755,98427
15699,98294
15645,98427
15497,98574
15304,98654
15096,98655
14903,98575
14755,98427
14699,98294
14645,98427
14497,98574
14497,98575
14497,100762
14200,101059
14129,100988
14129,101130
13832,101427
13739,101402
13670,101205
13681,100997
13739,100857
13832,100832
14129,101130
14129,100988
13902,100762
13927,100669
14124,100600
14332,100611
14472,100669
14497,100762
14497,98575
14304,98654
14096,98655
13903,98575
13755,98427
13675,98234
13674,98026
13754,97833
13902,97685
14095,97605
14303,97604
14497,97684
14644,97832
14700,97965
14754,97833
14902,97685
15095,97605
15303,97604
15497,97684
15644,97832
15700,97965
15754,97833
15902,97685
16095,97605
16303,97604
16497,97684
16644,97832
16700,97965
16754,97833
16902,97685
17095,97605
17303,97604
17497,97684
17644,97832
17700,97965
17754,97833
17902,97685
18095,97605
18303,97604
18497,97684
18644,97832
18697,97958
18739,97857
18832,97832
19129,98130
19129,97988
18902,97762
18927,97669
19124,97600
19332,97611
19472,97669
19497,97762
19497,96778
19263,96824
19238,96824
18992,96775
18783,96636
18751,96587
18718,96636
18509,96775
18263,96824
18238,96824
17992,96775
17783,96636
17751,96587
17718,96636
17509,96775
17263,96824
17238,96824
16992,96775
16783,96636
16751,96587
16718,96636
16509,96775
16263,96824
16238,96824
15992,96775
15783,96636
15751,96587
15718,96636
15509,96775
15263,96824
15238,96824
14992,96775
14783,96636
14744,96577
14628,96701
14400,96806
14301,96760
14301,96231
14308,96231
14308,96131
14301,96131
14301,95601
14400,95555
14628,95660
14744,95784
14783,95725
14992,95586
15238,95537
15263,95537
15509,95586
15718,95725
15751,95774
15783,95725
15992,95586
16238,95537
16263,95537
16509,95586
16718,95725
16751,95774
16783,95725
16992,95586
17238,95537
17263,95537
17509,95586
17718,95725
17751,95774
17783,95725
17992,95586
18238,95537
18263,95537
18509,95586
18718,95725
18751,95774
18783,95725
18992,95586
19238,95537
19263,95537
19509,95586
19718,95725
19750,95772
19781,95725
19990,95586
20236,95537
20261,95537
20507,95586
20716,95725
20749,95774
20781,95725
20990,95586
21236,95537
21261,95537
21507,95586
21716,95725
21749,95774
21781,95725
21990,95586
22236,95537
22261,95537
22507,95586
22716,95725
22749,95774
22781,95725
22990,95586
23236,95537
23261,95537
23507,95586
23716,95725
23749,95774
23781,95725
23990,95586
24236,95537
24261,95537
24507,95586
24716,95725
24749,95774
24781,95725
24990,95586
25236,95537
25261,95537
25507,95586
25716,95725
25749,95774
25781,95725
25990,95586
26236,95537
26261,95537
26507,95586
26716,95725
26856,95934
26905,96181
26905,94539
22775,94539
22775,95004
22737,95096
22666,95166
22574,95204
22475,95205
21925,95205
21833,95167
21763,95096
21750,95065
21737,95096
21666,95166
21574,95204
21475,95205
20925,95205
20833,95167
20763,95096
20725,95004
20724,94905
20724,94539
19775,94539
19775,95004
19737,95096
19666,95166
19574,95204
19475,95205
18925,95205
18833,95167
18763,95096
18750,95065
18737,95096
18666,95166
18574,95204
18475,95205
17925,95205
17833,95167
17763,95096
17725,95004
17724,94905
17724,94539
14201,94539
14201,95601
14201,96131
14193,96131
14193,96231
14201,96231
14201,96760
14101,96806
13873,96701
13757,96577
13718,96636
13509,96775
13263,96824
13238,96824
12992,96775
12783,96636
12643,96427
12594,96181
12643,95934
12783,95725
12992,95586
13238,95537
13263,95537
13509,95586
13718,95725
13757,95784
13873,95660
14101,95555
14201,95601
14201,94539
11775,94539
11775,96404
11775,96855
11774,96954
11736,97046
11666,97117
11574,97155
11362,97155
11300,97092
11300,96680
11712,96680
11775,96742
11775,96855
11775,96404
11775,96517
11712,96580
11300,96580
11300,96167
11362,96105
11574,96104
11666,96142
11736,96213
11774,96305
11775,96404
11775,94539
11073,94539
11073,96104
11137,96105
11200,96167
11200,96580
11192,96580
11192,96680
11200,96680
11200,97092
11137,97155
11073,97155
11073,107037
13738,107037
13725,107004
13724,106905
13724,106355
13762,106263
13767,106258
11950,106258
11824,106233
11717,106162
11484,105929
11413,105822
11388,105697
11388,104299
11300,104262
11229,104192
11191,104100
11191,104000
11191,103607
11229,103516
11265,103479
11229,103444
11191,103352
11191,103252
11191,102859
11229,102768
11299,102697
11388,102660
11388,102563
11413,102437
11484,102330
11674,102140
11674,101755
11712,101663
11783,101593
11875,101555
11974,101554
12524,101554
12616,101592
12686,101663
12724,101755
12725,101854
12725,101854
12754,101783
12902,101635
13095,101555
13303,101554
13497,101634
13644,101782
13700,101915
13754,101783
13902,101635
13968,101607
13927,101590
13902,101497
14200,101200
14497,101497
14472,101590
14428,101606
14497,101634
14644,101782
14700,101915
14754,101783
14902,101635
14974,101605
14903,101575
14755,101427
14702,101301
14660,101402
14567,101427
14270,101130
14567,100832
14660,100857
14699,100967
14754,100833
14902,100685
15095,100605
15303,100604
15497,100684
15644,100832
15700,100965
15754,100833
15902,100685
16095,100605
16303,100604
16497,100684
16644,100832
16700,100965
16754,100833
16902,100685
17095,100605
17303,100604
17497,100684
17644,100832
17700,100965
17754,100833
17902,100685
18095,100605
18303,100604
18497,100684
18644,100832
18700,100965
18754,100833
18902,100685
19095,100605
19303,100604
19497,100684
19644,100832
19700,100965
19754,100833
19902,100685
20095,100605
20303,100604
20497,100684
20644,100832
20700,100965
20754,100833
20902,100685
21095,100605
21303,100604
21497,100684
21644,100832
21700,100965
21754,100833
21902,100685
22095,100605
22303,100604
22497,100684
22644,100832
22700,100965
22754,100833
22902,100685
23095,100605
23303,100604
23497,100684
23644,100832
23700,100965
23754,100833
23902,100685
24095,100605
24303,100604
24497,100684
24644,100832
24674,100904
24674,100805
24712,100713
24783,100643
24875,100605
24974,100604
25524,100604
25616,100642
25686,100713
25724,100805
25725,100904
25725,101454
25687,101546
25616,101616
25524,101654
25425,101655
24875,101655
24783,101617
24713,101546
24675,101454
24674,101355
24674,101355
24645,101427
24497,101574
24304,101654
24096,101655
23903,101575
23755,101427
23699,101294
23645,101427
23497,101574
23304,101654
23096,101655
22903,101575
22755,101427
22699,101294
22645,101427
22497,101574
22304,101654
22096,101655
21903,101575
21755,101427
21699,101294
21645,101427
21497,101574
21425,101604
21497,101634
21644,101782
21724,101975
21725,102183
21645,102377
21528,102493
21528,103183
21558,103183
21649,103221
21720,103291
21758,103383
21758,103483
21758,103876
21720,103967
21650,104038
21558,104076
21458,104076
20907,104076
20892,104070
20892,104250
20854,104341
20784,104412
20695,104449
20695,104710
20716,104723
20749,104772
20781,104723
20990,104584
21236,104535
21261,104535
21507,104584
21716,104723
21749,104772
21781,104723
21990,104584
22236,104535
22261,104535
22507,104584
22716,104723
22749,104772
22781,104723
22990,104584
23236,104535
23261,104535
23507,104584
23716,104723
23749,104772
23781,104723
23990,104584
24236,104535
24261,104535
24507,104584
24716,104723
24749,104772
24781,104723
24990,104584
25236,104535
25261,104535
25507,104584
25716,104723
25749,104772
25781,104723
25990,104584
26236,104535
26261,104535
26507,104584
26716,104723
26856,104932
26905,105179
26856,105425
26716,105634
26507,105773
26261,105822
26236,105822
25990,105773
25781,105634
25749,105585
25716,105634
25507,105773
25261,105822
25236,105822
24990,105773
24781,105634
24749,105585
24716,105634
24507,105773
24261,105822
24236,105822
23990,105773
23781,105634
23749,105585
23716,105634
23507,105773
23261,105822
23236,105822
22990,105773
22781,105634
22749,105585
22716,105634
22507,105773
22261,105822
22236,105822
21990,105773
21781,105634
21749,105585
21716,105634
21507,105773
21261,105822
21236,105822
20990,105773
20781,105634
20749,105585
20716,105634
20507,105773
20261,105822
20236,105822
19990,105773
19781,105634
19750,105587
19718,105634
19509,105773
19263,105822
19238,105822
18992,105773
18783,105634
18751,105585
18718,105634
18509,105773
18263,105822
18238,105822
17992,105773
17783,105634
17751,105585
17718,105634
17509,105773
17263,105822
17238,105822
16992,105773
16783,105634
16751,105585
16718,105634
16579,105726
16579,105930
16554,106055
16483,106162
16376,106233
16251,106258
15732,106258
15736,106263
15774,106355
15775,106454
15775,107004
15761,107037
22738,107037
22725,107004
22724,106905
22724,106355
22762,106263
22833,106193
22925,106155
23024,106154
23574,106154
23666,106192
23736,106263
23749,106294
23762,106263
23833,106193
23925,106155
24024,106154
24574,106154
24666,106192
24736,106263
24749,106294
24762,106263
24833,106193
24925,106155
25024,106154
25574,106154
25666,106192
25736,106263
25749,106294
25762,106263
25833,106193
25925,106155
26024,106154
26574,106154
26666,106192
26736,106263
26774,106355
26775,106454
26775,107004
26761,107037
26938,107037
26925,107004
26924,106905
26924,106355
26962,106263
27033,106193
27125,106155
27224,106154
27774,106154
27866,106192
27936,106263
27974,106355
27975,106454
27975,107004
27961,107037
32627,107037
32627,94539
" /> 
</g>
<g style="fill:#FFFFFF; fill-opacity:0.0; 
stroke:#FFFFFF; stroke-width:59.0551; stroke-opacity:1; 
stroke-linecap:round; stroke-linejoin:round;">
</g>
<g style="fill:#FFFFFF; fill-opacity:1.0; 
stroke:#FFFFFF; stroke-width:59.0551; stroke-opacity:1; 
stroke-linecap:round; stroke-linejoin:round;">
<circle cx="16150" cy="104130" r="127.953" /> 
<circle cx="14500" cy="104280" r="127.953" /> 
<circle cx="30000" cy="99530" r="127.953" /> 
<circle cx="21500" cy="97330" r="127.953" /> 
<circle cx="25200" cy="97330" r="127.953" /> 
<circle cx="31600" cy="98530" r="130.472" /> 
<circle cx="31600" cy="99530" r="130.472" /> 
<circle cx="31600" cy="100530" r="130.472" /> 
<circle cx="31600" cy="101530" r="130.472" /> 
<circle cx="28600" cy="101530" r="130.472" /> 
<circle cx="28600" cy="100530" r="130.472" /> 
<circle cx="28600" cy="99530" r="130.472" /> 
<circle cx="28600" cy="98530" r="130.472" /> 
<circle cx="13251" cy="96181" r="166.972" /> 
<circle cx="13251" cy="105179" r="166.972" /> 
<circle cx="14251" cy="96181" r="166.972" /> 
<circle cx="14251" cy="105179" r="166.972" /> 
<circle cx="15251" cy="96181" r="166.972" /> 
<circle cx="15251" cy="105179" r="166.972" /> 
<circle cx="16251" cy="96181" r="166.972" /> 
<circle cx="16251" cy="105179" r="166.972" /> 
<circle cx="17251" cy="96181" r="166.972" /> 
<circle cx="17251" cy="105179" r="166.972" /> 
<circle cx="18251" cy="96181" r="166.972" /> 
<circle cx="18251" cy="105179" r="166.972" /> 
<circle cx="19251" cy="96181" r="166.972" /> 
<circle cx="19251" cy="105179" r="166.972" /> 
<circle cx="20249" cy="96181" r="166.972" /> 
<circle cx="20249" cy="105179" r="166.972" /> 
<circle cx="21249" cy="96181" r="166.972" /> 
<circle cx="21249" cy="105179" r="166.972" /> 
<circle cx="22249" cy="96181" r="166.972" /> 
<circle cx="22249" cy="105179" r="166.972" /> 
<circle cx="23249" cy="96181" r="166.972" /> 
<circle cx="23249" cy="105179" r="166.972" /> 
<circle cx="24249" cy="96181" r="166.972" /> 
<circle cx="24249" cy="105179" r="166.972" /> 
<circle cx="25249" cy="96181" r="166.972" /> 
<circle cx="25249" cy="105179" r="166.972" /> 
<circle cx="26249" cy="96181" r="166.972" /> 
<circle cx="26249" cy="105179" r="166.972" /> 
<circle cx="25200" cy="101130" r="130.472" /> 
<circle cx="24200" cy="101130" r="130.472" /> 
<circle cx="23200" cy="101130" r="130.472" /> 
<circle cx="22200" cy="101130" r="130.472" /> 
<circle cx="21200" cy="101130" r="130.472" /> 
<circle cx="20200" cy="101130" r="130.472" /> 
<circle cx="19200" cy="101130" r="130.472" /> 
<circle cx="18200" cy="101130" r="130.472" /> 
<circle cx="17200" cy="101130" r="130.472" /> 
<circle cx="16200" cy="101130" r="130.472" /> 
<circle cx="15200" cy="101130" r="130.472" /> 
<circle cx="14200" cy="101130" r="130.472" /> 
<circle cx="14200" cy="98130" r="130.472" /> 
<circle cx="15200" cy="98130" r="130.472" /> 
<circle cx="16200" cy="98130" r="130.472" /> 
<circle cx="17200" cy="98130" r="130.472" /> 
<circle cx="18200" cy="98130" r="130.472" /> 
<circle cx="19200" cy="98130" r="130.472" /> 
<circle cx="20200" cy="98130" r="130.472" /> 
<circle cx="21200" cy="98130" r="130.472" /> 
<circle cx="22200" cy="98130" r="130.472" /> 
<circle cx="23200" cy="98130" r="130.472" /> 
<circle cx="24200" cy="98130" r="130.472" /> 
<circle cx="25200" cy="98130" r="130.472" /> 
<circle cx="28950" cy="105030" r="127.972" /> 
<circle cx="28950" cy="106030" r="127.972" /> 
<circle cx="31150" cy="105030" r="127.972" /> 
<circle cx="31150" cy="106030" r="127.972" /> 
<circle cx="12200" cy="102080" r="130.472" /> 
<circle cx="13200" cy="102080" r="130.472" /> 
<circle cx="14200" cy="102080" r="130.472" /> 
<circle cx="15200" cy="102080" r="130.472" /> 
<circle cx="16200" cy="102080" r="130.472" /> 
<circle cx="17200" cy="102080" r="130.472" /> 
<circle cx="18200" cy="102080" r="130.472" /> 
<circle cx="19200" cy="102080" r="130.472" /> 
<circle cx="20200" cy="102080" r="130.472" /> 
<circle cx="21200" cy="102080" r="130.472" /> 
<circle cx="24750" cy="103130" r="130.472" /> 
<circle cx="23750" cy="103130" r="130.472" /> 
<circle cx="15250" cy="106680" r="130.472" /> 
<circle cx="14250" cy="106680" r="130.472" /> 
<circle cx="26250" cy="106680" r="130.472" /> 
<circle cx="25250" cy="106680" r="130.472" /> 
<circle cx="24250" cy="106680" r="130.472" /> 
<circle cx="23250" cy="106680" r="130.472" /> 
<circle cx="26750" cy="101130" r="130.472" /> 
<circle cx="26750" cy="102130" r="130.472" /> 
<circle cx="26750" cy="103130" r="130.472" /> 
<circle cx="25750" cy="103130" r="130.472" /> 
<circle cx="22250" cy="94680" r="130.472" /> 
<circle cx="28250" cy="96580" r="130.472" /> 
<circle cx="11250" cy="96630" r="130.472" /> 
<circle cx="28400" cy="103230" r="130.472" /> 
<circle cx="27450" cy="106680" r="130.472" /> 
<circle cx="18250" cy="94680" r="130.472" /> 
<circle cx="19250" cy="94680" r="130.472" /> 
<circle cx="21250" cy="94680" r="130.472" /> 
</g> 
</svg>
