<?xml version="1.0" standalone="no"?>
 <!DOCTYPE svg PUBLIC "-//W3C//DTD SVG 1.1//EN" 
 "http://www.w3.org/Graphics/SVG/1.1/DTD/svg11.dtd"> 
<svg xmlns="http://www.w3.org/2000/svg" version="1.1" 
    width="41.9989cm" height="29.7002cm" viewBox="0 0 165350 116930 ">
<title>SVG Picture created as drum-B_Cu.svg date 2014/11/02 13:14:06 </title>
  <desc>Picture generated by PCBNEW </desc>
<g style="fill:#000000; fill-opacity:1;stroke:#000000; stroke-opacity:1;
stroke-linecap:round; stroke-linejoin:round; "
 transform="translate(0 0) scale(1 1)">
</g>
<g style="fill:#000000; fill-opacity:0.0; 
stroke:#000000; stroke-width:39.3701; stroke-opacity:1; 
stroke-linecap:round; stroke-linejoin:round;">
<path d="M10629 22834
L33070 22834
" />
<path d="M10629 9448
L10629 22834
" />
<path d="M33070 9448
L10629 9448
" />
<path d="M33070 9842
L33070 9448
" />
<path d="M33070 22834
L33070 9842
" />
</g>
<g style="fill:#000000; fill-opacity:0.0; 
stroke:#000000; stroke-width:59.0551; stroke-opacity:1; 
stroke-linecap:round; stroke-linejoin:round;">
</g>
<g style="fill:#000000; fill-opacity:1.0; 
stroke:#000000; stroke-width:59.0551; stroke-opacity:1; 
stroke-linecap:round; stroke-linejoin:round;">
<polyline style="fill-rule:evenodd;"
points="29704,19845
29704,19454
29895,19454
29895,19845
29704,19845
" /> 
<polyline style="fill-rule:evenodd;"
points="30304,19845
30304,19454
30495,19454
30495,19845
30304,19845
" /> 
<polyline style="fill-rule:evenodd;"
points="31845,18645
31354,18645
31354,18154
31845,18154
31845,18645
" /> 
<circle cx="31600" cy="17400" r="245.472" /> 
<circle cx="31600" cy="16400" r="245.472" /> 
<circle cx="31600" cy="15400" r="245.472" /> 
<circle cx="28600" cy="15400" r="245.472" /> 
<circle cx="28600" cy="16400" r="245.472" /> 
<circle cx="28600" cy="17400" r="245.472" /> 
<circle cx="28600" cy="18400" r="245.472" /> 
<polyline style="fill-rule:evenodd;"
points="29104,21595
29104,21204
29295,21204
29295,21595
29104,21595
" /> 
<polyline style="fill-rule:evenodd;"
points="29704,21595
29704,21204
29895,21204
29895,21595
29704,21595
" /> 
<polyline style="fill-rule:evenodd;"
points="29154,13895
29154,13504
29345,13504
29345,13895
29154,13895
" /> 
<polyline style="fill-rule:evenodd;"
points="29754,13895
29754,13504
29945,13504
29945,13895
29754,13895
" /> 
<polyline style="fill-rule:evenodd;"
points="30545,14354
30545,14745
30354,14745
30354,14354
30545,14354
" /> 
<polyline style="fill-rule:evenodd;"
points="29945,14354
29945,14745
29754,14745
29754,14354
29945,14354
" /> 
</g>
<g style="fill:#000000; fill-opacity:1.0; 
stroke:#000000; stroke-width:787; stroke-opacity:1; 
stroke-linecap:round; stroke-linejoin:round;">
<path d="M13251 20749
L13251 20749
" />
<path d="M13251 11751
L13251 11751
" />
<path d="M14251 20749
L14251 20749
" />
<path d="M14251 11751
L14251 11751
" />
<path d="M15251 20749
L15251 20749
" />
<path d="M15251 11751
L15251 11751
" />
<path d="M16251 20749
L16251 20749
" />
<path d="M16251 11751
L16251 11751
" />
<path d="M17251 20749
L17251 20749
" />
<path d="M17251 11751
L17251 11751
" />
<path d="M18251 20749
L18251 20749
" />
<path d="M18251 11751
L18251 11751
" />
<path d="M19251 20749
L19251 20749
" />
<path d="M19251 11751
L19251 11751
" />
<path d="M20249 20749
L20249 20749
" />
<path d="M20249 11751
L20249 11751
" />
<path d="M21249 20749
L21249 20749
" />
<path d="M21249 11751
L21249 11751
" />
<path d="M22249 20749
L22249 20749
" />
<path d="M22249 11751
L22249 11751
" />
<path d="M23249 20749
L23249 20749
" />
<path d="M23249 11751
L23249 11751
" />
<path d="M24249 20749
L24249 20749
" />
<path d="M24249 11751
L24249 11751
" />
<path d="M25249 20749
L25249 20749
" />
<path d="M25249 11751
L25249 11751
" />
<path d="M26249 20749
L26249 20749
" />
<path d="M26249 11751
L26249 11751
" />
</g>
<g style="fill:#000000; fill-opacity:1.0; 
stroke:#000000; stroke-width:59.0551; stroke-opacity:1; 
stroke-linecap:round; stroke-linejoin:round;">
<polyline style="fill-rule:evenodd;"
points="25445,15554
25445,16045
24954,16045
24954,15554
25445,15554
" /> 
<circle cx="24200" cy="15800" r="245.472" /> 
<circle cx="23200" cy="15800" r="245.472" /> 
<circle cx="22200" cy="15800" r="245.472" /> 
<circle cx="21200" cy="15800" r="245.472" /> 
<circle cx="20200" cy="15800" r="245.472" /> 
<circle cx="19200" cy="15800" r="245.472" /> 
<circle cx="18200" cy="15800" r="245.472" /> 
<circle cx="17200" cy="15800" r="245.472" /> 
<circle cx="16200" cy="15800" r="245.472" /> 
<circle cx="15200" cy="15800" r="245.472" /> 
<circle cx="14200" cy="15800" r="245.472" /> 
<circle cx="14200" cy="18800" r="245.472" /> 
<circle cx="15200" cy="18800" r="245.472" /> 
<circle cx="16200" cy="18800" r="245.472" /> 
<circle cx="17200" cy="18800" r="245.472" /> 
<circle cx="18200" cy="18800" r="245.472" /> 
<circle cx="19200" cy="18800" r="245.472" /> 
<circle cx="20200" cy="18800" r="245.472" /> 
<circle cx="21200" cy="18800" r="245.472" /> 
<circle cx="22200" cy="18800" r="245.472" /> 
<circle cx="23200" cy="18800" r="245.472" /> 
<circle cx="24200" cy="18800" r="245.472" /> 
<circle cx="25200" cy="18800" r="245.472" /> 
<polyline style="fill-rule:evenodd;"
points="28586,12263
28586,11536
29313,11536
29313,12263
28586,12263
" /> 
<circle cx="28950" cy="10900" r="363.972" /> 
<polyline style="fill-rule:evenodd;"
points="30786,12263
30786,11536
31513,11536
31513,12263
30786,12263
" /> 
<circle cx="31150" cy="10900" r="363.972" /> 
<polyline style="fill-rule:evenodd;"
points="11954,15095
11954,14604
12445,14604
12445,15095
11954,15095
" /> 
<circle cx="13200" cy="14850" r="245.472" /> 
<circle cx="14200" cy="14850" r="245.472" /> 
<circle cx="15200" cy="14850" r="245.472" /> 
<circle cx="16200" cy="14850" r="245.472" /> 
<circle cx="17200" cy="14850" r="245.472" /> 
<circle cx="18200" cy="14850" r="245.472" /> 
<circle cx="19200" cy="14850" r="245.472" /> 
<circle cx="20200" cy="14850" r="245.472" /> 
<circle cx="21200" cy="14850" r="245.472" /> 
<polyline style="fill-rule:evenodd;"
points="24504,14045
24504,13554
24995,13554
24995,14045
24504,14045
" /> 
<polyline style="fill-rule:evenodd;"
points="23504,14045
23504,13554
23995,13554
23995,14045
23504,14045
" /> 
<polyline style="fill-rule:evenodd;"
points="15004,10495
15004,10004
15495,10004
15495,10495
15004,10495
" /> 
<polyline style="fill-rule:evenodd;"
points="14004,10495
14004,10004
14495,10004
14495,10495
14004,10495
" /> 
<polyline style="fill-rule:evenodd;"
points="26004,10495
26004,10004
26495,10004
26495,10495
26004,10495
" /> 
<polyline style="fill-rule:evenodd;"
points="25004,10495
25004,10004
25495,10004
25495,10495
25004,10495
" /> 
<polyline style="fill-rule:evenodd;"
points="24004,10495
24004,10004
24495,10004
24495,10495
24004,10495
" /> 
<polyline style="fill-rule:evenodd;"
points="23004,10495
23004,10004
23495,10004
23495,10495
23004,10495
" /> 
<polyline style="fill-rule:evenodd;"
points="26504,16045
26504,15554
26995,15554
26995,16045
26504,16045
" /> 
<polyline style="fill-rule:evenodd;"
points="26504,15045
26504,14554
26995,14554
26995,15045
26504,15045
" /> 
<polyline style="fill-rule:evenodd;"
points="26504,14045
26504,13554
26995,13554
26995,14045
26504,14045
" /> 
<polyline style="fill-rule:evenodd;"
points="25504,14045
25504,13554
25995,13554
25995,14045
25504,14045
" /> 
<polyline style="fill-rule:evenodd;"
points="22004,22495
22004,22004
22495,22004
22495,22495
22004,22495
" /> 
<polyline style="fill-rule:evenodd;"
points="28004,20595
28004,20104
28495,20104
28495,20595
28004,20595
" /> 
<polyline style="fill-rule:evenodd;"
points="11004,20545
11004,20054
11495,20054
11495,20545
11004,20545
" /> 
<polyline style="fill-rule:evenodd;"
points="28154,13945
28154,13454
28645,13454
28645,13945
28154,13945
" /> 
<polyline style="fill-rule:evenodd;"
points="27204,10495
27204,10004
27695,10004
27695,10495
27204,10495
" /> 
<polyline style="fill-rule:evenodd;"
points="18004,22495
18004,22004
18495,22004
18495,22495
18004,22495
" /> 
<polyline style="fill-rule:evenodd;"
points="19004,22495
19004,22004
19495,22004
19495,22495
19004,22495
" /> 
<polyline style="fill-rule:evenodd;"
points="21004,22495
21004,22004
21495,22004
21495,22495
21004,22495
" /> 
<circle cx="16150" cy="12800" r="167.323" /> 
<circle cx="14500" cy="12650" r="167.323" /> 
<circle cx="30000" cy="17400" r="167.323" /> 
<circle cx="21500" cy="19600" r="167.323" /> 
<circle cx="25200" cy="19600" r="167.323" /> 
</g>
<g style="fill:#000000; fill-opacity:1.0; 
stroke:#000000; stroke-width:157.48; stroke-opacity:1; 
stroke-linecap:round; stroke-linejoin:round;">
<path d="M28400 13700
L29250 13700
" />
<path d="M26249 11751
L26249 10251
" />
<path d="M26249 10251
L26250 10250
" />
<path d="M25249 11751
L25249 10251
" />
<path d="M25249 10251
L25250 10250
" />
<path d="M24249 11751
L24249 10251
" />
<path d="M24249 10251
L24250 10250
" />
<path d="M23249 11751
L23249 10251
" />
<path d="M23249 10251
L23250 10250
" />
<path d="M18250 22250
L18250 20750
" />
<path d="M18250 20750
L18251 20749
" />
<path d="M19250 22250
L19250 20750
" />
<path d="M19250 20750
L19251 20749
" />
<path d="M25200 15800
L26750 15800
" />
<path d="M24200 15800
L24200 15450
" />
<path d="M26250 14800
L26750 14800
" />
<path d="M25800 15250
L26250 14800
" />
<path d="M24400 15250
L25800 15250
" />
<path d="M24200 15450
L24400 15250
" />
<path d="M23650 15050
L23750 14950
" />
<path d="M25250 14950
L25350 14850
" />
<path d="M23750 14950
L25250 14950
" />
<path d="M26750 13800
L26050 14500
" />
<path d="M25700 14500
L25350 14850
" />
<path d="M26050 14500
L25700 14500
" />
<path d="M23200 15500
L23200 15800
" />
<path d="M23650 15050
L23200 15500
" />
<path d="M22950 14750
L23050 14650
" />
<path d="M24900 14650
L24950 14600
" />
<path d="M23050 14650
L24900 14650
" />
<path d="M22700 15000
L22950 14750
" />
<path d="M22200 15800
L22200 15500
" />
<path d="M24950 14600
L25750 13800
" />
<path d="M22200 15500
L22700 15000
" />
<path d="M22300 14700
L22500 14500
" />
<path d="M24600 14350
L24750 14200
" />
<path d="M22650 14350
L24600 14350
" />
<path d="M22500 14500
L22650 14350
" />
<path d="M21200 15800
L21850 15150
" />
<path d="M24750 14200
L24750 13800
" />
<path d="M21850 15150
L22300 14700
" />
<path d="M20200 15800
L20300 15800
" />
<path d="M21300 13800
L23750 13800
" />
<path d="M20700 14400
L21300 13800
" />
<path d="M20700 15400
L20700 14400
" />
<path d="M20300 15800
L20700 15400
" />
<path d="M27450 10250
L28300 10250
" />
<path d="M28300 10250
L28950 10900
" />
<path d="M28950 10900
L31150 10900
" />
<path d="M24249 20749
L24249 18849
" />
<path d="M24249 18849
L24200 18800
" />
<path d="M23249 20749
L23249 18849
" />
<path d="M23249 18849
L23200 18800
" />
<path d="M22250 22250
L22250 20750
" />
<path d="M22250 20750
L22249 20749
" />
<path d="M26249 20749
L26499 20749
" />
<path d="M27150 21400
L29200 21400
" />
<path d="M26499 20749
L27150 21400
" />
<path d="M22249 11751
L22249 12549
" />
<path d="M20200 17650
L20200 18800
" />
<path d="M21050 16800
L20200 17650
" />
<path d="M27200 16800
L21050 16800
" />
<path d="M27700 16300
L27200 16800
" />
<path d="M27700 13200
L27700 16300
" />
<path d="M27250 12750
L27700 13200
" />
<path d="M22450 12750
L27250 12750
" />
<path d="M22249 12549
L22450 12750
" />
<path d="M18251 12149
L18251 11751
" />
<path d="M17600 12800
L18251 12149
" />
<path d="M16150 12800
L17600 12800
" />
<path d="M14900 12650
L15350 12650
" />
<path d="M15650 12350
L17000 12350
" />
<path d="M15350 12650
L15650 12350
" />
<path d="M17251 12099
L17251 11751
" />
<path d="M17000 12350
L17251 12099
" />
<path d="M14500 12650
L14900 12650
" />
<path d="M15251 11751
L15250 11750
" />
<path d="M15250 11750
L15250 10250
" />
<path d="M14251 11751
L14250 11750
" />
<path d="M14250 11750
L14250 10250
" />
<path d="M22200 18800
L22200 18450
" />
<path d="M25249 20301
L25249 20749
" />
<path d="M26150 19400
L25249 20301
" />
<path d="M26150 18250
L26150 19400
" />
<path d="M25750 17850
L26150 18250
" />
<path d="M22800 17850
L25750 17850
" />
<path d="M22200 18450
L22800 17850
" />
<path d="M21250 22250
L21250 20750
" />
<path d="M21250 20750
L21249 20749
" />
<path d="M28600 16400
L29000 16400
" />
<path d="M30000 15400
L31600 15400
" />
<path d="M29000 16400
L30000 15400
" />
<path d="M21200 18800
L21200 17850
" />
<path d="M28600 17200
L28600 16400
" />
<path d="M28500 17300
L28600 17200
" />
<path d="M21750 17300
L28500 17300
" />
<path d="M21200 17850
L21750 17300
" />
<path d="M14200 15800
L14200 17500
" />
<path d="M14200 17500
L14050 17650
" />
<path d="M11250 20300
L12000 20300
" />
<path d="M12000 20300
L12150 20150
" />
<path d="M14251 20749
L14251 21199
" />
<path d="M12150 19200
L13700 17650
" />
<path d="M12150 21300
L12150 20150
" />
<path d="M12150 20150
L12150 19200
" />
<path d="M12550 21700
L12150 21300
" />
<path d="M13750 21700
L12550 21700
" />
<path d="M14251 21199
L13750 21700
" />
<path d="M19200 18200
L19200 18800
" />
<path d="M13700 17650
L14050 17650
" />
<path d="M14050 17650
L18650 17650
" />
<path d="M18650 17650
L19200 18200
" />
<path d="M21200 18800
L21200 19050
" />
<path d="M19200 19300
L19200 18800
" />
<path d="M19450 19550
L19200 19300
" />
<path d="M20700 19550
L19450 19550
" />
<path d="M21200 19050
L20700 19550
" />
<path d="M28600 18400
L28600 18950
" />
<path d="M29300 19650
L29800 19650
" />
<path d="M28600 18950
L29300 19650
" />
<path d="M29800 21400
L29800 19650
" />
<path d="M29850 14550
L29850 13700
" />
<path d="M28600 15400
L28600 15150
" />
<path d="M29200 14550
L29850 14550
" />
<path d="M28600 15150
L29200 14550
" />
<path d="M28950 11900
L28950 12100
" />
<path d="M30450 13200
L30450 14550
" />
<path d="M29950 12700
L30450 13200
" />
<path d="M29550 12700
L29950 12700
" />
<path d="M28950 12100
L29550 12700
" />
<path d="M30450 14550
L31750 14550
" />
<path d="M31950 16400
L31600 16400
" />
<path d="M32350 16000
L31950 16400
" />
<path d="M32350 15150
L32350 16000
" />
<path d="M31750 14550
L32350 15150
" />
<path d="M31150 11900
L31150 13100
" />
<path d="M32100 18400
L31600 18400
" />
<path d="M32700 17800
L32100 18400
" />
<path d="M32700 14650
L32700 17800
" />
<path d="M31150 13100
L32700 14650
" />
<path d="M30400 19650
L31050 19650
" />
<path d="M31600 19100
L31600 18400
" />
<path d="M31050 19650
L31600 19100
" />
<path d="M30000 17400
L31600 17400
" />
<path d="M13251 20749
L13251 19999
" />
<path d="M13252 20000
L20249 20000
" />
<path d="M13251 19999
L13252 20000
" />
<path d="M20249 20000
L21100 20000
" />
<path d="M21100 20000
L21500 19600
" />
<path d="M20249 20749
L20249 20000
" />
<path d="M25200 19600
L25200 18800
" />
</g>
<g style="fill:#000000; fill-opacity:1.0; 
stroke:#000000; stroke-width:59.0551; stroke-opacity:1; 
stroke-linecap:round; stroke-linejoin:round;">
<polyline style="fill-rule:evenodd;"
points="32021,15863
31913,15971
31897,15955
31771,15902
31872,15860
31897,15767
31600,15470
31529,15541
31529,15400
31232,15102
31139,15127
31070,15324
31081,15532
31139,15672
31232,15697
31529,15400
31529,15541
31302,15767
31327,15860
31437,15899
31303,15954
31155,16102
31075,16295
31074,16503
31154,16697
31302,16844
31435,16900
31303,16954
31186,17071
30303,17071
30253,17021
30089,16953
29911,16953
29747,17020
29621,17146
29553,17310
29553,17488
29620,17652
29746,17778
29910,17846
30088,17846
30252,17779
30303,17728
31186,17728
31302,17844
31374,17874
31275,17874
31183,17912
31113,17983
31075,18075
31074,18174
31074,18724
31112,18816
31183,18886
31271,18923
31271,18963
30913,19321
30752,19321
30737,19283
30666,19213
30574,19175
30475,19174
30225,19174
30133,19212
30100,19246
30066,19213
29974,19175
29875,19174
29625,19174
29533,19212
29463,19283
29447,19321
29436,19321
29129,19014
29129,17475
29129,16475
29118,16267
29060,16127
28967,16102
28670,16400
28967,16697
29060,16672
29129,16475
29129,17475
29118,17267
29060,17127
28967,17102
28897,17173
28897,17032
28872,16939
28769,16903
28872,16860
28897,16767
28600,16470
28529,16541
28529,16400
28232,16102
28139,16127
28070,16324
28081,16532
28139,16672
28232,16697
28529,16400
28529,16541
28302,16767
28327,16860
28430,16896
28327,16939
28302,17032
28600,17329
28897,17032
28897,17173
28670,17400
28967,17697
29060,17672
29129,17475
29129,19014
28928,18813
28928,18813
29044,18697
29124,18504
29125,18296
29045,18103
28897,17955
28771,17902
28872,17860
28897,17767
28600,17470
28529,17541
28529,17400
28232,17102
28139,17127
28070,17324
28081,17532
28139,17672
28232,17697
28529,17400
28529,17541
28302,17767
28327,17860
28437,17899
28303,17954
28155,18102
28075,18295
28074,18503
28154,18697
28271,18813
28271,18950
28296,19075
28367,19182
29067,19882
29067,19882
29174,19953
29299,19978
29300,19978
29447,19978
29462,20016
29471,20024
29471,20967
29466,20963
29374,20925
29275,20924
29025,20924
28933,20962
28863,21033
28847,21071
28775,21071
28775,20575
28775,20025
28737,19933
28666,19863
28574,19825
28475,19824
27925,19824
27833,19862
27763,19933
27725,20025
27724,20124
27724,20674
27762,20766
27833,20836
27925,20874
28024,20875
28574,20875
28666,20837
28736,20766
28774,20674
28775,20575
28775,21071
27286,21071
26890,20675
26856,20502
26716,20293
26507,20154
26261,20105
26236,20105
25990,20154
25781,20293
25749,20342
25718,20296
26382,19632
26453,19525
26453,19525
26478,19400
26478,18250
26478,18249
26453,18124
26382,18017
26382,18017
25982,17617
25875,17546
25750,17521
22800,17521
22674,17546
22567,17617
21967,18217
21896,18324
21887,18370
21887,18370
21755,18502
21702,18628
21660,18527
21567,18502
21497,18573
21497,18432
21472,18339
21275,18270
21067,18281
20927,18339
20902,18432
21200,18729
21497,18432
21497,18573
21270,18800
21276,18805
21205,18876
21200,18870
20902,19167
20927,19260
21124,19329
21138,19329
21121,19346
21053,19510
21053,19581
20963,19671
20249,19671
19497,19671
19497,19167
19200,18870
19129,18941
19129,18800
18832,18502
18739,18527
18700,18637
18645,18503
18497,18355
18304,18275
18096,18274
17903,18354
17755,18502
17699,18635
17645,18503
17497,18355
17304,18275
17096,18274
16903,18354
16755,18502
16699,18635
16645,18503
16497,18355
16304,18275
16096,18274
15903,18354
15755,18502
15699,18635
15645,18503
15497,18355
15304,18275
15096,18274
14903,18354
14755,18502
14699,18635
14645,18503
14497,18355
14497,18354
14497,16167
14200,15870
14129,15941
14129,15800
13832,15502
13739,15527
13670,15724
13681,15932
13739,16072
13832,16097
14129,15800
14129,15941
13902,16167
13927,16260
14124,16329
14332,16318
14472,16260
14497,16167
14497,18354
14304,18275
14096,18274
13903,18354
13755,18502
13675,18695
13674,18903
13754,19097
13902,19244
14095,19324
14303,19325
14497,19245
14644,19097
14700,18964
14754,19097
14902,19244
15095,19324
15303,19325
15497,19245
15644,19097
15700,18964
15754,19097
15902,19244
16095,19324
16303,19325
16497,19245
16644,19097
16700,18964
16754,19097
16902,19244
17095,19324
17303,19325
17497,19245
17644,19097
17700,18964
17754,19097
17902,19244
18095,19324
18303,19325
18497,19245
18644,19097
18697,18971
18739,19072
18832,19097
19129,18800
19129,18941
18902,19167
18927,19260
19124,19329
19332,19318
19472,19260
19497,19167
19497,19671
13256,19671
13251,19670
13125,19695
13018,19766
12947,19873
12922,19999
12922,20201
12783,20293
12643,20502
12594,20749
12643,20995
12783,21204
12992,21343
13238,21392
13263,21392
13509,21343
13718,21204
13757,21145
13873,21269
14101,21374
14201,21328
14201,20799
14193,20799
14193,20699
14201,20699
14201,20691
14301,20691
14301,20699
14308,20699
14308,20799
14301,20799
14301,21328
14400,21374
14628,21269
14744,21145
14783,21204
14992,21343
15238,21392
15263,21392
15509,21343
15718,21204
15751,21155
15783,21204
15992,21343
16238,21392
16263,21392
16509,21343
16718,21204
16751,21155
16783,21204
16992,21343
17238,21392
17263,21392
17509,21343
17718,21204
17751,21155
17783,21204
17921,21296
17921,21726
17833,21762
17763,21833
17725,21925
17724,22024
17724,22390
11775,22390
11775,20525
11775,20074
11774,19975
11736,19883
11666,19812
11574,19774
11362,19775
11300,19837
11300,20250
11712,20250
11775,20187
11775,20074
11775,20525
11775,20412
11712,20350
11300,20350
11300,20762
11362,20825
11574,20825
11666,20787
11736,20716
11774,20624
11775,20525
11775,22390
11073,22390
11073,20825
11137,20825
11200,20762
11200,20350
11192,20350
11192,20250
11200,20250
11200,19837
11137,19775
11073,19774
11073,9892
13738,9892
13725,9925
13724,10024
13724,10574
13762,10666
13833,10736
13921,10773
13921,11203
13783,11295
13751,11344
13718,11295
13509,11156
13263,11107
13238,11107
12992,11156
12783,11295
12643,11504
12594,11751
12643,11997
12783,12206
12992,12345
13238,12394
13263,12394
13509,12345
13718,12206
13751,12157
13783,12206
13992,12345
14142,12375
14121,12396
14053,12560
14053,12738
14120,12902
14246,13028
14410,13096
14588,13096
14752,13029
14803,12978
14900,12978
15350,12978
15475,12953
15475,12953
15582,12882
15703,12761
15703,12888
15770,13052
15896,13178
16060,13246
16238,13246
16402,13179
16453,13128
17600,13128
17725,13103
17725,13103
17832,13032
18483,12381
18483,12381
18507,12346
18507,12346
18509,12345
18718,12206
18751,12157
18783,12206
18992,12345
19238,12394
19263,12394
19509,12345
19718,12206
19750,12159
19781,12206
19990,12345
20236,12394
20261,12394
20507,12345
20716,12206
20749,12157
20781,12206
20990,12345
21236,12394
21261,12394
21507,12345
21716,12206
21749,12157
21781,12206
21920,12298
21920,12549
21945,12674
22016,12781
22217,12982
22217,12982
22324,13053
22450,13078
27113,13078
27371,13336
27371,16163
27275,16260
27275,16025
27275,15475
27237,15383
27166,15313
27135,15300
27166,15287
27236,15216
27274,15124
27275,15025
27275,14475
27237,14383
27166,14313
27135,14300
27166,14287
27236,14216
27274,14124
27275,14025
27275,13475
27237,13383
27166,13313
27074,13275
26975,13274
26425,13274
26333,13312
26263,13383
26250,13414
26237,13383
26166,13313
26074,13275
25975,13274
25425,13274
25333,13312
25263,13383
25250,13414
25237,13383
25166,13313
25074,13275
24975,13274
24425,13274
24333,13312
24263,13383
24250,13414
24237,13383
24166,13313
24074,13275
23975,13274
23425,13274
23333,13312
23263,13383
23226,13471
21300,13471
21174,13496
21067,13567
20467,14167
20396,14274
20379,14356
20304,14325
20096,14324
19903,14404
19755,14552
19699,14685
19645,14553
19497,14405
19304,14325
19096,14324
18903,14404
18755,14552
18699,14685
18645,14553
18497,14405
18304,14325
18096,14324
17903,14404
17755,14552
17699,14685
17645,14553
17497,14405
17304,14325
17096,14324
16903,14404
16755,14552
16699,14685
16645,14553
16497,14405
16304,14325
16096,14324
15903,14404
15755,14552
15699,14685
15645,14553
15497,14405
15304,14325
15096,14324
14903,14404
14755,14552
14699,14685
14645,14553
14497,14405
14304,14325
14096,14324
13903,14404
13755,14552
13699,14685
13645,14553
13497,14405
13304,14325
13096,14324
12903,14404
12755,14552
12725,14624
12725,14525
12687,14433
12616,14363
12524,14325
12425,14324
11875,14324
11783,14362
11713,14433
11675,14525
11674,14624
11674,15174
11712,15266
11783,15336
11875,15374
11974,15375
12524,15375
12616,15337
12686,15266
12724,15174
12725,15075
12725,15075
12754,15147
12902,15294
13095,15374
13303,15375
13497,15295
13644,15147
13700,15014
13754,15147
13902,15294
13968,15322
13927,15339
13902,15432
14200,15729
14497,15432
14472,15339
14428,15323
14497,15295
14644,15147
14700,15014
14754,15147
14902,15294
14974,15324
14903,15354
14755,15502
14702,15628
14660,15527
14567,15502
14270,15800
14567,16097
14660,16072
14699,15962
14754,16097
14902,16244
15095,16324
15303,16325
15497,16245
15644,16097
15700,15964
15754,16097
15902,16244
16095,16324
16303,16325
16497,16245
16644,16097
16700,15964
16754,16097
16902,16244
17095,16324
17303,16325
17497,16245
17644,16097
17700,15964
17754,16097
17902,16244
18095,16324
18303,16325
18497,16245
18644,16097
18700,15964
18754,16097
18902,16244
19095,16324
19303,16325
19497,16245
19644,16097
19700,15964
19754,16097
19902,16244
20095,16324
20303,16325
20497,16245
20644,16097
20700,15964
20754,16097
20902,16244
21095,16324
21303,16325
21497,16245
21644,16097
21700,15964
21754,16097
21902,16244
22095,16324
22303,16325
22497,16245
22644,16097
22700,15964
22754,16097
22902,16244
23095,16324
23303,16325
23497,16245
23644,16097
23700,15964
23754,16097
23902,16244
24095,16324
24303,16325
24497,16245
24644,16097
24674,16025
24674,16124
24712,16216
24783,16286
24875,16324
24974,16325
25524,16325
25616,16287
25686,16216
25723,16128
26226,16128
26262,16216
26333,16286
26425,16324
26524,16325
27074,16325
27166,16287
27236,16216
27274,16124
27275,16025
27275,16260
27063,16471
21050,16471
20924,16496
20817,16567
19967,17417
19896,17524
19871,17650
19871,18386
19755,18502
19702,18628
19660,18527
19567,18502
19497,18573
19497,18432
19472,18339
19275,18270
19067,18281
18927,18339
18902,18432
19200,18729
19497,18432
19497,18573
19270,18800
19567,19097
19660,19072
19699,18962
19754,19097
19902,19244
20095,19324
20303,19325
20497,19245
20644,19097
20697,18971
20739,19072
20832,19097
21129,18800
20832,18502
20739,18527
20700,18637
20645,18503
20528,18386
20528,17786
21186,17128
27200,17128
27325,17103
27325,17103
27432,17032
27932,16532
28003,16425
28003,16425
28028,16300
28028,14205
28075,14224
28174,14225
28724,14225
28816,14187
28886,14116
28910,14060
28912,14066
28983,14136
29075,14174
29174,14175
29424,14175
29516,14137
29521,14132
29521,14175
29513,14183
29497,14221
29200,14221
29074,14246
28967,14317
28367,14917
28357,14931
28357,14931
28303,14954
28155,15102
28075,15295
28074,15503
28154,15697
28302,15844
28428,15897
28327,15939
28302,16032
28600,16329
28897,16032
28872,15939
28762,15900
28897,15845
29044,15697
29124,15504
29125,15296
29064,15150
29336,14878
29497,14878
29512,14916
29583,14986
29675,15024
29774,15025
30024,15025
30116,14987
30149,14953
30183,14986
30275,15024
30374,15025
30624,15025
30716,14987
30786,14916
30802,14878
31516,14878
31467,14881
31327,14939
31302,15032
31600,15329
31605,15323
31676,15394
31670,15400
31967,15697
32021,15683
32021,15863
" /> 
</g>
<g style="fill:#000000; fill-opacity:0.0; 
stroke:#000000; stroke-width:100; stroke-opacity:1; 
stroke-linecap:round; stroke-linejoin:round;">
<polyline fill="none;"
points="32021,15863
31913,15971
31897,15955
31771,15902
31872,15860
31897,15767
31600,15470
31529,15541
31529,15400
31232,15102
31139,15127
31070,15324
31081,15532
31139,15672
31232,15697
31529,15400
31529,15541
31302,15767
31327,15860
31437,15899
31303,15954
31155,16102
31075,16295
31074,16503
31154,16697
31302,16844
31435,16900
31303,16954
31186,17071
30303,17071
30253,17021
30089,16953
29911,16953
29747,17020
29621,17146
29553,17310
29553,17488
29620,17652
29746,17778
29910,17846
30088,17846
30252,17779
30303,17728
31186,17728
31302,17844
31374,17874
31275,17874
31183,17912
31113,17983
31075,18075
31074,18174
31074,18724
31112,18816
31183,18886
31271,18923
31271,18963
30913,19321
30752,19321
30737,19283
30666,19213
30574,19175
30475,19174
30225,19174
30133,19212
30100,19246
30066,19213
29974,19175
29875,19174
29625,19174
29533,19212
29463,19283
29447,19321
29436,19321
29129,19014
29129,17475
29129,16475
29118,16267
29060,16127
28967,16102
28670,16400
28967,16697
29060,16672
29129,16475
29129,17475
29118,17267
29060,17127
28967,17102
28897,17173
28897,17032
28872,16939
28769,16903
28872,16860
28897,16767
28600,16470
28529,16541
28529,16400
28232,16102
28139,16127
28070,16324
28081,16532
28139,16672
28232,16697
28529,16400
28529,16541
28302,16767
28327,16860
28430,16896
28327,16939
28302,17032
28600,17329
28897,17032
28897,17173
28670,17400
28967,17697
29060,17672
29129,17475
29129,19014
28928,18813
28928,18813
29044,18697
29124,18504
29125,18296
29045,18103
28897,17955
28771,17902
28872,17860
28897,17767
28600,17470
28529,17541
28529,17400
28232,17102
28139,17127
28070,17324
28081,17532
28139,17672
28232,17697
28529,17400
28529,17541
28302,17767
28327,17860
28437,17899
28303,17954
28155,18102
28075,18295
28074,18503
28154,18697
28271,18813
28271,18950
28296,19075
28367,19182
29067,19882
29067,19882
29174,19953
29299,19978
29300,19978
29447,19978
29462,20016
29471,20024
29471,20967
29466,20963
29374,20925
29275,20924
29025,20924
28933,20962
28863,21033
28847,21071
28775,21071
28775,20575
28775,20025
28737,19933
28666,19863
28574,19825
28475,19824
27925,19824
27833,19862
27763,19933
27725,20025
27724,20124
27724,20674
27762,20766
27833,20836
27925,20874
28024,20875
28574,20875
28666,20837
28736,20766
28774,20674
28775,20575
28775,21071
27286,21071
26890,20675
26856,20502
26716,20293
26507,20154
26261,20105
26236,20105
25990,20154
25781,20293
25749,20342
25718,20296
26382,19632
26453,19525
26453,19525
26478,19400
26478,18250
26478,18249
26453,18124
26382,18017
26382,18017
25982,17617
25875,17546
25750,17521
22800,17521
22674,17546
22567,17617
21967,18217
21896,18324
21887,18370
21887,18370
21755,18502
21702,18628
21660,18527
21567,18502
21497,18573
21497,18432
21472,18339
21275,18270
21067,18281
20927,18339
20902,18432
21200,18729
21497,18432
21497,18573
21270,18800
21276,18805
21205,18876
21200,18870
20902,19167
20927,19260
21124,19329
21138,19329
21121,19346
21053,19510
21053,19581
20963,19671
20249,19671
19497,19671
19497,19167
19200,18870
19129,18941
19129,18800
18832,18502
18739,18527
18700,18637
18645,18503
18497,18355
18304,18275
18096,18274
17903,18354
17755,18502
17699,18635
17645,18503
17497,18355
17304,18275
17096,18274
16903,18354
16755,18502
16699,18635
16645,18503
16497,18355
16304,18275
16096,18274
15903,18354
15755,18502
15699,18635
15645,18503
15497,18355
15304,18275
15096,18274
14903,18354
14755,18502
14699,18635
14645,18503
14497,18355
14497,18354
14497,16167
14200,15870
14129,15941
14129,15800
13832,15502
13739,15527
13670,15724
13681,15932
13739,16072
13832,16097
14129,15800
14129,15941
13902,16167
13927,16260
14124,16329
14332,16318
14472,16260
14497,16167
14497,18354
14304,18275
14096,18274
13903,18354
13755,18502
13675,18695
13674,18903
13754,19097
13902,19244
14095,19324
14303,19325
14497,19245
14644,19097
14700,18964
14754,19097
14902,19244
15095,19324
15303,19325
15497,19245
15644,19097
15700,18964
15754,19097
15902,19244
16095,19324
16303,19325
16497,19245
16644,19097
16700,18964
16754,19097
16902,19244
17095,19324
17303,19325
17497,19245
17644,19097
17700,18964
17754,19097
17902,19244
18095,19324
18303,19325
18497,19245
18644,19097
18697,18971
18739,19072
18832,19097
19129,18800
19129,18941
18902,19167
18927,19260
19124,19329
19332,19318
19472,19260
19497,19167
19497,19671
13256,19671
13251,19670
13125,19695
13018,19766
12947,19873
12922,19999
12922,20201
12783,20293
12643,20502
12594,20749
12643,20995
12783,21204
12992,21343
13238,21392
13263,21392
13509,21343
13718,21204
13757,21145
13873,21269
14101,21374
14201,21328
14201,20799
14193,20799
14193,20699
14201,20699
14201,20691
14301,20691
14301,20699
14308,20699
14308,20799
14301,20799
14301,21328
14400,21374
14628,21269
14744,21145
14783,21204
14992,21343
15238,21392
15263,21392
15509,21343
15718,21204
15751,21155
15783,21204
15992,21343
16238,21392
16263,21392
16509,21343
16718,21204
16751,21155
16783,21204
16992,21343
17238,21392
17263,21392
17509,21343
17718,21204
17751,21155
17783,21204
17921,21296
17921,21726
17833,21762
17763,21833
17725,21925
17724,22024
17724,22390
11775,22390
11775,20525
11775,20074
11774,19975
11736,19883
11666,19812
11574,19774
11362,19775
11300,19837
11300,20250
11712,20250
11775,20187
11775,20074
11775,20525
11775,20412
11712,20350
11300,20350
11300,20762
11362,20825
11574,20825
11666,20787
11736,20716
11774,20624
11775,20525
11775,22390
11073,22390
11073,20825
11137,20825
11200,20762
11200,20350
11192,20350
11192,20250
11200,20250
11200,19837
11137,19775
11073,19774
11073,9892
13738,9892
13725,9925
13724,10024
13724,10574
13762,10666
13833,10736
13921,10773
13921,11203
13783,11295
13751,11344
13718,11295
13509,11156
13263,11107
13238,11107
12992,11156
12783,11295
12643,11504
12594,11751
12643,11997
12783,12206
12992,12345
13238,12394
13263,12394
13509,12345
13718,12206
13751,12157
13783,12206
13992,12345
14142,12375
14121,12396
14053,12560
14053,12738
14120,12902
14246,13028
14410,13096
14588,13096
14752,13029
14803,12978
14900,12978
15350,12978
15475,12953
15475,12953
15582,12882
15703,12761
15703,12888
15770,13052
15896,13178
16060,13246
16238,13246
16402,13179
16453,13128
17600,13128
17725,13103
17725,13103
17832,13032
18483,12381
18483,12381
18507,12346
18507,12346
18509,12345
18718,12206
18751,12157
18783,12206
18992,12345
19238,12394
19263,12394
19509,12345
19718,12206
19750,12159
19781,12206
19990,12345
20236,12394
20261,12394
20507,12345
20716,12206
20749,12157
20781,12206
20990,12345
21236,12394
21261,12394
21507,12345
21716,12206
21749,12157
21781,12206
21920,12298
21920,12549
21945,12674
22016,12781
22217,12982
22217,12982
22324,13053
22450,13078
27113,13078
27371,13336
27371,16163
27275,16260
27275,16025
27275,15475
27237,15383
27166,15313
27135,15300
27166,15287
27236,15216
27274,15124
27275,15025
27275,14475
27237,14383
27166,14313
27135,14300
27166,14287
27236,14216
27274,14124
27275,14025
27275,13475
27237,13383
27166,13313
27074,13275
26975,13274
26425,13274
26333,13312
26263,13383
26250,13414
26237,13383
26166,13313
26074,13275
25975,13274
25425,13274
25333,13312
25263,13383
25250,13414
25237,13383
25166,13313
25074,13275
24975,13274
24425,13274
24333,13312
24263,13383
24250,13414
24237,13383
24166,13313
24074,13275
23975,13274
23425,13274
23333,13312
23263,13383
23226,13471
21300,13471
21174,13496
21067,13567
20467,14167
20396,14274
20379,14356
20304,14325
20096,14324
19903,14404
19755,14552
19699,14685
19645,14553
19497,14405
19304,14325
19096,14324
18903,14404
18755,14552
18699,14685
18645,14553
18497,14405
18304,14325
18096,14324
17903,14404
17755,14552
17699,14685
17645,14553
17497,14405
17304,14325
17096,14324
16903,14404
16755,14552
16699,14685
16645,14553
16497,14405
16304,14325
16096,14324
15903,14404
15755,14552
15699,14685
15645,14553
15497,14405
15304,14325
15096,14324
14903,14404
14755,14552
14699,14685
14645,14553
14497,14405
14304,14325
14096,14324
13903,14404
13755,14552
13699,14685
13645,14553
13497,14405
13304,14325
13096,14324
12903,14404
12755,14552
12725,14624
12725,14525
12687,14433
12616,14363
12524,14325
12425,14324
11875,14324
11783,14362
11713,14433
11675,14525
11674,14624
11674,15174
11712,15266
11783,15336
11875,15374
11974,15375
12524,15375
12616,15337
12686,15266
12724,15174
12725,15075
12725,15075
12754,15147
12902,15294
13095,15374
13303,15375
13497,15295
13644,15147
13700,15014
13754,15147
13902,15294
13968,15322
13927,15339
13902,15432
14200,15729
14497,15432
14472,15339
14428,15323
14497,15295
14644,15147
14700,15014
14754,15147
14902,15294
14974,15324
14903,15354
14755,15502
14702,15628
14660,15527
14567,15502
14270,15800
14567,16097
14660,16072
14699,15962
14754,16097
14902,16244
15095,16324
15303,16325
15497,16245
15644,16097
15700,15964
15754,16097
15902,16244
16095,16324
16303,16325
16497,16245
16644,16097
16700,15964
16754,16097
16902,16244
17095,16324
17303,16325
17497,16245
17644,16097
17700,15964
17754,16097
17902,16244
18095,16324
18303,16325
18497,16245
18644,16097
18700,15964
18754,16097
18902,16244
19095,16324
19303,16325
19497,16245
19644,16097
19700,15964
19754,16097
19902,16244
20095,16324
20303,16325
20497,16245
20644,16097
20700,15964
20754,16097
20902,16244
21095,16324
21303,16325
21497,16245
21644,16097
21700,15964
21754,16097
21902,16244
22095,16324
22303,16325
22497,16245
22644,16097
22700,15964
22754,16097
22902,16244
23095,16324
23303,16325
23497,16245
23644,16097
23700,15964
23754,16097
23902,16244
24095,16324
24303,16325
24497,16245
24644,16097
24674,16025
24674,16124
24712,16216
24783,16286
24875,16324
24974,16325
25524,16325
25616,16287
25686,16216
25723,16128
26226,16128
26262,16216
26333,16286
26425,16324
26524,16325
27074,16325
27166,16287
27236,16216
27274,16124
27275,16025
27275,16260
27063,16471
21050,16471
20924,16496
20817,16567
19967,17417
19896,17524
19871,17650
19871,18386
19755,18502
19702,18628
19660,18527
19567,18502
19497,18573
19497,18432
19472,18339
19275,18270
19067,18281
18927,18339
18902,18432
19200,18729
19497,18432
19497,18573
19270,18800
19567,19097
19660,19072
19699,18962
19754,19097
19902,19244
20095,19324
20303,19325
20497,19245
20644,19097
20697,18971
20739,19072
20832,19097
21129,18800
20832,18502
20739,18527
20700,18637
20645,18503
20528,18386
20528,17786
21186,17128
27200,17128
27325,17103
27325,17103
27432,17032
27932,16532
28003,16425
28003,16425
28028,16300
28028,14205
28075,14224
28174,14225
28724,14225
28816,14187
28886,14116
28910,14060
28912,14066
28983,14136
29075,14174
29174,14175
29424,14175
29516,14137
29521,14132
29521,14175
29513,14183
29497,14221
29200,14221
29074,14246
28967,14317
28367,14917
28357,14931
28357,14931
28303,14954
28155,15102
28075,15295
28074,15503
28154,15697
28302,15844
28428,15897
28327,15939
28302,16032
28600,16329
28897,16032
28872,15939
28762,15900
28897,15845
29044,15697
29124,15504
29125,15296
29064,15150
29336,14878
29497,14878
29512,14916
29583,14986
29675,15024
29774,15025
30024,15025
30116,14987
30149,14953
30183,14986
30275,15024
30374,15025
30624,15025
30716,14987
30786,14916
30802,14878
31516,14878
31467,14881
31327,14939
31302,15032
31600,15329
31605,15323
31676,15394
31670,15400
31967,15697
32021,15683
32021,15863
" /> 
</g>
<g style="fill:#FFFFFF; fill-opacity:0.0; 
stroke:#FFFFFF; stroke-width:59.0551; stroke-opacity:1; 
stroke-linecap:round; stroke-linejoin:round;">
</g>
<g style="fill:#FFFFFF; fill-opacity:1.0; 
stroke:#FFFFFF; stroke-width:59.0551; stroke-opacity:1; 
stroke-linecap:round; stroke-linejoin:round;">
<circle cx="16150" cy="12800" r="127.953" /> 
<circle cx="14500" cy="12650" r="127.953" /> 
<circle cx="30000" cy="17400" r="127.953" /> 
<circle cx="21500" cy="19600" r="127.953" /> 
<circle cx="25200" cy="19600" r="127.953" /> 
<circle cx="31600" cy="18400" r="130.472" /> 
<circle cx="31600" cy="17400" r="130.472" /> 
<circle cx="31600" cy="16400" r="130.472" /> 
<circle cx="31600" cy="15400" r="130.472" /> 
<circle cx="28600" cy="15400" r="130.472" /> 
<circle cx="28600" cy="16400" r="130.472" /> 
<circle cx="28600" cy="17400" r="130.472" /> 
<circle cx="28600" cy="18400" r="130.472" /> 
<circle cx="13251" cy="20749" r="166.972" /> 
<circle cx="13251" cy="11751" r="166.972" /> 
<circle cx="14251" cy="20749" r="166.972" /> 
<circle cx="14251" cy="11751" r="166.972" /> 
<circle cx="15251" cy="20749" r="166.972" /> 
<circle cx="15251" cy="11751" r="166.972" /> 
<circle cx="16251" cy="20749" r="166.972" /> 
<circle cx="16251" cy="11751" r="166.972" /> 
<circle cx="17251" cy="20749" r="166.972" /> 
<circle cx="17251" cy="11751" r="166.972" /> 
<circle cx="18251" cy="20749" r="166.972" /> 
<circle cx="18251" cy="11751" r="166.972" /> 
<circle cx="19251" cy="20749" r="166.972" /> 
<circle cx="19251" cy="11751" r="166.972" /> 
<circle cx="20249" cy="20749" r="166.972" /> 
<circle cx="20249" cy="11751" r="166.972" /> 
<circle cx="21249" cy="20749" r="166.972" /> 
<circle cx="21249" cy="11751" r="166.972" /> 
<circle cx="22249" cy="20749" r="166.972" /> 
<circle cx="22249" cy="11751" r="166.972" /> 
<circle cx="23249" cy="20749" r="166.972" /> 
<circle cx="23249" cy="11751" r="166.972" /> 
<circle cx="24249" cy="20749" r="166.972" /> 
<circle cx="24249" cy="11751" r="166.972" /> 
<circle cx="25249" cy="20749" r="166.972" /> 
<circle cx="25249" cy="11751" r="166.972" /> 
<circle cx="26249" cy="20749" r="166.972" /> 
<circle cx="26249" cy="11751" r="166.972" /> 
<circle cx="25200" cy="15800" r="130.472" /> 
<circle cx="24200" cy="15800" r="130.472" /> 
<circle cx="23200" cy="15800" r="130.472" /> 
<circle cx="22200" cy="15800" r="130.472" /> 
<circle cx="21200" cy="15800" r="130.472" /> 
<circle cx="20200" cy="15800" r="130.472" /> 
<circle cx="19200" cy="15800" r="130.472" /> 
<circle cx="18200" cy="15800" r="130.472" /> 
<circle cx="17200" cy="15800" r="130.472" /> 
<circle cx="16200" cy="15800" r="130.472" /> 
<circle cx="15200" cy="15800" r="130.472" /> 
<circle cx="14200" cy="15800" r="130.472" /> 
<circle cx="14200" cy="18800" r="130.472" /> 
<circle cx="15200" cy="18800" r="130.472" /> 
<circle cx="16200" cy="18800" r="130.472" /> 
<circle cx="17200" cy="18800" r="130.472" /> 
<circle cx="18200" cy="18800" r="130.472" /> 
<circle cx="19200" cy="18800" r="130.472" /> 
<circle cx="20200" cy="18800" r="130.472" /> 
<circle cx="21200" cy="18800" r="130.472" /> 
<circle cx="22200" cy="18800" r="130.472" /> 
<circle cx="23200" cy="18800" r="130.472" /> 
<circle cx="24200" cy="18800" r="130.472" /> 
<circle cx="25200" cy="18800" r="130.472" /> 
<circle cx="28950" cy="11900" r="127.972" /> 
<circle cx="28950" cy="10900" r="127.972" /> 
<circle cx="31150" cy="11900" r="127.972" /> 
<circle cx="31150" cy="10900" r="127.972" /> 
<circle cx="12200" cy="14850" r="130.472" /> 
<circle cx="13200" cy="14850" r="130.472" /> 
<circle cx="14200" cy="14850" r="130.472" /> 
<circle cx="15200" cy="14850" r="130.472" /> 
<circle cx="16200" cy="14850" r="130.472" /> 
<circle cx="17200" cy="14850" r="130.472" /> 
<circle cx="18200" cy="14850" r="130.472" /> 
<circle cx="19200" cy="14850" r="130.472" /> 
<circle cx="20200" cy="14850" r="130.472" /> 
<circle cx="21200" cy="14850" r="130.472" /> 
<circle cx="24750" cy="13800" r="130.472" /> 
<circle cx="23750" cy="13800" r="130.472" /> 
<circle cx="15250" cy="10250" r="130.472" /> 
<circle cx="14250" cy="10250" r="130.472" /> 
<circle cx="26250" cy="10250" r="130.472" /> 
<circle cx="25250" cy="10250" r="130.472" /> 
<circle cx="24250" cy="10250" r="130.472" /> 
<circle cx="23250" cy="10250" r="130.472" /> 
<circle cx="26750" cy="15800" r="130.472" /> 
<circle cx="26750" cy="14800" r="130.472" /> 
<circle cx="26750" cy="13800" r="130.472" /> 
<circle cx="25750" cy="13800" r="130.472" /> 
<circle cx="22250" cy="22250" r="130.472" /> 
<circle cx="28250" cy="20350" r="130.472" /> 
<circle cx="11250" cy="20300" r="130.472" /> 
<circle cx="28400" cy="13700" r="130.472" /> 
<circle cx="27450" cy="10250" r="130.472" /> 
<circle cx="18250" cy="22250" r="130.472" /> 
<circle cx="19250" cy="22250" r="130.472" /> 
<circle cx="21250" cy="22250" r="130.472" /> 
</g> 
</svg>
